<?xml version="1.0" encoding="UTF-8" ?>
<!DOCTYPE svg PUBLIC "-//W3C//DTD SVG 1.1//EN" "http://www.w3.org/Graphics/SVG/1.1/DTD/svg11.dtd">
<svg width="200pt" height="200pt" viewBox="0 0 200 200" version="1.1" xmlns="http://www.w3.org/2000/svg">
<g id="#010101ff">
<path fill="#010101" opacity="1.00" d=" M 36.11 6.35 C 85.46 6.27 134.82 6.41 184.17 6.28 C 184.76 41.18 184.15 76.09 184.48 110.99 C 184.60 114.86 184.20 118.72 183.28 122.47 C 176.30 117.86 170.38 111.88 163.82 106.72 C 159.90 110.17 156.33 113.97 152.83 117.84 C 129.11 143.12 105.26 168.27 81.54 193.54 C 79.96 195.49 77.40 195.65 75.07 195.62 C 56.21 195.48 37.34 195.55 18.47 195.56 C 18.36 191.77 21.13 189.03 23.61 186.54 C 36.87 173.49 49.64 159.95 62.57 146.58 C 68.06 140.46 74.46 135.15 79.33 128.49 C 66.22 128.15 53.11 128.44 40.00 128.34 C 31.88 128.20 23.70 128.92 15.65 127.53 C 16.75 125.43 17.93 123.33 19.60 121.63 C 42.23 99.25 64.64 76.65 87.22 54.22 C 90.65 50.99 94.07 47.67 96.48 43.57 C 88.31 43.13 80.11 43.75 71.94 43.37 C 68.97 43.34 66.80 41.09 64.71 39.29 C 57.61 32.71 50.33 26.33 43.12 19.87 C 40.20 17.19 36.85 14.87 34.52 11.61 C 34.78 9.79 35.51 8.09 36.11 6.35 M 59.47 17.55 C 63.61 21.46 68.31 24.72 72.79 28.22 C 75.13 30.06 77.83 31.71 80.93 31.48 C 95.77 31.55 110.61 31.31 125.45 31.57 C 122.40 35.45 118.85 38.88 115.33 42.33 C 95.73 62.06 76.12 81.79 56.54 101.54 C 52.11 106.07 47.38 110.33 43.45 115.31 C 65.79 116.04 88.16 115.28 110.51 115.70 C 107.56 119.95 103.62 123.35 99.95 126.94 C 84.85 141.84 69.59 156.58 54.53 171.53 C 50.69 175.31 46.52 178.84 43.41 183.30 C 51.93 183.56 60.47 183.72 69.00 183.54 C 71.31 183.71 73.00 182.02 74.49 180.52 C 96.29 157.97 118.25 135.59 140.12 113.11 C 144.08 109.07 148.29 105.22 151.52 100.54 C 129.53 100.01 107.52 100.74 85.52 100.16 C 89.38 95.50 93.78 91.33 98.00 87.00 C 109.53 75.20 121.23 63.56 132.67 51.68 C 134.81 49.54 136.73 47.06 139.41 45.58 C 146.50 44.96 153.65 45.36 160.77 45.20 C 160.72 58.15 160.78 71.10 160.66 84.05 C 160.74 86.33 160.47 89.00 162.34 90.70 C 166.03 94.62 170.26 97.99 174.47 101.34 C 174.59 73.13 174.68 44.92 174.43 16.71 C 148.62 16.83 122.81 16.64 97.01 16.80 C 84.52 17.94 71.98 17.02 59.47 17.55 M 143.58 56.68 C 140.12 59.16 137.69 62.74 134.80 65.81 C 128.20 73.46 120.95 80.56 114.79 88.57 C 126.43 88.92 138.07 88.66 149.72 88.74 C 149.69 77.86 149.57 66.98 149.54 56.10 C 147.55 56.22 145.50 56.08 143.58 56.68 Z" />
</g>
<g id="#fffe03ff">
<path fill="#fffe03" opacity="1.00" d=" M 59.47 17.55 C 71.98 17.02 84.52 17.94 97.01 16.80 C 122.81 16.64 148.62 16.83 174.43 16.71 C 174.68 44.92 174.59 73.13 174.47 101.34 C 170.26 97.99 166.03 94.62 162.34 90.70 C 160.47 89.00 160.74 86.33 160.66 84.05 C 160.78 71.10 160.72 58.15 160.77 45.20 C 153.65 45.36 146.50 44.96 139.41 45.58 C 136.73 47.06 134.81 49.54 132.67 51.68 C 121.23 63.56 109.53 75.20 98.00 87.00 C 93.78 91.33 89.38 95.50 85.52 100.16 C 107.52 100.74 129.53 100.01 151.52 100.54 C 148.29 105.22 144.08 109.07 140.12 113.11 C 118.25 135.59 96.29 157.97 74.49 180.52 C 73.00 182.02 71.31 183.71 69.00 183.54 C 60.47 183.72 51.93 183.56 43.41 183.30 C 46.52 178.84 50.69 175.31 54.53 171.53 C 69.59 156.58 84.85 141.84 99.95 126.94 C 103.62 123.35 107.56 119.95 110.51 115.70 C 88.16 115.28 65.79 116.04 43.45 115.31 C 47.38 110.33 52.11 106.07 56.54 101.54 C 76.12 81.79 95.73 62.06 115.33 42.33 C 118.85 38.88 122.40 35.45 125.45 31.57 C 110.61 31.31 95.77 31.55 80.93 31.48 C 77.83 31.71 75.13 30.06 72.79 28.22 C 68.31 24.72 63.61 21.46 59.47 17.55 Z" />
</g>
</svg>
