<?xml version="1.0" encoding="UTF-8" ?>
<!DOCTYPE svg PUBLIC "-//W3C//DTD SVG 1.1//EN" "http://www.w3.org/Graphics/SVG/1.1/DTD/svg11.dtd">
<svg width="200pt" height="200pt" viewBox="0 0 200 200" version="1.1" xmlns="http://www.w3.org/2000/svg">
<g id="#010101ff">
<path fill="#010101" opacity="1.00" d=" M 112.55 12.38 C 122.21 9.83 131.83 6.40 141.95 6.33 C 150.21 6.39 158.60 5.74 166.73 7.59 C 173.19 9.05 179.77 10.06 186.01 12.34 C 183.57 18.85 179.39 24.60 174.50 29.49 C 167.72 37.06 161.06 44.74 154.00 52.05 C 150.23 56.26 145.30 60.14 143.93 65.86 C 146.69 68.01 150.10 69.05 153.03 70.94 C 160.11 75.49 166.01 81.83 169.83 89.35 C 174.59 96.38 176.64 104.76 177.83 113.05 C 180.39 131.29 177.66 150.83 167.22 166.33 C 165.43 168.79 163.26 170.94 161.26 173.23 C 154.05 182.18 143.63 187.90 133.11 192.08 C 126.53 194.07 120.03 197.14 113.01 196.75 C 105.00 196.67 97.00 196.69 89.00 196.77 C 86.35 196.81 83.65 196.72 81.12 195.84 C 72.64 192.96 63.71 191.37 55.65 187.33 C 43.63 181.89 33.31 173.00 25.73 162.25 C 20.23 154.16 17.40 144.53 15.92 134.94 C 15.21 129.69 14.16 124.38 14.87 119.06 C 16.15 108.91 17.30 98.61 21.03 88.99 C 25.25 76.65 32.05 65.36 40.41 55.41 C 46.32 47.29 54.56 41.43 62.43 35.39 C 67.38 31.70 72.80 28.69 78.45 26.21 C 84.53 23.54 90.16 19.92 96.43 17.67 C 101.75 15.76 107.10 13.89 112.55 12.38 M 135.06 21.63 C 124.53 22.39 114.46 25.89 104.73 29.79 C 91.99 35.48 79.58 42.06 68.26 50.26 C 57.87 58.19 48.83 68.08 42.65 79.65 C 33.24 96.95 29.58 117.31 32.57 136.79 C 34.78 148.15 40.53 159.04 49.50 166.50 C 61.31 176.60 76.68 181.69 91.96 183.24 C 100.45 183.38 108.78 181.23 117.16 180.12 C 124.36 179.02 131.41 176.31 136.99 171.53 C 142.12 166.84 147.59 162.41 151.94 156.93 C 157.34 150.18 160.02 141.55 160.34 132.98 C 160.68 122.88 160.83 112.43 157.18 102.84 C 153.99 92.89 147.11 84.03 137.70 79.29 C 133.70 76.96 129.05 76.45 124.71 75.09 C 124.47 74.79 123.99 74.20 123.75 73.90 C 124.98 65.90 130.19 59.30 135.45 53.45 C 143.57 44.58 151.52 35.54 160.14 27.14 C 161.97 25.35 163.63 23.39 165.18 21.36 C 155.19 19.96 145.04 20.39 135.06 21.63 Z" />
</g>
<g id="#ff4902ff">
<path fill="#ff4902" opacity="1.00" d=" M 135.06 21.63 C 145.04 20.39 155.19 19.96 165.18 21.36 C 163.63 23.39 161.97 25.35 160.14 27.14 C 151.52 35.54 143.57 44.58 135.45 53.45 C 130.19 59.30 124.98 65.90 123.75 73.90 C 123.99 74.20 124.47 74.79 124.71 75.09 C 129.05 76.45 133.70 76.96 137.70 79.29 C 147.11 84.03 153.99 92.89 157.18 102.84 C 160.83 112.43 160.68 122.88 160.34 132.98 C 160.02 141.55 157.34 150.18 151.94 156.93 C 147.59 162.41 142.12 166.84 136.99 171.53 C 136.90 168.16 137.54 164.83 138.36 161.57 C 141.28 149.27 140.48 136.48 139.01 124.04 C 138.05 114.67 130.70 107.43 122.73 103.26 C 114.27 98.70 104.40 98.27 95.01 98.61 C 84.90 98.98 74.04 101.26 66.58 108.57 C 60.59 114.32 58.58 122.98 58.80 131.03 C 59.05 137.42 60.52 144.19 64.96 149.04 C 70.65 155.57 79.61 158.18 88.03 158.22 C 91.99 158.29 96.13 156.81 98.53 153.53 C 100.81 150.85 100.98 147.19 101.51 143.88 C 95.30 143.65 87.18 145.82 82.73 140.18 C 79.17 132.95 82.72 122.24 90.99 120.09 C 96.48 118.73 102.39 118.81 107.88 120.21 C 115.61 122.40 120.85 130.03 121.00 137.95 C 121.66 152.08 119.80 166.26 117.16 180.12 C 108.78 181.23 100.45 183.38 91.96 183.24 C 76.68 181.69 61.31 176.60 49.50 166.50 C 40.53 159.04 34.78 148.15 32.57 136.79 C 29.58 117.31 33.24 96.95 42.65 79.65 C 48.83 68.08 57.87 58.19 68.26 50.26 C 79.58 42.06 91.99 35.48 104.73 29.79 C 114.46 25.89 124.53 22.39 135.06 21.63 Z" />
</g>
<g id="#521801ff">
<path fill="#521801" opacity="1.00" d=" M 66.58 108.57 C 74.04 101.26 84.90 98.98 95.01 98.61 C 104.40 98.27 114.27 98.70 122.73 103.26 C 130.70 107.43 138.05 114.67 139.01 124.04 C 140.48 136.48 141.28 149.27 138.36 161.57 C 137.54 164.83 136.90 168.16 136.99 171.53 C 131.41 176.31 124.36 179.02 117.16 180.12 C 119.80 166.26 121.66 152.08 121.00 137.95 C 120.85 130.03 115.61 122.40 107.88 120.21 C 102.39 118.81 96.48 118.73 90.99 120.09 C 82.72 122.24 79.17 132.95 82.73 140.18 C 87.18 145.82 95.30 143.65 101.51 143.88 C 100.98 147.19 100.81 150.85 98.53 153.53 C 96.13 156.81 91.99 158.29 88.03 158.22 C 79.61 158.18 70.65 155.57 64.96 149.04 C 60.52 144.19 59.05 137.42 58.80 131.03 C 58.58 122.98 60.59 114.32 66.58 108.57 Z" />
</g>
</svg>
