<?xml version="1.0" encoding="UTF-8" ?>
<!DOCTYPE svg PUBLIC "-//W3C//DTD SVG 1.1//EN" "http://www.w3.org/Graphics/SVG/1.1/DTD/svg11.dtd">
<svg width="200pt" height="200pt" viewBox="0 0 200 200" version="1.1" xmlns="http://www.w3.org/2000/svg">
<g id="#000000ff">
<path fill="#000000" opacity="1.00" d=" M 6.16 3.24 C 9.10 1.48 12.70 1.66 16.00 1.52 C 26.00 1.58 36.00 1.58 46.00 1.50 C 49.15 1.61 52.48 1.42 55.42 2.72 C 57.93 4.42 59.77 6.90 62.11 8.79 C 76.21 18.86 86.27 33.43 99.96 44.00 C 106.12 48.46 110.99 54.33 116.57 59.43 C 119.43 62.16 123.36 63.95 125.32 67.51 C 126.50 71.23 126.68 75.54 125.01 79.13 C 121.75 83.17 117.00 85.68 113.49 89.49 C 105.93 97.33 96.31 102.88 89.10 111.08 C 95.77 115.60 102.08 120.58 108.34 125.64 C 111.80 128.51 116.79 130.63 117.78 135.48 C 119.23 140.92 116.90 147.43 111.34 149.47 C 97.76 155.48 85.60 164.22 71.90 169.98 C 65.06 173.89 58.44 178.34 51.07 181.24 C 46.82 182.50 41.45 182.18 38.39 178.59 C 36.22 176.20 35.96 172.73 36.42 169.68 C 36.86 166.30 39.85 164.23 42.23 162.17 C 47.39 158.05 51.74 153.05 56.57 148.57 C 58.38 146.76 60.40 145.05 61.63 142.77 C 62.19 140.36 59.14 139.45 57.67 138.20 C 50.14 134.09 44.60 127.36 37.60 122.51 C 34.90 120.51 31.70 118.66 30.44 115.35 C 28.84 111.11 29.39 105.90 32.43 102.42 C 35.97 98.22 40.37 94.86 44.80 91.65 C 49.18 88.46 52.43 84.05 56.56 80.58 C 59.44 78.18 62.28 75.73 64.89 73.04 C 60.54 68.04 55.06 64.25 50.42 59.54 C 45.75 54.85 40.31 51.03 35.55 46.44 C 31.31 42.28 26.01 39.40 21.97 35.04 C 18.39 31.29 14.91 27.32 10.40 24.66 C 7.42 22.66 3.54 20.98 2.60 17.16 C 1.42 12.38 1.84 6.36 6.16 3.24 M 11.84 11.67 C 30.93 28.74 50.38 45.43 69.25 62.74 C 72.93 65.99 77.03 68.84 79.91 72.88 C 74.31 78.30 68.56 83.57 62.81 88.84 C 55.59 94.96 49.21 102.00 41.76 107.85 C 40.85 108.68 39.66 109.41 39.38 110.70 C 41.38 112.72 43.79 114.27 46.06 115.96 C 55.63 123.03 64.82 130.63 74.59 137.45 C 75.69 138.46 77.58 139.14 77.62 140.87 C 76.58 142.69 75.00 144.08 73.54 145.54 C 66.87 151.88 60.88 158.93 53.78 164.79 C 51.60 166.59 49.67 168.68 47.97 170.94 C 53.99 168.77 58.88 164.47 64.62 161.74 C 79.18 154.73 92.95 146.18 107.59 139.31 C 107.56 138.88 107.50 138.03 107.46 137.60 C 100.58 132.87 93.99 127.76 87.46 122.56 C 82.75 118.77 77.45 115.68 73.34 111.20 C 80.19 103.70 88.69 98.00 95.89 90.88 C 102.22 84.70 109.55 79.62 115.61 73.15 C 109.88 67.27 103.18 62.45 97.52 56.49 C 82.90 42.08 67.63 28.35 53.04 13.91 C 51.50 12.23 49.35 11.35 47.07 11.57 C 35.33 11.69 23.59 11.60 11.84 11.67 Z" />
<path fill="#000000" opacity="1.00" d=" M 92.32 17.30 C 95.56 13.84 100.71 14.46 105.00 14.37 C 115.35 14.69 125.72 14.07 136.07 14.59 C 142.13 14.79 147.09 18.71 151.08 22.92 C 154.87 26.85 159.02 30.41 163.44 33.60 C 170.74 38.86 176.51 45.84 182.97 52.03 C 187.05 56.28 191.61 60.05 195.51 64.48 C 198.48 67.69 198.67 72.82 196.73 76.60 C 194.35 80.20 190.62 82.57 187.56 85.54 C 179.60 93.16 172.24 101.41 163.51 108.19 C 166.52 111.67 169.93 114.78 173.70 117.40 C 180.99 122.70 188.05 128.31 194.98 134.07 C 199.10 137.36 199.37 143.62 196.81 147.94 C 195.19 150.59 192.39 152.16 189.73 153.59 C 181.20 157.83 173.55 163.58 165.11 167.99 C 156.86 172.25 149.50 178.00 141.19 182.15 C 131.83 187.43 122.51 192.96 114.34 200.00 L 102.20 200.00 C 99.77 196.69 96.93 192.96 97.72 188.59 C 98.03 184.52 101.13 181.57 104.10 179.16 C 111.16 173.58 117.02 166.70 123.47 160.46 C 128.34 155.13 134.30 150.92 138.94 145.36 C 132.76 140.79 125.88 137.09 120.43 131.58 C 115.74 126.81 109.79 123.61 104.84 119.19 C 99.70 114.57 100.54 105.91 105.42 101.42 C 115.32 91.34 127.44 83.49 136.16 72.22 C 131.70 68.23 127.17 64.30 123.01 59.98 C 117.01 53.59 109.41 48.99 103.49 42.50 C 99.72 38.30 94.54 35.54 91.10 31.05 C 88.96 26.82 89.10 20.96 92.32 17.30 M 101.28 24.82 C 103.76 27.95 106.74 30.63 109.70 33.29 C 120.79 43.90 132.36 53.97 143.48 64.55 C 146.45 67.16 149.40 69.83 151.88 72.93 C 146.50 78.20 140.90 83.25 135.37 88.37 C 127.93 94.60 121.41 101.84 113.77 107.83 C 112.86 108.70 111.51 109.39 111.39 110.79 C 112.48 112.32 114.12 113.31 115.58 114.46 C 125.08 121.23 133.99 128.79 143.41 135.67 C 147.00 138.32 150.40 141.21 153.78 144.12 C 151.26 147.76 148.01 150.78 144.84 153.85 C 137.12 161.78 129.56 169.89 121.33 177.31 C 117.49 180.81 113.25 183.90 109.96 187.96 C 114.23 186.60 117.67 183.69 121.41 181.34 C 143.34 168.36 165.04 155.01 187.12 142.28 C 186.09 140.86 185.02 139.43 183.56 138.41 C 172.31 130.09 161.48 121.22 150.37 112.70 C 149.30 111.76 148.02 110.92 147.39 109.60 C 146.87 107.58 148.95 106.42 150.18 105.26 C 154.70 101.79 158.75 97.78 162.94 93.93 C 171.39 86.64 179.86 79.29 187.41 71.05 C 182.22 65.40 176.18 60.66 170.58 55.44 C 163.27 48.07 155.62 41.05 148.15 33.83 C 144.54 30.71 141.25 26.98 136.85 24.96 C 133.63 24.20 130.28 24.56 127.00 24.51 C 118.42 24.70 109.84 24.27 101.28 24.82 Z" />
</g>
<g id="#f0d35aff">
<path fill="#f0d35a" opacity="1.00" d=" M 11.84 11.67 C 23.59 11.60 35.33 11.69 47.07 11.57 C 49.35 11.35 51.50 12.23 53.04 13.91 C 67.63 28.35 82.90 42.08 97.52 56.49 C 103.18 62.45 109.88 67.27 115.61 73.15 C 109.55 79.62 102.22 84.70 95.89 90.88 C 88.69 98.00 80.19 103.70 73.34 111.20 C 77.45 115.68 82.75 118.77 87.46 122.56 C 93.99 127.76 100.58 132.87 107.46 137.60 C 107.50 138.03 107.56 138.88 107.59 139.31 C 92.95 146.18 79.18 154.73 64.62 161.74 C 58.88 164.47 53.99 168.77 47.97 170.94 C 49.67 168.68 51.60 166.59 53.78 164.79 C 60.88 158.93 66.87 151.88 73.54 145.54 C 75.00 144.08 76.58 142.69 77.62 140.87 C 77.58 139.14 75.69 138.46 74.59 137.45 C 64.82 130.63 55.63 123.03 46.06 115.96 C 43.79 114.27 41.38 112.72 39.38 110.70 C 39.66 109.41 40.85 108.68 41.76 107.85 C 49.21 102.00 55.59 94.96 62.81 88.84 C 68.56 83.57 74.31 78.30 79.91 72.88 C 77.03 68.84 72.93 65.99 69.25 62.74 C 50.38 45.43 30.93 28.74 11.84 11.67 Z" />
<path fill="#f0d35a" opacity="1.00" d=" M 101.28 24.82 C 109.84 24.27 118.42 24.70 127.00 24.51 C 130.28 24.56 133.63 24.20 136.85 24.96 C 141.25 26.98 144.54 30.71 148.15 33.83 C 155.62 41.05 163.27 48.07 170.58 55.44 C 176.18 60.66 182.22 65.40 187.41 71.05 C 179.86 79.29 171.39 86.64 162.94 93.93 C 158.75 97.78 154.70 101.79 150.18 105.26 C 148.95 106.42 146.87 107.58 147.39 109.60 C 148.02 110.92 149.30 111.76 150.37 112.70 C 161.48 121.22 172.31 130.09 183.56 138.41 C 185.02 139.43 186.09 140.86 187.12 142.28 C 165.04 155.01 143.34 168.36 121.41 181.34 C 117.67 183.69 114.23 186.60 109.96 187.96 C 113.25 183.90 117.49 180.81 121.33 177.31 C 129.56 169.89 137.12 161.78 144.84 153.85 C 148.01 150.78 151.26 147.76 153.78 144.12 C 150.40 141.21 147.00 138.32 143.41 135.67 C 133.99 128.79 125.08 121.23 115.58 114.46 C 114.12 113.31 112.48 112.32 111.39 110.79 C 111.51 109.39 112.86 108.70 113.77 107.83 C 121.41 101.84 127.93 94.60 135.37 88.37 C 140.90 83.25 146.50 78.20 151.88 72.93 C 149.40 69.83 146.45 67.16 143.48 64.55 C 132.36 53.97 120.79 43.90 109.70 33.29 C 106.74 30.63 103.76 27.95 101.28 24.82 Z" />
</g>
</svg>
