<?xml version="1.0" encoding="UTF-8" ?>
<!DOCTYPE svg PUBLIC "-//W3C//DTD SVG 1.1//EN" "http://www.w3.org/Graphics/SVG/1.1/DTD/svg11.dtd">
<svg width="200pt" height="200pt" viewBox="0 0 200 200" version="1.1" xmlns="http://www.w3.org/2000/svg">
<g id="#010101ff">
<path fill="#010101" opacity="1.00" d=" M 34.59 15.99 C 34.70 9.62 42.78 5.51 48.15 8.73 C 53.91 12.18 57.72 17.93 62.48 22.52 C 73.33 33.29 84.22 44.02 94.45 55.38 C 97.54 52.26 99.84 48.44 101.31 44.31 C 104.12 36.86 109.04 30.40 111.52 22.80 C 112.70 19.70 113.42 16.24 115.68 13.71 C 118.73 10.84 123.64 10.88 127.22 12.69 C 130.72 14.49 132.21 18.43 133.33 21.96 C 137.70 37.57 139.99 53.69 144.80 69.18 C 150.74 65.77 156.09 61.41 161.98 57.89 C 167.29 54.69 172.11 50.38 178.19 48.69 C 184.57 46.94 191.73 53.35 190.25 59.90 C 189.05 64.50 186.58 68.65 185.22 73.20 C 182.01 83.57 177.26 93.43 174.72 104.03 C 180.16 103.05 185.49 101.24 191.05 101.14 C 194.50 100.94 197.28 103.24 200.00 105.00 L 200.00 116.69 C 196.75 120.74 193.80 125.05 191.68 129.82 C 187.95 138.16 182.05 145.36 178.89 153.99 C 182.25 154.50 185.79 154.63 188.92 156.10 C 195.26 159.15 195.65 169.81 189.36 173.15 C 180.40 178.25 171.05 182.71 162.54 188.57 C 158.76 191.18 154.72 193.82 150.01 194.20 C 142.68 194.88 135.32 194.09 127.97 194.48 C 112.67 195.79 97.22 196.01 81.91 194.57 C 74.26 194.04 66.58 194.74 58.92 194.37 C 55.13 194.25 51.47 192.90 48.37 190.74 C 41.88 186.32 36.13 180.92 29.69 176.42 C 25.87 173.58 21.60 170.85 19.33 166.51 C 17.15 162.15 19.65 156.72 23.80 154.59 C 27.54 152.65 31.88 153.39 35.92 153.38 C 32.13 146.86 27.41 140.96 23.35 134.61 C 19.57 128.77 14.81 123.59 11.57 117.40 C 9.47 113.28 6.59 109.68 3.92 105.95 C 1.37 102.63 1.47 97.50 4.40 94.45 C 7.36 91.17 12.01 89.87 16.31 90.49 C 26.46 91.85 36.29 95.28 46.59 95.60 C 45.86 87.92 44.18 80.38 43.10 72.75 C 41.44 59.33 39.27 45.97 37.02 32.63 C 36.15 27.10 34.55 21.62 34.59 15.99 M 45.31 17.80 C 45.23 21.44 45.38 25.12 46.39 28.65 C 48.48 36.25 48.33 44.21 49.84 51.92 C 50.82 57.60 51.83 63.29 52.39 69.04 C 53.59 82.16 57.03 95.05 57.33 108.25 C 42.27 104.75 26.88 102.97 11.87 99.21 C 18.32 111.12 26.75 121.80 33.65 133.44 C 36.88 138.47 40.70 143.09 43.83 148.19 C 47.25 153.80 51.48 158.98 53.67 165.25 C 51.28 165.82 48.79 166.24 46.37 165.64 C 40.21 164.25 33.90 163.89 27.66 163.08 C 30.22 165.66 33.09 167.90 36.11 169.91 C 41.66 173.62 46.68 178.01 51.99 182.04 C 54.05 183.58 56.32 185.07 58.96 185.27 C 64.72 185.78 70.51 185.29 76.27 185.21 C 79.46 185.30 82.65 185.26 85.84 185.17 L 86.18 185.80 C 98.02 185.75 109.86 185.72 121.70 185.77 L 122.06 185.15 C 126.34 185.44 130.65 185.45 134.94 185.22 C 141.29 185.21 148.36 186.78 153.97 182.95 C 164.01 176.44 174.37 170.47 184.80 164.62 C 181.08 164.13 177.35 164.67 173.76 165.67 C 170.01 166.81 166.07 166.18 162.35 165.27 C 166.42 154.57 172.59 144.86 177.68 134.63 C 181.79 126.78 186.69 119.32 189.94 111.06 C 179.75 113.25 169.87 116.81 159.57 118.53 C 161.27 109.37 165.05 100.80 168.03 92.01 C 172.35 80.25 175.56 68.09 180.77 56.67 C 175.71 59.93 171.15 63.91 165.98 67.01 C 161.45 69.74 156.93 72.49 152.64 75.60 C 147.84 78.73 143.50 82.94 137.70 84.11 C 136.81 79.66 135.99 75.20 134.81 70.82 C 131.63 59.03 129.69 46.96 126.97 35.06 C 125.95 30.13 125.22 25.08 123.09 20.47 C 117.30 33.14 111.47 45.81 105.33 58.32 C 103.48 62.14 102.15 66.27 99.62 69.72 C 98.95 70.57 97.47 71.97 96.43 70.86 C 88.64 64.59 82.61 56.48 75.44 49.55 C 69.99 44.29 66.03 37.69 60.27 32.73 C 54.92 28.12 50.36 22.71 45.31 17.80 Z" />
</g>
<g id="#aa6d40ff">
<path fill="#aa6d40" opacity="1.00" d=" M 45.31 17.80 C 50.36 22.71 54.92 28.12 60.27 32.73 C 66.03 37.69 69.99 44.29 75.44 49.55 C 82.61 56.48 88.64 64.59 96.43 70.86 C 97.47 71.97 98.95 70.57 99.62 69.72 C 102.15 66.27 103.48 62.14 105.33 58.32 C 111.47 45.81 117.30 33.14 123.09 20.47 C 125.22 25.08 125.95 30.13 126.97 35.06 C 129.69 46.96 131.63 59.03 134.81 70.82 C 135.99 75.20 136.81 79.66 137.70 84.11 C 143.50 82.94 147.84 78.73 152.64 75.60 C 156.93 72.49 161.45 69.74 165.98 67.01 C 171.15 63.91 175.71 59.93 180.77 56.67 C 175.56 68.09 172.35 80.25 168.03 92.01 C 165.05 100.80 161.27 109.37 159.57 118.53 C 169.87 116.81 179.75 113.25 189.94 111.06 C 186.69 119.32 181.79 126.78 177.68 134.63 C 172.59 144.86 166.42 154.57 162.35 165.27 C 166.07 166.18 170.01 166.81 173.76 165.67 C 177.35 164.67 181.08 164.13 184.80 164.62 C 174.37 170.47 164.01 176.44 153.97 182.95 C 148.36 186.78 141.29 185.21 134.94 185.22 C 143.94 168.25 152.82 151.22 162.00 134.36 C 151.52 135.30 142.18 140.68 131.96 142.82 C 132.59 127.60 136.20 112.73 137.56 97.59 C 127.88 104.81 119.78 113.87 110.76 121.85 C 109.72 122.70 108.53 123.38 107.25 123.79 C 104.14 121.58 101.85 118.46 99.45 115.55 C 93.57 108.13 87.02 101.26 81.22 93.78 C 78.40 90.15 75.29 86.75 71.91 83.64 C 71.83 89.43 72.27 95.20 72.73 100.97 C 73.40 109.24 73.31 117.57 74.31 125.82 C 74.92 131.12 75.49 136.44 75.59 141.79 C 67.58 140.93 60.06 137.76 52.13 136.51 C 59.77 152.94 68.83 168.68 76.27 185.21 C 70.51 185.29 64.72 185.78 58.96 185.27 C 56.32 185.07 54.05 183.58 51.99 182.04 C 46.68 178.01 41.66 173.62 36.11 169.91 C 33.09 167.90 30.22 165.66 27.66 163.08 C 33.90 163.89 40.21 164.25 46.37 165.64 C 48.79 166.24 51.28 165.82 53.67 165.25 C 51.48 158.98 47.25 153.80 43.83 148.19 C 40.70 143.09 36.88 138.47 33.65 133.44 C 26.75 121.80 18.32 111.12 11.87 99.21 C 26.88 102.97 42.27 104.75 57.33 108.25 C 57.03 95.05 53.59 82.16 52.39 69.04 C 51.83 63.29 50.82 57.60 49.84 51.92 C 48.33 44.21 48.48 36.25 46.39 28.65 C 45.38 25.12 45.23 21.44 45.31 17.80 Z" />
</g>
<g id="#954107ff">
<path fill="#954107" opacity="1.00" d=" M 71.91 83.64 C 75.29 86.75 78.40 90.15 81.22 93.78 C 87.02 101.26 93.57 108.13 99.45 115.55 C 101.85 118.46 104.14 121.58 107.25 123.79 C 108.53 123.38 109.72 122.70 110.76 121.85 C 119.78 113.87 127.88 104.81 137.56 97.59 C 136.20 112.73 132.59 127.60 131.96 142.82 C 142.18 140.68 151.52 135.30 162.00 134.36 C 152.82 151.22 143.94 168.25 134.94 185.22 C 130.65 185.45 126.34 185.44 122.06 185.15 C 129.24 172.00 137.02 159.17 143.98 145.90 C 136.35 149.19 129.25 153.63 121.37 156.34 C 123.02 144.14 125.60 132.07 126.82 119.81 C 119.51 126.71 114.08 135.34 106.54 142.03 C 97.80 130.08 90.20 117.31 81.01 105.70 C 81.72 112.84 83.15 119.89 84.04 127.00 C 85.50 138.81 88.01 150.48 88.91 162.36 C 82.27 159.29 76.30 154.97 69.69 151.85 C 72.11 158.01 75.38 163.76 78.26 169.70 C 80.70 174.90 83.16 180.09 85.84 185.17 C 82.65 185.26 79.46 185.30 76.27 185.21 C 68.83 168.68 59.77 152.94 52.13 136.51 C 60.06 137.76 67.58 140.93 75.59 141.79 C 75.49 136.44 74.92 131.12 74.31 125.82 C 73.31 117.57 73.40 109.24 72.73 100.97 C 72.27 95.20 71.83 89.43 71.91 83.64 Z" />
</g>
<g id="#ea9452ff">
<path fill="#ea9452" opacity="1.00" d=" M 81.01 105.70 C 90.20 117.31 97.80 130.08 106.54 142.03 C 114.08 135.34 119.51 126.71 126.82 119.81 C 125.60 132.07 123.02 144.14 121.37 156.34 C 129.25 153.63 136.35 149.19 143.98 145.90 C 137.02 159.17 129.24 172.00 122.06 185.15 L 121.70 185.77 C 109.86 185.72 98.02 185.75 86.18 185.80 L 85.84 185.17 C 83.16 180.09 80.70 174.90 78.26 169.70 C 75.38 163.76 72.11 158.01 69.69 151.85 C 76.30 154.97 82.27 159.29 88.91 162.36 C 88.01 150.48 85.50 138.81 84.04 127.00 C 83.15 119.89 81.72 112.84 81.01 105.70 Z" />
</g>
</svg>
