<?xml version="1.0" encoding="UTF-8" ?>
<!DOCTYPE svg PUBLIC "-//W3C//DTD SVG 1.1//EN" "http://www.w3.org/Graphics/SVG/1.1/DTD/svg11.dtd">
<svg width="200pt" height="200pt" viewBox="0 0 200 200" version="1.1" xmlns="http://www.w3.org/2000/svg">
<g id="#8b8b8bd6">
<path fill="#8b8b8b" opacity="0.84" d=" M 19.17 0.00 L 121.88 0.00 C 116.13 2.05 109.97 1.37 104.00 1.44 C 81.33 1.45 58.67 1.42 36.00 1.45 C 30.37 1.37 24.58 1.90 19.17 0.00 Z" />
<path fill="#8b8b8b" opacity="0.84" d=" M 17.95 1.92 L 19.00 1.75 C 19.23 15.15 18.73 28.55 19.23 41.94 C 29.53 42.95 39.88 41.86 50.20 42.52 C 49.82 43.13 49.43 43.74 49.03 44.33 C 39.54 42.50 29.85 44.12 20.28 43.43 C 17.21 43.18 17.87 39.21 17.62 37.06 C 17.89 25.35 17.27 13.61 17.95 1.92 Z" />
<path fill="#8b8b8b" opacity="0.84" d=" M 122.10 1.74 L 123.16 1.90 C 123.65 11.61 123.32 21.34 123.40 31.06 C 123.68 34.15 121.71 36.65 119.45 38.49 C 121.46 35.39 122.34 31.71 122.23 28.04 C 122.16 19.27 122.16 10.51 122.10 1.74 Z" />
<path fill="#8b8b8b" opacity="0.84" d=" M 38.88 54.09 C 40.97 51.71 43.31 49.57 45.92 47.77 C 43.84 50.16 41.47 52.27 38.88 54.09 Z" />
<path fill="#8b8b8b" opacity="0.84" d=" M 25.85 66.02 C 28.00 63.67 30.29 61.46 32.83 59.54 C 30.92 62.11 28.57 64.31 25.85 66.02 Z" />
<path fill="#8b8b8b" opacity="0.84" d=" M 17.65 86.00 C 17.62 81.53 17.25 76.94 18.60 72.60 C 19.46 83.78 18.92 95.01 18.98 106.21 L 17.94 106.05 C 17.36 99.38 17.79 92.68 17.65 86.00 Z" />
<path fill="#8b8b8b" opacity="0.84" d=" M 177.98 84.32 C 178.24 82.71 179.34 80.78 181.27 81.23 C 181.05 82.95 179.48 83.85 177.98 84.32 Z" />
<path fill="#8b8b8b" opacity="0.84" d=" M 157.09 102.75 L 157.79 102.59 C 166.09 104.14 174.58 102.48 182.88 103.99 C 183.22 113.65 182.86 123.32 183.07 132.99 C 183.02 136.32 183.54 139.94 181.66 142.91 C 180.07 130.28 181.45 117.51 180.90 104.82 C 173.18 104.33 165.45 104.93 157.74 104.41 C 157.57 103.99 157.25 103.17 157.09 102.75 Z" />
<path fill="#8b8b8b" opacity="0.84" d=" M 19.44 107.38 C 23.52 106.22 27.81 106.57 32.00 106.52 C 52.47 106.60 72.93 106.39 93.39 106.62 C 93.08 107.06 92.44 107.94 92.12 108.39 C 88.43 108.00 84.71 107.83 81.00 107.86 C 63.33 107.99 45.67 107.81 28.00 107.96 C 25.13 107.98 22.27 107.81 19.44 107.38 Z" />
<path fill="#8b8b8b" opacity="0.84" d=" M 89.05 117.89 C 88.72 115.96 88.20 113.70 89.59 112.05 C 90.39 113.91 90.61 116.34 89.05 117.89 Z" />
<path fill="#8b8b8b" opacity="0.84" d=" M 33.59 119.40 C 40.34 118.23 47.20 118.84 54.00 118.75 C 65.37 118.79 76.75 118.59 88.11 118.95 C 83.66 120.89 78.70 120.02 74.00 120.12 C 60.94 120.12 47.88 119.99 34.82 120.15 C 34.28 131.81 35.06 143.49 34.46 155.15 C 33.77 143.24 35.25 131.26 33.59 119.40 Z" />
<path fill="#8b8b8b" opacity="0.84" d=" M 111.18 144.76 C 112.86 144.21 112.42 146.77 112.03 147.64 L 111.66 148.03 C 110.65 147.00 110.50 145.91 111.18 144.76 Z" />
<path fill="#8b8b8b" opacity="0.84" d=" M 34.42 199.40 C 42.23 198.21 50.14 198.77 58.00 198.69 C 71.67 198.65 85.33 198.75 99.00 198.63 C 102.80 198.58 106.58 198.97 110.36 199.35 L 109.55 200.00 L 35.18 200.00 L 34.42 199.40 Z" />
</g>
<g id="#303030ff">
<path fill="#303030" opacity="1.00" d=" M 19.00 1.75 C 21.66 1.40 24.33 1.50 27.00 1.57 C 56.00 1.51 85.00 1.55 114.00 1.55 C 116.70 1.47 119.41 1.43 122.10 1.74 C 122.16 10.51 122.16 19.27 122.23 28.04 C 122.34 31.71 121.46 35.39 119.45 38.49 C 118.09 39.73 116.60 40.82 115.13 41.93 C 111.93 43.81 108.77 45.99 107.01 49.38 C 110.33 49.63 113.67 49.75 117.00 49.73 C 133.33 49.57 149.67 49.75 166.00 49.63 C 170.89 49.49 175.78 49.65 180.65 50.20 C 181.41 60.31 180.10 70.48 181.49 80.56 L 181.27 81.23 C 179.34 80.78 178.24 82.71 177.98 84.32 C 171.18 90.35 165.10 97.15 157.79 102.59 L 157.09 102.75 C 157.25 103.17 157.57 103.99 157.74 104.41 C 165.45 104.93 173.18 104.33 180.90 104.82 C 181.45 117.51 180.07 130.28 181.66 142.91 C 178.16 142.18 174.59 141.76 171.01 141.82 C 158.67 141.99 146.33 141.87 134.00 141.91 C 126.86 141.99 119.69 141.45 112.60 142.49 C 116.34 143.28 120.18 143.57 124.01 143.43 C 142.95 143.02 161.91 143.79 180.84 143.06 C 175.62 144.10 170.28 143.50 165.00 143.54 C 154.33 143.57 143.66 143.55 133.00 143.56 C 126.47 143.60 119.92 143.19 113.43 143.99 C 112.97 145.21 112.55 146.44 112.03 147.64 C 112.42 146.77 112.86 144.21 111.18 144.76 C 110.50 145.91 110.65 147.00 111.66 148.03 C 108.05 151.86 104.37 155.65 100.11 158.76 C 98.37 160.06 96.73 161.47 95.17 162.97 C 100.34 164.04 105.64 163.89 110.88 163.89 C 110.84 175.30 110.94 186.71 110.81 198.11 C 94.22 198.68 77.60 198.19 61.00 198.35 C 52.30 198.25 43.60 198.64 34.91 198.11 C 34.65 189.45 34.23 180.74 34.92 172.10 C 36.42 167.92 40.43 165.25 43.03 161.74 C 44.88 159.87 46.65 157.91 48.36 155.92 C 43.35 155.58 38.33 155.57 33.32 155.65 C 33.44 143.57 32.94 131.47 33.59 119.40 C 35.25 131.26 33.77 143.24 34.46 155.15 C 35.06 143.49 34.28 131.81 34.82 120.15 C 47.88 119.99 60.94 120.12 74.00 120.12 C 78.70 120.02 83.66 120.89 88.11 118.95 C 88.35 118.69 88.81 118.15 89.05 117.89 C 90.61 116.34 90.39 113.91 89.59 112.05 C 90.42 110.81 91.26 109.59 92.12 108.39 C 92.44 107.94 93.08 107.06 93.39 106.62 C 68.60 106.09 43.77 106.89 18.98 106.21 C 18.92 95.01 19.46 83.78 18.60 72.60 C 20.79 70.17 23.31 68.07 25.85 66.02 C 28.57 64.31 30.92 62.11 32.83 59.54 C 34.83 57.70 36.85 55.89 38.88 54.09 C 41.47 52.27 43.84 50.16 45.92 47.77 C 47.00 46.67 48.06 45.53 49.03 44.33 C 49.43 43.74 49.82 43.13 50.20 42.52 C 39.88 41.86 29.53 42.95 19.23 41.94 C 18.73 28.55 19.23 15.15 19.00 1.75 M 30.05 13.02 C 29.40 18.99 29.45 25.01 30.02 30.98 C 46.71 31.90 63.46 30.92 80.18 31.46 C 78.36 33.86 76.25 36.01 73.96 37.95 C 60.29 50.28 46.82 62.83 33.10 75.11 C 31.73 76.50 29.99 77.90 29.85 80.01 C 29.26 84.98 29.62 90.01 30.05 94.99 C 36.35 95.66 42.68 95.29 49.00 95.35 C 68.01 95.39 87.02 95.30 106.03 95.41 C 107.63 95.10 110.45 95.87 111.06 93.88 C 111.85 88.29 111.39 82.60 111.04 76.98 C 94.34 76.15 77.59 77.03 60.88 76.55 C 62.58 74.69 64.33 72.89 66.20 71.20 C 80.01 58.68 93.55 45.87 107.40 33.40 C 109.21 31.66 111.48 29.81 111.32 27.02 C 111.40 22.44 111.97 17.70 110.77 13.23 C 108.60 12.47 106.26 12.61 104.00 12.58 C 85.67 12.73 67.34 12.60 49.01 12.65 C 42.69 12.70 36.35 12.33 30.05 13.02 M 111.48 61.38 C 111.22 66.41 111.20 71.45 111.53 76.48 C 122.14 77.11 132.79 76.11 143.38 77.01 C 142.01 78.74 140.57 80.43 138.94 81.93 C 127.16 92.47 115.56 103.23 103.81 113.80 C 98.64 117.92 100.97 125.26 100.98 130.93 C 109.98 131.54 119.00 131.08 128.00 131.21 C 142.00 131.01 156.01 131.63 170.00 130.90 C 170.53 125.89 170.48 120.85 170.18 115.82 C 156.11 114.52 141.93 116.08 127.84 115.04 C 130.08 112.22 132.69 109.75 135.40 107.39 C 145.52 98.18 155.46 88.78 165.63 79.63 C 167.18 78.16 168.88 76.73 169.90 74.81 C 170.94 70.32 170.31 65.66 169.95 61.12 C 158.32 60.37 146.65 60.98 135.00 60.79 C 127.16 61.01 119.26 60.18 111.48 61.38 M 45.40 131.47 C 44.56 135.46 44.58 139.55 45.38 143.54 C 52.25 143.80 59.13 143.64 66.00 143.64 C 70.26 143.67 74.64 143.18 78.76 144.59 C 68.64 154.55 57.85 163.81 47.46 173.48 C 44.07 176.48 44.37 181.66 45.18 185.71 C 45.90 187.73 48.29 187.16 49.96 187.39 C 64.64 187.38 79.33 187.29 94.01 187.42 C 95.94 187.39 97.91 187.40 99.75 186.76 C 101.07 182.98 100.32 178.90 99.98 175.02 C 88.95 174.07 77.86 175.03 66.81 174.54 C 69.60 170.47 73.64 167.56 77.18 164.18 C 83.56 158.22 90.01 152.34 96.45 146.43 C 97.98 144.85 99.98 143.32 100.27 140.98 C 100.73 137.77 100.28 134.52 99.95 131.31 C 81.76 131.45 63.58 131.13 45.40 131.47 Z" />
</g>
<g id="#4f85f1ff">
<path fill="#4f85f1" opacity="1.00" d=" M 30.05 13.02 C 36.35 12.33 42.69 12.70 49.01 12.65 C 67.34 12.60 85.67 12.73 104.00 12.58 C 106.26 12.61 108.60 12.47 110.77 13.23 C 111.97 17.70 111.40 22.44 111.32 27.02 C 111.48 29.81 109.21 31.66 107.40 33.40 C 93.55 45.87 80.01 58.68 66.20 71.20 C 64.33 72.89 62.58 74.69 60.88 76.55 C 77.59 77.03 94.34 76.15 111.04 76.98 C 111.39 82.60 111.85 88.29 111.06 93.88 C 110.45 95.87 107.63 95.10 106.03 95.41 C 87.02 95.30 68.01 95.39 49.00 95.35 C 42.68 95.29 36.35 95.66 30.05 94.99 C 29.62 90.01 29.26 84.98 29.85 80.01 C 29.99 77.90 31.73 76.50 33.10 75.11 C 46.82 62.83 60.29 50.28 73.96 37.95 C 76.25 36.01 78.36 33.86 80.18 31.46 C 63.46 30.92 46.71 31.90 30.02 30.98 C 29.45 25.01 29.40 18.99 30.05 13.02 Z" />
<path fill="#4f85f1" opacity="1.00" d=" M 111.48 61.38 C 119.26 60.18 127.16 61.01 135.00 60.79 C 146.65 60.98 158.32 60.37 169.95 61.12 C 170.31 65.66 170.94 70.32 169.90 74.81 C 168.88 76.73 167.18 78.16 165.63 79.63 C 155.46 88.78 145.52 98.18 135.40 107.39 C 132.69 109.75 130.08 112.22 127.84 115.04 C 141.93 116.08 156.11 114.52 170.18 115.82 C 170.48 120.85 170.53 125.89 170.00 130.90 C 156.01 131.63 142.00 131.01 128.00 131.21 C 119.00 131.08 109.98 131.54 100.98 130.93 C 100.97 125.26 98.64 117.92 103.81 113.80 C 115.56 103.23 127.16 92.47 138.94 81.93 C 140.57 80.43 142.01 78.74 143.38 77.01 C 132.79 76.11 122.14 77.11 111.53 76.48 C 111.20 71.45 111.22 66.41 111.48 61.38 Z" />
<path fill="#4f85f1" opacity="1.00" d=" M 45.40 131.47 C 63.58 131.13 81.76 131.45 99.95 131.31 C 100.28 134.52 100.73 137.77 100.27 140.98 C 99.98 143.32 97.98 144.85 96.45 146.43 C 90.01 152.34 83.56 158.22 77.18 164.18 C 73.64 167.56 69.60 170.47 66.81 174.54 C 77.86 175.03 88.95 174.07 99.98 175.02 C 100.32 178.90 101.07 182.98 99.75 186.76 C 97.91 187.40 95.94 187.39 94.01 187.42 C 79.33 187.29 64.64 187.38 49.96 187.39 C 48.29 187.16 45.90 187.73 45.18 185.71 C 44.37 181.66 44.07 176.48 47.46 173.48 C 57.85 163.81 68.64 154.55 78.76 144.59 C 74.64 143.18 70.26 143.67 66.00 143.64 C 59.13 143.64 52.25 143.80 45.38 143.54 C 44.58 139.55 44.56 135.46 45.40 131.47 Z" />
</g>
<g id="#475571f8">
<path fill="#475571" opacity="0.97" d=" M 107.01 49.38 C 108.77 45.99 111.93 43.81 115.13 41.93 C 113.01 44.17 111.03 46.54 109.00 48.87 C 130.67 48.63 152.35 48.95 174.03 48.69 C 177.06 48.65 180.06 49.14 183.01 49.78 C 183.01 58.21 183.03 66.64 183.08 75.07 C 183.19 77.04 182.27 78.81 181.49 80.56 C 180.10 70.48 181.41 60.31 180.65 50.20 C 175.78 49.65 170.89 49.49 166.00 49.63 C 149.67 49.75 133.33 49.57 117.00 49.73 C 113.67 49.75 110.33 49.63 107.01 49.38 Z" />
<path fill="#475571" opacity="0.97" d=" M 112.60 142.49 C 119.69 141.45 126.86 141.99 134.00 141.91 C 146.33 141.87 158.67 141.99 171.01 141.82 C 174.59 141.76 178.16 142.18 181.66 142.91 L 180.84 143.06 C 161.91 143.79 142.95 143.02 124.01 143.43 C 120.18 143.57 116.34 143.28 112.60 142.49 Z" />
<path fill="#475571" opacity="0.97" d=" M 95.17 162.97 C 96.73 161.47 98.37 160.06 100.11 158.76 C 99.37 159.82 98.67 160.92 97.97 162.01 C 102.70 161.88 107.45 161.95 112.10 162.90 C 112.59 172.60 112.18 182.32 112.40 192.03 C 112.19 194.50 112.87 197.81 110.36 199.35 C 106.58 198.97 102.80 198.58 99.00 198.63 C 85.33 198.75 71.67 198.65 58.00 198.69 C 50.14 198.77 42.23 198.21 34.42 199.40 C 32.52 195.55 33.42 191.13 33.30 187.00 C 33.57 181.53 32.68 175.97 33.71 170.56 C 35.66 166.62 39.57 164.22 43.03 161.74 C 40.43 165.25 36.42 167.92 34.92 172.10 C 34.23 180.74 34.65 189.45 34.91 198.11 C 43.60 198.64 52.30 198.25 61.00 198.35 C 77.60 198.19 94.22 198.68 110.81 198.11 C 110.94 186.71 110.84 175.30 110.88 163.89 C 105.64 163.89 100.34 164.04 95.17 162.97 Z" />
</g>
</svg>
