<?xml version="1.0" encoding="UTF-8" ?>
<!DOCTYPE svg PUBLIC "-//W3C//DTD SVG 1.1//EN" "http://www.w3.org/Graphics/SVG/1.1/DTD/svg11.dtd">
<svg width="200pt" height="200pt" viewBox="0 0 200 200" version="1.1" xmlns="http://www.w3.org/2000/svg">
<g id="#000000ff">
<path fill="#000000" opacity="1.00" d=" M 47.87 16.86 C 52.98 12.09 59.04 8.48 64.11 3.66 C 68.08 6.41 74.26 7.00 75.86 12.22 C 77.82 17.44 80.24 22.49 82.04 27.76 C 83.29 33.41 82.37 39.27 82.87 45.00 C 83.92 60.96 83.66 77.01 85.55 92.91 C 86.10 96.49 86.26 100.48 88.59 103.43 C 92.79 107.10 98.84 106.81 104.07 106.78 C 108.04 106.56 113.03 106.07 115.29 102.33 C 117.22 96.99 116.93 91.18 117.52 85.61 C 119.33 68.10 118.96 50.47 120.23 32.93 C 120.49 26.97 123.12 21.51 124.79 15.88 C 125.71 13.22 126.29 10.35 127.94 8.02 C 130.82 6.37 134.07 5.57 137.13 4.36 C 152.51 14.27 165.80 28.15 172.81 45.24 C 178.67 59.37 179.81 74.85 180.54 89.97 C 181.55 99.29 181.38 108.67 181.35 118.03 C 181.34 120.62 180.94 123.28 179.45 125.46 C 170.87 138.22 160.94 150.22 148.94 159.91 C 143.69 164.15 137.92 167.66 132.24 171.27 C 131.85 179.77 132.48 188.29 131.83 196.78 C 111.00 196.87 90.16 196.92 69.33 196.76 C 69.23 188.51 69.53 180.27 69.22 172.03 C 51.14 159.28 35.69 143.10 22.79 125.20 C 21.02 122.50 21.40 119.11 20.88 116.05 C 20.54 112.23 18.95 108.69 18.12 104.97 C 17.10 100.51 20.19 96.50 20.04 92.06 C 20.10 82.36 18.97 72.56 21.35 63.01 C 23.07 44.61 34.34 28.76 47.87 16.86 M 57.57 28.58 C 52.65 33.37 47.67 38.26 44.21 44.26 C 39.69 52.00 37.77 60.88 36.21 69.61 C 47.13 69.68 58.06 69.60 68.98 69.67 C 69.20 65.78 69.21 61.88 68.93 58.00 C 68.31 47.75 68.94 37.47 68.47 27.23 C 68.63 24.86 65.76 24.29 64.02 23.69 C 61.51 24.78 59.54 26.74 57.57 28.58 M 133.40 25.31 C 132.89 40.09 132.36 54.87 132.33 69.66 C 143.18 69.61 154.04 69.65 164.89 69.65 C 164.37 61.11 161.76 52.75 157.83 45.18 C 152.91 36.63 145.64 29.69 137.99 23.59 C 136.46 24.16 134.93 24.73 133.40 25.31 M 37.34 85.01 C 37.38 92.36 37.40 99.70 37.31 107.05 C 37.24 109.75 37.60 112.54 39.16 114.83 C 46.38 126.53 55.04 137.61 66.18 145.82 C 72.10 150.25 78.75 153.53 85.17 157.15 C 85.65 164.97 85.11 172.79 85.27 180.61 C 95.53 180.48 105.78 180.58 116.03 180.67 C 116.80 172.65 116.04 164.59 116.48 156.55 C 122.90 153.12 129.25 149.50 134.99 144.99 C 145.80 136.82 154.59 126.28 162.13 115.10 C 164.30 112.19 163.93 108.41 163.95 105.00 C 163.76 98.33 164.32 91.66 163.87 84.99 C 153.65 84.51 143.37 84.39 133.16 85.03 C 131.93 91.08 131.06 97.25 129.06 103.12 C 126.74 110.04 122.69 116.39 117.41 121.41 C 116.04 122.87 113.87 122.55 112.08 122.69 C 105.04 122.65 98.01 122.55 90.97 122.70 C 88.52 122.59 85.69 123.04 83.67 121.30 C 79.60 118.03 76.11 113.95 73.69 109.32 C 69.92 101.76 69.40 93.16 69.03 84.87 C 58.47 84.61 47.88 84.38 37.34 85.01 Z" />
</g>
<g id="#de4a6bff">
<path fill="#de4a6b" opacity="1.00" d=" M 57.57 28.58 C 59.54 26.74 61.51 24.78 64.02 23.69 C 65.76 24.29 68.63 24.86 68.47 27.23 C 68.94 37.47 68.31 47.75 68.93 58.00 C 69.21 61.88 69.20 65.78 68.98 69.67 C 58.06 69.60 47.13 69.68 36.21 69.61 C 37.77 60.88 39.69 52.00 44.21 44.26 C 47.67 38.26 52.65 33.37 57.57 28.58 Z" />
<path fill="#de4a6b" opacity="1.00" d=" M 133.40 25.31 C 134.93 24.73 136.46 24.16 137.99 23.59 C 145.64 29.69 152.91 36.63 157.83 45.18 C 161.76 52.75 164.37 61.11 164.89 69.65 C 154.04 69.65 143.18 69.61 132.33 69.66 C 132.36 54.87 132.89 40.09 133.40 25.31 Z" />
</g>
<g id="#6b72b6ff">
<path fill="#6b72b6" opacity="1.00" d=" M 37.34 85.01 C 47.88 84.38 58.47 84.61 69.03 84.87 C 69.40 93.16 69.92 101.76 73.69 109.32 C 76.11 113.95 79.60 118.03 83.67 121.30 C 85.69 123.04 88.52 122.59 90.97 122.70 C 98.01 122.55 105.04 122.65 112.08 122.69 C 113.87 122.55 116.04 122.87 117.41 121.41 C 122.69 116.39 126.74 110.04 129.06 103.12 C 131.06 97.25 131.93 91.08 133.16 85.03 C 143.37 84.39 153.65 84.51 163.87 84.99 C 164.32 91.66 163.76 98.33 163.95 105.00 C 163.93 108.41 164.30 112.19 162.13 115.10 C 154.59 126.28 145.80 136.82 134.99 144.99 C 129.25 149.50 122.90 153.12 116.48 156.55 C 116.04 164.59 116.80 172.65 116.03 180.67 C 105.78 180.58 95.53 180.48 85.27 180.61 C 85.11 172.79 85.65 164.97 85.17 157.15 C 78.75 153.53 72.10 150.25 66.18 145.82 C 55.04 137.61 46.38 126.53 39.16 114.83 C 37.60 112.54 37.24 109.75 37.31 107.05 C 37.40 99.70 37.38 92.36 37.34 85.01 Z" />
</g>
</svg>
