<?xml version="1.0" encoding="UTF-8" ?>
<!DOCTYPE svg PUBLIC "-//W3C//DTD SVG 1.1//EN" "http://www.w3.org/Graphics/SVG/1.1/DTD/svg11.dtd">
<svg width="200pt" height="200pt" viewBox="0 0 200 200" version="1.1" xmlns="http://www.w3.org/2000/svg">
<g id="#010101ff">
<path fill="#010101" opacity="1.00" d=" M 73.12 9.16 C 75.60 7.05 77.96 4.67 80.94 3.28 C 84.67 5.33 87.59 8.51 90.83 11.21 C 100.72 19.64 110.49 28.21 120.46 36.55 C 122.18 38.08 124.06 39.55 125.28 41.54 C 125.84 43.28 125.77 45.14 125.83 46.94 C 125.70 62.98 125.71 79.02 125.83 95.06 C 125.76 96.85 125.85 98.71 125.26 100.43 C 124.15 102.22 122.46 103.53 120.90 104.90 C 107.43 116.11 94.36 127.80 80.95 139.08 C 67.73 128.34 55.13 116.86 42.04 105.96 C 40.09 104.26 37.98 102.65 36.54 100.47 C 35.68 98.45 35.78 96.19 35.70 94.03 C 35.78 79.69 35.82 65.35 35.70 51.01 C 35.85 46.83 34.87 41.59 38.76 38.74 C 50.20 28.86 61.75 19.12 73.12 9.16 M 60.54 34.55 C 56.66 37.99 52.50 41.12 48.77 44.72 C 46.59 46.47 46.96 49.47 46.83 51.95 C 46.89 64.31 46.93 76.67 46.82 89.02 C 46.85 90.94 46.81 92.89 47.22 94.78 C 48.07 96.77 49.91 98.10 51.44 99.55 C 59.55 106.43 67.67 113.32 75.64 120.37 C 77.29 121.75 78.96 123.16 80.92 124.08 C 83.27 122.82 85.24 120.99 87.27 119.28 C 95.25 112.23 103.39 105.37 111.50 98.47 C 113.13 97.07 114.89 95.39 114.67 93.03 C 114.87 80.02 114.59 67.01 114.77 53.99 C 114.72 51.51 114.93 48.96 114.30 46.54 C 112.93 44.35 110.78 42.82 108.88 41.12 C 99.49 33.29 90.42 25.07 80.94 17.35 C 73.83 22.70 67.36 28.84 60.54 34.55 Z" />
<path fill="#010101" opacity="1.00" d=" M 107.54 133.54 C 117.13 124.17 126.20 114.27 136.07 105.20 C 147.11 115.04 157.27 125.84 167.97 136.06 C 171.59 138.97 170.71 143.92 170.78 148.01 C 170.59 153.32 171.02 158.65 170.64 163.95 C 170.58 166.49 168.53 168.24 166.91 169.91 C 160.01 176.34 153.31 182.98 146.47 189.47 C 143.07 192.63 140.15 196.44 136.08 198.80 C 134.49 197.81 133.12 196.52 131.78 195.23 C 123.30 186.70 114.76 178.23 106.10 169.89 C 104.26 168.00 102.09 165.92 102.22 163.05 C 102.06 156.02 102.07 148.97 102.22 141.94 C 102.11 138.29 105.32 135.97 107.54 133.54 M 118.49 140.50 C 116.84 142.30 115.00 144.32 115.16 146.95 C 115.20 151.71 114.42 156.74 115.78 161.34 C 119.86 166.79 125.06 171.33 129.49 176.51 C 131.78 178.71 133.61 181.80 136.77 182.81 C 142.40 178.12 146.75 172.11 152.00 167.01 C 154.08 164.55 157.29 162.41 157.49 158.92 C 157.73 154.65 157.75 150.36 157.47 146.09 C 157.31 143.38 155.00 141.56 153.40 139.62 C 147.53 133.64 142.36 127.02 136.22 121.32 C 130.13 127.55 124.45 134.15 118.49 140.50 Z" />
</g>
<g id="#adcef7ff">
<path fill="#adcef7" opacity="1.00" d=" M 60.54 34.55 C 67.36 28.84 73.83 22.70 80.94 17.35 C 90.42 25.07 99.49 33.29 108.88 41.12 C 110.78 42.82 112.93 44.35 114.30 46.54 C 114.93 48.96 114.72 51.51 114.77 53.99 C 114.59 67.01 114.87 80.02 114.67 93.03 C 114.89 95.39 113.13 97.07 111.50 98.47 C 103.39 105.37 95.25 112.23 87.27 119.28 C 85.24 120.99 83.27 122.82 80.92 124.08 C 78.96 123.16 77.29 121.75 75.64 120.37 C 67.67 113.32 59.55 106.43 51.44 99.55 C 49.91 98.10 48.07 96.77 47.22 94.78 C 46.81 92.89 46.85 90.94 46.82 89.02 C 46.93 76.67 46.89 64.31 46.83 51.95 C 46.96 49.47 46.59 46.47 48.77 44.72 C 52.50 41.12 56.66 37.99 60.54 34.55 M 67.86 51.85 C 66.38 53.32 64.44 54.79 64.39 57.07 C 63.92 62.37 64.40 67.69 64.30 73.00 C 64.37 77.97 63.92 82.96 64.41 87.92 C 64.67 90.64 67.28 92.17 69.06 93.92 C 73.01 97.02 76.37 101.02 80.99 103.13 C 85.45 100.75 88.79 96.83 92.76 93.77 C 94.79 91.91 97.73 90.15 97.60 87.01 C 97.88 79.00 97.43 70.99 97.72 62.98 C 97.60 59.76 98.22 55.87 95.52 53.49 C 90.94 48.98 85.82 45.07 80.92 40.93 C 76.45 44.43 72.10 48.08 67.86 51.85 Z" />
<path fill="#adcef7" opacity="1.00" d=" M 74.89 59.77 C 76.27 57.36 78.85 55.96 80.95 54.24 C 83.01 56.12 85.62 57.68 86.87 60.26 C 87.93 65.43 87.21 70.76 87.43 76.00 C 87.45 80.39 87.98 86.02 83.45 88.49 C 80.41 91.38 76.65 87.68 75.05 84.99 C 73.76 81.49 74.39 77.65 74.25 74.00 C 74.45 69.27 73.68 64.40 74.89 59.77 Z" />
<path fill="#adcef7" opacity="1.00" d=" M 118.49 140.50 C 124.45 134.15 130.13 127.55 136.22 121.32 C 142.36 127.02 147.53 133.64 153.40 139.62 C 155.00 141.56 157.31 143.38 157.47 146.09 C 157.75 150.36 157.73 154.65 157.49 158.92 C 157.29 162.41 154.08 164.55 152.00 167.01 C 146.75 172.11 142.40 178.12 136.77 182.81 C 133.61 181.80 131.78 178.71 129.49 176.51 C 125.06 171.33 119.86 166.79 115.78 161.34 C 114.42 156.74 115.20 151.71 115.16 146.95 C 115.00 144.32 116.84 142.30 118.49 140.50 Z" />
</g>
<g id="#3b619eff">
<path fill="#3b619e" opacity="1.00" d=" M 67.86 51.85 C 72.10 48.08 76.45 44.43 80.92 40.93 C 85.82 45.07 90.94 48.98 95.52 53.49 C 98.22 55.87 97.60 59.76 97.72 62.98 C 97.43 70.99 97.88 79.00 97.60 87.01 C 97.73 90.15 94.79 91.91 92.76 93.77 C 88.79 96.83 85.45 100.75 80.99 103.13 C 76.37 101.02 73.01 97.02 69.06 93.92 C 67.28 92.17 64.67 90.64 64.41 87.92 C 63.92 82.96 64.37 77.97 64.30 73.00 C 64.40 67.69 63.92 62.37 64.39 57.07 C 64.44 54.79 66.38 53.32 67.86 51.85 M 74.89 59.77 C 73.68 64.40 74.45 69.27 74.25 74.00 C 74.39 77.65 73.76 81.49 75.05 84.99 C 76.65 87.68 80.41 91.38 83.45 88.49 C 87.98 86.02 87.45 80.39 87.43 76.00 C 87.21 70.76 87.93 65.43 86.87 60.26 C 85.62 57.68 83.01 56.12 80.95 54.24 C 78.85 55.96 76.27 57.36 74.89 59.77 Z" />
</g>
</svg>
