<?xml version="1.0" encoding="UTF-8" ?>
<!DOCTYPE svg PUBLIC "-//W3C//DTD SVG 1.1//EN" "http://www.w3.org/Graphics/SVG/1.1/DTD/svg11.dtd">
<svg width="200pt" height="200pt" viewBox="0 0 200 200" version="1.1" xmlns="http://www.w3.org/2000/svg">
<g id="#000000ff">
<path fill="#000000" opacity="1.00" d=" M 48.87 3.94 C 52.58 3.11 55.99 0.88 59.92 1.29 C 64.01 1.51 68.24 0.76 72.23 1.90 C 78.03 4.09 84.19 5.34 89.68 8.32 C 104.46 16.12 115.78 30.58 118.97 47.08 C 121.93 61.35 119.13 76.68 111.27 88.96 C 115.81 87.79 120.23 85.92 124.98 85.73 C 132.99 85.44 141.27 85.13 148.90 88.03 C 165.99 93.42 180.25 107.39 185.42 124.62 C 186.67 129.01 189.04 133.22 188.71 137.92 C 188.51 142.55 189.31 147.35 187.74 151.82 C 186.00 157.26 184.58 162.87 181.85 167.93 C 174.34 182.61 160.14 193.52 144.07 197.13 C 137.97 199.39 131.38 198.67 125.02 198.59 C 115.12 196.49 105.18 193.23 97.18 186.80 C 85.41 178.00 77.84 164.33 75.41 149.95 C 74.94 141.75 74.57 133.26 77.45 125.41 C 78.59 120.67 81.56 116.68 82.94 112.05 C 78.26 112.80 73.85 114.86 69.05 114.92 C 56.63 116.27 44.05 112.97 33.44 106.53 C 21.06 98.64 11.74 85.95 8.48 71.58 C 5.52 65.20 6.11 58.05 6.54 51.24 C 8.81 45.72 9.67 39.71 12.35 34.34 C 19.41 19.63 32.96 7.94 48.87 3.94 M 53.45 14.70 C 44.33 17.29 35.56 22.06 29.45 29.45 C 20.49 39.95 16.59 54.71 19.80 68.21 C 22.55 81.46 31.88 93.05 44.03 98.91 C 53.30 103.24 64.06 104.69 74.02 102.06 C 84.58 99.64 94.08 93.12 100.25 84.24 C 107.69 73.64 110.32 59.70 106.85 47.18 C 103.46 33.58 93.17 21.87 80.04 16.94 C 71.76 13.16 62.26 13.03 53.45 14.70 M 124.40 97.59 C 111.44 99.71 99.70 107.72 93.04 119.02 C 87.51 128.64 85.24 140.31 87.78 151.20 C 90.59 164.98 100.36 177.13 113.28 182.72 C 121.23 186.69 130.34 186.96 139.01 186.07 C 152.92 183.70 165.60 174.49 171.74 161.71 C 180.30 145.20 176.77 123.51 163.49 110.51 C 153.61 100.09 138.51 95.34 124.40 97.59 Z" />
</g>
<g id="#cd04c5ff">
<path fill="#cd04c5" opacity="1.00" d=" M 53.45 14.70 C 62.26 13.03 71.76 13.16 80.04 16.94 C 93.17 21.87 103.46 33.58 106.85 47.18 C 110.32 59.70 107.69 73.64 100.25 84.24 C 94.08 93.12 84.58 99.64 74.02 102.06 C 64.06 104.69 53.30 103.24 44.03 98.91 C 31.88 93.05 22.55 81.46 19.80 68.21 C 16.59 54.71 20.49 39.95 29.45 29.45 C 35.56 22.06 44.33 17.29 53.45 14.70 M 57.38 37.45 C 49.99 39.41 43.74 45.53 42.04 53.04 C 41.16 58.81 41.23 65.29 44.88 70.17 C 48.98 76.46 56.45 80.35 63.99 79.73 C 77.29 79.89 88.05 64.94 83.68 52.39 C 80.67 41.54 68.32 34.17 57.38 37.45 Z" />
<path fill="#cd04c5" opacity="1.00" d=" M 124.40 97.59 C 138.51 95.34 153.61 100.09 163.49 110.51 C 176.77 123.51 180.30 145.20 171.74 161.71 C 165.60 174.49 152.92 183.70 139.01 186.07 C 130.34 186.96 121.23 186.69 113.28 182.72 C 100.36 177.13 90.59 164.98 87.78 151.20 C 85.24 140.31 87.51 128.64 93.04 119.02 C 99.70 107.72 111.44 99.71 124.40 97.59 M 127.32 120.40 C 120.71 121.42 114.94 125.90 111.78 131.72 C 109.34 136.36 109.25 141.89 110.08 146.96 C 111.83 154.40 117.99 160.53 125.34 162.49 C 130.53 163.53 136.16 163.25 140.96 160.86 C 148.35 156.95 153.11 148.57 152.65 140.23 C 151.99 135.22 150.04 130.18 146.39 126.59 C 141.57 121.56 134.18 119.19 127.32 120.40 Z" />
</g>
<g id="#782275ff">
<path fill="#782275" opacity="1.00" d=" M 57.38 37.45 C 68.32 34.17 80.67 41.54 83.68 52.39 C 88.05 64.94 77.29 79.89 63.99 79.73 C 56.45 80.35 48.98 76.46 44.88 70.17 C 41.23 65.29 41.16 58.81 42.04 53.04 C 43.74 45.53 49.99 39.41 57.38 37.45 Z" />
<path fill="#782275" opacity="1.00" d=" M 127.32 120.40 C 134.18 119.19 141.57 121.56 146.39 126.59 C 150.04 130.18 151.99 135.22 152.65 140.23 C 153.11 148.57 148.35 156.95 140.96 160.86 C 136.16 163.25 130.53 163.53 125.34 162.49 C 117.99 160.53 111.83 154.40 110.08 146.96 C 109.25 141.89 109.34 136.36 111.78 131.72 C 114.94 125.90 120.71 121.42 127.32 120.40 Z" />
</g>
</svg>
