<?xml version="1.0" encoding="UTF-8" ?>
<!DOCTYPE svg PUBLIC "-//W3C//DTD SVG 1.1//EN" "http://www.w3.org/Graphics/SVG/1.1/DTD/svg11.dtd">
<svg width="200pt" height="200pt" viewBox="0 0 200 200" version="1.1" xmlns="http://www.w3.org/2000/svg">
<g id="#010101ff">
<path fill="#010101" opacity="1.00" d=" M 93.43 2.43 C 97.84 0.93 102.99 0.83 107.31 2.73 C 112.84 5.83 115.77 12.10 116.86 18.12 C 119.15 32.88 122.79 47.42 127.45 61.60 C 130.28 70.33 134.11 78.90 140.03 85.99 C 144.63 91.46 151.20 94.73 156.06 99.94 C 163.38 107.77 169.77 116.76 173.09 127.05 C 177.52 137.75 175.91 149.85 172.19 160.51 C 169.79 167.72 166.26 174.58 161.51 180.53 C 157.86 184.96 152.93 188.08 148.03 190.95 C 137.91 196.30 126.18 196.77 114.98 197.35 C 99.45 197.56 83.90 197.38 68.41 196.32 C 53.15 193.66 39.17 183.79 31.94 170.03 C 22.50 152.98 21.00 130.67 31.58 113.75 C 38.37 101.84 49.86 93.91 59.06 84.06 C 63.86 79.43 68.47 74.27 70.51 67.79 C 74.36 55.60 77.61 43.20 79.69 30.58 C 81.02 24.48 81.71 18.15 84.30 12.41 C 86.29 8.34 89.14 4.28 93.43 2.43 M 98.51 13.50 C 94.46 16.20 93.29 21.44 92.89 26.00 C 92.23 41.48 87.45 56.43 81.94 70.80 C 78.37 80.44 72.90 89.37 65.85 96.86 C 58.79 104.46 50.31 110.78 44.44 119.44 C 41.12 124.00 39.48 129.54 38.75 135.07 C 37.48 146.85 38.88 159.44 45.46 169.56 C 49.39 175.97 55.60 180.78 62.61 183.39 C 69.38 186.19 76.84 185.78 84.01 186.20 C 99.31 186.45 114.63 186.55 129.90 185.49 C 134.52 185.20 138.65 182.90 142.50 180.53 C 150.31 175.67 156.71 168.12 159.13 159.15 C 162.75 146.82 162.73 132.87 156.77 121.26 C 150.54 109.25 138.20 102.42 129.84 92.14 C 123.30 85.01 118.93 76.21 115.85 67.11 C 111.17 53.93 108.01 40.12 107.48 26.11 C 107.29 22.03 106.22 17.72 103.31 14.71 C 102.15 13.38 100.17 12.78 98.51 13.50 Z" />
</g>
<g id="#93ebffff">
<path fill="#93ebff" opacity="1.00" d=" M 98.51 13.50 C 100.17 12.78 102.15 13.38 103.31 14.71 C 106.22 17.72 107.29 22.03 107.48 26.11 C 108.01 40.12 111.17 53.93 115.85 67.11 C 118.93 76.21 123.30 85.01 129.84 92.14 C 138.20 102.42 150.54 109.25 156.77 121.26 C 162.73 132.87 162.75 146.82 159.13 159.15 C 156.71 168.12 150.31 175.67 142.50 180.53 C 138.65 182.90 134.52 185.20 129.90 185.49 C 114.63 186.55 99.31 186.45 84.01 186.20 C 76.84 185.78 69.38 186.19 62.61 183.39 C 55.60 180.78 49.39 175.97 45.46 169.56 C 38.88 159.44 37.48 146.85 38.75 135.07 C 39.48 129.54 41.12 124.00 44.44 119.44 C 50.31 110.78 58.79 104.46 65.85 96.86 C 72.90 89.37 78.37 80.44 81.94 70.80 C 87.45 56.43 92.23 41.48 92.89 26.00 C 93.29 21.44 94.46 16.20 98.51 13.50 M 62.03 133.74 C 60.31 138.25 62.08 143.09 63.52 147.42 C 66.60 155.21 71.80 163.21 80.17 165.91 C 89.08 169.21 98.72 168.87 108.05 168.62 C 114.32 168.39 120.82 166.86 125.72 162.74 C 132.35 157.27 137.59 149.75 139.32 141.25 C 140.04 138.38 139.93 135.04 137.05 133.42 C 134.31 138.42 132.58 144.24 127.94 147.94 C 120.29 155.28 109.00 155.96 98.98 155.83 C 89.43 155.91 79.12 153.88 72.14 146.87 C 68.20 143.41 66.60 138.26 63.69 134.06 C 63.28 133.98 62.45 133.82 62.03 133.74 Z" />
</g>
<g id="#4992a4ff">
<path fill="#4992a4" opacity="1.00" d=" M 62.03 133.74 C 62.45 133.82 63.28 133.98 63.69 134.06 C 66.60 138.26 68.20 143.41 72.14 146.87 C 79.12 153.88 89.43 155.91 98.98 155.83 C 109.00 155.96 120.29 155.28 127.94 147.94 C 132.58 144.24 134.31 138.42 137.05 133.42 C 139.93 135.04 140.04 138.38 139.32 141.25 C 137.59 149.75 132.35 157.27 125.72 162.74 C 120.82 166.86 114.32 168.39 108.05 168.62 C 98.72 168.87 89.08 169.21 80.17 165.91 C 71.80 163.21 66.60 155.21 63.52 147.42 C 62.08 143.09 60.31 138.25 62.03 133.74 Z" />
</g>
</svg>
