<?xml version="1.0" encoding="UTF-8" ?>
<!DOCTYPE svg PUBLIC "-//W3C//DTD SVG 1.1//EN" "http://www.w3.org/Graphics/SVG/1.1/DTD/svg11.dtd">
<svg width="502pt" height="498pt" viewBox="0 0 502 498" version="1.1" xmlns="http://www.w3.org/2000/svg">
<g id="#2b383eff">
<path fill="#2b383e" opacity="1.00" d=" M 6.21 0.00 L 164.09 0.00 C 162.83 14.43 160.18 28.70 158.81 43.12 C 174.46 41.20 189.98 38.30 205.54 35.81 C 252.36 35.94 299.19 35.83 346.01 35.87 C 351.48 35.98 357.32 35.15 362.37 37.77 C 360.55 50.88 358.63 63.97 356.73 77.07 C 348.18 78.25 339.52 78.33 330.92 79.06 C 328.15 79.49 326.16 77.33 324.29 75.67 C 320.78 72.38 317.01 69.38 313.53 66.06 C 308.27 72.19 303.22 78.51 298.38 84.98 C 303.45 92.44 309.55 99.18 314.28 106.86 C 306.40 104.28 298.87 100.74 291.08 97.90 C 289.44 97.07 287.01 96.70 286.53 94.62 C 280.93 75.75 276.09 56.64 270.28 37.85 C 269.42 48.49 270.27 59.18 269.86 69.84 C 253.61 79.36 237.18 88.56 220.97 98.15 C 224.43 109.53 228.16 120.82 231.66 132.19 C 232.08 131.17 232.64 130.19 232.79 129.08 C 233.96 119.44 234.63 109.73 236.11 100.13 C 242.47 103.79 248.88 107.42 254.96 111.53 C 253.04 113.32 251.13 115.12 249.25 116.95 C 246.03 120.06 242.87 123.25 239.77 126.47 C 236.52 129.40 233.88 133.06 230.29 135.55 C 223.21 131.42 216.30 126.90 209.53 122.27 C 207.57 120.64 205.77 118.84 203.96 117.05 C 201.08 120.83 198.33 124.70 195.61 128.59 C 194.24 130.29 194.38 132.55 194.23 134.59 C 191.55 137.89 189.33 141.52 186.92 145.01 C 174.13 132.81 161.92 120.00 149.26 107.66 C 154.02 101.65 159.39 96.17 164.33 90.31 C 168.84 85.45 172.87 80.14 177.80 75.68 C 183.23 79.49 189.31 82.56 194.21 87.02 C 195.35 93.88 191.81 100.29 191.11 107.01 C 196.02 101.60 200.85 96.13 205.71 90.68 C 198.35 81.10 190.87 71.61 183.05 62.41 C 172.31 68.49 161.85 75.07 151.03 80.99 C 142.87 75.48 134.76 69.88 126.76 64.14 C 117.41 70.64 108.34 77.53 99.09 84.16 C 94.50 87.72 89.52 90.76 85.12 94.57 C 88.33 100.80 91.52 107.05 94.56 113.37 C 95.35 114.84 96.00 116.54 97.46 117.51 C 105.60 122.82 114.42 127.11 122.26 132.88 C 114.77 131.21 107.59 128.46 100.22 126.35 C 92.73 133.86 85.01 141.16 77.84 148.97 C 76.51 148.97 75.18 149.01 73.85 149.07 C 79.10 138.22 85.31 127.85 90.49 116.97 C 84.11 110.26 76.52 104.80 70.28 97.97 C 75.31 87.71 81.56 78.06 86.85 67.91 C 81.83 61.04 76.44 54.44 71.42 47.57 C 68.64 43.64 65.11 40.21 62.87 35.92 C 67.15 28.10 73.82 21.83 78.31 14.11 C 72.01 16.61 66.34 20.40 60.26 23.35 C 56.23 25.61 51.83 27.31 48.18 30.17 C 47.69 31.43 48.85 32.59 49.23 33.73 C 52.27 39.50 55.79 45.02 58.43 50.99 C 51.95 55.40 44.98 59.05 38.47 63.43 C 36.58 64.45 34.28 66.78 32.21 64.80 C 22.19 58.16 11.92 51.87 2.00 45.07 C 1.36 34.27 0.88 23.46 0.00 12.67 L 0.00 8.37 C 0.51 4.73 2.26 0.85 6.21 0.00 M 105.27 9.25 C 101.90 11.25 98.10 12.57 95.10 15.14 C 96.63 19.64 100.32 23.25 102.66 27.42 C 104.07 29.02 104.86 32.73 107.66 31.56 C 112.66 29.84 117.79 28.41 122.62 26.23 C 120.35 18.85 117.66 11.61 115.42 4.22 C 111.69 5.11 108.64 7.56 105.27 9.25 M 20.95 19.01 C 20.23 24.39 19.52 29.77 19.24 35.19 C 22.37 33.46 24.65 30.65 27.31 28.33 C 30.64 25.30 34.33 22.63 37.17 19.10 C 31.78 18.72 26.35 18.74 20.95 19.01 M 206.00 65.89 C 214.06 71.12 222.19 76.31 230.59 80.96 C 235.89 73.29 242.15 66.26 247.00 58.32 C 238.24 54.18 229.75 49.49 220.93 45.51 C 215.74 52.14 210.89 59.04 206.00 65.89 M 332.85 60.60 C 337.59 61.63 342.26 62.94 347.02 63.92 C 346.22 58.48 344.88 53.15 343.57 47.82 C 339.47 51.52 335.56 55.76 332.85 60.60 Z" />
<path fill="#2b383e" opacity="1.00" d=" M 118.65 78.55 C 118.92 78.46 119.45 78.29 119.72 78.20 C 123.83 82.92 128.30 87.40 131.93 92.51 C 125.24 94.33 118.57 96.22 111.87 97.97 C 113.49 91.31 116.29 84.97 118.65 78.55 Z" />
<path fill="#2b383e" opacity="1.00" d=" M 358.99 83.09 C 360.52 82.27 362.23 80.87 364.01 81.93 C 370.37 84.74 376.81 87.41 382.98 90.65 C 379.76 95.18 376.32 99.54 373.02 104.01 C 370.80 107.08 368.06 109.84 366.71 113.44 C 362.44 108.29 357.00 104.33 352.08 99.85 C 349.43 97.44 346.66 95.15 343.81 92.97 L 343.34 92.56 C 348.53 89.36 353.79 86.28 358.99 83.09 Z" />
<path fill="#2b383e" opacity="1.00" d=" M 9.62 98.09 C 21.38 94.48 33.04 90.54 44.85 87.10 C 40.12 93.26 34.66 98.80 29.62 104.72 C 25.38 109.26 21.62 114.26 17.05 118.49 C 14.50 111.72 12.04 104.91 9.62 98.09 Z" />
<path fill="#2b383e" opacity="1.00" d=" M 388.92 100.11 C 393.82 98.10 398.68 95.80 403.89 94.75 C 404.60 100.17 405.02 105.62 405.83 111.02 C 402.09 112.21 398.17 112.64 394.28 112.92 C 392.52 108.64 390.58 104.43 388.92 100.11 Z" />
<path fill="#2b383e" opacity="1.00" d=" M 435.93 148.74 C 440.17 146.96 444.65 145.90 449.18 145.18 C 449.21 151.58 449.04 157.98 449.21 164.37 C 443.95 167.75 439.15 171.78 434.05 175.39 C 439.63 179.73 445.11 184.21 450.89 188.29 C 450.91 195.11 450.50 203.05 455.62 208.35 C 460.21 212.51 465.39 215.99 469.93 220.23 C 473.70 223.51 477.44 226.81 481.22 230.08 C 474.32 235.27 467.32 240.32 460.29 245.33 C 453.59 243.82 446.81 242.68 440.04 241.58 C 439.35 232.79 439.92 223.96 439.72 215.15 C 432.03 211.55 423.47 210.75 415.23 209.25 C 415.23 192.92 415.18 176.58 415.25 160.25 C 421.70 155.68 428.56 151.65 435.93 148.74 Z" />
<path fill="#2b383e" opacity="1.00" d=" M 298.33 146.68 C 309.13 154.53 319.74 162.64 330.60 170.40 C 332.14 172.02 334.08 170.47 335.68 169.80 C 348.44 162.94 361.08 155.88 373.83 149.01 C 373.59 155.68 373.73 162.35 373.68 169.02 C 373.56 173.20 376.59 176.45 378.29 180.03 C 379.79 182.80 381.30 185.56 382.81 188.33 C 383.55 189.71 384.31 191.09 385.07 192.47 C 372.78 206.72 360.74 221.19 348.53 235.52 C 346.90 237.60 344.70 239.42 343.83 241.98 C 343.15 249.84 344.04 257.76 343.46 265.62 C 337.83 270.30 330.65 272.89 324.91 277.53 C 331.65 284.73 338.06 292.24 345.02 299.22 C 344.57 292.41 342.34 285.87 341.96 279.06 C 355.00 275.38 368.08 271.84 381.04 267.88 C 380.32 263.48 380.84 258.40 378.63 254.51 C 369.21 249.63 358.96 246.45 349.71 241.24 C 364.49 230.45 379.52 220.00 394.48 209.46 C 399.16 218.16 403.79 226.89 408.46 235.59 C 409.93 238.02 409.87 241.08 408.55 243.55 C 400.48 260.12 392.44 276.70 384.38 293.27 C 382.37 297.59 380.10 301.78 378.17 306.14 C 377.12 308.08 378.91 309.95 379.58 311.71 C 375.41 312.40 371.56 314.16 367.62 315.58 C 357.70 319.03 347.90 322.82 338.00 326.31 C 340.85 332.04 344.19 337.51 347.18 343.17 C 338.31 348.10 329.05 352.31 320.03 356.98 C 315.27 359.11 310.84 361.98 305.93 363.74 C 300.15 360.14 295.24 355.27 289.76 351.22 C 286.05 348.11 281.94 345.44 278.65 341.85 C 291.44 341.52 304.20 343.02 316.99 343.15 C 314.63 321.88 312.14 300.62 309.49 279.39 C 305.73 279.87 301.98 280.44 298.22 280.93 C 300.01 275.40 301.61 269.82 303.30 264.26 C 303.95 262.47 303.56 260.58 303.09 258.80 C 298.23 239.87 293.99 220.78 290.77 201.50 L 290.73 201.14 C 282.21 206.20 273.80 211.42 265.29 216.48 C 259.06 220.29 252.78 224.01 246.64 227.96 C 241.11 231.09 235.73 234.48 230.26 237.71 C 227.46 232.03 223.86 226.75 221.26 220.98 C 221.75 219.90 223.04 219.52 223.94 218.86 C 229.69 215.66 235.34 212.28 241.03 208.97 C 244.48 207.15 246.21 203.49 248.32 200.40 C 255.56 189.58 262.72 178.70 270.04 167.94 C 276.92 176.07 283.87 184.12 290.81 192.20 C 291.94 176.79 298.27 162.19 298.33 146.68 M 309.97 189.03 C 309.31 200.01 309.61 211.07 309.83 222.08 C 317.06 218.08 323.61 212.98 330.60 208.60 C 332.88 206.94 335.78 205.85 337.21 203.27 C 328.02 198.73 319.22 193.45 309.97 189.03 Z" />
<path fill="#2b383e" opacity="1.00" d=" M 132.30 165.93 C 145.26 161.46 158.36 157.01 171.99 155.11 C 178.00 154.52 184.21 154.08 190.07 155.87 C 201.38 158.76 212.35 162.88 222.91 167.83 C 228.81 180.41 235.62 192.56 241.25 205.27 C 235.42 204.55 229.77 202.88 224.00 201.82 C 220.31 201.14 216.55 199.59 212.76 200.58 C 204.82 202.69 196.92 204.99 188.94 206.93 C 186.14 208.10 185.51 204.39 184.36 202.65 C 182.73 198.20 178.55 194.12 179.85 189.04 C 181.36 177.99 183.64 167.03 184.55 155.91 C 178.56 164.59 173.30 173.75 167.64 182.64 C 165.64 185.85 161.78 186.94 158.66 188.72 C 152.98 192.16 146.12 189.99 139.88 190.85 C 137.34 182.54 134.66 174.28 132.30 165.93 M 198.75 175.69 C 197.49 176.39 195.45 176.44 194.89 177.97 C 196.22 182.82 198.42 187.38 200.02 192.15 C 205.19 190.96 210.01 188.62 214.99 186.84 C 213.67 181.73 211.27 176.98 209.73 171.93 C 205.91 172.70 202.43 174.48 198.75 175.69 Z" />
<path fill="#2b383e" opacity="1.00" d=" M 143.71 202.39 C 150.73 203.88 157.26 207.03 164.04 209.31 C 160.15 215.27 155.41 220.60 151.11 226.26 C 148.53 218.34 146.20 210.34 143.71 202.39 Z" />
<path fill="#2b383e" opacity="1.00" d=" M 139.94 294.95 C 142.31 290.10 144.16 284.97 147.15 280.44 C 147.57 287.63 147.15 294.84 147.32 302.04 C 147.30 304.00 148.33 305.73 149.04 307.51 C 165.33 300.38 181.58 293.12 197.82 285.86 C 198.76 285.52 200.40 284.46 200.78 286.14 C 203.15 290.67 205.33 295.30 207.61 299.88 C 219.80 294.36 231.78 288.37 243.92 282.73 L 245.46 282.85 C 239.91 291.59 232.42 298.94 226.84 307.65 C 234.31 312.37 241.39 317.66 249.00 322.15 C 249.01 317.27 248.76 312.39 248.53 307.52 C 253.20 307.62 257.99 307.63 262.34 305.68 C 266.14 304.39 269.92 303.06 273.77 301.91 C 275.57 307.54 277.70 313.08 279.18 318.82 C 259.22 331.49 239.19 344.07 219.02 356.41 C 210.47 343.82 202.08 331.13 193.66 318.47 C 191.84 315.56 187.96 317.27 185.64 318.61 C 171.14 326.99 156.41 334.96 141.85 343.24 C 151.95 358.69 162.84 373.62 173.18 388.92 C 174.05 389.91 174.61 391.45 175.95 391.87 C 182.28 388.25 187.74 383.26 194.17 379.77 C 194.56 383.14 194.68 386.72 192.82 389.72 C 188.94 396.85 185.29 404.12 181.15 411.10 C 171.06 402.46 161.29 393.44 151.07 384.95 C 143.50 390.42 136.06 396.07 128.62 401.70 C 118.92 395.38 109.70 388.35 100.13 381.85 C 98.48 380.59 96.05 379.53 96.22 377.07 C 95.83 369.08 94.63 361.09 94.81 353.09 C 96.87 350.08 100.11 348.19 102.76 345.76 C 107.98 341.11 113.71 337.04 118.59 332.02 C 115.25 328.46 111.68 325.14 107.98 321.97 C 104.76 319.26 101.97 316.04 98.38 313.81 C 99.45 320.50 100.95 327.13 101.95 333.84 C 85.71 337.17 69.40 340.17 53.11 343.25 C 52.13 355.17 52.00 367.15 50.94 379.06 C 41.89 380.72 32.65 381.16 23.64 383.04 C 29.34 387.80 35.49 392.04 41.80 395.95 C 45.31 392.04 48.51 387.86 52.10 384.03 C 53.38 382.52 55.56 382.75 57.33 382.42 C 68.46 381.52 79.55 380.14 90.68 379.23 C 97.59 391.76 104.74 404.17 111.24 416.91 C 107.24 416.86 103.24 416.95 99.23 416.98 C 95.38 417.01 91.53 417.03 87.68 417.04 C 80.20 417.02 72.72 417.18 65.24 417.33 C 61.44 417.38 57.64 417.67 53.84 417.74 C 46.88 417.78 39.93 418.15 32.98 418.46 C 29.28 418.68 25.58 418.84 21.87 418.79 C 20.22 418.77 18.57 418.77 16.92 418.80 C 11.86 414.77 9.84 408.15 9.65 401.90 C 9.49 395.27 9.63 388.62 9.56 381.99 C 9.16 378.59 11.72 376.06 13.36 373.38 C 22.47 359.47 31.58 345.54 40.67 331.62 C 41.68 329.92 43.58 329.14 45.24 328.25 C 64.83 318.31 84.26 308.08 103.85 298.14 C 113.58 302.04 122.66 307.46 132.55 310.94 C 134.73 305.49 137.44 300.26 139.94 294.95 M 129.10 359.26 C 124.59 361.08 121.88 366.36 123.08 371.09 C 124.15 376.37 129.85 380.12 135.13 378.94 C 140.87 378.00 144.85 371.61 143.14 366.03 C 141.72 360.15 134.59 356.71 129.10 359.26 Z" />
<path fill="#2b383e" opacity="1.00" d=" M 191.82 349.96 C 193.35 346.61 194.48 343.05 196.51 339.94 C 200.27 346.61 204.00 353.31 207.44 360.15 C 199.71 363.55 191.79 366.66 183.73 369.20 C 185.90 362.58 189.10 356.36 191.82 349.96 Z" />
<path fill="#2b383e" opacity="1.00" d=" M 373.41 371.38 C 379.11 367.33 384.39 362.68 390.43 359.12 C 385.49 372.77 380.45 386.40 375.58 400.08 C 372.74 393.83 369.22 387.89 366.53 381.58 C 365.88 376.91 369.88 373.63 373.41 371.38 Z" />
<path fill="#2b383e" opacity="1.00" d=" M 336.81 364.69 C 342.93 365.88 349.00 367.65 354.77 370.04 C 352.95 374.71 351.14 379.38 349.50 384.12 C 347.02 382.60 346.11 379.65 344.51 377.38 C 342.01 373.10 338.62 369.34 336.81 364.69 Z" />
<path fill="#2b383e" opacity="1.00" d=" M 207.91 381.11 C 220.37 375.95 232.90 370.92 245.50 366.11 C 248.54 376.72 251.83 387.26 254.73 397.91 C 244.88 401.32 234.86 404.22 224.92 407.37 C 227.85 412.64 230.82 418.00 234.69 422.65 C 228.65 424.64 223.00 427.61 217.16 430.11 C 216.76 433.33 216.31 436.55 215.71 439.74 C 210.77 439.86 205.85 440.12 200.92 440.28 C 201.16 439.67 201.64 438.46 201.88 437.85 C 198.43 438.23 194.99 438.71 191.53 439.04 C 199.15 428.60 207.91 419.03 215.88 408.86 C 217.26 407.53 216.37 405.63 215.94 404.11 C 213.33 396.42 210.15 388.92 207.91 381.11 Z" />
<path fill="#2b383e" opacity="1.00" d=" M 277.83 381.00 C 283.95 379.08 290.08 377.15 296.32 375.67 C 297.08 380.65 298.00 385.65 297.92 390.71 C 294.12 392.38 290.58 394.66 286.59 395.86 C 283.80 390.82 280.25 386.23 277.83 381.00 Z" />
<path fill="#2b383e" opacity="1.00" d=" M 305.81 413.27 C 322.85 426.95 339.90 440.66 356.60 454.75 C 344.65 460.23 332.86 466.04 320.92 471.52 C 320.87 464.01 320.82 456.50 320.95 448.99 C 325.54 451.76 329.99 454.75 334.59 457.50 C 336.66 458.84 339.25 458.29 341.58 458.47 C 341.62 456.59 341.66 454.72 341.70 452.86 C 334.22 447.08 326.64 441.43 319.02 435.83 C 317.78 436.36 316.55 436.90 315.32 437.44 C 315.06 450.69 315.33 463.95 315.18 477.20 C 317.65 477.24 320.26 477.58 322.58 476.48 C 337.07 469.90 351.48 463.09 366.05 456.68 L 367.59 456.57 C 360.17 470.70 351.44 484.10 343.59 498.00 L 319.00 498.00 C 317.10 490.65 315.26 483.29 313.59 475.89 C 308.60 478.16 304.57 482.00 300.18 485.21 C 297.86 486.71 298.66 489.70 298.68 492.02 C 298.20 488.36 298.13 484.67 298.30 480.99 C 300.71 458.41 303.25 435.84 305.81 413.27 Z" />
<path fill="#2b383e" opacity="1.00" d=" M 241.55 426.20 C 245.36 428.13 249.15 430.09 252.99 431.95 C 252.43 434.06 251.87 436.18 251.29 438.29 C 245.85 438.37 240.42 438.66 234.98 438.91 C 237.41 434.80 239.73 430.62 241.55 426.20 Z" />
<path fill="#2b383e" opacity="1.00" d=" M 173.76 435.83 C 178.06 436.68 182.43 437.40 186.47 439.20 C 185.76 439.28 184.33 439.43 183.61 439.51 C 183.42 439.86 183.04 440.56 182.85 440.91 C 179.81 441.24 176.76 441.29 173.71 441.41 C 173.75 439.54 173.75 437.68 173.76 435.83 Z" />
<path fill="#2b383e" opacity="1.00" d=" M 411.36 454.59 C 412.70 454.04 414.00 453.41 415.28 452.72 C 416.88 454.54 418.49 456.37 420.12 458.17 C 422.91 461.21 425.64 464.32 428.36 467.43 C 429.66 468.85 430.98 470.25 432.29 471.65 C 430.86 474.10 429.48 476.58 428.13 479.08 C 425.70 483.51 423.24 487.94 420.87 492.41 C 415.68 493.47 410.64 495.20 405.41 496.08 C 393.52 482.51 380.34 470.13 368.49 456.54 C 373.37 456.51 378.25 456.55 383.14 456.53 C 383.13 460.94 383.12 465.35 383.19 469.76 C 386.30 472.88 389.37 476.03 392.63 478.99 C 392.55 471.50 392.53 464.02 392.62 456.53 C 395.74 456.53 398.86 456.61 401.98 456.43 C 402.04 465.27 401.97 474.10 402.03 482.93 C 405.14 482.94 408.26 482.94 411.38 482.95 C 411.47 473.49 411.50 464.04 411.36 454.59 Z" />
</g>
<g id="#1a1915ff">
<path fill="#1a1915" opacity="1.00" d=" M 164.09 0.00 L 164.32 0.00 C 178.77 11.07 192.80 22.79 205.54 35.81 C 189.98 38.30 174.46 41.20 158.81 43.12 C 160.18 28.70 162.83 14.43 164.09 0.00 Z" />
<path fill="#1a1915" opacity="1.00" d=" M 105.27 9.25 C 108.64 7.56 111.69 5.11 115.42 4.22 C 117.66 11.61 120.35 18.85 122.62 26.23 C 117.79 28.41 112.66 29.84 107.66 31.56 C 104.86 32.73 104.07 29.02 102.66 27.42 C 100.32 23.25 96.63 19.64 95.10 15.14 C 98.10 12.57 101.90 11.25 105.27 9.25 Z" />
<path fill="#1a1915" opacity="1.00" d=" M 60.26 23.35 C 66.34 20.40 72.01 16.61 78.31 14.11 C 73.82 21.83 67.15 28.10 62.87 35.92 C 65.11 40.21 68.64 43.64 71.42 47.57 C 76.44 54.44 81.83 61.04 86.85 67.91 C 81.56 78.06 75.31 87.71 70.28 97.97 C 76.52 104.80 84.11 110.26 90.49 116.97 C 85.31 127.85 79.10 138.22 73.85 149.07 C 63.93 150.33 53.90 151.62 43.89 150.73 C 40.81 150.35 37.51 149.91 34.99 147.96 C 32.80 145.76 31.31 142.99 29.64 140.41 C 25.27 133.21 20.94 125.96 17.05 118.49 C 21.62 114.26 25.38 109.26 29.62 104.72 C 34.66 98.80 40.12 93.26 44.85 87.10 C 33.04 90.54 21.38 94.48 9.62 98.09 C 5.06 80.79 2.50 62.95 2.00 45.07 C 11.92 51.87 22.19 58.16 32.21 64.80 C 34.28 66.78 36.58 64.45 38.47 63.43 C 44.98 59.05 51.95 55.40 58.43 50.99 C 55.79 45.02 52.27 39.50 49.23 33.73 C 48.85 32.59 47.69 31.43 48.18 30.17 C 51.83 27.31 56.23 25.61 60.26 23.35 Z" />
<path fill="#1a1915" opacity="1.00" d=" M 20.95 19.01 C 26.35 18.74 31.78 18.72 37.17 19.10 C 34.33 22.63 30.64 25.30 27.31 28.33 C 24.65 30.65 22.37 33.46 19.24 35.19 C 19.52 29.77 20.23 24.39 20.95 19.01 Z" />
<path fill="#1a1915" opacity="1.00" d=" M 270.28 37.85 C 276.09 56.64 280.93 75.75 286.53 94.62 C 287.01 96.70 289.44 97.07 291.08 97.90 C 298.87 100.74 306.40 104.28 314.28 106.86 C 309.55 99.18 303.45 92.44 298.38 84.98 C 303.22 78.51 308.27 72.19 313.53 66.06 C 317.01 69.38 320.78 72.38 324.29 75.67 C 326.16 77.33 328.15 79.49 330.92 79.06 C 339.52 78.33 348.18 78.25 356.73 77.07 C 358.63 63.97 360.55 50.88 362.37 37.77 C 378.15 51.89 393.45 66.70 406.82 83.17 C 417.07 95.47 421.46 112.31 418.98 128.07 C 418.09 132.65 416.57 138.49 411.39 139.77 C 399.10 132.50 386.40 125.96 373.98 118.94 C 371.43 117.28 368.99 115.46 366.71 113.44 C 368.06 109.84 370.80 107.08 373.02 104.01 C 376.32 99.54 379.76 95.18 382.98 90.65 C 376.81 87.41 370.37 84.74 364.01 81.93 C 362.23 80.87 360.52 82.27 358.99 83.09 C 353.79 86.28 348.53 89.36 343.34 92.56 C 339.61 94.99 335.93 97.49 332.25 100.00 C 332.87 100.91 333.49 101.82 334.12 102.73 C 323.32 114.33 312.76 126.17 301.90 137.72 C 290.67 134.65 279.38 131.75 268.12 128.79 C 266.62 128.55 265.59 127.42 264.80 126.23 C 261.44 121.38 258.41 116.32 254.96 111.53 C 248.88 107.42 242.47 103.79 236.11 100.13 C 234.63 109.73 233.96 119.44 232.79 129.08 C 232.64 130.19 232.08 131.17 231.66 132.19 C 228.16 120.82 224.43 109.53 220.97 98.15 C 237.18 88.56 253.61 79.36 269.86 69.84 C 270.27 59.18 269.42 48.49 270.28 37.85 M 388.92 100.11 C 390.58 104.43 392.52 108.64 394.28 112.92 C 398.17 112.64 402.09 112.21 405.83 111.02 C 405.02 105.62 404.60 100.17 403.89 94.75 C 398.68 95.80 393.82 98.10 388.92 100.11 Z" />
<path fill="#1a1915" opacity="1.00" d=" M 206.00 65.89 C 210.89 59.04 215.74 52.14 220.93 45.51 C 229.75 49.49 238.24 54.18 247.00 58.32 C 242.15 66.26 235.89 73.29 230.59 80.96 C 222.19 76.31 214.06 71.12 206.00 65.89 Z" />
<path fill="#1a1915" opacity="1.00" d=" M 332.85 60.60 C 335.56 55.76 339.47 51.52 343.57 47.82 C 344.88 53.15 346.22 58.48 347.02 63.92 C 342.26 62.94 337.59 61.63 332.85 60.60 Z" />
<path fill="#1a1915" opacity="1.00" d=" M 151.03 80.99 C 161.85 75.07 172.31 68.49 183.05 62.41 C 190.87 71.61 198.35 81.10 205.71 90.68 C 200.85 96.13 196.02 101.60 191.11 107.01 C 191.81 100.29 195.35 93.88 194.21 87.02 C 189.31 82.56 183.23 79.49 177.80 75.68 C 172.87 80.14 168.84 85.45 164.33 90.31 C 159.39 96.17 154.02 101.65 149.26 107.66 C 161.92 120.00 174.13 132.81 186.92 145.01 C 190.70 144.99 194.46 145.20 198.24 145.29 C 200.80 145.33 203.36 145.34 205.92 145.37 C 198.27 145.20 190.64 145.80 183.00 145.49 C 147.96 147.11 112.91 148.82 77.84 148.97 C 85.01 141.16 92.73 133.86 100.22 126.35 C 107.59 128.46 114.77 131.21 122.26 132.88 C 114.42 127.11 105.60 122.82 97.46 117.51 C 96.00 116.54 95.35 114.84 94.56 113.37 C 91.52 107.05 88.33 100.80 85.12 94.57 C 89.52 90.76 94.50 87.72 99.09 84.16 C 108.34 77.53 117.41 70.64 126.76 64.14 C 134.76 69.88 142.87 75.48 151.03 80.99 M 118.65 78.55 C 116.29 84.97 113.49 91.31 111.87 97.97 C 118.57 96.22 125.24 94.33 131.93 92.51 C 128.30 87.40 123.83 82.92 119.72 78.20 C 119.45 78.29 118.92 78.46 118.65 78.55 Z" />
<path fill="#1a1915" opacity="1.00" d=" M 184.55 155.91 C 183.64 167.03 181.36 177.99 179.85 189.04 C 178.55 194.12 182.73 198.20 184.36 202.65 C 185.51 204.39 186.14 208.10 188.94 206.93 C 196.92 204.99 204.82 202.69 212.76 200.58 C 216.55 199.59 220.31 201.14 224.00 201.82 C 229.77 202.88 235.42 204.55 241.25 205.27 C 235.62 192.56 228.81 180.41 222.91 167.83 C 238.62 167.97 254.33 167.74 270.04 167.94 C 262.72 178.70 255.56 189.58 248.32 200.40 C 246.21 203.49 244.48 207.15 241.03 208.97 C 235.34 212.28 229.69 215.66 223.94 218.86 C 223.04 219.52 221.75 219.90 221.26 220.98 C 223.86 226.75 227.46 232.03 230.26 237.71 C 221.96 234.33 213.68 230.85 205.24 227.81 C 201.16 226.18 197.25 224.04 192.98 222.94 C 189.84 223.76 187.49 226.25 184.77 227.91 C 178.50 231.92 172.35 236.10 166.17 240.24 C 163.67 241.86 161.20 243.52 158.75 245.22 C 156.02 238.97 153.56 232.62 151.11 226.26 C 155.41 220.60 160.15 215.27 164.04 209.31 C 157.26 207.03 150.73 203.88 143.71 202.39 C 142.46 198.53 141.13 194.70 139.88 190.85 C 146.12 189.99 152.98 192.16 158.66 188.72 C 161.78 186.94 165.64 185.85 167.64 182.64 C 173.30 173.75 178.56 164.59 184.55 155.91 Z" />
<path fill="#1a1915" opacity="1.00" d=" M 434.05 175.39 C 439.15 171.78 443.95 167.75 449.21 164.37 C 449.74 172.35 450.56 180.30 450.89 188.29 C 445.11 184.21 439.63 179.73 434.05 175.39 Z" />
<path fill="#1a1915" opacity="1.00" d=" M 198.75 175.69 C 202.43 174.48 205.91 172.70 209.73 171.93 C 211.27 176.98 213.67 181.73 214.99 186.84 C 210.01 188.62 205.19 190.96 200.02 192.15 C 198.42 187.38 196.22 182.82 194.89 177.97 C 195.45 176.44 197.49 176.39 198.75 175.69 Z" />
<path fill="#1a1915" opacity="1.00" d=" M 309.97 189.03 C 319.22 193.45 328.02 198.73 337.21 203.27 C 335.78 205.85 332.88 206.94 330.60 208.60 C 323.61 212.98 317.06 218.08 309.83 222.08 C 309.61 211.07 309.31 200.01 309.97 189.03 Z" />
<path fill="#1a1915" opacity="1.00" d=" M 348.53 235.52 C 360.74 221.19 372.78 206.72 385.07 192.47 C 388.19 198.14 391.38 203.78 394.48 209.46 C 379.52 220.00 364.49 230.45 349.71 241.24 C 358.96 246.45 369.21 249.63 378.63 254.51 C 380.84 258.40 380.32 263.48 381.04 267.88 C 368.08 271.84 355.00 275.38 341.96 279.06 C 342.34 285.87 344.57 292.41 345.02 299.22 C 338.06 292.24 331.65 284.73 324.91 277.53 C 330.65 272.89 337.83 270.30 343.46 265.62 C 344.04 257.76 343.15 249.84 343.83 241.98 C 344.70 239.42 346.90 237.60 348.53 235.52 Z" />
<path fill="#1a1915" opacity="1.00" d=" M 415.23 209.25 C 423.47 210.75 432.03 211.55 439.72 215.15 C 439.92 223.96 439.35 232.79 440.04 241.58 C 446.81 242.68 453.59 243.82 460.29 245.33 C 445.30 254.75 430.32 264.18 415.24 273.45 C 415.19 252.05 415.22 230.65 415.23 209.25 Z" />
<path fill="#1a1915" opacity="1.00" d=" M 298.22 280.93 C 301.98 280.44 305.73 279.87 309.49 279.39 C 312.14 300.62 314.63 321.88 316.99 343.15 C 304.20 343.02 291.44 341.52 278.65 341.85 C 281.94 345.44 286.05 348.11 289.76 351.22 C 295.24 355.27 300.15 360.14 305.93 363.74 C 310.84 361.98 315.27 359.11 320.03 356.98 C 329.05 352.31 338.31 348.10 347.18 343.17 C 344.19 337.51 340.85 332.04 338.00 326.31 C 347.90 322.82 357.70 319.03 367.62 315.58 C 371.56 314.16 375.41 312.40 379.58 311.71 C 381.00 314.46 382.36 317.23 383.75 320.00 C 387.95 328.36 392.08 336.76 396.34 345.09 C 394.46 349.81 392.32 354.41 390.43 359.12 C 384.39 362.68 379.11 367.33 373.41 371.38 C 369.88 373.63 365.88 376.91 366.53 381.58 C 369.22 387.89 372.74 393.83 375.58 400.08 C 372.79 407.48 370.93 415.27 367.77 422.51 C 361.02 425.33 354.07 427.66 347.16 430.06 C 332.15 419.94 317.09 409.86 301.95 399.94 C 300.13 400.52 298.31 401.09 296.49 401.66 C 294.24 418.64 292.81 435.74 290.58 452.73 C 284.41 448.89 277.86 445.70 271.82 441.66 C 265.89 437.79 259.22 435.27 252.99 431.95 C 249.15 430.09 245.36 428.13 241.55 426.20 C 239.24 425.05 236.92 423.94 234.69 422.65 C 230.82 418.00 227.85 412.64 224.92 407.37 C 234.86 404.22 244.88 401.32 254.73 397.91 C 251.83 387.26 248.54 376.72 245.50 366.11 C 232.90 370.92 220.37 375.95 207.91 381.11 C 210.15 388.92 213.33 396.42 215.94 404.11 C 216.37 405.63 217.26 407.53 215.88 408.86 C 207.91 419.03 199.15 428.60 191.53 439.04 C 189.84 439.16 188.16 439.20 186.47 439.20 C 182.43 437.40 178.06 436.68 173.76 435.83 C 172.00 433.95 170.17 432.12 168.07 430.62 C 163.68 427.53 159.24 424.52 154.89 421.40 C 153.10 420.21 151.36 418.58 149.08 418.65 C 143.17 418.36 137.26 418.14 131.35 417.81 C 127.75 417.60 124.14 417.42 120.53 417.28 C 117.44 417.14 114.34 416.98 111.24 416.91 C 104.74 404.17 97.59 391.76 90.68 379.23 C 79.55 380.14 68.46 381.52 57.33 382.42 C 55.56 382.75 53.38 382.52 52.10 384.03 C 48.51 387.86 45.31 392.04 41.80 395.95 C 35.49 392.04 29.34 387.80 23.64 383.04 C 32.65 381.16 41.89 380.72 50.94 379.06 C 52.00 367.15 52.13 355.17 53.11 343.25 C 69.40 340.17 85.71 337.17 101.95 333.84 C 100.95 327.13 99.45 320.50 98.38 313.81 C 101.97 316.04 104.76 319.26 107.98 321.97 C 111.68 325.14 115.25 328.46 118.59 332.02 C 113.71 337.04 107.98 341.11 102.76 345.76 C 100.11 348.19 96.87 350.08 94.81 353.09 C 94.63 361.09 95.83 369.08 96.22 377.07 C 96.05 379.53 98.48 380.59 100.13 381.85 C 109.70 388.35 118.92 395.38 128.62 401.70 C 136.06 396.07 143.50 390.42 151.07 384.95 C 161.29 393.44 171.06 402.46 181.15 411.10 C 185.29 404.12 188.94 396.85 192.82 389.72 C 194.68 386.72 194.56 383.14 194.17 379.77 C 187.74 383.26 182.28 388.25 175.95 391.87 C 174.61 391.45 174.05 389.91 173.18 388.92 C 162.84 373.62 151.95 358.69 141.85 343.24 C 156.41 334.96 171.14 326.99 185.64 318.61 C 187.96 317.27 191.84 315.56 193.66 318.47 C 202.08 331.13 210.47 343.82 219.02 356.41 C 239.19 344.07 259.22 331.49 279.18 318.82 C 277.70 313.08 275.57 307.54 273.77 301.91 C 278.76 300.49 283.84 299.40 288.83 297.98 C 290.08 295.77 291.32 293.57 292.48 291.33 C 294.38 287.85 296.52 284.51 298.22 280.93 M 191.82 349.96 C 189.10 356.36 185.90 362.58 183.73 369.20 C 191.79 366.66 199.71 363.55 207.44 360.15 C 204.00 353.31 200.27 346.61 196.51 339.94 C 194.48 343.05 193.35 346.61 191.82 349.96 M 336.81 364.69 C 338.62 369.34 342.01 373.10 344.51 377.38 C 346.11 379.65 347.02 382.60 349.50 384.12 C 351.14 379.38 352.95 374.71 354.77 370.04 C 349.00 367.65 342.93 365.88 336.81 364.69 M 277.83 381.00 C 280.25 386.23 283.80 390.82 286.59 395.86 C 290.58 394.66 294.12 392.38 297.92 390.71 C 298.00 385.65 297.08 380.65 296.32 375.67 C 290.08 377.15 283.95 379.08 277.83 381.00 Z" />
<path fill="#1a1915" opacity="1.00" d=" M 138.11 283.20 C 141.02 281.87 143.95 280.52 147.08 279.76 L 147.15 280.44 C 144.16 284.97 142.31 290.10 139.94 294.95 C 137.44 300.26 134.73 305.49 132.55 310.94 C 122.66 307.46 113.58 302.04 103.85 298.14 C 115.23 293.08 126.71 288.22 138.11 283.20 Z" />
<path fill="#1a1915" opacity="1.00" d=" M 243.92 282.73 C 245.05 282.18 246.16 281.59 247.29 281.02 C 247.73 289.85 248.07 298.69 248.53 307.52 C 248.76 312.39 249.01 317.27 249.00 322.15 C 241.39 317.66 234.31 312.37 226.84 307.65 C 232.42 298.94 239.91 291.59 245.46 282.85 L 243.92 282.73 Z" />
<path fill="#1a1915" opacity="1.00" d=" M 367.59 456.57 C 367.82 456.56 368.26 456.54 368.49 456.54 C 380.34 470.13 393.52 482.51 405.41 496.08 C 386.87 497.05 368.30 497.54 349.73 498.00 L 343.59 498.00 C 351.44 484.10 360.17 470.70 367.59 456.57 Z" />
<path fill="#1a1915" opacity="1.00" d=" M 300.18 485.21 C 304.57 482.00 308.60 478.16 313.59 475.89 C 315.26 483.29 317.10 490.65 319.00 498.00 L 311.29 498.00 C 306.66 497.72 299.87 497.75 298.68 492.02 C 298.66 489.70 297.86 486.71 300.18 485.21 Z" />
</g>
<g id="#c2a973ff">
<path fill="#c2a973" opacity="1.00" d=" M 486.86 18.90 C 491.90 16.36 496.98 13.91 502.00 11.33 L 502.00 12.26 C 498.18 36.06 494.66 59.95 492.74 83.98 C 492.78 93.16 491.82 103.52 484.62 110.11 L 483.59 109.88 C 483.31 91.05 485.29 72.24 485.20 53.42 C 486.23 51.42 487.28 49.44 488.33 47.45 C 487.69 47.61 486.43 47.93 485.80 48.09 C 486.04 38.35 486.51 28.63 486.86 18.90 Z" />
<path fill="#c2a973" opacity="1.00" d=" M 458.68 32.10 C 464.21 29.52 469.86 27.19 475.39 24.60 C 475.87 33.69 475.41 42.79 475.66 51.89 C 469.78 54.60 464.12 57.81 458.78 61.46 C 458.45 51.68 458.62 41.88 458.68 32.10 Z" />
<path fill="#c2a973" opacity="1.00" d=" M 434.87 50.80 C 435.88 44.68 441.61 41.23 447.09 39.59 C 447.45 50.00 447.32 60.43 447.19 70.84 C 443.10 74.51 439.56 78.71 435.87 82.76 C 434.36 72.21 433.17 61.39 434.87 50.80 Z" />
<path fill="#c2a973" opacity="1.00" d=" M 466.36 93.90 C 467.63 85.28 471.63 77.34 475.59 69.68 C 475.82 85.33 475.14 101.01 475.96 116.64 C 473.13 118.89 470.34 121.19 467.54 123.46 C 467.01 113.62 465.86 103.76 466.36 93.90 Z" />
<path fill="#c2a973" opacity="1.00" d=" M 373.98 118.94 C 386.40 125.96 399.10 132.50 411.39 139.77 C 407.99 148.05 410.16 157.27 409.56 165.96 C 402.04 165.39 394.53 164.73 387.01 164.14 C 385.52 168.54 387.06 174.82 382.27 177.34 C 380.95 178.25 379.61 179.13 378.29 180.03 C 376.59 176.45 373.56 173.20 373.68 169.02 C 373.73 162.35 373.59 155.68 373.83 149.01 C 374.13 138.99 373.86 128.96 373.98 118.94 Z" />
<path fill="#c2a973" opacity="1.00" d=" M 382.81 188.33 C 391.73 184.64 400.73 181.11 409.57 177.20 C 409.57 218.77 409.54 260.32 409.58 301.89 C 401.24 298.84 392.70 296.37 384.38 293.27 C 392.44 276.70 400.48 260.12 408.55 243.55 C 409.87 241.08 409.93 238.02 408.46 235.59 C 403.79 226.89 399.16 218.16 394.48 209.46 C 391.38 203.78 388.19 198.14 385.07 192.47 C 384.31 191.09 383.55 189.71 382.81 188.33 Z" />
<path fill="#c2a973" opacity="1.00" d=" M 265.29 216.48 C 273.80 211.42 282.21 206.20 290.73 201.14 L 290.77 201.50 C 290.61 210.14 290.74 218.78 290.64 227.42 C 290.53 227.50 290.30 227.65 290.19 227.73 C 290.80 224.17 290.61 220.54 290.45 216.95 C 282.06 216.65 273.63 217.51 265.29 216.48 Z" />
<path fill="#c2a973" opacity="1.00" d=" M 166.17 240.24 C 172.35 236.10 178.50 231.92 184.77 227.91 C 191.58 228.52 198.44 228.48 205.24 227.81 C 213.68 230.85 221.96 234.33 230.26 237.71 C 235.73 234.48 241.11 231.09 246.64 227.96 C 260.88 228.65 275.17 228.14 289.43 228.26 C 280.52 234.03 271.47 239.59 262.43 245.15 C 235.96 245.28 209.48 245.14 183.01 245.22 C 177.03 245.51 170.86 244.12 166.17 240.24 Z" />
<path fill="#c2a973" opacity="1.00" d=" M 475.50 315.19 C 481.75 310.04 488.12 305.04 494.44 299.99 C 494.28 333.32 492.58 366.63 492.60 399.97 C 492.39 411.02 493.09 422.14 491.56 433.14 C 490.00 444.94 486.89 456.69 481.14 467.18 C 476.02 476.43 468.09 484.59 457.90 488.07 C 450.92 490.72 443.35 490.26 436.06 491.09 C 431.00 491.60 425.92 491.82 420.87 492.41 C 423.24 487.94 425.70 483.51 428.13 479.08 C 435.07 479.14 442.02 479.22 448.97 479.11 C 457.25 479.06 464.37 473.23 468.35 466.33 C 474.36 456.04 475.62 443.78 475.60 432.08 C 475.53 393.12 475.73 354.15 475.50 315.19 Z" />
<path fill="#c2a973" opacity="1.00" d=" M 383.75 320.00 C 392.35 318.98 400.96 317.90 409.58 316.97 C 409.44 327.52 409.73 338.07 409.42 348.62 C 408.25 363.63 403.47 378.07 398.19 392.08 C 391.67 408.99 383.86 425.39 375.17 441.29 C 372.35 446.55 368.82 451.39 366.05 456.68 C 351.48 463.09 337.07 469.90 322.58 476.48 C 320.26 477.58 317.65 477.24 315.18 477.20 C 315.33 463.95 315.06 450.69 315.32 437.44 C 316.55 436.90 317.78 436.36 319.02 435.83 C 326.64 441.43 334.22 447.08 341.70 452.86 C 341.66 454.72 341.62 456.59 341.58 458.47 C 339.25 458.29 336.66 458.84 334.59 457.50 C 329.99 454.75 325.54 451.76 320.95 448.99 C 320.82 456.50 320.87 464.01 320.92 471.52 C 332.86 466.04 344.65 460.23 356.60 454.75 C 339.90 440.66 322.85 426.95 305.81 413.27 C 303.25 435.84 300.71 458.41 298.30 480.99 C 263.55 481.01 228.80 481.00 194.05 481.00 C 188.78 481.05 183.29 481.20 178.42 483.45 C 175.11 484.92 172.84 488.08 169.35 489.23 C 166.36 490.27 163.16 490.47 160.02 490.48 C 135.33 490.45 110.64 490.47 85.96 490.47 C 73.69 490.52 61.13 489.93 49.51 485.64 C 41.56 482.74 33.81 477.70 30.19 469.76 C 68.11 470.39 106.03 471.31 143.95 471.59 C 150.43 471.75 157.26 470.46 162.45 466.34 C 169.99 460.47 173.32 450.68 173.71 441.41 C 176.76 441.29 179.81 441.24 182.85 440.91 C 181.19 453.87 177.09 466.31 174.03 478.96 C 185.57 468.10 194.38 454.64 200.92 440.28 C 205.85 440.12 210.77 439.86 215.71 439.74 C 213.68 451.78 209.95 463.44 206.04 474.98 C 217.55 464.62 227.00 452.13 234.98 438.91 C 240.42 438.66 245.85 438.37 251.29 438.29 C 247.97 450.66 242.78 462.40 238.54 474.46 C 250.86 464.87 261.68 453.49 271.82 441.66 C 277.86 445.70 284.41 448.89 290.58 452.73 C 292.81 435.74 294.24 418.64 296.49 401.66 C 298.31 401.09 300.13 400.52 301.95 399.94 C 317.09 409.86 332.15 419.94 347.16 430.06 C 354.07 427.66 361.02 425.33 367.77 422.51 C 370.93 415.27 372.79 407.48 375.58 400.08 C 380.45 386.40 385.49 372.77 390.43 359.12 C 392.32 354.41 394.46 349.81 396.34 345.09 C 392.08 336.76 387.95 328.36 383.75 320.00 Z" />
<path fill="#c2a973" opacity="1.00" d=" M 443.67 343.11 C 450.60 337.02 457.33 330.69 464.21 324.53 C 466.76 360.29 466.16 396.15 466.11 431.97 C 465.70 444.03 463.15 457.38 453.83 465.86 C 448.06 471.23 439.80 471.97 432.29 471.65 C 430.98 470.25 429.66 468.85 428.36 467.43 C 430.86 464.26 434.35 462.07 436.85 458.89 C 440.70 454.15 443.36 448.25 443.50 442.08 C 443.67 409.09 443.35 376.10 443.67 343.11 Z" />
<path fill="#c2a973" opacity="1.00" d=" M 422.80 362.13 C 425.95 359.10 428.95 355.91 432.12 352.89 C 432.31 381.27 432.16 409.65 432.20 438.03 C 432.46 446.34 428.20 455.08 420.12 458.17 C 418.49 456.37 416.88 454.54 415.28 452.72 C 420.92 445.47 422.59 435.98 422.74 427.02 C 422.82 405.39 422.71 383.76 422.80 362.13 Z" />
<path fill="#c2a973" opacity="1.00" d=" M 154.89 421.40 C 159.24 424.52 163.68 427.53 168.07 430.62 C 168.09 438.55 168.42 447.02 164.42 454.18 C 161.28 460.12 154.80 464.12 148.06 464.06 C 109.70 464.08 71.35 464.07 33.00 464.06 C 29.11 463.95 24.06 463.85 21.96 459.93 C 20.35 456.56 20.09 451.00 24.27 449.43 C 28.31 448.46 32.54 449.09 36.66 448.93 C 41.25 448.93 45.84 448.93 50.42 448.92 C 56.46 448.94 62.50 448.93 68.54 448.93 C 73.16 448.93 77.78 448.93 82.40 448.92 C 89.72 448.94 97.05 448.93 104.37 448.94 C 108.40 448.94 112.42 448.92 116.45 448.92 C 121.91 448.93 127.37 448.93 132.82 448.93 C 138.03 448.91 143.24 448.99 148.45 448.93 C 151.94 448.55 154.66 445.47 154.77 441.99 C 155.03 435.13 154.75 428.26 154.89 421.40 Z" />
</g>
<g id="#736644ff">
<path fill="#736644" opacity="1.00" d=" M 475.39 24.60 C 479.24 22.76 483.05 20.81 486.86 18.90 C 486.51 28.63 486.04 38.35 485.80 48.09 C 482.34 49.16 478.99 50.52 475.66 51.89 C 475.41 42.79 475.87 33.69 475.39 24.60 Z" />
<path fill="#736644" opacity="1.00" d=" M 447.09 39.59 C 451.16 37.42 454.72 34.44 458.68 32.10 C 458.62 41.88 458.45 51.68 458.78 61.46 C 454.72 64.34 450.85 67.48 447.19 70.84 C 447.32 60.43 447.45 50.00 447.09 39.59 Z" />
<path fill="#736644" opacity="1.00" d=" M 475.59 69.68 C 478.48 64.08 481.46 58.50 485.20 53.42 C 485.29 72.24 483.31 91.05 483.59 109.88 L 484.62 110.11 C 481.85 112.45 478.83 114.45 475.96 116.64 C 475.14 101.01 475.82 85.33 475.59 69.68 Z" />
<path fill="#736644" opacity="1.00" d=" M 246.64 227.96 C 252.78 224.01 259.06 220.29 265.29 216.48 C 273.63 217.51 282.06 216.65 290.45 216.95 C 290.61 220.54 290.80 224.17 290.19 227.73 L 289.43 228.26 C 275.17 228.14 260.88 228.65 246.64 227.96 Z" />
<path fill="#736644" opacity="1.00" d=" M 184.77 227.91 C 187.49 226.25 189.84 223.76 192.98 222.94 C 197.25 224.04 201.16 226.18 205.24 227.81 C 198.44 228.48 191.58 228.52 184.77 227.91 Z" />
<path fill="#736644" opacity="1.00" d=" M 464.21 324.53 C 467.94 321.37 471.71 318.27 475.50 315.19 C 475.73 354.15 475.53 393.12 475.60 432.08 C 475.62 443.78 474.36 456.04 468.35 466.33 C 464.37 473.23 457.25 479.06 448.97 479.11 C 442.02 479.22 435.07 479.14 428.13 479.08 C 429.48 476.58 430.86 474.10 432.29 471.65 C 439.80 471.97 448.06 471.23 453.83 465.86 C 463.15 457.38 465.70 444.03 466.11 431.97 C 466.16 396.15 466.76 360.29 464.21 324.53 Z" />
<path fill="#736644" opacity="1.00" d=" M 432.12 352.89 C 435.90 349.55 439.90 346.47 443.67 343.11 C 443.35 376.10 443.67 409.09 443.50 442.08 C 443.36 448.25 440.70 454.15 436.85 458.89 C 434.35 462.07 430.86 464.26 428.36 467.43 C 425.64 464.32 422.91 461.21 420.12 458.17 C 428.20 455.08 432.46 446.34 432.20 438.03 C 432.16 409.65 432.31 381.27 432.12 352.89 Z" />
</g>
<g id="#3f5169ff">
<path fill="#3f5169" opacity="1.00" d=" M 475.66 51.89 C 478.99 50.52 482.34 49.16 485.80 48.09 C 486.43 47.93 487.69 47.61 488.33 47.45 C 487.28 49.44 486.23 51.42 485.20 53.42 C 481.46 58.50 478.48 64.08 475.59 69.68 C 471.63 77.34 467.63 85.28 466.36 93.90 C 465.86 103.76 467.01 113.62 467.54 123.46 C 468.02 131.29 468.47 139.12 468.92 146.96 C 470.51 171.35 469.73 195.80 469.93 220.23 C 465.39 215.99 460.21 212.51 455.62 208.35 C 450.50 203.05 450.91 195.11 450.89 188.29 C 450.56 180.30 449.74 172.35 449.21 164.37 C 449.04 157.98 449.21 151.58 449.18 145.18 C 449.77 144.53 450.37 143.87 450.97 143.21 C 445.92 140.83 440.99 138.23 435.96 135.83 C 435.96 133.93 435.96 132.04 435.96 130.15 C 442.12 128.35 448.30 126.55 454.42 124.59 C 448.45 121.60 442.10 119.50 435.96 116.94 C 435.96 114.40 435.97 111.86 435.96 109.32 C 442.17 105.00 448.61 100.96 454.45 96.15 C 448.32 94.79 442.15 93.55 435.96 92.52 C 435.96 89.26 436.06 86.01 435.87 82.76 C 439.56 78.71 443.10 74.51 447.19 70.84 C 450.85 67.48 454.72 64.34 458.78 61.46 C 464.12 57.81 469.78 54.60 475.66 51.89 Z" />
<path fill="#3f5169" opacity="1.00" d=" M 343.81 92.97 C 346.66 95.15 349.43 97.44 352.08 99.85 C 357.00 104.33 362.44 108.29 366.71 113.44 C 368.99 115.46 371.43 117.28 373.98 118.94 C 373.86 128.96 374.13 138.99 373.83 149.01 C 361.08 155.88 348.44 162.94 335.68 169.80 C 334.08 170.47 332.14 172.02 330.60 170.40 C 319.74 162.64 309.13 154.53 298.33 146.68 C 296.35 144.76 293.48 145.32 290.99 145.24 C 282.72 145.35 274.44 145.16 266.16 145.34 C 260.65 135.81 254.78 126.47 249.25 116.95 C 251.13 115.12 253.04 113.32 254.96 111.53 C 258.41 116.32 261.44 121.38 264.80 126.23 C 265.59 127.42 266.62 128.55 268.12 128.79 C 279.38 131.75 290.67 134.65 301.90 137.72 C 312.76 126.17 323.32 114.33 334.12 102.73 C 337.84 108.14 341.81 113.39 345.31 118.94 C 339.25 125.68 333.10 132.33 327.05 139.07 C 337.13 134.57 346.95 129.47 356.74 124.35 C 352.33 113.93 348.04 103.46 343.81 92.97 Z" />
<path fill="#3f5169" opacity="1.00" d=" M 209.53 122.27 C 216.30 126.90 223.21 131.42 230.29 135.55 C 233.88 133.06 236.52 129.40 239.77 126.47 C 244.76 132.72 250.01 138.79 254.62 145.33 C 238.39 145.25 222.15 145.17 205.92 145.37 C 204.68 142.24 203.08 139.23 202.27 135.95 C 204.15 131.13 207.46 127.02 209.53 122.27 Z" />
<path fill="#3f5169" opacity="1.00" d=" M 186.92 145.01 C 189.33 141.52 191.55 137.89 194.23 134.59 C 194.32 138.53 196.60 141.85 198.24 145.29 C 194.46 145.20 190.70 144.99 186.92 145.01 Z" />
<path fill="#3f5169" opacity="1.00" d=" M 290.64 227.42 L 292.42 226.82 C 292.73 248.31 292.60 269.83 292.48 291.33 C 291.32 293.57 290.08 295.77 288.83 297.98 C 283.84 299.40 278.76 300.49 273.77 301.91 C 269.92 303.06 266.14 304.39 262.34 305.68 C 262.43 301.22 262.40 296.76 262.40 292.30 C 268.63 289.32 274.87 286.32 280.92 282.97 C 274.87 280.19 268.65 277.81 262.41 275.51 C 262.40 271.07 262.40 266.63 262.40 262.19 C 268.56 259.13 274.81 256.22 280.80 252.85 C 274.82 250.47 268.51 249.09 262.41 247.06 C 262.42 246.58 262.43 245.63 262.43 245.15 C 271.47 239.59 280.52 234.03 289.43 228.26 L 290.19 227.73 C 290.30 227.65 290.53 227.50 290.64 227.42 Z" />
</g>
<g id="#bb4c1eff">
<path fill="#bb4c1e" opacity="1.00" d=" M 332.25 100.00 C 335.93 97.49 339.61 94.99 343.34 92.56 L 343.81 92.97 C 348.04 103.46 352.33 113.93 356.74 124.35 C 346.95 129.47 337.13 134.57 327.05 139.07 C 333.10 132.33 339.25 125.68 345.31 118.94 C 341.81 113.39 337.84 108.14 334.12 102.73 C 333.49 101.82 332.87 100.91 332.25 100.00 Z" />
<path fill="#bb4c1e" opacity="1.00" d=" M 435.96 92.52 C 442.15 93.55 448.32 94.79 454.45 96.15 C 448.61 100.96 442.17 105.00 435.96 109.32 C 435.93 103.72 435.93 98.12 435.96 92.52 Z" />
<path fill="#bb4c1e" opacity="1.00" d=" M 239.77 126.47 C 242.87 123.25 246.03 120.06 249.25 116.95 C 254.78 126.47 260.65 135.81 266.16 145.34 C 262.31 145.47 258.46 145.46 254.62 145.33 C 250.01 138.79 244.76 132.72 239.77 126.47 Z" />
<path fill="#bb4c1e" opacity="1.00" d=" M 435.96 116.94 C 442.10 119.50 448.45 121.60 454.42 124.59 C 448.30 126.55 442.12 128.35 435.96 130.15 C 435.93 125.75 435.93 121.34 435.96 116.94 Z" />
<path fill="#bb4c1e" opacity="1.00" d=" M 195.61 128.59 C 198.33 124.70 201.08 120.83 203.96 117.05 C 205.77 118.84 207.57 120.64 209.53 122.27 C 207.46 127.02 204.15 131.13 202.27 135.95 C 203.08 139.23 204.68 142.24 205.92 145.37 C 203.36 145.34 200.80 145.33 198.24 145.29 C 196.60 141.85 194.32 138.53 194.23 134.59 C 194.38 132.55 194.24 130.29 195.61 128.59 Z" />
<path fill="#bb4c1e" opacity="1.00" d=" M 435.96 135.83 C 440.99 138.23 445.92 140.83 450.97 143.21 C 450.37 143.87 449.77 144.53 449.18 145.18 C 444.65 145.90 440.17 146.96 435.93 148.74 C 435.95 144.43 435.94 140.13 435.96 135.83 Z" />
<path fill="#bb4c1e" opacity="1.00" d=" M 387.01 164.14 C 394.53 164.73 402.04 165.39 409.56 165.96 C 409.55 169.71 409.55 173.45 409.57 177.20 C 400.73 181.11 391.73 184.64 382.81 188.33 C 381.30 185.56 379.79 182.80 378.29 180.03 C 379.61 179.13 380.95 178.25 382.27 177.34 C 387.06 174.82 385.52 168.54 387.01 164.14 Z" />
<path fill="#bb4c1e" opacity="1.00" d=" M 262.41 247.06 C 268.51 249.09 274.82 250.47 280.80 252.85 C 274.81 256.22 268.56 259.13 262.40 262.19 C 262.40 257.14 262.39 252.10 262.41 247.06 Z" />
<path fill="#bb4c1e" opacity="1.00" d=" M 262.41 275.51 C 268.65 277.81 274.87 280.19 280.92 282.97 C 274.87 286.32 268.63 289.32 262.40 292.30 C 262.40 286.71 262.40 281.11 262.41 275.51 Z" />
<path fill="#bb4c1e" opacity="1.00" d=" M 378.17 306.14 C 380.10 301.78 382.37 297.59 384.38 293.27 C 392.70 296.37 401.24 298.84 409.58 301.89 C 409.54 306.92 409.54 311.94 409.58 316.97 C 400.96 317.90 392.35 318.98 383.75 320.00 C 382.36 317.23 381.00 314.46 379.58 311.71 C 378.91 309.95 377.12 308.08 378.17 306.14 Z" />
<path fill="#bb4c1e" opacity="1.00" d=" M 217.16 430.11 C 223.00 427.61 228.65 424.64 234.69 422.65 C 236.92 423.94 239.24 425.05 241.55 426.20 C 239.73 430.62 237.41 434.80 234.98 438.91 C 227.00 452.13 217.55 464.62 206.04 474.98 C 209.95 463.44 213.68 451.78 215.71 439.74 C 216.31 436.55 216.76 433.33 217.16 430.11 Z" />
<path fill="#bb4c1e" opacity="1.00" d=" M 252.99 431.95 C 259.22 435.27 265.89 437.79 271.82 441.66 C 261.68 453.49 250.86 464.87 238.54 474.46 C 242.78 462.40 247.97 450.66 251.29 438.29 C 251.87 436.18 252.43 434.06 252.99 431.95 Z" />
<path fill="#bb4c1e" opacity="1.00" d=" M 191.53 439.04 C 194.99 438.71 198.43 438.23 201.88 437.85 C 201.64 438.46 201.16 439.67 200.92 440.28 C 194.38 454.64 185.57 468.10 174.03 478.96 C 177.09 466.31 181.19 453.87 182.85 440.91 C 183.04 440.56 183.42 439.86 183.61 439.51 C 184.33 439.43 185.76 439.28 186.47 439.20 C 188.16 439.20 189.84 439.16 191.53 439.04 Z" />
<path fill="#bb4c1e" opacity="1.00" d=" M 401.98 456.43 C 405.13 455.98 408.26 455.34 411.36 454.59 C 411.50 464.04 411.47 473.49 411.38 482.95 C 408.26 482.94 405.14 482.94 402.03 482.93 C 401.97 474.10 402.04 465.27 401.98 456.43 Z" />
<path fill="#bb4c1e" opacity="1.00" d=" M 383.14 456.53 C 386.30 456.53 389.46 456.53 392.62 456.53 C 392.53 464.02 392.55 471.50 392.63 478.99 C 389.37 476.03 386.30 472.88 383.19 469.76 C 383.12 465.35 383.13 460.94 383.14 456.53 Z" />
</g>
<g id="#a1fee3ff">
<path fill="#a1fee3" opacity="1.00" d=" M 129.10 359.26 C 134.59 356.71 141.72 360.15 143.14 366.03 C 144.85 371.61 140.87 378.00 135.13 378.94 C 129.85 380.12 124.15 376.37 123.08 371.09 C 121.88 366.36 124.59 361.08 129.10 359.26 Z" />
</g>
<g id="#43352cff">
<path fill="#43352c" opacity="1.00" d=" M 53.84 417.74 C 57.64 417.67 61.44 417.38 65.24 417.33 C 63.01 422.75 61.06 428.29 58.55 433.59 C 56.97 428.31 55.38 423.03 53.84 417.74 Z" />
<path fill="#43352c" opacity="1.00" d=" M 87.68 417.04 C 91.53 417.03 95.38 417.01 99.23 416.98 C 97.04 421.95 94.92 426.96 92.55 431.85 C 90.92 426.91 89.23 422.00 87.68 417.04 Z" />
<path fill="#43352c" opacity="1.00" d=" M 120.53 417.28 C 124.14 417.42 127.75 417.60 131.35 417.81 C 129.79 423.03 128.29 428.27 126.62 433.47 C 124.27 428.20 122.58 422.67 120.53 417.28 Z" />
<path fill="#43352c" opacity="1.00" d=" M 21.87 418.79 C 25.58 418.84 29.28 418.68 32.98 418.46 C 30.74 424.71 28.98 431.13 26.48 437.28 C 24.93 431.12 23.39 424.96 21.87 418.79 Z" />
<path fill="#43352c" opacity="1.00" d=" M 73.66 426.72 C 76.94 433.97 79.48 441.53 82.40 448.92 C 77.78 448.93 73.16 448.93 68.54 448.93 C 70.21 441.52 71.91 434.11 73.66 426.72 Z" />
<path fill="#43352c" opacity="1.00" d=" M 139.65 426.73 C 143.03 433.94 145.48 441.54 148.45 448.93 C 143.24 448.99 138.03 448.91 132.82 448.93 C 135.08 441.52 137.35 434.12 139.65 426.73 Z" />
<path fill="#43352c" opacity="1.00" d=" M 36.66 448.93 C 38.98 442.14 40.97 435.23 43.62 428.57 C 45.97 435.33 48.19 442.13 50.42 448.92 C 45.84 448.93 41.25 448.93 36.66 448.93 Z" />
<path fill="#43352c" opacity="1.00" d=" M 109.50 428.53 C 112.12 435.22 114.16 442.12 116.45 448.92 C 112.42 448.92 108.40 448.94 104.37 448.94 C 106.13 442.15 107.76 435.32 109.50 428.53 Z" />
</g>
</svg>
