<?xml version="1.0" encoding="UTF-8" ?>
<!DOCTYPE svg PUBLIC "-//W3C//DTD SVG 1.1//EN" "http://www.w3.org/Graphics/SVG/1.1/DTD/svg11.dtd">
<svg width="498pt" height="492pt" viewBox="0 0 498 492" version="1.1" xmlns="http://www.w3.org/2000/svg">
<g id="#672a35ff">
<path fill="#672a35" opacity="1.00" d=" M 29.94 0.00 L 32.91 0.00 C 37.80 1.14 42.77 1.99 47.57 3.50 C 48.90 9.61 50.07 15.76 51.15 21.92 C 53.96 16.92 57.25 12.22 60.00 7.20 C 63.65 8.17 67.18 9.51 70.59 11.12 C 70.31 20.38 70.66 29.64 70.38 38.90 C 75.28 31.76 81.11 25.32 86.50 18.56 C 88.56 19.45 90.59 20.85 92.94 20.53 C 108.96 19.38 124.95 17.89 140.99 17.10 C 146.96 16.87 153.16 16.82 158.82 19.04 C 157.17 23.97 155.37 28.86 153.25 33.62 C 156.25 32.78 159.33 32.26 162.44 32.04 C 162.65 38.71 162.58 45.37 162.45 52.04 C 166.32 43.29 170.58 34.70 175.27 26.37 C 177.85 27.57 180.41 28.80 182.94 30.11 C 181.53 39.93 178.30 49.36 176.12 59.02 C 181.65 53.99 186.10 47.63 192.51 43.67 C 193.02 46.33 193.81 49.09 193.04 51.79 C 191.39 58.76 190.61 65.89 189.16 72.91 C 192.02 70.60 194.68 67.75 198.40 66.90 C 200.19 75.42 201.60 84.01 203.15 92.57 C 185.15 81.49 167.65 69.36 148.33 60.63 C 147.43 65.82 146.59 71.01 145.71 76.20 C 144.30 75.32 142.87 74.47 141.44 73.61 C 141.03 80.16 142.25 86.62 142.73 93.12 C 143.42 99.21 143.85 105.32 144.67 111.39 C 152.86 115.38 161.14 119.20 169.52 122.80 C 168.90 125.69 168.37 128.60 167.95 131.53 C 157.43 126.74 146.56 122.77 135.97 118.12 C 135.14 108.27 134.05 98.41 132.37 88.67 C 128.22 93.58 124.14 98.64 120.77 104.11 C 119.96 111.43 122.24 118.77 121.54 126.16 C 129.81 130.93 138.28 135.33 146.73 139.78 C 145.81 140.02 144.89 140.26 143.97 140.50 C 140.66 141.37 137.38 142.33 134.09 143.29 C 146.90 161.40 159.55 179.61 172.30 197.76 C 175.29 202.15 178.60 206.34 181.22 210.98 C 175.48 209.53 170.29 206.61 164.82 204.44 C 157.23 201.31 149.80 197.79 142.12 194.88 C 142.90 201.49 144.41 207.99 145.47 214.56 C 157.32 219.61 169.26 224.43 181.04 229.63 C 183.68 224.59 185.99 219.37 188.64 214.33 C 195.02 218.65 201.95 222.15 207.98 227.00 C 213.95 231.18 220.44 234.57 226.50 238.62 C 229.46 240.34 227.96 244.21 228.91 246.93 C 231.88 256.86 230.84 267.52 233.81 277.45 C 235.22 282.23 239.26 286.26 244.19 287.27 C 249.36 287.92 255.26 288.11 259.45 284.47 C 264.80 280.41 265.34 273.15 266.05 267.00 C 267.04 260.30 267.06 253.42 269.08 246.90 C 269.70 244.77 269.55 242.52 269.54 240.33 C 276.00 234.96 283.91 231.72 290.56 226.60 C 296.43 221.97 303.16 218.62 309.32 214.41 C 312.07 219.39 314.33 224.62 316.99 229.65 C 328.78 224.50 340.70 219.67 352.52 214.59 C 353.56 208.01 355.14 201.52 355.87 194.89 C 347.32 198.26 338.96 202.08 330.49 205.63 C 326.45 207.24 322.61 209.66 318.17 209.99 C 318.19 209.46 318.22 208.39 318.23 207.86 C 321.10 204.78 323.28 201.16 325.71 197.75 C 338.48 179.62 351.09 161.38 363.93 143.30 C 360.66 142.28 357.37 141.34 354.08 140.40 C 353.14 140.14 352.22 139.88 351.30 139.61 C 359.86 135.48 368.23 130.92 376.46 126.13 C 375.77 118.78 378.01 111.48 377.26 104.18 C 373.91 98.67 369.82 93.57 365.61 88.68 C 363.95 98.42 362.86 108.28 362.02 118.12 C 351.44 122.83 340.57 126.86 329.98 131.55 C 329.59 128.62 329.09 125.71 328.49 122.82 C 336.87 119.24 345.19 115.49 353.32 111.38 C 354.54 101.98 355.15 92.52 356.32 83.12 C 356.68 79.97 356.60 76.80 356.55 73.64 C 355.12 74.50 353.70 75.36 352.29 76.24 C 351.41 71.03 350.57 65.82 349.66 60.61 C 330.81 69.16 313.75 81.04 296.09 91.73 C 298.08 83.74 299.70 75.65 302.01 67.74 C 304.37 69.34 306.66 71.03 308.85 72.85 C 307.89 67.50 306.83 62.16 305.99 56.79 C 305.38 52.95 307.01 49.27 308.25 45.73 C 313.18 49.75 317.36 54.58 321.90 59.03 C 319.64 49.42 316.50 39.98 315.08 30.18 C 317.59 28.86 320.13 27.59 322.70 26.41 C 327.47 34.69 331.64 43.33 335.58 52.04 C 335.37 45.38 335.40 38.71 335.51 32.05 C 338.64 32.25 341.75 32.77 344.77 33.63 C 342.65 28.88 340.86 23.99 339.19 19.07 C 345.48 16.54 352.41 16.91 359.05 17.19 C 374.40 18.09 389.73 19.28 405.06 20.54 C 407.42 20.86 409.47 19.48 411.53 18.58 C 416.78 25.47 422.81 31.74 427.64 38.94 C 427.30 29.68 427.73 20.42 427.38 11.16 C 430.68 9.57 434.10 8.28 437.64 7.33 C 440.96 12.02 444.00 16.89 446.75 21.94 C 447.93 15.80 449.22 9.68 450.40 3.54 C 455.35 2.04 460.44 1.04 465.50 0.00 L 467.99 0.00 C 452.50 15.32 441.88 34.87 433.94 54.98 C 432.33 59.56 430.00 64.06 429.98 69.02 C 429.84 83.21 432.26 97.43 437.38 110.68 C 436.71 112.02 435.72 113.45 436.24 115.03 C 437.27 119.03 439.29 122.68 440.63 126.57 C 447.02 143.92 452.61 161.54 458.53 179.05 C 450.31 191.50 442.54 204.27 433.92 216.44 C 433.38 207.90 433.29 199.02 429.80 191.04 C 428.78 188.59 426.91 186.66 425.08 184.80 C 425.33 190.99 426.88 197.21 425.43 203.36 C 423.50 215.03 414.90 223.92 406.66 231.73 C 398.72 239.36 389.36 246.26 384.96 256.72 C 380.89 265.22 380.85 274.90 382.49 284.00 C 377.80 278.35 373.10 272.19 371.38 264.92 C 370.86 258.33 378.31 254.55 378.71 248.09 C 379.81 236.99 373.68 226.87 368.24 217.70 C 369.29 227.45 370.11 237.27 369.65 247.08 C 368.67 254.99 363.16 261.40 357.63 266.73 C 353.71 270.40 349.42 273.65 344.90 276.53 C 351.17 289.40 359.19 301.38 365.72 314.11 C 366.35 317.99 369.03 320.87 370.98 324.12 C 370.44 326.33 369.24 328.30 368.16 330.28 C 357.65 349.01 345.52 367.06 330.25 382.26 C 328.06 367.80 322.67 352.96 311.43 343.09 C 316.56 361.61 317.32 380.99 316.79 400.10 C 316.79 401.58 315.60 402.61 314.76 403.69 C 297.92 422.22 281.19 440.87 264.34 459.40 C 263.85 454.35 262.53 449.43 260.56 444.77 C 254.75 451.67 252.64 460.67 248.72 468.62 C 244.03 461.78 240.95 454.07 237.43 446.62 C 235.15 450.62 233.44 454.91 231.90 459.24 C 215.12 440.27 199.10 420.62 182.51 401.47 C 180.96 399.61 178.94 397.71 179.15 395.06 C 178.51 378.17 181.82 361.50 184.76 344.95 C 172.93 354.16 168.54 369.76 167.74 384.14 C 161.05 377.17 154.44 370.07 148.61 362.37 C 140.55 350.39 134.36 337.27 128.47 324.13 C 130.95 318.14 132.85 311.86 136.46 306.41 C 141.94 296.43 148.15 286.81 153.09 276.55 C 143.03 269.70 132.31 261.52 128.70 249.35 C 127.46 238.85 128.76 228.21 129.76 217.73 C 124.28 226.88 118.18 237.00 119.28 248.09 C 119.67 254.86 128.08 258.90 126.41 265.98 C 124.32 272.74 120.05 278.61 115.53 283.95 C 118.05 271.82 116.02 258.62 108.33 248.68 C 99.95 238.10 88.34 230.58 80.18 219.79 C 76.08 214.63 73.17 208.48 72.30 201.91 C 71.25 196.21 72.74 190.49 72.92 184.78 C 71.09 186.66 69.20 188.60 68.18 191.07 C 64.69 199.08 64.58 207.98 64.10 216.56 C 55.54 204.29 47.68 191.54 39.47 179.03 C 45.97 160.05 51.82 140.83 59.12 122.13 C 60.38 118.53 63.47 114.33 60.61 110.69 C 65.72 97.44 68.14 83.24 68.01 69.05 C 67.95 63.57 65.26 58.62 63.49 53.56 C 55.57 33.98 45.16 14.88 29.94 0.00 M 104.55 126.52 C 101.76 130.42 98.56 134.03 96.15 138.19 C 102.13 141.54 108.06 144.97 114.07 148.25 C 118.07 150.40 121.81 153.08 126.18 154.49 C 125.13 151.99 124.01 149.54 122.84 147.10 C 126.47 145.79 130.14 144.60 133.84 143.50 C 133.05 142.35 131.82 141.63 130.58 141.07 C 124.92 138.48 119.19 136.02 113.57 133.34 C 113.59 127.28 113.71 121.22 113.52 115.16 C 110.08 118.57 107.55 122.74 104.55 126.52 M 384.48 115.14 C 384.30 121.20 384.40 127.27 384.43 133.34 C 380.39 135.32 376.32 137.21 372.19 138.97 C 369.41 140.23 366.38 141.17 364.21 143.42 C 367.89 144.60 371.58 145.75 375.20 147.08 C 373.98 149.63 372.71 152.17 371.57 154.76 C 372.85 154.39 374.06 153.89 375.22 153.24 C 384.11 148.19 393.01 143.17 401.96 138.23 C 399.18 133.77 395.78 129.75 392.70 125.51 C 389.96 122.05 387.66 118.23 384.48 115.14 M 98.20 152.14 C 101.98 159.90 107.44 166.75 111.78 174.22 C 119.87 177.03 127.65 180.76 135.89 183.08 C 134.20 177.72 132.48 172.36 130.60 167.06 C 130.19 165.63 128.96 164.68 127.61 164.19 C 117.81 160.16 108.00 156.15 98.20 152.14 M 370.49 164.17 C 369.09 164.64 367.82 165.59 367.40 167.06 C 365.51 172.36 363.79 177.73 362.11 183.10 C 369.60 181.08 376.64 177.71 383.94 175.14 C 387.31 174.24 388.29 170.50 390.16 167.98 C 393.22 162.62 397.35 157.86 399.80 152.17 C 390.02 156.14 380.30 160.27 370.49 164.17 M 84.97 197.90 C 100.03 196.25 115.06 194.32 130.08 192.31 L 129.16 191.07 C 122.72 187.62 116.34 184.03 109.86 180.65 C 101.50 186.31 93.19 192.04 84.97 197.90 M 371.75 189.49 C 370.34 190.24 368.71 190.84 367.87 192.31 C 382.90 194.12 397.89 196.31 412.96 197.79 C 404.93 191.98 396.60 186.60 388.61 180.74 C 382.70 183.06 377.44 186.70 371.75 189.49 M 169.67 250.70 C 184.89 267.56 197.93 286.35 208.66 306.36 C 208.99 306.61 209.65 307.11 209.99 307.37 C 215.48 304.77 221.15 301.28 224.34 296.00 C 217.20 278.78 203.08 264.81 186.43 256.62 C 181.08 254.07 175.58 251.57 169.67 250.70 M 308.95 259.88 C 293.19 268.15 280.63 281.91 273.24 298.06 C 277.24 303.07 282.63 306.58 288.20 309.61 C 290.30 307.01 291.68 303.95 293.33 301.08 C 303.18 283.79 314.83 267.52 328.21 252.80 C 321.33 253.49 315.04 256.82 308.95 259.88 M 226.22 294.28 C 225.99 300.76 229.53 306.93 233.99 311.43 C 234.44 304.17 236.11 297.10 237.90 290.08 C 233.78 290.60 229.51 291.62 226.22 294.28 M 260.12 290.13 C 261.90 297.18 263.49 304.30 264.02 311.57 C 268.53 306.90 271.76 300.78 271.96 294.20 C 268.39 291.93 264.36 290.43 260.12 290.13 Z" />
<path fill="#672a35" opacity="1.00" d=" M 183.02 154.56 C 184.81 143.86 186.64 133.16 188.63 122.50 C 191.25 127.89 194.22 133.12 196.57 138.64 C 194.39 148.16 194.02 157.99 192.43 167.61 C 182.50 168.00 172.48 166.85 162.61 168.33 C 159.11 162.96 156.03 157.29 151.58 152.62 C 162.07 152.99 172.53 154.07 183.02 154.56 Z" />
<path fill="#672a35" opacity="1.00" d=" M 309.35 122.52 C 311.33 133.19 313.24 143.87 314.98 154.58 C 325.47 153.88 335.95 153.25 346.44 152.59 C 342.02 157.28 338.91 162.91 335.43 168.28 C 325.54 166.90 315.51 167.98 305.57 167.62 C 303.91 158.01 303.74 148.15 301.41 138.66 C 303.78 133.15 306.74 127.92 309.35 122.52 Z" />
<path fill="#672a35" opacity="1.00" d=" M 196.34 178.62 C 198.06 170.02 199.77 161.40 201.91 152.89 C 204.57 159.15 206.86 165.56 209.63 171.78 C 207.16 177.91 205.93 184.45 203.43 190.57 C 195.40 190.45 187.37 190.37 179.34 190.60 C 176.09 186.62 172.65 182.80 169.56 178.70 C 175.40 178.75 181.26 178.39 187.07 179.13 C 190.16 179.58 193.29 179.30 196.34 178.62 Z" />
<path fill="#672a35" opacity="1.00" d=" M 288.23 172.09 C 291.06 165.79 293.37 159.27 296.08 152.92 C 298.22 161.41 299.92 170.01 301.66 178.60 C 307.06 179.79 312.55 178.61 318.00 178.94 C 321.50 179.10 325.01 178.97 328.50 178.62 C 325.41 182.76 321.94 186.61 318.67 190.60 C 310.64 190.37 302.61 190.44 294.59 190.57 C 292.00 184.56 291.09 177.99 288.23 172.09 Z" />
<path fill="#672a35" opacity="1.00" d=" M 217.94 185.88 C 222.57 187.28 226.62 190.00 230.94 192.11 C 236.89 195.46 243.02 198.46 249.02 201.74 C 255.46 198.23 262.07 195.03 268.47 191.43 C 272.28 189.47 275.94 187.12 280.08 185.89 C 269.96 200.70 259.53 215.32 249.00 229.85 C 241.19 219.30 233.78 208.45 226.14 197.78 C 223.44 193.79 220.35 190.07 217.94 185.88 Z" />
<path fill="#672a35" opacity="1.00" d=" M 51.04 261.94 C 67.21 276.71 82.33 293.26 92.47 312.82 C 89.34 321.05 85.99 329.19 83.08 337.50 C 92.61 343.82 101.95 352.09 105.39 363.38 C 101.08 360.09 97.08 356.33 92.28 353.74 C 86.94 350.51 80.30 350.42 75.16 346.78 C 72.28 344.95 68.92 341.99 69.85 338.17 C 71.55 330.90 72.59 323.31 71.23 315.89 C 69.45 307.03 62.46 300.17 54.71 296.09 C 52.32 284.88 50.85 273.42 51.04 261.94 Z" />
<path fill="#672a35" opacity="1.00" d=" M 403.66 312.79 C 414.00 292.82 430.17 276.58 446.96 261.94 C 447.09 273.44 444.99 284.87 441.54 295.82 C 440.55 296.47 439.57 297.14 438.58 297.80 C 433.60 300.97 429.24 305.31 426.66 310.66 C 423.50 317.28 424.07 324.94 425.01 332.01 C 425.34 335.50 427.63 339.33 425.42 342.62 C 422.07 347.36 416.33 349.52 410.91 350.86 C 402.98 352.83 396.96 358.60 390.63 363.38 C 394.38 352.25 403.44 343.71 413.11 337.51 C 410.16 329.20 406.85 321.01 403.66 312.79 Z" />
<path fill="#672a35" opacity="1.00" d=" M 376.04 379.60 C 389.70 391.01 402.45 403.72 413.04 418.07 C 412.74 411.74 410.84 405.65 407.99 400.02 C 412.12 404.05 416.00 408.36 420.44 412.07 C 423.63 416.04 427.19 419.82 431.61 422.44 C 444.19 429.85 458.32 435.13 473.05 435.54 C 477.09 435.47 480.75 437.96 482.76 441.37 C 487.14 448.41 488.01 456.93 488.44 465.03 C 488.81 470.05 487.52 475.30 484.12 479.12 C 478.74 485.39 470.62 488.13 462.84 490.03 C 466.74 486.55 470.34 482.32 471.30 477.02 C 472.91 468.62 468.97 459.88 462.62 454.43 C 459.54 451.44 454.42 451.73 451.03 454.03 C 448.34 455.77 445.05 455.98 442.21 457.40 C 443.34 460.15 445.02 462.89 444.88 465.99 C 444.75 468.82 443.10 471.26 441.65 473.59 C 437.31 480.03 432.11 485.85 426.74 491.43 C 428.21 486.36 430.41 481.27 430.12 475.90 C 428.62 470.44 424.50 466.21 420.44 462.47 C 416.77 463.45 413.08 464.35 409.38 465.18 C 409.10 474.42 407.02 483.70 402.16 491.65 C 402.29 486.85 403.44 481.84 401.94 477.16 C 399.67 472.73 396.59 468.75 393.48 464.88 C 387.79 458.52 384.40 450.55 379.12 443.88 C 365.52 425.85 350.17 408.91 339.88 388.63 C 348.74 391.91 357.47 395.61 365.67 400.34 C 373.60 404.16 381.06 408.83 388.14 414.05 C 386.26 401.95 382.06 390.25 376.04 379.60 Z" />
<path fill="#672a35" opacity="1.00" d=" M 105.61 392.62 C 110.08 388.29 114.49 383.85 119.55 380.21 C 113.96 390.85 109.84 402.28 107.82 414.15 C 112.65 410.80 117.38 407.28 122.56 404.47 C 133.51 398.67 144.42 392.64 156.22 388.69 C 149.99 400.79 142.06 411.88 133.66 422.57 C 125.45 433.40 116.25 443.55 109.38 455.35 C 107.64 458.45 105.66 461.42 103.26 464.06 C 100.41 467.35 97.95 470.96 95.57 474.61 C 91.99 479.51 93.85 485.88 93.88 491.47 C 89.01 483.61 86.97 474.37 86.87 465.20 C 83.00 464.50 79.07 462.66 75.19 463.00 C 71.17 466.42 67.44 470.73 66.02 475.91 C 65.63 481.50 68.01 486.82 69.83 492.00 L 69.38 492.00 C 63.47 484.42 56.08 477.80 51.91 468.99 C 49.95 465.07 52.35 460.95 53.90 457.38 C 51.03 456.04 47.76 455.73 45.06 454.02 C 41.66 451.73 36.51 451.44 33.45 454.47 C 26.69 460.31 22.56 470.01 25.27 478.85 C 26.59 483.43 29.89 487.04 33.42 490.10 C 26.29 488.17 18.82 485.95 13.40 480.64 C 9.41 476.93 7.31 471.44 7.63 466.02 C 7.99 458.04 8.71 449.72 12.61 442.57 C 14.50 439.07 17.77 435.84 21.96 435.63 C 30.94 435.18 39.98 433.73 48.34 430.28 C 55.37 427.39 62.52 424.39 68.50 419.60 C 72.53 415.94 76.43 412.10 79.88 407.89 C 82.71 405.39 85.46 402.80 88.03 400.04 C 85.31 405.72 83.27 411.78 83.10 418.13 C 89.62 408.81 97.49 400.54 105.61 392.62 Z" />
</g>
<g id="#b58d33ff">
<path fill="#b58d33" opacity="1.00" d=" M 51.15 21.92 C 50.07 15.76 48.90 9.61 47.57 3.50 C 51.69 4.81 55.83 6.07 60.00 7.20 C 57.25 12.22 53.96 16.92 51.15 21.92 Z" />
<path fill="#b58d33" opacity="1.00" d=" M 437.64 7.33 C 441.91 6.14 446.17 4.89 450.40 3.54 C 449.22 9.68 447.93 15.80 446.75 21.94 C 444.00 16.89 440.96 12.02 437.64 7.33 Z" />
<path fill="#b58d33" opacity="1.00" d=" M 278.97 7.86 C 279.20 15.26 278.11 22.60 277.95 29.99 C 277.07 43.74 276.34 57.50 275.49 71.25 C 286.87 53.77 299.43 36.76 314.98 22.74 C 314.05 25.81 313.04 28.85 312.00 31.88 C 313.02 31.31 314.04 30.74 315.08 30.18 C 316.50 39.98 319.64 49.42 321.90 59.03 C 317.36 54.58 313.18 49.75 308.25 45.73 C 307.01 49.27 305.38 52.95 305.99 56.79 C 306.83 62.16 307.89 67.50 308.85 72.85 C 306.66 71.03 304.37 69.34 302.01 67.74 C 299.70 75.65 298.08 83.74 296.09 91.73 C 293.85 100.49 292.86 109.51 291.18 118.38 C 287.65 140.73 283.70 163.01 280.42 185.39 C 283.37 181.17 285.77 176.60 288.23 172.09 C 291.09 177.99 292.00 184.56 294.59 190.57 C 302.61 190.44 310.64 190.37 318.67 190.60 C 316.14 193.63 313.68 196.73 311.23 199.82 C 313.00 203.41 314.78 206.99 316.68 210.51 L 315.53 211.62 C 316.42 211.10 317.31 210.56 318.17 209.99 C 322.61 209.66 326.45 207.24 330.49 205.63 C 338.96 202.08 347.32 198.26 355.87 194.89 C 355.14 201.52 353.56 208.01 352.52 214.59 C 340.70 219.67 328.78 224.50 316.99 229.65 C 314.33 224.62 312.07 219.39 309.32 214.41 C 303.16 218.62 296.43 221.97 290.56 226.60 C 283.91 231.72 276.00 234.96 269.54 240.33 C 269.55 242.52 269.70 244.77 269.08 246.90 C 267.06 253.42 267.04 260.30 266.05 267.00 C 265.34 273.15 264.80 280.41 259.45 284.47 C 255.26 288.11 249.36 287.92 244.19 287.27 C 239.26 286.26 235.22 282.23 233.81 277.45 C 230.84 267.52 231.88 256.86 228.91 246.93 C 227.96 244.21 229.46 240.34 226.50 238.62 C 220.44 234.57 213.95 231.18 207.98 227.00 C 201.95 222.15 195.02 218.65 188.64 214.33 C 185.99 219.37 183.68 224.59 181.04 229.63 C 169.26 224.43 157.32 219.61 145.47 214.56 C 144.41 207.99 142.90 201.49 142.12 194.88 C 149.80 197.79 157.23 201.31 164.82 204.44 C 170.29 206.61 175.48 209.53 181.22 210.98 C 183.03 207.24 184.93 203.54 186.77 199.82 C 184.33 196.71 181.87 193.63 179.34 190.60 C 187.37 190.37 195.40 190.45 203.43 190.57 C 205.93 184.45 207.16 177.91 209.63 171.78 C 212.10 176.44 214.63 181.11 217.62 185.47 C 213.84 159.54 209.46 133.69 205.36 107.80 C 204.69 102.72 204.30 97.58 203.15 92.57 C 201.60 84.01 200.19 75.42 198.40 66.90 C 194.68 67.75 192.02 70.60 189.16 72.91 C 190.61 65.89 191.39 58.76 193.04 51.79 C 193.81 49.09 193.02 46.33 192.51 43.67 C 186.10 47.63 181.65 53.99 176.12 59.02 C 178.30 49.36 181.53 39.93 182.94 30.11 C 185.12 31.27 187.17 32.65 189.17 34.10 C 187.83 30.94 186.41 27.82 185.01 24.69 C 198.96 37.76 211.15 52.81 220.69 69.39 C 220.68 49.46 220.56 29.52 220.75 9.59 C 231.72 28.71 241.78 48.49 249.03 69.35 C 257.76 48.29 267.25 27.46 278.97 7.86 M 217.94 185.88 C 220.35 190.07 223.44 193.79 226.14 197.78 C 233.78 208.45 241.19 219.30 249.00 229.85 C 259.53 215.32 269.96 200.70 280.08 185.89 C 275.94 187.12 272.28 189.47 268.47 191.43 C 262.07 195.03 255.46 198.23 249.02 201.74 C 243.02 198.46 236.89 195.46 230.94 192.11 C 226.62 190.00 222.57 187.28 217.94 185.88 Z" />
<path fill="#b58d33" opacity="1.00" d=" M 70.38 38.90 C 70.66 29.64 70.31 20.38 70.59 11.12 C 75.93 13.52 81.27 15.91 86.50 18.56 C 81.11 25.32 75.28 31.76 70.38 38.90 Z" />
<path fill="#b58d33" opacity="1.00" d=" M 411.53 18.58 C 416.73 15.92 422.07 13.56 427.38 11.16 C 427.73 20.42 427.30 29.68 427.64 38.94 C 422.81 31.74 416.78 25.47 411.53 18.58 Z" />
<path fill="#b58d33" opacity="1.00" d=" M 158.82 19.04 C 164.29 21.51 169.78 23.94 175.27 26.37 C 170.58 34.70 166.32 43.29 162.45 52.04 C 162.58 45.37 162.65 38.71 162.44 32.04 C 159.33 32.26 156.25 32.78 153.25 33.62 C 155.37 28.86 157.17 23.97 158.82 19.04 Z" />
<path fill="#b58d33" opacity="1.00" d=" M 322.70 26.41 C 328.22 24.00 333.72 21.57 339.19 19.07 C 340.86 23.99 342.65 28.88 344.77 33.63 C 341.75 32.77 338.64 32.25 335.51 32.05 C 335.40 38.71 335.37 45.38 335.58 52.04 C 331.64 43.33 327.47 34.69 322.70 26.41 Z" />
<path fill="#b58d33" opacity="1.00" d=" M 20.84 101.77 C 33.63 85.88 41.85 66.76 47.17 47.18 C 48.47 57.77 50.15 68.33 50.80 78.98 C 51.27 86.74 47.88 94.49 49.90 102.18 C 51.24 107.15 56.96 108.00 60.61 110.69 C 63.47 114.33 60.38 118.53 59.12 122.13 C 51.82 140.83 45.97 160.05 39.47 179.03 C 47.68 191.54 55.54 204.29 64.10 216.56 C 64.58 207.98 64.69 199.08 68.18 191.07 C 69.20 188.60 71.09 186.66 72.92 184.78 C 72.74 190.49 71.25 196.21 72.30 201.91 C 73.17 208.48 76.08 214.63 80.18 219.79 C 88.34 230.58 99.95 238.10 108.33 248.68 C 116.02 258.62 118.05 271.82 115.53 283.95 C 120.05 278.61 124.32 272.74 126.41 265.98 C 128.08 258.90 119.67 254.86 119.28 248.09 C 118.18 237.00 124.28 226.88 129.76 217.73 C 128.76 228.21 127.46 238.85 128.70 249.35 C 132.31 261.52 143.03 269.70 153.09 276.55 C 148.15 286.81 141.94 296.43 136.46 306.41 C 132.85 311.86 130.95 318.14 128.47 324.13 C 134.36 337.27 140.55 350.39 148.61 362.37 C 154.44 370.07 161.05 377.17 167.74 384.14 C 168.54 369.76 172.93 354.16 184.76 344.95 C 181.82 361.50 178.51 378.17 179.15 395.06 C 178.94 397.71 180.96 399.61 182.51 401.47 C 199.10 420.62 215.12 440.27 231.90 459.24 C 233.44 454.91 235.15 450.62 237.43 446.62 C 240.95 454.07 244.03 461.78 248.72 468.62 C 252.64 460.67 254.75 451.67 260.56 444.77 C 262.53 449.43 263.85 454.35 264.34 459.40 C 281.19 440.87 297.92 422.22 314.76 403.69 C 315.60 402.61 316.79 401.58 316.79 400.10 C 317.32 380.99 316.56 361.61 311.43 343.09 C 322.67 352.96 328.06 367.80 330.25 382.26 C 345.52 367.06 357.65 349.01 368.16 330.28 C 369.24 328.30 370.44 326.33 370.98 324.12 C 369.03 320.87 366.35 317.99 365.72 314.11 C 359.19 301.38 351.17 289.40 344.90 276.53 C 349.42 273.65 353.71 270.40 357.63 266.73 C 363.16 261.40 368.67 254.99 369.65 247.08 C 370.11 237.27 369.29 227.45 368.24 217.70 C 373.68 226.87 379.81 236.99 378.71 248.09 C 378.31 254.55 370.86 258.33 371.38 264.92 C 373.10 272.19 377.80 278.35 382.49 284.00 C 380.85 274.90 380.89 265.22 384.96 256.72 C 389.36 246.26 398.72 239.36 406.66 231.73 C 414.90 223.92 423.50 215.03 425.43 203.36 C 426.88 197.21 425.33 190.99 425.08 184.80 C 426.91 186.66 428.78 188.59 429.80 191.04 C 433.29 199.02 433.38 207.90 433.92 216.44 C 442.54 204.27 450.31 191.50 458.53 179.05 C 452.61 161.54 447.02 143.92 440.63 126.57 C 439.29 122.68 437.27 119.03 436.24 115.03 C 435.72 113.45 436.71 112.02 437.38 110.68 C 441.03 108.01 446.74 107.16 448.08 102.20 C 450.12 94.51 446.73 86.77 447.19 79.02 C 447.82 68.33 449.56 57.75 450.81 47.12 C 456.12 66.72 464.35 85.87 477.16 101.78 C 472.13 108.48 467.22 116.27 467.65 124.98 C 468.80 132.38 473.28 138.67 476.84 145.11 C 483.45 156.03 490.45 166.74 498.00 177.04 L 498.00 177.09 C 490.51 184.90 483.05 192.75 476.17 201.11 C 471.13 207.21 466.10 213.41 462.38 220.43 C 457.86 227.74 461.95 236.60 465.76 243.28 C 459.03 249.01 452.76 255.27 446.96 261.94 C 430.17 276.58 414.00 292.82 403.66 312.79 C 406.85 321.01 410.16 329.20 413.11 337.51 C 403.44 343.71 394.38 352.25 390.63 363.38 C 396.96 358.60 402.98 352.83 410.91 350.86 C 416.33 349.52 422.07 347.36 425.42 342.62 C 427.63 339.33 425.34 335.50 425.01 332.01 C 424.07 324.94 423.50 317.28 426.66 310.66 C 429.24 305.31 433.60 300.97 438.58 297.80 C 447.40 295.27 454.37 288.60 458.51 280.56 C 463.45 271.47 465.23 261.11 466.00 250.91 C 472.90 266.91 474.62 284.83 472.77 302.05 C 472.24 307.92 466.90 311.25 463.29 315.25 C 457.06 321.99 450.87 329.58 449.22 338.88 C 447.81 346.13 449.90 353.45 452.66 360.12 C 448.16 359.65 443.27 359.35 439.67 356.29 C 436.25 353.54 431.47 351.60 427.16 352.97 C 420.12 357.54 414.38 364.32 411.10 372.06 C 408.66 377.74 409.04 384.16 410.75 389.99 C 412.98 397.74 416.59 405.01 420.44 412.07 C 416.00 408.36 412.12 404.05 407.99 400.02 C 410.84 405.65 412.74 411.74 413.04 418.07 C 402.45 403.72 389.70 391.01 376.04 379.60 C 382.06 390.25 386.26 401.95 388.14 414.05 C 381.06 408.83 373.60 404.16 365.67 400.34 C 357.47 395.61 348.74 391.91 339.88 388.63 C 350.17 408.91 365.52 425.85 379.12 443.88 C 384.40 450.55 387.79 458.52 393.48 464.88 C 388.79 468.36 383.96 471.62 379.18 474.97 C 373.86 470.29 368.24 464.99 361.01 463.73 C 356.29 463.79 353.40 468.27 349.84 470.77 C 337.18 481.50 320.06 484.25 303.97 484.53 C 308.61 481.94 312.95 477.67 313.14 472.03 C 313.49 468.69 312.18 463.80 308.03 463.87 C 302.20 464.42 300.10 471.09 294.90 472.94 C 288.31 475.64 281.03 476.06 273.99 475.95 C 270.29 476.01 266.47 474.53 262.89 476.04 C 256.18 478.38 248.87 479.64 241.86 477.92 C 237.50 477.26 233.41 474.52 228.89 475.55 C 220.26 476.43 211.21 476.14 203.05 472.92 C 197.88 471.05 195.78 464.42 189.96 463.87 C 185.80 463.79 184.50 468.69 184.86 472.03 C 185.03 477.67 189.39 481.93 194.02 484.52 C 182.69 484.19 171.12 483.06 160.64 478.44 C 154.60 475.87 149.25 471.96 144.40 467.58 C 142.05 465.63 139.34 462.97 135.98 463.88 C 129.23 465.58 123.89 470.45 118.82 474.97 C 113.62 471.35 108.42 467.74 103.26 464.06 C 105.66 461.42 107.64 458.45 109.38 455.35 C 116.25 443.55 125.45 433.40 133.66 422.57 C 142.06 411.88 149.99 400.79 156.22 388.69 C 144.42 392.64 133.51 398.67 122.56 404.47 C 117.38 407.28 112.65 410.80 107.82 414.15 C 109.84 402.28 113.96 390.85 119.55 380.21 C 114.49 383.85 110.08 388.29 105.61 392.62 C 97.49 400.54 89.62 408.81 83.10 418.13 C 83.27 411.78 85.31 405.72 88.03 400.04 C 85.46 402.80 82.71 405.39 79.88 407.89 C 84.08 399.11 88.69 389.98 88.63 380.02 C 88.00 369.43 80.74 360.56 72.76 354.19 C 70.24 351.74 66.54 352.44 63.50 353.31 C 59.90 354.43 57.45 357.68 53.83 358.74 C 51.08 359.62 48.18 359.77 45.34 360.12 C 48.53 352.59 50.57 344.06 48.11 336.02 C 44.85 325.17 36.53 316.95 28.69 309.21 C 26.17 306.81 25.16 303.34 24.95 299.96 C 23.64 283.41 25.29 266.28 31.99 250.95 C 32.92 264.16 35.90 278.01 44.77 288.29 C 47.50 291.55 50.96 294.10 54.71 296.09 C 62.46 300.17 69.45 307.03 71.23 315.89 C 72.59 323.31 71.55 330.90 69.85 338.17 C 68.92 341.99 72.28 344.95 75.16 346.78 C 80.30 350.42 86.94 350.51 92.28 353.74 C 97.08 356.33 101.08 360.09 105.39 363.38 C 101.95 352.09 92.61 343.82 83.08 337.50 C 85.99 329.19 89.34 321.05 92.47 312.82 C 82.33 293.26 67.21 276.71 51.04 261.94 C 45.23 255.28 38.98 249.01 32.24 243.28 C 35.28 238.36 37.36 232.76 37.73 226.96 C 37.35 222.41 34.55 218.54 32.23 214.75 C 24.88 203.97 16.11 194.25 7.26 184.69 C 4.96 182.22 2.70 179.68 0.00 177.63 L 0.00 176.42 C 1.24 175.22 2.37 173.92 3.35 172.51 C 11.39 160.70 19.42 148.83 26.18 136.23 C 28.39 131.83 30.89 127.14 30.33 122.05 C 29.54 114.45 25.34 107.75 20.84 101.77 Z" />
<path fill="#b58d33" opacity="1.00" d=" M 141.44 73.61 C 142.87 74.47 144.30 75.32 145.71 76.20 C 154.53 81.86 163.29 87.62 172.12 93.26 C 172.60 91.73 173.06 90.20 173.54 88.67 C 178.61 99.93 183.54 111.25 188.63 122.50 C 186.64 133.16 184.81 143.86 183.02 154.56 C 172.53 154.07 162.07 152.99 151.58 152.62 C 149.02 148.59 146.61 144.48 143.97 140.50 C 144.89 140.26 145.81 140.02 146.73 139.78 C 138.28 135.33 129.81 130.93 121.54 126.16 C 122.24 118.77 119.96 111.43 120.77 104.11 C 124.14 98.64 128.22 93.58 132.37 88.67 C 134.05 98.41 135.14 108.27 135.97 118.12 C 146.56 122.77 157.43 126.74 167.95 131.53 C 168.37 128.60 168.90 125.69 169.52 122.80 C 161.14 119.20 152.86 115.38 144.67 111.39 C 143.85 105.32 143.42 99.21 142.73 93.12 C 142.25 86.62 141.03 80.16 141.44 73.61 Z" />
<path fill="#b58d33" opacity="1.00" d=" M 352.29 76.24 C 353.70 75.36 355.12 74.50 356.55 73.64 C 356.60 76.80 356.68 79.97 356.32 83.12 C 355.15 92.52 354.54 101.98 353.32 111.38 C 345.19 115.49 336.87 119.24 328.49 122.82 C 329.09 125.71 329.59 128.62 329.98 131.55 C 340.57 126.86 351.44 122.83 362.02 118.12 C 362.86 108.28 363.95 98.42 365.61 88.68 C 369.82 93.57 373.91 98.67 377.26 104.18 C 378.01 111.48 375.77 118.78 376.46 126.13 C 368.23 130.92 359.86 135.48 351.30 139.61 C 352.22 139.88 353.14 140.14 354.08 140.40 C 351.46 144.42 349.00 148.54 346.44 152.59 C 335.95 153.25 325.47 153.88 314.98 154.58 C 313.24 143.87 311.33 133.19 309.35 122.52 C 314.43 111.29 319.40 100.01 324.40 88.74 C 324.90 90.25 325.41 91.76 325.92 93.27 C 334.72 87.61 343.50 81.92 352.29 76.24 Z" />
<path fill="#b58d33" opacity="1.00" d=" M 104.55 126.52 C 107.55 122.74 110.08 118.57 113.52 115.16 C 113.71 121.22 113.59 127.28 113.57 133.34 C 119.19 136.02 124.92 138.48 130.58 141.07 C 131.82 141.63 133.05 142.35 133.84 143.50 C 130.14 144.60 126.47 145.79 122.84 147.10 C 124.01 149.54 125.13 151.99 126.18 154.49 C 121.81 153.08 118.07 150.40 114.07 148.25 C 108.06 144.97 102.13 141.54 96.15 138.19 C 98.56 134.03 101.76 130.42 104.55 126.52 Z" />
<path fill="#b58d33" opacity="1.00" d=" M 384.48 115.14 C 387.66 118.23 389.96 122.05 392.70 125.51 C 395.78 129.75 399.18 133.77 401.96 138.23 C 393.01 143.17 384.11 148.19 375.22 153.24 C 374.06 153.89 372.85 154.39 371.57 154.76 C 372.71 152.17 373.98 149.63 375.20 147.08 C 371.58 145.75 367.89 144.60 364.21 143.42 C 366.38 141.17 369.41 140.23 372.19 138.97 C 376.32 137.21 380.39 135.32 384.43 133.34 C 384.40 127.27 384.30 121.20 384.48 115.14 Z" />
<path fill="#b58d33" opacity="1.00" d=" M 192.43 167.61 C 194.02 157.99 194.39 148.16 196.57 138.64 C 198.38 143.38 200.04 148.17 201.91 152.89 C 199.77 161.40 198.06 170.02 196.34 178.62 C 193.29 179.30 190.16 179.58 187.07 179.13 C 181.26 178.39 175.40 178.75 169.56 178.70 C 167.20 175.27 164.96 171.77 162.61 168.33 C 172.48 166.85 182.50 168.00 192.43 167.61 Z" />
<path fill="#b58d33" opacity="1.00" d=" M 301.41 138.66 C 303.74 148.15 303.91 158.01 305.57 167.62 C 315.51 167.98 325.54 166.90 335.43 168.28 C 333.09 171.71 330.84 175.20 328.50 178.62 C 325.01 178.97 321.50 179.10 318.00 178.94 C 312.55 178.61 307.06 179.79 301.66 178.60 C 299.92 170.01 298.22 161.41 296.08 152.92 C 297.94 148.20 299.62 143.41 301.41 138.66 Z" />
<path fill="#b58d33" opacity="1.00" d=" M 98.20 152.14 C 108.00 156.15 117.81 160.16 127.61 164.19 C 128.96 164.68 130.19 165.63 130.60 167.06 C 132.48 172.36 134.20 177.72 135.89 183.08 C 127.65 180.76 119.87 177.03 111.78 174.22 C 107.44 166.75 101.98 159.90 98.20 152.14 Z" />
<path fill="#b58d33" opacity="1.00" d=" M 370.49 164.17 C 380.30 160.27 390.02 156.14 399.80 152.17 C 397.35 157.86 393.22 162.62 390.16 167.98 C 388.29 170.50 387.31 174.24 383.94 175.14 C 376.64 177.71 369.60 181.08 362.11 183.10 C 363.79 177.73 365.51 172.36 367.40 167.06 C 367.82 165.59 369.09 164.64 370.49 164.17 Z" />
<path fill="#b58d33" opacity="1.00" d=" M 84.97 197.90 C 93.19 192.04 101.50 186.31 109.86 180.65 C 116.34 184.03 122.72 187.62 129.16 191.07 L 130.08 192.31 C 115.06 194.32 100.03 196.25 84.97 197.90 Z" />
<path fill="#b58d33" opacity="1.00" d=" M 371.75 189.49 C 377.44 186.70 382.70 183.06 388.61 180.74 C 396.60 186.60 404.93 191.98 412.96 197.79 C 397.89 196.31 382.90 194.12 367.87 192.31 C 368.71 190.84 370.34 190.24 371.75 189.49 Z" />
<path fill="#b58d33" opacity="1.00" d=" M 169.67 250.70 C 175.58 251.57 181.08 254.07 186.43 256.62 C 203.08 264.81 217.20 278.78 224.34 296.00 C 221.15 301.28 215.48 304.77 209.99 307.37 C 209.65 307.11 208.99 306.61 208.66 306.36 C 197.93 286.35 184.89 267.56 169.67 250.70 Z" />
<path fill="#b58d33" opacity="1.00" d=" M 308.95 259.88 C 315.04 256.82 321.33 253.49 328.21 252.80 C 314.83 267.52 303.18 283.79 293.33 301.08 C 291.68 303.95 290.30 307.01 288.20 309.61 C 282.63 306.58 277.24 303.07 273.24 298.06 C 280.63 281.91 293.19 268.15 308.95 259.88 Z" />
<path fill="#b58d33" opacity="1.00" d=" M 226.22 294.28 C 229.51 291.62 233.78 290.60 237.90 290.08 C 236.11 297.10 234.44 304.17 233.99 311.43 C 229.53 306.93 225.99 300.76 226.22 294.28 Z" />
<path fill="#b58d33" opacity="1.00" d=" M 260.12 290.13 C 264.36 290.43 268.39 291.93 271.96 294.20 C 271.76 300.78 268.53 306.90 264.02 311.57 C 263.49 304.30 261.90 297.18 260.12 290.13 Z" />
</g>
</svg>
