<?xml version="1.0" encoding="UTF-8" ?>
<!DOCTYPE svg PUBLIC "-//W3C//DTD SVG 1.1//EN" "http://www.w3.org/Graphics/SVG/1.1/DTD/svg11.dtd">
<svg width="511pt" height="485pt" viewBox="0 0 511 485" version="1.1" xmlns="http://www.w3.org/2000/svg">
<g id="#1d221bff">
<path fill="#1d221b" opacity="1.00" d=" M 330.35 0.00 L 382.37 0.00 C 404.29 2.01 426.42 4.08 447.55 10.60 C 464.27 15.70 480.56 24.62 490.92 39.08 C 503.26 56.10 507.31 77.42 509.40 97.91 C 510.34 107.06 510.58 116.26 511.00 125.45 L 511.00 280.70 C 510.52 310.45 508.98 340.17 507.95 369.90 C 497.31 365.87 486.63 361.97 475.97 358.01 C 471.55 356.32 466.98 355.00 462.81 352.74 C 478.18 348.40 493.56 344.10 508.96 339.84 C 509.20 337.25 509.33 334.66 509.35 332.07 C 493.82 326.50 478.27 320.94 462.73 315.37 C 465.71 312.60 469.62 311.26 473.06 309.21 C 484.37 302.91 495.96 297.10 507.11 290.52 C 490.19 285.55 473.32 280.41 456.34 275.65 C 456.34 274.27 456.34 272.89 456.35 271.52 C 473.39 263.03 490.30 254.26 507.12 245.32 C 490.19 238.30 473.26 231.27 456.19 224.62 C 455.42 211.26 455.35 197.84 453.91 184.54 C 454.21 170.67 452.76 156.83 452.66 142.96 C 452.94 138.60 450.89 133.77 446.30 132.65 C 439.70 131.35 432.90 132.46 426.22 131.99 C 427.95 110.68 430.10 89.41 431.72 68.09 C 416.59 76.09 401.52 84.21 386.60 92.57 C 372.60 80.57 359.09 67.97 346.57 54.42 C 333.33 39.87 317.41 27.75 299.85 18.89 C 299.77 48.59 299.84 78.29 299.82 107.99 C 299.76 115.59 300.17 123.19 300.60 130.78 C 279.32 137.02 261.65 150.92 244.00 163.76 C 250.29 164.57 256.65 164.32 262.98 164.44 C 277.19 164.66 291.44 164.26 305.55 162.47 C 306.54 163.41 307.66 164.38 309.13 164.33 C 316.70 164.94 324.29 165.40 331.86 166.04 C 328.11 185.23 323.40 204.21 318.19 223.05 C 304.14 222.15 290.04 222.24 275.96 222.24 C 261.95 221.50 247.90 221.17 233.87 221.26 C 234.72 225.13 236.63 228.71 239.60 231.36 C 247.57 238.86 257.48 243.81 267.13 248.77 C 279.67 255.11 292.79 260.18 305.56 266.01 C 307.25 266.82 308.97 267.58 310.70 268.32 C 313.30 269.41 315.87 270.58 318.43 271.80 C 315.54 276.24 310.77 279.48 309.07 284.63 L 309.17 282.98 C 301.93 290.82 294.50 298.50 286.75 305.85 C 264.10 301.36 241.27 296.71 219.84 287.89 C 230.81 304.40 247.24 316.28 264.01 326.35 C 267.07 328.39 270.26 330.22 273.42 332.11 C 266.82 342.34 258.13 351.02 248.89 358.86 C 237.43 368.44 225.03 376.84 212.25 384.55 C 203.62 389.66 194.83 394.51 185.87 399.04 C 179.93 402.04 173.92 404.92 167.84 407.63 C 161.84 404.71 155.80 401.89 149.80 398.96 C 140.94 394.43 132.10 389.85 123.45 384.92 C 106.41 375.02 89.64 364.34 75.17 350.86 C 69.41 345.36 63.83 339.44 60.27 332.23 C 62.85 330.33 65.37 328.35 67.92 326.42 C 72.33 323.26 77.17 320.73 81.53 317.50 C 93.43 308.90 104.50 298.60 112.14 285.95 C 90.43 295.11 67.37 300.44 44.46 305.66 C 33.59 295.48 23.06 284.90 13.25 273.68 C 18.84 271.03 24.59 268.75 30.14 266.03 C 48.87 257.53 68.40 250.21 85.38 238.36 C 91.33 234.26 97.00 228.76 98.07 221.26 C 89.73 221.08 81.39 221.54 73.04 221.66 C 52.53 223.12 31.85 221.20 11.40 223.62 C 5.32 205.85 1.20 187.35 0.00 168.59 L 0.00 164.19 C 12.66 163.57 25.32 162.88 37.98 162.31 C 43.02 162.59 47.97 163.77 53.03 163.73 C 60.01 163.69 66.97 164.80 73.95 164.15 C 78.40 163.76 82.87 163.70 87.33 163.76 C 74.76 153.91 61.76 144.62 49.10 134.88 C 47.03 133.29 44.97 131.31 42.20 131.22 C 45.44 115.58 48.97 99.93 54.63 84.95 C 62.86 89.22 70.97 93.72 79.16 98.08 C 79.11 74.15 85.94 49.31 102.49 31.46 C 116.33 16.22 135.73 6.64 155.90 3.24 C 163.86 1.82 171.98 1.84 180.05 1.86 C 204.69 1.87 229.33 1.86 253.97 1.87 C 279.44 1.89 304.90 0.87 330.35 0.00 M 358.28 37.77 C 358.26 43.40 358.26 49.03 358.28 54.67 C 363.29 50.94 368.43 47.35 373.22 43.32 C 368.24 41.47 363.29 39.55 358.28 37.77 M 394.10 37.78 C 394.08 42.79 394.10 47.81 394.09 52.83 C 400.31 50.45 406.48 47.92 412.66 45.45 C 406.71 42.39 400.30 40.31 394.10 37.78 M 429.94 39.66 C 429.91 44.67 429.91 49.68 429.94 54.69 C 436.28 51.65 442.52 48.40 448.84 45.30 C 442.54 43.39 436.26 41.44 429.94 39.66 M 88.13 100.59 C 88.14 100.79 88.17 101.19 88.18 101.39 C 99.53 105.46 111.92 109.02 123.98 106.22 C 122.68 93.49 121.34 80.76 120.68 67.98 C 109.83 78.85 98.91 89.66 88.13 100.59 M 211.66 106.25 C 223.96 108.97 236.62 105.50 248.11 101.12 C 237.19 90.05 226.08 79.16 215.19 68.07 C 214.02 80.79 213.12 93.55 211.66 106.25 M 85.47 112.22 C 86.40 127.29 87.94 142.31 89.92 157.28 C 103.92 158.67 117.93 159.93 131.92 161.37 C 129.65 147.58 127.55 133.77 125.66 119.92 C 112.27 117.32 98.89 114.67 85.47 112.22 M 209.99 119.93 C 208.11 133.77 205.97 147.56 203.76 161.34 C 217.74 160.15 231.70 158.63 245.68 157.35 C 247.76 142.36 249.21 127.30 250.19 112.20 C 236.79 114.79 223.40 117.38 209.99 119.93 M 91.80 168.86 C 94.13 183.99 96.86 199.07 100.11 214.04 C 114.97 216.48 129.66 220.26 143.58 226.06 C 140.39 208.40 137.23 190.73 134.03 173.07 C 119.96 171.58 105.88 170.17 91.80 168.86 M 201.68 173.02 C 198.37 190.74 195.24 208.49 192.07 226.23 C 205.91 220.10 220.77 216.63 235.62 213.97 C 238.72 199.00 241.56 183.97 243.84 168.85 C 229.79 170.25 215.74 171.74 201.68 173.02 M 104.62 234.54 C 108.13 249.15 112.26 263.61 116.78 277.95 C 129.49 279.18 142.08 282.22 153.77 287.42 C 151.60 272.10 148.89 256.87 146.25 241.63 C 132.81 237.34 118.73 234.85 104.62 234.54 M 189.43 241.59 C 186.75 256.86 184.04 272.13 181.88 287.48 C 193.57 282.26 206.16 279.17 218.89 277.95 C 223.41 263.59 227.47 249.08 231.11 234.47 C 216.98 234.91 202.92 237.41 189.43 241.59 M 121.99 292.89 C 127.76 309.41 134.05 325.75 141.22 341.72 C 139.31 347.05 137.99 352.56 136.14 357.90 C 139.37 355.81 142.38 353.41 145.69 351.45 C 146.51 353.21 147.37 354.96 148.24 356.71 C 144.95 357.71 142.11 361.63 144.24 364.92 C 145.84 368.33 150.33 368.14 153.12 366.41 C 155.93 371.92 158.85 377.38 162.07 382.66 C 161.40 354.33 158.76 326.08 155.23 297.98 C 144.51 294.54 133.20 293.24 121.99 292.89 M 180.37 298.07 C 176.86 326.29 174.30 354.65 173.49 383.09 C 176.56 377.55 179.71 372.07 182.54 366.40 C 184.85 367.66 188.24 368.53 190.23 366.24 C 192.41 364.67 191.74 361.67 191.39 359.41 C 190.48 358.01 188.79 357.46 187.44 356.63 C 188.32 354.88 189.18 353.12 190.00 351.34 C 193.26 353.46 196.43 355.70 199.58 357.98 C 197.59 352.67 196.41 347.10 194.42 341.79 C 201.55 325.79 207.91 309.45 213.65 292.90 C 202.43 293.28 191.05 294.46 180.37 298.07 Z" />
<path fill="#1d221b" opacity="1.00" d=" M 305.46 28.30 C 332.48 53.47 359.58 78.57 386.51 103.83 C 372.09 118.92 357.66 134.01 343.20 149.07 C 341.27 130.19 339.43 111.31 337.52 92.43 C 343.79 97.52 350.20 102.44 356.37 107.66 C 352.56 110.72 348.83 113.87 345.09 117.01 C 346.33 119.53 347.58 122.04 348.86 124.55 C 353.74 120.21 358.76 116.02 363.55 111.61 C 364.07 109.42 364.80 105.98 362.53 104.48 C 352.20 96.06 341.98 87.51 331.64 79.10 C 329.96 82.46 330.10 86.30 329.99 89.95 C 329.94 112.82 330.06 135.69 329.93 158.57 C 322.41 158.50 314.88 158.53 307.36 158.54 C 306.72 115.13 306.11 71.71 305.46 28.30 M 313.01 49.02 C 313.03 54.70 313.00 60.37 313.03 66.05 C 317.42 63.57 321.78 61.06 326.16 58.56 C 321.89 55.23 317.37 52.24 313.01 49.02 M 313.04 84.92 C 313.00 89.95 313.02 94.98 313.03 100.01 C 316.77 96.84 320.64 93.82 324.26 90.51 C 320.51 88.66 316.79 86.77 313.04 84.92 M 313.03 124.58 C 313.00 128.97 313.01 133.36 313.03 137.75 C 316.76 135.23 320.62 132.89 324.20 130.16 C 320.50 128.26 316.78 126.39 313.03 124.58 Z" />
<path fill="#1d221b" opacity="1.00" d=" M 339.19 166.15 C 347.46 157.37 355.64 148.50 363.90 139.71 C 363.32 160.57 362.63 181.43 362.04 202.29 C 356.66 208.09 352.16 214.63 346.97 220.59 C 341.73 214.60 337.23 208.00 331.79 202.19 C 333.67 191.44 335.39 180.66 337.18 169.90 C 337.29 168.41 338.18 167.19 339.19 166.15 Z" />
<path fill="#1d221b" opacity="1.00" d=" M 391.50 168.73 C 400.66 167.87 409.88 167.94 419.07 168.03 C 427.27 168.24 435.89 171.49 440.56 178.56 C 446.98 188.01 446.81 199.98 446.89 210.95 C 446.85 233.76 446.97 256.57 446.83 279.38 C 432.20 279.81 417.58 280.97 402.95 281.10 C 399.80 281.16 397.66 277.99 397.89 275.06 C 397.82 251.96 397.92 228.85 397.84 205.74 C 407.26 204.42 416.69 203.17 426.13 201.95 C 426.15 219.55 426.19 237.14 426.11 254.74 C 422.35 254.73 418.60 254.73 414.84 254.73 C 414.75 244.50 414.99 234.27 414.73 224.05 C 414.67 219.76 407.41 219.78 407.39 224.08 C 407.17 235.05 407.32 246.03 407.32 257.00 C 407.10 261.05 409.67 265.47 413.97 265.95 C 418.23 266.09 422.57 266.38 426.79 265.70 C 431.95 263.97 433.45 257.85 433.66 253.01 C 433.72 238.98 433.70 224.96 433.67 210.93 C 433.59 206.15 432.60 200.60 428.35 197.74 C 425.63 195.72 422.10 196.35 418.96 196.26 C 411.98 196.39 404.98 196.03 398.01 196.43 C 392.66 197.17 390.30 203.12 390.34 207.92 C 390.36 230.94 390.22 253.97 390.41 276.98 C 390.45 283.63 396.64 288.53 402.97 288.67 C 414.61 288.87 426.27 288.60 437.91 288.79 C 440.99 288.69 444.62 290.52 444.90 293.90 C 445.25 302.26 444.84 310.75 443.01 318.92 C 440.08 324.67 436.81 330.26 433.65 335.89 C 430.62 332.31 427.89 328.46 424.60 325.12 C 423.41 324.90 422.52 326.06 421.56 326.56 C 417.43 329.62 413.42 332.83 409.23 335.79 C 405.94 328.97 403.01 321.99 399.76 315.16 C 398.70 315.13 397.67 315.12 396.63 315.11 C 388.29 315.20 379.95 315.02 371.61 315.22 C 371.28 275.80 371.57 236.36 371.47 196.93 C 371.53 190.01 371.38 182.49 375.24 176.43 C 378.76 171.05 385.52 169.44 391.50 168.73 Z" />
<path fill="#1d221b" opacity="1.00" d=" M 332.02 228.36 C 338.73 228.34 345.44 228.33 352.15 228.36 C 349.88 234.83 346.14 240.68 343.33 246.93 C 339.20 240.97 335.69 234.60 332.02 228.36 Z" />
<path fill="#1d221b" opacity="1.00" d=" M 334.21 258.63 C 339.61 258.54 345.01 258.53 350.42 258.64 C 348.82 264.08 347.40 269.85 344.85 274.82 C 341.06 269.62 337.36 264.25 334.21 258.63 Z" />
<path fill="#1d221b" opacity="1.00" d=" M 332.26 288.82 C 338.94 288.02 345.67 287.57 352.38 286.97 C 350.42 292.74 347.91 298.30 345.76 304.00 C 345.56 305.70 343.76 304.38 343.39 303.55 C 339.76 298.59 335.64 293.97 332.26 288.82 Z" />
<path fill="#1d221b" opacity="1.00" d=" M 326.20 309.79 C 330.72 313.21 335.08 316.90 339.13 320.87 C 333.14 324.71 326.99 328.29 320.87 331.90 C 322.25 324.45 324.40 317.16 326.20 309.79 Z" />
<path fill="#1d221b" opacity="1.00" d=" M 309.19 332.69 C 313.37 336.38 316.68 340.95 320.26 345.21 C 314.97 347.53 309.37 349.04 303.89 350.83 C 305.30 344.69 307.32 338.70 309.19 332.69 Z" />
<path fill="#1d221b" opacity="1.00" d=" M 396.14 343.75 C 402.93 344.49 409.62 345.97 416.33 347.24 C 411.61 351.74 406.87 356.40 401.45 360.01 C 399.78 354.56 397.86 349.19 396.14 343.75 Z" />
<path fill="#1d221b" opacity="1.00" d=" M 288.47 351.13 C 293.40 354.88 298.80 358.15 303.18 362.54 C 296.43 365.35 290.02 368.97 283.08 371.29 C 284.74 364.53 286.75 357.87 288.47 351.13 Z" />
<path fill="#1d221b" opacity="1.00" d=" M 390.58 364.52 C 396.17 366.02 401.67 367.89 407.07 369.99 C 402.81 373.73 398.52 377.44 394.15 381.06 C 392.86 375.56 391.53 370.08 390.58 364.52 Z" />
<path fill="#1d221b" opacity="1.00" d=" M 507.32 385.03 C 507.60 380.61 507.79 376.18 507.92 371.75 C 507.73 383.74 507.12 395.71 506.99 407.70 C 490.99 402.37 474.72 397.91 458.77 392.46 C 474.96 390.03 491.15 387.58 507.32 385.03 Z" />
<path fill="#1d221b" opacity="1.00" d=" M 219.39 395.43 C 224.56 389.15 232.35 386.00 239.65 382.92 C 240.28 387.35 240.33 391.84 239.73 396.28 C 234.33 396.74 228.83 398.23 224.36 401.38 C 220.71 404.33 221.60 409.46 222.17 413.53 C 216.69 409.52 214.92 400.80 219.39 395.43 Z" />
<path fill="#1d221b" opacity="1.00" d=" M 245.32 395.95 C 248.14 390.35 253.09 386.13 258.52 383.16 C 260.94 386.83 262.81 390.82 264.17 395.00 C 264.01 395.32 263.69 395.95 263.53 396.27 C 259.52 397.29 255.14 397.39 251.52 399.55 C 248.78 401.38 248.80 404.96 248.42 407.88 C 245.79 404.48 244.67 400.21 245.32 395.95 Z" />
<path fill="#1d221b" opacity="1.00" d=" M 307.50 395.57 C 311.53 389.57 318.13 386.04 324.44 382.91 C 328.80 386.74 330.60 392.46 330.16 398.16 C 326.08 397.26 321.57 396.77 317.69 398.66 C 312.96 402.17 311.33 408.18 309.09 413.34 C 305.56 408.29 303.90 401.01 307.50 395.57 Z" />
<path fill="#1d221b" opacity="1.00" d=" M 390.25 383.11 C 396.57 385.09 402.01 389.49 405.11 395.36 C 405.03 395.60 404.87 396.06 404.79 396.30 C 399.16 397.04 393.01 396.79 388.14 400.21 C 383.68 403.13 381.63 408.36 380.69 413.40 C 375.69 410.29 374.25 403.50 375.94 398.15 C 378.93 391.71 384.57 387.09 390.25 383.11 Z" />
<path fill="#1d221b" opacity="1.00" d=" M 355.65 386.56 C 356.76 386.00 358.09 384.63 359.36 385.67 C 363.90 388.38 366.86 393.11 368.01 398.21 C 361.81 398.78 355.39 400.54 350.59 404.67 C 347.48 407.31 347.44 411.71 348.63 415.31 C 342.05 412.77 339.16 404.07 343.07 398.17 C 346.30 393.39 350.89 389.73 355.65 386.56 Z" />
<path fill="#1d221b" opacity="1.00" d=" M 271.14 394.66 C 274.02 391.70 276.74 388.59 279.23 385.29 C 280.68 388.15 281.97 391.14 282.51 394.33 C 282.67 395.53 282.81 396.73 282.94 397.95 C 278.66 396.90 274.29 396.43 269.90 396.19 C 270.21 395.81 270.83 395.04 271.14 394.66 Z" />
<path fill="#1d221b" opacity="1.00" d=" M 452.95 419.07 C 469.93 422.07 486.83 425.45 503.83 428.32 C 502.20 434.19 500.51 440.11 497.68 445.54 C 483.05 436.27 467.76 428.06 452.95 419.07 Z" />
</g>
<g id="#eae877ff">
<path fill="#eae877" opacity="1.00" d=" M 358.28 37.77 C 363.29 39.55 368.24 41.47 373.22 43.32 C 368.43 47.35 363.29 50.94 358.28 54.67 C 358.26 49.03 358.26 43.40 358.28 37.77 Z" />
<path fill="#eae877" opacity="1.00" d=" M 394.10 37.78 C 400.30 40.31 406.71 42.39 412.66 45.45 C 406.48 47.92 400.31 50.45 394.09 52.83 C 394.10 47.81 394.08 42.79 394.10 37.78 Z" />
<path fill="#eae877" opacity="1.00" d=" M 429.94 39.66 C 436.26 41.44 442.54 43.39 448.84 45.30 C 442.52 48.40 436.28 51.65 429.94 54.69 C 429.91 49.68 429.91 44.67 429.94 39.66 Z" />
<path fill="#eae877" opacity="1.00" d=" M 313.01 49.02 C 317.37 52.24 321.89 55.23 326.16 58.56 C 321.78 61.06 317.42 63.57 313.03 66.05 C 313.00 60.37 313.03 54.70 313.01 49.02 Z" />
<path fill="#eae877" opacity="1.00" d=" M 88.13 100.59 C 98.91 89.66 109.83 78.85 120.68 67.98 C 121.34 80.76 122.68 93.49 123.98 106.22 C 111.92 109.02 99.53 105.46 88.18 101.39 C 88.17 101.19 88.14 100.79 88.13 100.59 Z" />
<path fill="#eae877" opacity="1.00" d=" M 211.66 106.25 C 213.12 93.55 214.02 80.79 215.19 68.07 C 226.08 79.16 237.19 90.05 248.11 101.12 C 236.62 105.50 223.96 108.97 211.66 106.25 Z" />
<path fill="#eae877" opacity="1.00" d=" M 313.04 84.92 C 316.79 86.77 320.51 88.66 324.26 90.51 C 320.64 93.82 316.77 96.84 313.03 100.01 C 313.02 94.98 313.00 89.95 313.04 84.92 Z" />
<path fill="#eae877" opacity="1.00" d=" M 85.47 112.22 C 98.89 114.67 112.27 117.32 125.66 119.92 C 127.55 133.77 129.65 147.58 131.92 161.37 C 117.93 159.93 103.92 158.67 89.92 157.28 C 87.94 142.31 86.40 127.29 85.47 112.22 Z" />
<path fill="#eae877" opacity="1.00" d=" M 209.99 119.93 C 223.40 117.38 236.79 114.79 250.19 112.20 C 249.21 127.30 247.76 142.36 245.68 157.35 C 231.70 158.63 217.74 160.15 203.76 161.34 C 205.97 147.56 208.11 133.77 209.99 119.93 Z" />
<path fill="#eae877" opacity="1.00" d=" M 313.03 124.58 C 316.78 126.39 320.50 128.26 324.20 130.16 C 320.62 132.89 316.76 135.23 313.03 137.75 C 313.01 133.36 313.00 128.97 313.03 124.58 Z" />
<path fill="#eae877" opacity="1.00" d=" M 91.80 168.86 C 105.88 170.17 119.96 171.58 134.03 173.07 C 137.23 190.73 140.39 208.40 143.58 226.06 C 129.66 220.26 114.97 216.48 100.11 214.04 C 96.86 199.07 94.13 183.99 91.80 168.86 Z" />
<path fill="#eae877" opacity="1.00" d=" M 201.68 173.02 C 215.74 171.74 229.79 170.25 243.84 168.85 C 241.56 183.97 238.72 199.00 235.62 213.97 C 220.77 216.63 205.91 220.10 192.07 226.23 C 195.24 208.49 198.37 190.74 201.68 173.02 Z" />
<path fill="#eae877" opacity="1.00" d=" M 104.62 234.54 C 118.73 234.85 132.81 237.34 146.25 241.63 C 148.89 256.87 151.60 272.10 153.77 287.42 C 142.08 282.22 129.49 279.18 116.78 277.95 C 112.26 263.61 108.13 249.15 104.62 234.54 Z" />
<path fill="#eae877" opacity="1.00" d=" M 189.43 241.59 C 202.92 237.41 216.98 234.91 231.11 234.47 C 227.47 249.08 223.41 263.59 218.89 277.95 C 206.16 279.17 193.57 282.26 181.88 287.48 C 184.04 272.13 186.75 256.86 189.43 241.59 Z" />
<path fill="#eae877" opacity="1.00" d=" M 121.99 292.89 C 133.20 293.24 144.51 294.54 155.23 297.98 C 158.76 326.08 161.40 354.33 162.07 382.66 C 158.85 377.38 155.93 371.92 153.12 366.41 C 151.48 363.19 149.85 359.95 148.24 356.71 C 147.37 354.96 146.51 353.21 145.69 351.45 C 144.21 348.20 142.75 344.94 141.22 341.72 C 134.05 325.75 127.76 309.41 121.99 292.89 Z" />
<path fill="#eae877" opacity="1.00" d=" M 180.37 298.07 C 191.05 294.46 202.43 293.28 213.65 292.90 C 207.91 309.45 201.55 325.79 194.42 341.79 C 192.91 344.96 191.45 348.14 190.00 351.34 C 189.18 353.12 188.32 354.88 187.44 356.63 C 185.82 359.89 184.19 363.15 182.54 366.40 C 179.71 372.07 176.56 377.55 173.49 383.09 C 174.30 354.65 176.86 326.29 180.37 298.07 Z" />
<path fill="#eae877" opacity="1.00" d=" M 123.45 384.92 C 132.10 389.85 140.94 394.43 149.80 398.96 C 145.77 423.85 141.71 448.73 137.67 473.61 C 132.89 444.05 128.23 414.48 123.45 384.92 Z" />
<path fill="#eae877" opacity="1.00" d=" M 185.87 399.04 C 194.83 394.51 203.62 389.66 212.25 384.55 C 207.47 414.19 202.81 443.84 197.99 473.47 C 193.90 448.67 189.89 423.85 185.87 399.04 Z" />
</g>
<g id="#54464aff">
<path fill="#54464a" opacity="1.00" d=" M 386.60 92.57 C 401.52 84.21 416.59 76.09 431.72 68.09 C 430.10 89.41 427.95 110.68 426.22 131.99 C 432.90 132.46 439.70 131.35 446.30 132.65 C 450.89 133.77 452.94 138.60 452.66 142.96 C 452.76 156.83 454.21 170.67 453.91 184.54 C 451.39 178.35 448.47 172.10 443.61 167.37 C 439.57 163.31 434.05 160.77 428.32 160.52 C 419.90 160.18 411.46 160.60 403.03 160.34 C 399.51 160.51 396.48 157.49 396.15 154.08 C 395.54 148.52 396.58 142.85 395.46 137.33 C 394.88 134.78 392.91 132.07 390.04 132.18 C 383.86 132.01 377.67 132.22 371.49 132.12 C 377.61 125.38 383.75 118.66 389.95 111.99 C 393.99 108.52 391.59 102.68 392.19 98.09 C 390.34 96.23 388.51 94.36 386.60 92.57 Z" />
<path fill="#54464a" opacity="1.00" d=" M 42.20 131.22 C 44.97 131.31 47.03 133.29 49.10 134.88 C 61.76 144.62 74.76 153.91 87.33 163.76 C 82.87 163.70 78.40 163.76 73.95 164.15 C 66.97 164.80 60.01 163.69 53.03 163.73 C 47.97 163.77 43.02 162.59 37.98 162.31 C 38.44 151.85 40.60 141.55 42.20 131.22 Z" />
<path fill="#54464a" opacity="1.00" d=" M 244.00 163.76 C 261.65 150.92 279.32 137.02 300.60 130.78 C 301.40 141.42 301.75 152.37 305.55 162.47 C 291.44 164.26 277.19 164.66 262.98 164.44 C 256.65 164.32 250.29 164.57 244.00 163.76 Z" />
<path fill="#54464a" opacity="1.00" d=" M 331.79 202.19 C 337.23 208.00 341.73 214.60 346.97 220.59 C 352.16 214.63 356.66 208.09 362.04 202.29 C 362.06 238.20 361.99 274.11 362.07 310.01 C 361.95 311.42 362.32 313.08 361.23 314.22 C 348.79 329.39 335.94 344.24 322.69 358.71 C 314.01 368.04 305.22 377.33 295.54 385.64 C 291.54 389.01 287.38 392.29 282.51 394.33 C 281.97 391.14 280.68 388.15 279.23 385.29 C 276.74 388.59 274.02 391.70 271.14 394.66 C 268.81 394.68 266.48 394.71 264.17 395.00 C 262.81 390.82 260.94 386.83 258.52 383.16 C 253.09 386.13 248.14 390.35 245.32 395.95 C 243.45 396.04 241.59 396.14 239.73 396.28 C 240.33 391.84 240.28 387.35 239.65 382.92 C 247.23 377.57 254.03 371.17 260.37 364.41 C 274.81 347.96 292.12 334.38 309.23 320.86 C 308.53 308.79 308.48 296.69 309.07 284.63 C 310.77 279.48 315.54 276.24 318.43 271.80 C 315.87 270.58 313.30 269.41 310.70 268.32 C 311.94 260.10 313.75 251.89 317.23 244.30 C 323.33 230.74 328.45 216.70 331.79 202.19 M 332.02 228.36 C 335.69 234.60 339.20 240.97 343.33 246.93 C 346.14 240.68 349.88 234.83 352.15 228.36 C 345.44 228.33 338.73 228.34 332.02 228.36 M 334.21 258.63 C 337.36 264.25 341.06 269.62 344.85 274.82 C 347.40 269.85 348.82 264.08 350.42 258.64 C 345.01 258.53 339.61 258.54 334.21 258.63 M 332.26 288.82 C 335.64 293.97 339.76 298.59 343.39 303.55 C 343.76 304.38 345.56 305.70 345.76 304.00 C 347.91 298.30 350.42 292.74 352.38 286.97 C 345.67 287.57 338.94 288.02 332.26 288.82 M 326.20 309.79 C 324.40 317.16 322.25 324.45 320.87 331.90 C 326.99 328.29 333.14 324.71 339.13 320.87 C 335.08 316.90 330.72 313.21 326.20 309.79 M 309.19 332.69 C 307.32 338.70 305.30 344.69 303.89 350.83 C 309.37 349.04 314.97 347.53 320.26 345.21 C 316.68 340.95 313.37 336.38 309.19 332.69 M 288.47 351.13 C 286.75 357.87 284.74 364.53 283.08 371.29 C 290.02 368.97 296.43 365.35 303.18 362.54 C 298.80 358.15 293.40 354.88 288.47 351.13 Z" />
<path fill="#54464a" opacity="1.00" d=" M 73.04 221.66 C 81.39 221.54 89.73 221.08 98.07 221.26 C 97.00 228.76 91.33 234.26 85.38 238.36 C 68.40 250.21 48.87 257.53 30.14 266.03 C 22.78 252.42 16.51 238.22 11.40 223.62 C 31.85 221.20 52.53 223.12 73.04 221.66 Z" />
<path fill="#54464a" opacity="1.00" d=" M 233.87 221.26 C 247.90 221.17 261.95 221.50 275.96 222.24 C 290.04 222.24 304.14 222.15 318.19 223.05 C 314.21 237.44 309.88 251.72 305.56 266.01 C 292.79 260.18 279.67 255.11 267.13 248.77 C 257.48 243.81 247.57 238.86 239.60 231.36 C 236.63 228.71 234.72 225.13 233.87 221.26 Z" />
<path fill="#54464a" opacity="1.00" d=" M 456.19 224.62 C 473.26 231.27 490.19 238.30 507.12 245.32 C 490.30 254.26 473.39 263.03 456.35 271.52 C 456.20 255.89 456.49 240.25 456.19 224.62 Z" />
<path fill="#54464a" opacity="1.00" d=" M 456.34 275.65 C 473.32 280.41 490.19 285.55 507.11 290.52 C 495.96 297.10 484.37 302.91 473.06 309.21 C 469.62 311.26 465.71 312.60 462.73 315.37 C 478.27 320.94 493.82 326.50 509.35 332.07 C 509.33 334.66 509.20 337.25 508.96 339.84 C 493.56 344.10 478.18 348.40 462.81 352.74 C 466.98 355.00 471.55 356.32 475.97 358.01 C 486.63 361.97 497.31 365.87 507.95 369.90 C 507.94 370.37 507.93 371.29 507.92 371.75 C 507.79 376.18 507.60 380.61 507.32 385.03 C 491.15 387.58 474.96 390.03 458.77 392.46 C 474.72 397.91 490.99 402.37 506.99 407.70 C 506.61 414.65 505.70 421.61 503.83 428.32 C 486.83 425.45 469.93 422.07 452.95 419.07 C 467.76 428.06 483.05 436.27 497.68 445.54 C 492.77 454.28 486.46 462.49 478.02 468.07 C 466.75 475.61 453.27 478.77 440.06 480.89 C 416.49 484.50 392.56 484.72 368.76 485.00 L 277.26 485.00 C 256.46 484.66 235.70 483.01 214.98 481.21 C 268.21 465.99 322.45 453.87 377.45 447.20 C 388.75 445.56 399.84 442.21 410.00 436.96 C 421.25 431.19 431.45 422.75 437.67 411.60 C 442.45 403.44 444.14 394.03 446.28 384.95 C 451.32 362.00 454.40 338.62 455.81 315.17 C 456.61 302.01 456.20 288.82 456.34 275.65 Z" />
<path fill="#54464a" opacity="1.00" d=" M 44.46 305.66 C 67.37 300.44 90.43 295.11 112.14 285.95 C 104.50 298.60 93.43 308.90 81.53 317.50 C 77.17 320.73 72.33 323.26 67.92 326.42 C 59.95 319.68 52.16 312.72 44.46 305.66 Z" />
<path fill="#54464a" opacity="1.00" d=" M 219.84 287.89 C 241.27 296.71 264.10 301.36 286.75 305.85 C 279.31 312.83 271.84 319.80 264.01 326.35 C 247.24 316.28 230.81 304.40 219.84 287.89 Z" />
<path fill="#54464a" opacity="1.00" d=" M 396.63 315.11 C 397.67 315.12 398.70 315.13 399.76 315.16 C 403.01 321.99 405.94 328.97 409.23 335.79 C 413.42 332.83 417.43 329.62 421.56 326.56 C 422.52 326.06 423.41 324.90 424.60 325.12 C 427.89 328.46 430.62 332.31 433.65 335.89 C 425.98 350.40 418.15 365.10 414.36 381.18 C 412.94 386.73 410.18 392.32 405.11 395.36 C 402.01 389.49 396.57 385.09 390.25 383.11 C 384.57 387.09 378.93 391.71 375.94 398.15 C 373.30 398.20 370.65 398.22 368.01 398.21 C 366.86 393.11 363.90 388.38 359.36 385.67 C 358.09 384.63 356.76 386.00 355.65 386.56 C 350.89 389.73 346.30 393.39 343.07 398.17 C 338.77 398.21 334.46 398.24 330.16 398.16 C 330.60 392.46 328.80 386.74 324.44 382.91 C 335.17 371.75 346.65 361.17 359.56 352.58 C 374.91 343.52 386.46 329.47 396.63 315.11 M 396.14 343.75 C 397.86 349.19 399.78 354.56 401.45 360.01 C 406.87 356.40 411.61 351.74 416.33 347.24 C 409.62 345.97 402.93 344.49 396.14 343.75 M 390.58 364.52 C 391.53 370.08 392.86 375.56 394.15 381.06 C 398.52 377.44 402.81 373.73 407.07 369.99 C 401.67 367.89 396.17 366.02 390.58 364.52 Z" />
<path fill="#54464a" opacity="1.00" d=" M 141.22 341.72 C 142.75 344.94 144.21 348.20 145.69 351.45 C 142.38 353.41 139.37 355.81 136.14 357.90 C 137.99 352.56 139.31 347.05 141.22 341.72 Z" />
<path fill="#54464a" opacity="1.00" d=" M 190.00 351.34 C 191.45 348.14 192.91 344.96 194.42 341.79 C 196.41 347.10 197.59 352.67 199.58 357.98 C 196.43 355.70 193.26 353.46 190.00 351.34 Z" />
<path fill="#54464a" opacity="1.00" d=" M 144.24 364.92 C 142.11 361.63 144.95 357.71 148.24 356.71 C 149.85 359.95 151.48 363.19 153.12 366.41 C 150.33 368.14 145.84 368.33 144.24 364.92 Z" />
<path fill="#54464a" opacity="1.00" d=" M 182.54 366.40 C 184.19 363.15 185.82 359.89 187.44 356.63 C 188.79 357.46 190.48 358.01 191.39 359.41 C 191.74 361.67 192.41 364.67 190.23 366.24 C 188.24 368.53 184.85 367.66 182.54 366.40 Z" />
</g>
</svg>
