<?xml version="1.0" encoding="UTF-8" ?>
<!DOCTYPE svg PUBLIC "-//W3C//DTD SVG 1.1//EN" "http://www.w3.org/Graphics/SVG/1.1/DTD/svg11.dtd">
<svg width="475pt" height="498pt" viewBox="0 0 475 498" version="1.1" xmlns="http://www.w3.org/2000/svg">
<g id="#323635ff">
<path fill="#323635" opacity="1.00" d=" M 55.71 0.00 L 55.92 0.00 C 54.05 4.02 51.39 7.62 49.62 11.69 C 41.84 28.66 38.09 47.18 35.89 65.63 C 35.20 66.90 34.47 68.15 33.78 69.43 C 28.78 77.39 24.43 85.77 19.02 93.46 C 18.70 81.32 18.80 69.17 18.96 57.03 C 25.00 39.83 32.22 22.39 45.10 9.11 C 48.23 5.60 52.20 3.07 55.71 0.00 Z" />
<path fill="#323635" opacity="1.00" d=" M 418.86 0.00 L 419.04 0.00 C 433.42 9.60 442.92 24.71 449.66 40.33 C 452.08 45.75 453.76 51.47 456.00 56.97 C 456.24 69.11 456.29 81.27 455.97 93.41 C 450.54 85.74 446.22 77.35 441.21 69.40 C 440.52 68.13 439.79 66.88 439.11 65.61 C 436.28 42.85 431.45 19.55 418.86 0.00 Z" />
<path fill="#323635" opacity="1.00" d=" M 218.71 299.68 C 225.08 292.93 231.18 285.92 237.58 279.20 C 243.73 286.13 250.12 292.85 256.36 299.69 C 256.95 300.52 258.48 301.51 257.59 302.66 C 254.79 306.81 251.80 310.84 248.82 314.87 C 244.97 312.22 241.81 308.69 237.93 306.12 L 237.03 306.15 C 233.25 308.83 229.94 312.12 226.21 314.89 C 223.19 310.87 220.22 306.79 217.44 302.61 C 216.54 301.44 218.10 300.50 218.71 299.68 Z" />
<path fill="#323635" opacity="1.00" d=" M 201.38 302.18 C 203.65 302.76 205.38 304.40 207.25 305.72 C 211.52 308.89 216.16 311.57 220.23 315.01 C 220.67 318.99 219.66 322.95 219.45 326.93 C 219.10 330.42 219.36 334.02 218.34 337.43 C 212.21 334.40 205.85 331.66 200.04 328.09 C 199.83 319.44 201.48 310.84 201.38 302.18 Z" />
<path fill="#323635" opacity="1.00" d=" M 258.31 312.34 C 263.32 309.18 267.76 304.94 273.21 302.59 C 273.97 310.76 274.48 318.96 275.04 327.14 C 274.91 327.48 274.66 328.18 274.54 328.52 C 268.66 331.59 262.71 334.54 256.75 337.45 C 255.16 330.75 255.40 323.74 254.63 316.91 C 254.12 314.48 256.78 313.53 258.31 312.34 Z" />
<path fill="#323635" opacity="1.00" d=" M 222.77 334.80 C 225.52 326.39 230.62 318.50 237.68 313.09 C 242.78 317.51 246.96 322.97 249.96 329.02 C 251.39 332.16 252.87 335.46 252.76 339.00 C 252.79 343.89 250.27 348.31 249.83 353.15 C 255.78 347.30 260.92 340.32 268.32 336.19 C 276.37 332.79 285.29 332.07 293.94 332.10 C 288.86 346.11 279.17 357.70 270.37 369.49 C 266.50 369.68 262.16 370.30 259.54 373.47 C 256.76 377.27 255.38 381.91 254.42 386.47 L 255.85 386.16 C 252.83 388.50 253.03 392.86 251.92 396.23 C 254.81 393.81 257.86 391.37 261.65 390.58 C 267.83 389.14 273.81 385.72 277.36 380.35 C 280.51 374.40 283.43 368.32 286.41 362.28 C 290.14 363.36 293.82 364.65 297.47 366.01 C 294.00 373.43 289.17 380.12 285.41 387.38 C 284.20 389.69 287.07 391.43 288.09 393.28 C 287.61 394.49 287.13 395.70 286.66 396.92 C 285.99 396.70 285.32 396.49 284.65 396.29 C 281.53 404.27 278.25 412.20 275.51 420.32 C 278.39 420.38 281.28 420.41 284.16 420.69 C 281.96 420.51 279.74 420.49 277.54 420.64 C 277.07 422.45 277.40 424.28 277.78 426.08 C 277.44 424.83 277.06 423.60 276.69 422.38 C 273.72 421.84 270.76 421.28 267.79 420.74 C 266.49 423.77 264.79 426.72 264.27 430.01 C 264.50 430.39 264.97 431.16 265.20 431.54 C 264.29 432.50 263.39 432.88 262.50 432.69 C 259.94 430.47 257.43 428.13 254.29 426.77 C 253.55 430.97 249.73 435.39 251.94 439.58 C 249.63 439.53 247.32 439.52 245.01 439.54 C 242.63 434.58 240.21 429.63 237.65 424.76 C 234.04 429.39 231.30 434.62 228.09 439.52 C 226.41 439.53 224.73 439.55 223.05 439.59 C 223.58 438.55 224.33 437.36 223.76 436.17 C 222.87 432.89 221.77 429.65 220.32 426.58 C 217.57 428.43 214.99 430.52 212.49 432.70 C 211.60 432.83 210.71 432.45 209.81 431.56 C 210.05 431.17 210.53 430.39 210.77 430.00 C 210.16 426.73 208.57 423.76 207.21 420.77 C 204.23 421.34 201.24 421.86 198.23 422.18 C 196.31 419.90 192.62 420.85 189.94 420.77 C 193.07 420.15 196.26 419.94 199.44 420.11 C 196.67 412.08 193.43 404.22 190.42 396.28 C 189.72 396.50 189.01 396.73 188.32 396.96 C 187.85 395.73 187.38 394.50 186.92 393.28 C 188.16 391.34 191.04 389.12 189.27 386.66 C 185.97 380.98 182.64 375.31 179.30 369.64 C 178.78 368.49 177.79 367.40 177.91 366.07 C 181.26 364.27 185.02 363.50 188.59 362.27 C 191.10 367.46 193.75 372.58 196.25 377.77 C 199.26 384.64 206.26 388.94 213.36 390.56 C 217.13 391.37 220.16 393.83 223.08 396.21 C 221.94 392.86 222.19 388.49 219.15 386.19 L 220.61 386.55 C 219.61 381.98 218.26 377.31 215.47 373.49 C 212.40 369.89 207.31 369.52 202.91 369.43 C 194.86 357.46 185.99 345.77 181.00 332.08 C 189.68 332.33 198.68 332.72 206.76 336.23 C 214.04 340.46 219.28 347.28 225.18 353.15 C 224.49 347.02 220.82 341.07 222.77 334.80 M 201.60 393.00 C 201.20 399.66 200.06 406.28 200.11 412.96 C 203.09 410.51 206.07 408.07 209.13 405.72 C 206.78 401.41 204.72 396.78 201.60 393.00 M 265.87 405.72 C 268.96 408.03 271.92 410.50 274.93 412.92 C 274.89 406.27 273.79 399.68 273.43 393.05 C 270.24 396.73 268.24 401.44 265.87 405.72 M 214.61 400.14 C 213.99 407.00 211.99 413.66 211.34 420.53 C 213.76 419.38 216.14 418.16 218.56 417.01 C 217.36 411.36 216.50 405.59 214.61 400.14 M 226.14 400.20 C 226.42 403.55 227.47 406.89 229.48 409.61 C 233.48 414.30 241.50 414.16 245.54 409.60 C 247.60 406.90 248.53 403.52 248.87 400.19 C 241.31 399.71 233.70 399.84 226.14 400.20 M 256.49 416.29 C 258.00 418.50 261.35 419.00 263.62 420.46 C 263.03 413.64 260.99 407.02 260.41 400.19 C 258.49 405.38 257.83 410.94 256.49 416.29 M 220.61 416.90 C 221.69 421.17 222.98 425.40 224.17 429.65 C 226.62 425.71 227.94 421.15 229.90 416.95 C 226.80 416.84 223.71 416.83 220.61 416.90 M 245.09 417.02 C 247.04 421.23 248.51 425.67 250.76 429.73 C 252.04 425.47 253.27 421.19 254.40 416.89 C 251.30 416.84 248.19 416.79 245.09 417.02 Z" />
<path fill="#323635" opacity="1.00" d=" M 145.27 367.86 C 150.27 367.60 155.27 367.80 160.27 367.86 C 164.06 368.01 167.96 367.40 171.68 368.28 C 175.59 373.62 179.10 379.28 182.77 384.79 C 181.58 387.33 180.31 389.84 178.96 392.30 C 165.85 387.68 151.86 380.76 145.27 367.86 Z" />
<path fill="#323635" opacity="1.00" d=" M 300.38 372.39 C 301.53 370.92 302.25 368.81 304.04 368.03 C 307.59 367.60 311.18 367.88 314.74 367.86 C 319.68 367.80 324.63 367.61 329.57 367.84 C 327.16 374.03 321.69 378.53 316.46 382.38 C 310.23 386.75 303.21 389.86 296.04 392.32 C 294.77 389.84 293.27 387.45 292.42 384.78 C 294.66 380.41 297.89 376.63 300.38 372.39 Z" />
<path fill="#323635" opacity="1.00" d=" M 85.04 405.85 C 106.41 416.33 127.96 426.58 150.34 434.79 C 153.23 435.39 153.94 438.49 155.17 440.74 C 161.55 453.33 168.69 465.57 176.96 477.02 C 179.26 480.33 182.10 483.23 184.28 486.64 C 167.44 486.78 150.59 486.51 133.75 486.77 C 130.89 481.04 127.51 475.60 124.62 469.89 C 118.58 474.50 113.12 479.85 107.45 484.92 C 107.92 487.55 107.45 490.30 108.26 492.88 L 108.62 493.21 C 108.29 493.33 107.63 493.56 107.31 493.68 C 107.16 491.37 107.10 489.07 107.10 486.77 C 99.75 486.87 92.40 486.98 85.05 486.86 C 91.19 486.37 97.35 486.85 103.50 486.59 C 100.42 481.61 97.04 476.83 93.87 471.92 C 95.94 468.65 97.90 465.32 100.03 462.09 C 109.01 462.00 118.03 462.49 126.99 461.85 C 133.55 459.95 138.43 454.46 145.16 452.77 C 144.99 449.27 142.72 445.49 138.90 445.31 C 129.65 444.98 120.38 445.38 111.13 445.13 C 101.97 432.36 92.74 419.57 85.04 405.85 Z" />
<path fill="#323635" opacity="1.00" d=" M 325.57 434.47 C 347.62 426.32 368.89 416.27 389.94 405.84 C 382.28 419.60 373.03 432.37 363.87 445.15 C 354.61 445.35 345.35 445.00 336.10 445.31 C 332.30 445.48 329.98 449.24 329.86 452.74 C 333.28 453.95 336.59 455.48 339.60 457.51 C 342.78 459.54 346.02 462.07 349.98 462.07 C 358.31 462.22 366.64 462.13 374.97 462.09 C 377.11 465.31 379.05 468.67 381.17 471.92 C 377.95 476.79 374.60 481.58 371.55 486.56 C 377.78 486.82 384.02 486.50 390.24 486.76 C 382.80 487.07 375.35 486.82 367.91 486.79 C 367.91 489.22 367.82 491.67 367.67 494.11 C 367.33 493.87 366.63 493.39 366.28 493.16 L 367.44 493.86 C 367.06 490.86 367.06 487.83 367.55 484.85 C 361.85 479.84 356.44 474.45 350.39 469.87 C 347.51 475.59 344.10 481.03 341.26 486.77 C 324.43 486.52 307.59 486.75 290.75 486.65 C 292.88 483.23 295.73 480.33 298.03 477.03 C 307.19 464.39 314.86 450.73 321.85 436.80 C 322.47 435.28 324.25 435.09 325.57 434.47 Z" />
<path fill="#323635" opacity="1.00" d=" M 75.26 454.70 C 79.73 457.57 83.76 461.04 88.10 464.09 C 88.78 464.75 90.65 465.47 89.71 466.65 C 84.45 472.13 78.94 477.38 73.65 482.83 C 70.99 477.66 68.84 472.23 66.43 466.94 C 65.57 465.70 67.13 464.70 67.72 463.79 C 70.28 460.80 72.82 457.79 75.26 454.70 Z" />
<path fill="#323635" opacity="1.00" d=" M 386.95 464.09 C 391.27 461.04 395.31 457.60 399.75 454.72 C 402.63 458.62 406.28 462.01 408.86 466.10 C 406.51 471.74 404.07 477.36 401.36 482.83 C 396.11 477.36 390.57 472.15 385.34 466.66 C 384.20 465.55 386.31 464.76 386.95 464.09 Z" />
</g>
<g id="#7d786dff">
<path fill="#7d786d" opacity="1.00" d=" M 221.49 56.47 C 226.07 51.40 231.25 46.85 237.13 43.33 C 242.20 45.36 246.22 49.26 250.13 52.96 C 262.25 65.23 271.84 79.73 280.59 94.51 C 281.42 95.63 281.76 97.30 283.07 97.95 C 289.44 96.57 294.97 92.86 299.90 88.74 C 306.36 97.47 310.27 107.76 313.68 117.98 C 316.20 125.91 318.42 133.96 320.08 142.12 C 311.41 138.09 301.68 137.28 292.24 137.65 C 293.47 131.86 292.41 125.95 292.77 120.14 C 294.99 116.84 299.53 116.53 303.00 115.24 C 298.97 113.55 294.52 114.46 290.31 114.75 C 288.52 111.41 286.90 107.77 283.71 105.50 C 284.39 111.04 286.01 116.44 286.28 122.03 C 286.65 129.36 286.34 136.78 284.85 143.97 C 284.85 145.42 283.00 145.37 282.02 145.78 C 279.77 146.31 277.48 146.63 275.19 146.98 C 273.94 143.34 274.85 138.18 270.89 136.14 C 260.23 129.46 249.65 122.63 238.95 116.01 C 237.56 114.73 236.00 116.02 234.75 116.76 C 224.58 123.28 214.35 129.70 204.14 136.14 C 200.07 138.10 201.05 143.34 199.86 147.01 C 196.70 146.36 193.26 146.37 190.39 144.79 C 188.68 137.71 188.47 130.33 188.64 123.07 C 188.75 117.11 190.51 111.38 191.32 105.51 C 188.11 107.75 186.46 111.38 184.69 114.73 C 180.47 114.51 176.00 113.48 171.99 115.27 C 175.58 116.40 179.89 116.92 182.32 120.12 C 182.45 125.96 181.53 131.83 182.75 137.63 C 173.29 137.21 163.58 138.09 154.91 142.18 C 157.97 127.82 162.00 113.55 168.27 100.23 C 170.16 96.19 172.40 92.31 175.10 88.76 C 180.05 92.85 185.56 96.54 191.92 97.96 C 193.09 97.45 193.38 95.99 194.11 95.04 C 202.07 81.42 210.86 68.17 221.49 56.47 Z" />
<path fill="#7d786d" opacity="1.00" d=" M 33.78 69.43 C 34.47 68.15 35.20 66.90 35.89 65.63 C 33.86 93.67 33.17 121.81 33.54 149.91 C 33.86 157.04 33.42 164.24 34.81 171.28 C 32.70 174.45 33.91 178.49 33.60 182.05 C 33.13 206.47 34.20 231.13 40.16 254.91 C 42.08 262.31 44.41 269.66 48.21 276.34 C 50.46 272.44 51.34 267.96 52.63 263.70 C 53.48 260.09 54.80 256.19 53.42 252.54 C 47.52 237.47 45.96 221.16 45.00 205.16 C 48.48 213.48 53.30 221.25 59.53 227.81 C 62.37 219.05 65.48 210.31 69.76 202.14 C 71.71 222.17 74.57 242.12 78.51 261.87 C 81.51 276.05 84.86 290.28 90.56 303.66 C 88.15 306.89 85.83 310.18 83.43 313.42 C 79.65 317.84 80.59 324.06 78.98 329.33 C 74.92 326.24 71.65 322.29 67.96 318.79 C 69.26 315.22 70.92 311.81 72.37 308.30 C 73.92 304.70 73.60 300.68 73.04 296.90 C 70.53 298.97 68.29 301.33 65.96 303.60 C 62.56 301.93 59.24 300.09 55.67 298.84 C 57.23 302.56 60.03 305.55 61.88 309.11 C 62.78 312.88 61.75 316.82 62.46 320.63 C 65.52 325.47 70.19 329.06 73.18 333.97 C 69.94 335.28 66.51 336.02 63.32 337.41 C 63.13 337.76 62.77 338.46 62.59 338.81 C 58.72 331.43 54.49 324.19 51.76 316.28 C 49.95 310.55 45.96 305.94 43.37 300.60 C 27.00 269.74 21.63 234.51 19.38 200.06 C 19.02 186.03 19.07 172.01 19.36 157.98 C 21.43 129.77 25.77 101.66 33.47 74.41 C 33.99 72.80 33.87 71.09 33.78 69.43 Z" />
<path fill="#7d786d" opacity="1.00" d=" M 439.11 65.61 C 439.79 66.88 440.52 68.13 441.21 69.40 C 441.00 70.84 441.04 72.28 441.33 73.69 C 449.10 100.83 453.40 128.87 455.58 156.99 C 456.00 171.32 455.89 185.66 455.61 200.00 C 453.35 234.47 448.00 269.73 431.62 300.61 C 429.03 305.90 425.08 310.49 423.23 316.15 C 420.55 324.13 416.37 331.45 412.40 338.83 C 410.34 335.32 405.20 335.68 401.82 333.88 C 404.94 329.11 409.43 325.42 412.56 320.67 C 413.19 316.85 412.23 312.90 413.10 309.12 C 414.93 305.59 417.79 302.67 419.22 298.93 C 415.65 300.10 412.41 302.06 409.00 303.60 C 406.68 301.30 404.42 298.93 401.87 296.90 C 401.64 299.26 401.37 301.64 401.58 304.02 C 402.04 309.32 405.82 313.64 406.75 318.77 C 403.55 322.62 399.90 326.18 396.01 329.35 C 394.36 324.09 395.40 317.81 391.52 313.42 C 389.12 310.20 386.90 306.85 384.43 303.68 C 386.69 298.60 388.40 293.30 390.03 288.00 C 398.16 260.01 402.19 231.02 405.27 202.10 C 409.43 210.33 412.68 219.02 415.44 227.82 C 421.32 221.65 425.97 214.40 429.39 206.61 C 429.37 222.22 427.04 237.99 421.53 252.65 C 420.64 255.11 421.10 257.76 421.58 260.26 C 422.73 265.70 424.48 271.00 426.34 276.24 C 428.87 273.42 429.96 269.73 431.34 266.29 C 438.37 246.65 440.22 225.67 441.37 205.00 C 441.47 195.34 441.40 185.68 441.41 176.02 C 441.27 174.41 441.63 172.44 440.16 171.32 C 441.61 164.18 441.12 156.86 441.46 149.63 C 441.80 121.61 441.11 93.56 439.11 65.61 Z" />
<path fill="#7d786d" opacity="1.00" d=" M 237.25 122.92 C 240.17 124.46 242.18 127.17 244.65 129.29 C 251.67 135.96 258.94 142.37 265.79 149.22 C 262.64 157.79 259.52 166.37 256.58 175.00 C 249.68 171.69 244.07 166.01 237.37 162.40 C 230.86 166.28 225.28 171.80 218.38 174.94 C 215.47 166.34 212.35 157.80 209.26 149.26 C 218.24 140.13 227.94 131.72 237.25 122.92 Z" />
<path fill="#7d786d" opacity="1.00" d=" M 133.72 134.13 C 139.66 138.33 145.91 142.21 152.92 144.40 C 155.83 157.02 161.28 169.25 169.62 179.24 C 169.00 182.35 168.69 185.56 167.57 188.56 C 160.83 189.48 153.99 189.68 147.22 190.45 C 144.21 197.17 142.40 204.34 139.36 211.05 C 135.00 205.66 130.87 200.10 126.59 194.67 C 126.11 193.18 126.39 191.58 126.36 190.05 C 126.99 171.23 129.40 152.47 133.72 134.13 Z" />
<path fill="#7d786d" opacity="1.00" d=" M 322.09 144.39 C 329.11 142.27 335.33 138.33 341.26 134.14 C 345.59 152.46 348.00 171.22 348.63 190.03 C 348.60 191.57 348.87 193.17 348.42 194.68 C 344.10 200.09 340.02 205.70 335.61 211.04 C 332.53 204.39 330.97 197.10 327.64 190.59 C 320.91 189.56 314.07 189.39 307.31 188.64 C 306.58 185.53 305.94 182.40 305.40 179.26 C 313.71 169.22 319.08 157.00 322.09 144.39 Z" />
<path fill="#7d786d" opacity="1.00" d=" M 160.27 149.22 C 164.54 147.70 168.90 146.39 173.33 145.42 C 174.95 151.45 175.79 157.71 175.19 163.95 C 174.31 165.57 172.78 166.63 171.38 167.76 C 169.60 166.51 167.65 165.48 166.02 164.03 C 163.77 159.24 162.31 154.11 160.27 149.22 Z" />
<path fill="#7d786d" opacity="1.00" d=" M 299.90 163.97 C 299.06 157.75 300.04 151.45 301.70 145.44 C 306.03 146.57 310.49 147.46 314.60 149.24 C 313.24 153.53 311.43 157.68 309.95 161.95 C 309.25 165.05 305.92 166.08 303.63 167.79 C 302.30 166.62 300.76 165.57 299.90 163.97 Z" />
<path fill="#7d786d" opacity="1.00" d=" M 184.90 151.06 C 190.39 152.04 195.87 153.25 201.26 154.69 C 202.30 160.60 201.39 166.94 201.67 173.01 C 201.36 176.45 202.70 180.43 200.37 183.39 C 197.66 187.46 195.05 191.59 192.57 195.81 C 188.11 192.22 184.95 187.29 181.09 183.10 C 181.22 180.41 181.35 177.73 181.78 175.08 C 183.10 167.11 183.32 158.99 184.90 151.06 Z" />
<path fill="#7d786d" opacity="1.00" d=" M 273.57 154.58 C 279.08 153.52 284.52 152.11 290.03 151.06 C 291.70 159.88 292.20 168.87 293.49 177.75 C 293.57 180.05 294.73 182.89 292.69 184.65 C 289.11 188.22 286.52 192.80 282.40 195.79 C 279.76 191.40 277.08 187.04 274.27 182.76 C 272.78 180.84 273.43 178.29 273.31 176.05 C 273.53 168.90 272.96 161.72 273.57 154.58 Z" />
<path fill="#7d786d" opacity="1.00" d=" M 236.32 172.40 C 237.85 171.36 239.32 172.69 240.63 173.41 C 251.40 180.29 262.00 188.04 269.45 198.59 C 270.43 200.05 271.84 201.94 270.49 203.65 C 264.73 213.43 256.47 221.82 246.96 227.93 C 243.67 226.88 241.12 224.34 237.98 222.96 C 234.24 223.47 231.68 227.06 227.98 227.89 C 218.83 222.03 210.96 214.01 205.15 204.80 C 204.68 203.64 203.14 202.32 204.17 201.03 C 206.50 196.61 209.96 192.88 213.43 189.33 C 220.38 182.85 228.04 177.08 236.32 172.40 Z" />
<path fill="#7d786d" opacity="1.00" d=" M 107.36 184.99 C 111.46 189.41 116.41 193.77 122.69 194.31 C 124.58 201.31 128.08 207.86 129.64 214.91 C 126.21 220.75 123.30 226.96 122.55 233.79 C 117.44 233.48 112.42 232.41 107.32 232.00 C 105.02 216.43 105.56 200.59 107.36 184.99 Z" />
<path fill="#7d786d" opacity="1.00" d=" M 367.56 184.95 C 369.52 200.57 369.90 216.46 367.67 232.07 C 362.60 232.64 357.54 233.38 352.45 233.77 C 351.64 226.99 348.83 220.75 345.34 214.97 C 346.88 207.87 350.48 201.36 352.30 194.32 C 358.56 193.77 363.61 189.51 367.56 184.95 Z" />
<path fill="#7d786d" opacity="1.00" d=" M 150.96 196.15 C 157.16 195.79 163.29 194.77 169.48 194.41 C 170.45 199.89 170.20 205.49 171.05 210.99 C 171.10 212.93 171.88 215.07 171.02 216.92 C 166.91 218.53 162.56 219.44 158.33 220.66 C 154.92 218.39 151.43 216.23 148.14 213.79 C 146.71 212.98 147.54 211.25 147.70 210.01 C 148.82 205.40 149.59 200.70 150.96 196.15 Z" />
<path fill="#7d786d" opacity="1.00" d=" M 305.70 194.65 C 311.74 194.49 317.92 195.95 324.03 196.14 C 325.40 201.66 326.88 207.20 327.74 212.83 C 324.58 216.04 320.30 217.95 316.69 220.64 C 312.35 219.62 308.11 218.27 303.84 217.02 C 303.91 209.57 304.24 201.92 305.70 194.65 Z" />
<path fill="#7d786d" opacity="1.00" d=" M 175.72 198.79 C 181.46 201.74 186.49 205.87 192.04 209.15 C 191.36 214.83 189.68 220.33 188.60 225.94 C 185.05 224.18 182.16 221.29 179.18 218.73 C 177.82 212.13 176.35 205.50 175.72 198.79 Z" />
<path fill="#7d786d" opacity="1.00" d=" M 283.02 209.15 C 288.48 205.77 293.62 201.88 299.21 198.72 C 298.60 205.46 297.29 212.19 295.73 218.77 C 292.84 221.41 289.87 224.13 286.41 226.00 C 285.38 220.36 283.52 214.87 283.02 209.15 Z" />
<path fill="#7d786d" opacity="1.00" d=" M 197.55 212.31 C 198.68 211.57 199.48 213.18 200.19 213.80 C 206.52 221.46 213.10 228.91 219.55 236.47 C 220.84 237.87 219.10 239.21 218.18 240.18 C 213.88 244.25 209.73 248.47 205.62 252.73 C 199.86 248.32 193.85 244.16 188.53 239.23 C 191.68 230.31 194.66 221.32 197.55 212.31 Z" />
<path fill="#7d786d" opacity="1.00" d=" M 276.32 212.15 C 276.58 212.25 277.11 212.45 277.37 212.56 C 280.63 221.34 283.13 230.40 286.46 239.17 C 281.32 244.15 275.33 248.22 269.66 252.59 C 265.23 249.02 261.58 244.47 257.34 240.63 C 256.43 239.50 254.02 238.06 255.50 236.47 C 262.40 228.34 269.40 220.26 276.32 212.15 Z" />
<path fill="#7d786d" opacity="1.00" d=" M 131.84 222.83 C 136.73 221.20 141.88 219.97 146.97 219.03 C 150.37 221.65 153.11 225.04 156.23 227.98 C 154.80 232.02 152.39 235.59 150.44 239.38 C 148.05 243.71 145.99 248.23 143.34 252.41 C 140.50 253.80 137.17 253.88 134.13 254.70 C 130.98 248.01 129.08 240.82 126.23 234.00 C 128.02 230.24 129.82 226.47 131.84 222.83 Z" />
<path fill="#7d786d" opacity="1.00" d=" M 318.96 228.08 C 321.67 224.77 324.94 221.94 327.97 218.91 C 332.03 219.69 336.01 220.82 340.03 221.75 C 341.16 222.20 342.82 222.12 343.46 223.36 C 345.34 226.75 346.95 230.29 348.67 233.77 C 346.27 240.62 343.94 247.52 341.20 254.24 C 338.16 254.84 334.64 253.24 331.63 252.43 C 328.12 246.48 325.22 240.20 321.73 234.24 C 320.79 232.21 319.19 230.35 318.96 228.08 Z" />
<path fill="#7d786d" opacity="1.00" d=" M 172.24 221.37 C 173.47 220.52 174.76 221.54 175.73 222.26 C 179.28 225.00 183.09 227.40 186.58 230.23 C 185.99 235.83 185.32 241.42 184.78 247.02 C 189.53 252.31 194.98 256.94 199.66 262.27 C 203.73 273.37 207.31 284.67 210.99 295.91 C 205.41 296.49 199.79 295.93 194.20 296.22 C 193.96 302.88 194.50 309.55 193.91 316.19 C 188.59 310.74 184.22 304.41 179.19 298.68 C 176.52 295.94 175.84 292.04 174.46 288.61 C 172.44 282.34 169.82 276.27 167.98 269.95 C 169.69 261.83 172.99 254.05 174.94 245.96 C 170.07 249.31 166.03 253.67 161.43 257.34 C 159.63 258.99 157.04 258.18 154.85 258.28 C 155.07 256.12 155.46 253.99 156.05 251.90 C 158.29 243.40 159.85 234.73 162.24 226.26 C 165.62 224.73 168.84 222.85 172.24 221.37 Z" />
<path fill="#7d786d" opacity="1.00" d=" M 301.21 221.21 C 305.32 221.64 308.83 224.80 312.74 226.24 C 315.48 236.84 318.04 247.51 320.17 258.24 C 318.45 258.30 316.73 258.51 315.03 258.29 C 309.69 254.63 305.52 249.50 300.09 245.97 C 301.97 253.39 304.56 260.60 306.69 267.95 C 307.25 269.40 306.92 270.91 306.37 272.31 C 303.63 279.63 301.08 287.01 298.46 294.38 C 297.42 297.66 294.53 299.81 292.59 302.54 C 288.69 307.06 285.32 312.08 281.01 316.21 C 280.59 309.55 280.96 302.89 280.81 296.23 C 275.22 295.97 269.62 296.40 264.04 295.96 C 267.20 285.59 270.87 275.37 274.20 265.05 C 274.62 263.89 274.95 262.64 275.80 261.72 C 280.43 256.67 285.69 252.19 290.12 246.97 C 289.77 241.38 288.97 235.81 288.40 230.23 C 292.62 227.16 296.77 223.95 301.21 221.21 Z" />
<path fill="#7d786d" opacity="1.00" d=" M 237.42 232.17 C 247.60 241.08 257.10 250.75 267.10 259.86 C 268.12 260.96 270.06 262.22 268.88 263.95 C 265.39 272.61 261.83 281.25 258.50 289.98 C 257.47 289.57 256.47 289.07 255.72 288.27 C 250.43 283.22 244.82 278.53 239.62 273.40 C 238.85 272.63 237.51 271.38 236.50 272.59 C 230.13 278.21 223.93 284.04 217.63 289.74 C 217.33 289.72 216.75 289.67 216.46 289.64 C 213.03 281.09 209.56 272.53 206.15 263.96 C 205.09 262.56 206.37 261.25 207.34 260.35 C 217.50 251.11 227.27 241.43 237.42 232.17 Z" />
<path fill="#7d786d" opacity="1.00" d=" M 108.49 238.08 C 113.85 238.97 119.14 240.21 124.40 241.58 C 125.65 246.61 127.17 251.60 127.91 256.75 C 123.66 258.63 119.15 260.00 115.26 262.61 C 115.59 263.38 116.24 264.92 116.56 265.70 C 124.94 264.11 132.57 259.74 141.01 258.52 C 144.81 257.75 147.99 260.08 150.76 262.32 C 150.22 265.46 149.60 268.59 148.83 271.69 C 145.82 272.40 142.71 272.72 139.76 273.68 C 137.74 278.96 137.30 284.79 135.72 290.24 C 133.10 288.61 130.57 286.83 128.21 284.84 C 114.82 273.25 111.07 254.77 108.49 238.08 Z" />
<path fill="#7d786d" opacity="1.00" d=" M 350.70 241.67 C 355.83 240.08 361.14 239.01 366.45 238.15 C 365.34 246.92 363.40 255.60 360.46 263.95 C 357.54 271.77 353.34 279.44 346.79 284.81 C 344.42 286.79 341.94 288.65 339.27 290.20 C 337.91 284.67 336.87 279.06 335.41 273.56 C 332.34 272.90 329.27 272.24 326.19 271.62 C 325.41 268.56 324.78 265.47 324.22 262.36 C 326.96 260.08 330.13 257.75 333.94 258.49 C 342.20 259.66 349.72 263.77 357.81 265.70 C 359.03 264.89 360.43 262.48 358.45 261.69 C 354.82 259.64 350.84 258.35 347.05 256.67 C 347.94 251.60 349.12 246.56 350.70 241.67 Z" />
<path fill="#7d786d" opacity="1.00" d=" M 95.88 260.82 C 97.87 261.97 98.75 264.25 100.20 265.95 C 106.69 274.28 114.06 282.00 122.45 288.45 L 122.55 288.79 C 126.84 303.16 131.57 317.42 135.45 331.90 C 126.05 329.70 116.90 326.28 108.58 321.37 C 107.17 320.74 106.76 319.18 106.07 317.95 C 99.62 304.89 94.58 290.78 94.04 276.10 C 93.84 270.95 94.37 265.76 95.88 260.82 Z" />
<path fill="#7d786d" opacity="1.00" d=" M 376.94 262.98 C 377.53 262.12 378.24 261.37 379.06 260.73 C 383.47 275.77 379.62 291.78 374.22 306.04 C 372.23 310.99 370.11 315.91 367.51 320.58 C 359.09 326.12 349.37 329.52 339.62 331.93 C 343.36 317.40 348.21 303.18 352.45 288.79 L 352.55 288.49 C 361.84 281.23 370.08 272.57 376.94 262.98 Z" />
<path fill="#7d786d" opacity="1.00" d=" M 143.22 279.27 C 149.38 278.80 155.50 277.84 161.65 277.43 C 163.40 279.12 163.71 281.90 164.79 284.06 C 166.30 288.11 168.30 291.99 169.37 296.20 C 165.78 297.79 161.84 298.46 158.33 300.21 C 155.40 302.85 153.77 306.75 150.42 308.95 C 146.97 303.93 142.83 299.35 139.71 294.14 C 140.55 289.11 142.01 284.21 143.22 279.27 Z" />
<path fill="#7d786d" opacity="1.00" d=" M 313.24 277.26 C 319.41 278.00 325.60 278.49 331.76 279.25 C 332.89 284.20 334.50 289.04 335.31 294.06 C 332.27 299.23 328.30 303.87 324.65 308.64 L 324.08 308.76 C 321.21 306.29 319.46 302.80 316.69 300.25 C 313.41 298.46 309.66 297.89 306.23 296.49 C 306.12 296.16 305.92 295.48 305.82 295.14 C 308.23 289.16 310.25 282.97 313.24 277.26 Z" />
<path fill="#7d786d" opacity="1.00" d=" M 130.80 295.60 C 134.92 298.99 138.07 303.36 141.78 307.18 C 144.11 309.84 146.85 312.19 148.73 315.21 C 150.50 320.63 151.20 326.35 152.70 331.85 C 148.37 330.82 144.03 329.71 139.85 328.20 C 138.04 324.99 137.71 321.10 136.50 317.62 C 134.69 310.26 132.07 303.08 130.80 295.60 Z" />
<path fill="#7d786d" opacity="1.00" d=" M 334.64 305.66 C 337.81 302.33 340.51 298.52 344.16 295.68 C 342.77 303.62 340.07 311.26 338.08 319.07 C 337.08 322.09 336.69 325.35 335.29 328.23 C 331.04 329.63 326.73 330.85 322.36 331.81 C 323.88 326.09 324.46 320.09 326.59 314.56 C 329.01 311.36 332.01 308.67 334.64 305.66 Z" />
<path fill="#7d786d" opacity="1.00" d=" M 164.05 303.93 C 168.86 304.19 173.67 304.77 178.42 305.58 C 180.11 307.16 180.56 309.58 181.49 311.62 C 183.06 315.81 185.03 319.86 186.23 324.18 C 179.44 322.65 172.80 320.57 166.07 318.83 C 165.07 313.92 164.55 308.92 164.05 303.93 Z" />
<path fill="#7d786d" opacity="1.00" d=" M 297.26 305.48 C 301.78 304.76 306.35 304.25 310.92 303.94 C 310.35 308.93 309.92 313.95 308.94 318.88 C 302.23 320.61 295.62 322.74 288.83 324.09 C 290.24 319.02 292.60 314.30 294.39 309.36 C 295.08 307.96 295.43 305.80 297.26 305.48 Z" />
<path fill="#7d786d" opacity="1.00" d=" M 86.18 320.27 C 88.46 316.69 90.56 312.98 93.04 309.53 C 97.51 320.28 101.77 331.17 107.25 341.46 C 102.82 341.94 98.42 342.76 93.97 343.10 C 91.61 343.58 90.84 340.80 89.62 339.39 C 87.73 336.09 84.50 333.13 84.73 329.04 C 84.74 326.09 84.32 322.80 86.18 320.27 Z" />
<path fill="#7d786d" opacity="1.00" d=" M 381.95 309.55 C 384.32 312.75 386.29 316.22 388.43 319.58 C 391.05 323.11 390.38 327.82 389.94 331.91 C 388.54 335.01 386.36 337.67 384.57 340.54 C 383.69 341.69 382.84 343.54 381.04 343.05 C 376.59 342.71 372.19 341.95 367.76 341.44 C 373.21 331.15 377.49 320.28 381.95 309.55 Z" />
<path fill="#7d786d" opacity="1.00" d=" M 155.01 317.18 C 160.55 319.48 166.16 321.80 171.43 324.63 C 175.16 332.35 179.01 340.06 182.10 348.06 C 175.66 343.93 169.97 338.76 163.77 334.30 C 161.95 332.81 159.74 331.67 158.35 329.75 C 156.93 325.66 155.66 321.47 155.01 317.18 Z" />
<path fill="#7d786d" opacity="1.00" d=" M 303.69 324.60 C 308.93 321.78 314.52 319.61 319.94 317.14 C 319.39 321.67 318.03 326.14 316.30 330.33 C 308.50 336.28 300.97 342.64 292.83 348.12 C 296.10 340.14 299.69 332.23 303.69 324.60 Z" />
<path fill="#7d786d" opacity="1.00" d=" M 109.41 331.95 C 117.33 332.34 125.04 335.18 131.68 339.44 C 137.15 349.32 143.48 359.24 152.68 366.07 C 151.56 366.75 150.59 368.16 149.05 367.44 C 137.61 366.51 124.78 361.25 120.21 349.92 C 117.49 343.44 113.46 337.65 109.41 331.95 Z" />
<path fill="#7d786d" opacity="1.00" d=" M 343.39 339.38 C 350.05 335.22 357.68 332.29 365.59 331.97 C 361.52 337.65 357.49 343.45 354.78 349.94 C 350.20 361.26 337.38 366.51 325.95 367.44 C 324.40 368.14 323.44 366.75 322.32 366.07 C 331.54 359.21 337.85 349.25 343.39 339.38 Z" />
<path fill="#7d786d" opacity="1.00" d=" M 134.02 339.50 C 137.12 339.54 140.23 339.48 143.34 339.62 C 150.93 340.38 158.75 340.06 166.17 341.86 C 171.69 345.94 177.47 349.88 182.30 354.79 C 175.03 357.40 167.56 359.47 160.36 362.27 C 160.32 362.72 160.25 363.62 160.21 364.07 C 158.18 364.17 156.02 364.18 154.39 362.78 C 145.90 356.80 139.01 348.56 134.02 339.50 Z" />
<path fill="#7d786d" opacity="1.00" d=" M 310.95 341.27 C 317.84 340.61 324.74 340.08 331.64 339.62 C 334.73 339.49 337.82 339.55 340.91 339.46 C 336.11 348.58 329.10 356.71 320.71 362.74 C 319.07 364.21 316.84 364.17 314.77 364.05 C 314.72 363.60 314.62 362.70 314.57 362.25 C 307.40 359.39 299.91 357.39 292.67 354.71 C 296.25 350.86 300.80 348.17 304.77 344.77 C 306.66 343.38 308.42 341.33 310.95 341.27 Z" />
<path fill="#7d786d" opacity="1.00" d=" M 66.41 345.79 C 72.65 346.11 78.68 347.84 84.77 349.07 C 84.84 355.98 84.87 362.89 84.74 369.80 C 82.89 371.05 81.01 372.25 79.08 373.36 C 74.99 364.10 70.32 355.12 66.41 345.79 Z" />
<path fill="#7d786d" opacity="1.00" d=" M 390.22 349.07 C 396.31 347.79 402.37 346.21 408.60 345.79 C 404.64 355.08 400.09 364.10 395.93 373.31 C 393.99 372.21 392.10 371.03 390.25 369.82 C 390.15 362.90 390.16 355.98 390.22 349.07 Z" />
<path fill="#7d786d" opacity="1.00" d=" M 98.29 347.39 C 102.70 347.26 106.98 348.72 111.40 348.74 C 113.81 352.93 117.11 356.50 120.36 360.05 C 120.53 366.21 120.53 372.38 120.34 378.54 C 116.02 377.65 112.09 375.63 108.02 374.04 C 102.81 371.94 97.51 370.09 92.40 367.75 C 93.88 360.95 92.17 352.22 98.29 347.39 Z" />
<path fill="#7d786d" opacity="1.00" d=" M 363.60 348.74 C 368.03 348.46 372.41 347.66 376.82 347.12 C 378.57 349.50 380.87 351.81 381.07 354.94 C 381.64 359.21 382.07 363.50 382.60 367.78 C 375.89 370.83 368.90 373.19 362.15 376.13 C 359.75 377.22 357.23 378.04 354.65 378.56 C 354.46 372.39 354.41 366.22 354.64 360.05 C 357.89 356.50 361.19 352.94 363.60 348.74 Z" />
<path fill="#7d786d" opacity="1.00" d=" M 79.20 379.06 C 83.58 376.90 87.57 373.99 92.05 372.03 C 94.83 371.83 98.21 373.01 99.14 375.92 C 102.46 383.27 106.10 390.48 109.08 397.98 C 101.65 399.50 94.14 400.66 86.62 401.62 C 85.69 400.50 84.84 399.32 83.97 398.16 L 85.29 398.27 C 83.78 391.71 80.97 385.54 79.20 379.06 Z" />
<path fill="#7d786d" opacity="1.00" d=" M 132.17 371.91 C 142.65 379.54 153.45 387.04 165.62 391.73 C 169.05 393.11 172.69 393.83 176.35 394.34 C 172.42 396.62 168.06 398.06 163.91 399.89 C 162.73 398.66 161.56 397.43 160.41 396.19 C 157.70 397.27 155.19 398.80 152.46 399.85 C 144.80 391.24 137.72 382.04 132.17 371.91 Z" />
<path fill="#7d786d" opacity="1.00" d=" M 324.97 384.00 C 331.17 380.38 336.97 376.16 342.77 371.95 C 337.27 382.10 330.18 391.27 322.51 399.86 C 319.92 398.82 317.53 397.34 314.94 396.31 C 313.35 397.08 312.35 398.72 311.07 399.89 C 306.85 398.04 302.51 396.44 298.42 394.33 C 308.04 393.40 316.78 388.83 324.97 384.00 Z" />
<path fill="#7d786d" opacity="1.00" d=" M 375.86 375.94 C 376.75 372.99 380.14 371.92 382.91 372.01 C 387.42 373.92 391.44 376.83 395.79 379.08 C 393.96 385.52 391.34 391.71 389.73 398.20 L 391.03 398.18 C 390.14 399.35 389.27 400.53 388.34 401.67 C 380.84 400.56 373.36 399.33 365.92 397.94 C 368.92 390.47 372.58 383.29 375.86 375.94 Z" />
<path fill="#7d786d" opacity="1.00" d=" M 188.32 396.96 C 189.01 396.73 189.72 396.50 190.42 396.28 C 193.43 404.22 196.67 412.08 199.44 420.11 C 196.26 419.94 193.07 420.15 189.94 420.77 C 182.53 421.70 175.52 425.45 171.29 431.71 C 167.78 423.58 163.97 415.58 160.22 407.56 C 169.53 403.89 178.94 400.47 188.32 396.96 Z" />
<path fill="#7d786d" opacity="1.00" d=" M 284.65 396.29 C 285.32 396.49 285.99 396.70 286.66 396.92 C 296.05 400.42 305.51 403.78 314.78 407.57 C 311.02 415.60 307.20 423.62 303.69 431.77 C 299.38 425.17 291.88 421.42 284.16 420.69 C 281.28 420.41 278.39 420.38 275.51 420.32 C 278.25 412.20 281.53 404.27 284.65 396.29 Z" />
<path fill="#7d786d" opacity="1.00" d=" M 198.23 422.18 C 201.24 421.86 204.23 421.34 207.21 420.77 C 208.57 423.76 210.16 426.73 210.77 430.00 C 210.53 430.39 210.05 431.17 209.81 431.56 C 203.86 437.16 198.26 443.12 192.39 448.80 C 194.21 439.91 195.88 430.95 198.23 422.18 Z" />
<path fill="#7d786d" opacity="1.00" d=" M 264.27 430.01 C 264.79 426.72 266.49 423.77 267.79 420.74 C 270.76 421.28 273.72 421.84 276.69 422.38 C 277.06 423.60 277.44 424.83 277.78 426.08 C 279.53 433.63 281.05 441.24 282.70 448.82 C 276.77 443.16 271.18 437.15 265.20 431.54 C 264.97 431.16 264.50 430.39 264.27 430.01 Z" />
<path fill="#7d786d" opacity="1.00" d=" M 228.09 439.52 C 231.30 434.62 234.04 429.39 237.65 424.76 C 240.21 429.63 242.63 434.58 245.01 439.54 C 242.42 445.07 240.33 450.88 237.35 456.22 C 234.27 450.64 231.16 445.09 228.09 439.52 Z" />
<path fill="#7d786d" opacity="1.00" d=" M 212.49 432.70 C 214.99 430.52 217.57 428.43 220.32 426.58 C 221.77 429.65 222.87 432.89 223.76 436.17 C 224.33 437.36 223.58 438.55 223.05 439.59 C 219.64 444.39 216.67 449.50 213.10 454.18 C 212.58 447.03 213.67 439.78 212.49 432.70 Z" />
<path fill="#7d786d" opacity="1.00" d=" M 254.29 426.77 C 257.43 428.13 259.94 430.47 262.50 432.69 C 261.32 439.78 262.46 447.04 261.86 454.20 C 258.38 449.45 255.34 444.39 251.94 439.58 C 249.73 435.39 253.55 430.97 254.29 426.77 Z" />
<path fill="#7d786d" opacity="1.00" d=" M 284.96 428.24 C 287.97 428.86 290.98 429.48 294.00 430.06 C 298.29 436.80 302.66 443.50 306.85 450.31 C 306.53 452.47 303.56 453.84 301.54 454.45 C 297.84 455.49 295.70 451.57 294.05 448.98 C 290.36 442.41 286.96 435.52 284.96 428.24 Z" />
<path fill="#7d786d" opacity="1.00" d=" M 181.05 430.06 C 184.16 429.67 187.16 428.56 190.31 428.52 C 186.83 436.95 183.83 445.89 177.99 453.03 C 174.95 456.51 170.31 453.44 167.83 450.87 C 172.13 443.87 176.56 436.94 181.05 430.06 Z" />
<path fill="#7d786d" opacity="1.00" d=" M 199.59 452.53 C 202.14 450.09 203.70 446.89 205.51 443.91 C 205.37 452.49 205.54 461.07 205.41 469.65 C 198.60 466.55 191.78 463.46 184.97 460.36 C 190.37 458.97 195.70 456.64 199.59 452.53 Z" />
<path fill="#7d786d" opacity="1.00" d=" M 269.46 443.92 C 271.52 447.29 273.34 450.92 276.43 453.51 C 280.21 457.11 285.16 459.01 290.08 460.47 C 283.19 463.35 276.54 466.76 269.62 469.55 C 269.40 461.01 269.69 452.46 269.46 443.92 Z" />
<path fill="#7d786d" opacity="1.00" d=" M 209.26 464.06 C 214.89 458.40 220.50 452.71 226.19 447.11 C 228.72 452.75 231.25 458.40 233.72 464.08 C 230.03 468.44 226.21 472.71 222.61 477.15 C 217.91 473.05 213.74 468.39 209.26 464.06 Z" />
<path fill="#7d786d" opacity="1.00" d=" M 241.28 464.08 C 243.76 458.41 246.27 452.75 248.82 447.11 C 254.53 452.69 260.12 458.39 265.76 464.04 C 261.30 468.40 257.12 473.05 252.42 477.15 C 248.79 472.72 245.01 468.42 241.28 464.08 Z" />
<path fill="#7d786d" opacity="1.00" d=" M 237.41 466.00 C 240.72 469.58 243.67 473.49 246.90 477.17 C 243.94 480.43 240.63 483.35 237.69 486.64 C 234.31 483.68 231.26 480.38 228.10 477.20 C 231.24 473.49 234.36 469.77 237.41 466.00 Z" />
</g>
<g id="#b1a68aff">
<path fill="#b1a68a" opacity="1.00" d=" M 17.45 62.02 C 17.85 60.32 18.33 58.65 18.96 57.03 C 18.80 69.17 18.70 81.32 19.02 93.46 C 24.43 85.77 28.78 77.39 33.78 69.43 C 33.87 71.09 33.99 72.80 33.47 74.41 C 25.77 101.66 21.43 129.77 19.36 157.98 C 19.07 172.01 19.02 186.03 19.38 200.06 C 21.63 234.51 27.00 269.74 43.37 300.60 C 45.96 305.94 49.95 310.55 51.76 316.28 C 54.49 324.19 58.72 331.43 62.59 338.81 C 63.74 341.20 65.15 343.46 66.41 345.79 C 70.32 355.12 74.99 364.10 79.08 373.36 C 79.15 375.25 79.11 377.16 79.20 379.06 C 80.97 385.54 83.78 391.71 85.29 398.27 L 83.97 398.16 C 77.18 389.28 70.00 380.68 62.05 372.81 C 56.93 367.66 51.12 363.21 46.25 357.80 C 33.91 344.39 25.19 328.06 18.64 311.16 C 5.39 276.00 0.63 238.21 0.00 200.81 L 0.00 192.17 C 0.71 148.29 7.36 104.67 17.45 62.02 Z" />
<path fill="#b1a68a" opacity="1.00" d=" M 456.00 56.97 C 460.28 71.34 462.79 86.19 465.68 100.89 C 471.05 131.02 474.52 161.54 475.00 192.16 L 475.00 200.81 C 474.31 239.00 469.42 277.65 455.45 313.42 C 449.01 329.49 440.52 344.97 428.77 357.79 C 423.53 363.57 417.30 368.34 411.85 373.92 C 404.33 381.48 397.51 389.71 391.03 398.18 L 389.73 398.20 C 391.34 391.71 393.96 385.52 395.79 379.08 C 395.88 377.15 395.85 375.23 395.93 373.31 C 400.09 364.10 404.64 355.08 408.60 345.79 C 409.85 343.46 411.26 341.22 412.40 338.83 C 416.37 331.45 420.55 324.13 423.23 316.15 C 425.08 310.49 429.03 305.90 431.62 300.61 C 448.00 269.73 453.35 234.47 455.61 200.00 C 455.89 185.66 456.00 171.32 455.58 156.99 C 453.40 128.87 449.10 100.83 441.33 73.69 C 441.04 72.28 441.00 70.84 441.21 69.40 C 446.22 77.35 450.54 85.74 455.97 93.41 C 456.29 81.27 456.24 69.11 456.00 56.97 Z" />
<path fill="#b1a68a" opacity="1.00" d=" M 33.60 182.05 C 33.91 178.49 32.70 174.45 34.81 171.28 C 37.04 182.86 39.59 194.59 45.00 205.16 C 45.96 221.16 47.52 237.47 53.42 252.54 C 54.80 256.19 53.48 260.09 52.63 263.70 C 51.34 267.96 50.46 272.44 48.21 276.34 C 44.41 269.66 42.08 262.31 40.16 254.91 C 34.20 231.13 33.13 206.47 33.60 182.05 Z" />
<path fill="#b1a68a" opacity="1.00" d=" M 440.16 171.32 C 441.63 172.44 441.27 174.41 441.41 176.02 C 441.40 185.68 441.47 195.34 441.37 205.00 C 440.22 225.67 438.37 246.65 431.34 266.29 C 429.96 269.73 428.87 273.42 426.34 276.24 C 424.48 271.00 422.73 265.70 421.58 260.26 C 421.10 257.76 420.64 255.11 421.53 252.65 C 427.04 237.99 429.37 222.22 429.39 206.61 C 435.01 195.57 437.92 183.43 440.16 171.32 Z" />
</g>
<g id="#8b3d33ff">
<path fill="#8b3d33" opacity="1.00" d=" M 184.69 114.73 C 186.46 111.38 188.11 107.75 191.32 105.51 C 190.51 111.38 188.75 117.11 188.64 123.07 C 188.47 130.33 188.68 137.71 190.39 144.79 C 193.26 146.37 196.70 146.36 199.86 147.01 C 201.05 143.34 200.07 138.10 204.14 136.14 C 214.35 129.70 224.58 123.28 234.75 116.76 C 236.00 116.02 237.56 114.73 238.95 116.01 C 249.65 122.63 260.23 129.46 270.89 136.14 C 274.85 138.18 273.94 143.34 275.19 146.98 C 277.48 146.63 279.77 146.31 282.02 145.78 C 283.00 145.37 284.85 145.42 284.85 143.97 C 286.34 136.78 286.65 129.36 286.28 122.03 C 286.01 116.44 284.39 111.04 283.71 105.50 C 286.90 107.77 288.52 111.41 290.31 114.75 C 294.52 114.46 298.97 113.55 303.00 115.24 C 299.53 116.53 294.99 116.84 292.77 120.14 C 292.41 125.95 293.47 131.86 292.24 137.65 C 301.68 137.28 311.41 138.09 320.08 142.12 C 320.65 142.40 321.78 142.96 322.35 143.24 L 322.09 144.39 C 319.08 157.00 313.71 169.22 305.40 179.26 C 305.94 182.40 306.58 185.53 307.31 188.64 C 314.07 189.39 320.91 189.56 327.64 190.59 C 330.97 197.10 332.53 204.39 335.61 211.04 C 340.02 205.70 344.10 200.09 348.42 194.68 C 349.63 194.20 350.93 194.08 352.30 194.32 C 350.48 201.36 346.88 207.87 345.34 214.97 C 348.83 220.75 351.64 226.99 352.45 233.77 C 357.54 233.38 362.60 232.64 367.67 232.07 C 367.67 234.05 367.55 236.03 367.38 238.01 L 366.45 238.15 C 361.14 239.01 355.83 240.08 350.70 241.67 C 349.12 246.56 347.94 251.60 347.05 256.67 C 350.84 258.35 354.82 259.64 358.45 261.69 C 360.43 262.48 359.03 264.89 357.81 265.70 C 349.72 263.77 342.20 259.66 333.94 258.49 C 330.13 257.75 326.96 260.08 324.22 262.36 C 324.78 265.47 325.41 268.56 326.19 271.62 C 329.27 272.24 332.34 272.90 335.41 273.56 C 336.87 279.06 337.91 284.67 339.27 290.20 C 341.94 288.65 344.42 286.79 346.79 284.81 C 348.75 286.03 350.66 287.34 352.45 288.79 C 348.21 303.18 343.36 317.40 339.62 331.93 C 337.71 332.55 335.74 333.04 333.90 333.86 C 332.77 335.58 332.43 337.72 331.64 339.62 C 324.74 340.08 317.84 340.61 310.95 341.27 C 308.42 341.33 306.66 343.38 304.77 344.77 C 300.80 348.17 296.25 350.86 292.67 354.71 C 299.91 357.39 307.40 359.39 314.57 362.25 C 314.62 362.70 314.72 363.60 314.77 364.05 C 314.86 365.32 314.77 366.58 314.74 367.86 C 311.18 367.88 307.59 367.60 304.04 368.03 C 302.25 368.81 301.53 370.92 300.38 372.39 C 297.89 376.63 294.66 380.41 292.42 384.78 C 293.27 387.45 294.77 389.84 296.04 392.32 C 294.12 393.61 292.19 394.87 290.22 396.07 C 289.51 395.13 288.80 394.20 288.09 393.28 C 287.07 391.43 284.20 389.69 285.41 387.38 C 289.17 380.12 294.00 373.43 297.47 366.01 C 293.82 364.65 290.14 363.36 286.41 362.28 C 283.43 368.32 280.51 374.40 277.36 380.35 C 273.81 385.72 267.83 389.14 261.65 390.58 C 257.86 391.37 254.81 393.81 251.92 396.23 C 253.03 392.86 252.83 388.50 255.85 386.16 C 258.96 385.09 261.98 383.63 264.46 381.44 C 268.28 378.51 267.33 372.99 270.37 369.49 C 279.17 357.70 288.86 346.11 293.94 332.10 C 285.29 332.07 276.37 332.79 268.32 336.19 C 260.92 340.32 255.78 347.30 249.83 353.15 C 250.27 348.31 252.79 343.89 252.76 339.00 C 252.87 335.46 251.39 332.16 249.96 329.02 C 246.96 322.97 242.78 317.51 237.68 313.09 C 230.62 318.50 225.52 326.39 222.77 334.80 C 220.82 341.07 224.49 347.02 225.18 353.15 C 219.28 347.28 214.04 340.46 206.76 336.23 C 198.68 332.72 189.68 332.33 181.00 332.08 C 185.99 345.77 194.86 357.46 202.91 369.43 C 204.86 372.16 205.19 375.58 206.46 378.61 C 209.38 382.79 214.45 384.75 219.15 386.19 C 222.19 388.49 221.94 392.86 223.08 396.21 C 220.16 393.83 217.13 391.37 213.36 390.56 C 206.26 388.94 199.26 384.64 196.25 377.77 C 193.75 372.58 191.10 367.46 188.59 362.27 C 185.02 363.50 181.26 364.27 177.91 366.07 C 177.79 367.40 178.78 368.49 179.30 369.64 C 182.64 375.31 185.97 380.98 189.27 386.66 C 191.04 389.12 188.16 391.34 186.92 393.28 C 186.20 394.20 185.49 395.12 184.79 396.06 C 182.80 394.87 180.87 393.60 178.96 392.30 C 180.31 389.84 181.58 387.33 182.77 384.79 C 179.10 379.28 175.59 373.62 171.68 368.28 C 167.96 367.40 164.06 368.01 160.27 367.86 C 160.22 366.59 160.15 365.33 160.21 364.07 C 160.25 363.62 160.32 362.72 160.36 362.27 C 167.56 359.47 175.03 357.40 182.30 354.79 C 177.47 349.88 171.69 345.94 166.17 341.86 C 158.75 340.06 150.93 340.38 143.34 339.62 C 142.59 337.73 142.22 335.64 141.14 333.91 C 139.30 333.08 137.35 332.55 135.45 331.90 C 131.57 317.42 126.84 303.16 122.55 288.79 C 124.37 287.37 126.27 286.07 128.21 284.84 C 130.57 286.83 133.10 288.61 135.72 290.24 C 137.30 284.79 137.74 278.96 139.76 273.68 C 142.71 272.72 145.82 272.40 148.83 271.69 C 149.60 268.59 150.22 265.46 150.76 262.32 C 147.99 260.08 144.81 257.75 141.01 258.52 C 132.57 259.74 124.94 264.11 116.56 265.70 C 116.24 264.92 115.59 263.38 115.26 262.61 C 119.15 260.00 123.66 258.63 127.91 256.75 C 127.17 251.60 125.65 246.61 124.40 241.58 C 119.14 240.21 113.85 238.97 108.49 238.08 L 107.59 237.93 C 107.43 235.95 107.33 233.98 107.32 232.00 C 112.42 232.41 117.44 233.48 122.55 233.79 C 123.30 226.96 126.21 220.75 129.64 214.91 C 128.08 207.86 124.58 201.31 122.69 194.31 C 124.06 194.08 125.36 194.20 126.59 194.67 C 130.87 200.10 135.00 205.66 139.36 211.05 C 142.40 204.34 144.21 197.17 147.22 190.45 C 153.99 189.68 160.83 189.48 167.57 188.56 C 168.69 185.56 169.00 182.35 169.62 179.24 C 161.28 169.25 155.83 157.02 152.92 144.40 L 152.65 143.23 C 153.22 142.97 154.35 142.44 154.91 142.18 C 163.58 138.09 173.29 137.21 182.75 137.63 C 181.53 131.83 182.45 125.96 182.32 120.12 C 179.89 116.92 175.58 116.40 171.99 115.27 C 176.00 113.48 180.47 114.51 184.69 114.73 M 237.25 122.92 C 227.94 131.72 218.24 140.13 209.26 149.26 C 212.35 157.80 215.47 166.34 218.38 174.94 C 225.28 171.80 230.86 166.28 237.37 162.40 C 244.07 166.01 249.68 171.69 256.58 175.00 C 259.52 166.37 262.64 157.79 265.79 149.22 C 258.94 142.37 251.67 135.96 244.65 129.29 C 242.18 127.17 240.17 124.46 237.25 122.92 M 160.27 149.22 C 162.31 154.11 163.77 159.24 166.02 164.03 C 167.65 165.48 169.60 166.51 171.38 167.76 C 172.78 166.63 174.31 165.57 175.19 163.95 C 175.79 157.71 174.95 151.45 173.33 145.42 C 168.90 146.39 164.54 147.70 160.27 149.22 M 299.90 163.97 C 300.76 165.57 302.30 166.62 303.63 167.79 C 305.92 166.08 309.25 165.05 309.95 161.95 C 311.43 157.68 313.24 153.53 314.60 149.24 C 310.49 147.46 306.03 146.57 301.70 145.44 C 300.04 151.45 299.06 157.75 299.90 163.97 M 184.90 151.06 C 183.32 158.99 183.10 167.11 181.78 175.08 C 181.35 177.73 181.22 180.41 181.09 183.10 C 184.95 187.29 188.11 192.22 192.57 195.81 C 195.05 191.59 197.66 187.46 200.37 183.39 C 202.70 180.43 201.36 176.45 201.67 173.01 C 201.39 166.94 202.30 160.60 201.26 154.69 C 195.87 153.25 190.39 152.04 184.90 151.06 M 273.57 154.58 C 272.96 161.72 273.53 168.90 273.31 176.05 C 273.43 178.29 272.78 180.84 274.27 182.76 C 277.08 187.04 279.76 191.40 282.40 195.79 C 286.52 192.80 289.11 188.22 292.69 184.65 C 294.73 182.89 293.57 180.05 293.49 177.75 C 292.20 168.87 291.70 159.88 290.03 151.06 C 284.52 152.11 279.08 153.52 273.57 154.58 M 236.32 172.40 C 228.04 177.08 220.38 182.85 213.43 189.33 C 209.96 192.88 206.50 196.61 204.17 201.03 C 203.14 202.32 204.68 203.64 205.15 204.80 C 210.96 214.01 218.83 222.03 227.98 227.89 C 231.68 227.06 234.24 223.47 237.98 222.96 C 241.12 224.34 243.67 226.88 246.96 227.93 C 256.47 221.82 264.73 213.43 270.49 203.65 C 271.84 201.94 270.43 200.05 269.45 198.59 C 262.00 188.04 251.40 180.29 240.63 173.41 C 239.32 172.69 237.85 171.36 236.32 172.40 M 150.96 196.15 C 149.59 200.70 148.82 205.40 147.70 210.01 C 147.54 211.25 146.71 212.98 148.14 213.79 C 151.43 216.23 154.92 218.39 158.33 220.66 C 162.56 219.44 166.91 218.53 171.02 216.92 C 171.88 215.07 171.10 212.93 171.05 210.99 C 170.20 205.49 170.45 199.89 169.48 194.41 C 163.29 194.77 157.16 195.79 150.96 196.15 M 305.70 194.65 C 304.24 201.92 303.91 209.57 303.84 217.02 C 308.11 218.27 312.35 219.62 316.69 220.64 C 320.30 217.95 324.58 216.04 327.74 212.83 C 326.88 207.20 325.40 201.66 324.03 196.14 C 317.92 195.95 311.74 194.49 305.70 194.65 M 175.72 198.79 C 176.35 205.50 177.82 212.13 179.18 218.73 C 182.16 221.29 185.05 224.18 188.60 225.94 C 189.68 220.33 191.36 214.83 192.04 209.15 C 186.49 205.87 181.46 201.74 175.72 198.79 M 283.02 209.15 C 283.52 214.87 285.38 220.36 286.41 226.00 C 289.87 224.13 292.84 221.41 295.73 218.77 C 297.29 212.19 298.60 205.46 299.21 198.72 C 293.62 201.88 288.48 205.77 283.02 209.15 M 197.55 212.31 C 194.66 221.32 191.68 230.31 188.53 239.23 C 193.85 244.16 199.86 248.32 205.62 252.73 C 209.73 248.47 213.88 244.25 218.18 240.18 C 219.10 239.21 220.84 237.87 219.55 236.47 C 213.10 228.91 206.52 221.46 200.19 213.80 C 199.48 213.18 198.68 211.57 197.55 212.31 M 276.32 212.15 C 269.40 220.26 262.40 228.34 255.50 236.47 C 254.02 238.06 256.43 239.50 257.34 240.63 C 261.58 244.47 265.23 249.02 269.66 252.59 C 275.33 248.22 281.32 244.15 286.46 239.17 C 283.13 230.40 280.63 221.34 277.37 212.56 C 277.11 212.45 276.58 212.25 276.32 212.15 M 131.84 222.83 C 129.82 226.47 128.02 230.24 126.23 234.00 C 129.08 240.82 130.98 248.01 134.13 254.70 C 137.17 253.88 140.50 253.80 143.34 252.41 C 145.99 248.23 148.05 243.71 150.44 239.38 C 152.39 235.59 154.80 232.02 156.23 227.98 C 153.11 225.04 150.37 221.65 146.97 219.03 C 141.88 219.97 136.73 221.20 131.84 222.83 M 318.96 228.08 C 319.19 230.35 320.79 232.21 321.73 234.24 C 325.22 240.20 328.12 246.48 331.63 252.43 C 334.64 253.24 338.16 254.84 341.20 254.24 C 343.94 247.52 346.27 240.62 348.67 233.77 C 346.95 230.29 345.34 226.75 343.46 223.36 C 342.82 222.12 341.16 222.20 340.03 221.75 C 336.01 220.82 332.03 219.69 327.97 218.91 C 324.94 221.94 321.67 224.77 318.96 228.08 M 172.24 221.37 C 168.84 222.85 165.62 224.73 162.24 226.26 C 159.85 234.73 158.29 243.40 156.05 251.90 C 155.46 253.99 155.07 256.12 154.85 258.28 C 157.04 258.18 159.63 258.99 161.43 257.34 C 166.03 253.67 170.07 249.31 174.94 245.96 C 172.99 254.05 169.69 261.83 167.98 269.95 C 169.82 276.27 172.44 282.34 174.46 288.61 C 175.84 292.04 176.52 295.94 179.19 298.68 C 184.22 304.41 188.59 310.74 193.91 316.19 C 194.50 309.55 193.96 302.88 194.20 296.22 C 199.79 295.93 205.41 296.49 210.99 295.91 C 207.31 284.67 203.73 273.37 199.66 262.27 C 194.98 256.94 189.53 252.31 184.78 247.02 C 185.32 241.42 185.99 235.83 186.58 230.23 C 183.09 227.40 179.28 225.00 175.73 222.26 C 174.76 221.54 173.47 220.52 172.24 221.37 M 301.21 221.21 C 296.77 223.95 292.62 227.16 288.40 230.23 C 288.97 235.81 289.77 241.38 290.12 246.97 C 285.69 252.19 280.43 256.67 275.80 261.72 C 274.95 262.64 274.62 263.89 274.20 265.05 C 270.87 275.37 267.20 285.59 264.04 295.96 C 269.62 296.40 275.22 295.97 280.81 296.23 C 280.96 302.89 280.59 309.55 281.01 316.21 C 285.32 312.08 288.69 307.06 292.59 302.54 C 294.53 299.81 297.42 297.66 298.46 294.38 C 301.08 287.01 303.63 279.63 306.37 272.31 C 306.92 270.91 307.25 269.40 306.69 267.95 C 304.56 260.60 301.97 253.39 300.09 245.97 C 305.52 249.50 309.69 254.63 315.03 258.29 C 316.73 258.51 318.45 258.30 320.17 258.24 C 318.04 247.51 315.48 236.84 312.74 226.24 C 308.83 224.80 305.32 221.64 301.21 221.21 M 237.42 232.17 C 227.27 241.43 217.50 251.11 207.34 260.35 C 206.37 261.25 205.09 262.56 206.15 263.96 C 209.56 272.53 213.03 281.09 216.46 289.64 C 216.75 289.67 217.33 289.72 217.63 289.74 C 223.93 284.04 230.13 278.21 236.50 272.59 C 237.51 271.38 238.85 272.63 239.62 273.40 C 244.82 278.53 250.43 283.22 255.72 288.27 C 256.47 289.07 257.47 289.57 258.50 289.98 C 261.83 281.25 265.39 272.61 268.88 263.95 C 270.06 262.22 268.12 260.96 267.10 259.86 C 257.10 250.75 247.60 241.08 237.42 232.17 M 143.22 279.27 C 142.01 284.21 140.55 289.11 139.71 294.14 C 142.83 299.35 146.97 303.93 150.42 308.95 C 153.77 306.75 155.40 302.85 158.33 300.21 C 161.84 298.46 165.78 297.79 169.37 296.20 C 168.30 291.99 166.30 288.11 164.79 284.06 C 163.71 281.90 163.40 279.12 161.65 277.43 C 155.50 277.84 149.38 278.80 143.22 279.27 M 313.24 277.26 C 310.25 282.97 308.23 289.16 305.82 295.14 C 305.92 295.48 306.12 296.16 306.23 296.49 C 309.66 297.89 313.41 298.46 316.69 300.25 C 319.46 302.80 321.21 306.29 324.08 308.76 L 324.65 308.64 C 328.30 303.87 332.27 299.23 335.31 294.06 C 334.50 289.04 332.89 284.20 331.76 279.25 C 325.60 278.49 319.41 278.00 313.24 277.26 M 218.71 299.68 C 218.10 300.50 216.54 301.44 217.44 302.61 C 220.22 306.79 223.19 310.87 226.21 314.89 C 229.94 312.12 233.25 308.83 237.03 306.15 L 237.93 306.12 C 241.81 308.69 244.97 312.22 248.82 314.87 C 251.80 310.84 254.79 306.81 257.59 302.66 C 258.48 301.51 256.95 300.52 256.36 299.69 C 250.12 292.85 243.73 286.13 237.58 279.20 C 231.18 285.92 225.08 292.93 218.71 299.68 M 130.80 295.60 C 132.07 303.08 134.69 310.26 136.50 317.62 C 137.71 321.10 138.04 324.99 139.85 328.20 C 144.03 329.71 148.37 330.82 152.70 331.85 C 151.20 326.35 150.50 320.63 148.73 315.21 C 146.85 312.19 144.11 309.84 141.78 307.18 C 138.07 303.36 134.92 298.99 130.80 295.60 M 334.64 305.66 C 332.01 308.67 329.01 311.36 326.59 314.56 C 324.46 320.09 323.88 326.09 322.36 331.81 C 326.73 330.85 331.04 329.63 335.29 328.23 C 336.69 325.35 337.08 322.09 338.08 319.07 C 340.07 311.26 342.77 303.62 344.16 295.68 C 340.51 298.52 337.81 302.33 334.64 305.66 M 201.38 302.18 C 201.48 310.84 199.83 319.44 200.04 328.09 C 205.85 331.66 212.21 334.40 218.34 337.43 C 219.36 334.02 219.10 330.42 219.45 326.93 C 219.66 322.95 220.67 318.99 220.23 315.01 C 216.16 311.57 211.52 308.89 207.25 305.72 C 205.38 304.40 203.65 302.76 201.38 302.18 M 258.31 312.34 C 256.78 313.53 254.12 314.48 254.63 316.91 C 255.40 323.74 255.16 330.75 256.75 337.45 C 262.71 334.54 268.66 331.59 274.54 328.52 C 274.66 328.18 274.91 327.48 275.04 327.14 C 274.48 318.96 273.97 310.76 273.21 302.59 C 267.76 304.94 263.32 309.18 258.31 312.34 M 164.05 303.93 C 164.55 308.92 165.07 313.92 166.07 318.83 C 172.80 320.57 179.44 322.65 186.23 324.18 C 185.03 319.86 183.06 315.81 181.49 311.62 C 180.56 309.58 180.11 307.16 178.42 305.58 C 173.67 304.77 168.86 304.19 164.05 303.93 M 297.26 305.48 C 295.43 305.80 295.08 307.96 294.39 309.36 C 292.60 314.30 290.24 319.02 288.83 324.09 C 295.62 322.74 302.23 320.61 308.94 318.88 C 309.92 313.95 310.35 308.93 310.92 303.94 C 306.35 304.25 301.78 304.76 297.26 305.48 M 155.01 317.18 C 155.66 321.47 156.93 325.66 158.35 329.75 C 159.74 331.67 161.95 332.81 163.77 334.30 C 169.97 338.76 175.66 343.93 182.10 348.06 C 179.01 340.06 175.16 332.35 171.43 324.63 C 166.16 321.80 160.55 319.48 155.01 317.18 M 303.69 324.60 C 299.69 332.23 296.10 340.14 292.83 348.12 C 300.97 342.64 308.50 336.28 316.30 330.33 C 318.03 326.14 319.39 321.67 319.94 317.14 C 314.52 319.61 308.93 321.78 303.69 324.60 Z" />
<path fill="#8b3d33" opacity="1.00" d=" M 65.96 303.60 C 68.29 301.33 70.53 298.97 73.04 296.90 C 73.60 300.68 73.92 304.70 72.37 308.30 C 70.92 311.81 69.26 315.22 67.96 318.79 C 71.65 322.29 74.92 326.24 78.98 329.33 C 80.59 324.06 79.65 317.84 83.43 313.42 C 85.83 310.18 88.15 306.89 90.56 303.66 C 91.44 305.59 92.28 307.54 93.04 309.53 C 90.56 312.98 88.46 316.69 86.18 320.27 C 84.32 322.80 84.74 326.09 84.73 329.04 C 84.50 333.13 87.73 336.09 89.62 339.39 C 90.84 340.80 91.61 343.58 93.97 343.10 C 98.42 342.76 102.82 341.94 107.25 341.46 C 108.68 343.86 110.03 346.30 111.40 348.74 C 106.98 348.72 102.70 347.26 98.29 347.39 C 92.17 352.22 93.88 360.95 92.40 367.75 C 97.51 370.09 102.81 371.94 108.02 374.04 C 112.09 375.63 116.02 377.65 120.34 378.54 C 120.53 372.38 120.53 366.21 120.36 360.05 C 128.66 371.97 136.94 383.94 144.94 396.06 C 144.13 405.50 142.62 414.91 141.27 424.30 C 123.02 416.81 104.76 409.36 86.62 401.62 C 94.14 400.66 101.65 399.50 109.08 397.98 C 106.10 390.48 102.46 383.27 99.14 375.92 C 98.21 373.01 94.83 371.83 92.05 372.03 C 87.57 373.99 83.58 376.90 79.20 379.06 C 79.11 377.16 79.15 375.25 79.08 373.36 C 81.01 372.25 82.89 371.05 84.74 369.80 C 84.87 362.89 84.84 355.98 84.77 349.07 C 78.68 347.84 72.65 346.11 66.41 345.79 C 65.15 343.46 63.74 341.20 62.59 338.81 C 62.77 338.46 63.13 337.76 63.32 337.41 C 66.51 336.02 69.94 335.28 73.18 333.97 C 70.19 329.06 65.52 325.47 62.46 320.63 C 61.75 316.82 62.78 312.88 61.88 309.11 C 60.03 305.55 57.23 302.56 55.67 298.84 C 59.24 300.09 62.56 301.93 65.96 303.60 Z" />
<path fill="#8b3d33" opacity="1.00" d=" M 401.87 296.90 C 404.42 298.93 406.68 301.30 409.00 303.60 C 412.41 302.06 415.65 300.10 419.22 298.93 C 417.79 302.67 414.93 305.59 413.10 309.12 C 412.23 312.90 413.19 316.85 412.56 320.67 C 409.43 325.42 404.94 329.11 401.82 333.88 C 405.20 335.68 410.34 335.32 412.40 338.83 C 411.26 341.22 409.85 343.46 408.60 345.79 C 402.37 346.21 396.31 347.79 390.22 349.07 C 390.16 355.98 390.15 362.90 390.25 369.82 C 392.10 371.03 393.99 372.21 395.93 373.31 C 395.85 375.23 395.88 377.15 395.79 379.08 C 391.44 376.83 387.42 373.92 382.91 372.01 C 380.14 371.92 376.75 372.99 375.86 375.94 C 372.58 383.29 368.92 390.47 365.92 397.94 C 373.36 399.33 380.84 400.56 388.34 401.67 C 370.24 409.45 351.97 416.86 333.74 424.35 C 332.24 414.95 331.13 405.50 329.89 396.07 C 338.20 384.11 346.23 371.94 354.64 360.05 C 354.41 366.22 354.46 372.39 354.65 378.56 C 357.23 378.04 359.75 377.22 362.15 376.13 C 368.90 373.19 375.89 370.83 382.60 367.78 C 382.07 363.50 381.64 359.21 381.07 354.94 C 380.87 351.81 378.57 349.50 376.82 347.12 C 372.41 347.66 368.03 348.46 363.60 348.74 C 364.96 346.30 366.33 343.84 367.76 341.44 C 372.19 341.95 376.59 342.71 381.04 343.05 C 382.84 343.54 383.69 341.69 384.57 340.54 C 386.36 337.67 388.54 335.01 389.94 331.91 C 390.38 327.82 391.05 323.11 388.43 319.58 C 386.29 316.22 384.32 312.75 381.95 309.55 C 382.71 307.56 383.55 305.61 384.43 303.68 C 386.90 306.85 389.12 310.20 391.52 313.42 C 395.40 317.81 394.36 324.09 396.01 329.35 C 399.90 326.18 403.55 322.62 406.75 318.77 C 405.82 313.64 402.04 309.32 401.58 304.02 C 401.37 301.64 401.64 299.26 401.87 296.90 Z" />
</g>
<g id="#dddf26ff">
<path fill="#dddf26" opacity="1.00" d=" M 202.91 369.43 C 207.31 369.52 212.40 369.89 215.47 373.49 C 218.26 377.31 219.61 381.98 220.61 386.55 L 219.15 386.19 C 214.45 384.75 209.38 382.79 206.46 378.61 C 205.19 375.58 204.86 372.16 202.91 369.43 Z" />
<path fill="#dddf26" opacity="1.00" d=" M 259.54 373.47 C 262.16 370.30 266.50 369.68 270.37 369.49 C 267.33 372.99 268.28 378.51 264.46 381.44 C 261.98 383.63 258.96 385.09 255.85 386.16 L 254.42 386.47 C 255.38 381.91 256.76 377.27 259.54 373.47 Z" />
</g>
<g id="#d2c6b6ff">
<path fill="#d2c6b6" opacity="1.00" d=" M 201.60 393.00 C 204.72 396.78 206.78 401.41 209.13 405.72 C 206.07 408.07 203.09 410.51 200.11 412.96 C 200.06 406.28 201.20 399.66 201.60 393.00 Z" />
<path fill="#d2c6b6" opacity="1.00" d=" M 265.87 405.72 C 268.24 401.44 270.24 396.73 273.43 393.05 C 273.79 399.68 274.89 406.27 274.93 412.92 C 271.92 410.50 268.96 408.03 265.87 405.72 Z" />
<path fill="#d2c6b6" opacity="1.00" d=" M 148.82 400.16 C 155.42 413.15 161.51 426.41 167.70 439.60 C 159.68 434.28 151.27 429.56 143.22 424.29 C 145.21 416.28 146.98 408.21 148.82 400.16 Z" />
<path fill="#d2c6b6" opacity="1.00" d=" M 214.61 400.14 C 216.50 405.59 217.36 411.36 218.56 417.01 C 216.14 418.16 213.76 419.38 211.34 420.53 C 211.99 413.66 213.99 407.00 214.61 400.14 Z" />
<path fill="#d2c6b6" opacity="1.00" d=" M 256.49 416.29 C 257.83 410.94 258.49 405.38 260.41 400.19 C 260.99 407.02 263.03 413.64 263.62 420.46 C 261.35 419.00 258.00 418.50 256.49 416.29 Z" />
<path fill="#d2c6b6" opacity="1.00" d=" M 307.26 439.53 C 313.57 426.41 319.59 413.14 326.15 400.15 C 327.95 408.14 329.90 416.11 331.63 424.11 L 331.26 424.73 C 323.29 429.71 315.26 434.59 307.26 439.53 Z" />
<path fill="#d2c6b6" opacity="1.00" d=" M 220.61 416.90 C 223.71 416.83 226.80 416.84 229.90 416.95 C 227.94 421.15 226.62 425.71 224.17 429.65 C 222.98 425.40 221.69 421.17 220.61 416.90 Z" />
<path fill="#d2c6b6" opacity="1.00" d=" M 245.09 417.02 C 248.19 416.79 251.30 416.84 254.40 416.89 C 253.27 421.19 252.04 425.47 250.76 429.73 C 248.51 425.67 247.04 421.23 245.09 417.02 Z" />
<path fill="#d2c6b6" opacity="1.00" d=" M 47.14 482.88 C 52.32 478.69 56.94 473.74 62.42 469.96 C 64.75 474.96 67.29 479.85 69.75 484.78 C 64.11 484.81 58.47 484.82 52.83 484.78 C 50.90 487.84 49.10 491.00 47.20 494.09 C 47.07 490.36 47.12 486.62 47.14 482.88 Z" />
<path fill="#d2c6b6" opacity="1.00" d=" M 77.38 484.99 C 82.15 479.72 87.28 474.71 92.44 469.82 C 92.80 470.35 93.51 471.40 93.87 471.92 C 97.04 476.83 100.42 481.61 103.50 486.59 C 97.35 486.85 91.19 486.37 85.05 486.86 C 82.19 490.23 79.78 494.01 77.87 498.00 L 77.51 498.00 C 77.21 493.67 77.13 489.31 77.38 484.99 Z" />
<path fill="#d2c6b6" opacity="1.00" d=" M 107.45 484.92 C 113.12 479.85 118.58 474.50 124.62 469.89 C 127.51 475.60 130.89 481.04 133.75 486.77 C 128.14 487.22 122.55 487.84 116.95 488.35 C 113.51 488.50 111.53 491.85 108.62 493.21 L 108.26 492.88 C 107.45 490.30 107.92 487.55 107.45 484.92 Z" />
<path fill="#d2c6b6" opacity="1.00" d=" M 350.39 469.87 C 356.44 474.45 361.85 479.84 367.55 484.85 C 367.06 487.83 367.06 490.86 367.44 493.86 L 366.28 493.16 C 363.98 491.77 362.11 489.68 359.63 488.62 C 353.54 487.75 347.40 487.23 341.26 486.77 C 344.10 481.03 347.51 475.59 350.39 469.87 Z" />
<path fill="#d2c6b6" opacity="1.00" d=" M 381.17 471.92 C 381.56 471.37 382.33 470.28 382.71 469.74 C 387.75 474.54 392.30 479.83 397.47 484.48 C 398.43 488.86 397.55 493.52 397.80 498.00 L 397.43 498.00 C 395.41 494.02 392.61 490.52 390.24 486.76 C 384.02 486.50 377.78 486.82 371.55 486.56 C 374.60 481.58 377.95 476.79 381.17 471.92 Z" />
<path fill="#d2c6b6" opacity="1.00" d=" M 412.55 469.98 C 418.10 473.67 422.71 478.68 427.87 482.90 C 427.83 486.61 428.05 490.33 427.66 494.03 C 425.91 490.89 424.08 487.81 422.17 484.78 C 416.53 484.82 410.89 484.80 405.26 484.79 C 407.68 479.85 410.27 474.99 412.55 469.98 Z" />
</g>
<g id="#171c0aff">
<path fill="#171c0a" opacity="1.00" d=" M 226.14 400.20 C 233.70 399.84 241.31 399.71 248.87 400.19 C 248.53 403.52 247.60 406.90 245.54 409.60 C 241.50 414.16 233.48 414.30 229.48 409.61 C 227.47 406.89 226.42 403.55 226.14 400.20 Z" />
</g>
</svg>
