<?xml version="1.0" encoding="UTF-8" ?>
<!DOCTYPE svg PUBLIC "-//W3C//DTD SVG 1.1//EN" "http://www.w3.org/Graphics/SVG/1.1/DTD/svg11.dtd">
<svg width="505pt" height="479pt" viewBox="0 0 505 479" version="1.1" xmlns="http://www.w3.org/2000/svg">
<g id="#22211fff">
<path fill="#22211f" opacity="1.00" d=" M 7.35 0.00 L 7.74 0.00 C 15.42 4.96 23.31 9.56 30.99 14.51 C 25.43 19.09 22.26 25.75 19.40 32.20 C 15.30 21.50 11.72 10.59 7.35 0.00 Z" />
<path fill="#22211f" opacity="1.00" d=" M 494.07 0.00 L 495.71 0.00 C 491.93 9.16 488.98 18.66 485.20 27.82 C 483.35 23.98 481.14 19.90 477.23 17.82 C 473.13 15.71 468.30 16.22 463.91 16.94 C 466.85 16.32 470.09 16.49 472.68 14.78 C 480.14 9.97 487.57 5.13 495.08 0.40 L 494.07 0.00 Z" />
<path fill="#22211f" opacity="1.00" d=" M 72.87 69.09 C 86.56 80.27 100.31 91.53 115.58 100.51 C 122.66 104.45 130.56 108.90 138.97 107.06 C 144.31 106.45 148.96 103.27 151.94 98.87 C 151.20 104.87 150.02 111.05 151.56 117.03 C 154.03 127.01 159.70 136.03 167.17 143.04 C 160.43 141.87 153.02 140.40 146.59 143.55 C 142.28 145.72 137.76 147.94 134.70 151.80 C 132.81 154.08 132.22 157.06 131.55 159.87 C 129.21 143.88 123.46 127.71 112.28 115.71 C 99.05 100.25 85.66 84.91 72.87 69.09 Z" />
<path fill="#22211f" opacity="1.00" d=" M 381.71 102.67 C 398.81 93.55 413.61 80.88 428.75 68.95 C 416.87 82.99 405.03 97.05 393.03 110.98 C 388.28 116.62 383.03 121.96 379.65 128.59 C 374.54 138.31 371.24 148.96 369.51 159.78 C 369.14 152.02 362.40 147.18 355.99 144.20 C 349.27 140.25 341.23 141.86 333.97 142.95 C 341.60 136.19 347.06 127.05 349.62 117.20 C 351.35 110.86 349.93 104.31 349.15 97.94 C 351.72 103.78 357.97 106.88 364.09 107.32 C 370.35 108.23 376.28 105.42 381.71 102.67 Z" />
<path fill="#22211f" opacity="1.00" d=" M 167.79 103.84 C 171.97 99.35 176.30 94.99 180.82 90.85 C 179.03 99.95 177.14 109.04 175.42 118.15 C 173.22 113.20 171.03 108.22 167.79 103.84 Z" />
<path fill="#22211f" opacity="1.00" d=" M 320.46 90.92 C 325.06 94.92 329.19 99.42 333.49 103.73 C 330.37 108.15 327.83 112.95 326.08 118.08 C 323.77 109.14 322.32 99.97 320.46 90.92 Z" />
<path fill="#22211f" opacity="1.00" d=" M 280.89 98.71 C 285.89 100.44 290.98 101.93 295.92 103.83 C 296.38 109.99 297.14 116.12 297.66 122.27 C 294.80 119.57 292.10 116.34 288.00 115.63 C 285.14 114.77 282.25 114.03 279.34 113.42 C 281.46 112.09 284.16 110.77 284.35 107.91 C 285.25 104.39 283.42 101.04 280.89 98.71 Z" />
<path fill="#22211f" opacity="1.00" d=" M 257.00 100.11 C 262.87 101.50 268.54 103.77 273.37 107.44 C 272.31 110.26 271.61 113.25 271.83 116.29 C 267.48 119.32 262.74 121.73 258.12 124.32 C 257.85 136.67 258.16 149.01 257.93 161.36 C 256.38 153.47 255.94 145.40 254.10 137.56 C 251.56 138.99 249.13 140.59 246.75 142.27 C 247.51 138.79 248.69 135.43 250.19 132.20 C 247.32 131.76 244.46 131.20 241.64 130.50 C 246.24 127.17 251.73 124.34 254.18 118.90 C 254.35 115.50 251.03 113.47 248.94 111.30 C 252.15 108.76 256.33 108.95 260.20 109.02 C 260.35 105.69 258.86 102.76 257.00 100.11 M 268.98 112.84 C 271.54 112.92 270.66 109.82 270.82 108.21 C 270.09 108.06 268.64 107.74 267.92 107.59 C 264.64 108.30 265.56 113.78 268.98 112.84 Z" />
<path fill="#22211f" opacity="1.00" d=" M 130.31 164.88 C 134.19 174.26 140.72 184.42 151.46 186.40 C 160.41 187.17 169.39 186.10 178.29 185.13 C 170.63 190.03 162.85 194.91 156.26 201.23 C 153.93 203.59 151.49 206.17 150.75 209.52 C 149.40 216.08 150.96 222.69 152.08 229.15 C 144.34 219.90 133.90 210.71 121.04 211.26 C 97.95 212.06 74.97 214.70 51.96 216.69 C 71.11 211.13 90.42 205.72 108.62 197.46 C 113.98 194.77 119.80 192.26 123.72 187.56 C 128.03 180.84 130.37 172.87 130.31 164.88 Z" />
<path fill="#22211f" opacity="1.00" d=" M 349.60 186.42 C 360.34 184.51 367.14 174.41 370.77 164.89 C 371.03 173.06 373.21 181.32 377.90 188.07 C 381.32 191.87 386.04 194.13 390.51 196.43 C 409.22 205.37 429.32 210.77 449.11 216.70 C 426.11 214.64 403.12 212.02 380.02 211.25 C 367.14 210.80 356.72 220.05 349.00 229.35 C 350.36 221.76 352.85 213.18 348.96 205.98 C 342.25 196.90 332.17 191.18 322.86 185.12 C 331.72 186.10 340.68 187.13 349.60 186.42 Z" />
<path fill="#22211f" opacity="1.00" d=" M 174.18 240.72 C 192.02 236.29 208.41 226.43 220.98 213.06 C 214.93 222.57 208.86 232.17 204.55 242.63 C 202.51 247.83 200.57 253.57 202.16 259.17 C 203.97 266.86 209.02 273.17 214.19 278.91 C 200.42 275.11 184.74 273.67 171.77 280.79 C 150.56 291.65 130.42 304.71 111.97 319.80 C 122.05 307.57 132.30 295.48 141.85 282.83 C 146.64 276.26 151.82 269.88 155.45 262.57 C 158.56 254.22 159.76 244.37 155.23 236.28 C 160.81 239.74 167.53 242.67 174.18 240.72 Z" />
<path fill="#22211f" opacity="1.00" d=" M 280.22 212.89 C 292.68 226.47 309.25 236.25 327.11 240.74 C 333.76 242.63 340.51 239.75 346.04 236.20 C 341.59 243.99 342.65 253.47 345.39 261.65 C 347.49 266.56 350.71 270.90 353.77 275.26 C 365.06 290.67 377.12 305.53 389.66 319.95 C 372.86 306.45 354.89 294.42 335.95 284.12 C 330.12 281.03 324.22 277.72 317.64 276.58 C 307.39 274.75 296.85 276.21 286.89 278.92 C 293.95 271.48 301.17 261.75 299.26 250.90 C 295.87 236.97 287.54 224.98 280.22 212.89 Z" />
<path fill="#22211f" opacity="1.00" d=" M 489.04 217.94 C 494.30 223.89 499.65 229.76 505.00 235.62 L 505.00 235.67 C 498.62 235.78 492.24 235.72 485.86 235.73 C 489.87 230.74 490.65 224.02 489.04 217.94 Z" />
<path fill="#22211f" opacity="1.00" d=" M 250.45 220.25 C 251.28 224.47 250.52 228.85 251.20 233.11 C 252.75 246.87 255.53 261.46 264.63 272.40 C 268.44 277.19 274.08 279.95 280.01 281.11 C 271.84 282.90 266.43 289.98 262.82 297.04 C 254.93 312.48 252.13 329.86 250.38 346.93 C 250.44 336.81 248.69 326.77 246.32 316.96 C 243.75 307.03 240.41 297.05 234.40 288.62 C 231.01 283.93 226.12 279.64 220.06 279.38 C 223.94 278.49 228.01 277.70 231.31 275.31 C 237.74 270.81 241.85 263.74 244.55 256.51 C 248.81 244.94 250.40 232.52 250.45 220.25 Z" />
<path fill="#22211f" opacity="1.00" d=" M 0.00 235.44 C 4.51 231.06 8.46 226.12 12.84 221.61 C 12.22 224.36 11.57 227.15 11.62 229.99 C 12.92 232.13 14.72 233.90 16.50 235.63 C 11.00 235.86 5.50 235.60 0.00 235.81 L 0.00 235.44 Z" />
<path fill="#22211f" opacity="1.00" d=" M 418.91 360.61 C 423.31 358.69 427.06 355.61 430.30 352.11 C 437.10 362.13 443.72 372.30 450.02 382.64 C 439.71 375.21 429.29 367.94 418.91 360.61 Z" />
<path fill="#22211f" opacity="1.00" d=" M 54.91 380.75 C 60.16 372.20 65.71 363.85 71.18 355.45 C 73.57 358.66 76.88 361.10 80.59 362.57 C 72.07 368.69 63.49 374.72 54.91 380.75 Z" />
<path fill="#22211f" opacity="1.00" d=" M 167.68 384.15 C 168.01 375.89 170.69 367.88 174.88 360.80 C 174.17 365.55 173.80 371.26 178.00 374.59 C 174.04 377.18 170.85 380.69 167.68 384.15 Z" />
<path fill="#22211f" opacity="1.00" d=" M 326.30 360.63 C 330.50 367.82 333.18 375.91 333.62 384.26 C 330.40 380.77 327.27 377.11 323.18 374.61 C 327.53 371.26 327.09 365.47 326.30 360.63 Z" />
<path fill="#22211f" opacity="1.00" d=" M 235.49 418.48 C 240.79 411.83 245.48 404.72 250.65 397.97 C 255.77 404.69 260.37 411.80 265.72 418.35 C 265.61 427.91 265.76 437.48 265.65 447.05 C 265.65 450.14 265.53 453.77 268.13 455.97 C 271.65 459.04 276.75 458.08 281.05 458.60 C 315.52 461.14 349.92 464.83 384.19 469.35 C 395.50 471.05 406.95 472.28 417.98 475.40 C 371.24 476.41 324.50 478.07 277.75 479.00 L 258.37 479.00 C 252.59 478.44 246.10 478.58 241.34 474.73 C 236.64 470.56 236.07 463.79 235.68 457.92 C 235.32 444.78 235.71 431.63 235.49 418.48 Z" />
</g>
<g id="#505374ff">
<path fill="#505374" opacity="1.00" d=" M 19.40 32.20 C 22.26 25.75 25.43 19.09 30.99 14.51 C 34.44 16.29 38.43 16.35 42.12 17.35 C 63.69 22.46 84.52 30.91 103.41 42.53 C 124.52 55.58 143.61 72.45 157.65 93.01 C 153.17 90.02 149.52 86.02 145.38 82.62 C 133.26 72.39 120.22 63.16 106.02 56.06 C 104.26 57.12 102.34 59.32 100.12 58.09 C 97.85 57.06 98.25 54.23 97.78 52.22 C 91.30 49.67 84.64 47.56 77.79 46.29 C 77.01 49.56 74.93 53.47 70.92 52.75 C 67.02 52.55 65.85 48.35 65.62 45.14 C 57.01 45.33 48.34 49.20 43.64 56.63 C 35.80 68.76 35.19 83.93 35.81 97.92 C 36.73 113.26 39.72 128.51 45.04 142.94 C 43.14 143.99 40.44 144.60 39.91 147.04 C 39.16 150.53 39.65 154.97 42.73 157.24 C 45.93 159.27 49.81 158.16 53.15 157.15 C 58.50 162.72 64.36 167.90 71.30 171.41 C 59.58 178.54 48.69 187.95 42.88 200.65 C 45.23 199.05 47.94 197.28 50.93 198.26 C 55.65 199.35 58.08 205.43 55.42 209.48 C 53.16 213.49 47.12 214.28 43.85 211.08 C 41.47 209.11 41.62 205.82 41.42 203.03 C 40.88 204.98 40.32 206.92 39.76 208.87 C 41.49 210.51 44.08 212.30 43.23 215.08 C 42.79 217.80 39.85 218.48 37.69 219.30 C 38.20 227.83 43.72 235.35 50.46 240.25 C 51.79 238.67 52.82 236.45 55.03 235.93 C 58.65 234.72 62.79 238.21 62.09 241.99 C 61.66 243.59 60.89 245.06 60.19 246.55 C 71.52 251.33 83.70 253.83 95.96 254.53 C 91.19 262.59 87.77 271.34 85.29 280.35 C 87.86 281.37 90.92 282.00 92.57 284.45 C 95.39 288.11 94.44 294.01 90.48 296.47 C 88.31 298.09 85.48 297.75 82.95 297.93 C 82.69 306.54 83.58 315.49 87.85 323.14 C 91.26 329.36 96.80 334.40 103.38 337.09 C 105.01 335.24 107.16 332.85 109.91 334.06 C 112.78 334.83 112.89 338.14 113.49 340.51 C 115.50 340.68 117.50 340.86 119.51 341.04 C 119.11 338.89 118.13 336.47 119.60 334.49 C 121.53 331.22 126.75 331.06 128.92 334.18 C 130.59 336.17 129.60 338.86 129.35 341.16 C 154.09 338.86 176.33 326.58 197.02 313.67 C 175.21 340.20 143.08 357.72 109.15 362.56 C 99.72 363.85 89.94 365.10 80.59 362.57 C 76.88 361.10 73.57 358.66 71.18 355.45 C 65.57 345.61 66.20 333.87 65.97 322.95 C 65.40 302.60 70.74 282.48 79.10 264.06 C 55.57 262.86 33.51 251.56 16.50 235.63 C 14.72 233.90 12.92 232.13 11.62 229.99 C 11.57 227.15 12.22 224.36 12.84 221.61 C 18.75 203.90 30.87 188.95 45.17 177.23 C 38.42 171.89 32.08 165.90 27.26 158.73 C 16.07 142.44 13.07 122.24 11.86 102.94 C 10.65 79.23 10.79 54.68 19.40 32.20 Z" />
<path fill="#505374" opacity="1.00" d=" M 368.77 67.77 C 396.06 43.99 428.27 24.74 463.91 16.94 C 468.30 16.22 473.13 15.71 477.23 17.82 C 481.14 19.90 483.35 23.98 485.20 27.82 C 488.09 36.32 489.43 45.23 490.58 54.10 C 492.63 70.67 493.37 87.46 491.89 104.11 C 490.62 117.85 487.90 131.63 482.23 144.28 C 476.70 156.86 467.76 168.07 456.05 175.39 C 469.02 187.79 482.11 201.07 489.04 217.94 C 490.65 224.02 489.87 230.74 485.86 235.73 C 480.65 242.15 473.46 246.56 466.10 250.11 C 452.16 256.77 437.12 260.67 422.11 264.08 C 429.02 282.72 434.52 302.10 435.92 322.00 C 436.62 332.30 435.46 342.99 430.30 352.11 C 427.06 355.61 423.31 358.69 418.91 360.61 C 405.89 365.60 391.51 362.68 378.75 358.31 C 357.38 350.70 337.99 338.55 319.50 325.58 C 314.19 321.76 308.83 317.99 303.90 313.69 C 307.61 315.27 310.83 317.71 314.25 319.80 C 322.78 324.86 331.61 329.48 340.83 333.16 C 341.22 330.22 341.23 326.78 343.78 324.76 C 347.96 320.48 356.22 322.65 357.63 328.51 C 358.88 331.99 356.90 335.30 355.00 338.07 C 371.69 342.72 391.74 343.64 405.96 332.17 C 405.50 329.62 404.41 326.53 406.53 324.40 C 408.27 322.18 411.33 322.72 413.81 322.58 C 417.22 315.67 418.33 307.94 418.38 300.30 C 419.96 299.61 421.62 299.02 423.08 298.06 C 426.43 295.57 426.70 290.10 423.79 287.17 C 421.99 285.10 419.07 285.05 416.61 284.48 C 414.73 273.95 410.67 263.96 405.42 254.69 C 416.11 253.64 426.87 252.10 436.94 248.16 C 437.41 246.10 437.10 243.33 439.28 242.15 C 441.65 240.39 444.31 242.20 446.42 243.43 C 454.05 238.78 460.78 231.79 463.07 222.96 C 464.32 216.81 461.80 210.79 460.43 204.89 C 462.01 203.30 464.50 202.34 465.08 199.97 C 466.21 196.69 464.22 192.73 460.85 191.79 C 458.52 190.90 456.21 192.27 453.99 192.86 C 447.71 183.94 439.15 176.97 429.84 171.43 C 445.08 163.38 456.37 149.02 462.16 132.93 C 467.02 120.06 468.33 106.13 467.65 92.47 C 465.22 93.44 462.67 94.78 459.99 94.12 C 455.71 93.44 452.23 89.40 452.26 85.06 C 452.05 80.91 455.03 76.85 459.06 75.82 C 460.89 75.48 462.76 75.59 464.61 75.59 C 461.21 65.22 456.26 54.34 446.56 48.46 C 439.88 44.25 431.62 45.03 424.19 46.22 C 401.56 50.18 381.49 62.61 363.52 76.38 C 356.93 81.23 351.24 87.16 344.66 92.01 C 351.76 83.07 360.30 75.39 368.77 67.77 Z" />
<path fill="#505374" opacity="1.00" d=" M 234.90 101.76 C 202.13 89.23 174.38 61.51 166.10 26.90 C 181.21 47.58 200.04 65.64 221.78 79.24 C 232.23 85.56 243.32 91.06 255.10 94.39 C 258.20 95.43 260.65 93.01 262.22 90.65 C 268.35 92.64 274.14 95.46 279.91 98.32 C 276.07 99.69 274.98 104.13 273.37 107.44 C 268.54 103.77 262.87 101.50 257.00 100.11 C 258.86 102.76 260.35 105.69 260.20 109.02 C 256.33 108.95 252.15 108.76 248.94 111.30 C 251.03 113.47 254.35 115.50 254.18 118.90 C 251.73 124.34 246.24 127.17 241.64 130.50 C 244.46 131.20 247.32 131.76 250.19 132.20 C 248.69 135.43 247.51 138.79 246.75 142.27 C 249.13 140.59 251.56 138.99 254.10 137.56 C 255.94 145.40 256.38 153.47 257.93 161.36 C 258.01 171.83 258.10 182.30 257.86 192.77 C 255.36 188.94 253.14 184.93 250.66 181.09 C 247.37 186.10 244.10 191.18 241.78 196.73 C 240.87 198.92 239.83 201.16 237.81 202.55 C 238.04 180.09 231.96 157.96 222.38 137.77 C 228.18 133.60 233.82 128.84 237.29 122.49 C 223.40 116.91 210.15 109.69 198.00 100.94 C 181.69 89.12 166.60 73.30 162.09 53.06 C 180.07 76.58 205.22 96.30 234.90 101.76 M 250.39 162.70 C 248.64 166.81 246.83 170.91 245.19 175.07 C 247.07 173.97 248.92 172.82 250.77 171.67 C 252.49 172.83 254.23 173.96 256.02 175.03 C 254.23 170.88 252.93 166.47 250.39 162.70 Z" />
<path fill="#505374" opacity="1.00" d=" M 427.41 47.46 C 432.59 45.67 438.32 50.79 437.01 56.15 C 436.21 61.63 428.59 64.27 424.64 60.32 C 420.18 56.81 421.95 48.89 427.41 47.46 Z" />
<path fill="#505374" opacity="1.00" d=" M 78.10 53.26 C 81.37 51.43 85.56 54.83 84.66 58.38 C 84.30 61.60 80.16 63.35 77.56 61.48 C 74.47 59.78 74.76 54.50 78.10 53.26 Z" />
<path fill="#505374" opacity="1.00" d=" M 405.34 55.46 C 408.15 53.37 412.57 55.60 412.66 59.07 C 413.04 62.40 409.18 65.22 406.13 63.74 C 402.74 62.54 402.18 57.27 405.34 55.46 Z" />
<path fill="#505374" opacity="1.00" d=" M 448.24 59.22 C 452.27 56.87 458.13 60.19 457.86 64.94 C 458.31 70.14 451.55 73.61 447.48 70.44 C 443.50 67.87 443.95 61.24 448.24 59.22 Z" />
<path fill="#505374" opacity="1.00" d=" M 48.14 61.21 C 53.85 58.12 61.40 63.56 60.21 69.96 C 59.64 75.94 51.95 79.50 47.10 75.85 C 41.73 72.61 42.37 63.66 48.14 61.21 Z" />
<path fill="#505374" opacity="1.00" d=" M 111.40 62.55 C 113.77 61.41 116.96 63.26 116.81 65.97 C 117.01 68.91 113.27 70.86 110.91 69.16 C 108.63 67.57 108.89 63.77 111.40 62.55 Z" />
<path fill="#505374" opacity="1.00" d=" M 440.33 76.41 C 442.45 74.20 446.69 76.07 446.56 79.09 C 446.77 81.74 443.69 83.86 441.31 82.64 C 438.88 81.73 438.20 77.99 440.33 76.41 Z" />
<path fill="#505374" opacity="1.00" d=" M 42.13 89.14 C 45.30 87.28 49.70 90.41 48.92 94.03 C 48.60 97.31 44.39 99.23 41.70 97.31 C 38.71 95.52 38.95 90.60 42.13 89.14 Z" />
<path fill="#505374" opacity="1.00" d=" M 438.36 93.42 C 442.43 90.61 448.63 93.96 448.45 98.92 C 448.74 103.64 443.15 107.15 439.00 104.95 C 434.43 103.00 434.01 95.86 438.36 93.42 Z" />
<path fill="#505374" opacity="1.00" d=" M 454.17 106.23 C 458.54 103.91 464.24 108.00 463.50 112.89 C 463.26 117.91 456.47 120.70 452.78 117.32 C 449.05 114.53 449.86 108.02 454.17 106.23 Z" />
<path fill="#505374" opacity="1.00" d=" M 46.28 113.39 C 50.76 111.91 55.54 116.30 54.52 120.88 C 53.94 125.63 47.60 128.11 43.99 124.92 C 39.73 121.96 41.23 114.53 46.28 113.39 Z" />
<path fill="#505374" opacity="1.00" d=" M 56.18 136.24 C 60.29 134.21 65.34 138.68 63.84 143.02 C 62.88 147.01 57.25 148.48 54.46 145.47 C 51.57 142.89 52.58 137.61 56.18 136.24 Z" />
<path fill="#505374" opacity="1.00" d=" M 64.15 155.06 C 66.39 153.73 69.58 155.51 69.70 158.09 C 70.15 161.15 66.02 163.53 63.67 161.38 C 61.46 159.83 61.89 156.35 64.15 155.06 Z" />
<path fill="#505374" opacity="1.00" d=" M 434.33 177.38 C 437.27 176.43 440.22 180.05 438.63 182.74 C 437.50 185.40 433.40 185.43 432.05 182.98 C 430.68 180.95 432.03 177.94 434.33 177.38 Z" />
<path fill="#505374" opacity="1.00" d=" M 55.23 187.24 C 58.02 185.57 61.98 187.71 62.16 190.95 C 62.72 194.45 58.44 197.42 55.36 195.62 C 51.98 194.14 51.94 188.84 55.23 187.24 Z" />
<path fill="#505374" opacity="1.00" d=" M 440.27 189.34 C 445.90 186.46 453.17 191.75 452.11 197.99 C 451.84 204.48 443.12 207.96 438.37 203.60 C 433.58 199.96 434.68 191.59 440.27 189.34 Z" />
<path fill="#505374" opacity="1.00" d=" M 428.20 198.28 C 430.92 197.01 434.39 200.07 433.18 202.92 C 432.47 205.68 428.47 206.47 426.76 204.20 C 425.03 202.34 425.93 199.21 428.20 198.28 Z" />
<path fill="#505374" opacity="1.00" d=" M 454.08 206.04 C 456.36 204.61 459.60 206.38 459.75 209.02 C 460.23 212.09 456.08 214.41 453.74 212.31 C 451.57 210.81 451.87 207.35 454.08 206.04 Z" />
<path fill="#505374" opacity="1.00" d=" M 442.31 225.31 C 446.78 222.41 453.24 226.76 452.15 232.00 C 451.65 236.73 445.48 239.28 441.75 236.36 C 437.98 233.79 438.28 227.47 442.31 225.31 Z" />
<path fill="#505374" opacity="1.00" d=" M 46.31 227.43 C 48.37 225.09 52.93 226.76 52.74 229.92 C 52.98 232.38 50.34 234.47 47.98 233.72 C 45.29 233.15 44.25 229.24 46.31 227.43 Z" />
<path fill="#505374" opacity="1.00" d=" M 427.17 236.28 C 431.29 233.97 436.63 238.56 435.04 242.97 C 434.07 246.99 428.37 248.42 425.60 245.38 C 422.89 242.79 423.76 237.82 427.17 236.28 Z" />
<path fill="#505374" opacity="1.00" d=" M 94.14 274.05 C 96.73 272.12 100.58 274.95 99.79 277.98 C 99.34 280.61 95.83 281.93 93.79 280.18 C 91.67 278.75 91.91 275.23 94.14 274.05 Z" />
<path fill="#505374" opacity="1.00" d=" M 406.32 279.38 C 409.72 278.00 413.56 281.45 412.52 284.97 C 411.85 288.41 407.11 289.69 404.69 287.24 C 402.13 285.06 403.13 280.39 406.32 279.38 Z" />
<path fill="#505374" opacity="1.00" d=" M 406.34 296.50 C 411.75 294.36 418.23 300.41 416.05 305.95 C 414.65 311.02 407.58 312.87 403.84 309.21 C 399.64 305.71 401.16 298.17 406.34 296.50 Z" />
<path fill="#505374" opacity="1.00" d=" M 92.28 302.27 C 94.79 300.48 98.43 303.08 97.95 305.98 C 97.65 308.52 94.43 310.30 92.24 308.70 C 89.88 307.37 89.89 303.56 92.28 302.27 Z" />
<path fill="#505374" opacity="1.00" d=" M 297.99 310.51 C 303.06 316.41 307.26 322.99 311.46 329.53 C 317.68 339.22 322.94 349.58 326.30 360.63 C 327.09 365.47 327.53 371.26 323.18 374.61 C 316.28 378.09 308.25 378.07 301.26 381.30 C 297.32 383.09 294.20 386.15 290.98 388.95 C 284.75 394.40 278.52 399.91 273.10 406.19 C 270.00 409.80 267.05 413.71 265.72 418.35 C 260.37 411.80 255.77 404.69 250.65 397.97 C 245.48 404.72 240.79 411.83 235.49 418.48 C 234.36 414.16 231.72 410.48 228.91 407.10 C 223.29 400.40 216.72 394.59 210.16 388.85 C 207.10 386.16 204.10 383.28 200.39 381.51 C 193.31 378.02 185.05 378.15 178.00 374.59 C 173.80 371.26 174.17 365.55 174.88 360.80 C 180.34 342.93 190.57 326.94 201.87 312.24 C 201.72 316.17 199.61 319.56 198.20 323.12 C 192.85 336.31 188.46 350.00 186.53 364.15 C 190.56 366.86 195.07 368.82 199.91 369.51 C 205.35 360.85 210.79 352.17 216.54 343.70 C 216.91 354.17 216.60 364.66 216.68 375.14 C 221.93 377.26 227.06 379.64 232.18 382.05 C 233.80 383.33 234.46 381.02 235.09 380.02 C 240.17 369.64 245.43 359.35 250.51 348.98 C 256.52 360.11 261.74 371.63 267.68 382.79 C 273.17 380.06 278.73 377.48 284.45 375.27 C 284.76 364.94 284.23 354.59 284.74 344.26 C 291.07 352.28 295.77 361.44 301.73 369.73 C 306.29 368.49 310.79 366.87 314.69 364.13 C 312.34 347.17 306.56 330.89 299.66 315.30 C 299.02 313.73 298.52 312.11 297.99 310.51 Z" />
<path fill="#505374" opacity="1.00" d=" M 91.24 315.37 C 94.36 313.74 98.47 316.62 97.94 320.10 C 97.84 323.63 93.20 325.65 90.48 323.44 C 87.64 321.52 88.08 316.71 91.24 315.37 Z" />
<path fill="#505374" opacity="1.00" d=" M 369.34 328.43 C 372.92 327.06 377.15 330.16 376.84 334.00 C 376.93 338.38 371.18 341.12 367.80 338.31 C 364.22 335.84 365.19 329.70 369.34 328.43 Z" />
<path fill="#505374" opacity="1.00" d=" M 386.36 330.49 C 389.07 328.74 392.93 331.86 391.74 334.86 C 391.15 337.17 388.10 338.38 386.15 336.94 C 383.78 335.56 383.89 331.72 386.36 330.49 Z" />
</g>
<g id="#8fa7d5ff">
<path fill="#8fa7d5" opacity="1.00" d=" M 43.64 56.63 C 48.34 49.20 57.01 45.33 65.62 45.14 C 65.85 48.35 67.02 52.55 70.92 52.75 C 74.93 53.47 77.01 49.56 77.79 46.29 C 84.64 47.56 91.30 49.67 97.78 52.22 C 98.25 54.23 97.85 57.06 100.12 58.09 C 102.34 59.32 104.26 57.12 106.02 56.06 C 120.22 63.16 133.26 72.39 145.38 82.62 C 149.52 86.02 153.17 90.02 157.65 93.01 C 165.30 101.34 171.42 111.33 173.67 122.52 C 174.79 128.34 174.06 134.26 173.45 140.09 C 172.86 144.37 174.21 148.58 175.62 152.56 C 179.00 161.70 184.24 170.11 190.72 177.37 C 202.49 190.80 218.88 199.56 236.08 203.84 C 236.51 203.52 237.38 202.87 237.81 202.55 C 239.83 201.16 240.87 198.92 241.78 196.73 C 244.10 191.18 247.37 186.10 250.66 181.09 C 253.14 184.93 255.36 188.94 257.86 192.77 C 258.10 182.30 258.01 171.83 257.93 161.36 C 258.16 149.01 257.85 136.67 258.12 124.32 C 262.74 121.73 267.48 119.32 271.83 116.29 C 271.61 113.25 272.31 110.26 273.37 107.44 C 274.98 104.13 276.07 99.69 279.91 98.32 L 280.89 98.71 C 283.42 101.04 285.25 104.39 284.35 107.91 C 284.16 110.77 281.46 112.09 279.34 113.42 C 282.25 114.03 285.14 114.77 288.00 115.63 C 274.48 143.07 266.58 173.19 264.00 203.64 C 269.98 203.06 275.59 200.67 281.11 198.44 C 302.23 189.48 319.64 171.46 326.63 149.48 C 329.72 141.16 325.62 132.38 327.35 123.86 C 329.46 111.76 335.96 100.59 344.66 92.01 C 351.24 87.16 356.93 81.23 363.52 76.38 C 381.49 62.61 401.56 50.18 424.19 46.22 C 431.62 45.03 439.88 44.25 446.56 48.46 C 456.26 54.34 461.21 65.22 464.61 75.59 C 462.76 75.59 460.89 75.48 459.06 75.82 C 455.03 76.85 452.05 80.91 452.26 85.06 C 452.23 89.40 455.71 93.44 459.99 94.12 C 462.67 94.78 465.22 93.44 467.65 92.47 C 468.33 106.13 467.02 120.06 462.16 132.93 C 456.37 149.02 445.08 163.38 429.84 171.43 C 439.15 176.97 447.71 183.94 453.99 192.86 C 456.21 192.27 458.52 190.90 460.85 191.79 C 464.22 192.73 466.21 196.69 465.08 199.97 C 464.50 202.34 462.01 203.30 460.43 204.89 C 461.80 210.79 464.32 216.81 463.07 222.96 C 460.78 231.79 454.05 238.78 446.42 243.43 C 444.31 242.20 441.65 240.39 439.28 242.15 C 437.10 243.33 437.41 246.10 436.94 248.16 C 426.87 252.10 416.11 253.64 405.42 254.69 C 410.67 263.96 414.73 273.95 416.61 284.48 C 419.07 285.05 421.99 285.10 423.79 287.17 C 426.70 290.10 426.43 295.57 423.08 298.06 C 421.62 299.02 419.96 299.61 418.38 300.30 C 418.33 307.94 417.22 315.67 413.81 322.58 C 411.33 322.72 408.27 322.18 406.53 324.40 C 404.41 326.53 405.50 329.62 405.96 332.17 C 391.74 343.64 371.69 342.72 355.00 338.07 C 356.90 335.30 358.88 331.99 357.63 328.51 C 356.22 322.65 347.96 320.48 343.78 324.76 C 341.23 326.78 341.22 330.22 340.83 333.16 C 331.61 329.48 322.78 324.86 314.25 319.80 C 310.83 317.71 307.61 315.27 303.90 313.69 C 301.32 311.77 298.78 309.81 296.19 307.90 C 296.79 308.77 297.39 309.64 297.99 310.51 C 298.52 312.11 299.02 313.73 299.66 315.30 C 306.56 330.89 312.34 347.17 314.69 364.13 C 310.79 366.87 306.29 368.49 301.73 369.73 C 295.77 361.44 291.07 352.28 284.74 344.26 C 284.23 354.59 284.76 364.94 284.45 375.27 C 278.73 377.48 273.17 380.06 267.68 382.79 C 261.74 371.63 256.52 360.11 250.51 348.98 C 245.43 359.35 240.17 369.64 235.09 380.02 C 234.46 381.02 233.80 383.33 232.18 382.05 C 227.06 379.64 221.93 377.26 216.68 375.14 C 216.60 364.66 216.91 354.17 216.54 343.70 C 210.79 352.17 205.35 360.85 199.91 369.51 C 195.07 368.82 190.56 366.86 186.53 364.15 C 188.46 350.00 192.85 336.31 198.20 323.12 C 199.61 319.56 201.72 316.17 201.87 312.24 C 203.00 310.80 204.05 309.30 205.09 307.80 C 202.30 309.61 199.55 311.50 197.02 313.67 C 176.33 326.58 154.09 338.86 129.35 341.16 C 129.60 338.86 130.59 336.17 128.92 334.18 C 126.75 331.06 121.53 331.22 119.60 334.49 C 118.13 336.47 119.11 338.89 119.51 341.04 C 117.50 340.86 115.50 340.68 113.49 340.51 C 112.89 338.14 112.78 334.83 109.91 334.06 C 107.16 332.85 105.01 335.24 103.38 337.09 C 96.80 334.40 91.26 329.36 87.85 323.14 C 83.58 315.49 82.69 306.54 82.95 297.93 C 85.48 297.75 88.31 298.09 90.48 296.47 C 94.44 294.01 95.39 288.11 92.57 284.45 C 90.92 282.00 87.86 281.37 85.29 280.35 C 87.77 271.34 91.19 262.59 95.96 254.53 C 83.70 253.83 71.52 251.33 60.19 246.55 C 60.89 245.06 61.66 243.59 62.09 241.99 C 62.79 238.21 58.65 234.72 55.03 235.93 C 52.82 236.45 51.79 238.67 50.46 240.25 C 43.72 235.35 38.20 227.83 37.69 219.30 C 39.85 218.48 42.79 217.80 43.23 215.08 C 44.08 212.30 41.49 210.51 39.76 208.87 C 40.32 206.92 40.88 204.98 41.42 203.03 C 41.62 205.82 41.47 209.11 43.85 211.08 C 47.12 214.28 53.16 213.49 55.42 209.48 C 58.08 205.43 55.65 199.35 50.93 198.26 C 47.94 197.28 45.23 199.05 42.88 200.65 C 48.69 187.95 59.58 178.54 71.30 171.41 C 64.36 167.90 58.50 162.72 53.15 157.15 C 49.81 158.16 45.93 159.27 42.73 157.24 C 39.65 154.97 39.16 150.53 39.91 147.04 C 40.44 144.60 43.14 143.99 45.04 142.94 C 39.72 128.51 36.73 113.26 35.81 97.92 C 35.19 83.93 35.80 68.76 43.64 56.63 M 427.41 47.46 C 421.95 48.89 420.18 56.81 424.64 60.32 C 428.59 64.27 436.21 61.63 437.01 56.15 C 438.32 50.79 432.59 45.67 427.41 47.46 M 78.10 53.26 C 74.76 54.50 74.47 59.78 77.56 61.48 C 80.16 63.35 84.30 61.60 84.66 58.38 C 85.56 54.83 81.37 51.43 78.10 53.26 M 405.34 55.46 C 402.18 57.27 402.74 62.54 406.13 63.74 C 409.18 65.22 413.04 62.40 412.66 59.07 C 412.57 55.60 408.15 53.37 405.34 55.46 M 448.24 59.22 C 443.95 61.24 443.50 67.87 447.48 70.44 C 451.55 73.61 458.31 70.14 457.86 64.94 C 458.13 60.19 452.27 56.87 448.24 59.22 M 48.14 61.21 C 42.37 63.66 41.73 72.61 47.10 75.85 C 51.95 79.50 59.64 75.94 60.21 69.96 C 61.40 63.56 53.85 58.12 48.14 61.21 M 111.40 62.55 C 108.89 63.77 108.63 67.57 110.91 69.16 C 113.27 70.86 117.01 68.91 116.81 65.97 C 116.96 63.26 113.77 61.41 111.40 62.55 M 72.87 69.09 C 85.66 84.91 99.05 100.25 112.28 115.71 C 123.46 127.71 129.21 143.88 131.55 159.87 C 132.22 157.06 132.81 154.08 134.70 151.80 C 137.76 147.94 142.28 145.72 146.59 143.55 C 153.02 140.40 160.43 141.87 167.17 143.04 C 159.70 136.03 154.03 127.01 151.56 117.03 C 150.02 111.05 151.20 104.87 151.94 98.87 C 148.96 103.27 144.31 106.45 138.97 107.06 C 130.56 108.90 122.66 104.45 115.58 100.51 C 100.31 91.53 86.56 80.27 72.87 69.09 M 381.71 102.67 C 376.28 105.42 370.35 108.23 364.09 107.32 C 357.97 106.88 351.72 103.78 349.15 97.94 C 349.93 104.31 351.35 110.86 349.62 117.20 C 347.06 127.05 341.60 136.19 333.97 142.95 C 341.23 141.86 349.27 140.25 355.99 144.20 C 362.40 147.18 369.14 152.02 369.51 159.78 C 371.24 148.96 374.54 138.31 379.65 128.59 C 383.03 121.96 388.28 116.62 393.03 110.98 C 405.03 97.05 416.87 82.99 428.75 68.95 C 413.61 80.88 398.81 93.55 381.71 102.67 M 440.33 76.41 C 438.20 77.99 438.88 81.73 441.31 82.64 C 443.69 83.86 446.77 81.74 446.56 79.09 C 446.69 76.07 442.45 74.20 440.33 76.41 M 42.13 89.14 C 38.95 90.60 38.71 95.52 41.70 97.31 C 44.39 99.23 48.60 97.31 48.92 94.03 C 49.70 90.41 45.30 87.28 42.13 89.14 M 438.36 93.42 C 434.01 95.86 434.43 103.00 439.00 104.95 C 443.15 107.15 448.74 103.64 448.45 98.92 C 448.63 93.96 442.43 90.61 438.36 93.42 M 454.17 106.23 C 449.86 108.02 449.05 114.53 452.78 117.32 C 456.47 120.70 463.26 117.91 463.50 112.89 C 464.24 108.00 458.54 103.91 454.17 106.23 M 46.28 113.39 C 41.23 114.53 39.73 121.96 43.99 124.92 C 47.60 128.11 53.94 125.63 54.52 120.88 C 55.54 116.30 50.76 111.91 46.28 113.39 M 56.18 136.24 C 52.58 137.61 51.57 142.89 54.46 145.47 C 57.25 148.48 62.88 147.01 63.84 143.02 C 65.34 138.68 60.29 134.21 56.18 136.24 M 64.15 155.06 C 61.89 156.35 61.46 159.83 63.67 161.38 C 66.02 163.53 70.15 161.15 69.70 158.09 C 69.58 155.51 66.39 153.73 64.15 155.06 M 130.31 164.88 C 130.37 172.87 128.03 180.84 123.72 187.56 C 119.80 192.26 113.98 194.77 108.62 197.46 C 90.42 205.72 71.11 211.13 51.96 216.69 C 74.97 214.70 97.95 212.06 121.04 211.26 C 133.90 210.71 144.34 219.90 152.08 229.15 C 150.96 222.69 149.40 216.08 150.75 209.52 C 151.49 206.17 153.93 203.59 156.26 201.23 C 162.85 194.91 170.63 190.03 178.29 185.13 C 169.39 186.10 160.41 187.17 151.46 186.40 C 140.72 184.42 134.19 174.26 130.31 164.88 M 349.60 186.42 C 340.68 187.13 331.72 186.10 322.86 185.12 C 332.17 191.18 342.25 196.90 348.96 205.98 C 352.85 213.18 350.36 221.76 349.00 229.35 C 356.72 220.05 367.14 210.80 380.02 211.25 C 403.12 212.02 426.11 214.64 449.11 216.70 C 429.32 210.77 409.22 205.37 390.51 196.43 C 386.04 194.13 381.32 191.87 377.90 188.07 C 373.21 181.32 371.03 173.06 370.77 164.89 C 367.14 174.41 360.34 184.51 349.60 186.42 M 434.33 177.38 C 432.03 177.94 430.68 180.95 432.05 182.98 C 433.40 185.43 437.50 185.40 438.63 182.74 C 440.22 180.05 437.27 176.43 434.33 177.38 M 55.23 187.24 C 51.94 188.84 51.98 194.14 55.36 195.62 C 58.44 197.42 62.72 194.45 62.16 190.95 C 61.98 187.71 58.02 185.57 55.23 187.24 M 440.27 189.34 C 434.68 191.59 433.58 199.96 438.37 203.60 C 443.12 207.96 451.84 204.48 452.11 197.99 C 453.17 191.75 445.90 186.46 440.27 189.34 M 428.20 198.28 C 425.93 199.21 425.03 202.34 426.76 204.20 C 428.47 206.47 432.47 205.68 433.18 202.92 C 434.39 200.07 430.92 197.01 428.20 198.28 M 454.08 206.04 C 451.87 207.35 451.57 210.81 453.74 212.31 C 456.08 214.41 460.23 212.09 459.75 209.02 C 459.60 206.38 456.36 204.61 454.08 206.04 M 174.18 240.72 C 167.53 242.67 160.81 239.74 155.23 236.28 C 159.76 244.37 158.56 254.22 155.45 262.57 C 151.82 269.88 146.64 276.26 141.85 282.83 C 132.30 295.48 122.05 307.57 111.97 319.80 C 130.42 304.71 150.56 291.65 171.77 280.79 C 184.74 273.67 200.42 275.11 214.19 278.91 C 209.02 273.17 203.97 266.86 202.16 259.17 C 200.57 253.57 202.51 247.83 204.55 242.63 C 208.86 232.17 214.93 222.57 220.98 213.06 C 208.41 226.43 192.02 236.29 174.18 240.72 M 280.22 212.89 C 287.54 224.98 295.87 236.97 299.26 250.90 C 301.17 261.75 293.95 271.48 286.89 278.92 C 296.85 276.21 307.39 274.75 317.64 276.58 C 324.22 277.72 330.12 281.03 335.95 284.12 C 354.89 294.42 372.86 306.45 389.66 319.95 C 377.12 305.53 365.06 290.67 353.77 275.26 C 350.71 270.90 347.49 266.56 345.39 261.65 C 342.65 253.47 341.59 243.99 346.04 236.20 C 340.51 239.75 333.76 242.63 327.11 240.74 C 309.25 236.25 292.68 226.47 280.22 212.89 M 250.45 220.25 C 250.40 232.52 248.81 244.94 244.55 256.51 C 241.85 263.74 237.74 270.81 231.31 275.31 C 228.01 277.70 223.94 278.49 220.06 279.38 C 226.12 279.64 231.01 283.93 234.40 288.62 C 240.41 297.05 243.75 307.03 246.32 316.96 C 248.69 326.77 250.44 336.81 250.38 346.93 C 252.13 329.86 254.93 312.48 262.82 297.04 C 266.43 289.98 271.84 282.90 280.01 281.11 C 274.08 279.95 268.44 277.19 264.63 272.40 C 255.53 261.46 252.75 246.87 251.20 233.11 C 250.52 228.85 251.28 224.47 250.45 220.25 M 442.31 225.31 C 438.28 227.47 437.98 233.79 441.75 236.36 C 445.48 239.28 451.65 236.73 452.15 232.00 C 453.24 226.76 446.78 222.41 442.31 225.31 M 46.31 227.43 C 44.25 229.24 45.29 233.15 47.98 233.72 C 50.34 234.47 52.98 232.38 52.74 229.92 C 52.93 226.76 48.37 225.09 46.31 227.43 M 427.17 236.28 C 423.76 237.82 422.89 242.79 425.60 245.38 C 428.37 248.42 434.07 246.99 435.04 242.97 C 436.63 238.56 431.29 233.97 427.17 236.28 M 94.14 274.05 C 91.91 275.23 91.67 278.75 93.79 280.18 C 95.83 281.93 99.34 280.61 99.79 277.98 C 100.58 274.95 96.73 272.12 94.14 274.05 M 406.32 279.38 C 403.13 280.39 402.13 285.06 404.69 287.24 C 407.11 289.69 411.85 288.41 412.52 284.97 C 413.56 281.45 409.72 278.00 406.32 279.38 M 406.34 296.50 C 401.16 298.17 399.64 305.71 403.84 309.21 C 407.58 312.87 414.65 311.02 416.05 305.95 C 418.23 300.41 411.75 294.36 406.34 296.50 M 92.28 302.27 C 89.89 303.56 89.88 307.37 92.24 308.70 C 94.43 310.30 97.65 308.52 97.95 305.98 C 98.43 303.08 94.79 300.48 92.28 302.27 M 91.24 315.37 C 88.08 316.71 87.64 321.52 90.48 323.44 C 93.20 325.65 97.84 323.63 97.94 320.10 C 98.47 316.62 94.36 313.74 91.24 315.37 M 369.34 328.43 C 365.19 329.70 364.22 335.84 367.80 338.31 C 371.18 341.12 376.93 338.38 376.84 334.00 C 377.15 330.16 372.92 327.06 369.34 328.43 M 386.36 330.49 C 383.89 331.72 383.78 335.56 386.15 336.94 C 388.10 338.38 391.15 337.17 391.74 334.86 C 392.93 331.86 389.07 328.74 386.36 330.49 Z" />
<path fill="#8fa7d5" opacity="1.00" d=" M 268.98 112.84 C 265.56 113.78 264.64 108.30 267.92 107.59 C 268.64 107.74 270.09 108.06 270.82 108.21 C 270.66 109.82 271.54 112.92 268.98 112.84 Z" />
<path fill="#8fa7d5" opacity="1.00" d=" M 250.39 162.70 C 252.93 166.47 254.23 170.88 256.02 175.03 C 254.23 173.96 252.49 172.83 250.77 171.67 C 248.92 172.82 247.07 173.97 245.19 175.07 C 246.83 170.91 248.64 166.81 250.39 162.70 Z" />
</g>
</svg>
