<?xml version="1.0" encoding="UTF-8" ?>
<!DOCTYPE svg PUBLIC "-//W3C//DTD SVG 1.1//EN" "http://www.w3.org/Graphics/SVG/1.1/DTD/svg11.dtd">
<svg width="505pt" height="500pt" viewBox="0 0 505 500" version="1.1" xmlns="http://www.w3.org/2000/svg">
<g id="#d9d7d8ff">
<path fill="#d9d7d8" opacity="1.00" d=" M 257.06 0.00 L 258.14 0.00 C 258.79 5.66 259.40 11.32 260.04 16.98 C 261.92 15.73 263.81 14.48 265.69 13.22 C 266.96 22.03 268.20 30.84 269.46 39.66 C 275.47 34.24 281.10 28.18 284.63 20.81 C 285.32 30.98 284.19 41.30 280.82 50.94 C 282.69 50.93 284.57 50.94 286.44 50.94 C 284.60 63.44 280.53 75.52 275.11 86.91 C 279.74 86.54 284.28 85.39 288.36 83.14 C 287.88 94.04 285.94 105.05 281.05 114.89 C 287.86 105.94 294.64 96.40 296.73 85.12 C 297.01 82.58 298.15 79.72 297.35 77.30 C 294.40 75.87 291.29 74.84 288.29 73.53 C 293.40 62.31 298.23 50.97 303.38 39.77 C 304.02 49.79 304.61 59.81 305.28 69.82 C 310.27 66.05 315.27 62.28 320.30 58.55 C 316.60 71.14 312.72 83.68 309.06 96.28 C 316.25 91.74 322.52 85.56 326.14 77.78 C 327.58 82.74 329.14 87.72 329.65 92.88 C 329.80 95.35 329.88 98.22 328.12 100.18 C 325.55 102.75 320.94 100.76 318.64 103.73 C 315.37 107.38 315.55 112.54 313.94 116.87 C 308.93 124.73 298.28 125.97 290.04 123.24 C 290.77 129.91 292.37 137.02 297.63 141.65 C 292.21 152.17 288.00 163.46 286.43 175.24 C 290.50 169.12 293.56 162.14 299.15 157.18 C 305.06 151.87 309.30 145.00 312.76 137.92 C 308.89 137.51 305.18 135.79 303.15 132.34 C 307.61 132.55 312.50 132.09 315.92 128.87 C 320.84 124.17 323.45 117.70 325.99 111.52 C 328.96 111.19 332.14 110.61 334.27 108.29 C 338.44 104.15 338.92 97.92 339.30 92.38 C 341.63 95.54 343.94 98.93 344.54 102.89 C 345.58 109.15 343.21 115.21 341.20 121.01 C 345.68 118.51 348.15 113.96 350.67 109.71 C 351.30 112.45 352.53 115.19 352.21 118.04 C 350.79 123.85 345.89 127.69 341.56 131.36 C 339.83 134.93 343.01 138.30 342.91 141.84 C 342.64 144.51 339.56 144.81 337.54 145.47 C 336.13 150.03 331.14 150.98 326.99 151.04 C 321.39 151.16 317.12 155.54 314.63 160.18 C 317.37 158.73 320.01 157.06 322.95 156.03 C 327.83 154.22 333.21 155.06 338.13 153.40 C 341.14 152.40 344.47 151.19 346.33 148.45 C 347.44 143.35 346.09 137.58 348.91 132.88 C 351.75 131.52 355.44 131.33 357.33 128.38 C 360.71 124.63 359.34 119.31 360.49 114.84 C 364.89 112.89 368.44 109.67 371.27 105.82 C 371.05 109.15 370.79 112.51 369.77 115.70 C 367.55 121.19 373.68 124.93 376.85 128.42 C 371.39 131.90 365.35 134.35 359.03 135.68 C 357.01 135.97 356.63 138.33 356.25 139.95 C 355.60 142.98 359.28 145.69 357.56 148.67 C 354.65 152.40 349.80 154.07 347.09 158.02 C 343.56 163.18 342.36 169.47 341.03 175.47 C 344.78 174.24 348.52 172.97 352.28 171.76 C 345.25 180.48 338.50 189.52 333.31 199.48 C 331.73 202.48 330.48 205.67 330.00 209.05 C 337.41 196.84 348.25 186.29 361.73 181.10 C 363.57 171.35 368.98 162.39 376.91 156.39 C 368.44 154.26 362.45 162.21 354.29 162.40 C 357.22 158.64 361.43 155.19 361.82 150.11 C 362.38 145.29 363.45 139.67 367.77 136.78 C 371.62 135.01 376.31 136.43 380.05 134.20 C 382.77 132.87 382.06 129.10 384.33 127.33 C 389.74 122.45 396.11 118.30 399.56 111.65 C 399.09 116.91 398.41 122.24 396.21 127.09 C 394.36 131.15 392.91 135.41 392.46 139.87 C 391.73 144.94 392.60 150.28 390.41 155.08 C 394.53 153.78 397.51 150.65 399.84 147.15 C 400.54 149.73 401.59 152.42 400.88 155.12 C 399.66 159.92 395.11 163.10 394.12 168.00 C 393.72 169.49 393.48 171.17 392.13 172.12 C 384.16 179.14 374.78 184.58 367.75 192.64 C 365.72 194.85 364.32 197.56 363.48 200.44 C 368.18 200.20 371.12 196.18 374.21 193.16 C 381.06 185.94 389.20 179.03 399.33 177.31 C 391.87 184.48 383.95 191.27 377.62 199.51 C 373.43 204.55 369.21 210.11 363.12 212.91 C 359.64 214.42 358.24 210.20 357.75 207.66 C 353.95 211.19 350.04 214.69 347.09 219.00 C 345.18 221.72 343.98 225.06 341.06 226.93 C 340.57 226.38 339.57 225.30 339.07 224.76 C 336.08 227.06 332.94 229.57 329.07 230.05 C 325.35 230.60 321.78 229.17 318.17 228.57 C 314.03 233.13 311.20 238.98 310.84 245.19 C 314.04 241.33 316.68 236.69 321.19 234.21 C 324.09 233.55 326.98 234.91 329.73 235.69 C 335.02 231.08 342.49 231.55 348.68 233.82 C 353.59 227.05 359.76 221.10 367.16 217.12 C 363.35 224.31 358.63 231.04 355.75 238.69 C 354.24 242.52 351.44 246.72 346.98 247.14 C 343.48 247.11 341.29 243.95 339.14 241.65 C 336.38 243.90 333.64 246.57 329.95 247.08 C 327.04 247.46 324.13 249.02 322.97 251.83 C 321.90 254.14 322.61 257.71 319.73 258.76 C 315.15 260.53 310.10 260.18 305.27 260.38 C 304.02 263.45 302.80 266.54 301.58 269.62 C 297.93 271.32 294.73 273.82 292.17 276.92 C 296.02 273.16 302.41 274.54 305.51 269.89 C 309.08 271.02 312.41 272.81 315.98 273.93 C 320.87 274.51 325.67 272.88 330.25 271.38 C 327.92 273.69 325.75 276.25 322.86 277.89 C 320.00 279.51 316.46 279.03 313.58 280.61 C 310.18 282.24 307.03 284.99 303.05 284.87 C 298.51 284.71 294.30 282.82 290.13 281.22 C 292.78 284.80 295.56 288.83 299.98 290.33 C 304.51 291.18 308.80 288.83 312.80 287.02 C 310.05 291.30 306.94 296.04 301.88 297.75 C 296.15 299.09 290.73 295.89 286.30 292.61 C 286.81 296.28 287.22 300.28 289.76 303.20 C 292.28 306.09 295.17 308.63 297.78 311.43 C 291.04 312.03 283.99 310.44 278.87 305.83 C 280.18 314.55 281.39 323.29 282.63 332.02 C 278.87 328.94 275.16 325.81 271.43 322.70 C 269.41 328.28 266.20 333.37 262.04 337.60 C 262.97 340.78 264.50 344.18 263.33 347.51 C 262.18 350.80 260.11 353.65 258.27 356.58 C 257.75 350.06 256.46 343.55 253.52 337.66 C 257.41 336.87 261.39 335.12 263.48 331.56 C 266.50 326.94 265.45 321.21 265.70 316.01 C 266.01 304.55 267.84 292.42 274.87 283.00 C 277.93 278.71 282.24 275.61 286.09 272.10 C 290.85 267.78 292.40 261.16 293.14 255.02 C 291.22 255.51 289.29 255.99 287.41 256.61 C 282.23 258.88 277.93 262.96 272.28 264.20 C 268.29 265.57 262.25 266.24 261.85 271.55 C 258.30 267.66 256.48 262.51 256.28 257.29 C 257.53 258.16 258.79 259.06 260.04 259.95 C 262.34 254.09 265.27 248.38 265.96 242.02 C 270.45 245.58 269.57 251.49 268.20 256.33 C 272.25 252.77 270.36 246.64 273.68 242.68 C 276.82 238.56 281.51 236.04 286.18 234.04 C 285.01 239.89 280.78 244.90 281.19 251.08 C 282.45 247.87 283.73 244.60 286.01 241.97 C 289.21 238.14 291.24 233.52 294.16 229.49 C 294.87 229.25 295.60 229.01 296.32 228.76 L 296.24 230.02 C 299.30 229.11 302.29 227.99 305.18 226.61 C 301.96 232.89 296.93 238.59 296.33 245.90 C 295.69 248.32 296.65 250.69 297.44 252.94 C 299.46 247.01 300.93 240.80 304.37 235.48 C 307.66 230.44 309.54 224.68 310.97 218.88 C 305.39 222.05 300.05 225.62 294.36 228.60 C 293.61 223.48 294.24 218.26 293.22 213.18 C 298.03 213.13 302.93 213.61 307.67 212.57 C 311.85 211.46 313.95 207.32 315.79 203.78 C 318.63 197.88 321.76 192.08 323.87 185.86 C 326.89 177.13 328.58 168.02 329.86 158.89 C 326.71 161.75 324.02 165.05 320.97 168.00 C 308.16 180.62 292.35 190.42 274.94 195.16 C 273.12 189.86 272.44 184.26 272.27 178.69 C 274.70 175.81 277.73 172.03 276.14 168.05 C 275.40 165.95 272.90 166.13 271.13 165.79 C 267.03 156.94 264.59 147.15 266.09 137.38 C 267.86 131.68 270.37 126.25 273.09 120.95 C 269.06 116.28 267.83 109.99 267.65 103.99 C 267.32 94.33 269.25 84.62 273.06 75.74 C 271.29 75.07 269.15 74.61 268.20 72.76 C 266.21 69.32 265.61 65.32 264.66 61.52 C 261.49 47.39 255.64 33.60 256.10 18.89 C 249.04 26.35 244.34 35.89 242.41 45.95 C 240.45 55.04 241.98 64.54 239.41 73.54 C 237.69 80.25 234.16 86.85 228.13 90.60 C 236.14 105.48 237.55 123.64 232.93 139.80 C 231.91 140.36 230.29 140.64 230.15 142.06 C 229.52 144.65 231.67 146.73 232.61 148.96 C 233.33 154.26 233.98 159.65 233.45 165.00 C 232.69 171.28 230.39 177.22 227.93 183.00 C 223.43 182.99 221.27 187.96 222.94 191.76 C 223.44 191.95 224.44 192.33 224.94 192.53 C 225.10 193.11 225.42 194.29 225.58 194.87 C 209.25 190.46 194.46 181.32 182.15 169.83 C 178.45 166.48 175.30 162.58 171.62 159.20 C 172.98 173.24 176.75 187.13 183.39 199.61 C 185.87 204.15 187.56 210.02 192.67 212.27 C 197.57 213.79 202.81 213.07 207.87 213.17 C 207.27 218.40 207.04 223.71 207.49 228.96 C 210.16 236.84 216.93 242.42 219.80 250.20 C 220.26 244.35 216.07 239.66 215.08 234.09 C 220.36 236.24 225.71 239.32 228.64 244.41 C 230.42 248.25 229.56 253.09 232.84 256.26 C 232.48 253.52 231.74 250.81 231.84 248.03 C 232.13 245.55 233.81 243.62 235.41 241.84 C 235.77 248.35 238.97 254.06 241.19 260.04 C 242.47 258.96 243.76 257.89 245.06 256.83 C 244.73 262.18 243.12 267.60 239.31 271.53 C 238.96 266.25 232.94 265.55 228.98 264.19 C 223.29 263.00 219.00 258.85 213.78 256.61 C 211.88 255.95 209.93 255.45 207.99 254.94 C 208.88 261.04 210.31 267.67 215.05 272.01 C 219.26 275.80 223.90 279.24 227.09 284.00 C 233.52 293.32 235.23 304.97 235.50 316.04 C 235.73 320.93 234.81 326.19 237.26 330.68 C 238.76 333.90 242.08 335.55 244.79 337.60 C 241.57 342.54 238.63 347.68 235.64 352.77 C 236.09 345.79 234.69 338.66 231.29 332.53 C 229.24 328.83 227.30 325.03 226.14 320.95 C 224.43 324.62 221.89 327.85 218.61 330.24 C 218.61 323.00 220.38 315.89 223.00 309.20 C 217.26 313.83 212.01 319.18 205.42 322.68 C 208.77 314.15 211.47 305.36 212.96 296.31 C 209.12 300.59 203.55 304.94 197.44 303.39 C 191.28 301.06 186.87 295.76 182.92 290.71 C 187.26 292.03 191.48 294.05 196.07 294.29 C 201.02 293.33 204.89 289.74 208.99 287.05 C 204.37 287.63 199.77 288.84 195.08 288.57 C 191.61 288.18 189.21 285.37 186.39 283.63 C 183.01 281.28 178.73 280.91 175.27 278.73 C 173.10 277.45 171.36 275.60 169.63 273.80 C 173.96 275.32 178.29 277.33 182.97 277.33 C 186.92 277.30 190.53 275.52 193.97 273.77 C 195.28 275.81 196.35 278.56 198.99 279.14 C 202.41 279.34 205.72 278.24 209.04 277.60 C 204.44 276.75 199.65 275.05 196.78 271.14 C 194.82 268.85 194.40 265.76 192.93 263.22 C 190.19 261.47 186.57 262.64 183.53 261.67 C 179.54 260.96 178.29 256.70 175.89 254.03 C 171.62 249.03 166.38 243.79 159.44 243.26 C 153.78 242.56 150.88 236.84 148.84 232.18 C 152.03 234.81 155.01 237.98 159.01 239.40 C 160.86 240.09 162.49 238.60 164.10 237.96 C 159.03 234.88 153.59 231.81 150.53 226.50 C 147.50 227.71 144.47 228.92 141.45 230.15 C 141.09 228.08 140.78 226.01 140.22 223.99 C 137.87 214.05 129.13 206.87 128.15 196.43 C 132.09 201.24 135.56 206.41 139.49 211.22 C 140.12 210.01 140.74 208.80 141.38 207.60 C 144.48 212.63 147.62 217.63 150.75 222.64 C 154.52 220.75 158.29 218.86 162.07 216.97 C 167.90 224.16 172.96 231.91 177.51 239.96 C 179.62 239.04 181.52 237.75 183.02 235.99 C 186.99 240.79 189.88 246.34 191.98 252.18 C 191.76 243.14 188.45 234.53 184.69 226.42 C 182.79 227.67 180.89 228.92 178.99 230.17 C 173.98 223.88 168.96 217.60 163.94 211.32 C 159.54 213.20 155.15 215.12 150.74 216.97 C 148.87 210.06 146.98 203.16 145.10 196.25 C 143.22 197.48 141.35 198.72 139.49 199.97 C 134.48 190.46 126.87 180.02 115.20 179.17 C 118.92 173.99 119.45 167.21 117.76 161.18 C 115.92 154.23 114.83 147.07 115.06 139.87 C 116.70 143.94 118.98 147.82 122.21 150.85 C 125.86 154.50 131.38 155.37 134.92 159.17 C 142.95 167.23 145.45 178.97 146.69 189.88 C 147.06 191.45 146.65 194.03 148.90 194.14 C 151.29 189.26 151.13 183.48 154.21 178.87 C 157.91 189.75 162.46 201.98 173.30 207.63 C 169.73 198.84 166.30 189.90 164.64 180.52 C 163.53 174.49 164.06 168.35 163.93 162.26 C 160.17 165.40 156.41 168.54 152.65 171.68 C 149.78 164.92 146.85 157.91 141.49 152.71 C 143.53 148.81 145.55 144.53 144.95 140.00 C 144.10 134.00 141.64 128.40 139.54 122.77 C 144.17 127.01 148.78 131.39 152.40 136.55 C 153.74 138.38 154.58 140.56 154.59 142.85 C 154.86 148.07 155.59 153.26 156.36 158.43 C 159.93 156.54 163.79 153.95 168.03 155.03 C 174.21 156.27 180.13 158.53 186.21 160.13 C 181.53 156.59 176.74 152.98 171.21 150.88 C 168.29 149.74 164.95 148.61 163.37 145.67 C 161.50 142.05 162.34 137.79 161.54 133.91 C 159.91 123.95 152.28 116.19 150.85 106.16 C 150.04 100.46 149.09 94.74 149.10 88.96 C 152.80 97.34 156.86 105.61 162.01 113.20 C 163.29 111.96 164.57 110.72 165.85 109.49 C 169.11 117.03 173.50 124.06 178.96 130.21 C 180.23 128.95 181.50 127.70 182.77 126.44 C 186.94 137.82 192.55 148.71 199.76 158.48 C 201.00 156.60 202.24 154.72 203.48 152.84 C 209.08 158.91 214.45 165.17 220.10 171.19 C 212.78 158.10 205.29 145.11 197.83 132.09 C 196.64 134.52 195.44 136.94 194.19 139.34 C 190.67 131.40 187.89 123.16 184.67 115.10 C 182.16 115.72 179.65 116.35 177.14 116.98 C 173.90 112.49 171.41 107.40 167.36 103.54 C 162.54 98.74 159.34 91.96 159.87 85.07 C 160.41 77.55 163.08 70.17 167.57 64.10 C 167.39 68.42 167.25 72.79 168.07 77.07 C 169.49 85.83 175.06 93.82 182.73 98.28 C 182.73 95.21 183.07 92.09 182.49 89.06 C 181.34 86.70 178.32 84.92 179.14 81.94 C 180.34 77.35 183.68 73.64 184.88 69.04 C 185.78 66.30 185.40 63.41 185.05 60.63 C 189.54 65.90 194.77 70.84 197.46 77.36 C 199.60 83.89 191.86 89.50 194.96 95.95 C 198.33 105.27 204.22 115.16 200.26 125.28 C 203.58 124.84 205.00 121.90 206.23 119.17 C 207.36 116.48 210.35 115.64 212.86 114.79 C 211.12 118.60 208.33 122.53 209.42 126.95 C 210.17 131.06 213.37 133.96 215.77 137.15 C 217.95 140.05 218.16 143.80 218.75 147.24 C 220.05 145.96 221.70 144.81 222.15 142.93 C 222.93 140.38 221.15 138.10 220.16 135.90 C 217.72 131.68 218.82 126.65 218.48 122.03 C 218.05 112.11 218.31 101.89 215.00 92.39 C 213.25 97.23 210.86 101.86 207.36 105.68 C 205.89 99.90 204.23 94.14 201.68 88.74 C 204.71 82.88 207.05 76.57 207.34 69.92 C 201.62 68.67 194.97 66.30 192.82 60.27 C 191.28 54.62 193.06 48.79 194.21 43.24 C 195.71 36.50 195.78 29.58 196.05 22.72 C 198.30 26.45 199.68 30.64 199.86 35.00 C 200.16 39.63 202.91 45.08 208.11 45.41 C 214.10 46.27 218.07 52.17 218.42 57.92 C 218.71 63.78 218.70 69.71 220.29 75.41 C 226.04 66.04 231.10 56.03 233.73 45.29 C 230.54 47.12 227.40 49.04 224.24 50.93 C 232.30 32.23 242.39 13.63 258.00 0.15 L 257.06 0.00 M 188.42 216.95 C 190.83 225.18 192.79 233.93 198.16 240.84 C 200.87 244.40 202.00 248.78 203.57 252.89 C 204.31 248.89 203.90 244.70 202.22 240.99 C 199.07 234.11 195.36 227.51 192.26 220.61 C 196.94 221.37 200.38 224.73 203.56 227.96 C 201.25 221.61 194.93 217.71 188.42 216.95 Z" />
<path fill="#d9d7d8" opacity="1.00" d=" M 173.40 12.92 C 174.65 10.57 175.84 8.17 177.18 5.86 C 177.81 7.70 178.42 9.55 178.96 11.42 C 177.13 12.01 175.29 12.58 173.40 12.92 Z" />
<path fill="#d9d7d8" opacity="1.00" d=" M 314.69 20.76 C 317.83 18.92 320.95 17.03 324.05 15.11 C 321.62 21.42 319.07 27.67 316.56 33.95 C 315.94 29.55 315.31 25.15 314.69 20.76 Z" />
<path fill="#d9d7d8" opacity="1.00" d=" M 454.19 59.19 C 461.72 45.84 469.05 32.38 476.70 19.10 C 471.12 36.77 465.72 54.50 460.20 72.19 C 459.85 73.94 458.26 74.91 457.06 76.05 C 452.29 80.18 447.67 84.47 442.89 88.58 C 446.50 78.73 448.50 68.15 454.19 59.19 Z" />
<path fill="#d9d7d8" opacity="1.00" d=" M 94.30 21.07 C 104.52 38.10 114.38 55.35 124.50 72.45 C 125.28 73.88 126.37 75.27 126.37 76.97 C 126.82 84.38 127.73 91.76 127.87 99.18 C 116.53 73.21 105.60 47.06 94.30 21.07 Z" />
<path fill="#d9d7d8" opacity="1.00" d=" M 472.84 96.34 C 462.83 114.44 451.98 132.08 442.66 150.56 C 438.20 158.85 434.10 167.36 429.43 175.53 C 420.83 182.51 412.08 189.34 403.30 196.10 C 413.99 175.51 424.44 154.79 435.23 134.26 C 447.53 121.41 460.38 109.05 472.84 96.34 Z" />
<path fill="#d9d7d8" opacity="1.00" d=" M 32.29 123.96 C 33.11 125.58 33.78 127.27 34.41 128.98 C 55.50 186.00 76.91 242.91 97.87 299.97 C 96.30 310.69 94.05 321.32 92.40 332.03 C 86.87 315.37 82.10 298.45 76.02 281.96 C 69.57 263.47 63.00 245.02 56.62 226.51 C 48.38 192.36 40.52 158.12 32.29 123.96 Z" />
<path fill="#d9d7d8" opacity="1.00" d=" M 444.94 258.14 C 450.34 242.65 455.86 227.19 461.61 211.82 C 460.93 221.09 460.56 230.41 459.64 239.65 C 454.89 245.92 449.88 252.00 444.94 258.14 Z" />
<path fill="#d9d7d8" opacity="1.00" d=" M 15.16 222.83 C 18.33 228.41 21.36 234.06 24.53 239.64 C 22.02 238.35 19.49 237.09 16.96 235.84 C 16.34 231.50 15.67 227.18 15.16 222.83 Z" />
<path fill="#d9d7d8" opacity="1.00" d=" M 369.96 266.32 C 374.45 268.30 376.74 273.21 376.82 277.92 C 377.28 282.05 375.78 285.98 375.10 289.99 C 374.67 292.60 376.87 294.56 378.11 296.62 C 369.48 302.52 360.64 309.86 357.91 320.43 C 349.95 319.85 340.66 318.52 334.04 324.08 C 328.98 328.32 328.89 335.42 325.80 340.81 C 322.55 345.08 316.42 342.56 311.91 343.89 C 307.05 344.43 304.27 349.08 303.66 353.54 C 306.48 351.73 309.12 349.56 312.25 348.31 C 317.15 346.34 322.83 348.02 327.59 345.56 C 332.52 342.64 333.00 335.87 337.67 332.71 C 340.69 331.29 344.25 332.51 347.36 331.40 C 349.80 330.25 351.88 328.50 354.07 326.95 C 352.66 330.92 351.18 335.09 348.10 338.11 C 345.49 340.07 341.56 339.69 339.46 342.45 C 335.60 346.64 334.87 352.57 335.03 358.04 C 331.52 356.74 326.61 352.62 323.45 356.43 C 319.62 360.77 316.50 367.14 310.06 367.77 C 303.19 368.17 296.31 369.00 289.81 371.37 C 287.82 372.44 284.11 373.39 284.66 376.30 C 285.67 377.23 287.18 376.35 288.38 376.25 C 294.22 374.11 300.40 373.51 306.56 373.34 C 313.04 373.08 318.76 369.78 323.52 365.60 C 321.17 373.93 316.15 382.01 308.33 386.16 C 301.08 390.03 292.62 388.13 284.80 389.11 C 282.54 389.62 277.37 389.42 278.30 392.93 C 278.63 395.12 280.90 395.88 282.70 396.56 C 292.17 398.52 302.03 396.15 310.24 391.24 C 307.52 398.87 300.25 404.94 292.07 405.51 C 287.84 405.81 283.58 406.24 279.59 407.77 C 270.45 411.32 262.10 416.66 254.38 422.65 C 255.12 419.29 255.91 415.93 256.41 412.52 C 259.31 401.61 261.18 390.46 263.88 379.49 C 264.85 379.68 265.82 379.87 266.80 380.04 C 269.38 380.01 271.49 378.43 272.49 376.10 C 274.03 371.79 274.18 367.19 273.92 362.67 C 277.88 364.68 282.18 366.32 286.69 366.26 C 287.73 365.86 288.76 365.42 289.77 364.96 C 290.44 363.65 290.99 362.28 291.44 360.88 C 291.68 357.27 290.21 353.94 288.50 350.86 C 292.61 342.77 297.07 334.85 301.32 326.83 C 303.15 327.89 304.97 328.98 306.85 329.96 C 309.17 330.60 311.43 329.67 312.80 327.74 C 315.58 324.42 316.86 320.08 316.91 315.80 C 316.95 315.30 317.04 314.31 317.08 313.82 C 318.51 313.79 319.96 313.79 321.38 313.48 L 322.22 313.19 C 327.71 312.95 332.27 308.88 333.12 303.45 C 334.35 299.01 335.16 294.47 335.81 289.92 C 336.50 285.82 336.85 281.68 337.40 277.56 C 339.63 279.64 341.69 281.92 343.33 284.49 C 344.72 287.07 345.84 289.81 346.39 292.70 C 346.48 293.74 346.56 294.78 346.63 295.83 C 350.31 294.27 354.12 293.11 357.90 291.81 C 364.11 289.64 369.70 284.59 371.19 278.00 C 372.18 274.07 370.74 270.14 369.96 266.32 Z" />
<path fill="#d9d7d8" opacity="1.00" d=" M 460.23 318.31 C 470.74 304.16 480.99 289.80 491.75 275.85 C 487.27 291.43 483.02 307.08 478.60 322.67 C 467.31 330.07 456.27 337.82 444.89 345.06 C 449.95 336.11 454.93 327.11 460.23 318.31 Z" />
<path fill="#d9d7d8" opacity="1.00" d=" M 139.57 318.96 C 139.05 312.06 141.27 304.82 145.97 299.68 C 144.30 305.18 141.89 311.11 144.12 316.83 C 145.32 320.85 149.05 323.13 152.60 324.83 C 152.07 328.24 151.18 331.59 150.68 335.01 C 150.19 338.80 152.58 342.10 154.88 344.85 C 156.75 346.95 158.98 348.69 161.32 350.25 C 165.45 352.33 168.67 348.44 171.44 345.97 C 171.72 354.48 173.52 363.32 178.77 370.22 C 180.80 372.79 183.53 375.57 187.08 375.43 C 190.83 375.08 192.44 371.25 194.61 368.73 C 197.71 374.58 200.31 380.71 201.75 387.19 C 202.96 393.19 208.25 398.16 214.43 398.56 C 215.88 398.61 217.27 397.95 218.37 397.04 C 218.48 396.94 218.69 396.73 218.79 396.63 C 219.80 395.64 220.78 394.64 221.76 393.63 C 222.53 398.73 221.87 403.94 222.90 409.00 C 224.26 412.54 225.99 415.93 227.97 419.17 C 230.31 422.98 232.78 426.73 235.65 430.16 C 236.65 428.07 237.65 425.97 238.67 423.89 C 238.80 425.00 238.92 426.11 239.03 427.23 C 238.54 432.75 239.34 438.33 241.23 443.53 C 242.48 447.19 243.67 450.87 244.61 454.62 C 245.29 457.40 245.83 460.20 246.23 463.04 C 246.29 463.66 246.40 464.90 246.46 465.52 C 243.61 463.90 240.83 462.16 238.04 460.45 C 229.83 455.96 221.82 449.39 211.99 449.56 C 207.82 449.52 203.56 450.35 199.46 449.27 C 195.00 447.82 191.67 442.49 193.32 437.92 C 193.62 437.34 193.93 436.77 194.25 436.22 C 201.87 444.46 214.12 444.62 224.24 441.86 C 222.58 438.53 220.33 434.09 216.04 434.09 C 207.87 434.12 199.54 434.34 191.62 432.04 C 186.86 430.82 182.98 427.41 180.84 423.04 C 177.86 417.74 176.26 411.79 175.24 405.83 C 176.84 407.55 178.36 409.35 180.00 411.04 C 183.50 414.65 187.62 417.81 192.40 419.50 C 196.13 420.85 200.15 420.64 204.04 421.07 C 208.18 421.42 212.11 422.85 216.08 423.95 C 211.41 418.78 205.73 414.47 199.39 411.55 C 195.44 409.69 191.00 409.46 186.89 408.13 C 182.79 406.85 179.88 403.53 176.77 400.76 C 176.56 400.56 176.12 400.15 175.90 399.95 C 173.08 400.08 170.34 400.73 167.74 401.79 C 165.00 392.76 158.88 384.22 150.32 379.98 C 148.09 379.42 145.82 379.09 143.58 378.63 C 139.42 376.98 136.31 373.51 133.81 369.90 C 136.72 370.37 139.63 370.85 142.56 371.20 C 145.49 371.56 148.42 371.89 151.34 372.36 C 154.68 373.06 158.24 373.79 160.89 376.10 C 166.57 380.93 170.06 387.68 173.36 394.24 C 178.12 395.15 183.49 393.48 188.02 395.93 C 190.38 397.96 192.26 401.32 195.95 400.27 C 192.73 396.39 190.08 392.06 188.53 387.25 C 183.77 388.65 177.85 389.91 173.58 386.71 C 172.47 382.82 171.65 378.75 169.19 375.43 C 166.74 370.32 162.51 366.19 157.66 363.36 C 156.15 362.38 154.34 362.19 152.60 362.46 C 149.49 363.42 146.44 364.57 143.39 365.68 C 144.33 357.40 146.34 349.28 147.15 340.99 C 147.64 332.77 140.11 326.97 139.57 318.96 Z" />
<path fill="#d9d7d8" opacity="1.00" d=" M 198.10 307.55 C 201.49 307.13 204.40 305.29 207.47 303.95 C 207.61 307.06 208.56 311.53 205.17 313.27 C 200.34 314.76 195.17 313.73 190.26 313.20 C 192.32 310.71 194.57 307.74 198.10 307.55 Z" />
<path fill="#d9d7d8" opacity="1.00" d=" M 11.39 307.83 C 13.36 309.50 15.18 311.34 16.93 313.25 C 15.68 313.86 14.43 314.47 13.18 315.08 C 12.59 312.66 11.96 310.25 11.39 307.83 Z" />
<path fill="#d9d7d8" opacity="1.00" d=" M 282.52 313.14 C 288.39 315.76 292.16 321.91 292.13 328.31 C 288.99 326.48 285.92 324.36 283.63 321.49 C 281.84 319.07 282.15 315.94 282.52 313.14 Z" />
<path fill="#d9d7d8" opacity="1.00" d=" M 208.89 324.78 C 211.66 323.01 214.35 321.12 216.80 318.93 C 216.38 321.94 216.61 325.28 215.02 327.98 C 212.25 330.64 208.63 332.18 205.28 333.96 C 205.80 330.76 205.86 326.74 208.89 324.78 Z" />
<path fill="#d9d7d8" opacity="1.00" d=" M 34.12 328.71 C 37.37 331.51 40.29 334.69 43.30 337.74 C 41.40 337.73 39.50 337.71 37.60 337.66 C 36.51 334.65 35.23 331.71 34.12 328.71 Z" />
<path fill="#d9d7d8" opacity="1.00" d=" M 273.46 328.47 C 275.76 333.11 276.94 338.21 277.05 343.39 C 273.89 341.53 270.78 339.61 267.63 337.75 C 270.08 335.02 272.39 332.05 273.46 328.47 Z" />
<path fill="#d9d7d8" opacity="1.00" d=" M 220.45 347.17 C 220.60 341.31 221.31 335.22 224.37 330.09 C 226.68 332.30 229.85 334.54 229.89 338.09 C 228.30 342.35 223.96 344.68 220.45 347.17 Z" />
<path fill="#d9d7d8" opacity="1.00" d=" M 248.63 341.47 C 252.23 345.32 254.71 350.52 254.30 355.88 C 253.92 360.97 251.49 365.58 248.78 369.80 C 248.47 366.29 248.20 362.63 246.37 359.52 C 244.84 356.50 242.47 353.40 243.25 349.81 C 244.13 346.54 246.59 344.06 248.63 341.47 Z" />
<path fill="#d9d7d8" opacity="1.00" d=" M 105.55 369.86 C 107.41 364.86 109.11 359.79 111.26 354.91 C 115.01 364.89 118.65 374.91 122.53 384.84 C 116.78 379.95 111.27 374.78 105.55 369.86 Z" />
</g>
<g id="#72c9b9ff">
<path fill="#72c9b9" opacity="1.00" d=" M 40.13 2.96 C 60.89 35.14 81.05 67.72 101.81 99.90 C 104.30 94.91 106.78 89.91 109.30 84.94 C 118.50 103.66 128.20 122.16 137.08 141.04 C 129.01 133.71 121.15 126.17 113.01 118.92 C 110.52 123.31 108.06 127.71 105.49 132.05 C 100.53 120.10 95.44 108.20 90.48 96.24 C 84.82 103.56 80.80 112.60 81.03 121.99 C 81.06 127.69 81.59 133.39 82.66 138.99 C 65.18 99.06 47.70 59.11 30.31 19.14 C 42.85 36.48 55.27 53.91 67.77 71.27 C 69.44 73.55 70.93 75.97 72.88 78.03 C 62.13 52.94 50.88 28.05 40.13 2.96 Z" />
<path fill="#72c9b9" opacity="1.00" d=" M 374.72 6.06 C 365.56 29.83 356.10 53.49 346.75 77.19 C 343.43 71.65 340.40 65.95 337.30 60.29 C 342.11 51.43 346.80 42.50 351.55 33.61 C 352.47 31.91 353.74 30.45 355.00 29.00 C 361.60 21.38 368.07 13.64 374.72 6.06 Z" />
<path fill="#72c9b9" opacity="1.00" d=" M 126.36 26.82 C 131.01 30.08 135.04 34.13 139.43 37.73 C 140.05 41.44 140.69 45.15 141.27 48.87 C 136.88 44.54 132.39 40.29 128.22 35.75 C 127.40 32.82 126.94 29.81 126.36 26.82 Z" />
<path fill="#72c9b9" opacity="1.00" d=" M 227.84 28.37 C 224.87 33.34 221.94 38.36 218.55 43.06 C 218.56 40.00 218.58 36.95 218.63 33.89 C 221.75 32.12 224.80 30.26 227.84 28.37 Z" />
<path fill="#72c9b9" opacity="1.00" d=" M 377.54 44.57 C 378.88 40.01 383.23 37.45 386.26 34.09 C 385.76 39.43 385.18 44.76 384.70 50.10 C 384.49 51.27 384.65 52.63 383.77 53.56 C 377.89 60.74 371.86 67.80 366.02 75.02 C 369.36 64.70 373.82 54.76 377.54 44.57 Z" />
<path fill="#72c9b9" opacity="1.00" d=" M 410.82 52.88 C 415.15 49.65 419.60 46.59 423.97 43.42 C 424.60 45.93 425.23 48.45 425.85 50.96 C 422.75 54.70 419.60 58.41 416.55 62.19 C 414.47 59.19 412.72 55.99 410.82 52.88 Z" />
<path fill="#72c9b9" opacity="1.00" d=" M 486.17 54.71 C 487.93 52.32 489.65 49.88 491.71 47.73 C 491.14 50.69 490.49 53.64 489.90 56.60 C 488.65 55.97 487.41 55.34 486.17 54.71 Z" />
<path fill="#72c9b9" opacity="1.00" d=" M 15.12 52.94 C 18.90 56.75 22.93 60.36 26.43 64.43 C 37.19 86.13 47.66 107.99 58.30 129.76 C 60.01 133.44 62.20 136.97 63.04 140.99 C 73.22 181.04 83.76 221.00 93.80 261.09 C 77.91 222.92 62.28 184.64 46.47 146.44 C 45.29 143.67 44.35 140.81 43.41 137.95 C 33.99 109.61 24.54 81.28 15.12 52.94 Z" />
<path fill="#72c9b9" opacity="1.00" d=" M 150.80 52.86 C 153.27 54.05 155.73 55.26 158.16 56.52 C 156.35 57.29 154.49 57.90 152.63 58.52 C 152.01 56.64 151.39 54.75 150.80 52.86 Z" />
<path fill="#72c9b9" opacity="1.00" d=" M 501.68 94.67 C 502.50 93.26 503.72 92.15 505.00 91.16 L 505.00 92.46 C 504.09 93.41 503.12 94.35 502.55 95.56 C 493.82 113.76 484.94 131.90 476.20 150.10 C 474.24 154.28 471.05 157.68 468.37 161.39 C 457.24 176.28 445.72 190.88 434.84 205.95 C 445.13 195.38 454.95 184.36 465.35 173.91 C 463.79 180.76 462.16 187.58 460.65 194.44 C 460.22 196.21 459.89 198.11 458.64 199.52 C 438.45 224.01 418.24 248.50 398.09 273.03 C 408.93 263.96 419.13 254.10 430.09 245.18 C 428.54 247.82 427.51 250.71 426.48 253.59 C 418.75 274.08 411.00 294.56 403.26 315.05 C 417.03 300.21 430.49 285.09 444.37 270.36 C 440.22 279.64 435.81 288.80 431.54 298.02 C 448.82 282.82 465.82 267.28 483.11 252.09 C 460.53 276.85 437.60 301.30 414.98 326.02 C 402.65 343.53 391.02 361.54 378.74 379.09 C 377.42 367.86 376.37 356.60 374.89 345.38 C 372.41 348.50 369.93 351.61 367.45 354.72 C 366.82 344.69 366.20 334.65 365.56 324.62 C 342.23 360.87 319.36 397.42 295.93 433.60 C 295.74 427.50 295.91 421.39 295.81 415.29 C 284.52 440.23 273.26 465.19 262.16 490.22 C 262.19 483.76 262.96 477.34 263.31 470.90 C 263.43 461.89 267.10 453.51 269.24 444.88 C 270.26 441.37 271.16 437.83 272.14 434.31 C 274.64 425.47 277.07 416.61 279.59 407.77 C 283.58 406.24 287.84 405.81 292.07 405.51 C 300.25 404.94 307.52 398.87 310.24 391.24 C 302.03 396.15 292.17 398.52 282.70 396.56 C 283.40 394.07 284.10 391.59 284.80 389.11 C 292.62 388.13 301.08 390.03 308.33 386.16 C 316.15 382.01 321.17 373.93 323.52 365.60 C 318.76 369.78 313.04 373.08 306.56 373.34 C 300.40 373.51 294.22 374.11 288.38 376.25 C 288.85 374.61 289.33 372.99 289.81 371.37 C 296.31 369.00 303.19 368.17 310.06 367.77 C 316.50 367.14 319.62 360.77 323.45 356.43 C 326.61 352.62 331.52 356.74 335.03 358.04 C 334.87 352.57 335.60 346.64 339.46 342.45 C 341.56 339.69 345.49 340.07 348.10 338.11 C 351.18 335.09 352.66 330.92 354.07 326.95 C 351.88 328.50 349.80 330.25 347.36 331.40 C 344.25 332.51 340.69 331.29 337.67 332.71 C 333.00 335.87 332.52 342.64 327.59 345.56 C 322.83 348.02 317.15 346.34 312.25 348.31 C 309.12 349.56 306.48 351.73 303.66 353.54 C 304.27 349.08 307.05 344.43 311.91 343.89 C 316.42 342.56 322.55 345.08 325.80 340.81 C 328.89 335.42 328.98 328.32 334.04 324.08 C 340.66 318.52 349.95 319.85 357.91 320.43 C 360.64 309.86 369.48 302.52 378.11 296.62 C 376.87 294.56 374.67 292.60 375.10 289.99 C 375.78 285.98 377.28 282.05 376.82 277.92 C 376.74 273.21 374.45 268.30 369.96 266.32 C 370.74 270.14 372.18 274.07 371.19 278.00 C 369.70 284.59 364.11 289.64 357.90 291.81 C 354.12 293.11 350.31 294.27 346.63 295.83 C 346.56 294.78 346.48 293.74 346.39 292.70 C 349.65 292.84 349.43 289.05 350.45 286.87 C 353.00 287.41 355.53 288.02 358.07 288.63 C 364.03 270.49 370.14 252.41 376.11 234.28 C 376.49 232.83 377.33 231.58 378.55 230.72 C 387.40 223.70 396.17 216.60 405.02 209.59 C 395.68 228.43 386.25 247.22 376.87 266.04 C 377.49 267.92 378.11 269.80 378.75 271.68 C 395.44 242.65 412.09 213.59 428.75 184.54 C 430.47 181.75 432.97 179.58 435.18 177.19 C 445.71 166.07 456.35 155.04 466.82 143.86 C 472.78 136.08 478.25 127.92 484.02 120.00 C 489.89 111.54 496.21 103.39 501.68 94.67 Z" />
<path fill="#72c9b9" opacity="1.00" d=" M 429.82 118.79 C 434.03 113.75 438.36 108.82 442.76 103.96 C 441.53 107.66 440.27 111.36 439.06 115.07 C 435.99 116.33 432.91 117.58 429.82 118.79 Z" />
<path fill="#72c9b9" opacity="1.00" d=" M 2.03 113.27 C 7.19 117.99 12.49 122.58 17.70 127.26 C 18.79 128.06 19.21 129.35 19.62 130.58 C 24.28 144.73 29.03 158.86 33.72 173.00 C 25.64 162.74 18.19 151.97 10.33 141.54 C 9.15 139.82 7.54 138.24 7.15 136.11 C 5.48 128.49 3.51 120.93 2.03 113.27 Z" />
<path fill="#72c9b9" opacity="1.00" d=" M 425.86 130.21 C 429.51 128.47 433.02 126.41 436.82 124.99 C 431.86 129.65 427.27 134.69 422.27 139.30 C 423.40 136.24 424.65 133.23 425.86 130.21 Z" />
<path fill="#72c9b9" opacity="1.00" d=" M 397.75 169.74 C 405.74 161.70 413.63 153.54 421.85 145.74 C 418.89 152.51 415.70 159.18 412.75 165.95 C 407.78 167.34 402.77 168.57 397.75 169.74 Z" />
<path fill="#72c9b9" opacity="1.00" d=" M 89.14 176.89 C 95.33 191.98 100.93 207.35 107.53 222.26 C 109.95 213.79 112.32 205.30 114.80 196.85 C 115.24 197.85 115.64 198.87 115.89 199.94 C 123.07 228.90 130.35 257.83 137.54 286.78 C 140.72 283.69 143.82 280.51 146.98 277.40 C 159.62 306.21 171.89 335.20 184.72 363.93 C 186.67 356.51 188.27 348.99 190.43 341.62 C 195.30 352.32 200.43 362.90 205.37 373.57 C 207.25 371.16 209.05 368.69 210.87 366.25 C 212.42 376.97 213.24 387.79 214.43 398.56 C 208.25 398.16 202.96 393.19 201.75 387.19 C 200.31 380.71 197.71 374.58 194.61 368.73 C 192.44 371.25 190.83 375.08 187.08 375.43 C 183.53 375.57 180.80 372.79 178.77 370.22 C 173.52 363.32 171.72 354.48 171.44 345.97 C 168.67 348.44 165.45 352.33 161.32 350.25 C 159.74 344.81 158.03 339.41 156.43 333.98 C 155.92 337.60 155.45 341.23 154.88 344.85 C 152.58 342.10 150.19 338.80 150.68 335.01 C 151.18 331.59 152.07 328.24 152.60 324.83 C 149.05 323.13 145.32 320.85 144.12 316.83 C 141.89 311.11 144.30 305.18 145.97 299.68 C 141.27 304.82 139.05 312.06 139.57 318.96 C 140.11 326.97 147.64 332.77 147.15 340.99 C 146.34 349.28 144.33 357.40 143.39 365.68 C 146.44 364.57 149.49 363.42 152.60 362.46 C 152.21 365.76 151.80 369.07 151.34 372.36 C 148.42 371.89 145.49 371.56 142.56 371.20 C 139.72 348.10 136.69 325.02 133.80 301.92 C 130.63 305.02 127.55 308.21 124.36 311.29 C 120.47 289.98 117.11 268.56 112.88 247.32 C 110.44 249.80 108.00 252.27 105.52 254.71 C 100.70 232.14 95.86 209.57 91.03 186.99 C 90.33 183.64 89.44 180.31 89.14 176.89 Z" />
<path fill="#72c9b9" opacity="1.00" d=" M 389.82 198.71 C 393.30 191.72 398.49 185.47 405.06 181.17 C 401.96 187.04 398.58 192.77 396.12 198.95 C 395.01 202.24 392.27 204.55 389.66 206.66 C 385.69 209.76 381.40 212.44 377.05 214.98 C 381.19 209.46 386.92 205.10 389.82 198.71 Z" />
<path fill="#72c9b9" opacity="1.00" d=" M 469.40 223.45 C 478.02 211.63 486.27 199.52 495.03 187.81 C 489.82 201.23 484.24 214.50 478.77 227.82 C 474.56 235.02 469.87 241.96 465.42 249.02 C 466.04 242.01 466.58 234.99 467.18 227.97 C 467.13 226.17 468.48 224.85 469.40 223.45 Z" />
<path fill="#72c9b9" opacity="1.00" d=" M 22.79 200.49 C 30.05 208.79 36.73 217.59 43.79 226.07 C 45.22 227.92 47.11 229.60 47.58 231.99 C 48.65 236.37 49.75 240.75 50.83 245.14 C 43.91 237.61 37.69 229.44 32.11 220.89 C 28.17 214.53 24.39 207.87 22.79 200.49 Z" />
<path fill="#72c9b9" opacity="1.00" d=" M 37.60 237.90 C 47.93 252.10 57.71 266.71 67.79 281.10 C 59.65 279.24 52.49 273.79 48.20 266.67 C 42.91 257.83 40.17 247.79 37.60 237.90 Z" />
<path fill="#72c9b9" opacity="1.00" d=" M 0.99 278.06 C 9.14 283.39 17.24 288.98 26.34 292.61 C 33.38 300.09 41.59 306.42 50.64 311.29 C 65.28 327.97 79.54 345.04 93.90 361.99 C 79.74 352.81 65.59 343.59 51.50 334.30 C 48.37 330.22 47.68 324.60 44.73 320.36 C 30.11 306.31 15.05 292.66 0.99 278.06 Z" />
<path fill="#72c9b9" opacity="1.00" d=" M 56.89 289.02 C 59.30 290.70 61.63 292.48 63.97 294.24 C 63.60 294.74 62.87 295.73 62.50 296.23 C 60.35 294.05 58.64 291.51 56.89 289.02 Z" />
<path fill="#72c9b9" opacity="1.00" d=" M 322.22 313.19 C 325.19 309.23 328.53 305.58 331.74 301.82 C 332.09 302.23 332.78 303.04 333.12 303.45 C 332.27 308.88 327.71 312.95 322.22 313.19 Z" />
<path fill="#72c9b9" opacity="1.00" d=" M 8.08 336.82 C 18.12 348.81 28.50 360.85 41.45 369.81 C 39.97 366.27 38.02 362.77 37.87 358.85 C 52.18 375.06 66.75 391.51 84.75 403.75 C 77.95 386.79 70.97 369.92 64.15 352.97 C 79.82 372.27 95.32 391.71 110.39 411.49 C 113.19 415.08 115.67 418.92 118.72 422.31 C 118.58 415.50 117.80 408.75 116.89 402.01 C 132.94 418.57 149.42 434.80 167.65 448.96 C 163.94 438.78 161.93 427.89 162.27 417.05 C 165.21 424.73 169.73 431.76 175.00 438.05 C 179.43 443.39 185.38 447.07 190.84 451.23 C 196.30 455.30 201.61 459.56 206.92 463.82 C 202.02 461.68 197.37 459.03 192.49 456.85 C 202.98 471.34 215.81 484.41 231.04 493.94 C 224.16 493.19 217.58 490.89 210.99 488.92 C 196.48 484.21 182.53 477.62 169.95 468.96 C 155.03 457.98 140.19 446.50 128.19 432.28 C 133.58 442.06 139.98 451.24 146.75 460.11 C 126.43 450.86 107.27 436.76 96.10 417.03 C 95.46 422.65 94.84 428.26 94.23 433.89 C 74.33 419.01 56.05 401.96 39.71 383.25 C 27.51 369.01 16.27 353.75 8.08 336.82 Z" />
<path fill="#72c9b9" opacity="1.00" d=" M 418.34 403.76 C 437.01 389.84 454.04 373.38 466.90 353.87 C 461.48 368.12 453.41 381.18 444.76 393.68 C 431.06 413.09 415.06 430.81 397.68 446.99 C 399.39 439.02 401.11 430.99 401.36 422.82 C 388.12 442.76 372.63 461.43 354.38 476.99 C 356.13 472.24 357.66 467.35 358.10 462.28 C 346.92 472.40 333.95 480.35 320.35 486.77 C 322.48 481.21 324.44 475.59 325.98 469.85 C 317.26 476.96 307.95 483.38 297.97 488.58 C 299.99 484.48 301.42 480.07 301.55 475.46 C 290.37 482.49 280.22 490.97 269.99 499.26 C 275.94 489.88 282.19 480.67 289.08 471.95 C 293.58 466.17 298.98 461.17 303.55 455.45 C 311.05 446.40 317.49 436.54 323.99 426.76 C 322.80 436.47 319.80 445.98 314.99 454.52 C 320.09 451.23 324.55 447.00 327.85 441.89 C 326.38 449.56 324.28 457.21 320.40 464.04 C 335.48 454.47 349.63 443.27 361.83 430.18 C 360.08 438.57 356.70 446.48 352.87 454.10 C 365.43 441.90 377.28 428.97 388.66 415.65 C 400.37 401.51 411.97 386.89 419.49 370.01 C 419.69 369.73 420.07 369.16 420.26 368.88 C 420.98 380.51 420.88 392.33 418.34 403.76 Z" />
<path fill="#72c9b9" opacity="1.00" d=" M 169.19 375.43 C 171.65 378.75 172.47 382.82 173.58 386.71 C 177.85 389.91 183.77 388.65 188.53 387.25 C 190.08 392.06 192.73 396.39 195.95 400.27 C 192.26 401.32 190.38 397.96 188.02 395.93 C 183.49 393.48 178.12 395.15 173.36 394.24 L 173.78 394.10 L 174.15 393.62 C 173.24 387.40 170.46 381.59 169.19 375.43 Z" />
<path fill="#72c9b9" opacity="1.00" d=" M 143.58 378.63 C 145.82 379.09 148.09 379.42 150.32 379.98 C 149.36 388.18 148.07 396.34 147.21 404.56 C 147.09 404.56 146.86 404.55 146.74 404.55 C 145.88 395.89 144.53 387.28 143.58 378.63 Z" />
<path fill="#72c9b9" opacity="1.00" d=" M 341.07 400.02 C 344.10 398.85 347.10 397.59 350.12 396.37 C 346.92 402.80 342.78 408.72 339.28 414.99 C 339.73 409.99 340.46 405.01 341.07 400.02 Z" />
<path fill="#72c9b9" opacity="1.00" d=" M 176.77 400.76 C 179.88 403.53 182.79 406.85 186.89 408.13 C 191.00 409.46 195.44 409.69 199.39 411.55 C 205.73 414.47 211.41 418.78 216.08 423.95 C 212.11 422.85 208.18 421.42 204.04 421.07 C 200.15 420.64 196.13 420.85 192.40 419.50 C 187.62 417.81 183.50 414.65 180.00 411.04 C 178.62 407.72 177.79 404.20 176.77 400.76 Z" />
<path fill="#72c9b9" opacity="1.00" d=" M 191.62 432.04 C 199.54 434.34 207.87 434.12 216.04 434.09 C 220.33 434.09 222.58 438.53 224.24 441.86 C 214.12 444.62 201.87 444.46 194.25 436.22 C 193.93 436.77 193.62 437.34 193.32 437.92 C 192.79 435.94 192.23 433.99 191.62 432.04 Z" />
<path fill="#72c9b9" opacity="1.00" d=" M 256.28 450.95 C 258.78 450.31 261.29 449.68 263.80 449.07 C 262.01 457.77 259.91 466.41 258.38 475.16 C 257.25 467.13 257.01 459.01 256.28 450.95 Z" />
<path fill="#72c9b9" opacity="1.00" d=" M 226.44 456.83 C 228.87 457.93 231.26 459.14 233.64 460.36 C 234.27 462.87 234.91 465.38 235.55 467.89 C 232.48 464.23 229.35 460.62 226.44 456.83 Z" />
</g>
<g id="#4f79cfff">
<path fill="#4f79cf" opacity="1.00" d=" M 239.45 90.03 C 245.50 70.00 251.49 49.66 252.64 28.65 C 254.79 34.88 256.07 41.41 256.23 48.01 C 256.46 57.97 258.60 67.74 261.01 77.36 C 257.64 79.82 254.88 82.99 251.56 85.49 C 247.86 87.77 243.61 88.92 239.45 90.03 Z" />
<path fill="#4f79cf" opacity="1.00" d=" M 246.46 95.46 C 251.85 93.42 256.23 89.51 261.46 87.14 C 260.69 98.49 260.57 110.35 265.54 120.88 C 260.14 123.45 256.43 128.20 252.15 132.17 C 247.03 135.73 241.01 137.88 234.97 139.31 C 241.38 125.95 243.90 109.63 237.52 95.80 C 240.48 96.21 243.61 96.56 246.46 95.46 Z" />
<path fill="#4f79cf" opacity="1.00" d=" M 253.73 140.75 C 258.87 137.95 262.00 132.77 266.65 129.34 C 266.42 132.02 266.27 134.70 266.09 137.38 C 264.59 147.15 267.03 156.94 271.13 165.79 C 264.26 167.30 261.06 174.44 254.70 176.84 C 246.22 180.41 237.09 182.32 227.93 183.00 C 230.39 177.22 232.69 171.28 233.45 165.00 C 233.98 159.65 233.33 154.26 232.61 148.96 C 232.70 148.57 232.89 147.78 232.98 147.39 C 240.21 146.37 247.39 144.45 253.73 140.75 Z" />
<path fill="#4f79cf" opacity="1.00" d=" M 256.14 189.17 C 262.37 187.23 267.63 183.16 272.27 178.69 C 272.44 184.26 273.12 189.86 274.94 195.16 C 275.94 198.21 277.64 200.99 278.61 204.05 C 276.45 210.84 271.60 217.01 265.11 220.16 C 258.92 223.35 251.68 222.62 244.99 222.01 C 236.07 220.83 227.13 218.79 218.91 215.04 C 222.67 209.00 227.94 202.50 225.58 194.87 C 225.42 194.29 225.10 193.11 224.94 192.53 C 235.40 192.39 246.14 192.74 256.14 189.17 Z" />
</g>
<g id="#73b9d2ff">
<path fill="#73b9d2" opacity="1.00" d=" M 261.01 77.36 C 263.03 77.27 265.06 78.36 265.61 80.40 C 265.85 83.24 264.13 86.09 261.46 87.14 C 256.23 89.51 251.85 93.42 246.46 95.46 C 243.61 96.56 240.48 96.21 237.52 95.80 C 236.73 95.33 235.95 94.84 235.19 94.34 C 235.49 91.89 236.97 90.24 239.45 90.03 C 243.61 88.92 247.86 87.77 251.56 85.49 C 254.88 82.99 257.64 79.82 261.01 77.36 Z" />
<path fill="#73b9d2" opacity="1.00" d=" M 265.54 120.88 C 267.53 120.86 270.68 120.36 271.13 123.04 C 271.13 125.90 268.47 127.56 266.65 129.34 C 262.00 132.77 258.87 137.95 253.73 140.75 C 247.39 144.45 240.21 146.37 232.98 147.39 C 232.89 147.78 232.70 148.57 232.61 148.96 C 231.67 146.73 229.52 144.65 230.15 142.06 C 230.29 140.64 231.91 140.36 232.93 139.80 C 233.44 139.67 234.46 139.43 234.97 139.31 C 241.01 137.88 247.03 135.73 252.15 132.17 C 256.43 128.20 260.14 123.45 265.54 120.88 Z" />
<path fill="#73b9d2" opacity="1.00" d=" M 254.70 176.84 C 261.06 174.44 264.26 167.30 271.13 165.79 C 272.90 166.13 275.40 165.95 276.14 168.05 C 277.73 172.03 274.70 175.81 272.27 178.69 C 267.63 183.16 262.37 187.23 256.14 189.17 C 246.14 192.74 235.40 192.39 224.94 192.53 C 224.44 192.33 223.44 191.95 222.94 191.76 C 221.27 187.96 223.43 182.99 227.93 183.00 C 237.09 182.32 246.22 180.41 254.70 176.84 Z" />
</g>
<g id="#759c9dff">
<path fill="#759c9d" opacity="1.00" d=" M 320.97 168.00 C 324.02 165.05 326.71 161.75 329.86 158.89 C 328.58 168.02 326.89 177.13 323.87 185.86 C 321.76 192.08 318.63 197.88 315.79 203.78 C 313.95 207.32 311.85 211.46 307.67 212.57 C 302.93 213.61 298.03 213.13 293.22 213.18 C 294.24 218.26 293.61 223.48 294.36 228.60 C 294.31 228.83 294.21 229.27 294.16 229.49 C 291.24 233.52 289.21 238.14 286.01 241.97 C 283.73 244.60 282.45 247.87 281.19 251.08 C 280.78 244.90 285.01 239.89 286.18 234.04 C 281.51 236.04 276.82 238.56 273.68 242.68 C 270.36 246.64 272.25 252.77 268.20 256.33 C 269.57 251.49 270.45 245.58 265.96 242.02 C 265.27 248.38 262.34 254.09 260.04 259.95 C 258.79 259.06 257.53 258.16 256.28 257.29 C 256.48 262.51 258.30 267.66 261.85 271.55 C 261.59 282.46 260.49 293.34 260.30 304.25 C 263.03 296.44 264.35 287.97 268.86 280.90 C 275.00 272.81 284.21 266.67 287.41 256.61 C 289.29 255.99 291.22 255.51 293.14 255.02 C 292.40 261.16 290.85 267.78 286.09 272.10 C 282.24 275.61 277.93 278.71 274.87 283.00 C 267.84 292.42 266.01 304.55 265.70 316.01 C 265.45 321.21 266.50 326.94 263.48 331.56 C 261.39 335.12 257.41 336.87 253.52 337.66 C 250.73 337.83 247.94 337.48 245.17 337.19 C 245.08 337.29 244.89 337.49 244.79 337.60 C 242.08 335.55 238.76 333.90 237.26 330.68 C 234.81 326.19 235.73 320.93 235.50 316.04 C 235.23 304.97 233.52 293.32 227.09 284.00 C 223.90 279.24 219.26 275.80 215.05 272.01 C 210.31 267.67 208.88 261.04 207.99 254.94 C 209.93 255.45 211.88 255.95 213.78 256.61 C 216.94 266.34 225.68 272.45 231.82 280.16 C 236.71 287.02 237.84 295.62 240.74 303.36 C 240.86 292.73 239.64 282.14 239.31 271.53 C 243.12 267.60 244.73 262.18 245.06 256.83 C 243.76 257.89 242.47 258.96 241.19 260.04 C 238.97 254.06 235.77 248.35 235.41 241.84 C 233.81 243.62 232.13 245.55 231.84 248.03 C 231.74 250.81 232.48 253.52 232.84 256.26 C 229.56 253.09 230.42 248.25 228.64 244.41 C 225.71 239.32 220.36 236.24 215.08 234.09 C 216.07 239.66 220.26 244.35 219.80 250.20 C 216.93 242.42 210.16 236.84 207.49 228.96 C 207.04 223.71 207.27 218.40 207.87 213.17 C 202.81 213.07 197.57 213.79 192.67 212.27 C 187.56 210.02 185.87 204.15 183.39 199.61 C 176.75 187.13 172.98 173.24 171.62 159.20 C 175.30 162.58 178.45 166.48 182.15 169.83 C 194.46 181.32 209.25 190.46 225.58 194.87 C 227.94 202.50 222.67 209.00 218.91 215.04 C 227.13 218.79 236.07 220.83 244.99 222.01 C 251.68 222.62 258.92 223.35 265.11 220.16 C 271.60 217.01 276.45 210.84 278.61 204.05 C 277.64 200.99 275.94 198.21 274.94 195.16 C 292.35 190.42 308.16 180.62 320.97 168.00 Z" />
<path fill="#759c9d" opacity="1.00" d=" M 327.98 267.87 C 332.96 264.82 337.86 261.64 342.88 258.65 C 341.68 264.27 340.36 269.86 339.19 275.49 C 342.92 274.24 346.65 272.98 350.40 271.77 C 348.08 276.03 345.72 280.27 343.33 284.49 C 341.69 281.92 339.63 279.64 337.40 277.56 C 336.85 281.68 336.50 285.82 335.81 289.92 C 330.41 297.30 325.30 304.93 319.50 312.02 C 320.12 312.51 320.75 312.99 321.38 313.48 C 319.96 313.79 318.51 313.79 317.08 313.82 C 317.04 314.31 316.95 315.30 316.91 315.80 C 313.77 320.66 310.10 325.17 306.85 329.96 C 304.97 328.98 303.15 327.89 301.32 326.83 C 297.07 334.85 292.61 342.77 288.50 350.86 C 290.21 353.94 291.68 357.27 291.44 360.88 C 288.42 357.82 285.21 354.55 280.92 353.38 C 275.32 352.10 269.48 353.15 263.98 354.50 C 265.10 350.77 266.33 347.09 267.60 343.42 C 272.62 344.63 277.64 345.89 282.66 347.17 C 282.04 343.41 281.41 339.64 280.79 335.88 C 282.67 335.87 284.56 335.86 286.45 335.86 C 285.81 333.35 285.18 330.84 284.56 328.34 C 288.33 330.19 292.08 332.09 295.84 333.98 C 295.86 327.69 295.83 321.40 295.85 315.12 C 298.39 313.90 300.89 312.61 303.35 311.25 C 300.26 307.52 297.17 303.79 294.03 300.11 C 298.43 300.53 302.78 301.27 307.16 301.91 C 312.82 295.00 318.45 288.06 324.13 281.16 C 326.01 281.15 327.90 281.15 329.79 281.14 C 331.63 276.11 333.57 271.12 335.38 266.07 C 332.91 266.65 330.44 267.26 327.98 267.87 Z" />
<path fill="#759c9d" opacity="1.00" d=" M 160.23 268.09 C 163.98 273.00 167.71 277.92 171.32 282.93 C 174.52 283.05 177.73 283.04 180.94 283.03 C 183.37 284.89 185.84 286.71 188.21 288.66 C 184.52 288.66 180.82 288.63 177.13 288.65 C 182.06 294.41 187.31 299.90 192.13 305.76 C 189.02 308.22 185.86 310.61 182.90 313.25 C 188.51 314.49 194.15 315.66 199.74 317.00 C 199.73 319.47 199.71 321.94 199.65 324.41 C 201.47 325.09 203.31 325.73 205.16 326.32 C 203.77 330.28 201.41 333.79 199.93 337.71 C 204.27 336.50 208.58 335.23 212.92 334.00 C 212.91 335.87 212.90 337.73 212.89 339.61 C 214.15 339.60 215.40 339.60 216.66 339.60 C 216.69 344.00 216.67 348.41 216.68 352.81 C 221.81 350.47 226.73 347.70 231.88 345.40 C 232.89 351.42 234.18 357.40 235.41 363.39 C 237.32 360.86 237.94 357.65 239.37 354.86 C 242.22 363.58 245.13 372.27 248.05 380.97 C 248.75 382.92 248.90 385.01 249.08 387.07 C 250.13 400.69 251.38 414.29 252.42 427.91 C 252.63 443.14 252.54 458.35 252.49 473.58 C 248.11 473.59 243.72 473.58 239.34 473.59 C 238.87 469.21 238.43 464.83 238.04 460.45 C 240.83 462.16 243.61 463.90 246.46 465.52 C 246.40 464.90 246.29 463.66 246.23 463.04 C 252.75 459.92 253.45 451.80 251.70 445.60 C 249.48 448.75 248.09 452.54 244.61 454.62 C 243.67 450.87 242.48 447.19 241.23 443.53 C 248.11 436.70 248.59 425.12 243.38 417.20 C 242.67 420.83 241.24 424.25 239.03 427.23 C 238.92 426.11 238.80 425.00 238.67 423.89 C 237.65 425.97 236.65 428.07 235.65 430.16 C 232.78 426.73 230.31 422.98 227.97 419.17 C 232.58 416.18 237.53 412.57 238.93 406.93 C 239.77 402.17 239.60 397.09 237.75 392.58 C 236.90 395.87 236.46 399.49 234.15 402.16 C 231.40 405.79 227.06 407.55 222.90 409.00 C 221.87 403.94 222.53 398.73 221.76 393.63 C 221.93 393.40 222.28 392.95 222.45 392.73 C 222.57 393.70 222.81 395.66 222.92 396.64 C 226.89 393.60 230.46 389.59 231.47 384.56 C 232.55 379.01 230.61 373.46 228.23 368.53 C 227.53 373.33 226.85 378.27 224.50 382.61 C 223.03 385.70 220.51 388.10 218.72 390.98 C 218.48 392.85 218.75 394.74 218.79 396.63 C 218.69 396.73 218.48 396.94 218.37 397.04 C 218.24 393.04 218.80 389.03 218.20 385.05 C 217.01 375.57 215.97 366.07 214.81 356.59 C 211.09 357.91 207.33 359.13 203.59 360.38 C 197.76 347.28 192.42 333.97 186.51 320.91 C 185.22 332.02 184.16 343.16 182.73 354.25 C 173.79 331.85 165.19 309.31 156.47 286.83 C 160.23 288.04 163.98 289.29 167.72 290.58 C 165.24 283.08 162.74 275.58 160.23 268.09 Z" />
<path fill="#759c9d" opacity="1.00" d=" M 257.10 369.25 C 258.85 364.01 262.27 358.50 267.97 357.09 C 275.91 355.50 284.94 358.22 289.77 364.96 C 288.76 365.42 287.73 365.86 286.69 366.26 C 283.20 361.77 277.24 360.54 271.86 360.46 C 272.37 361.01 273.41 362.12 273.92 362.67 C 274.18 367.19 274.03 371.79 272.49 376.10 C 269.29 373.14 266.81 369.54 263.81 366.41 C 263.88 371.11 264.83 375.76 266.80 380.04 C 265.82 379.87 264.85 379.68 263.88 379.49 C 261.18 390.46 259.31 401.61 256.41 412.52 C 254.95 398.21 252.52 383.25 257.10 369.25 Z" />
<path fill="#759c9d" opacity="1.00" d=" M 256.94 424.40 C 261.51 420.97 266.56 418.26 271.34 415.14 C 271.33 417.01 271.33 418.89 271.32 420.77 C 266.53 421.97 261.73 423.16 256.94 424.40 Z" />
</g>
<g id="#384b47ff">
<path fill="#384b47" opacity="1.00" d=" M 213.78 256.61 C 219.00 258.85 223.29 263.00 228.98 264.19 C 232.94 265.55 238.96 266.25 239.31 271.53 C 239.64 282.14 240.86 292.73 240.74 303.36 C 237.84 295.62 236.71 287.02 231.82 280.16 C 225.68 272.45 216.94 266.34 213.78 256.61 M 222.67 264.67 C 225.85 270.48 231.03 275.14 237.33 277.31 C 237.17 274.64 238.50 270.90 235.58 269.29 C 231.65 266.99 227.24 265.08 222.67 264.67 Z" />
<path fill="#384b47" opacity="1.00" d=" M 272.28 264.20 C 277.93 262.96 282.23 258.88 287.41 256.61 C 284.21 266.67 275.00 272.81 268.86 280.90 C 264.35 287.97 263.03 296.44 260.30 304.25 C 260.49 293.34 261.59 282.46 261.85 271.55 C 262.25 266.24 268.29 265.57 272.28 264.20 M 265.44 269.43 C 262.74 271.11 264.10 274.75 263.87 277.35 C 270.27 275.12 275.54 270.37 278.68 264.40 C 274.08 265.44 269.42 266.82 265.44 269.43 Z" />
<path fill="#384b47" opacity="1.00" d=" M 271.86 360.46 C 277.24 360.54 283.20 361.77 286.69 366.26 C 282.18 366.32 277.88 364.68 273.92 362.67 C 273.41 362.12 272.37 361.01 271.86 360.46 Z" />
<path fill="#384b47" opacity="1.00" d=" M 263.81 366.41 C 266.81 369.54 269.29 373.14 272.49 376.10 C 271.49 378.43 269.38 380.01 266.80 380.04 C 264.83 375.76 263.88 371.11 263.81 366.41 Z" />
<path fill="#384b47" opacity="1.00" d=" M 228.23 368.53 C 230.61 373.46 232.55 379.01 231.47 384.56 C 230.46 389.59 226.89 393.60 222.92 396.64 C 222.81 395.66 222.57 393.70 222.45 392.73 C 222.28 392.95 221.93 393.40 221.76 393.63 C 220.78 394.64 219.80 395.64 218.79 396.63 C 218.75 394.74 218.48 392.85 218.72 390.98 C 220.51 388.10 223.03 385.70 224.50 382.61 C 226.85 378.27 227.53 373.33 228.23 368.53 Z" />
<path fill="#384b47" opacity="1.00" d=" M 237.75 392.58 C 239.60 397.09 239.77 402.17 238.93 406.93 C 237.53 412.57 232.58 416.18 227.97 419.17 C 225.99 415.93 224.26 412.54 222.90 409.00 C 227.06 407.55 231.40 405.79 234.15 402.16 C 236.46 399.49 236.90 395.87 237.75 392.58 Z" />
<path fill="#384b47" opacity="1.00" d=" M 243.38 417.20 C 248.59 425.12 248.11 436.70 241.23 443.53 C 239.34 438.33 238.54 432.75 239.03 427.23 C 241.24 424.25 242.67 420.83 243.38 417.20 Z" />
<path fill="#384b47" opacity="1.00" d=" M 256.21 428.44 C 261.23 427.60 266.30 427.09 271.35 426.43 C 271.65 429.05 271.97 431.67 272.14 434.31 C 271.16 437.83 270.26 441.37 269.24 444.88 L 268.99 444.39 C 265.45 443.82 261.76 445.14 258.15 445.27 C 257.51 439.66 256.97 434.03 256.21 428.44 Z" />
<path fill="#384b47" opacity="1.00" d=" M 244.61 454.62 C 248.09 452.54 249.48 448.75 251.70 445.60 C 253.45 451.80 252.75 459.92 246.23 463.04 C 245.83 460.20 245.29 457.40 244.61 454.62 Z" />
<path fill="#384b47" opacity="1.00" d=" M 239.31 479.25 C 243.66 479.23 248.02 479.28 252.38 479.19 C 252.61 483.60 252.47 488.03 252.50 492.45 C 248.08 492.42 243.66 492.57 239.24 492.32 C 239.35 487.96 239.30 483.60 239.31 479.25 Z" />
</g>
<g id="#bb0116ff">
<path fill="#bb0116" opacity="1.00" d=" M 222.67 264.67 C 227.24 265.08 231.65 266.99 235.58 269.29 C 238.50 270.90 237.17 274.64 237.33 277.31 C 231.03 275.14 225.85 270.48 222.67 264.67 Z" />
<path fill="#bb0116" opacity="1.00" d=" M 265.44 269.43 C 269.42 266.82 274.08 265.44 278.68 264.40 C 275.54 270.37 270.27 275.12 263.87 277.35 C 264.10 274.75 262.74 271.11 265.44 269.43 Z" />
</g>
</svg>
