<?xml version="1.0" encoding="UTF-8" ?>
<!DOCTYPE svg PUBLIC "-//W3C//DTD SVG 1.1//EN" "http://www.w3.org/Graphics/SVG/1.1/DTD/svg11.dtd">
<svg width="505pt" height="483pt" viewBox="0 0 505 483" version="1.1" xmlns="http://www.w3.org/2000/svg">
<g id="#afa82fff">
<path fill="#afa82f" opacity="1.00" d=" M 192.46 0.00 L 199.08 0.00 C 204.75 0.55 211.07 0.55 215.75 4.27 C 219.65 7.67 219.85 13.29 220.11 18.07 C 220.40 30.37 220.14 42.72 218.72 54.94 C 217.10 59.38 219.92 65.41 215.65 68.61 C 210.93 72.26 205.02 73.82 199.34 75.24 C 191.03 77.07 182.37 78.16 173.91 76.79 C 170.54 76.36 167.33 74.13 166.47 70.72 C 164.86 64.24 165.66 57.49 165.58 50.88 C 165.70 40.64 165.85 30.38 166.72 20.16 C 167.12 15.63 168.03 10.79 171.36 7.42 C 176.75 1.73 184.97 0.35 192.46 0.00 M 190.40 17.65 C 188.26 18.12 186.22 19.08 184.51 20.46 C 179.60 23.88 180.26 32.59 185.75 35.12 C 191.58 38.94 200.16 38.09 204.65 32.59 C 207.58 29.58 207.12 24.52 204.38 21.55 C 200.90 17.76 195.30 16.73 190.40 17.65 Z" />
<path fill="#afa82f" opacity="1.00" d=" M 77.79 7.59 C 85.60 5.21 93.92 5.75 101.98 5.72 C 108.24 6.04 115.16 5.80 120.48 9.64 C 124.81 12.97 125.63 18.82 125.86 23.93 C 126.06 33.91 125.81 43.90 125.97 53.89 C 126.13 59.23 126.02 64.58 125.88 69.93 C 119.77 74.36 113.46 78.64 106.43 81.47 C 99.93 84.13 92.72 82.69 86.06 81.45 C 78.41 79.79 69.89 76.94 65.98 69.55 C 65.23 62.06 65.77 54.52 65.67 47.00 C 65.94 37.38 65.70 27.54 68.27 18.18 C 69.50 13.38 72.87 8.97 77.79 7.59 M 94.45 21.70 C 90.87 22.85 86.80 26.97 89.23 30.89 C 93.22 37.14 103.87 37.09 107.96 30.93 C 109.42 28.38 108.38 24.81 105.89 23.29 C 102.62 20.89 98.25 21.03 94.45 21.70 Z" />
<path fill="#afa82f" opacity="1.00" d=" M 281.11 10.14 C 288.01 7.29 295.68 7.48 303.00 7.68 C 310.58 8.15 318.84 9.10 324.86 14.19 C 330.00 18.54 331.49 25.60 331.48 32.03 C 331.49 45.86 331.52 59.68 331.46 73.51 C 331.17 81.01 331.70 88.53 331.26 96.02 C 331.13 100.53 327.14 103.60 323.29 105.14 C 315.89 107.97 307.78 107.47 300.01 107.32 C 294.48 107.08 287.93 106.50 284.43 101.58 C 280.22 95.29 279.96 87.41 279.06 80.13 C 278.16 67.78 277.34 55.40 275.44 43.15 C 274.49 35.75 272.74 28.36 273.17 20.86 C 273.36 16.07 276.73 11.88 281.11 10.14 M 302.49 26.66 C 297.93 27.13 293.24 31.02 294.37 36.03 C 295.10 44.39 308.69 45.20 311.66 37.88 C 314.54 32.24 308.11 26.09 302.49 26.66 Z" />
<path fill="#afa82f" opacity="1.00" d=" M 358.28 23.22 C 362.47 19.27 368.79 20.44 373.88 21.48 C 381.80 23.49 389.81 25.35 397.45 28.28 C 400.40 29.57 403.85 30.92 405.33 34.02 C 406.15 36.12 404.70 38.13 403.91 40.00 C 396.59 54.07 389.47 68.23 382.13 82.29 C 378.28 89.46 374.67 96.74 371.00 104.00 C 369.84 106.06 368.71 108.65 366.14 109.21 C 362.03 110.31 357.70 109.76 353.55 109.26 C 349.91 108.64 346.05 108.14 342.90 106.07 C 339.70 103.87 339.49 99.56 339.69 96.05 C 340.30 88.58 342.31 81.32 343.55 73.94 C 345.92 62.28 348.06 50.55 351.01 39.01 C 352.62 33.47 354.11 27.46 358.28 23.22 M 376.42 38.68 C 372.15 40.20 370.11 45.93 372.29 49.88 C 374.31 54.07 380.16 55.98 383.99 53.02 C 388.48 50.38 388.93 43.44 385.07 40.08 C 382.79 37.89 379.29 38.09 376.42 38.68 Z" />
<path fill="#afa82f" opacity="1.00" d=" M 421.00 57.95 C 424.83 53.30 430.22 48.35 436.77 49.49 C 444.00 51.00 448.96 57.07 453.73 62.24 C 456.69 65.41 459.54 70.46 456.50 74.52 C 447.61 87.84 437.28 100.15 426.92 112.34 C 422.58 117.20 418.36 122.16 413.85 126.86 C 412.25 128.36 410.38 130.42 407.93 129.76 C 402.73 128.54 399.17 124.14 395.56 120.55 C 393.04 117.69 389.46 114.24 390.83 110.04 C 393.07 103.34 397.45 97.63 400.55 91.31 C 407.01 80.00 412.82 68.17 421.00 57.95 M 430.50 68.75 C 425.75 70.74 424.59 78.06 428.89 81.06 C 432.95 84.85 440.48 81.58 440.54 76.04 C 441.18 70.78 435.29 66.71 430.50 68.75 Z" />
<path fill="#afa82f" opacity="1.00" d=" M 42.22 74.35 C 44.08 73.27 45.91 72.07 47.99 71.45 C 52.92 71.74 57.35 74.22 61.78 76.17 C 71.74 81.20 81.91 86.31 90.27 93.83 C 89.96 100.79 90.71 107.96 88.80 114.73 C 87.90 118.15 84.06 118.88 81.02 118.82 C 64.69 118.92 48.36 118.74 32.03 118.90 C 29.08 118.85 25.65 119.06 23.43 116.71 C 17.91 111.38 16.73 103.35 15.54 96.12 C 15.14 93.04 14.88 89.93 14.63 86.83 C 23.96 82.99 33.47 79.44 42.22 74.35 Z" />
<path fill="#afa82f" opacity="1.00" d=" M 212.71 76.70 C 219.67 73.71 227.25 70.45 234.98 72.17 C 244.34 74.14 253.34 79.08 259.32 86.63 C 262.58 90.31 261.64 95.48 261.69 99.98 C 261.47 103.88 261.68 108.11 259.64 111.61 C 257.34 115.07 252.68 114.91 249.01 115.14 C 237.99 115.17 226.97 115.18 215.96 115.01 C 208.09 114.53 199.93 115.30 192.43 112.40 C 191.47 106.29 191.86 100.08 192.34 93.94 C 192.65 90.50 193.60 86.69 196.70 84.71 C 201.72 81.46 207.32 79.25 212.71 76.70 Z" />
<path fill="#afa82f" opacity="1.00" d=" M 462.28 106.23 C 467.32 103.36 473.75 100.81 479.32 103.79 C 485.14 107.01 488.06 113.33 491.16 118.90 C 493.34 123.25 496.01 127.83 495.60 132.88 C 494.93 137.14 490.74 139.39 487.46 141.52 C 480.41 145.66 473.19 149.48 465.87 153.09 C 459.85 155.88 454.20 159.39 448.23 162.27 C 445.48 163.60 441.45 164.61 439.41 161.59 C 434.94 155.55 431.83 148.62 427.75 142.31 C 425.76 138.87 422.55 134.80 424.88 130.71 C 427.62 126.29 432.73 124.23 436.94 121.47 C 445.57 116.70 453.75 111.18 462.28 106.23 M 463.46 121.61 C 457.34 123.41 456.41 132.86 461.92 135.99 C 466.93 140.11 475.04 135.17 474.53 128.95 C 474.38 123.52 468.55 119.78 463.46 121.61 Z" />
<path fill="#afa82f" opacity="1.00" d=" M 306.62 119.51 C 308.43 119.32 310.23 119.09 312.04 118.87 C 312.65 120.01 313.27 121.15 313.89 122.30 C 312.57 123.17 311.52 124.83 309.79 124.83 C 308.64 124.48 307.53 123.99 306.43 123.53 C 306.48 122.52 306.57 120.51 306.62 119.51 Z" />
<path fill="#afa82f" opacity="1.00" d=" M 193.61 130.80 C 197.51 125.52 203.57 122.13 210.09 121.45 C 221.98 120.15 233.99 120.67 245.94 120.88 C 250.73 121.27 256.09 120.97 260.23 123.82 C 262.77 126.63 261.79 130.88 261.28 134.28 C 258.81 144.61 254.83 154.55 250.23 164.10 C 247.41 169.60 244.47 175.68 238.64 178.55 C 225.22 181.76 211.33 180.85 197.65 181.11 C 193.34 181.17 189.03 181.25 184.72 181.31 C 183.83 174.93 184.29 168.47 184.21 162.05 C 184.25 156.19 184.04 150.11 186.34 144.59 C 188.37 139.80 190.94 135.26 193.61 130.80 Z" />
<path fill="#afa82f" opacity="1.00" d=" M 278.11 121.45 C 279.70 120.90 281.43 120.37 283.14 120.50 C 285.32 121.78 284.28 124.59 284.64 126.63 C 283.03 126.64 281.43 126.59 279.84 126.46 C 278.00 125.50 278.56 123.11 278.11 121.45 Z" />
<path fill="#afa82f" opacity="1.00" d=" M 336.14 123.11 C 341.79 123.03 347.65 125.34 351.85 129.11 C 352.96 132.21 349.97 134.84 347.02 134.54 C 342.48 134.12 337.84 132.60 334.19 129.83 C 331.67 127.83 334.32 124.57 336.14 123.11 Z" />
<path fill="#afa82f" opacity="1.00" d=" M 14.41 127.85 C 34.95 128.49 55.50 127.76 76.05 128.17 C 79.96 128.32 84.07 128.42 87.62 130.26 C 90.79 131.92 92.42 135.26 94.21 138.17 C 96.51 149.33 96.21 160.79 95.68 172.11 C 95.51 175.83 94.68 179.47 93.78 183.07 C 89.29 187.75 82.30 186.87 76.42 187.02 C 68.71 187.04 60.99 186.88 53.30 186.22 C 46.27 185.64 40.06 181.45 36.49 175.44 C 27.19 160.62 18.21 145.10 14.41 127.85 Z" />
<path fill="#afa82f" opacity="1.00" d=" M 362.12 128.15 C 367.53 127.17 373.45 128.11 378.25 130.83 C 381.62 132.40 380.90 138.64 376.95 138.71 C 373.64 138.65 370.50 137.42 367.33 136.64 C 364.92 135.88 362.25 135.44 360.30 133.72 C 359.51 131.70 360.56 129.47 362.12 128.15 Z" />
<path fill="#afa82f" opacity="1.00" d=" M 385.71 145.46 C 389.80 141.33 396.57 140.39 401.56 143.44 C 409.29 148.12 415.93 156.90 414.01 166.41 C 408.81 164.64 405.85 159.63 401.45 156.63 C 396.48 152.49 389.71 150.75 385.71 145.46 Z" />
<path fill="#afa82f" opacity="1.00" d=" M 274.78 170.78 C 278.20 167.90 282.52 165.71 287.05 165.55 C 291.73 166.02 296.47 167.80 299.91 171.08 C 304.10 175.74 307.07 182.51 304.71 188.73 C 302.85 194.67 298.27 199.68 292.16 201.32 C 286.18 203.92 279.42 201.15 274.79 197.14 C 270.94 193.83 269.67 188.76 268.48 184.05 C 269.61 179.27 270.89 174.13 274.78 170.78 M 284.34 170.59 C 275.17 172.69 272.07 185.88 278.90 192.14 C 282.17 196.08 287.70 196.12 292.34 195.33 C 295.78 194.17 298.60 191.35 300.18 188.13 C 301.04 183.29 301.48 177.27 297.27 173.78 C 294.08 170.04 288.83 169.92 284.34 170.59 Z" />
<path fill="#afa82f" opacity="1.00" d=" M 477.37 170.47 C 481.25 170.13 485.14 169.69 489.04 169.94 C 493.85 170.43 497.54 174.22 499.86 178.19 C 504.16 185.66 503.42 194.71 502.33 202.91 C 501.73 208.18 498.29 213.07 493.06 214.56 C 485.72 215.24 478.33 214.96 470.97 214.84 C 466.74 214.59 462.28 214.62 458.39 212.72 C 454.99 210.91 454.50 206.68 453.66 203.32 C 452.32 195.86 450.29 188.50 449.62 180.93 C 449.35 178.26 449.83 174.56 453.07 174.06 C 461.01 172.01 469.26 171.55 477.37 170.47 M 482.43 181.58 C 475.46 182.63 472.78 192.44 477.92 197.06 C 482.13 201.63 490.80 199.83 492.69 193.86 C 495.73 187.65 488.94 180.02 482.43 181.58 Z" />
<path fill="#afa82f" opacity="1.00" d=" M 431.28 175.56 C 435.82 176.37 438.19 181.23 439.59 185.19 C 441.37 191.85 441.25 199.08 439.64 205.76 C 439.20 208.97 434.00 210.92 432.46 207.63 C 431.82 201.41 434.28 195.18 433.07 188.95 C 432.59 185.38 429.53 183.05 427.95 180.00 C 427.35 177.80 429.02 175.59 431.28 175.56 Z" />
<path fill="#afa82f" opacity="1.00" d=" M 286.14 176.02 C 290.72 173.46 296.69 177.75 295.63 182.89 C 295.63 188.49 287.72 190.57 284.19 186.79 C 280.94 183.73 282.21 177.88 286.14 176.02 Z" />
<path fill="#afa82f" opacity="1.00" d=" M 316.50 181.28 C 320.76 181.79 325.01 182.38 329.23 183.21 C 325.01 186.86 320.79 190.49 316.51 194.06 C 316.51 189.80 316.52 185.54 316.50 181.28 Z" />
<path fill="#afa82f" opacity="1.00" d=" M 310.97 200.04 C 314.43 200.63 317.88 201.27 321.32 201.98 C 318.01 204.59 314.48 206.88 310.90 209.10 C 310.90 206.08 310.92 203.06 310.97 200.04 Z" />
<path fill="#afa82f" opacity="1.00" d=" M 358.95 203.63 C 371.91 197.79 388.96 204.86 393.97 218.17 C 391.38 218.73 388.80 219.28 386.22 219.84 C 383.20 215.51 379.28 211.38 373.93 210.21 C 370.07 208.86 366.04 209.87 362.22 210.74 C 361.05 208.40 359.96 206.04 358.95 203.63 Z" />
<path fill="#afa82f" opacity="1.00" d=" M 349.36 210.31 C 350.30 209.11 351.78 208.64 353.08 207.95 C 354.31 209.95 355.56 211.94 356.81 213.92 C 352.99 218.23 349.81 223.71 350.51 229.68 C 350.72 234.58 353.38 238.89 356.86 242.19 C 355.38 243.79 354.49 247.79 351.65 246.46 C 346.65 242.46 343.64 236.29 342.62 230.04 C 341.86 222.90 344.65 215.62 349.36 210.31 Z" />
<path fill="#afa82f" opacity="1.00" d=" M 307.08 215.16 C 310.10 215.79 313.12 216.41 316.13 217.06 C 313.14 220.12 310.10 223.16 307.05 226.17 C 307.04 222.50 307.05 218.83 307.08 215.16 Z" />
<path fill="#afa82f" opacity="1.00" d=" M 366.34 215.38 C 371.91 213.13 379.61 217.86 379.87 224.10 C 380.35 228.06 380.02 232.97 376.31 235.35 C 369.13 241.34 356.10 234.38 357.66 224.94 C 358.37 220.27 362.48 217.43 366.34 215.38 Z" />
<path fill="#afa82f" opacity="1.00" d=" M 387.65 228.41 C 390.28 227.60 393.02 227.27 395.77 227.13 C 395.96 233.71 393.05 239.98 388.73 244.81 C 384.06 249.58 377.59 252.29 371.05 253.21 C 367.66 253.50 364.33 252.54 361.01 252.07 C 361.89 250.19 362.78 248.32 363.67 246.45 C 367.22 246.51 370.81 246.88 374.34 246.31 C 382.10 244.26 388.24 236.57 387.65 228.41 Z" />
<path fill="#afa82f" opacity="1.00" d=" M 460.26 232.28 C 463.02 230.12 466.74 230.35 470.05 230.23 C 478.37 230.33 486.69 230.23 495.02 230.25 C 499.58 230.72 504.31 233.40 505.00 238.34 L 505.00 264.80 C 503.60 269.47 498.62 271.28 494.21 271.64 C 487.12 271.63 480.03 271.52 472.94 271.63 C 468.72 271.64 463.90 271.42 460.80 268.15 C 458.03 265.55 458.04 261.51 458.00 258.00 C 458.07 251.99 458.04 245.98 458.00 239.97 C 458.13 237.33 457.86 234.06 460.26 232.28 M 482.99 249.96 C 481.43 253.05 484.47 255.56 486.28 257.67 C 490.03 257.78 494.18 258.05 496.72 254.72 C 496.55 252.72 496.86 250.60 496.14 248.70 C 493.07 244.09 484.97 244.66 482.99 249.96 Z" />
<path fill="#afa82f" opacity="1.00" d=" M 442.60 231.55 C 443.45 231.57 445.15 231.62 446.00 231.65 C 446.45 232.26 447.33 233.48 447.77 234.10 C 446.87 235.00 445.98 235.90 445.10 236.82 C 444.42 236.44 443.05 235.68 442.37 235.30 C 442.43 234.37 442.54 232.49 442.60 231.55 Z" />
<path fill="#afa82f" opacity="1.00" d=" M 369.47 271.85 C 373.69 273.04 377.90 274.24 382.13 275.44 C 378.56 278.62 374.84 281.63 371.23 284.75 C 370.52 280.47 369.94 276.16 369.47 271.85 Z" />
<path fill="#afa82f" opacity="1.00" d=" M 64.19 278.92 C 64.51 276.78 65.49 274.10 67.96 273.78 C 71.31 273.27 74.29 275.39 76.98 277.08 C 83.87 281.85 90.31 287.52 94.89 294.60 C 95.31 295.99 95.83 297.44 95.68 298.92 C 94.62 301.73 91.56 302.98 89.00 304.07 C 82.94 306.25 76.43 307.32 69.99 307.07 C 68.42 306.87 65.92 307.01 65.47 305.03 C 64.38 301.17 64.14 297.13 63.84 293.15 C 63.70 288.41 63.56 283.63 64.19 278.92 Z" />
<path fill="#afa82f" opacity="1.00" d=" M 441.72 275.38 C 443.17 275.03 444.59 275.15 445.96 275.74 C 446.96 277.75 446.02 279.86 445.56 281.86 C 443.76 281.34 441.95 280.91 440.17 280.34 C 440.59 278.67 440.54 276.75 441.72 275.38 Z" />
<path fill="#afa82f" opacity="1.00" d=" M 204.20 281.13 C 206.26 279.81 208.88 278.63 211.32 279.66 C 213.94 280.77 214.82 283.75 215.91 286.13 C 218.08 291.85 220.56 297.49 222.08 303.43 C 222.30 305.67 222.32 307.92 222.37 310.18 C 214.19 311.78 205.76 310.51 197.79 308.46 C 194.30 307.32 190.14 306.18 188.25 302.74 C 187.81 298.70 190.54 295.20 192.73 292.07 C 196.05 287.96 199.76 284.05 204.20 281.13 Z" />
<path fill="#afa82f" opacity="1.00" d=" M 459.30 281.28 C 463.04 279.53 467.15 281.27 470.86 282.29 C 478.49 284.87 486.33 286.74 494.10 288.89 C 499.37 290.96 503.85 296.08 503.25 302.03 C 502.31 310.08 499.43 317.78 496.15 325.13 C 494.26 329.74 488.81 330.92 484.37 331.28 C 476.67 330.82 469.19 328.87 461.66 327.36 C 457.73 326.35 453.37 325.59 450.34 322.68 C 447.91 320.37 448.30 316.77 448.75 313.77 C 450.13 306.03 451.89 298.37 453.66 290.71 C 454.57 287.18 455.68 282.96 459.30 281.28 M 482.35 300.55 C 477.28 302.11 476.12 308.56 478.15 312.88 C 479.71 315.78 483.26 317.40 486.44 316.31 C 490.85 314.43 492.95 308.60 490.49 304.41 C 489.25 301.24 485.56 299.72 482.35 300.55 Z" />
<path fill="#afa82f" opacity="1.00" d=" M 426.42 320.14 C 427.37 320.28 429.28 320.58 430.23 320.72 C 432.58 321.70 431.21 324.75 431.64 326.67 C 429.58 326.33 426.85 327.27 425.48 325.21 C 425.35 323.46 426.08 321.82 426.42 320.14 Z" />
<path fill="#afa82f" opacity="1.00" d=" M 453.90 345.92 C 454.84 342.88 457.03 338.68 460.90 339.70 C 467.70 340.97 474.47 342.40 481.23 343.92 C 485.17 345.20 490.53 346.51 491.78 351.06 C 491.59 355.76 490.29 360.36 488.92 364.84 C 487.80 368.06 485.89 372.07 481.99 372.30 C 478.99 372.09 476.22 370.80 473.38 369.93 C 466.93 367.57 459.48 366.59 454.35 361.63 C 450.70 357.23 452.61 350.89 453.90 345.92 M 473.51 351.63 C 470.27 353.18 468.11 357.40 470.33 360.65 C 472.51 365.06 480.17 364.69 481.52 359.84 C 481.72 357.53 482.18 354.55 480.09 352.94 C 478.41 351.18 475.72 351.04 473.51 351.63 Z" />
<path fill="#afa82f" opacity="1.00" d=" M 414.31 347.50 C 416.35 346.72 418.53 346.58 420.49 347.68 C 420.47 349.24 420.46 350.82 420.47 352.39 C 418.48 353.31 416.34 353.37 414.34 352.48 C 414.33 350.82 414.32 349.16 414.31 347.50 Z" />
<path fill="#afa82f" opacity="1.00" d=" M 376.66 364.31 C 379.89 369.84 382.91 375.49 386.06 381.07 C 380.48 385.45 374.91 389.84 369.26 394.13 C 366.14 388.55 363.01 382.97 359.95 377.36 C 365.52 373.01 371.14 368.72 376.66 364.31 Z" />
<path fill="#afa82f" opacity="1.00" d=" M 432.06 392.14 C 434.61 387.62 438.00 383.64 440.96 379.39 C 444.67 381.20 448.36 383.05 452.03 384.96 C 448.23 391.08 444.86 397.47 440.70 403.36 C 437.94 399.56 434.00 396.45 432.06 392.14 Z" />
<path fill="#afa82f" opacity="1.00" d=" M 378.88 426.39 C 386.39 422.75 393.80 418.93 401.30 415.25 C 404.95 420.86 408.76 426.36 412.36 432.01 C 405.63 436.50 398.75 440.75 391.93 445.09 C 387.50 438.91 383.12 432.70 378.88 426.39 Z" />
<path fill="#afa82f" opacity="1.00" d=" M 329.59 430.33 C 335.82 432.32 342.38 433.52 348.32 436.27 C 349.98 440.37 350.80 444.75 352.09 448.98 C 347.12 451.52 342.14 454.03 337.11 456.46 C 330.34 453.26 323.45 450.32 316.70 447.08 C 320.90 441.42 325.35 435.96 329.59 430.33 Z" />
</g>
<g id="#735c3bff">
<path fill="#735c3b" opacity="1.00" d=" M 190.40 17.65 C 195.30 16.73 200.90 17.76 204.38 21.55 C 207.12 24.52 207.58 29.58 204.65 32.59 C 200.16 38.09 191.58 38.94 185.75 35.12 C 180.26 32.59 179.60 23.88 184.51 20.46 C 186.22 19.08 188.26 18.12 190.40 17.65 Z" />
<path fill="#735c3b" opacity="1.00" d=" M 94.45 21.70 C 98.25 21.03 102.62 20.89 105.89 23.29 C 108.38 24.81 109.42 28.38 107.96 30.93 C 103.87 37.09 93.22 37.14 89.23 30.89 C 86.80 26.97 90.87 22.85 94.45 21.70 Z" />
<path fill="#735c3b" opacity="1.00" d=" M 302.49 26.66 C 308.11 26.09 314.54 32.24 311.66 37.88 C 308.69 45.20 295.10 44.39 294.37 36.03 C 293.24 31.02 297.93 27.13 302.49 26.66 Z" />
<path fill="#735c3b" opacity="1.00" d=" M 376.42 38.68 C 379.29 38.09 382.79 37.89 385.07 40.08 C 388.93 43.44 388.48 50.38 383.99 53.02 C 380.16 55.98 374.31 54.07 372.29 49.88 C 370.11 45.93 372.15 40.20 376.42 38.68 Z" />
<path fill="#735c3b" opacity="1.00" d=" M 430.50 68.75 C 435.29 66.71 441.18 70.78 440.54 76.04 C 440.48 81.58 432.95 84.85 428.89 81.06 C 424.59 78.06 425.75 70.74 430.50 68.75 Z" />
<path fill="#735c3b" opacity="1.00" d=" M 331.46 73.51 C 335.49 73.58 339.52 73.74 343.55 73.94 C 342.31 81.32 340.30 88.58 339.69 96.05 C 339.49 99.56 339.70 103.87 342.90 106.07 C 346.05 108.14 349.91 108.64 353.55 109.26 C 357.70 109.76 362.03 110.31 366.14 109.21 C 368.71 108.65 369.84 106.06 371.00 104.00 C 374.67 96.74 378.28 89.46 382.13 82.29 C 388.52 84.76 394.65 87.83 400.55 91.31 C 397.45 97.63 393.07 103.34 390.83 110.04 C 389.46 114.24 393.04 117.69 395.56 120.55 C 399.17 124.14 402.73 128.54 407.93 129.76 C 410.38 130.42 412.25 128.36 413.85 126.86 C 418.36 122.16 422.58 117.20 426.92 112.34 C 430.32 115.31 433.63 118.39 436.94 121.47 C 432.73 124.23 427.62 126.29 424.88 130.71 C 422.55 134.80 425.76 138.87 427.75 142.31 C 431.83 148.62 434.94 155.55 439.41 161.59 C 441.45 164.61 445.48 163.60 448.23 162.27 C 454.20 159.39 459.85 155.88 465.87 153.09 C 470.01 158.67 473.85 164.48 477.37 170.47 C 469.26 171.55 461.01 172.01 453.07 174.06 C 449.83 174.56 449.35 178.26 449.62 180.93 C 450.29 188.50 452.32 195.86 453.66 203.32 C 454.50 206.68 454.99 210.91 458.39 212.72 C 462.28 214.62 466.74 214.59 470.97 214.84 C 478.33 214.96 485.72 215.24 493.06 214.56 C 493.93 219.76 494.55 225.00 495.02 230.25 C 486.69 230.23 478.37 230.33 470.05 230.23 C 466.74 230.35 463.02 230.12 460.26 232.28 C 457.86 234.06 458.13 237.33 458.00 239.97 C 458.04 245.98 458.07 251.99 458.00 258.00 C 458.04 261.51 458.03 265.55 460.80 268.15 C 463.90 271.42 468.72 271.64 472.94 271.63 C 480.03 271.52 487.12 271.63 494.21 271.64 C 493.82 277.13 493.07 282.58 492.51 288.06 C 492.90 288.26 493.70 288.68 494.10 288.89 C 486.33 286.74 478.49 284.87 470.86 282.29 C 467.15 281.27 463.04 279.53 459.30 281.28 C 455.68 282.96 454.57 287.18 453.66 290.71 C 451.89 298.37 450.13 306.03 448.75 313.77 C 448.30 316.77 447.91 320.37 450.34 322.68 C 453.37 325.59 457.73 326.35 461.66 327.36 C 469.19 328.87 476.67 330.82 484.37 331.28 C 483.33 335.49 482.27 339.70 481.23 343.92 C 474.47 342.40 467.70 340.97 460.90 339.70 C 457.03 338.68 454.84 342.88 453.90 345.92 C 452.61 350.89 450.70 357.23 454.35 361.63 C 459.48 366.59 466.93 367.57 473.38 369.93 C 473.30 370.38 473.14 371.27 473.06 371.71 C 467.04 371.66 461.06 370.51 455.43 368.41 C 449.68 366.37 444.10 363.29 437.86 363.17 C 428.73 362.93 421.14 369.80 412.00 369.50 C 407.71 369.61 403.54 367.53 401.11 363.99 C 396.76 358.06 392.90 351.07 385.82 348.01 C 379.04 344.70 371.26 346.56 364.19 344.58 C 359.58 343.36 356.87 338.53 356.69 334.01 C 356.92 330.55 360.17 328.37 363.15 327.32 C 369.27 325.18 375.87 324.66 381.83 322.02 C 390.68 318.17 399.35 312.97 405.26 305.17 C 410.60 298.11 411.61 288.99 412.74 280.49 C 414.40 268.32 414.74 256.02 414.55 243.76 C 410.85 247.65 407.54 251.94 403.43 255.43 C 398.66 259.60 393.20 262.85 387.74 266.00 C 387.46 273.69 388.05 281.39 387.55 289.07 C 387.02 295.22 381.09 298.95 375.62 300.35 C 368.19 302.19 360.44 301.91 352.87 302.87 C 341.90 303.48 330.91 303.78 319.92 303.62 C 319.95 303.11 320.01 302.07 320.04 301.56 C 320.60 293.79 322.00 286.09 324.25 278.63 C 317.58 272.83 306.96 274.90 301.78 281.66 C 300.84 279.52 299.69 277.09 300.85 274.79 C 303.55 268.10 309.98 261.38 317.79 262.49 C 323.49 264.15 328.19 268.10 333.75 270.14 C 339.02 272.31 344.98 272.06 350.37 270.43 C 347.46 267.69 343.88 265.76 340.94 263.05 C 333.73 256.67 328.37 247.71 327.87 237.93 C 327.27 225.96 329.55 213.78 335.17 203.13 C 332.57 205.37 330.35 208.09 329.14 211.33 C 324.92 222.11 322.30 233.42 319.81 244.70 C 317.80 253.78 310.18 261.03 301.17 263.03 C 291.93 264.99 282.41 263.81 273.04 264.13 C 273.72 256.93 274.60 249.69 276.82 242.79 C 277.67 240.54 278.59 238.11 280.54 236.58 C 284.03 235.10 289.56 236.55 291.31 232.27 C 292.49 227.25 291.71 222.00 291.89 216.89 C 281.07 216.41 270.26 215.80 259.43 215.37 C 261.03 210.44 262.69 205.49 263.46 200.34 C 264.17 195.12 261.43 190.24 261.37 185.06 C 261.20 179.15 264.34 173.88 265.33 168.17 C 266.42 162.10 267.29 155.99 268.45 149.93 C 267.47 148.90 266.50 147.86 265.53 146.83 C 268.03 142.53 270.76 138.09 271.14 133.00 C 272.11 122.88 264.56 114.15 265.62 104.01 C 266.12 96.06 271.87 89.78 272.97 81.98 C 274.99 81.34 277.02 80.72 279.06 80.13 C 279.96 87.41 280.22 95.29 284.43 101.58 C 287.93 106.50 294.48 107.08 300.01 107.32 C 307.78 107.47 315.89 107.97 323.29 105.14 C 327.14 103.60 331.13 100.53 331.26 96.02 C 331.70 88.53 331.17 81.01 331.46 73.51 M 306.62 119.51 C 306.57 120.51 306.48 122.52 306.43 123.53 C 307.53 123.99 308.64 124.48 309.79 124.83 C 311.52 124.83 312.57 123.17 313.89 122.30 C 313.27 121.15 312.65 120.01 312.04 118.87 C 310.23 119.09 308.43 119.32 306.62 119.51 M 278.11 121.45 C 278.56 123.11 278.00 125.50 279.84 126.46 C 281.43 126.59 283.03 126.64 284.64 126.63 C 284.28 124.59 285.32 121.78 283.14 120.50 C 281.43 120.37 279.70 120.90 278.11 121.45 M 336.14 123.11 C 334.32 124.57 331.67 127.83 334.19 129.83 C 337.84 132.60 342.48 134.12 347.02 134.54 C 349.97 134.84 352.96 132.21 351.85 129.11 C 347.65 125.34 341.79 123.03 336.14 123.11 M 362.12 128.15 C 360.56 129.47 359.51 131.70 360.30 133.72 C 362.25 135.44 364.92 135.88 367.33 136.64 C 370.50 137.42 373.64 138.65 376.95 138.71 C 380.90 138.64 381.62 132.40 378.25 130.83 C 373.45 128.11 367.53 127.17 362.12 128.15 M 271.30 142.30 C 269.92 143.41 268.65 145.27 270.02 146.92 C 271.40 150.29 276.94 148.60 276.59 145.16 C 276.32 142.55 273.54 141.62 271.30 142.30 M 385.71 145.46 C 389.71 150.75 396.48 152.49 401.45 156.63 C 405.85 159.63 408.81 164.64 414.01 166.41 C 415.93 156.90 409.29 148.12 401.56 143.44 C 396.57 140.39 389.80 141.33 385.71 145.46 M 316.99 145.83 C 314.58 146.84 315.46 149.70 315.22 151.74 C 316.98 152.04 319.12 153.30 320.58 151.62 C 323.67 149.48 320.33 143.87 316.99 145.83 M 389.46 162.53 C 387.17 162.93 385.44 165.93 387.06 167.90 C 388.41 170.42 392.49 169.88 393.26 167.18 C 394.33 164.92 391.83 162.02 389.46 162.53 M 274.78 170.78 C 270.89 174.13 269.61 179.27 268.48 184.05 C 269.67 188.76 270.94 193.83 274.79 197.14 C 279.42 201.15 286.18 203.92 292.16 201.32 C 298.27 199.68 302.85 194.67 304.71 188.73 C 307.07 182.51 304.10 175.74 299.91 171.08 C 296.47 167.80 291.73 166.02 287.05 165.55 C 282.52 165.71 278.20 167.90 274.78 170.78 M 431.28 175.56 C 429.02 175.59 427.35 177.80 427.95 180.00 C 429.53 183.05 432.59 185.38 433.07 188.95 C 434.28 195.18 431.82 201.41 432.46 207.63 C 434.00 210.92 439.20 208.97 439.64 205.76 C 441.25 199.08 441.37 191.85 439.59 185.19 C 438.19 181.23 435.82 176.37 431.28 175.56 M 316.50 181.28 C 316.52 185.54 316.51 189.80 316.51 194.06 C 320.79 190.49 325.01 186.86 329.23 183.21 C 325.01 182.38 320.76 181.79 316.50 181.28 M 415.11 185.76 C 415.16 187.15 415.22 188.55 415.28 189.95 C 416.66 189.80 418.05 189.61 419.41 189.31 C 419.77 188.33 419.82 187.32 419.58 186.30 C 418.52 184.78 416.59 185.63 415.11 185.76 M 310.97 200.04 C 310.92 203.06 310.90 206.08 310.90 209.10 C 314.48 206.88 318.01 204.59 321.32 201.98 C 317.88 201.27 314.43 200.63 310.97 200.04 M 358.95 203.63 C 359.96 206.04 361.05 208.40 362.22 210.74 C 366.04 209.87 370.07 208.86 373.93 210.21 C 379.28 211.38 383.20 215.51 386.22 219.84 C 388.80 219.28 391.38 218.73 393.97 218.17 C 388.96 204.86 371.91 197.79 358.95 203.63 M 349.36 210.31 C 344.65 215.62 341.86 222.90 342.62 230.04 C 343.64 236.29 346.65 242.46 351.65 246.46 C 354.49 247.79 355.38 243.79 356.86 242.19 C 353.38 238.89 350.72 234.58 350.51 229.68 C 349.81 223.71 352.99 218.23 356.81 213.92 C 355.56 211.94 354.31 209.95 353.08 207.95 C 351.78 208.64 350.30 209.11 349.36 210.31 M 307.08 215.16 C 307.05 218.83 307.04 222.50 307.05 226.17 C 310.10 223.16 313.14 220.12 316.13 217.06 C 313.12 216.41 310.10 215.79 307.08 215.16 M 366.34 215.38 C 362.48 217.43 358.37 220.27 357.66 224.94 C 356.10 234.38 369.13 241.34 376.31 235.35 C 380.02 232.97 380.35 228.06 379.87 224.10 C 379.61 217.86 371.91 213.13 366.34 215.38 M 423.49 223.59 C 421.01 225.66 422.76 230.27 426.03 229.75 C 428.59 229.97 430.56 226.30 428.53 224.41 C 427.61 222.55 425.10 223.22 423.49 223.59 M 387.65 228.41 C 388.24 236.57 382.10 244.26 374.34 246.31 C 370.81 246.88 367.22 246.51 363.67 246.45 C 362.78 248.32 361.89 250.19 361.01 252.07 C 364.33 252.54 367.66 253.50 371.05 253.21 C 377.59 252.29 384.06 249.58 388.73 244.81 C 393.05 239.98 395.96 233.71 395.77 227.13 C 393.02 227.27 390.28 227.60 387.65 228.41 M 442.60 231.55 C 442.54 232.49 442.43 234.37 442.37 235.30 C 443.05 235.68 444.42 236.44 445.10 236.82 C 445.98 235.90 446.87 235.00 447.77 234.10 C 447.33 233.48 446.45 232.26 446.00 231.65 C 445.15 231.62 443.45 231.57 442.60 231.55 M 427.28 243.57 C 425.79 244.06 423.98 245.09 424.28 246.95 C 423.90 249.18 426.54 251.34 428.66 250.50 C 432.44 249.71 431.10 243.02 427.28 243.57 M 369.47 271.85 C 369.94 276.16 370.52 280.47 371.23 284.75 C 374.84 281.63 378.56 278.62 382.13 275.44 C 377.90 274.24 373.69 273.04 369.47 271.85 M 441.72 275.38 C 440.54 276.75 440.59 278.67 440.17 280.34 C 441.95 280.91 443.76 281.34 445.56 281.86 C 446.02 279.86 446.96 277.75 445.96 275.74 C 444.59 275.15 443.17 275.03 441.72 275.38 M 401.84 322.03 C 402.90 324.42 405.73 323.56 407.79 323.77 C 408.20 321.81 409.32 319.23 407.10 317.92 C 404.58 315.66 400.08 319.07 401.84 322.03 M 426.42 320.14 C 426.08 321.82 425.35 323.46 425.48 325.21 C 426.85 327.27 429.58 326.33 431.64 326.67 C 431.21 324.75 432.58 321.70 430.23 320.72 C 429.28 320.58 427.37 320.28 426.42 320.14 M 383.40 330.55 C 381.07 331.29 381.30 334.03 380.94 335.96 C 382.64 336.78 384.88 338.51 386.55 336.61 C 389.46 334.53 386.76 329.34 383.40 330.55 M 414.31 347.50 C 414.32 349.16 414.33 350.82 414.34 352.48 C 416.34 353.37 418.48 353.31 420.47 352.39 C 420.46 350.82 420.47 349.24 420.49 347.68 C 418.53 346.58 416.35 346.72 414.31 347.50 Z" />
<path fill="#735c3b" opacity="1.00" d=" M 129.43 96.07 C 134.52 91.45 139.72 86.96 144.91 82.46 C 150.03 86.49 155.32 90.29 160.49 94.26 C 157.88 99.20 153.99 103.24 150.53 107.56 C 146.66 107.48 142.62 108.21 138.86 107.19 C 135.54 103.65 132.83 99.56 129.43 96.07 Z" />
<path fill="#735c3b" opacity="1.00" d=" M 99.18 113.00 C 104.41 108.56 109.34 103.76 114.81 99.61 C 118.66 104.10 122.51 108.60 126.38 113.07 C 121.98 117.64 117.43 122.07 112.90 126.51 C 108.18 122.16 103.75 117.51 99.18 113.00 Z" />
<path fill="#735c3b" opacity="1.00" d=" M 157.97 116.87 C 161.87 111.92 166.59 107.70 171.03 103.25 C 175.70 107.66 180.35 112.11 184.50 117.02 C 180.21 121.53 175.86 126.01 171.22 130.18 C 166.76 125.78 162.30 121.39 157.97 116.87 Z" />
<path fill="#735c3b" opacity="1.00" d=" M 124.01 139.65 C 130.11 133.12 136.45 126.81 142.94 120.68 C 149.40 127.46 155.51 134.55 161.93 141.37 C 155.14 147.33 148.11 153.02 140.95 158.54 C 135.29 152.26 129.55 146.04 124.01 139.65 Z" />
<path fill="#735c3b" opacity="1.00" d=" M 463.46 121.61 C 468.55 119.78 474.38 123.52 474.53 128.95 C 475.04 135.17 466.93 140.11 461.92 135.99 C 456.41 132.86 457.34 123.41 463.46 121.61 Z" />
<path fill="#735c3b" opacity="1.00" d=" M 172.39 151.56 C 175.17 141.53 183.64 133.53 193.61 130.80 C 190.94 135.26 188.37 139.80 186.34 144.59 C 184.04 150.11 184.25 156.19 184.21 162.05 C 184.29 168.47 183.83 174.93 184.72 181.31 C 186.17 189.52 184.03 197.78 184.80 206.03 C 185.38 213.48 184.87 221.92 189.94 228.04 C 192.57 231.35 197.05 231.86 201.00 231.80 C 210.92 231.76 221.43 231.18 230.25 226.15 C 239.11 220.46 244.81 210.51 246.29 200.19 C 246.73 197.40 246.11 194.07 243.52 192.51 C 240.65 190.86 237.16 191.32 233.98 191.19 C 225.09 191.48 215.96 190.37 207.35 193.20 C 207.32 196.86 206.83 200.62 207.82 204.20 C 209.80 205.91 212.65 205.59 215.01 205.01 C 218.81 204.16 220.95 200.60 224.02 198.53 C 228.27 197.63 232.17 201.93 232.13 206.00 C 231.77 209.78 229.34 213.36 225.83 214.91 C 221.18 217.00 215.95 217.59 210.89 217.25 C 206.80 216.93 202.39 215.55 199.92 212.05 C 197.61 208.90 197.49 204.82 197.39 201.07 C 197.34 194.42 197.35 187.76 197.65 181.11 C 211.33 180.85 225.22 181.76 238.64 178.55 C 243.39 178.81 248.13 179.37 252.81 180.21 C 255.25 180.68 258.22 181.63 258.65 184.49 C 260.51 192.30 259.83 200.89 256.03 208.05 C 252.05 215.62 247.94 223.13 243.28 230.30 C 239.85 235.38 236.12 240.71 230.46 243.50 C 226.33 245.69 221.52 245.24 217.02 245.19 C 201.35 244.95 185.68 245.30 170.02 245.05 C 160.64 244.54 149.65 240.71 146.32 231.00 C 142.82 235.95 138.49 240.82 132.37 242.36 C 118.56 245.99 104.13 244.70 90.01 245.11 C 79.42 244.94 68.53 246.06 58.28 242.80 C 48.93 239.71 41.10 233.41 33.71 227.11 C 29.51 223.02 24.19 220.12 20.61 215.40 C 18.00 212.06 16.15 208.23 14.43 204.38 C 14.02 204.10 13.19 203.55 12.78 203.28 C 12.02 198.45 10.77 193.73 9.68 188.98 C 9.92 187.74 10.09 186.49 10.17 185.24 C 15.80 186.09 21.29 187.76 27.01 188.04 C 35.83 189.07 44.56 187.12 53.30 186.22 C 60.99 186.88 68.71 187.04 76.42 187.02 C 80.28 191.49 79.19 197.63 79.51 203.06 C 79.53 208.08 80.36 213.41 78.29 218.16 C 76.66 221.34 72.61 221.25 69.57 220.77 C 63.95 219.73 58.02 218.11 53.77 214.08 C 50.64 211.54 52.90 205.63 56.88 205.82 C 59.60 206.85 61.98 208.63 64.74 209.57 C 67.89 207.55 68.14 202.24 65.12 200.04 C 61.72 198.20 57.71 198.42 53.97 198.31 C 48.89 198.42 43.62 198.16 38.76 199.90 C 36.95 200.48 35.25 202.25 35.70 204.27 C 37.18 211.04 41.91 216.52 46.76 221.23 C 51.88 226.23 58.63 230.11 66.01 229.76 C 74.69 229.56 83.61 230.47 92.06 228.01 C 94.83 227.31 97.82 225.28 97.35 222.02 C 96.69 209.00 94.96 196.05 93.78 183.07 C 94.68 179.47 95.51 175.83 95.68 172.11 C 96.21 160.79 96.51 149.33 94.21 138.17 C 103.31 146.15 109.28 157.80 109.28 170.01 C 109.36 184.70 108.97 199.46 111.14 214.04 C 111.65 217.49 113.02 220.73 114.34 223.94 C 116.73 223.63 119.34 223.81 121.47 222.48 C 127.36 218.78 131.65 212.82 138.08 209.93 C 141.48 208.34 145.15 210.13 148.19 211.70 C 156.23 216.28 163.68 221.83 170.79 227.74 C 170.65 209.48 170.77 191.22 170.72 172.97 C 170.70 165.82 170.29 158.49 172.39 151.56 Z" />
<path fill="#735c3b" opacity="1.00" d=" M 284.34 170.59 C 288.83 169.92 294.08 170.04 297.27 173.78 C 301.48 177.27 301.04 183.29 300.18 188.13 C 298.60 191.35 295.78 194.17 292.34 195.33 C 287.70 196.12 282.17 196.08 278.90 192.14 C 272.07 185.88 275.17 172.69 284.34 170.59 M 286.14 176.02 C 282.21 177.88 280.94 183.73 284.19 186.79 C 287.72 190.57 295.63 188.49 295.63 182.89 C 296.69 177.75 290.72 173.46 286.14 176.02 Z" />
<path fill="#735c3b" opacity="1.00" d=" M 118.28 188.83 C 125.70 182.89 133.40 177.30 141.03 171.63 C 147.44 175.94 153.80 180.33 160.01 184.93 C 158.74 186.84 157.47 188.75 156.20 190.66 C 151.70 187.05 147.45 183.13 142.93 179.54 C 135.83 183.64 129.14 188.40 122.09 192.58 C 120.81 191.33 119.55 190.08 118.28 188.83 Z" />
<path fill="#735c3b" opacity="1.00" d=" M 482.43 181.58 C 488.94 180.02 495.73 187.65 492.69 193.86 C 490.80 199.83 482.13 201.63 477.92 197.06 C 472.78 192.44 475.46 182.63 482.43 181.58 Z" />
<path fill="#735c3b" opacity="1.00" d=" M 120.14 203.87 C 126.36 199.24 132.79 194.90 139.14 190.45 C 145.54 194.85 151.98 199.20 158.19 203.87 C 156.87 205.76 155.56 207.65 154.23 209.53 C 149.08 206.66 144.45 202.81 139.05 200.43 C 133.78 203.02 129.15 206.76 123.97 209.55 C 122.69 207.66 121.41 205.77 120.14 203.87 Z" />
<path fill="#735c3b" opacity="1.00" d=" M 482.99 249.96 C 484.97 244.66 493.07 244.09 496.14 248.70 C 496.86 250.60 496.55 252.72 496.72 254.72 C 494.18 258.05 490.03 257.78 486.28 257.67 C 484.47 255.56 481.43 253.05 482.99 249.96 Z" />
<path fill="#735c3b" opacity="1.00" d=" M 84.64 247.13 C 94.54 246.97 104.45 246.99 114.35 247.12 C 109.87 251.13 105.18 255.08 99.76 257.75 C 97.37 259.24 94.91 257.35 93.06 255.90 C 89.89 253.36 87.21 250.27 84.64 247.13 Z" />
<path fill="#735c3b" opacity="1.00" d=" M 173.03 247.16 C 183.09 246.95 193.15 246.97 203.21 247.14 C 199.22 251.58 194.35 256.28 188.02 256.51 C 181.80 256.10 177.08 251.44 173.03 247.16 Z" />
<path fill="#735c3b" opacity="1.00" d=" M 403.38 262.41 C 406.83 261.63 410.13 266.01 408.19 269.08 C 406.68 272.36 401.30 272.36 399.96 268.95 C 398.61 266.29 400.41 262.79 403.38 262.41 Z" />
<path fill="#735c3b" opacity="1.00" d=" M 398.38 279.44 C 406.27 278.61 407.41 292.63 400.01 294.08 C 392.47 294.40 391.71 281.47 398.38 279.44 Z" />
<path fill="#735c3b" opacity="1.00" d=" M 389.09 301.21 C 391.11 299.37 395.46 299.52 395.36 303.01 C 394.99 307.56 390.16 309.94 386.02 308.97 C 385.76 306.04 386.23 302.72 389.09 301.21 Z" />
<path fill="#735c3b" opacity="1.00" d=" M 482.35 300.55 C 485.56 299.72 489.25 301.24 490.49 304.41 C 492.95 308.60 490.85 314.43 486.44 316.31 C 483.26 317.40 479.71 315.78 478.15 312.88 C 476.12 308.56 477.28 302.11 482.35 300.55 Z" />
<path fill="#735c3b" opacity="1.00" d=" M 369.36 310.37 C 371.74 308.64 375.56 309.77 376.39 312.66 C 377.95 316.25 373.28 320.38 369.94 318.23 C 366.94 316.82 366.61 312.19 369.36 310.37 Z" />
<path fill="#735c3b" opacity="1.00" d=" M 71.17 360.27 C 85.23 347.94 98.77 335.03 112.81 322.70 C 124.21 335.16 135.27 347.94 146.83 360.26 C 158.66 348.95 170.59 337.74 182.43 326.43 C 192.75 336.89 202.46 347.95 212.83 358.36 C 223.48 348.98 234.08 339.54 244.74 330.18 C 254.13 339.42 263.36 348.83 272.74 358.08 C 272.64 360.56 272.58 363.05 272.46 365.53 C 263.07 357.12 254.07 348.29 244.85 339.70 C 233.39 348.31 222.21 357.28 210.85 366.02 C 201.98 356.69 193.28 347.21 184.49 337.81 C 171.16 348.32 158.10 359.17 144.84 369.78 C 134.04 357.31 123.50 344.62 112.74 332.12 C 98.88 344.64 85.13 357.29 71.25 369.79 C 61.39 360.97 51.59 352.08 41.75 343.24 C 39.09 340.88 36.65 338.23 33.67 336.26 C 30.16 338.46 27.47 341.69 24.43 344.45 C 18.14 350.29 12.05 356.35 5.56 361.97 C 5.40 358.26 5.26 354.55 5.41 350.84 L 5.42 350.62 C 14.29 343.08 22.43 334.75 30.97 326.86 C 31.85 326.23 32.66 325.23 33.80 325.13 C 36.80 327.08 39.14 329.84 41.74 332.26 C 51.54 341.60 61.38 350.91 71.17 360.27 Z" />
<path fill="#735c3b" opacity="1.00" d=" M 337.19 351.01 C 340.35 351.00 343.51 351.03 346.67 351.09 C 347.80 353.41 349.07 355.68 349.90 358.14 C 347.46 360.78 343.94 362.07 340.95 363.98 C 339.11 362.75 337.27 361.52 335.43 360.28 C 336.01 357.19 336.59 354.10 337.19 351.01 Z" />
<path fill="#735c3b" opacity="1.00" d=" M 473.51 351.63 C 475.72 351.04 478.41 351.18 480.09 352.94 C 482.18 354.55 481.72 357.53 481.52 359.84 C 480.17 364.69 472.51 365.06 470.33 360.65 C 468.11 357.40 470.27 353.18 473.51 351.63 Z" />
<path fill="#735c3b" opacity="1.00" d=" M 363.60 362.90 C 369.79 361.10 376.22 359.97 382.62 359.20 C 386.02 365.43 389.66 371.53 393.27 377.65 C 393.95 379.11 395.31 380.76 394.32 382.41 C 392.57 386.01 390.71 390.05 386.94 391.92 C 381.05 395.06 375.18 398.24 369.36 401.49 C 365.74 397.53 361.33 394.25 358.26 389.84 C 355.89 384.58 354.56 378.92 352.60 373.50 C 356.40 370.11 359.55 366.00 363.60 362.90 M 376.66 364.31 C 371.14 368.72 365.52 373.01 359.95 377.36 C 363.01 382.97 366.14 388.55 369.26 394.13 C 374.91 389.84 380.48 385.45 386.06 381.07 C 382.91 375.49 379.89 369.84 376.66 364.31 Z" />
<path fill="#735c3b" opacity="1.00" d=" M 311.17 371.93 C 314.21 368.24 318.41 365.71 321.99 362.58 C 323.85 364.82 325.91 366.96 327.26 369.56 C 328.07 372.07 327.59 374.78 327.60 377.38 C 323.89 379.22 320.17 381.07 316.41 382.82 C 314.69 379.18 312.55 375.72 311.17 371.93 Z" />
<path fill="#735c3b" opacity="1.00" d=" M 105.00 366.00 C 110.74 365.99 116.47 365.99 122.21 366.00 C 122.26 371.67 122.25 377.33 122.22 383.00 C 116.48 383.00 110.74 383.00 105.00 383.00 C 105.00 377.33 105.00 371.66 105.00 366.00 Z" />
<path fill="#735c3b" opacity="1.00" d=" M 418.61 392.46 C 423.50 387.11 428.24 381.63 433.09 376.25 C 439.24 376.28 445.43 376.68 451.49 377.80 C 454.78 379.99 457.45 383.05 460.08 385.98 C 461.50 387.32 459.89 389.08 459.45 390.51 C 456.82 395.27 454.85 400.40 451.93 404.99 C 449.42 407.30 446.10 408.48 443.07 409.94 C 440.48 411.50 437.79 409.45 435.36 408.54 C 431.66 406.62 427.46 405.56 424.13 403.01 C 421.85 399.75 420.48 395.95 418.61 392.46 M 432.06 392.14 C 434.00 396.45 437.94 399.56 440.70 403.36 C 444.86 397.47 448.23 391.08 452.03 384.96 C 448.36 383.05 444.67 381.20 440.96 379.39 C 438.00 383.64 434.61 387.62 432.06 392.14 Z" />
<path fill="#735c3b" opacity="1.00" d=" M 295.23 395.26 C 297.71 393.02 300.28 390.84 303.16 389.13 C 305.87 389.70 308.23 391.25 310.67 392.50 C 310.69 394.92 310.72 397.34 310.75 399.77 C 307.14 402.19 303.77 405.01 299.85 406.92 C 296.98 406.78 294.55 404.86 292.00 403.71 C 292.84 400.84 292.84 397.38 295.23 395.26 Z" />
<path fill="#735c3b" opacity="1.00" d=" M 199.19 390.62 C 204.41 390.25 209.66 390.24 214.88 390.64 C 214.85 394.42 214.83 398.20 214.81 401.99 C 209.62 402.02 204.42 402.04 199.23 401.96 C 199.23 398.18 199.22 394.40 199.19 390.62 Z" />
<path fill="#735c3b" opacity="1.00" d=" M 69.07 405.62 C 73.67 405.40 78.27 405.40 82.86 405.66 C 82.81 412.00 82.89 418.34 82.76 424.68 C 78.23 424.79 73.71 424.79 69.18 424.70 C 68.98 418.34 69.07 411.98 69.07 405.62 Z" />
<path fill="#735c3b" opacity="1.00" d=" M 388.50 409.86 C 393.88 408.36 399.36 406.92 404.93 406.36 C 407.57 408.99 409.45 412.26 411.80 415.14 C 413.77 417.80 416.31 420.47 416.40 423.98 C 416.77 429.82 417.50 435.63 417.75 441.48 C 409.45 444.80 401.33 448.54 393.08 451.98 C 391.72 452.78 390.63 451.15 389.60 450.51 C 386.14 447.25 382.46 444.25 378.92 441.09 C 376.81 439.36 376.44 436.53 376.01 434.02 C 375.22 429.08 374.32 424.15 373.27 419.25 C 378.27 416.01 383.14 412.47 388.50 409.86 M 378.88 426.39 C 383.12 432.70 387.50 438.91 391.93 445.09 C 398.75 440.75 405.63 436.50 412.36 432.01 C 408.76 426.36 404.95 420.86 401.30 415.25 C 393.80 418.93 386.39 422.75 378.88 426.39 Z" />
<path fill="#735c3b" opacity="1.00" d=" M 142.91 418.83 C 148.61 418.78 154.30 418.78 160.00 418.83 C 160.00 425.84 160.02 432.85 159.99 439.86 C 154.31 439.92 148.62 439.91 142.94 439.88 C 142.85 432.86 142.88 425.84 142.91 418.83 Z" />
<path fill="#735c3b" opacity="1.00" d=" M 316.60 430.53 C 321.44 428.21 326.05 425.33 331.10 423.48 C 335.41 423.00 339.66 424.45 343.92 425.00 C 347.22 425.68 350.77 425.68 353.89 427.04 C 357.83 433.43 361.41 440.13 364.71 446.87 C 360.74 453.06 354.90 457.80 350.53 463.72 C 344.66 463.39 338.83 462.67 332.96 462.43 C 329.85 462.29 326.79 461.43 324.17 459.75 C 319.19 456.71 314.16 453.76 309.23 450.65 C 311.79 443.98 314.17 437.24 316.60 430.53 M 329.59 430.33 C 325.35 435.96 320.90 441.42 316.70 447.08 C 323.45 450.32 330.34 453.26 337.11 456.46 C 342.14 454.03 347.12 451.52 352.09 448.98 C 350.80 444.75 349.98 440.37 348.32 436.27 C 342.38 433.52 335.82 432.32 329.59 430.33 Z" />
</g>
<g id="#403734ff">
<path fill="#403734" opacity="1.00" d=" M 125.97 53.89 C 133.54 48.52 141.06 43.09 148.63 37.73 C 154.26 42.14 160.01 46.40 165.58 50.88 C 165.66 57.49 164.86 64.24 166.47 70.72 C 167.33 74.13 170.54 76.36 173.91 76.79 C 182.37 78.16 191.03 77.07 199.34 75.24 C 205.02 73.82 210.93 72.26 215.65 68.61 C 219.92 65.41 217.10 59.38 218.72 54.94 C 218.76 57.34 218.99 59.75 219.61 62.07 C 223.30 60.51 226.31 57.88 229.61 55.70 C 233.25 53.62 237.52 55.07 240.70 57.29 C 252.13 64.57 263.24 72.51 272.97 81.98 C 271.87 89.78 266.12 96.06 265.62 104.01 C 264.56 114.15 272.11 122.88 271.14 133.00 C 270.76 138.09 268.03 142.53 265.53 146.83 C 266.50 147.86 267.47 148.90 268.45 149.93 C 267.29 155.99 266.42 162.10 265.33 168.17 C 264.34 173.88 261.20 179.15 261.37 185.06 C 261.43 190.24 264.17 195.12 263.46 200.34 C 262.69 205.49 261.03 210.44 259.43 215.37 C 255.00 228.24 249.11 240.64 245.98 253.94 C 244.87 258.59 244.67 263.40 244.84 268.16 C 244.81 269.01 244.74 270.70 244.70 271.55 C 241.03 271.58 237.35 271.62 233.68 271.64 C 230.42 278.28 229.93 285.69 228.46 292.82 C 227.73 297.04 224.97 300.44 222.08 303.43 C 220.56 297.49 218.08 291.85 215.91 286.13 C 214.82 283.75 213.94 280.77 211.32 279.66 C 208.88 278.63 206.26 279.81 204.20 281.13 C 199.76 284.05 196.05 287.96 192.73 292.07 C 185.49 281.48 173.38 275.12 160.97 272.87 C 144.63 270.19 127.26 271.72 112.42 279.45 C 105.69 283.32 99.39 288.19 94.89 294.60 C 90.31 287.52 83.87 281.85 76.98 277.08 C 74.29 275.39 71.31 273.27 67.96 273.78 C 65.49 274.10 64.51 276.78 64.19 278.92 C 63.56 283.63 63.70 288.41 63.84 293.15 C 63.37 284.71 57.68 278.09 52.91 271.60 C 50.82 273.36 48.74 275.12 46.66 276.88 C 44.79 273.75 42.77 270.70 40.55 267.80 C 40.02 262.96 38.54 258.29 37.57 253.54 C 35.76 244.82 34.31 236.00 33.71 227.11 C 41.10 233.41 48.93 239.71 58.28 242.80 C 68.53 246.06 79.42 244.94 90.01 245.11 C 104.13 244.70 118.56 245.99 132.37 242.36 C 138.49 240.82 142.82 235.95 146.32 231.00 C 149.65 240.71 160.64 244.54 170.02 245.05 C 185.68 245.30 201.35 244.95 217.02 245.19 C 221.52 245.24 226.33 245.69 230.46 243.50 C 236.12 240.71 239.85 235.38 243.28 230.30 C 247.94 223.13 252.05 215.62 256.03 208.05 C 259.83 200.89 260.51 192.30 258.65 184.49 C 258.22 181.63 255.25 180.68 252.81 180.21 C 248.13 179.37 243.39 178.81 238.64 178.55 C 244.47 175.68 247.41 169.60 250.23 164.10 C 254.83 154.55 258.81 144.61 261.28 134.28 C 261.79 130.88 262.77 126.63 260.23 123.82 C 256.09 120.97 250.73 121.27 245.94 120.88 C 233.99 120.67 221.98 120.15 210.09 121.45 C 203.57 122.13 197.51 125.52 193.61 130.80 C 183.64 133.53 175.17 141.53 172.39 151.56 C 170.29 158.49 170.70 165.82 170.72 172.97 C 170.77 191.22 170.65 209.48 170.79 227.74 C 163.68 221.83 156.23 216.28 148.19 211.70 C 145.15 210.13 141.48 208.34 138.08 209.93 C 131.65 212.82 127.36 218.78 121.47 222.48 C 119.34 223.81 116.73 223.63 114.34 223.94 C 113.02 220.73 111.65 217.49 111.14 214.04 C 108.97 199.46 109.36 184.70 109.28 170.01 C 109.28 157.80 103.31 146.15 94.21 138.17 C 92.42 135.26 90.79 131.92 87.62 130.26 C 84.07 128.42 79.96 128.32 76.05 128.17 C 55.50 127.76 34.95 128.49 14.41 127.85 C 18.21 145.10 27.19 160.62 36.49 175.44 C 40.06 181.45 46.27 185.64 53.30 186.22 C 44.56 187.12 35.83 189.07 27.01 188.04 C 21.29 187.76 15.80 186.09 10.17 185.24 C 10.09 186.49 9.92 187.74 9.68 188.98 C 8.89 185.00 9.26 180.86 8.00 176.97 C 5.50 168.77 1.70 160.98 0.00 152.55 L 0.00 149.39 C 0.82 148.46 1.59 147.21 3.00 147.28 C 6.88 146.89 10.79 147.15 14.69 147.12 C 12.75 139.86 10.83 132.48 7.13 125.87 C 6.45 124.35 5.30 122.89 5.35 121.15 C 5.78 112.00 8.79 102.60 15.54 96.12 C 16.73 103.35 17.91 111.38 23.43 116.71 C 25.65 119.06 29.08 118.85 32.03 118.90 C 48.36 118.74 64.69 118.92 81.02 118.82 C 84.06 118.88 87.90 118.15 88.80 114.73 C 90.71 107.96 89.96 100.79 90.27 93.83 C 81.91 86.31 71.74 81.20 61.78 76.17 C 57.35 74.22 52.92 71.74 47.99 71.45 C 45.91 72.07 44.08 73.27 42.22 74.35 C 44.56 69.41 47.96 65.02 52.46 61.87 C 56.70 64.88 60.73 68.45 65.98 69.55 C 69.89 76.94 78.41 79.79 86.06 81.45 C 92.72 82.69 99.93 84.13 106.43 81.47 C 113.46 78.64 119.77 74.36 125.88 69.93 C 126.02 64.58 126.13 59.23 125.97 53.89 M 212.71 76.70 C 207.32 79.25 201.72 81.46 196.70 84.71 C 193.60 86.69 192.65 90.50 192.34 93.94 C 191.86 100.08 191.47 106.29 192.43 112.40 C 199.93 115.30 208.09 114.53 215.96 115.01 C 226.97 115.18 237.99 115.17 249.01 115.14 C 252.68 114.91 257.34 115.07 259.64 111.61 C 261.68 108.11 261.47 103.88 261.69 99.98 C 261.64 95.48 262.58 90.31 259.32 86.63 C 253.34 79.08 244.34 74.14 234.98 72.17 C 227.25 70.45 219.67 73.71 212.71 76.70 M 129.43 96.07 C 132.83 99.56 135.54 103.65 138.86 107.19 C 142.62 108.21 146.66 107.48 150.53 107.56 C 153.99 103.24 157.88 99.20 160.49 94.26 C 155.32 90.29 150.03 86.49 144.91 82.46 C 139.72 86.96 134.52 91.45 129.43 96.07 M 99.18 113.00 C 103.75 117.51 108.18 122.16 112.90 126.51 C 117.43 122.07 121.98 117.64 126.38 113.07 C 122.51 108.60 118.66 104.10 114.81 99.61 C 109.34 103.76 104.41 108.56 99.18 113.00 M 157.97 116.87 C 162.30 121.39 166.76 125.78 171.22 130.18 C 175.86 126.01 180.21 121.53 184.50 117.02 C 180.35 112.11 175.70 107.66 171.03 103.25 C 166.59 107.70 161.87 111.92 157.97 116.87 M 124.01 139.65 C 129.55 146.04 135.29 152.26 140.95 158.54 C 148.11 153.02 155.14 147.33 161.93 141.37 C 155.51 134.55 149.40 127.46 142.94 120.68 C 136.45 126.81 130.11 133.12 124.01 139.65 M 118.28 188.83 C 119.55 190.08 120.81 191.33 122.09 192.58 C 129.14 188.40 135.83 183.64 142.93 179.54 C 147.45 183.13 151.70 187.05 156.20 190.66 C 157.47 188.75 158.74 186.84 160.01 184.93 C 153.80 180.33 147.44 175.94 141.03 171.63 C 133.40 177.30 125.70 182.89 118.28 188.83 M 120.14 203.87 C 121.41 205.77 122.69 207.66 123.97 209.55 C 129.15 206.76 133.78 203.02 139.05 200.43 C 144.45 202.81 149.08 206.66 154.23 209.53 C 155.56 207.65 156.87 205.76 158.19 203.87 C 151.98 199.20 145.54 194.85 139.14 190.45 C 132.79 194.90 126.36 199.24 120.14 203.87 M 84.64 247.13 C 87.21 250.27 89.89 253.36 93.06 255.90 C 94.91 257.35 97.37 259.24 99.76 257.75 C 105.18 255.08 109.87 251.13 114.35 247.12 C 104.45 246.99 94.54 246.97 84.64 247.13 M 173.03 247.16 C 177.08 251.44 181.80 256.10 188.02 256.51 C 194.35 256.28 199.22 251.58 203.21 247.14 C 193.15 246.97 183.09 246.95 173.03 247.16 Z" />
<path fill="#403734" opacity="1.00" d=" M 271.30 142.30 C 273.54 141.62 276.32 142.55 276.59 145.16 C 276.94 148.60 271.40 150.29 270.02 146.92 C 268.65 145.27 269.92 143.41 271.30 142.30 Z" />
<path fill="#403734" opacity="1.00" d=" M 316.99 145.83 C 320.33 143.87 323.67 149.48 320.58 151.62 C 319.12 153.30 316.98 152.04 315.22 151.74 C 315.46 149.70 314.58 146.84 316.99 145.83 Z" />
<path fill="#403734" opacity="1.00" d=" M 389.46 162.53 C 391.83 162.02 394.33 164.92 393.26 167.18 C 392.49 169.88 388.41 170.42 387.06 167.90 C 385.44 165.93 387.17 162.93 389.46 162.53 Z" />
<path fill="#403734" opacity="1.00" d=" M 184.72 181.31 C 189.03 181.25 193.34 181.17 197.65 181.11 C 197.35 187.76 197.34 194.42 197.39 201.07 C 197.49 204.82 197.61 208.90 199.92 212.05 C 202.39 215.55 206.80 216.93 210.89 217.25 C 215.95 217.59 221.18 217.00 225.83 214.91 C 229.34 213.36 231.77 209.78 232.13 206.00 C 232.17 201.93 228.27 197.63 224.02 198.53 C 220.95 200.60 218.81 204.16 215.01 205.01 C 212.65 205.59 209.80 205.91 207.82 204.20 C 206.83 200.62 207.32 196.86 207.35 193.20 C 215.96 190.37 225.09 191.48 233.98 191.19 C 237.16 191.32 240.65 190.86 243.52 192.51 C 246.11 194.07 246.73 197.40 246.29 200.19 C 244.81 210.51 239.11 220.46 230.25 226.15 C 221.43 231.18 210.92 231.76 201.00 231.80 C 197.05 231.86 192.57 231.35 189.94 228.04 C 184.87 221.92 185.38 213.48 184.80 206.03 C 184.03 197.78 186.17 189.52 184.72 181.31 Z" />
<path fill="#403734" opacity="1.00" d=" M 93.78 183.07 C 94.96 196.05 96.69 209.00 97.35 222.02 C 97.82 225.28 94.83 227.31 92.06 228.01 C 83.61 230.47 74.69 229.56 66.01 229.76 C 58.63 230.11 51.88 226.23 46.76 221.23 C 41.91 216.52 37.18 211.04 35.70 204.27 C 35.25 202.25 36.95 200.48 38.76 199.90 C 43.62 198.16 48.89 198.42 53.97 198.31 C 57.71 198.42 61.72 198.20 65.12 200.04 C 68.14 202.24 67.89 207.55 64.74 209.57 C 61.98 208.63 59.60 206.85 56.88 205.82 C 52.90 205.63 50.64 211.54 53.77 214.08 C 58.02 218.11 63.95 219.73 69.57 220.77 C 72.61 221.25 76.66 221.34 78.29 218.16 C 80.36 213.41 79.53 208.08 79.51 203.06 C 79.19 197.63 80.28 191.49 76.42 187.02 C 82.30 186.87 89.29 187.75 93.78 183.07 Z" />
<path fill="#403734" opacity="1.00" d=" M 415.11 185.76 C 416.59 185.63 418.52 184.78 419.58 186.30 C 419.82 187.32 419.77 188.33 419.41 189.31 C 418.05 189.61 416.66 189.80 415.28 189.95 C 415.22 188.55 415.16 187.15 415.11 185.76 Z" />
<path fill="#403734" opacity="1.00" d=" M 423.49 223.59 C 425.10 223.22 427.61 222.55 428.53 224.41 C 430.56 226.30 428.59 229.97 426.03 229.75 C 422.76 230.27 421.01 225.66 423.49 223.59 Z" />
<path fill="#403734" opacity="1.00" d=" M 258.26 237.20 C 261.59 233.67 266.32 231.80 271.15 231.81 C 269.56 240.66 267.87 249.52 267.29 258.51 C 267.27 260.84 265.36 262.48 263.39 263.35 C 258.72 265.45 253.51 265.72 248.48 266.07 C 249.11 255.93 250.71 244.70 258.26 237.20 Z" />
<path fill="#403734" opacity="1.00" d=" M 427.28 243.57 C 431.10 243.02 432.44 249.71 428.66 250.50 C 426.54 251.34 423.90 249.18 424.28 246.95 C 423.98 245.09 425.79 244.06 427.28 243.57 Z" />
<path fill="#403734" opacity="1.00" d=" M 403.43 255.43 C 407.54 251.94 410.85 247.65 414.55 243.76 C 414.74 256.02 414.40 268.32 412.74 280.49 C 411.61 288.99 410.60 298.11 405.26 305.17 C 399.35 312.97 390.68 318.17 381.83 322.02 C 375.87 324.66 369.27 325.18 363.15 327.32 C 360.17 328.37 356.92 330.55 356.69 334.01 C 356.87 338.53 359.58 343.36 364.19 344.58 C 371.26 346.56 379.04 344.70 385.82 348.01 C 392.90 351.07 396.76 358.06 401.11 363.99 C 403.54 367.53 407.71 369.61 412.00 369.50 C 421.14 369.80 428.73 362.93 437.86 363.17 C 444.10 363.29 449.68 366.37 455.43 368.41 C 461.06 370.51 467.04 371.66 473.06 371.71 C 472.61 379.84 473.53 388.09 471.78 396.12 C 468.24 413.86 457.85 429.53 445.20 442.15 C 419.88 467.31 384.68 481.16 349.28 483.00 L 337.81 483.00 C 322.62 481.95 307.02 478.54 294.40 469.60 C 284.04 462.40 276.69 451.26 273.62 439.07 C 268.29 417.92 271.66 394.66 283.12 376.05 C 296.26 354.42 317.46 339.16 339.42 327.37 C 343.16 325.15 347.69 323.91 350.63 320.57 C 353.72 315.24 352.91 308.77 352.87 302.87 C 360.44 301.91 368.19 302.19 375.62 300.35 C 381.09 298.95 387.02 295.22 387.55 289.07 C 388.05 281.39 387.46 273.69 387.74 266.00 C 393.20 262.85 398.66 259.60 403.43 255.43 M 403.38 262.41 C 400.41 262.79 398.61 266.29 399.96 268.95 C 401.30 272.36 406.68 272.36 408.19 269.08 C 410.13 266.01 406.83 261.63 403.38 262.41 M 398.38 279.44 C 391.71 281.47 392.47 294.40 400.01 294.08 C 407.41 292.63 406.27 278.61 398.38 279.44 M 389.09 301.21 C 386.23 302.72 385.76 306.04 386.02 308.97 C 390.16 309.94 394.99 307.56 395.36 303.01 C 395.46 299.52 391.11 299.37 389.09 301.21 M 369.36 310.37 C 366.61 312.19 366.94 316.82 369.94 318.23 C 373.28 320.38 377.95 316.25 376.39 312.66 C 375.56 309.77 371.74 308.64 369.36 310.37 M 337.19 351.01 C 336.59 354.10 336.01 357.19 335.43 360.28 C 337.27 361.52 339.11 362.75 340.95 363.98 C 343.94 362.07 347.46 360.78 349.90 358.14 C 349.07 355.68 347.80 353.41 346.67 351.09 C 343.51 351.03 340.35 351.00 337.19 351.01 M 363.60 362.90 C 359.55 366.00 356.40 370.11 352.60 373.50 C 354.56 378.92 355.89 384.58 358.26 389.84 C 361.33 394.25 365.74 397.53 369.36 401.49 C 375.18 398.24 381.05 395.06 386.94 391.92 C 390.71 390.05 392.57 386.01 394.32 382.41 C 395.31 380.76 393.95 379.11 393.27 377.65 C 389.66 371.53 386.02 365.43 382.62 359.20 C 376.22 359.97 369.79 361.10 363.60 362.90 M 311.17 371.93 C 312.55 375.72 314.69 379.18 316.41 382.82 C 320.17 381.07 323.89 379.22 327.60 377.38 C 327.59 374.78 328.07 372.07 327.26 369.56 C 325.91 366.96 323.85 364.82 321.99 362.58 C 318.41 365.71 314.21 368.24 311.17 371.93 M 418.61 392.46 C 420.48 395.95 421.85 399.75 424.13 403.01 C 427.46 405.56 431.66 406.62 435.36 408.54 C 437.79 409.45 440.48 411.50 443.07 409.94 C 446.10 408.48 449.42 407.30 451.93 404.99 C 454.85 400.40 456.82 395.27 459.45 390.51 C 459.89 389.08 461.50 387.32 460.08 385.98 C 457.45 383.05 454.78 379.99 451.49 377.80 C 445.43 376.68 439.24 376.28 433.09 376.25 C 428.24 381.63 423.50 387.11 418.61 392.46 M 295.23 395.26 C 292.84 397.38 292.84 400.84 292.00 403.71 C 294.55 404.86 296.98 406.78 299.85 406.92 C 303.77 405.01 307.14 402.19 310.75 399.77 C 310.72 397.34 310.69 394.92 310.67 392.50 C 308.23 391.25 305.87 389.70 303.16 389.13 C 300.28 390.84 297.71 393.02 295.23 395.26 M 388.50 409.86 C 383.14 412.47 378.27 416.01 373.27 419.25 C 374.32 424.15 375.22 429.08 376.01 434.02 C 376.44 436.53 376.81 439.36 378.92 441.09 C 382.46 444.25 386.14 447.25 389.60 450.51 C 390.63 451.15 391.72 452.78 393.08 451.98 C 401.33 448.54 409.45 444.80 417.75 441.48 C 417.50 435.63 416.77 429.82 416.40 423.98 C 416.31 420.47 413.77 417.80 411.80 415.14 C 409.45 412.26 407.57 408.99 404.93 406.36 C 399.36 406.92 393.88 408.36 388.50 409.86 M 316.60 430.53 C 314.17 437.24 311.79 443.98 309.23 450.65 C 314.16 453.76 319.19 456.71 324.17 459.75 C 326.79 461.43 329.85 462.29 332.96 462.43 C 338.83 462.67 344.66 463.39 350.53 463.72 C 354.90 457.80 360.74 453.06 364.71 446.87 C 361.41 440.13 357.83 433.43 353.89 427.04 C 350.77 425.68 347.22 425.68 343.92 425.00 C 339.66 424.45 335.41 423.00 331.10 423.48 C 326.05 425.33 321.44 428.21 316.60 430.53 Z" />
<path fill="#403734" opacity="1.00" d=" M 301.78 281.66 C 306.96 274.90 317.58 272.83 324.25 278.63 C 322.00 286.09 320.60 293.79 320.04 301.56 C 315.15 305.90 308.17 306.16 302.03 305.18 C 300.26 304.89 298.26 303.97 297.91 302.01 C 296.81 295.11 297.05 287.27 301.78 281.66 Z" />
<path fill="#403734" opacity="1.00" d=" M 279.99 280.02 C 284.40 276.58 290.09 275.62 295.54 275.28 C 292.58 281.20 290.64 287.58 289.71 294.13 C 289.05 297.04 289.00 300.51 286.70 302.70 C 283.72 304.19 280.20 303.71 276.98 303.62 C 274.65 303.45 271.62 302.61 271.13 299.96 C 271.18 292.54 273.79 284.57 279.99 280.02 Z" />
<path fill="#403734" opacity="1.00" d=" M 401.84 322.03 C 400.08 319.07 404.58 315.66 407.10 317.92 C 409.32 319.23 408.20 321.81 407.79 323.77 C 405.73 323.56 402.90 324.42 401.84 322.03 Z" />
<path fill="#403734" opacity="1.00" d=" M 383.40 330.55 C 386.76 329.34 389.46 334.53 386.55 336.61 C 384.88 338.51 382.64 336.78 380.94 335.96 C 381.30 334.03 381.07 331.29 383.40 330.55 Z" />
</g>
<g id="#4c111eff">
<path fill="#4c111e" opacity="1.00" d=" M 40.55 267.80 C 42.77 270.70 44.79 273.75 46.66 276.88 C 48.74 275.12 50.82 273.36 52.91 271.60 C 57.68 278.09 63.37 284.71 63.84 293.15 C 64.14 297.13 64.38 301.17 65.47 305.03 C 65.92 307.01 68.42 306.87 69.99 307.07 C 76.43 307.32 82.94 306.25 89.00 304.07 C 91.56 302.98 94.62 301.73 95.68 298.92 C 95.83 297.44 95.31 295.99 94.89 294.60 C 99.39 288.19 105.69 283.32 112.42 279.45 C 127.26 271.72 144.63 270.19 160.97 272.87 C 173.38 275.12 185.49 281.48 192.73 292.07 C 190.54 295.20 187.81 298.70 188.25 302.74 C 190.14 306.18 194.30 307.32 197.79 308.46 C 205.76 310.51 214.19 311.78 222.37 310.18 C 222.32 307.92 222.30 305.67 222.08 303.43 C 224.97 300.44 227.73 297.04 228.46 292.82 C 229.93 285.69 230.42 278.28 233.68 271.64 C 237.35 271.62 241.03 271.58 244.70 271.55 C 244.74 270.70 244.81 269.01 244.84 268.16 C 251.73 277.94 256.53 289.00 260.82 300.11 C 266.59 315.86 271.02 332.23 272.33 349.01 C 274.06 367.42 271.41 386.51 263.36 403.26 C 254.31 422.31 237.58 436.85 218.64 445.63 C 191.35 458.40 160.77 461.81 130.96 462.20 C 109.67 462.45 88.00 459.91 68.14 451.85 C 54.23 446.26 41.44 437.70 31.41 426.51 C 17.61 411.21 9.24 391.45 6.40 371.15 C 5.49 364.43 4.58 357.62 5.41 350.84 C 5.26 354.55 5.40 358.26 5.56 361.97 C 12.05 356.35 18.14 350.29 24.43 344.45 C 27.47 341.69 30.16 338.46 33.67 336.26 C 36.65 338.23 39.09 340.88 41.75 343.24 C 51.59 352.08 61.39 360.97 71.25 369.79 C 85.13 357.29 98.88 344.64 112.74 332.12 C 123.50 344.62 134.04 357.31 144.84 369.78 C 158.10 359.17 171.16 348.32 184.49 337.81 C 193.28 347.21 201.98 356.69 210.85 366.02 C 222.21 357.28 233.39 348.31 244.85 339.70 C 254.07 348.29 263.07 357.12 272.46 365.53 C 272.58 363.05 272.64 360.56 272.74 358.08 C 263.36 348.83 254.13 339.42 244.74 330.18 C 234.08 339.54 223.48 348.98 212.83 358.36 C 202.46 347.95 192.75 336.89 182.43 326.43 C 170.59 337.74 158.66 348.95 146.83 360.26 C 135.27 347.94 124.21 335.16 112.81 322.70 C 98.77 335.03 85.23 347.94 71.17 360.27 C 61.38 350.91 51.54 341.60 41.74 332.26 C 39.14 329.84 36.80 327.08 33.80 325.13 C 32.66 325.23 31.85 326.23 30.97 326.86 C 22.43 334.75 14.29 343.08 5.42 350.62 C 6.25 342.05 7.36 333.40 10.39 325.30 C 12.99 318.16 18.17 312.43 22.08 306.02 C 29.62 294.04 37.00 281.62 40.55 267.80 M 105.00 366.00 C 105.00 371.66 105.00 377.33 105.00 383.00 C 110.74 383.00 116.48 383.00 122.22 383.00 C 122.25 377.33 122.26 371.67 122.21 366.00 C 116.47 365.99 110.74 365.99 105.00 366.00 M 199.19 390.62 C 199.22 394.40 199.23 398.18 199.23 401.96 C 204.42 402.04 209.62 402.02 214.81 401.99 C 214.83 398.20 214.85 394.42 214.88 390.64 C 209.66 390.24 204.41 390.25 199.19 390.62 M 69.07 405.62 C 69.07 411.98 68.98 418.34 69.18 424.70 C 73.71 424.79 78.23 424.79 82.76 424.68 C 82.89 418.34 82.81 412.00 82.86 405.66 C 78.27 405.40 73.67 405.40 69.07 405.62 M 142.91 418.83 C 142.88 425.84 142.85 432.86 142.94 439.88 C 148.62 439.91 154.31 439.92 159.99 439.86 C 160.02 432.85 160.00 425.84 160.00 418.83 C 154.30 418.78 148.61 418.78 142.91 418.83 Z" />
</g>
</svg>
