<?xml version="1.0" encoding="UTF-8" ?>
<!DOCTYPE svg PUBLIC "-//W3C//DTD SVG 1.1//EN" "http://www.w3.org/Graphics/SVG/1.1/DTD/svg11.dtd">
<svg width="506pt" height="512pt" viewBox="0 0 506 512" version="1.1" xmlns="http://www.w3.org/2000/svg">
<g id="#e9ea6aff">
<path fill="#e9ea6a" opacity="1.00" d=" M 229.52 0.00 L 235.51 0.00 C 240.10 7.67 244.37 15.53 248.66 23.36 C 249.31 24.58 250.22 25.62 251.13 26.65 C 251.73 17.78 251.17 8.88 251.50 0.00 L 269.99 0.00 C 272.67 8.96 273.98 18.26 276.46 27.27 C 278.41 21.63 279.23 15.69 280.65 9.91 C 281.26 6.62 282.58 3.40 282.44 0.00 L 301.64 0.00 C 303.83 1.97 305.77 4.19 307.95 6.18 C 305.09 13.45 301.61 20.47 299.01 27.85 C 305.26 22.91 311.18 17.56 317.51 12.71 C 319.46 15.45 321.23 18.32 323.13 21.10 C 326.79 26.69 330.51 32.24 334.29 37.75 C 337.69 42.47 337.45 48.57 338.91 53.99 C 339.74 59.80 341.98 65.47 341.74 71.38 C 341.26 70.94 340.31 70.05 339.83 69.61 C 334.67 65.15 329.78 60.39 324.67 55.88 C 320.23 51.77 315.80 47.64 311.29 43.61 C 309.01 41.64 307.07 39.24 304.50 37.65 C 301.35 37.18 298.15 37.32 295.00 36.99 C 289.20 36.50 283.40 36.12 277.59 35.73 C 272.05 35.73 266.57 34.55 261.04 34.79 C 260.30 35.62 259.69 36.55 259.12 37.50 C 255.48 44.26 251.61 50.89 247.88 57.61 C 245.47 61.86 243.07 66.11 240.71 70.39 C 237.91 75.11 235.50 80.07 232.41 84.62 C 223.34 70.37 214.15 56.19 205.01 41.97 C 203.97 40.64 204.28 38.93 204.48 37.39 C 212.11 42.03 220.37 45.53 228.29 49.66 C 232.32 51.58 236.18 53.89 240.41 55.38 C 237.66 51.30 234.14 47.84 230.88 44.18 C 225.12 37.86 219.57 31.36 213.63 25.21 C 219.01 16.86 224.09 8.32 229.52 0.00 Z" />
<path fill="#e9ea6a" opacity="1.00" d=" M 364.98 56.73 C 366.46 54.18 368.87 52.40 370.97 50.39 C 377.10 53.54 383.55 56.20 389.36 59.90 C 387.26 61.78 385.64 64.74 382.96 65.67 C 377.00 62.63 370.99 59.69 364.98 56.73 Z" />
<path fill="#e9ea6a" opacity="1.00" d=" M 270.28 81.91 C 274.58 81.50 278.89 81.68 283.20 81.58 C 289.42 81.81 295.64 81.54 301.86 81.70 C 302.60 81.74 304.08 81.82 304.81 81.86 C 304.91 90.36 304.79 98.86 304.87 107.36 C 304.90 113.51 304.78 119.67 304.95 125.82 C 300.60 123.85 296.24 121.81 291.58 120.70 C 295.37 125.06 300.51 127.91 304.63 131.94 C 303.67 132.51 302.71 133.06 301.75 133.59 C 296.14 136.57 290.57 139.61 284.93 142.52 L 283.68 142.29 C 284.21 139.35 284.74 136.40 285.25 133.46 C 281.64 136.50 279.03 140.49 275.88 143.97 C 274.27 145.71 272.95 147.69 271.90 149.82 C 267.02 151.82 262.54 154.65 257.83 156.99 C 267.14 144.37 276.69 131.93 285.99 119.30 C 282.35 115.00 278.75 110.66 275.16 106.31 C 273.63 104.47 272.05 102.68 270.49 100.87 C 277.41 101.04 284.23 102.40 291.11 103.10 C 292.09 103.18 293.05 103.06 293.99 102.73 C 286.08 97.77 278.16 92.81 270.18 87.95 C 270.20 87.17 270.25 85.59 270.27 84.80 C 270.27 84.08 270.28 82.63 270.28 81.91 Z" />
<path fill="#e9ea6a" opacity="1.00" d=" M 342.64 85.80 C 342.65 85.54 342.66 85.00 342.67 84.73 C 358.79 99.01 371.23 119.45 370.69 141.54 C 368.70 141.55 366.71 141.55 364.73 141.54 C 364.51 155.07 364.53 168.62 364.71 182.15 C 367.77 182.22 370.83 182.24 373.89 182.19 C 374.16 207.39 373.92 232.60 374.00 257.80 C 374.01 261.90 374.01 266.00 373.98 270.10 C 372.33 270.11 370.69 270.13 369.05 270.15 C 362.36 270.10 355.66 270.27 348.97 270.02 C 350.90 261.67 353.18 253.42 355.08 245.07 C 347.77 244.95 340.46 244.95 333.15 245.06 C 329.00 259.65 324.67 274.19 320.71 288.84 C 316.48 289.04 312.25 288.97 308.03 289.05 C 303.81 303.61 299.61 318.17 295.57 332.78 C 285.06 333.14 274.55 332.71 264.05 333.04 C 252.27 361.98 240.82 391.06 229.14 420.04 C 228.08 422.33 227.65 425.06 225.99 427.00 C 218.78 427.62 211.52 426.96 204.29 427.28 C 193.73 449.16 183.37 471.14 172.91 493.07 C 164.59 493.19 156.26 493.23 147.94 493.02 C 152.25 483.78 157.05 474.77 161.53 465.62 C 163.09 462.23 165.36 459.09 165.96 455.33 C 160.29 455.46 154.61 455.33 148.94 455.41 C 147.97 455.32 147.23 455.70 146.73 456.55 C 131.58 475.17 115.83 493.31 100.75 512.00 L 9.33 512.00 C 33.53 492.30 57.45 472.24 81.61 452.47 C 75.40 452.17 69.18 452.42 62.97 452.30 C 61.64 452.41 60.13 452.09 58.94 452.86 C 49.64 458.89 40.58 465.28 31.20 471.19 C 21.90 468.82 12.44 467.13 3.15 464.73 C 26.84 448.63 50.24 432.10 73.78 415.77 C 74.72 414.97 75.80 414.58 77.01 414.61 C 86.90 414.49 96.81 414.77 106.70 414.50 C 111.04 411.87 114.91 408.50 119.00 405.50 C 124.43 405.92 129.71 407.31 135.05 408.28 C 146.93 397.76 158.37 386.76 170.15 376.13 C 172.04 374.45 173.79 372.63 175.51 370.77 C 171.05 369.45 166.48 368.58 161.90 367.83 C 160.42 367.29 159.26 368.40 158.25 369.27 C 149.58 377.13 140.74 384.78 132.06 392.62 C 119.46 390.57 106.90 388.35 94.29 386.40 C 117.24 370.64 140.35 355.13 163.24 339.30 C 158.45 339.28 153.65 339.19 148.86 339.29 C 147.34 339.25 146.02 340.10 144.69 340.72 C 139.45 343.42 134.16 346.01 128.89 348.66 C 121.61 345.48 114.26 342.48 107.02 339.21 C 127.92 327.65 148.86 316.17 169.80 304.69 C 175.05 305.72 180.28 306.85 185.55 307.80 C 195.91 299.35 206.46 291.13 216.82 282.68 C 208.48 281.63 200.14 280.53 191.78 279.60 C 206.45 268.92 221.36 258.56 236.02 247.88 C 240.82 250.08 245.94 251.39 250.89 253.19 C 252.51 253.62 254.74 254.78 255.90 252.91 C 262.29 245.95 268.43 238.76 274.77 231.76 C 276.47 230.04 278.01 228.17 279.31 226.12 C 275.26 225.10 271.27 223.59 267.08 223.30 C 263.75 224.88 260.86 227.24 257.82 229.30 C 249.48 226.11 241.01 223.25 232.81 219.74 C 247.83 212.11 262.55 203.84 276.59 194.50 C 282.07 190.74 287.55 186.87 292.24 182.13 C 288.13 178.94 283.79 176.04 279.85 172.62 C 287.55 167.07 294.86 160.98 301.76 154.46 C 312.27 144.71 321.97 133.97 329.79 121.92 C 336.80 111.11 342.05 98.82 342.64 85.80 M 345.89 106.84 C 344.57 114.09 343.36 121.43 342.85 128.78 C 345.84 128.80 348.83 128.82 351.83 128.80 C 353.18 121.53 354.13 114.20 354.99 106.87 C 351.96 106.72 348.92 106.75 345.89 106.84 M 327.21 163.46 C 326.21 164.06 325.86 165.34 325.22 166.26 C 319.59 176.79 313.67 187.17 308.16 197.77 C 314.40 197.92 320.65 197.92 326.90 197.76 C 330.53 188.79 334.06 179.79 337.71 170.82 C 338.33 169.38 338.72 167.86 339.04 166.33 C 335.09 165.41 331.20 164.19 327.21 163.46 M 292.08 257.82 C 286.19 270.35 279.38 282.45 273.79 295.12 C 278.83 295.25 284.00 295.71 288.98 294.94 C 293.26 286.33 296.52 277.15 300.37 268.30 C 301.68 264.78 303.72 261.49 304.33 257.73 C 300.25 257.56 296.16 257.48 292.08 257.82 M 220.96 315.94 C 208.67 326.41 196.31 336.80 183.97 347.19 C 183.74 347.56 183.28 348.31 183.06 348.68 C 192.27 348.65 201.48 348.70 210.69 348.64 C 220.98 337.08 231.52 325.75 241.87 314.25 C 235.93 314.07 229.98 314.07 224.05 314.20 C 222.76 314.14 221.92 315.29 220.96 315.94 Z" />
<path fill="#e9ea6a" opacity="1.00" d=" M 405.36 91.17 C 413.83 98.26 422.11 105.58 430.33 112.95 C 428.44 115.06 426.68 117.93 423.97 118.85 C 415.47 112.07 407.64 104.45 399.21 97.56 C 401.09 95.27 403.24 93.22 405.36 91.17 Z" />
<path fill="#e9ea6a" opacity="1.00" d=" M 389.92 138.17 C 392.88 136.05 395.91 134.04 398.98 132.09 C 401.58 135.60 403.27 139.66 405.51 143.40 C 408.53 149.02 411.91 154.45 414.72 160.18 C 411.65 162.31 408.70 164.77 405.20 166.15 C 400.28 156.73 394.64 147.68 389.92 138.17 Z" />
<path fill="#e9ea6a" opacity="1.00" d=" M 391.21 194.44 C 394.83 193.45 398.48 192.50 402.19 191.88 C 405.61 206.30 408.49 220.85 411.62 235.34 C 406.59 236.93 401.32 237.54 396.20 238.73 C 393.85 225.25 392.28 211.63 390.17 198.11 C 390.07 196.87 389.31 194.64 391.21 194.44 Z" />
<path fill="#e9ea6a" opacity="1.00" d=" M 149.88 265.86 C 164.88 257.85 179.89 249.87 194.88 241.86 C 202.16 243.00 209.54 243.62 216.73 245.20 C 200.54 254.08 184.52 263.26 168.41 272.28 C 167.88 272.50 166.81 272.93 166.27 273.15 C 160.20 271.18 154.17 269.06 148.08 267.13 C 148.53 266.81 149.43 266.18 149.88 265.86 Z" />
<path fill="#e9ea6a" opacity="1.00" d=" M 421.24 276.40 C 430.62 274.60 439.84 271.88 449.29 270.55 C 449.56 286.05 449.28 301.55 449.41 317.06 C 449.38 321.32 449.59 325.60 449.17 329.86 C 439.84 330.85 430.52 332.00 421.19 332.92 C 421.16 314.08 421.05 295.24 421.24 276.40 Z" />
<path fill="#e9ea6a" opacity="1.00" d=" M 373.99 311.04 C 377.27 311.00 380.56 310.97 383.84 310.99 C 388.90 311.02 393.96 310.97 399.02 311.01 C 397.09 324.48 394.53 337.85 392.43 351.29 C 391.66 356.75 390.18 362.13 390.10 367.69 C 396.17 367.61 402.25 367.41 408.32 367.76 C 408.61 377.86 407.33 387.92 407.33 398.01 C 406.69 412.68 406.09 427.36 405.67 442.04 C 405.49 443.30 405.88 444.79 405.12 445.92 C 398.09 446.31 391.04 445.95 384.01 446.09 C 380.68 446.10 377.36 446.07 374.03 446.02 C 375.94 431.35 378.09 416.72 379.96 402.05 C 381.18 393.71 382.39 385.38 383.32 377.01 C 377.12 376.79 370.92 377.00 364.73 376.89 C 366.99 358.15 370.10 339.51 372.53 320.78 C 372.99 317.53 373.53 314.29 373.99 311.04 Z" />
<path fill="#e9ea6a" opacity="1.00" d=" M 320.87 361.12 C 327.99 360.31 335.08 359.14 342.18 358.10 C 342.41 362.13 341.29 366.06 340.86 370.04 C 339.26 380.69 338.07 391.42 336.12 402.00 C 328.85 403.01 321.63 404.51 314.30 404.94 C 316.02 393.04 317.77 381.15 319.42 369.24 C 319.81 366.52 319.98 363.74 320.87 361.12 Z" />
<path fill="#e9ea6a" opacity="1.00" d=" M 54.14 381.40 C 55.36 380.82 56.61 379.83 58.06 380.27 C 65.95 381.20 73.82 382.17 81.69 383.22 C 64.62 393.34 47.47 403.33 30.39 413.43 C 29.10 414.27 27.61 414.80 26.06 414.43 C 17.44 413.03 8.74 412.02 0.00 411.73 L 0.00 411.36 C 18.17 401.60 36.12 391.42 54.14 381.40 Z" />
<path fill="#e9ea6a" opacity="1.00" d=" M 258.90 395.12 C 264.68 394.49 270.41 393.36 276.21 392.84 C 275.29 397.04 273.40 400.94 272.01 405.00 C 266.31 420.70 260.32 436.31 254.78 452.07 C 247.43 451.55 240.13 450.24 232.85 449.07 C 239.36 431.82 246.89 414.94 253.70 397.79 C 254.15 395.32 256.98 395.45 258.90 395.12 Z" />
<path fill="#e9ea6a" opacity="1.00" d=" M 289.12 464.98 C 296.39 463.88 303.66 462.70 310.98 461.92 C 307.14 478.67 302.48 495.23 298.71 512.00 L 273.47 512.00 C 278.64 496.31 283.90 480.66 289.12 464.98 Z" />
</g>
<g id="#d9a23dff">
<path fill="#d9a23d" opacity="1.00" d=" M 235.51 0.00 L 251.50 0.00 C 251.17 8.88 251.73 17.78 251.13 26.65 C 250.22 25.62 249.31 24.58 248.66 23.36 C 244.37 15.53 240.10 7.67 235.51 0.00 Z" />
<path fill="#d9a23d" opacity="1.00" d=" M 269.99 0.00 L 282.44 0.00 C 282.58 3.40 281.26 6.62 280.65 9.91 C 279.23 15.69 278.41 21.63 276.46 27.27 C 273.98 18.26 272.67 8.96 269.99 0.00 Z" />
<path fill="#d9a23d" opacity="1.00" d=" M 299.01 27.85 C 301.61 20.47 305.09 13.45 307.95 6.18 C 311.05 8.47 314.43 10.37 317.51 12.71 C 311.18 17.56 305.26 22.91 299.01 27.85 Z" />
<path fill="#d9a23d" opacity="1.00" d=" M 323.13 21.10 C 333.80 17.24 344.43 13.23 355.16 9.54 C 356.20 15.78 357.25 22.02 358.28 28.26 C 374.00 27.33 389.70 26.20 405.41 25.12 C 405.48 33.52 405.36 41.93 405.47 50.34 C 420.16 58.52 434.68 67.01 449.32 75.29 C 443.28 81.82 436.81 87.94 430.54 94.25 C 444.24 112.01 457.82 129.86 471.46 147.67 C 467.88 149.89 464.34 152.17 460.77 154.40 C 452.94 159.48 445.03 164.45 437.14 169.43 C 438.86 175.18 441.70 180.50 443.94 186.05 C 450.91 202.61 458.32 219.01 464.99 235.69 C 462.04 237.86 458.55 239.37 455.99 242.02 C 455.52 246.00 456.04 250.01 456.08 254.01 C 456.53 263.34 456.14 272.69 456.89 282.02 C 457.32 296.68 457.50 311.34 458.17 325.99 C 458.69 333.56 457.79 341.21 459.14 348.71 C 465.34 348.82 471.56 348.30 477.74 348.99 C 477.72 365.61 477.66 382.22 477.75 398.84 C 471.50 399.01 465.25 398.98 459.00 398.89 C 458.64 383.27 459.01 367.64 458.84 352.01 C 453.62 351.72 448.40 351.73 443.19 351.97 C 440.84 374.93 439.20 397.97 436.74 420.92 C 432.62 422.12 428.43 423.04 424.30 424.18 C 422.22 438.67 420.04 453.15 418.22 467.68 C 418.20 467.81 418.16 468.07 418.13 468.20 C 415.85 482.77 413.67 497.36 411.88 512.00 L 352.08 512.00 C 354.11 500.48 356.01 488.91 358.48 477.48 C 365.41 476.24 372.48 475.77 379.35 474.26 C 379.59 474.03 380.07 473.57 380.31 473.33 C 381.79 464.30 382.66 455.15 384.01 446.09 C 391.04 445.95 398.09 446.31 405.12 445.92 C 405.88 444.79 405.49 443.30 405.67 442.04 C 406.09 427.36 406.69 412.68 407.33 398.01 C 407.33 387.92 408.61 377.86 408.32 367.76 C 402.25 367.41 396.17 367.61 390.10 367.69 C 390.18 362.13 391.66 356.75 392.43 351.29 C 394.53 337.85 397.09 324.48 399.02 311.01 C 393.96 310.97 388.90 311.02 383.84 310.99 C 384.40 293.25 386.03 275.53 386.26 257.79 C 382.17 257.52 378.08 257.60 374.00 257.80 C 373.92 232.60 374.16 207.39 373.89 182.19 C 370.83 182.24 367.77 182.22 364.71 182.15 C 364.53 168.62 364.51 155.07 364.73 141.54 C 366.71 141.55 368.70 141.55 370.69 141.54 C 371.23 119.45 358.79 99.01 342.67 84.73 C 342.25 80.32 343.59 75.53 341.74 71.38 C 341.98 65.47 339.74 59.80 338.91 53.99 C 337.45 48.57 337.69 42.47 334.29 37.75 C 330.51 32.24 326.79 26.69 323.13 21.10 M 364.98 56.73 C 370.99 59.69 377.00 62.63 382.96 65.67 C 385.64 64.74 387.26 61.78 389.36 59.90 C 383.55 56.20 377.10 53.54 370.97 50.39 C 368.87 52.40 366.46 54.18 364.98 56.73 M 405.36 91.17 C 403.24 93.22 401.09 95.27 399.21 97.56 C 407.64 104.45 415.47 112.07 423.97 118.85 C 426.68 117.93 428.44 115.06 430.33 112.95 C 422.11 105.58 413.83 98.26 405.36 91.17 M 389.92 138.17 C 394.64 147.68 400.28 156.73 405.20 166.15 C 408.70 164.77 411.65 162.31 414.72 160.18 C 411.91 154.45 408.53 149.02 405.51 143.40 C 403.27 139.66 401.58 135.60 398.98 132.09 C 395.91 134.04 392.88 136.05 389.92 138.17 M 391.21 194.44 C 389.31 194.64 390.07 196.87 390.17 198.11 C 392.28 211.63 393.85 225.25 396.20 238.73 C 401.32 237.54 406.59 236.93 411.62 235.34 C 408.49 220.85 405.61 206.30 402.19 191.88 C 398.48 192.50 394.83 193.45 391.21 194.44 M 424.37 207.37 C 426.28 224.91 428.44 242.42 430.47 259.95 C 431.39 259.41 432.25 258.79 432.91 257.94 C 437.29 252.59 441.83 247.37 446.12 241.95 C 442.35 228.26 437.92 214.74 433.67 201.18 C 430.47 203.10 427.45 205.28 424.37 207.37 M 421.24 276.40 C 421.05 295.24 421.16 314.08 421.19 332.92 C 430.52 332.00 439.84 330.85 449.17 329.86 C 449.59 325.60 449.38 321.32 449.41 317.06 C 449.28 301.55 449.56 286.05 449.29 270.55 C 439.84 271.88 430.62 274.60 421.24 276.40 Z" />
<path fill="#d9a23d" opacity="1.00" d=" M 204.48 37.39 C 207.54 33.33 210.67 29.33 213.63 25.21 C 219.57 31.36 225.12 37.86 230.88 44.18 C 234.14 47.84 237.66 51.30 240.41 55.38 C 236.18 53.89 232.32 51.58 228.29 49.66 C 220.37 45.53 212.11 42.03 204.48 37.39 Z" />
<path fill="#d9a23d" opacity="1.00" d=" M 259.12 37.50 C 259.69 36.55 260.30 35.62 261.04 34.79 C 266.57 34.55 272.05 35.73 277.59 35.73 C 279.14 44.78 281.07 53.76 282.88 62.76 C 281.82 63.87 280.76 64.97 279.70 66.07 C 274.42 58.12 268.70 50.46 263.39 42.53 C 262.17 40.69 260.65 39.07 259.12 37.50 Z" />
<path fill="#d9a23d" opacity="1.00" d=" M 295.00 36.99 C 298.15 37.32 301.35 37.18 304.50 37.65 C 307.07 39.24 309.01 41.64 311.29 43.61 C 307.23 52.03 302.64 60.19 298.96 68.79 C 307.61 64.66 316.26 60.48 324.67 55.88 C 329.78 60.39 334.67 65.15 339.83 69.61 C 335.62 70.24 332.02 72.64 328.12 74.17 C 322.75 76.63 317.23 78.76 312.01 81.52 C 321.78 83.33 331.93 82.75 341.53 85.50 C 335.66 89.42 329.80 93.34 323.93 97.25 C 318.62 93.74 314.08 89.21 308.74 85.76 C 309.89 91.93 312.70 97.61 314.13 103.71 C 311.11 105.08 307.98 106.19 304.87 107.36 C 304.79 98.86 304.91 90.36 304.81 81.86 C 304.08 81.82 302.60 81.74 301.86 81.70 C 297.46 75.49 293.41 69.05 289.10 62.78 C 291.13 54.20 292.91 45.56 295.00 36.99 Z" />
<path fill="#d9a23d" opacity="1.00" d=" M 240.71 70.39 C 243.07 66.11 245.47 61.86 247.88 57.61 C 256.41 60.45 264.77 63.79 273.28 66.69 C 275.68 67.46 277.96 68.55 280.11 69.86 C 280.46 73.73 281.45 77.50 282.07 81.32 C 268.23 77.87 254.49 74.04 240.71 70.39 Z" />
<path fill="#d9a23d" opacity="1.00" d=" M 270.18 87.95 C 278.16 92.81 286.08 97.77 293.99 102.73 C 293.05 103.06 292.09 103.18 291.11 103.10 C 284.23 102.40 277.41 101.04 270.49 100.87 C 269.47 96.64 270.19 92.24 270.18 87.95 Z" />
<path fill="#d9a23d" opacity="1.00" d=" M 345.89 106.84 C 348.92 106.75 351.96 106.72 354.99 106.87 C 354.13 114.20 353.18 121.53 351.83 128.80 C 348.83 128.82 345.84 128.80 342.85 128.78 C 343.36 121.43 344.57 114.09 345.89 106.84 Z" />
<path fill="#d9a23d" opacity="1.00" d=" M 291.58 120.70 C 296.24 121.81 300.60 123.85 304.95 125.82 C 304.99 127.78 305.04 129.73 305.00 131.69 L 304.63 131.94 C 300.51 127.91 295.37 125.06 291.58 120.70 Z" />
<path fill="#d9a23d" opacity="1.00" d=" M 275.88 143.97 C 279.03 140.49 281.64 136.50 285.25 133.46 C 284.74 136.40 284.21 139.35 283.68 142.29 L 284.93 142.52 C 281.15 145.84 276.45 147.81 271.90 149.82 C 272.95 147.69 274.27 145.71 275.88 143.97 Z" />
<path fill="#d9a23d" opacity="1.00" d=" M 327.21 163.46 C 331.20 164.19 335.09 165.41 339.04 166.33 C 338.72 167.86 338.33 169.38 337.71 170.82 C 334.06 179.79 330.53 188.79 326.90 197.76 C 320.65 197.92 314.40 197.92 308.16 197.77 C 313.67 187.17 319.59 176.79 325.22 166.26 C 325.86 165.34 326.21 164.06 327.21 163.46 Z" />
<path fill="#d9a23d" opacity="1.00" d=" M 257.82 229.30 C 260.86 227.24 263.75 224.88 267.08 223.30 C 271.27 223.59 275.26 225.10 279.31 226.12 C 278.01 228.17 276.47 230.04 274.77 231.76 C 268.43 238.76 262.29 245.95 255.90 252.91 C 254.74 254.78 252.51 253.62 250.89 253.19 C 245.94 251.39 240.82 250.08 236.02 247.88 C 243.33 241.74 250.47 235.39 257.82 229.30 Z" />
<path fill="#d9a23d" opacity="1.00" d=" M 333.15 245.06 C 340.46 244.95 347.77 244.95 355.08 245.07 C 353.18 253.42 350.90 261.67 348.97 270.02 C 355.66 270.27 362.36 270.10 369.05 270.15 C 366.71 287.83 363.67 305.44 361.74 323.17 C 365.35 322.42 368.91 321.50 372.53 320.78 C 370.10 339.51 366.99 358.15 364.73 376.89 C 370.92 377.00 377.12 376.79 383.32 377.01 C 382.39 385.38 381.18 393.71 379.96 402.05 C 375.96 402.03 371.95 402.07 367.95 402.04 C 364.21 415.31 361.87 428.98 358.27 442.29 C 354.60 444.91 349.38 444.09 345.67 446.70 C 345.23 447.66 344.87 448.66 344.60 449.70 C 338.86 470.51 332.69 491.20 326.90 512.00 L 298.71 512.00 C 302.48 495.23 307.14 478.67 310.98 461.92 C 303.66 462.70 296.39 463.88 289.12 464.98 C 283.90 480.66 278.64 496.31 273.47 512.00 L 248.57 512.00 C 250.78 502.41 255.07 493.43 257.25 483.85 C 251.19 483.77 245.10 483.38 239.06 484.01 C 234.10 492.95 230.78 502.86 226.09 512.00 L 100.75 512.00 C 115.83 493.31 131.58 475.17 146.73 456.55 C 147.23 455.70 147.97 455.32 148.94 455.41 C 154.61 455.33 160.29 455.46 165.96 455.33 C 165.36 459.09 163.09 462.23 161.53 465.62 C 157.05 474.77 152.25 483.78 147.94 493.02 C 156.26 493.23 164.59 493.19 172.91 493.07 C 183.37 471.14 193.73 449.16 204.29 427.28 C 211.52 426.96 218.78 427.62 225.99 427.00 C 227.65 425.06 228.08 422.33 229.14 420.04 C 240.82 391.06 252.27 361.98 264.05 333.04 C 274.55 332.71 285.06 333.14 295.57 332.78 C 299.61 318.17 303.81 303.61 308.03 289.05 C 312.25 288.97 316.48 289.04 320.71 288.84 C 324.67 274.19 329.00 259.65 333.15 245.06 M 320.87 361.12 C 319.98 363.74 319.81 366.52 319.42 369.24 C 317.77 381.15 316.02 393.04 314.30 404.94 C 321.63 404.51 328.85 403.01 336.12 402.00 C 338.07 391.42 339.26 380.69 340.86 370.04 C 341.29 366.06 342.41 362.13 342.18 358.10 C 335.08 359.14 327.99 360.31 320.87 361.12 M 258.90 395.12 C 256.98 395.45 254.15 395.32 253.70 397.79 C 246.89 414.94 239.36 431.82 232.85 449.07 C 240.13 450.24 247.43 451.55 254.78 452.07 C 260.32 436.31 266.31 420.70 272.01 405.00 C 273.40 400.94 275.29 397.04 276.21 392.84 C 270.41 393.36 264.68 394.49 258.90 395.12 Z" />
<path fill="#d9a23d" opacity="1.00" d=" M 292.08 257.82 C 296.16 257.48 300.25 257.56 304.33 257.73 C 303.72 261.49 301.68 264.78 300.37 268.30 C 296.52 277.15 293.26 286.33 288.98 294.94 C 284.00 295.71 278.83 295.25 273.79 295.12 C 279.38 282.45 286.19 270.35 292.08 257.82 Z" />
<path fill="#d9a23d" opacity="1.00" d=" M 220.96 315.94 C 221.92 315.29 222.76 314.14 224.05 314.20 C 229.98 314.07 235.93 314.07 241.87 314.25 C 231.52 325.75 220.98 337.08 210.69 348.64 C 201.48 348.70 192.27 348.65 183.06 348.68 C 183.28 348.31 183.74 347.56 183.97 347.19 C 196.31 336.80 208.67 326.41 220.96 315.94 Z" />
<path fill="#d9a23d" opacity="1.00" d=" M 158.25 369.27 C 159.26 368.40 160.42 367.29 161.90 367.83 C 166.48 368.58 171.05 369.45 175.51 370.77 C 173.79 372.63 172.04 374.45 170.15 376.13 C 158.37 386.76 146.93 397.76 135.05 408.28 C 129.71 407.31 124.43 405.92 119.00 405.50 C 123.51 401.37 127.64 396.84 132.06 392.62 C 140.74 384.78 149.58 377.13 158.25 369.27 Z" />
</g>
<g id="#b07c43ff">
<path fill="#b07c43" opacity="1.00" d=" M 277.59 35.73 C 283.40 36.12 289.20 36.50 295.00 36.99 C 292.91 45.56 291.13 54.20 289.10 62.78 C 287.02 62.77 284.95 62.76 282.88 62.76 C 281.07 53.76 279.14 44.78 277.59 35.73 Z" />
<path fill="#b07c43" opacity="1.00" d=" M 259.12 37.50 C 260.65 39.07 262.17 40.69 263.39 42.53 C 268.70 50.46 274.42 58.12 279.70 66.07 C 279.84 67.33 279.98 68.60 280.11 69.86 C 277.96 68.55 275.68 67.46 273.28 66.69 C 264.77 63.79 256.41 60.45 247.88 57.61 C 251.61 50.89 255.48 44.26 259.12 37.50 Z" />
<path fill="#b07c43" opacity="1.00" d=" M 311.29 43.61 C 315.80 47.64 320.23 51.77 324.67 55.88 C 316.26 60.48 307.61 64.66 298.96 68.79 C 302.64 60.19 307.23 52.03 311.29 43.61 Z" />
<path fill="#b07c43" opacity="1.00" d=" M 328.12 74.17 C 332.02 72.64 335.62 70.24 339.83 69.61 C 340.31 70.05 341.26 70.94 341.74 71.38 C 343.59 75.53 342.25 80.32 342.67 84.73 C 342.66 85.00 342.65 85.54 342.64 85.80 L 341.53 85.50 C 331.93 82.75 321.78 83.33 312.01 81.52 C 317.23 78.76 322.75 76.63 328.12 74.17 Z" />
<path fill="#b07c43" opacity="1.00" d=" M 232.41 84.62 C 235.50 80.07 237.91 75.11 240.71 70.39 C 254.49 74.04 268.23 77.87 282.07 81.32 C 282.35 81.39 282.91 81.52 283.20 81.58 C 278.89 81.68 274.58 81.50 270.28 81.91 C 270.28 82.63 270.27 84.08 270.27 84.80 C 265.05 84.77 259.84 84.81 254.62 84.79 C 247.25 84.75 239.87 84.89 232.50 84.74 L 232.41 84.62 Z" />
<path fill="#b07c43" opacity="1.00" d=" M 308.74 85.76 C 314.08 89.21 318.62 93.74 323.93 97.25 C 320.64 99.37 317.52 101.74 314.13 103.71 C 312.70 97.61 309.89 91.93 308.74 85.76 Z" />
<path fill="#b07c43" opacity="1.00" d=" M 437.14 169.43 C 445.03 164.45 452.94 159.48 460.77 154.40 C 472.67 177.29 484.64 200.15 496.58 223.03 C 491.35 228.34 485.90 233.44 480.85 238.93 C 489.41 262.76 497.37 286.81 506.00 310.61 L 506.00 310.97 C 500.80 313.07 495.60 315.21 490.35 317.18 C 495.44 344.27 500.61 371.35 506.00 398.38 L 506.00 398.85 C 498.69 400.09 491.33 401.00 483.99 402.08 C 478.81 423.03 473.40 443.92 468.37 464.91 C 475.69 464.82 483.01 464.89 490.34 464.86 C 485.98 480.54 482.02 496.33 477.64 512.00 L 411.88 512.00 C 413.67 497.36 415.85 482.77 418.13 468.20 C 429.26 468.82 437.48 479.24 437.59 489.99 C 438.48 485.03 439.39 479.76 442.72 475.77 C 445.92 471.56 450.96 469.33 456.02 468.26 C 452.14 467.00 447.97 465.92 445.06 462.86 C 440.45 458.50 438.84 452.12 437.77 446.09 C 437.61 451.75 435.65 457.52 431.46 461.47 C 427.88 464.96 423.07 466.79 418.22 467.68 C 420.04 453.15 422.22 438.67 424.30 424.18 C 428.43 423.04 432.62 422.12 436.74 420.92 C 439.20 397.97 440.84 374.93 443.19 351.97 C 448.40 351.73 453.62 351.72 458.84 352.01 C 459.01 367.64 458.64 383.27 459.00 398.89 C 465.25 398.98 471.50 399.01 477.75 398.84 C 477.66 382.22 477.72 365.61 477.74 348.99 C 471.56 348.30 465.34 348.82 459.14 348.71 C 457.79 341.21 458.69 333.56 458.17 325.99 C 457.50 311.34 457.32 296.68 456.89 282.02 C 456.14 272.69 456.53 263.34 456.08 254.01 C 456.04 250.01 455.52 246.00 455.99 242.02 C 458.55 239.37 462.04 237.86 464.99 235.69 C 458.32 219.01 450.91 202.61 443.94 186.05 C 441.70 180.50 438.86 175.18 437.14 169.43 Z" />
<path fill="#b07c43" opacity="1.00" d=" M 424.37 207.37 C 427.45 205.28 430.47 203.10 433.67 201.18 C 437.92 214.74 442.35 228.26 446.12 241.95 C 441.83 247.37 437.29 252.59 432.91 257.94 C 432.25 258.79 431.39 259.41 430.47 259.95 C 428.44 242.42 426.28 224.91 424.37 207.37 Z" />
<path fill="#b07c43" opacity="1.00" d=" M 374.00 257.80 C 378.08 257.60 382.17 257.52 386.26 257.79 C 386.03 275.53 384.40 293.25 383.84 310.99 C 380.56 310.97 377.27 311.00 373.99 311.04 C 373.53 314.29 372.99 317.53 372.53 320.78 C 368.91 321.50 365.35 322.42 361.74 323.17 C 363.67 305.44 366.71 287.83 369.05 270.15 C 370.69 270.13 372.33 270.11 373.98 270.10 C 374.01 266.00 374.01 261.90 374.00 257.80 Z" />
<path fill="#b07c43" opacity="1.00" d=" M 367.95 402.04 C 371.95 402.07 375.96 402.03 379.96 402.05 C 378.09 416.72 375.94 431.35 374.03 446.02 C 377.36 446.07 380.68 446.10 384.01 446.09 C 382.66 455.15 381.79 464.30 380.31 473.33 C 380.07 473.57 379.59 474.03 379.35 474.26 C 372.48 475.77 365.41 476.24 358.48 477.48 C 356.01 488.91 354.11 500.48 352.08 512.00 L 326.90 512.00 C 332.69 491.20 338.86 470.51 344.60 449.70 C 344.87 448.66 345.23 447.66 345.67 446.70 C 349.38 444.09 354.60 444.91 358.27 442.29 C 361.87 428.98 364.21 415.31 367.95 402.04 Z" />
<path fill="#b07c43" opacity="1.00" d=" M 226.09 512.00 C 230.78 502.86 234.10 492.95 239.06 484.01 C 245.10 483.38 251.19 483.77 257.25 483.85 C 255.07 493.43 250.78 502.41 248.57 512.00 L 226.09 512.00 Z" />
</g>
<g id="#5e6460ff">
<path fill="#5e6460" opacity="1.00" d=" M 279.70 66.07 C 280.76 64.97 281.82 63.87 282.88 62.76 C 284.95 62.76 287.02 62.77 289.10 62.78 C 293.41 69.05 297.46 75.49 301.86 81.70 C 295.64 81.54 289.42 81.81 283.20 81.58 C 282.91 81.52 282.35 81.39 282.07 81.32 C 281.45 77.50 280.46 73.73 280.11 69.86 C 279.98 68.60 279.84 67.33 279.70 66.07 Z" />
<path fill="#5e6460" opacity="1.00" d=" M 254.62 84.79 C 259.84 84.81 265.05 84.77 270.27 84.80 C 270.25 85.59 270.20 87.17 270.18 87.95 C 270.19 92.24 269.47 96.64 270.49 100.87 C 272.05 102.68 273.63 104.47 275.16 106.31 C 273.97 110.89 273.36 116.28 269.18 119.24 C 262.30 124.36 253.34 125.10 245.07 125.75 C 246.89 122.20 248.89 118.69 249.78 114.77 C 252.13 104.91 253.22 94.81 254.62 84.79 Z" />
<path fill="#5e6460" opacity="1.00" d=" M 323.93 97.25 C 329.80 93.34 335.66 89.42 341.53 85.50 L 342.64 85.80 C 342.05 98.82 336.80 111.11 329.79 121.92 C 321.97 133.97 312.27 144.71 301.76 154.46 C 301.68 147.50 301.71 140.55 301.75 133.59 C 302.71 133.06 303.67 132.51 304.63 131.94 L 305.00 131.69 C 305.04 129.73 304.99 127.78 304.95 125.82 C 304.78 119.67 304.90 113.51 304.87 107.36 C 307.98 106.19 311.11 105.08 314.13 103.71 C 317.52 101.74 320.64 99.37 323.93 97.25 Z" />
</g>
<g id="#e7dfb8ff">
<path fill="#e7dfb8" opacity="1.00" d=" M 157.52 158.08 C 157.40 166.45 160.32 174.91 165.51 181.48 C 170.59 188.02 178.89 191.45 187.07 191.51 C 180.05 192.54 172.98 194.81 167.61 199.61 C 160.47 205.79 156.91 215.58 157.47 224.89 C 156.00 216.95 154.07 208.69 148.58 202.46 C 142.70 195.11 133.17 191.84 124.00 191.56 C 134.94 190.67 146.32 185.84 152.26 176.19 C 155.79 170.79 156.61 164.31 157.52 158.08 Z" />
<path fill="#e7dfb8" opacity="1.00" d=" M 44.77 304.99 C 45.05 304.20 44.55 302.59 45.65 302.40 C 44.89 308.21 47.60 314.81 51.60 319.33 C 54.99 323.30 60.22 324.43 65.06 325.56 C 53.47 325.10 43.99 336.73 45.40 347.96 C 44.27 344.02 43.91 339.82 41.81 336.22 C 38.39 329.33 30.65 324.80 22.96 325.42 C 26.88 324.27 31.07 323.80 34.58 321.56 C 40.55 318.25 44.33 311.74 44.77 304.99 Z" />
<path fill="#e7dfb8" opacity="1.00" d=" M 431.46 461.47 C 435.65 457.52 437.61 451.75 437.77 446.09 C 438.84 452.12 440.45 458.50 445.06 462.86 C 447.97 465.92 452.14 467.00 456.02 468.26 C 450.96 469.33 445.92 471.56 442.72 475.77 C 439.39 479.76 438.48 485.03 437.59 489.99 C 437.48 479.24 429.26 468.82 418.13 468.20 C 418.16 468.07 418.20 467.81 418.22 467.68 C 423.07 466.79 427.88 464.96 431.46 461.47 Z" />
</g>
</svg>
