<?xml version="1.0" encoding="UTF-8" ?>
<!DOCTYPE svg PUBLIC "-//W3C//DTD SVG 1.1//EN" "http://www.w3.org/Graphics/SVG/1.1/DTD/svg11.dtd">
<svg width="464pt" height="475pt" viewBox="0 0 464 475" version="1.1" xmlns="http://www.w3.org/2000/svg">
<g id="#5c7145ff">
<path fill="#5c7145" opacity="1.00" d=" M 306.33 0.00 L 314.77 0.00 C 332.53 0.26 350.36 0.90 367.91 3.73 C 369.54 6.34 371.82 8.72 372.65 11.74 C 370.80 15.39 367.59 18.08 364.90 21.09 C 335.09 22.43 305.35 26.08 276.16 32.33 C 248.77 38.32 221.40 46.60 197.43 61.52 C 193.00 64.64 188.02 67.26 184.48 71.44 C 184.38 71.78 184.17 72.48 184.07 72.82 C 188.92 76.30 195.25 76.49 201.00 76.79 C 225.35 77.06 249.66 78.51 274.01 78.85 C 281.00 79.23 288.01 79.31 295.00 79.04 C 322.94 78.36 351.01 79.11 378.66 83.41 C 385.67 84.46 392.57 86.23 399.66 86.80 C 403.25 88.35 407.05 89.28 410.73 90.57 C 412.07 92.71 413.65 94.71 414.72 97.01 C 414.26 98.23 413.62 99.36 413.05 100.51 C 361.53 92.33 309.23 86.35 257.02 89.92 C 250.02 90.84 242.34 90.49 236.15 94.35 C 235.47 97.16 238.64 98.25 240.44 99.58 C 252.49 106.67 265.43 112.38 278.91 116.11 C 297.25 120.52 315.62 124.78 334.08 128.64 C 343.39 130.37 352.87 131.28 362.00 133.90 C 373.44 136.55 384.71 140.53 396.54 140.89 C 397.82 141.31 399.06 141.83 400.29 142.40 C 401.73 144.85 403.16 147.30 404.57 149.77 C 403.66 150.74 402.78 151.72 401.86 152.67 C 396.26 151.27 390.47 150.74 384.93 149.10 C 376.54 146.70 368.35 143.69 360.08 140.92 C 354.80 139.15 349.20 138.72 343.83 137.33 C 322.63 131.66 300.89 125.89 278.74 127.36 C 280.88 130.45 283.36 133.29 286.13 135.84 C 297.23 146.64 309.76 155.86 322.85 164.10 C 325.49 165.73 328.03 167.52 330.48 169.44 C 322.69 170.77 314.72 171.52 307.26 174.27 C 304.28 175.30 301.76 177.32 299.78 179.75 C 295.66 184.74 291.99 190.16 289.42 196.12 C 288.23 199.12 285.70 201.22 283.39 203.35 C 275.04 210.83 266.45 218.03 257.77 225.12 C 258.39 220.47 259.17 215.61 257.21 211.14 C 258.34 208.98 259.53 206.85 260.88 204.82 C 259.54 202.37 258.43 199.69 256.42 197.69 C 253.69 196.24 250.60 195.72 247.66 194.89 C 249.27 192.74 251.93 190.90 252.54 188.26 C 252.38 182.86 246.69 181.52 242.66 179.82 C 244.43 178.23 246.53 176.87 247.79 174.80 C 248.81 169.80 248.00 163.86 251.85 159.88 C 253.94 157.37 258.26 155.89 257.68 151.98 C 256.69 142.54 251.48 133.76 244.19 127.77 C 229.91 114.02 211.81 103.99 192.08 100.95 C 173.16 98.11 153.46 98.46 135.00 103.81 C 120.10 108.31 106.57 116.55 94.52 126.28 C 86.24 128.63 77.54 128.40 69.01 128.43 C 67.08 128.25 64.20 128.77 63.51 126.35 C 59.62 117.45 60.29 107.53 58.74 98.14 C 60.15 94.94 61.38 91.53 63.90 88.99 C 69.82 82.77 77.45 78.54 85.05 74.70 C 86.88 80.85 88.45 87.35 92.38 92.56 C 94.94 96.01 99.53 93.91 102.96 93.37 C 107.80 91.94 112.91 92.63 117.81 91.69 C 122.23 89.39 125.17 85.04 129.34 82.32 C 131.98 80.12 136.51 77.25 134.66 73.25 C 131.80 67.52 133.23 60.97 132.88 54.83 C 137.96 51.78 143.46 49.49 149.13 47.76 C 152.12 52.19 154.41 57.11 157.75 61.29 C 160.37 62.41 163.35 61.34 166.05 60.96 C 174.40 59.07 182.86 56.74 190.15 52.10 C 192.60 50.40 195.27 48.24 195.74 45.11 C 196.20 39.04 194.26 33.07 191.32 27.83 C 196.91 23.60 203.20 20.26 210.03 18.58 C 214.09 24.27 216.55 33.49 224.88 33.85 C 229.21 33.57 235.69 34.11 237.39 29.01 C 241.16 27.20 244.90 25.27 248.34 22.88 C 248.33 24.70 248.33 26.52 248.35 28.34 C 250.51 27.49 253.85 26.97 253.99 24.03 C 254.42 19.13 254.05 14.20 254.17 9.29 C 270.99 3.67 288.65 0.89 306.33 0.00 M 321.24 15.85 C 325.46 14.48 329.68 13.09 333.84 11.56 C 329.97 10.60 326.08 9.64 322.32 8.29 C 321.42 10.71 321.34 13.30 321.24 15.85 M 296.23 11.23 C 296.93 14.31 297.31 17.45 297.41 20.60 C 301.58 18.38 305.94 16.50 310.03 14.11 C 305.51 12.80 300.95 11.51 296.23 11.23 M 271.22 14.19 C 271.53 17.36 271.72 20.59 272.69 23.64 C 272.92 24.69 273.49 24.95 274.39 24.40 C 278.39 22.02 282.20 19.32 285.93 16.53 C 281.05 15.59 276.13 14.92 271.22 14.19 Z" />
<path fill="#5c7145" opacity="1.00" d=" M 359.79 32.54 C 362.53 31.39 365.29 30.30 368.07 29.23 C 368.36 31.81 368.40 34.40 368.18 36.99 C 365.22 35.83 362.39 34.37 359.79 32.54 Z" />
<path fill="#5c7145" opacity="1.00" d=" M 360.76 51.32 C 362.82 50.15 364.92 49.04 367.06 48.00 C 367.03 49.90 367.68 51.98 366.84 53.77 C 364.65 54.37 362.68 52.20 360.76 51.32 Z" />
<path fill="#5c7145" opacity="1.00" d=" M 367.82 73.55 C 369.25 71.48 370.69 69.27 373.02 68.11 C 375.12 69.26 375.98 71.65 377.13 73.62 C 374.02 73.67 370.92 73.65 367.82 73.55 Z" />
<path fill="#5c7145" opacity="1.00" d=" M 399.04 107.75 C 400.90 108.70 402.69 109.78 404.41 110.97 C 402.91 112.01 401.40 113.04 399.90 114.06 C 399.56 111.97 399.27 109.86 399.04 107.75 Z" />
<path fill="#5c7145" opacity="1.00" d=" M 388.91 118.03 C 391.35 118.67 393.76 119.40 396.15 120.20 C 394.74 121.71 393.30 123.20 391.85 124.66 C 390.33 122.72 389.25 120.49 388.91 118.03 Z" />
<path fill="#5c7145" opacity="1.00" d=" M 385.36 133.02 C 387.36 131.76 389.50 130.77 391.70 129.94 C 391.73 132.00 391.73 134.06 391.73 136.12 C 389.50 135.33 387.34 134.32 385.36 133.02 Z" />
<path fill="#5c7145" opacity="1.00" d=" M 241.71 148.54 C 244.80 149.68 247.76 151.17 250.52 152.98 C 248.44 155.02 246.17 156.86 243.72 158.45 C 242.59 155.26 241.92 151.92 241.71 148.54 Z" />
<path fill="#5c7145" opacity="1.00" d=" M 366.15 149.79 C 368.22 150.23 370.27 150.72 372.30 151.35 C 370.74 152.45 369.08 153.38 367.33 154.14 C 366.93 152.68 366.53 151.24 366.15 149.79 Z" />
<path fill="#5c7145" opacity="1.00" d=" M 357.91 151.82 C 359.41 152.93 360.91 154.05 362.39 155.21 C 360.64 156.06 358.80 156.73 356.92 157.22 C 357.24 155.42 357.58 153.62 357.91 151.82 Z" />
<path fill="#5c7145" opacity="1.00" d=" M 346.24 154.21 C 348.63 155.51 350.92 156.99 353.08 158.65 C 351.17 159.07 349.27 159.47 347.36 159.86 C 346.98 157.98 346.60 156.09 346.24 154.21 Z" />
<path fill="#5c7145" opacity="1.00" d=" M 338.08 158.81 C 339.46 159.41 340.92 159.93 342.11 160.90 C 341.18 162.86 338.83 163.24 337.07 164.15 C 337.39 162.37 337.73 160.59 338.08 158.81 Z" />
<path fill="#5c7145" opacity="1.00" d=" M 232.24 162.74 C 235.82 164.09 239.15 165.97 242.38 167.99 C 240.20 170.14 237.86 172.13 235.38 173.93 C 234.27 170.21 233.17 166.50 232.24 162.74 Z" />
<path fill="#5c7145" opacity="1.00" d=" M 346.07 167.95 C 350.16 166.33 354.66 166.96 358.94 166.90 C 352.95 174.01 345.30 181.97 346.39 192.03 C 346.49 195.64 348.30 198.81 349.70 202.03 C 349.44 203.73 347.39 204.08 345.99 204.17 C 342.47 204.22 339.06 203.22 335.63 202.56 C 324.89 200.20 313.95 198.53 302.94 198.43 C 300.25 198.37 297.60 198.91 294.98 199.42 C 297.48 194.04 300.30 188.71 304.30 184.29 C 306.37 182.11 308.92 179.96 312.07 179.83 C 317.74 179.46 323.51 180.03 329.10 178.81 C 331.04 178.49 332.51 177.12 333.96 175.89 C 337.57 172.67 341.55 169.75 346.07 167.95 M 315.07 188.04 C 312.75 189.33 313.63 192.39 313.34 194.56 C 316.10 194.63 319.05 194.93 321.59 193.54 C 323.02 191.73 322.54 189.22 322.88 187.08 C 320.29 187.28 317.47 186.84 315.07 188.04 M 329.39 190.31 C 328.54 193.96 330.85 197.31 333.18 199.89 C 335.06 198.96 337.28 198.39 338.64 196.69 C 339.39 193.32 337.72 190.10 336.73 186.97 C 334.07 187.48 331.37 188.36 329.39 190.31 Z" />
<path fill="#5c7145" opacity="1.00" d=" M 359.22 176.20 C 361.61 171.45 366.54 167.85 372.01 168.08 C 382.81 168.14 394.39 169.38 403.37 175.95 C 403.11 185.44 401.36 195.55 395.23 203.13 C 382.37 202.99 369.52 203.11 356.67 203.06 C 354.91 194.16 355.03 184.43 359.22 176.20 M 368.31 187.36 C 365.46 190.27 363.17 193.94 362.09 197.88 C 363.54 200.18 367.02 200.58 369.60 200.60 C 372.40 197.83 375.24 194.15 374.84 189.99 C 373.24 188.34 370.59 186.69 368.31 187.36 M 387.00 190.01 C 383.46 191.60 385.64 196.03 386.09 198.88 C 388.18 198.47 390.39 198.30 392.29 197.25 C 393.58 194.36 392.85 191.05 392.84 187.99 C 390.85 188.53 388.79 188.95 387.00 190.01 Z" />
<path fill="#5c7145" opacity="1.00" d=" M 413.40 177.39 C 415.91 174.96 419.01 177.38 421.39 178.69 C 433.03 186.01 443.41 195.54 451.14 206.95 C 456.69 215.07 460.37 224.62 460.56 234.54 C 450.26 229.46 439.86 224.38 428.68 221.56 C 428.62 213.19 428.67 204.83 428.64 196.47 C 420.97 196.11 413.33 195.10 405.64 195.27 C 407.00 188.95 408.42 181.93 413.40 177.39 M 440.42 212.50 C 438.50 213.24 435.96 214.60 436.28 217.03 C 436.20 219.79 439.51 222.67 442.21 221.21 C 446.69 219.97 445.27 211.64 440.42 212.50 Z" />
<path fill="#5c7145" opacity="1.00" d=" M 190.68 184.87 C 198.25 189.13 206.37 192.27 214.05 196.30 C 202.40 204.20 191.80 213.60 182.56 224.22 C 177.82 221.28 172.70 218.67 167.05 218.18 C 164.90 217.78 161.52 217.78 160.97 215.07 C 160.77 210.27 163.35 205.89 166.26 202.28 C 172.75 194.49 181.59 189.11 190.68 184.87 M 192.39 197.46 C 193.57 199.95 194.69 202.47 195.76 205.01 C 197.83 203.33 199.81 201.54 201.68 199.65 C 200.57 197.38 199.39 195.14 198.16 192.94 C 196.20 194.40 194.27 195.91 192.39 197.46 M 179.16 208.95 C 180.39 211.06 182.32 212.60 184.05 214.27 C 186.08 212.52 187.96 210.61 189.69 208.56 C 188.30 206.81 186.93 205.05 185.58 203.28 C 183.38 205.03 180.43 206.34 179.16 208.95 Z" />
<path fill="#5c7145" opacity="1.00" d=" M 236.41 184.86 C 238.52 187.18 240.12 189.88 241.17 192.83 C 238.95 193.09 236.72 193.34 234.50 193.56 C 235.04 190.64 235.67 187.73 236.41 184.86 Z" />
<path fill="#5c7145" opacity="1.00" d=" M 219.19 185.86 C 222.66 186.03 226.04 186.84 229.29 188.04 C 226.96 190.50 224.38 192.70 221.63 194.68 C 220.59 191.80 219.80 188.85 219.19 185.86 Z" />
<path fill="#5c7145" opacity="1.00" d=" M 230.87 199.71 C 233.79 200.81 237.53 201.03 239.65 203.52 C 237.28 205.47 234.66 207.08 232.15 208.86 C 231.51 205.84 231.11 202.78 230.87 199.71 Z" />
<path fill="#5c7145" opacity="1.00" d=" M 212.63 209.93 C 214.34 207.01 216.64 204.50 219.14 202.23 C 220.61 205.06 221.74 208.06 222.45 211.17 C 219.15 210.97 215.86 210.63 212.63 209.93 Z" />
<path fill="#5c7145" opacity="1.00" d=" M 263.54 227.61 C 274.45 217.17 287.27 206.71 302.96 205.54 C 314.31 205.25 325.74 205.81 336.96 207.69 C 345.23 209.20 353.58 211.56 360.59 216.38 C 364.54 219.04 367.43 222.88 370.63 226.34 L 370.72 226.64 C 372.24 232.40 374.84 237.95 374.93 244.01 C 375.22 252.43 375.70 261.10 373.33 269.28 C 371.62 276.03 366.70 281.41 360.59 284.56 C 347.52 291.64 335.84 300.94 324.68 310.68 C 316.92 317.61 310.92 327.32 311.11 338.02 C 310.87 342.75 313.91 346.66 316.36 350.41 C 313.37 351.47 310.21 352.55 307.00 352.08 C 304.27 351.51 301.80 349.96 298.98 349.85 C 295.33 349.36 291.19 350.24 288.01 347.98 C 285.10 345.56 284.74 341.47 284.52 337.96 C 284.41 333.08 284.40 328.12 285.51 323.35 C 286.41 319.48 289.58 316.83 292.46 314.38 C 302.99 305.77 315.19 299.40 325.28 290.24 C 330.68 285.25 335.67 278.72 335.73 271.04 C 335.74 261.95 333.18 252.69 327.77 245.32 C 324.62 241.00 319.59 237.38 313.99 238.15 C 302.66 238.90 293.49 246.33 284.46 252.44 C 281.34 254.72 277.11 256.74 276.51 261.02 C 275.50 267.86 280.23 273.83 284.24 278.86 C 285.91 280.45 288.19 283.59 290.73 281.84 C 294.72 278.91 297.81 274.63 299.50 269.99 C 300.17 268.06 297.39 267.14 295.98 267.70 C 294.34 268.25 293.34 269.76 292.13 270.89 C 290.31 269.01 288.09 266.26 289.65 263.54 C 292.66 259.78 297.13 257.59 301.22 255.22 C 305.34 253.16 309.40 250.66 313.98 249.79 C 318.70 253.14 322.19 257.98 325.20 262.87 C 327.91 266.98 324.88 271.68 323.89 275.87 C 322.83 281.03 318.91 284.74 315.39 288.36 C 312.32 291.34 309.14 294.27 305.43 296.42 C 302.59 298.09 299.15 297.56 296.02 297.95 C 289.82 298.24 283.32 299.83 277.34 297.45 C 266.78 293.57 257.28 286.03 252.20 275.87 C 247.11 265.77 247.35 253.62 250.98 243.10 C 253.12 236.53 258.94 232.38 263.54 227.61 M 304.93 215.07 C 308.99 218.28 312.86 221.75 317.06 224.77 C 319.89 220.62 321.65 215.84 323.91 211.37 C 317.60 212.74 311.18 213.46 304.93 215.07 M 280.20 227.46 C 285.07 228.44 289.90 229.65 294.75 230.75 C 293.93 226.31 293.09 221.86 292.53 217.38 C 288.39 220.70 284.43 224.26 280.20 227.46 M 323.29 227.52 C 328.14 232.84 332.52 238.74 338.37 243.04 C 340.51 234.94 343.37 227.05 345.89 219.06 C 338.12 221.22 330.94 225.00 323.29 227.52 M 348.06 232.49 C 350.23 240.10 352.76 247.62 355.65 254.99 C 360.51 248.71 365.77 242.69 370.00 235.95 C 362.74 234.46 355.35 233.80 348.06 232.49 M 269.47 236.20 C 268.76 240.11 268.06 244.02 267.28 247.92 C 270.99 246.40 274.68 244.77 278.00 242.48 C 275.20 240.33 272.35 238.25 269.47 236.20 M 341.11 255.07 C 343.68 263.75 346.96 272.19 349.58 280.85 C 354.77 274.69 359.51 268.17 364.32 261.72 C 356.74 259.01 348.94 256.89 341.11 255.07 M 259.23 257.31 C 260.67 261.87 261.68 266.57 263.67 270.94 C 265.85 266.80 268.01 262.65 269.91 258.38 C 266.44 257.38 262.82 257.20 259.23 257.31 Z" />
<path fill="#5c7145" opacity="1.00" d=" M 184.06 225.08 C 194.91 222.16 206.29 219.49 217.57 221.36 C 209.99 225.50 202.88 230.43 195.99 235.61 C 192.73 231.36 188.67 227.79 184.06 225.08 Z" />
<path fill="#5c7145" opacity="1.00" d=" M 152.63 242.53 C 153.04 235.19 155.26 228.08 158.65 221.58 C 164.85 221.99 170.68 224.52 175.49 228.39 C 181.23 232.47 186.20 238.47 193.59 239.44 C 192.72 244.36 190.88 249.03 189.78 253.89 C 182.91 257.49 175.31 259.29 167.91 261.40 C 168.38 256.91 169.16 252.41 168.93 247.88 C 168.81 245.15 166.47 243.14 164.05 242.31 C 160.34 240.97 156.37 241.83 152.63 242.53 M 173.34 237.81 C 173.08 241.04 172.32 244.43 173.42 247.58 C 174.79 249.63 176.73 251.20 178.48 252.90 C 179.57 249.83 181.54 246.77 181.47 243.47 C 179.16 241.08 176.44 239.04 173.34 237.81 Z" />
<path fill="#5c7145" opacity="1.00" d=" M 437.89 231.46 C 445.82 235.01 454.02 238.59 460.50 244.52 C 463.70 247.08 462.77 251.44 462.96 255.02 C 462.86 263.54 463.43 272.24 461.33 280.57 C 459.87 284.24 455.90 288.89 451.55 286.37 C 443.07 281.50 435.31 274.89 429.96 266.64 C 436.87 260.96 441.94 253.47 448.65 247.57 C 445.18 242.11 440.71 237.31 437.89 231.46 M 444.53 264.41 C 443.57 267.05 445.54 269.90 448.07 270.59 C 450.72 270.97 452.42 268.62 453.78 266.75 C 453.01 264.20 451.56 262.03 448.98 261.05 C 447.45 262.08 445.53 262.78 444.53 264.41 Z" />
<path fill="#5c7145" opacity="1.00" d=" M 99.88 259.98 C 105.14 251.25 112.75 244.24 119.91 237.09 C 120.45 242.72 120.62 248.39 120.35 254.04 C 120.28 258.31 117.21 261.60 115.19 265.12 C 110.81 272.50 105.47 279.49 98.51 284.62 C 94.62 287.45 89.27 287.45 85.69 290.76 C 83.34 293.89 84.16 298.56 81.36 301.44 C 78.44 303.63 74.88 304.78 71.90 306.89 C 69.69 308.18 67.65 310.15 64.99 310.40 C 62.56 309.45 60.61 307.66 58.60 306.06 C 58.24 308.96 58.53 312.22 56.65 314.67 C 54.31 317.76 51.68 320.64 49.57 323.91 C 60.03 324.39 70.51 324.18 80.98 324.11 C 84.83 324.25 88.43 322.73 91.40 320.36 C 96.73 316.09 104.18 317.34 109.96 314.04 C 114.96 311.17 118.73 306.62 123.72 303.72 C 129.54 299.70 136.93 298.81 142.60 294.59 C 146.78 291.13 151.50 288.46 156.29 285.96 C 158.07 285.02 159.85 284.06 161.72 283.32 C 171.93 280.66 182.25 276.14 193.02 277.96 C 196.57 278.47 200.53 280.88 200.43 284.91 C 200.83 295.18 200.62 306.77 193.08 314.70 L 192.82 315.04 C 185.48 315.78 178.15 316.71 170.85 317.78 C 164.77 318.78 157.70 320.69 154.82 326.76 C 150.56 336.09 150.15 346.59 149.29 356.66 C 151.70 356.31 154.14 355.96 156.58 356.24 L 156.82 356.42 C 154.32 356.87 151.78 356.91 149.26 357.02 C 149.06 359.91 149.93 362.86 149.33 365.72 C 148.98 363.40 148.97 360.57 146.47 359.47 C 143.50 356.95 140.09 359.79 137.00 360.40 C 133.65 360.63 130.39 359.32 127.03 359.58 C 123.89 359.84 120.79 360.40 117.64 360.58 C 117.70 357.85 119.14 355.52 120.01 353.02 C 120.53 350.66 117.96 349.76 116.33 348.94 C 116.75 344.65 117.91 340.50 118.72 336.29 C 118.51 335.99 118.10 335.39 117.90 335.09 C 114.63 335.04 111.43 335.98 108.16 335.87 C 105.08 333.51 106.48 329.32 106.92 326.12 C 103.71 327.12 100.43 327.96 97.04 327.93 C 86.36 328.01 75.68 327.85 65.00 327.95 C 59.07 327.97 53.14 329.88 47.24 328.66 C 45.48 328.26 44.90 326.30 43.87 325.05 C 46.81 318.94 53.26 315.17 55.94 309.02 C 53.96 304.42 49.95 300.90 48.67 295.94 C 56.95 290.13 67.09 287.89 76.76 285.56 C 79.74 284.19 82.09 281.78 84.50 279.61 C 90.47 273.81 96.21 267.54 99.88 259.98 Z" />
<path fill="#5c7145" opacity="1.00" d=" M 141.73 254.92 C 146.53 254.19 151.36 253.69 156.17 253.04 C 156.93 260.37 155.69 267.65 155.47 274.96 C 155.35 276.31 155.18 277.65 154.96 278.98 C 150.37 281.12 145.39 282.48 141.10 285.20 C 139.60 286.97 139.19 289.39 138.35 291.50 C 127.74 294.64 117.57 299.04 107.44 303.45 C 104.35 304.87 101.08 305.82 97.75 306.52 C 98.06 303.40 98.16 300.20 99.29 297.25 C 100.20 295.03 102.10 293.45 103.67 291.70 C 106.84 288.45 108.86 284.32 111.82 280.89 C 116.09 275.85 120.92 271.34 125.54 266.63 C 129.83 262.18 135.07 258.86 140.25 255.57 C 140.62 255.41 141.36 255.08 141.73 254.92 Z" />
<path fill="#5c7145" opacity="1.00" d=" M 429.81 281.48 C 436.80 285.18 443.54 289.36 450.02 293.90 C 457.08 298.62 463.22 305.62 464.00 314.42 L 464.00 318.56 C 462.23 325.02 459.36 331.83 453.88 335.98 C 450.69 336.48 448.71 333.25 446.74 331.30 C 440.46 323.70 432.75 317.33 424.10 312.60 L 424.33 312.35 C 429.88 306.12 435.84 300.29 441.69 294.35 C 437.59 290.18 433.00 286.44 429.81 281.48 M 441.54 308.42 C 441.24 310.21 441.30 312.04 441.24 313.85 C 443.64 316.13 448.50 316.91 450.39 313.65 C 451.26 311.02 450.52 308.30 448.79 306.23 C 446.30 306.52 442.88 305.63 441.54 308.42 Z" />
<path fill="#5c7145" opacity="1.00" d=" M 15.01 303.95 C 23.39 302.96 31.59 300.75 40.00 300.02 C 44.68 299.44 49.56 305.47 46.67 309.68 C 41.16 320.67 34.69 331.27 26.73 340.68 C 21.10 347.19 15.15 353.66 11.58 361.60 C 7.32 355.40 3.82 348.54 2.33 341.11 C 0.81 333.83 1.23 326.36 1.14 318.97 C 1.27 315.15 1.30 310.90 3.79 307.76 C 6.51 304.47 11.18 304.64 15.01 303.95 M 16.26 316.08 C 15.85 320.07 15.57 324.26 17.49 327.94 C 20.37 324.04 23.02 319.86 24.09 315.07 C 21.44 315.04 18.80 315.34 16.26 316.08 Z" />
<path fill="#5c7145" opacity="1.00" d=" M 424.21 329.99 C 430.96 331.70 434.62 338.17 440.19 341.80 C 446.67 346.20 454.92 348.65 459.33 355.58 C 462.88 361.07 461.98 368.26 458.79 373.70 C 455.90 379.22 451.92 384.06 447.75 388.65 C 440.35 380.75 432.51 373.28 424.26 366.29 C 429.30 362.00 433.85 357.16 438.69 352.66 C 439.57 351.59 441.54 350.28 440.20 348.81 C 435.29 342.20 429.04 336.67 424.21 329.99 M 444.44 362.43 C 442.20 363.62 441.92 366.42 442.53 368.63 C 443.76 370.94 447.00 371.34 449.11 370.13 C 451.21 368.85 450.51 366.17 450.82 364.14 C 449.00 362.73 446.76 361.72 444.44 362.43 Z" />
<path fill="#5c7145" opacity="1.00" d=" M 160.00 362.01 C 164.98 360.97 169.85 359.45 174.84 358.48 C 178.88 357.50 182.15 360.61 185.11 362.83 C 193.47 369.81 201.17 378.67 203.64 389.54 C 204.88 398.50 202.70 409.10 194.99 414.68 C 191.85 405.34 185.92 396.77 177.65 391.29 C 169.14 385.79 159.20 382.91 149.23 381.56 C 151.35 377.27 153.49 372.87 154.02 368.04 C 154.16 364.82 157.01 362.54 160.00 362.01 Z" />
<path fill="#5c7145" opacity="1.00" d=" M 422.30 376.95 C 426.53 377.35 429.83 380.30 433.03 382.82 C 444.57 392.65 453.49 406.57 454.54 421.98 C 454.67 426.16 454.97 430.39 454.38 434.54 C 452.97 437.88 449.28 439.39 447.32 442.35 C 444.62 446.48 441.90 450.95 437.48 453.46 C 432.11 454.97 426.14 455.13 421.39 458.36 C 418.97 460.28 416.56 462.24 413.77 463.61 C 411.50 455.60 410.38 447.31 409.37 439.07 C 408.42 436.32 411.21 434.93 412.90 433.45 C 416.81 430.20 420.59 426.22 421.88 421.16 C 428.19 416.11 434.86 411.53 441.14 406.43 C 436.56 400.52 430.55 395.95 425.68 390.30 C 422.99 387.50 423.83 383.32 422.93 379.84 C 422.78 379.12 422.46 377.67 422.30 376.95 M 433.28 429.16 C 433.46 431.71 432.43 435.20 435.35 436.57 C 437.91 438.95 440.66 436.29 442.81 434.78 C 442.67 432.48 442.96 429.74 440.67 428.35 C 438.50 426.14 435.44 427.93 433.28 429.16 Z" />
<path fill="#5c7145" opacity="1.00" d=" M 125.46 418.48 C 128.54 415.53 133.09 415.89 137.03 415.71 C 140.13 415.84 143.71 415.58 146.20 417.82 C 152.45 422.90 157.96 428.89 164.59 433.50 C 167.70 435.34 170.11 438.14 171.53 441.46 C 175.13 448.56 173.24 456.74 173.70 464.36 C 167.00 466.27 160.55 469.32 153.49 469.70 C 156.01 468.15 158.63 466.77 161.05 465.07 C 158.13 460.39 154.40 456.28 151.26 451.75 C 147.35 446.76 143.32 441.00 136.95 439.09 C 131.79 437.61 126.99 441.05 123.57 444.55 C 118.69 449.74 114.71 456.06 113.18 463.07 C 112.49 465.64 113.95 468.01 114.93 470.27 C 106.93 470.36 98.40 470.98 91.03 467.25 C 87.29 465.77 88.75 461.28 89.54 458.37 C 91.55 452.38 96.53 448.20 100.92 443.94 C 109.38 435.72 116.58 426.26 125.46 418.48 M 136.56 429.55 C 137.28 432.96 140.59 434.14 143.74 433.75 C 145.56 431.94 147.68 429.54 146.22 426.82 C 144.16 422.07 135.80 424.33 136.56 429.55 M 113.55 438.55 C 114.33 441.87 118.13 441.65 120.79 441.84 C 121.80 440.29 123.13 438.86 123.62 437.05 C 123.25 435.45 122.35 433.97 121.09 432.92 C 117.54 430.58 111.98 434.32 113.55 438.55 M 154.37 441.85 C 154.34 446.63 162.70 446.80 162.66 442.03 C 163.59 439.04 160.65 437.66 158.70 436.18 C 156.65 437.46 153.53 438.83 154.37 441.85 M 100.18 452.38 C 98.69 454.53 97.47 457.46 99.14 459.89 C 101.22 462.57 105.57 462.16 107.75 459.76 C 107.69 457.15 107.94 454.25 105.79 452.34 C 103.92 452.37 102.05 452.38 100.18 452.38 M 163.21 452.18 C 161.31 454.24 160.08 458.29 162.94 460.07 C 165.21 461.45 167.92 460.43 169.77 458.82 C 169.56 457.19 169.89 455.41 169.18 453.90 C 167.94 451.81 165.21 452.53 163.21 452.18 Z" />
<path fill="#5c7145" opacity="1.00" d=" M 405.26 437.20 C 406.35 441.37 405.47 445.71 405.71 449.96 C 405.56 453.33 406.44 457.20 404.10 460.04 C 400.44 465.06 395.35 469.02 389.70 471.53 C 383.78 474.16 375.97 472.04 372.77 466.26 C 368.32 458.54 370.00 449.28 369.43 440.80 C 370.52 441.21 371.61 441.61 372.72 441.99 C 376.42 447.62 380.04 453.31 383.46 459.11 C 389.81 453.72 395.64 447.70 401.20 441.51 C 402.51 441.14 404.41 441.46 405.07 439.95 C 405.12 439.26 405.22 437.88 405.26 437.20 M 390.83 456.75 C 388.98 457.20 387.49 459.36 388.77 461.09 C 389.73 462.91 391.91 462.88 393.67 462.59 C 394.95 461.53 394.51 459.65 394.89 458.20 C 393.61 457.55 392.38 455.67 390.83 456.75 M 374.38 459.45 C 372.34 460.61 373.37 464.54 376.04 463.78 C 378.37 464.39 379.37 461.49 378.23 459.85 C 377.10 459.11 375.63 459.20 374.38 459.45 Z" />
<path fill="#5c7145" opacity="1.00" d=" M 65.42 438.63 C 73.79 435.91 82.31 439.58 89.66 443.41 C 85.88 449.34 82.91 456.01 82.60 463.14 C 82.36 468.00 76.90 469.67 72.92 470.43 C 62.63 471.95 51.86 472.19 41.78 469.28 C 34.76 467.14 27.35 462.79 25.35 455.22 C 31.41 456.05 38.67 459.74 44.07 455.14 C 50.90 449.33 56.34 441.17 65.42 438.63 M 66.37 455.01 C 68.31 459.52 70.42 464.07 73.81 467.70 C 75.91 461.70 77.61 455.55 79.43 449.46 C 74.89 450.83 70.57 452.82 66.37 455.01 M 56.21 451.21 C 52.33 454.52 48.67 458.17 45.52 462.20 C 50.72 462.78 55.86 461.61 61.00 461.03 C 59.66 457.74 59.19 453.84 56.94 451.08 L 56.21 451.21 Z" />
<path fill="#5c7145" opacity="1.00" d=" M 318.29 439.45 C 318.63 444.66 318.89 449.87 319.23 455.09 C 319.31 457.76 319.83 460.76 318.04 463.04 C 313.89 468.94 307.60 473.41 300.52 475.00 L 296.42 475.00 C 289.46 473.75 282.92 470.15 278.16 464.92 C 276.16 462.83 275.69 459.88 275.22 457.14 C 274.39 451.53 273.27 445.68 275.00 440.11 C 277.27 440.79 279.55 441.44 281.86 442.00 C 284.19 442.80 286.35 444.12 287.84 446.12 C 291.44 450.59 294.97 455.13 298.54 459.63 C 303.45 453.18 308.50 446.81 314.07 440.90 C 315.60 440.84 317.16 440.56 318.29 439.45 M 304.36 459.99 C 304.60 463.36 311.35 464.12 310.70 460.00 C 311.06 458.07 309.09 457.14 308.03 455.92 C 306.63 457.04 304.43 457.88 304.36 459.99 M 287.06 458.33 C 287.09 460.66 288.34 461.97 290.70 461.91 C 290.70 460.72 290.70 459.53 290.71 458.34 C 289.49 458.33 288.28 458.33 287.06 458.33 Z" />
<path fill="#5c7145" opacity="1.00" d=" M 326.29 461.13 C 325.52 454.26 326.17 447.35 326.40 440.48 C 328.08 442.99 331.20 443.04 333.85 443.66 C 336.27 448.97 338.67 454.31 341.75 459.28 C 346.90 454.23 351.45 448.61 356.38 443.34 C 357.77 442.95 359.14 442.50 360.51 442.05 C 361.73 448.93 362.59 455.96 362.41 462.95 C 359.69 467.22 354.87 469.55 350.36 471.46 C 344.60 473.98 338.22 471.78 332.99 469.03 C 329.99 467.30 326.58 464.91 326.29 461.13 M 333.32 458.41 C 331.68 459.41 333.04 461.52 333.21 462.93 C 334.52 462.70 335.86 462.56 337.15 462.20 C 337.50 461.12 337.81 460.03 338.09 458.93 C 336.52 458.65 334.92 458.03 333.32 458.41 M 349.10 458.34 C 349.32 459.65 349.22 461.07 349.82 462.30 C 350.85 462.90 352.21 462.91 353.25 462.31 C 353.74 461.03 353.66 459.63 353.84 458.31 C 352.25 458.31 350.67 458.32 349.10 458.34 Z" />
<path fill="#5c7145" opacity="1.00" d=" M 191.93 441.14 L 192.23 441.04 L 192.39 441.13 C 192.77 441.35 193.54 441.80 193.93 442.02 C 199.10 447.56 202.25 454.57 206.50 460.78 C 210.48 455.37 214.77 450.19 219.08 445.04 C 220.78 442.84 223.68 442.53 226.21 441.99 C 227.78 441.76 229.36 441.51 230.93 441.26 C 232.36 447.35 234.13 454.19 231.26 460.12 C 227.93 465.58 222.77 469.90 216.96 472.52 C 211.80 474.90 205.86 473.59 200.95 471.23 C 194.90 468.35 189.31 463.95 186.15 457.93 C 183.34 452.56 179.71 447.70 176.43 442.62 C 181.63 443.95 187.04 443.20 191.93 441.14 M 194.35 454.42 C 191.44 455.52 192.24 459.29 195.08 459.63 C 199.10 460.43 198.45 452.61 194.35 454.42 M 220.19 454.16 C 219.89 455.65 218.69 457.59 220.34 458.74 C 221.55 460.32 223.39 459.05 224.86 458.68 C 224.63 457.40 224.54 456.10 224.25 454.84 C 222.93 454.42 221.55 454.34 220.19 454.16 Z" />
<path fill="#5c7145" opacity="1.00" d=" M 236.72 461.08 C 236.81 454.40 237.44 447.74 237.78 441.07 C 238.84 441.42 239.89 441.77 240.96 442.13 C 245.61 447.72 248.70 454.40 252.94 460.30 C 258.21 454.54 262.20 447.78 267.24 441.82 C 267.47 441.55 267.92 441.00 268.15 440.72 C 269.07 445.42 269.20 450.22 269.29 455.00 C 269.29 457.03 269.45 459.27 268.10 460.98 C 264.36 466.26 259.79 470.95 254.74 475.00 L 253.58 475.00 C 248.69 473.03 244.06 470.36 240.02 466.97 C 238.28 465.49 236.42 463.57 236.72 461.08 M 258.63 460.41 C 259.80 460.72 260.97 460.20 262.13 460.04 C 261.50 458.78 261.82 456.48 259.98 456.31 C 257.89 456.47 258.19 458.98 258.63 460.41 M 245.05 458.33 C 245.07 460.62 246.37 461.90 248.65 461.98 C 248.66 460.73 248.69 459.49 248.71 458.25 C 247.49 458.28 246.27 458.30 245.05 458.33 Z" />
</g>
<g id="#53482fff">
<path fill="#53482f" opacity="1.00" d=" M 193.62 4.47 C 206.64 0.41 220.91 -0.12 233.92 4.25 C 239.63 6.20 245.77 8.53 249.50 13.53 C 251.81 16.47 250.32 20.24 248.34 22.88 C 244.90 25.27 241.16 27.20 237.39 29.01 C 232.48 30.31 226.90 31.25 222.19 28.82 C 218.53 26.82 219.71 21.76 217.11 18.92 C 211.08 11.67 202.16 7.88 193.62 4.47 Z" />
<path fill="#53482f" opacity="1.00" d=" M 367.91 3.73 C 374.46 5.51 380.92 7.66 387.10 10.48 C 383.76 14.40 380.43 18.34 376.81 22.01 C 372.85 21.64 368.88 21.22 364.90 21.09 C 367.59 18.08 370.80 15.39 372.65 11.74 C 371.82 8.72 369.54 6.34 367.91 3.73 Z" />
<path fill="#53482f" opacity="1.00" d=" M 321.24 15.85 C 321.34 13.30 321.42 10.71 322.32 8.29 C 326.08 9.64 329.97 10.60 333.84 11.56 C 329.68 13.09 325.46 14.48 321.24 15.85 Z" />
<path fill="#53482f" opacity="1.00" d=" M 296.23 11.23 C 300.95 11.51 305.51 12.80 310.03 14.11 C 305.94 16.50 301.58 18.38 297.41 20.60 C 297.31 17.45 296.93 14.31 296.23 11.23 Z" />
<path fill="#53482f" opacity="1.00" d=" M 387.39 18.42 C 389.98 15.52 392.49 12.33 396.02 10.53 C 403.66 12.09 410.43 16.71 416.19 21.83 C 422.25 27.27 426.42 34.86 426.85 43.08 C 418.77 36.20 409.59 29.73 398.82 28.26 C 392.37 27.31 386.11 29.59 379.73 30.04 C 381.34 25.62 384.44 22.01 387.39 18.42 Z" />
<path fill="#53482f" opacity="1.00" d=" M 271.22 14.19 C 276.13 14.92 281.05 15.59 285.93 16.53 C 282.20 19.32 278.39 22.02 274.39 24.40 C 273.49 24.95 272.92 24.69 272.69 23.64 C 271.72 20.59 271.53 17.36 271.22 14.19 Z" />
<path fill="#53482f" opacity="1.00" d=" M 118.96 24.45 C 126.16 19.94 134.65 18.17 142.97 17.07 C 152.08 16.16 161.59 15.54 170.40 18.56 C 179.07 21.49 186.75 28.20 189.69 37.00 C 190.62 38.87 189.19 40.53 188.16 41.97 C 181.94 49.89 172.03 54.97 161.91 54.82 C 156.63 54.69 152.23 50.07 151.62 44.94 C 151.12 41.27 148.21 38.74 145.54 36.50 C 137.86 30.32 128.53 26.51 118.96 24.45 Z" />
<path fill="#53482f" opacity="1.00" d=" M 341.05 36.92 C 344.13 34.73 346.48 31.65 349.81 29.77 C 348.51 34.72 346.15 39.66 342.02 42.85 C 338.15 45.74 333.29 43.34 328.97 43.28 C 323.49 42.43 317.94 47.46 318.36 53.01 C 318.70 58.00 322.98 62.43 327.94 63.01 C 332.73 63.35 337.63 60.82 342.31 62.62 C 346.06 64.50 347.92 68.50 349.78 72.03 C 346.32 69.80 342.42 66.44 338.03 68.14 C 333.14 69.89 327.79 70.44 322.68 69.43 C 316.90 67.98 312.50 63.47 309.44 58.57 C 307.70 55.72 306.07 52.36 306.89 48.93 C 307.93 43.37 311.11 37.47 316.81 35.64 C 321.45 34.53 326.44 35.12 330.72 37.22 C 333.93 38.89 338.00 39.05 341.05 36.92 Z" />
<path fill="#53482f" opacity="1.00" d=" M 271.88 41.31 C 275.00 40.52 277.85 38.98 280.86 37.88 C 279.62 41.79 278.03 46.22 273.99 48.01 C 270.20 49.36 265.91 48.55 262.22 50.30 C 258.56 51.83 255.75 55.90 256.67 59.94 C 259.46 70.37 274.64 75.27 282.51 67.47 C 284.86 65.08 288.15 63.34 291.56 64.62 C 296.11 66.68 299.61 70.59 302.18 74.81 C 298.44 72.85 294.76 69.47 290.24 70.26 C 286.10 72.40 283.02 76.49 278.23 77.39 C 271.81 78.44 264.83 78.22 259.01 75.00 C 252.12 71.41 245.77 65.09 244.94 57.03 C 244.10 49.93 249.35 43.01 256.22 41.41 C 261.37 39.76 266.67 41.98 271.88 41.31 Z" />
<path fill="#53482f" opacity="1.00" d=" M 43.36 66.18 C 53.96 51.77 71.20 42.95 88.88 41.27 C 98.34 40.35 108.74 40.57 116.86 46.18 C 123.33 50.53 126.57 58.34 126.98 65.93 C 127.69 72.07 124.89 78.25 120.37 82.33 C 114.89 87.30 106.66 88.76 99.69 86.50 C 94.43 84.72 90.98 79.54 90.24 74.19 C 89.61 71.60 90.26 68.11 87.54 66.57 C 82.95 63.65 77.28 63.34 71.99 63.08 C 62.39 63.05 52.55 63.05 43.36 66.18 Z" />
<path fill="#53482f" opacity="1.00" d=" M 328.33 48.51 C 331.69 47.05 337.14 48.65 336.79 53.01 C 337.10 57.07 331.68 59.90 328.52 57.37 C 326.02 55.23 325.60 50.65 328.33 48.51 Z" />
<path fill="#53482f" opacity="1.00" d=" M 270.56 63.47 C 269.39 60.46 268.13 55.57 271.98 53.95 C 276.75 52.53 280.69 58.13 279.51 62.48 C 277.04 64.68 273.50 64.14 270.56 63.47 Z" />
<path fill="#53482f" opacity="1.00" d=" M 410.73 90.57 C 416.09 92.63 420.97 95.70 425.57 99.10 C 423.62 100.31 421.64 101.47 419.76 102.79 C 417.55 101.94 415.34 101.11 413.05 100.51 C 413.62 99.36 414.26 98.23 414.72 97.01 C 413.65 94.71 412.07 92.71 410.73 90.57 Z" />
<path fill="#53482f" opacity="1.00" d=" M 423.75 92.07 C 426.64 90.97 429.96 90.60 432.77 92.18 C 444.17 97.93 454.09 108.97 454.75 122.22 C 446.91 113.92 436.47 107.48 424.76 107.29 C 426.16 104.06 428.85 101.73 431.76 99.88 C 430.22 96.28 427.07 93.91 423.75 92.07 Z" />
<path fill="#53482f" opacity="1.00" d=" M 283.97 94.94 C 288.11 92.21 293.30 91.96 298.09 92.46 C 301.48 92.82 304.64 94.44 308.07 94.53 C 310.87 94.36 313.58 93.56 316.34 93.09 C 312.05 97.43 305.55 97.12 300.03 95.98 C 295.12 94.73 288.01 97.28 287.91 103.12 C 288.60 106.62 292.12 108.45 295.04 109.89 C 298.84 111.82 303.17 111.74 307.24 112.64 C 310.07 113.34 311.86 115.77 313.17 118.19 C 310.76 117.02 308.48 115.57 305.94 114.68 C 300.02 113.72 294.00 116.61 288.14 114.95 C 283.58 113.03 279.75 108.90 278.76 103.98 C 278.16 100.17 280.91 96.82 283.97 94.94 Z" />
<path fill="#53482f" opacity="1.00" d=" M 339.43 98.48 C 346.30 97.22 352.33 102.09 359.02 102.66 C 361.30 102.71 363.20 101.17 365.20 100.27 C 364.00 104.19 360.35 107.81 356.00 107.23 C 351.42 106.32 346.66 103.82 342.00 105.85 C 337.35 107.57 336.86 114.49 340.40 117.54 C 343.42 120.57 347.85 121.04 351.87 121.46 C 356.70 121.80 360.85 125.55 362.09 130.16 C 359.67 128.13 357.39 125.50 354.06 125.13 C 348.56 123.89 342.55 126.04 337.35 123.45 C 333.49 120.99 330.96 116.63 330.26 112.15 C 329.01 106.01 334.32 100.82 339.43 98.48 Z" />
<path fill="#53482f" opacity="1.00" d=" M 50.30 116.94 C 51.79 110.17 55.66 104.26 58.74 98.14 C 60.29 107.53 59.62 117.45 63.51 126.35 C 64.20 128.77 67.08 128.25 69.01 128.43 C 77.54 128.40 86.24 128.63 94.52 126.28 C 92.81 129.46 90.77 132.62 87.58 134.51 C 79.10 139.86 68.76 140.84 58.98 141.35 C 55.11 141.67 52.83 137.75 52.30 134.43 C 51.33 128.65 50.07 122.82 50.30 116.94 Z" />
<path fill="#53482f" opacity="1.00" d=" M 306.44 100.50 C 311.57 98.94 311.24 109.41 306.25 108.55 C 301.78 108.37 302.45 100.98 306.44 100.50 Z" />
<path fill="#53482f" opacity="1.00" d=" M 348.20 110.26 C 353.13 107.64 355.70 119.26 349.96 118.86 C 345.69 119.01 345.20 112.24 348.20 110.26 Z" />
<path fill="#53482f" opacity="1.00" d=" M 42.90 120.73 C 43.82 130.88 44.84 141.15 48.27 150.82 C 48.91 152.39 49.50 154.16 50.96 155.18 C 59.55 154.66 67.97 152.11 75.70 148.37 C 69.64 162.77 64.15 177.40 59.51 192.31 C 57.21 200.08 55.05 207.93 54.04 215.98 C 53.09 223.33 54.15 230.71 54.75 238.04 C 38.43 221.57 26.21 199.63 25.68 176.03 C 25.75 156.39 33.22 137.53 42.90 120.73 Z" />
<path fill="#53482f" opacity="1.00" d=" M 220.08 120.04 C 228.78 123.37 234.96 130.62 242.57 135.69 C 243.47 133.14 243.92 130.46 244.19 127.77 C 251.48 133.76 256.69 142.54 257.68 151.98 C 258.26 155.89 253.94 157.37 251.85 159.88 C 248.00 163.86 248.81 169.80 247.79 174.80 C 246.53 176.87 244.43 178.23 242.66 179.82 C 246.69 181.52 252.38 182.86 252.54 188.26 C 251.93 190.90 249.27 192.74 247.66 194.89 C 250.60 195.72 253.69 196.24 256.42 197.69 C 258.43 199.69 259.54 202.37 260.88 204.82 C 259.53 206.85 258.34 208.98 257.21 211.14 C 256.20 212.62 255.20 214.70 253.09 214.61 C 242.90 215.08 232.97 218.06 223.94 222.74 C 221.83 222.20 219.72 221.64 217.57 221.36 C 206.29 219.49 194.91 222.16 184.06 225.08 C 183.68 224.87 182.93 224.44 182.56 224.22 C 191.80 213.60 202.40 204.20 214.05 196.30 C 206.37 192.27 198.25 189.13 190.68 184.87 C 182.42 180.22 174.07 175.26 167.64 168.16 C 184.60 171.34 202.02 172.11 219.20 170.62 C 212.52 159.38 205.31 148.46 198.90 137.06 C 197.27 134.22 196.00 131.18 195.14 128.02 C 197.55 129.15 199.90 130.44 202.00 132.10 C 212.00 139.90 221.82 148.13 233.12 154.04 C 231.66 148.67 229.98 143.35 227.69 138.28 C 225.10 132.22 220.97 126.73 220.08 120.04 M 241.71 148.54 C 241.92 151.92 242.59 155.26 243.72 158.45 C 246.17 156.86 248.44 155.02 250.52 152.98 C 247.76 151.17 244.80 149.68 241.71 148.54 M 232.24 162.74 C 233.17 166.50 234.27 170.21 235.38 173.93 C 237.86 172.13 240.20 170.14 242.38 167.99 C 239.15 165.97 235.82 164.09 232.24 162.74 M 236.41 184.86 C 235.67 187.73 235.04 190.64 234.50 193.56 C 236.72 193.34 238.95 193.09 241.17 192.83 C 240.12 189.88 238.52 187.18 236.41 184.86 M 219.19 185.86 C 219.80 188.85 220.59 191.80 221.63 194.68 C 224.38 192.70 226.96 190.50 229.29 188.04 C 226.04 186.84 222.66 186.03 219.19 185.86 M 230.87 199.71 C 231.11 202.78 231.51 205.84 232.15 208.86 C 234.66 207.08 237.28 205.47 239.65 203.52 C 237.53 201.03 233.79 200.81 230.87 199.71 M 212.63 209.93 C 215.86 210.63 219.15 210.97 222.45 211.17 C 221.74 208.06 220.61 205.06 219.14 202.23 C 216.64 204.50 214.34 207.01 212.63 209.93 Z" />
<path fill="#53482f" opacity="1.00" d=" M 309.72 139.82 C 312.50 135.78 318.66 132.40 323.16 135.80 C 328.08 138.88 332.75 143.52 339.10 142.38 C 337.56 143.32 336.11 145.02 334.12 144.63 C 329.32 143.21 325.83 139.11 321.01 137.73 C 316.62 137.28 313.08 142.88 315.44 146.69 C 318.22 152.40 325.70 152.76 329.28 157.67 C 330.39 159.01 330.16 160.83 330.28 162.44 C 328.57 160.55 327.06 158.47 325.24 156.68 C 322.15 153.40 316.78 154.60 313.73 151.23 C 310.80 148.42 307.85 143.96 309.72 139.82 Z" />
<path fill="#53482f" opacity="1.00" d=" M 400.29 142.40 C 405.28 145.38 408.82 150.13 411.58 155.15 C 407.91 154.71 404.25 154.19 400.56 153.97 L 401.86 152.67 C 402.78 151.72 403.66 150.74 404.57 149.77 C 403.16 147.30 401.73 144.85 400.29 142.40 Z" />
<path fill="#53482f" opacity="1.00" d=" M 324.24 145.19 C 326.77 143.69 331.36 147.31 329.23 150.12 C 328.29 151.72 325.50 152.44 324.42 150.65 C 323.30 149.22 322.12 146.22 324.24 145.19 Z" />
<path fill="#53482f" opacity="1.00" d=" M 411.48 144.76 C 416.53 147.46 422.11 149.66 426.22 153.75 C 431.09 160.32 435.09 167.90 436.12 176.12 C 429.42 169.68 422.00 163.41 412.83 160.96 C 414.19 159.74 417.31 158.49 415.73 156.21 C 413.76 152.62 411.56 149.01 411.48 144.76 Z" />
<path fill="#53482f" opacity="1.00" d=" M 315.07 188.04 C 317.47 186.84 320.29 187.28 322.88 187.08 C 322.54 189.22 323.02 191.73 321.59 193.54 C 319.05 194.93 316.10 194.63 313.34 194.56 C 313.63 192.39 312.75 189.33 315.07 188.04 Z" />
<path fill="#53482f" opacity="1.00" d=" M 329.39 190.31 C 331.37 188.36 334.07 187.48 336.73 186.97 C 337.72 190.10 339.39 193.32 338.64 196.69 C 337.28 198.39 335.06 198.96 333.18 199.89 C 330.85 197.31 328.54 193.96 329.39 190.31 Z" />
<path fill="#53482f" opacity="1.00" d=" M 368.31 187.36 C 370.59 186.69 373.24 188.34 374.84 189.99 C 375.24 194.15 372.40 197.83 369.60 200.60 C 367.02 200.58 363.54 200.18 362.09 197.88 C 363.17 193.94 365.46 190.27 368.31 187.36 Z" />
<path fill="#53482f" opacity="1.00" d=" M 387.00 190.01 C 388.79 188.95 390.85 188.53 392.84 187.99 C 392.85 191.05 393.58 194.36 392.29 197.25 C 390.39 198.30 388.18 198.47 386.09 198.88 C 385.64 196.03 383.46 191.60 387.00 190.01 Z" />
<path fill="#53482f" opacity="1.00" d=" M 192.39 197.46 C 194.27 195.91 196.20 194.40 198.16 192.94 C 199.39 195.14 200.57 197.38 201.68 199.65 C 199.81 201.54 197.83 203.33 195.76 205.01 C 194.69 202.47 193.57 199.95 192.39 197.46 Z" />
<path fill="#53482f" opacity="1.00" d=" M 405.29 200.77 C 411.66 200.46 418.05 200.54 424.43 200.63 C 424.34 206.60 423.79 212.55 423.58 218.52 C 419.97 214.45 416.88 209.93 413.16 205.96 C 410.74 203.93 407.74 202.75 405.29 200.77 Z" />
<path fill="#53482f" opacity="1.00" d=" M 179.16 208.95 C 180.43 206.34 183.38 205.03 185.58 203.28 C 186.93 205.05 188.30 206.81 189.69 208.56 C 187.96 210.61 186.08 212.52 184.05 214.27 C 182.32 212.60 180.39 211.06 179.16 208.95 Z" />
<path fill="#53482f" opacity="1.00" d=" M 304.93 215.07 C 311.18 213.46 317.60 212.74 323.91 211.37 C 321.65 215.84 319.89 220.62 317.06 224.77 C 312.86 221.75 308.99 218.28 304.93 215.07 Z" />
<path fill="#53482f" opacity="1.00" d=" M 119.91 237.09 C 123.82 229.48 128.15 222.04 132.96 214.98 C 140.74 219.15 140.11 229.37 139.95 236.97 C 140.57 244.17 132.23 248.37 132.89 255.60 C 135.34 255.60 137.80 255.58 140.25 255.57 C 135.07 258.86 129.83 262.18 125.54 266.63 C 120.92 271.34 116.09 275.85 111.82 280.89 C 108.86 284.32 106.84 288.45 103.67 291.70 C 102.10 293.45 100.20 295.03 99.29 297.25 C 98.16 300.20 98.06 303.40 97.75 306.52 C 101.08 305.82 104.35 304.87 107.44 303.45 C 117.57 299.04 127.74 294.64 138.35 291.50 C 139.19 289.39 139.60 286.97 141.10 285.20 C 145.39 282.48 150.37 281.12 154.96 278.98 C 154.21 281.47 154.54 283.98 156.29 285.96 C 151.50 288.46 146.78 291.13 142.60 294.59 C 136.93 298.81 129.54 299.70 123.72 303.72 C 118.73 306.62 114.96 311.17 109.96 314.04 C 104.18 317.34 96.73 316.09 91.40 320.36 C 88.43 322.73 84.83 324.25 80.98 324.11 C 70.51 324.18 60.03 324.39 49.57 323.91 C 51.68 320.64 54.31 317.76 56.65 314.67 C 58.53 312.22 58.24 308.96 58.60 306.06 C 60.61 307.66 62.56 309.45 64.99 310.40 C 67.65 310.15 69.69 308.18 71.90 306.89 C 74.88 304.78 78.44 303.63 81.36 301.44 C 84.16 298.56 83.34 293.89 85.69 290.76 C 89.27 287.45 94.62 287.45 98.51 284.62 C 105.47 279.49 110.81 272.50 115.19 265.12 C 117.21 261.60 120.28 258.31 120.35 254.04 C 120.62 248.39 120.45 242.72 119.91 237.09 M 74.76 311.80 C 74.41 313.08 74.25 314.40 74.01 315.71 C 79.33 315.66 84.65 315.70 89.97 315.63 C 89.23 313.44 88.69 310.90 86.62 309.56 C 82.60 308.78 78.15 309.40 74.76 311.80 Z" />
<path fill="#53482f" opacity="1.00" d=" M 280.20 227.46 C 284.43 224.26 288.39 220.70 292.53 217.38 C 293.09 221.86 293.93 226.31 294.75 230.75 C 289.90 229.65 285.07 228.44 280.20 227.46 Z" />
<path fill="#53482f" opacity="1.00" d=" M 323.29 227.52 C 330.94 225.00 338.12 221.22 345.89 219.06 C 343.37 227.05 340.51 234.94 338.37 243.04 C 332.52 238.74 328.14 232.84 323.29 227.52 Z" />
<path fill="#53482f" opacity="1.00" d=" M 429.31 229.83 C 433.87 235.82 438.82 241.51 443.18 247.66 C 438.47 252.20 434.05 257.05 429.14 261.39 C 429.21 250.87 428.82 240.33 429.31 229.83 Z" />
<path fill="#53482f" opacity="1.00" d=" M 348.06 232.49 C 355.35 233.80 362.74 234.46 370.00 235.95 C 365.77 242.69 360.51 248.71 355.65 254.99 C 352.76 247.62 350.23 240.10 348.06 232.49 Z" />
<path fill="#53482f" opacity="1.00" d=" M 269.47 236.20 C 272.35 238.25 275.20 240.33 278.00 242.48 C 274.68 244.77 270.99 246.40 267.28 247.92 C 268.06 244.02 268.76 240.11 269.47 236.20 Z" />
<path fill="#53482f" opacity="1.00" d=" M 173.34 237.81 C 176.44 239.04 179.16 241.08 181.47 243.47 C 181.54 246.77 179.57 249.83 178.48 252.90 C 176.73 251.20 174.79 249.63 173.42 247.58 C 172.32 244.43 173.08 241.04 173.34 237.81 Z" />
<path fill="#53482f" opacity="1.00" d=" M 141.73 254.92 C 148.83 250.20 156.68 244.92 165.67 246.26 C 164.57 256.69 160.13 266.39 155.44 275.64 L 155.47 274.96 C 155.69 267.65 156.93 260.37 156.17 253.04 C 151.36 253.69 146.53 254.19 141.73 254.92 Z" />
<path fill="#53482f" opacity="1.00" d=" M 341.11 255.07 C 348.94 256.89 356.74 259.01 364.32 261.72 C 359.51 268.17 354.77 274.69 349.58 280.85 C 346.96 272.19 343.68 263.75 341.11 255.07 Z" />
<path fill="#53482f" opacity="1.00" d=" M 259.23 257.31 C 262.82 257.20 266.44 257.38 269.91 258.38 C 268.01 262.65 265.85 266.80 263.67 270.94 C 261.68 266.57 260.67 261.87 259.23 257.31 Z" />
<path fill="#53482f" opacity="1.00" d=" M 189.93 267.19 C 199.03 266.68 207.23 262.14 216.02 260.22 C 217.42 261.33 217.51 263.28 217.74 264.91 C 218.24 271.32 217.51 277.75 216.58 284.08 C 215.66 289.40 214.84 295.05 211.43 299.44 C 206.77 305.90 201.13 312.63 193.08 314.70 C 200.62 306.77 200.83 295.18 200.43 284.91 C 200.53 280.88 196.57 278.47 193.02 277.96 C 182.25 276.14 171.93 280.66 161.72 283.32 C 165.30 277.41 168.70 271.37 171.32 264.95 C 177.49 265.88 183.65 267.20 189.93 267.19 Z" />
<path fill="#53482f" opacity="1.00" d=" M 422.30 276.70 C 422.88 276.50 423.47 276.32 424.07 276.17 C 424.37 276.49 424.97 277.14 425.26 277.47 C 425.13 279.45 423.96 281.72 425.40 283.47 C 428.46 287.97 432.12 292.05 435.04 296.66 C 431.68 300.22 428.43 303.90 424.96 307.36 C 424.65 305.82 424.34 304.28 424.10 302.73 C 424.12 295.79 424.23 288.85 424.46 281.92 C 424.17 280.38 425.19 277.99 423.65 277.04 C 423.31 276.95 422.64 276.79 422.30 276.70 Z" />
<path fill="#53482f" opacity="1.00" d=" M 372.07 298.09 C 378.55 291.52 387.99 287.26 397.32 289.28 C 390.86 298.34 386.17 308.61 383.61 319.44 C 382.63 323.92 381.22 328.48 381.94 333.12 C 380.34 324.44 372.66 317.76 364.09 316.38 C 362.29 309.14 367.34 302.91 372.07 298.09 Z" />
<path fill="#53482f" opacity="1.00" d=" M 16.26 316.08 C 18.80 315.34 21.44 315.04 24.09 315.07 C 23.02 319.86 20.37 324.04 17.49 327.94 C 15.57 324.26 15.85 320.07 16.26 316.08 Z" />
<path fill="#53482f" opacity="1.00" d=" M 424.27 336.48 C 428.33 340.24 431.87 344.53 435.24 348.91 C 436.12 349.79 435.43 350.98 434.57 351.55 C 431.38 354.46 427.82 356.93 424.33 359.44 C 424.04 351.79 424.19 344.13 424.27 336.48 Z" />
<path fill="#53482f" opacity="1.00" d=" M 222.04 379.95 C 226.78 362.15 243.06 346.86 262.03 346.66 C 278.19 346.78 293.99 351.31 308.96 357.11 C 307.90 364.87 306.54 372.61 306.54 380.47 C 296.47 380.90 286.39 381.87 276.47 383.70 C 269.12 385.12 261.54 386.85 255.35 391.30 C 244.19 398.86 233.28 408.22 228.29 421.12 C 221.56 408.72 218.12 393.81 222.04 379.95 Z" />
<path fill="#53482f" opacity="1.00" d=" M 273.22 397.19 C 280.87 389.95 291.12 384.11 302.00 385.34 C 313.98 386.59 325.16 391.76 335.46 397.74 C 332.19 402.71 332.18 409.62 327.05 413.31 C 317.42 407.69 306.01 405.80 294.98 406.25 C 282.09 407.07 270.98 414.87 262.04 423.64 C 260.26 413.46 266.12 403.93 273.22 397.19 Z" />
<path fill="#53482f" opacity="1.00" d=" M 143.47 408.61 C 147.45 401.58 151.86 394.81 155.96 387.86 C 155.25 397.07 153.77 406.21 152.72 415.40 C 149.64 413.13 146.60 410.81 143.47 408.61 Z" />
<path fill="#53482f" opacity="1.00" d=" M 124.76 399.14 C 127.10 397.60 129.43 396.04 131.76 394.50 C 133.27 399.13 134.80 403.76 136.40 408.36 C 132.56 409.70 128.66 410.85 124.73 411.89 C 124.75 407.64 124.74 403.39 124.76 399.14 Z" />
<path fill="#53482f" opacity="1.00" d=" M 423.05 394.61 C 427.53 398.42 431.28 402.96 434.94 407.54 C 430.96 410.70 427.26 414.27 422.82 416.81 L 422.58 414.91 C 423.18 408.16 423.05 401.38 423.05 394.61 Z" />
<path fill="#53482f" opacity="1.00" d=" M 162.07 417.82 C 169.41 414.34 176.77 410.92 184.07 407.36 C 179.27 414.13 174.25 420.75 169.38 427.47 C 168.89 428.15 167.56 429.85 167.15 428.02 C 165.38 424.66 163.82 421.19 162.07 417.82 Z" />
<path fill="#53482f" opacity="1.00" d=" M 105.90 412.10 C 108.29 411.30 110.69 410.50 113.07 409.67 C 114.65 411.98 116.20 414.31 117.73 416.66 C 115.08 419.01 112.40 421.34 109.51 423.39 C 108.24 419.64 106.96 415.90 105.90 412.10 Z" />
<path fill="#53482f" opacity="1.00" d=" M 81.86 412.13 C 89.15 417.12 96.43 422.13 103.73 427.10 C 101.05 431.02 98.41 434.98 95.49 438.73 C 91.09 429.78 86.14 421.12 81.86 412.13 Z" />
<path fill="#53482f" opacity="1.00" d=" M 35.06 415.39 C 40.47 415.33 45.58 413.04 51.00 413.09 C 59.62 413.09 68.25 413.08 76.87 413.13 C 72.02 417.17 67.15 421.18 62.44 425.38 C 59.57 427.85 56.68 430.61 52.90 431.56 C 43.72 434.02 34.08 436.46 24.56 434.62 C 14.90 432.55 4.93 427.94 0.01 418.89 L 0.00 419.96 L 0.00 418.13 C 2.98 418.43 5.96 419.07 8.97 418.80 C 12.84 417.89 16.09 415.25 20.04 414.58 C 25.06 413.81 30.04 415.39 35.06 415.39 Z" />
<path fill="#53482f" opacity="1.00" d=" M 199.53 442.24 C 204.29 442.20 209.06 442.00 213.83 442.09 C 215.05 442.32 216.27 442.58 217.48 442.87 C 213.88 447.16 210.25 451.45 206.23 455.36 C 203.79 451.09 201.47 446.75 199.53 442.24 Z" />
<path fill="#53482f" opacity="1.00" d=" M 246.27 442.23 C 251.97 442.03 257.67 442.23 263.38 442.20 C 260.69 446.47 257.46 450.37 254.10 454.13 C 251.20 450.36 248.48 446.44 246.27 442.23 Z" />
<path fill="#53482f" opacity="1.00" d=" M 294.20 442.12 C 298.39 442.16 302.59 442.12 306.75 441.60 L 308.47 441.58 C 305.52 446.41 301.91 450.77 298.60 455.34 C 295.32 451.36 292.25 447.20 289.52 442.82 C 291.07 442.56 292.63 442.30 294.20 442.12 Z" />
<path fill="#53482f" opacity="1.00" d=" M 376.69 442.23 C 382.75 442.04 388.80 442.26 394.86 442.13 C 391.67 446.71 387.53 450.50 383.34 454.14 C 380.99 450.24 378.71 446.31 376.69 442.23 Z" />
<path fill="#53482f" opacity="1.00" d=" M 335.97 443.41 C 341.66 443.24 347.37 443.18 353.06 443.46 L 352.33 444.38 C 349.40 448.29 346.20 452.01 342.47 455.18 C 340.33 451.75 338.42 448.18 336.56 444.60 L 335.97 443.41 Z" />
</g>
<g id="#879663ff">
<path fill="#879663" opacity="1.00" d=" M 276.16 32.33 C 305.35 26.08 335.09 22.43 364.90 21.09 C 368.88 21.22 372.85 21.64 376.81 22.01 C 371.86 31.40 369.82 42.56 371.32 53.07 C 374.90 68.00 387.11 78.95 399.66 86.80 C 392.57 86.23 385.67 84.46 378.66 83.41 C 351.01 79.11 322.94 78.36 295.00 79.04 C 288.01 79.31 281.00 79.23 274.01 78.85 C 249.66 78.51 225.35 77.06 201.00 76.79 C 195.25 76.49 188.92 76.30 184.07 72.82 C 184.17 72.48 184.38 71.78 184.48 71.44 C 188.02 67.26 193.00 64.64 197.43 61.52 C 221.40 46.60 248.77 38.32 276.16 32.33 M 359.79 32.54 C 362.39 34.37 365.22 35.83 368.18 36.99 C 368.40 34.40 368.36 31.81 368.07 29.23 C 365.29 30.30 362.53 31.39 359.79 32.54 M 341.05 36.92 C 338.00 39.05 333.93 38.89 330.72 37.22 C 326.44 35.12 321.45 34.53 316.81 35.64 C 311.11 37.47 307.93 43.37 306.89 48.93 C 306.07 52.36 307.70 55.72 309.44 58.57 C 312.50 63.47 316.90 67.98 322.68 69.43 C 327.79 70.44 333.14 69.89 338.03 68.14 C 342.42 66.44 346.32 69.80 349.78 72.03 C 347.92 68.50 346.06 64.50 342.31 62.62 C 337.63 60.82 332.73 63.35 327.94 63.01 C 322.98 62.43 318.70 58.00 318.36 53.01 C 317.94 47.46 323.49 42.43 328.97 43.28 C 333.29 43.34 338.15 45.74 342.02 42.85 C 346.15 39.66 348.51 34.72 349.81 29.77 C 346.48 31.65 344.13 34.73 341.05 36.92 M 271.88 41.31 C 266.67 41.98 261.37 39.76 256.22 41.41 C 249.35 43.01 244.10 49.93 244.94 57.03 C 245.77 65.09 252.12 71.41 259.01 75.00 C 264.83 78.22 271.81 78.44 278.23 77.39 C 283.02 76.49 286.10 72.40 290.24 70.26 C 294.76 69.47 298.44 72.85 302.18 74.81 C 299.61 70.59 296.11 66.68 291.56 64.62 C 288.15 63.34 284.86 65.08 282.51 67.47 C 274.64 75.27 259.46 70.37 256.67 59.94 C 255.75 55.90 258.56 51.83 262.22 50.30 C 265.91 48.55 270.20 49.36 273.99 48.01 C 278.03 46.22 279.62 41.79 280.86 37.88 C 277.85 38.98 275.00 40.52 271.88 41.31 M 328.33 48.51 C 325.60 50.65 326.02 55.23 328.52 57.37 C 331.68 59.90 337.10 57.07 336.79 53.01 C 337.14 48.65 331.69 47.05 328.33 48.51 M 360.76 51.32 C 362.68 52.20 364.65 54.37 366.84 53.77 C 367.68 51.98 367.03 49.90 367.06 48.00 C 364.92 49.04 362.82 50.15 360.76 51.32 M 270.56 63.47 C 273.50 64.14 277.04 64.68 279.51 62.48 C 280.69 58.13 276.75 52.53 271.98 53.95 C 268.13 55.57 269.39 60.46 270.56 63.47 M 367.82 73.55 C 370.92 73.65 374.02 73.67 377.13 73.62 C 375.98 71.65 375.12 69.26 373.02 68.11 C 370.69 69.27 369.25 71.48 367.82 73.55 Z" />
<path fill="#879663" opacity="1.00" d=" M 257.02 89.92 C 309.23 86.35 361.53 92.33 413.05 100.51 C 415.34 101.11 417.55 101.94 419.76 102.79 C 414.00 108.68 407.90 114.24 402.27 120.25 C 398.74 124.21 395.01 128.54 394.17 133.95 C 393.68 136.53 395.53 138.69 396.54 140.89 C 384.71 140.53 373.44 136.55 362.00 133.90 C 352.87 131.28 343.39 130.37 334.08 128.64 C 315.62 124.78 297.25 120.52 278.91 116.11 C 265.43 112.38 252.49 106.67 240.44 99.58 C 238.64 98.25 235.47 97.16 236.15 94.35 C 242.34 90.49 250.02 90.84 257.02 89.92 M 283.97 94.94 C 280.91 96.82 278.16 100.17 278.76 103.98 C 279.75 108.90 283.58 113.03 288.14 114.95 C 294.00 116.61 300.02 113.72 305.94 114.68 C 308.48 115.57 310.76 117.02 313.17 118.19 C 311.86 115.77 310.07 113.34 307.24 112.64 C 303.17 111.74 298.84 111.82 295.04 109.89 C 292.12 108.45 288.60 106.62 287.91 103.12 C 288.01 97.28 295.12 94.73 300.03 95.98 C 305.55 97.12 312.05 97.43 316.34 93.09 C 313.58 93.56 310.87 94.36 308.07 94.53 C 304.64 94.44 301.48 92.82 298.09 92.46 C 293.30 91.96 288.11 92.21 283.97 94.94 M 339.43 98.48 C 334.32 100.82 329.01 106.01 330.26 112.15 C 330.96 116.63 333.49 120.99 337.35 123.45 C 342.55 126.04 348.56 123.89 354.06 125.13 C 357.39 125.50 359.67 128.13 362.09 130.16 C 360.85 125.55 356.70 121.80 351.87 121.46 C 347.85 121.04 343.42 120.57 340.40 117.54 C 336.86 114.49 337.35 107.57 342.00 105.85 C 346.66 103.82 351.42 106.32 356.00 107.23 C 360.35 107.81 364.00 104.19 365.20 100.27 C 363.20 101.17 361.30 102.71 359.02 102.66 C 352.33 102.09 346.30 97.22 339.43 98.48 M 306.44 100.50 C 302.45 100.98 301.78 108.37 306.25 108.55 C 311.24 109.41 311.57 98.94 306.44 100.50 M 399.04 107.75 C 399.27 109.86 399.56 111.97 399.90 114.06 C 401.40 113.04 402.91 112.01 404.41 110.97 C 402.69 109.78 400.90 108.70 399.04 107.75 M 348.20 110.26 C 345.20 112.24 345.69 119.01 349.96 118.86 C 355.70 119.26 353.13 107.64 348.20 110.26 M 388.91 118.03 C 389.25 120.49 390.33 122.72 391.85 124.66 C 393.30 123.20 394.74 121.71 396.15 120.20 C 393.76 119.40 391.35 118.67 388.91 118.03 M 385.36 133.02 C 387.34 134.32 389.50 135.33 391.73 136.12 C 391.73 134.06 391.73 132.00 391.70 129.94 C 389.50 130.77 387.36 131.76 385.36 133.02 Z" />
<path fill="#879663" opacity="1.00" d=" M 278.74 127.36 C 300.89 125.89 322.63 131.66 343.83 137.33 C 349.20 138.72 354.80 139.15 360.08 140.92 C 368.35 143.69 376.54 146.70 384.93 149.10 C 390.47 150.74 396.26 151.27 401.86 152.67 L 400.56 153.97 C 378.37 154.48 356.01 158.85 335.90 168.42 C 334.13 168.96 332.29 169.14 330.48 169.44 C 328.03 167.52 325.49 165.73 322.85 164.10 C 309.76 155.86 297.23 146.64 286.13 135.84 C 283.36 133.29 280.88 130.45 278.74 127.36 M 309.72 139.82 C 307.85 143.96 310.80 148.42 313.73 151.23 C 316.78 154.60 322.15 153.40 325.24 156.68 C 327.06 158.47 328.57 160.55 330.28 162.44 C 330.16 160.83 330.39 159.01 329.28 157.67 C 325.70 152.76 318.22 152.40 315.44 146.69 C 313.08 142.88 316.62 137.28 321.01 137.73 C 325.83 139.11 329.32 143.21 334.12 144.63 C 336.11 145.02 337.56 143.32 339.10 142.38 C 332.75 143.52 328.08 138.88 323.16 135.80 C 318.66 132.40 312.50 135.78 309.72 139.82 M 324.24 145.19 C 322.12 146.22 323.30 149.22 324.42 150.65 C 325.50 152.44 328.29 151.72 329.23 150.12 C 331.36 147.31 326.77 143.69 324.24 145.19 M 366.15 149.79 C 366.53 151.24 366.93 152.68 367.33 154.14 C 369.08 153.38 370.74 152.45 372.30 151.35 C 370.27 150.72 368.22 150.23 366.15 149.79 M 357.91 151.82 C 357.58 153.62 357.24 155.42 356.92 157.22 C 358.80 156.73 360.64 156.06 362.39 155.21 C 360.91 154.05 359.41 152.93 357.91 151.82 M 346.24 154.21 C 346.60 156.09 346.98 157.98 347.36 159.86 C 349.27 159.47 351.17 159.07 353.08 158.65 C 350.92 156.99 348.63 155.51 346.24 154.21 M 338.08 158.81 C 337.73 160.59 337.39 162.37 337.07 164.15 C 338.83 163.24 341.18 162.86 342.11 160.90 C 340.92 159.93 339.46 159.41 338.08 158.81 Z" />
<path fill="#879663" opacity="1.00" d=" M 405.64 195.27 C 413.33 195.10 420.97 196.11 428.64 196.47 C 428.67 204.83 428.62 213.19 428.68 221.56 C 427.01 220.49 425.31 219.47 423.58 218.52 C 423.79 212.55 424.34 206.60 424.43 200.63 C 418.05 200.54 411.66 200.46 405.29 200.77 C 405.10 200.77 404.71 200.79 404.52 200.79 C 404.90 198.95 405.28 197.11 405.64 195.27 Z" />
<path fill="#879663" opacity="1.00" d=" M 440.42 212.50 C 445.27 211.64 446.69 219.97 442.21 221.21 C 439.51 222.67 436.20 219.79 436.28 217.03 C 435.96 214.60 438.50 213.24 440.42 212.50 Z" />
<path fill="#879663" opacity="1.00" d=" M 370.72 226.64 C 377.46 232.69 382.70 240.86 383.24 250.11 C 384.08 263.06 383.34 277.37 375.17 288.10 C 368.76 296.67 358.19 300.03 349.44 305.52 C 346.44 307.49 342.25 309.17 341.51 313.09 C 342.06 314.90 344.04 315.24 345.63 315.63 C 351.74 316.59 357.95 315.95 364.09 316.38 C 372.66 317.76 380.34 324.44 381.94 333.12 C 382.42 335.38 382.40 337.72 382.42 340.03 C 382.37 355.67 382.43 371.32 382.40 386.96 C 382.41 391.69 380.88 396.34 378.32 400.30 C 375.50 404.61 371.58 409.19 366.09 409.63 C 356.87 410.21 348.03 413.16 338.89 414.24 C 337.24 414.35 334.07 414.41 334.47 411.93 C 335.38 405.93 338.96 400.24 344.00 396.82 C 346.92 394.69 350.64 394.78 354.03 394.05 C 355.80 393.78 357.21 391.87 356.59 390.11 C 355.26 385.64 350.58 382.67 346.00 382.85 C 340.01 382.79 334.02 382.81 328.04 382.83 C 325.11 382.60 322.89 385.24 320.02 385.09 C 316.11 383.93 314.12 379.80 313.25 376.12 C 312.28 371.26 311.72 365.78 314.24 361.27 C 316.79 356.89 321.77 354.70 326.53 353.68 C 335.90 351.64 345.60 353.18 355.00 351.45 C 357.02 351.12 359.89 349.79 358.86 347.25 C 352.43 341.78 343.02 342.42 335.74 345.75 C 329.65 348.60 323.05 350.06 316.36 350.41 C 313.91 346.66 310.87 342.75 311.11 338.02 C 310.92 327.32 316.92 317.61 324.68 310.68 C 335.84 300.94 347.52 291.64 360.59 284.56 C 366.70 281.41 371.62 276.03 373.33 269.28 C 375.70 261.10 375.22 252.43 374.93 244.01 C 374.84 237.95 372.24 232.40 370.72 226.64 Z" />
<path fill="#879663" opacity="1.00" d=" M 428.77 227.52 C 431.96 228.44 435.02 229.77 437.89 231.46 C 440.71 237.31 445.18 242.11 448.65 247.57 C 441.94 253.47 436.87 260.96 429.96 266.64 C 429.70 264.88 429.42 263.13 429.14 261.39 C 434.05 257.05 438.47 252.20 443.18 247.66 C 438.82 241.51 433.87 235.82 429.31 229.83 C 429.18 229.25 428.91 228.10 428.77 227.52 Z" />
<path fill="#879663" opacity="1.00" d=" M 444.53 264.41 C 445.53 262.78 447.45 262.08 448.98 261.05 C 451.56 262.03 453.01 264.20 453.78 266.75 C 452.42 268.62 450.72 270.97 448.07 270.59 C 445.54 269.90 443.57 267.05 444.53 264.41 Z" />
<path fill="#879663" opacity="1.00" d=" M 425.40 283.47 C 423.96 281.72 425.13 279.45 425.26 277.47 C 426.68 278.90 428.22 280.22 429.81 281.48 C 433.00 286.44 437.59 290.18 441.69 294.35 C 435.84 300.29 429.88 306.12 424.33 312.35 C 424.12 309.14 424.05 305.94 424.10 302.73 C 424.34 304.28 424.65 305.82 424.96 307.36 C 428.43 303.90 431.68 300.22 435.04 296.66 C 432.12 292.05 428.46 287.97 425.40 283.47 Z" />
<path fill="#879663" opacity="1.00" d=" M 441.54 308.42 C 442.88 305.63 446.30 306.52 448.79 306.23 C 450.52 308.30 451.26 311.02 450.39 313.65 C 448.50 316.91 443.64 316.13 441.24 313.85 C 441.30 312.04 441.24 310.21 441.54 308.42 Z" />
<path fill="#879663" opacity="1.00" d=" M 74.76 311.80 C 78.15 309.40 82.60 308.78 86.62 309.56 C 88.69 310.90 89.23 313.44 89.97 315.63 C 84.65 315.70 79.33 315.66 74.01 315.71 C 74.25 314.40 74.41 313.08 74.76 311.80 Z" />
<path fill="#879663" opacity="1.00" d=" M 168.76 327.66 C 176.51 325.71 184.30 323.50 192.33 323.15 C 186.51 326.04 180.37 329.03 176.30 334.27 C 174.63 336.57 177.70 339.24 180.04 338.46 C 184.95 337.16 188.71 333.50 193.09 331.13 C 190.62 335.99 186.79 340.08 182.62 343.54 C 179.15 344.46 175.48 343.91 172.00 344.80 C 167.93 345.80 164.52 348.37 161.17 350.78 C 161.18 344.04 161.62 337.19 163.75 330.76 C 164.32 328.54 166.98 328.38 168.76 327.66 Z" />
<path fill="#879663" opacity="1.00" d=" M 424.23 330.81 L 424.21 329.99 C 429.04 336.67 435.29 342.20 440.20 348.81 C 441.54 350.28 439.57 351.59 438.69 352.66 C 433.85 357.16 429.30 362.00 424.26 366.29 C 424.01 366.42 423.51 366.69 423.25 366.82 C 424.02 364.44 424.31 361.93 424.33 359.44 C 427.82 356.93 431.38 354.46 434.57 351.55 C 435.43 350.98 436.12 349.79 435.24 348.91 C 431.87 344.53 428.33 340.24 424.27 336.48 C 424.27 334.59 424.28 332.69 424.23 330.81 Z" />
<path fill="#879663" opacity="1.00" d=" M 444.44 362.43 C 446.76 361.72 449.00 362.73 450.82 364.14 C 450.51 366.17 451.21 368.85 449.11 370.13 C 447.00 371.34 443.76 370.94 442.53 368.63 C 441.92 366.42 442.20 363.62 444.44 362.43 Z" />
<path fill="#879663" opacity="1.00" d=" M 422.93 379.84 C 423.83 383.32 422.99 387.50 425.68 390.30 C 430.55 395.95 436.56 400.52 441.14 406.43 C 434.86 411.53 428.19 416.11 421.88 421.16 C 422.12 419.08 422.35 416.99 422.58 414.91 L 422.82 416.81 C 427.26 414.27 430.96 410.70 434.94 407.54 C 431.28 402.96 427.53 398.42 423.05 394.61 C 422.79 389.69 423.05 384.76 422.93 379.84 Z" />
<path fill="#879663" opacity="1.00" d=" M 136.56 429.55 C 135.80 424.33 144.16 422.07 146.22 426.82 C 147.68 429.54 145.56 431.94 143.74 433.75 C 140.59 434.14 137.28 432.96 136.56 429.55 Z" />
<path fill="#879663" opacity="1.00" d=" M 433.28 429.16 C 435.44 427.93 438.50 426.14 440.67 428.35 C 442.96 429.74 442.67 432.48 442.81 434.78 C 440.66 436.29 437.91 438.95 435.35 436.57 C 432.43 435.20 433.46 431.71 433.28 429.16 Z" />
<path fill="#879663" opacity="1.00" d=" M 113.55 438.55 C 111.98 434.32 117.54 430.58 121.09 432.92 C 122.35 433.97 123.25 435.45 123.62 437.05 C 123.13 438.86 121.80 440.29 120.79 441.84 C 118.13 441.65 114.33 441.87 113.55 438.55 Z" />
<path fill="#879663" opacity="1.00" d=" M 154.37 441.85 C 153.53 438.83 156.65 437.46 158.70 436.18 C 160.65 437.66 163.59 439.04 162.66 442.03 C 162.70 446.80 154.34 446.63 154.37 441.85 Z" />
<path fill="#879663" opacity="1.00" d=" M 123.57 444.55 C 126.99 441.05 131.79 437.61 136.95 439.09 C 143.32 441.00 147.35 446.76 151.26 451.75 C 154.40 456.28 158.13 460.39 161.05 465.07 C 158.63 466.77 156.01 468.15 153.49 469.70 C 149.16 472.35 143.91 472.24 139.02 472.52 C 130.96 472.61 122.53 473.64 114.93 470.27 C 113.95 468.01 112.49 465.64 113.18 463.07 C 114.71 456.06 118.69 449.74 123.57 444.55 Z" />
<path fill="#879663" opacity="1.00" d=" M 306.75 441.60 C 309.18 441.28 311.62 441.06 314.07 440.90 C 308.50 446.81 303.45 453.18 298.54 459.63 C 294.97 455.13 291.44 450.59 287.84 446.12 C 286.35 444.12 284.19 442.80 281.86 442.00 C 285.97 442.15 290.09 442.02 294.20 442.12 C 292.63 442.30 291.07 442.56 289.52 442.82 C 292.25 447.20 295.32 451.36 298.60 455.34 C 301.91 450.77 305.52 446.41 308.47 441.58 L 306.75 441.60 Z" />
<path fill="#879663" opacity="1.00" d=" M 193.93 442.02 C 195.79 442.16 197.66 442.21 199.53 442.24 C 201.47 446.75 203.79 451.09 206.23 455.36 C 210.25 451.45 213.88 447.16 217.48 442.87 C 216.27 442.58 215.05 442.32 213.83 442.09 C 217.95 442.01 222.08 442.12 226.21 441.99 C 223.68 442.53 220.78 442.84 219.08 445.04 C 214.77 450.19 210.48 455.37 206.50 460.78 C 202.25 454.57 199.10 447.56 193.93 442.02 Z" />
<path fill="#879663" opacity="1.00" d=" M 240.96 442.13 C 242.72 442.21 244.50 442.23 246.27 442.23 C 248.48 446.44 251.20 450.36 254.10 454.13 C 257.46 450.37 260.69 446.47 263.38 442.20 C 264.66 442.10 265.95 441.98 267.24 441.82 C 262.20 447.78 258.21 454.54 252.94 460.30 C 248.70 454.40 245.61 447.72 240.96 442.13 Z" />
<path fill="#879663" opacity="1.00" d=" M 372.72 441.99 C 374.03 442.11 375.36 442.19 376.69 442.23 C 378.71 446.31 380.99 450.24 383.34 454.14 C 387.53 450.50 391.67 446.71 394.86 442.13 C 396.97 441.95 399.09 441.79 401.20 441.51 C 395.64 447.70 389.81 453.72 383.46 459.11 C 380.04 453.31 376.42 447.62 372.72 441.99 Z" />
<path fill="#879663" opacity="1.00" d=" M 333.85 443.66 C 334.78 443.89 335.68 444.20 336.56 444.60 C 338.42 448.18 340.33 451.75 342.47 455.18 C 346.20 452.01 349.40 448.29 352.33 444.38 C 353.66 443.96 355.02 443.68 356.38 443.34 C 351.45 448.61 346.90 454.23 341.75 459.28 C 338.67 454.31 336.27 448.97 333.85 443.66 Z" />
<path fill="#879663" opacity="1.00" d=" M 66.37 455.01 C 70.57 452.82 74.89 450.83 79.43 449.46 C 77.61 455.55 75.91 461.70 73.81 467.70 C 70.42 464.07 68.31 459.52 66.37 455.01 Z" />
<path fill="#879663" opacity="1.00" d=" M 56.21 451.21 L 56.94 451.08 C 59.19 453.84 59.66 457.74 61.00 461.03 C 55.86 461.61 50.72 462.78 45.52 462.20 C 48.67 458.17 52.33 454.52 56.21 451.21 Z" />
<path fill="#879663" opacity="1.00" d=" M 100.18 452.38 C 102.05 452.38 103.92 452.37 105.79 452.34 C 107.94 454.25 107.69 457.15 107.75 459.76 C 105.57 462.16 101.22 462.57 99.14 459.89 C 97.47 457.46 98.69 454.53 100.18 452.38 Z" />
<path fill="#879663" opacity="1.00" d=" M 163.21 452.18 C 165.21 452.53 167.94 451.81 169.18 453.90 C 169.89 455.41 169.56 457.19 169.77 458.82 C 167.92 460.43 165.21 461.45 162.94 460.07 C 160.08 458.29 161.31 454.24 163.21 452.18 Z" />
<path fill="#879663" opacity="1.00" d=" M 194.35 454.42 C 198.45 452.61 199.10 460.43 195.08 459.63 C 192.24 459.29 191.44 455.52 194.35 454.42 Z" />
<path fill="#879663" opacity="1.00" d=" M 220.19 454.16 C 221.55 454.34 222.93 454.42 224.25 454.84 C 224.54 456.10 224.63 457.40 224.86 458.68 C 223.39 459.05 221.55 460.32 220.34 458.74 C 218.69 457.59 219.89 455.65 220.19 454.16 Z" />
<path fill="#879663" opacity="1.00" d=" M 258.63 460.41 C 258.19 458.98 257.89 456.47 259.98 456.31 C 261.82 456.48 261.50 458.78 262.13 460.04 C 260.97 460.20 259.80 460.72 258.63 460.41 Z" />
<path fill="#879663" opacity="1.00" d=" M 304.36 459.99 C 304.43 457.88 306.63 457.04 308.03 455.92 C 309.09 457.14 311.06 458.07 310.70 460.00 C 311.35 464.12 304.60 463.36 304.36 459.99 Z" />
<path fill="#879663" opacity="1.00" d=" M 390.83 456.75 C 392.38 455.67 393.61 457.55 394.89 458.20 C 394.51 459.65 394.95 461.53 393.67 462.59 C 391.91 462.88 389.73 462.91 388.77 461.09 C 387.49 459.36 388.98 457.20 390.83 456.75 Z" />
<path fill="#879663" opacity="1.00" d=" M 245.05 458.33 C 246.27 458.30 247.49 458.28 248.71 458.25 C 248.69 459.49 248.66 460.73 248.65 461.98 C 246.37 461.90 245.07 460.62 245.05 458.33 Z" />
<path fill="#879663" opacity="1.00" d=" M 287.06 458.33 C 288.28 458.33 289.49 458.33 290.71 458.34 C 290.70 459.53 290.70 460.72 290.70 461.91 C 288.34 461.97 287.09 460.66 287.06 458.33 Z" />
<path fill="#879663" opacity="1.00" d=" M 333.32 458.41 C 334.92 458.03 336.52 458.65 338.09 458.93 C 337.81 460.03 337.50 461.12 337.15 462.20 C 335.86 462.56 334.52 462.70 333.21 462.93 C 333.04 461.52 331.68 459.41 333.32 458.41 Z" />
<path fill="#879663" opacity="1.00" d=" M 349.10 458.34 C 350.67 458.32 352.25 458.31 353.84 458.31 C 353.66 459.63 353.74 461.03 353.25 462.31 C 352.21 462.91 350.85 462.90 349.82 462.30 C 349.22 461.07 349.32 459.65 349.10 458.34 Z" />
<path fill="#879663" opacity="1.00" d=" M 374.38 459.45 C 375.63 459.20 377.10 459.11 378.23 459.85 C 379.37 461.49 378.37 464.39 376.04 463.78 C 373.37 464.54 372.34 460.61 374.38 459.45 Z" />
</g>
<g id="#bdbd9eff">
<path fill="#bdbd9e" opacity="1.00" d=" M 359.50 209.72 C 363.66 207.55 368.39 207.02 373.01 206.72 C 383.83 206.10 394.87 207.95 404.72 212.54 C 399.06 221.70 392.82 230.75 384.90 238.10 C 382.97 232.02 378.86 227.01 374.75 222.26 C 370.32 217.38 365.51 212.61 359.50 209.72 Z" />
<path fill="#bdbd9e" opacity="1.00" d=" M 410.50 216.88 C 414.94 218.30 417.67 222.42 419.62 226.40 C 422.46 232.17 423.31 238.68 423.20 245.04 C 423.16 253.71 423.24 262.38 423.16 271.05 C 415.22 276.91 407.07 282.59 398.35 287.24 C 396.20 284.31 394.34 281.18 392.74 277.92 C 395.25 272.56 398.61 267.58 400.65 262.00 C 401.61 259.84 400.41 257.62 399.24 255.84 C 396.16 251.29 391.70 247.93 387.09 245.05 C 394.91 235.68 402.74 226.31 410.50 216.88 Z" />
<path fill="#bdbd9e" opacity="1.00" d=" M 240.17 221.90 C 244.34 220.38 248.78 219.77 253.18 219.32 C 253.35 222.84 253.09 226.38 252.35 229.83 C 252.04 234.88 245.85 234.83 242.46 236.84 C 241.40 231.91 240.31 226.95 240.17 221.90 Z" />
<path fill="#bdbd9e" opacity="1.00" d=" M 216.64 229.95 C 222.28 225.94 228.73 223.24 235.46 221.69 C 236.36 227.08 236.59 232.56 236.64 238.02 C 232.53 238.98 228.49 240.40 224.92 242.69 C 221.75 238.74 218.33 234.81 216.64 229.95 Z" />
<path fill="#bdbd9e" opacity="1.00" d=" M 196.97 253.24 C 198.43 244.82 202.55 234.76 212.10 233.26 C 215.36 237.02 218.62 241.05 219.96 245.94 C 221.07 248.33 218.41 250.67 216.16 250.82 C 209.74 251.41 203.35 252.30 196.97 253.24 Z" />
<path fill="#bdbd9e" opacity="1.00" d=" M 388.99 254.29 C 391.85 255.91 395.26 257.61 396.36 260.98 C 396.05 265.26 392.93 268.59 390.56 271.94 C 389.37 266.17 387.29 260.18 388.99 254.29 Z" />
<path fill="#bdbd9e" opacity="1.00" d=" M 406.78 285.82 C 411.53 282.15 416.59 278.70 422.30 276.70 C 422.64 276.79 423.31 276.95 423.65 277.04 C 425.19 277.99 424.17 280.38 424.46 281.92 C 424.23 288.85 424.12 295.79 424.10 302.73 C 424.05 305.94 424.12 309.14 424.33 312.35 L 424.10 312.60 C 413.60 319.50 407.42 331.33 396.56 337.71 C 395.77 334.42 394.17 330.51 396.44 327.46 C 399.68 322.42 403.83 318.04 407.00 312.97 C 407.45 311.87 408.65 310.45 407.69 309.32 C 404.61 304.76 399.70 301.89 396.03 297.85 C 398.29 292.82 402.62 289.24 406.78 285.82 Z" />
<path fill="#bdbd9e" opacity="1.00" d=" M 395.22 305.78 C 397.82 307.09 400.64 308.22 402.70 310.36 C 404.20 311.48 402.77 313.09 401.91 314.06 C 400.25 315.83 398.24 317.22 396.33 318.69 C 395.49 314.43 395.29 310.10 395.22 305.78 Z" />
<path fill="#bdbd9e" opacity="1.00" d=" M 192.82 315.04 C 198.91 314.62 204.96 313.78 210.98 312.81 C 206.73 321.52 202.38 330.18 198.46 339.05 C 195.08 347.08 186.76 351.85 178.49 353.37 C 171.23 354.58 163.87 355.14 156.58 356.24 C 154.14 355.96 151.70 356.31 149.29 356.66 C 150.15 346.59 150.56 336.09 154.82 326.76 C 157.70 320.69 164.77 318.78 170.85 317.78 C 178.15 316.71 185.48 315.78 192.82 315.04 M 168.76 327.66 C 166.98 328.38 164.32 328.54 163.75 330.76 C 161.62 337.19 161.18 344.04 161.17 350.78 C 164.52 348.37 167.93 345.80 172.00 344.80 C 175.48 343.91 179.15 344.46 182.62 343.54 C 186.79 340.08 190.62 335.99 193.09 331.13 C 188.71 333.50 184.95 337.16 180.04 338.46 C 177.70 339.24 174.63 336.57 176.30 334.27 C 180.37 329.03 186.51 326.04 192.33 323.15 C 184.30 323.50 176.51 325.71 168.76 327.66 Z" />
<path fill="#bdbd9e" opacity="1.00" d=" M 26.99 346.03 C 32.57 339.03 40.14 333.42 43.87 325.05 C 44.90 326.30 45.48 328.26 47.24 328.66 C 53.14 329.88 59.07 327.97 65.00 327.95 C 75.68 327.85 86.36 328.01 97.04 327.93 C 100.43 327.96 103.71 327.12 106.92 326.12 C 106.48 329.32 105.08 333.51 108.16 335.87 C 111.43 335.98 114.63 335.04 117.90 335.09 C 118.10 335.39 118.51 335.99 118.72 336.29 C 117.91 340.50 116.75 344.65 116.33 348.94 C 114.94 351.94 111.90 353.70 109.61 355.97 C 107.65 352.87 105.71 349.76 103.77 346.65 C 98.92 350.22 94.43 354.47 88.94 357.05 C 86.02 356.60 84.15 353.80 81.93 352.05 C 79.80 350.39 78.03 347.30 74.94 347.77 C 72.94 347.49 71.56 349.09 70.16 350.21 C 67.43 352.61 64.72 355.04 61.89 357.31 C 57.37 354.34 53.41 350.64 48.94 347.60 C 42.28 352.63 34.57 356.41 29.10 362.87 C 28.43 357.26 26.90 351.69 26.99 346.03 Z" />
<path fill="#bdbd9e" opacity="1.00" d=" M 397.62 346.66 C 404.89 339.73 412.81 333.49 421.02 327.72 C 422.08 328.71 423.88 329.24 424.23 330.81 C 424.28 332.69 424.27 334.59 424.27 336.48 C 424.19 344.13 424.04 351.79 424.33 359.44 C 424.31 361.93 424.02 364.44 423.25 366.82 C 413.89 372.29 408.62 382.64 399.59 388.60 C 398.43 389.23 397.16 389.62 395.93 390.07 C 394.55 387.06 392.95 383.12 395.22 380.16 C 398.60 374.72 404.18 370.80 406.95 365.01 C 405.02 358.99 396.02 359.35 394.30 353.05 C 393.27 350.30 396.09 348.47 397.62 346.66 Z" />
<path fill="#bdbd9e" opacity="1.00" d=" M 67.75 357.91 C 67.13 355.68 69.26 353.95 71.04 353.11 C 74.37 351.38 78.13 353.38 80.64 355.65 C 78.75 360.72 76.48 365.67 73.58 370.26 C 70.75 366.64 68.95 362.31 67.75 357.91 Z" />
<path fill="#bdbd9e" opacity="1.00" d=" M 48.32 354.24 C 50.61 352.65 54.19 354.62 54.73 357.12 C 53.59 361.44 51.41 365.44 48.97 369.16 C 46.64 366.10 43.94 362.91 43.20 359.06 C 44.50 357.09 46.31 355.47 48.32 354.24 Z" />
<path fill="#bdbd9e" opacity="1.00" d=" M 137.00 360.40 C 140.09 359.79 143.50 356.95 146.47 359.47 C 148.97 360.57 148.98 363.40 149.33 365.72 C 148.89 368.76 148.88 371.94 147.79 374.85 C 134.40 384.28 121.87 394.96 108.76 404.82 C 106.79 406.31 104.63 407.75 102.09 407.91 C 92.78 409.17 83.37 409.57 73.99 409.63 C 66.56 409.67 59.25 408.27 51.90 407.42 C 47.54 406.81 43.72 409.38 39.93 411.08 C 37.20 412.53 33.99 411.87 31.03 412.04 C 29.09 411.90 26.74 412.38 25.26 410.78 C 22.92 408.23 22.88 404.26 24.26 401.23 C 25.93 397.44 28.20 393.85 31.20 390.97 C 32.85 391.65 34.29 392.75 35.98 393.35 C 41.18 391.62 45.17 387.55 50.04 385.15 C 54.22 387.13 57.25 391.56 62.08 392.10 C 68.42 389.19 72.71 383.29 78.15 379.08 C 81.28 383.39 83.47 388.32 87.00 392.34 C 92.16 391.01 96.52 387.81 100.78 384.75 C 102.60 383.31 105.06 381.81 104.80 379.13 C 104.91 373.12 107.76 367.13 112.30 363.23 C 115.01 362.49 117.01 365.72 119.34 366.80 C 122.26 369.19 124.20 364.62 126.35 363.23 C 129.14 360.25 133.36 360.87 137.00 360.40 Z" />
<path fill="#bdbd9e" opacity="1.00" d=" M 395.26 361.57 C 397.78 362.78 401.38 363.87 402.16 366.84 C 400.45 369.43 397.90 371.34 395.07 372.54 C 394.56 368.89 394.77 365.21 395.26 361.57 Z" />
<path fill="#bdbd9e" opacity="1.00" d=" M 86.26 377.86 C 86.50 376.69 86.37 374.53 88.04 374.48 C 92.62 375.35 96.71 377.84 100.56 380.36 C 97.53 383.28 93.50 386.45 89.13 386.03 C 87.31 383.74 86.04 380.84 86.26 377.86 Z" />
<path fill="#bdbd9e" opacity="1.00" d=" M 60.11 375.51 C 63.38 377.18 65.82 380.01 67.91 382.96 C 65.89 384.57 63.83 387.69 61.04 387.24 C 56.70 384.68 58.61 379.21 60.11 375.51 Z" />
<path fill="#bdbd9e" opacity="1.00" d=" M 34.65 378.61 C 35.24 377.05 37.00 378.60 37.76 379.20 C 39.32 380.67 41.15 382.61 40.71 384.95 C 40.41 388.29 34.30 388.39 33.95 385.05 C 33.71 382.91 33.59 380.55 34.65 378.61 Z" />
<path fill="#bdbd9e" opacity="1.00" d=" M 396.64 397.03 C 406.28 391.78 412.31 381.72 422.30 376.95 C 422.46 377.67 422.78 379.12 422.93 379.84 C 423.05 384.76 422.79 389.69 423.05 394.61 C 423.05 401.38 423.18 408.16 422.58 414.91 C 422.35 416.99 422.12 419.08 421.88 421.16 C 420.59 426.22 416.81 430.20 412.90 433.45 C 408.09 425.02 397.84 422.18 392.60 414.13 C 395.67 413.47 399.00 413.55 401.85 412.09 C 403.39 411.35 403.70 409.44 403.09 407.98 C 401.94 403.83 399.13 400.44 396.64 397.03 Z" />
<path fill="#bdbd9e" opacity="1.00" d=" M 392.98 402.40 C 395.21 404.41 397.15 406.79 397.99 409.73 C 395.46 410.23 392.89 410.03 390.37 409.61 C 391.07 407.14 391.92 404.73 392.98 402.40 Z" />
<path fill="#bdbd9e" opacity="1.00" d=" M 369.43 440.80 C 372.83 431.19 379.67 423.17 387.16 416.44 C 395.10 421.28 401.08 428.99 405.26 437.20 C 405.22 437.88 405.12 439.26 405.07 439.95 C 404.41 441.46 402.51 441.14 401.20 441.51 C 399.09 441.79 396.97 441.95 394.86 442.13 C 388.80 442.26 382.75 442.04 376.69 442.23 C 375.36 442.19 374.03 442.11 372.72 441.99 C 371.61 441.61 370.52 441.21 369.43 440.80 Z" />
<path fill="#bdbd9e" opacity="1.00" d=" M 208.43 427.50 C 211.88 426.77 215.47 427.28 218.98 427.12 C 221.16 427.22 223.80 426.69 225.42 428.56 C 228.80 431.90 230.43 436.62 230.93 441.26 C 229.36 441.51 227.78 441.76 226.21 441.99 C 222.08 442.12 217.95 442.01 213.83 442.09 C 209.06 442.00 204.29 442.20 199.53 442.24 C 197.66 442.21 195.79 442.16 193.93 442.02 C 193.54 441.80 192.77 441.35 192.39 441.13 C 197.36 436.21 202.08 430.67 208.43 427.50 Z" />
<path fill="#bdbd9e" opacity="1.00" d=" M 244.79 430.74 C 248.57 427.13 254.24 428.35 258.94 428.58 C 263.91 430.49 267.13 435.65 268.15 440.72 C 267.92 441.00 267.47 441.55 267.24 441.82 C 265.95 441.98 264.66 442.10 263.38 442.20 C 257.67 442.23 251.97 442.03 246.27 442.23 C 244.50 442.23 242.72 442.21 240.96 442.13 C 239.89 441.77 238.84 441.42 237.78 441.07 C 238.64 436.84 241.57 433.43 244.79 430.74 Z" />
<path fill="#bdbd9e" opacity="1.00" d=" M 285.73 428.88 C 289.03 427.86 292.57 428.49 295.97 428.33 C 301.27 428.48 306.93 427.66 311.85 430.10 C 315.48 431.79 317.91 435.50 318.29 439.45 C 317.16 440.56 315.60 440.84 314.07 440.90 C 311.62 441.06 309.18 441.28 306.75 441.60 C 302.59 442.12 298.39 442.16 294.20 442.12 C 290.09 442.02 285.97 442.15 281.86 442.00 C 279.55 441.44 277.27 440.79 275.00 440.11 C 277.39 435.48 280.96 431.17 285.73 428.88 Z" />
<path fill="#bdbd9e" opacity="1.00" d=" M 187.92 429.41 C 190.90 429.48 193.88 429.49 196.87 429.42 C 195.62 431.22 194.51 433.11 193.53 435.08 C 191.77 433.08 189.88 431.20 187.92 429.41 Z" />
<path fill="#bdbd9e" opacity="1.00" d=" M 230.70 429.50 C 233.80 429.46 236.89 429.48 239.98 429.41 C 237.86 431.39 235.91 433.57 234.35 436.03 C 232.90 433.99 231.57 431.85 230.70 429.50 Z" />
<path fill="#bdbd9e" opacity="1.00" d=" M 268.20 430.53 C 270.81 430.01 273.45 429.62 276.11 429.40 C 274.52 431.55 272.97 433.73 271.55 435.99 C 270.48 434.14 269.34 432.33 268.20 430.53 Z" />
<path fill="#bdbd9e" opacity="1.00" d=" M 326.40 440.48 C 328.85 435.50 332.32 428.32 339.02 429.45 C 344.18 429.63 349.38 429.16 354.52 429.70 C 359.29 431.68 359.85 437.60 360.51 442.05 C 359.14 442.50 357.77 442.95 356.38 443.34 C 355.02 443.68 353.66 443.96 352.33 444.38 L 353.06 443.46 C 347.37 443.18 341.66 443.24 335.97 443.41 L 336.56 444.60 C 335.68 444.20 334.78 443.89 333.85 443.66 C 331.20 443.04 328.08 442.99 326.40 440.48 Z" />
<path fill="#bdbd9e" opacity="1.00" d=" M 361.41 430.55 C 364.77 429.26 368.30 428.51 371.87 428.18 C 369.41 431.61 366.95 435.04 364.90 438.74 C 363.84 435.96 362.66 433.24 361.41 430.55 Z" />
<path fill="#bdbd9e" opacity="1.00" d=" M 320.03 430.72 C 322.31 430.59 324.60 430.58 326.88 430.70 C 326.28 432.91 325.23 435.40 323.53 436.97 C 322.18 435.01 320.49 433.10 320.03 430.72 Z" />
<path fill="#bdbd9e" opacity="1.00" d=" M 175.94 440.07 C 177.42 436.92 180.28 434.77 183.01 432.75 C 186.10 435.41 188.95 438.34 191.93 441.14 C 187.04 443.20 181.63 443.95 176.43 442.62 C 175.51 441.94 175.35 441.09 175.94 440.07 Z" />
</g>
</svg>
