<?xml version="1.0" encoding="UTF-8" ?>
<!DOCTYPE svg PUBLIC "-//W3C//DTD SVG 1.1//EN" "http://www.w3.org/Graphics/SVG/1.1/DTD/svg11.dtd">
<svg width="503pt" height="502pt" viewBox="0 0 503 502" version="1.1" xmlns="http://www.w3.org/2000/svg">
<g id="#1c1d22ff">
<path fill="#1c1d22" opacity="1.00" d=" M 141.73 0.00 L 142.84 0.00 C 142.55 21.68 141.67 43.34 141.23 65.02 C 141.21 66.78 141.01 68.54 140.73 70.28 C 137.77 69.79 134.85 70.82 131.99 71.41 C 113.96 76.13 98.04 86.25 82.44 96.05 C 78.27 87.74 73.84 79.55 69.51 71.32 C 67.70 67.81 65.87 64.32 64.02 60.84 L 64.09 60.03 C 82.83 36.87 106.09 17.00 133.06 4.10 C 135.90 2.62 139.09 1.87 141.73 0.00 Z" />
<path fill="#1c1d22" opacity="1.00" d=" M 142.95 71.70 C 168.41 51.02 195.78 32.23 225.88 18.95 C 225.26 30.28 224.58 41.61 223.94 52.94 C 222.71 74.11 221.50 95.29 220.28 116.46 L 220.07 116.90 C 209.60 116.85 199.11 116.43 188.65 117.03 C 175.21 117.18 161.80 118.49 148.54 120.63 C 146.80 104.31 144.81 88.01 142.95 71.70 Z" />
<path fill="#1c1d22" opacity="1.00" d=" M 251.40 49.53 C 261.95 45.64 272.88 42.35 284.16 41.62 C 280.95 48.58 277.85 55.91 277.50 63.65 C 266.27 58.09 253.85 55.53 241.50 53.92 C 244.55 51.95 248.06 50.89 251.40 49.53 Z" />
<path fill="#1c1d22" opacity="1.00" d=" M 287.46 69.09 C 300.73 66.98 314.80 67.12 327.55 71.77 C 321.94 78.83 316.77 86.47 314.03 95.14 L 314.50 96.06 C 307.20 85.54 298.15 76.18 287.46 69.09 Z" />
<path fill="#1c1d22" opacity="1.00" d=" M 24.00 114.06 C 31.80 98.65 42.36 84.42 56.06 73.77 C 57.67 75.29 58.57 77.40 60.22 78.90 C 60.88 80.70 62.17 82.18 63.23 83.76 C 74.72 100.49 86.21 117.22 97.70 133.95 C 94.37 150.73 91.60 167.65 90.19 184.71 C 87.18 182.83 84.60 180.36 81.76 178.24 C 66.43 166.00 50.95 153.93 35.72 141.57 C 28.60 147.28 21.88 153.48 14.97 159.43 C 12.47 161.56 10.04 163.76 7.44 165.76 C 9.95 147.77 15.88 130.29 24.00 114.06 Z" />
<path fill="#1c1d22" opacity="1.00" d=" M 321.99 107.87 C 330.25 108.32 338.76 109.31 346.25 113.03 C 341.17 117.94 335.83 122.78 332.42 129.09 C 329.29 121.85 325.82 114.76 321.99 107.87 Z" />
<path fill="#1c1d22" opacity="1.00" d=" M 214.82 135.87 C 229.06 128.59 243.88 121.44 259.82 118.93 C 259.85 135.61 259.80 152.29 259.85 168.97 C 259.80 170.32 259.97 171.83 259.04 172.95 C 256.80 176.30 254.61 179.68 252.29 182.98 C 245.31 175.59 238.64 167.91 231.61 160.58 C 229.01 159.67 226.23 159.50 223.55 159.01 C 219.38 158.12 215.19 157.37 210.98 156.72 C 211.33 153.22 212.08 149.78 212.67 146.32 C 213.50 142.87 213.61 139.21 214.82 135.87 Z" />
<path fill="#1c1d22" opacity="1.00" d=" M 116.54 143.47 C 138.46 137.12 160.46 131.03 182.35 124.55 C 185.93 144.60 188.71 164.82 191.97 184.94 C 179.32 183.84 166.68 182.67 154.03 181.64 C 151.71 181.50 149.36 180.96 147.04 181.46 C 134.43 183.96 121.77 186.24 109.16 188.78 C 111.34 173.64 114.17 158.59 116.54 143.47 Z" />
<path fill="#1c1d22" opacity="1.00" d=" M 344.46 139.66 C 355.33 133.78 367.96 129.98 380.39 132.03 C 377.08 138.79 375.63 146.22 374.87 153.65 C 364.89 148.64 354.72 144.04 344.46 139.66 Z" />
<path fill="#1c1d22" opacity="1.00" d=" M 326.04 164.16 C 331.01 159.11 336.47 154.32 342.81 151.08 C 343.97 157.90 345.37 164.68 346.42 171.52 C 339.56 169.28 332.77 166.77 326.04 164.16 Z" />
<path fill="#1c1d22" opacity="1.00" d=" M 387.60 160.37 C 395.83 156.39 405.04 153.86 414.24 154.73 C 412.17 160.99 410.16 167.32 409.48 173.90 C 402.42 169.01 395.02 164.67 387.60 160.37 Z" />
<path fill="#1c1d22" opacity="1.00" d=" M 13.08 176.73 C 20.05 171.17 27.43 165.97 35.60 162.32 C 51.68 177.30 67.80 192.24 83.94 207.14 C 84.96 208.22 86.79 209.15 86.30 210.94 C 85.08 226.67 83.87 242.41 82.68 258.15 C 80.28 257.51 78.18 256.16 76.01 255.01 C 59.38 246.10 42.76 237.17 26.08 228.37 C 21.91 232.96 17.75 237.55 13.56 242.12 C 11.46 244.45 9.43 246.83 7.21 249.05 C 2.91 237.07 0.85 224.41 0.00 211.75 L 0.00 203.19 C 0.33 197.73 0.51 192.20 1.72 186.85 C 5.18 183.14 9.16 179.94 13.08 176.73 Z" />
<path fill="#1c1d22" opacity="1.00" d=" M 424.66 185.12 C 432.44 183.68 440.38 183.20 448.28 183.06 C 446.42 189.61 444.90 196.25 443.85 202.97 C 437.89 196.57 431.42 190.67 424.66 185.12 Z" />
<path fill="#1c1d22" opacity="1.00" d=" M 350.50 194.13 C 354.99 190.47 359.62 186.10 365.55 185.21 C 365.83 191.35 366.85 197.42 367.14 203.55 C 361.52 200.58 355.74 197.71 350.50 194.13 Z" />
<path fill="#1c1d22" opacity="1.00" d=" M 223.50 191.30 C 223.71 191.30 224.12 191.31 224.33 191.31 C 229.15 203.64 234.19 215.89 239.01 228.23 C 228.47 226.75 217.98 224.92 207.45 223.32 C 206.12 222.99 204.48 223.27 203.39 222.32 C 210.27 212.10 216.86 201.68 223.50 191.30 Z" />
<path fill="#1c1d22" opacity="1.00" d=" M 109.08 209.48 C 134.80 213.82 160.51 218.25 186.22 222.65 C 187.46 225.22 189.22 227.64 189.82 230.48 C 165.10 240.79 140.49 251.41 115.83 261.88 C 115.51 261.82 114.87 261.71 114.55 261.65 C 112.85 244.25 110.79 226.88 109.08 209.48 Z" />
<path fill="#1c1d22" opacity="1.00" d=" M 457.49 219.37 C 463.24 217.85 469.53 219.88 474.59 222.72 C 471.17 225.85 468.87 229.88 466.75 233.94 C 463.87 228.96 460.67 224.17 457.49 219.37 Z" />
<path fill="#1c1d22" opacity="1.00" d=" M 357.99 226.31 C 363.96 224.39 370.12 222.71 376.45 222.75 C 375.23 228.81 372.87 234.60 371.43 240.62 C 371.17 240.68 370.67 240.79 370.41 240.85 C 366.32 235.96 361.84 231.39 357.99 226.31 Z" />
<path fill="#1c1d22" opacity="1.00" d=" M 474.63 249.95 C 479.18 249.48 484.07 250.05 487.85 252.83 C 484.74 255.70 481.90 258.86 479.61 262.43 C 478.76 259.86 477.76 257.33 476.66 254.86 C 475.95 253.23 475.30 251.58 474.63 249.95 Z" />
<path fill="#1c1d22" opacity="1.00" d=" M 361.88 258.74 C 367.95 258.39 374.09 258.42 380.17 258.73 C 377.59 263.56 374.41 268.05 371.64 272.77 C 371.34 272.76 370.75 272.74 370.45 272.72 C 367.63 268.04 364.55 263.51 361.88 258.74 Z" />
<path fill="#1c1d22" opacity="1.00" d=" M 286.17 261.12 C 290.27 258.87 295.83 262.35 295.63 267.00 C 295.89 271.72 290.14 275.30 286.04 272.90 C 281.28 270.76 281.38 263.16 286.17 261.12 Z" />
<path fill="#1c1d22" opacity="1.00" d=" M 484.18 278.95 C 484.46 279.93 484.77 280.91 485.10 281.89 C 489.08 283.10 492.85 285.28 495.36 288.68 C 492.41 290.65 489.67 292.97 487.56 295.85 L 487.32 296.25 C 486.70 290.41 485.36 284.69 484.18 278.95 Z" />
<path fill="#1c1d22" opacity="1.00" d=" M 307.46 281.60 C 312.02 279.68 317.40 284.20 316.24 289.02 C 315.57 293.91 308.87 296.18 305.37 292.68 C 301.69 289.65 302.96 283.12 307.46 281.60 Z" />
<path fill="#1c1d22" opacity="1.00" d=" M 265.09 283.29 C 268.39 282.10 272.08 285.63 270.97 288.99 C 270.24 292.43 265.35 293.74 263.02 291.05 C 260.58 288.70 261.79 284.09 265.09 283.29 Z" />
<path fill="#1c1d22" opacity="1.00" d=" M 363.89 298.20 C 369.96 298.22 376.03 298.15 382.10 298.24 C 379.56 302.58 376.29 306.44 373.52 310.64 C 373.25 310.67 372.72 310.74 372.46 310.77 C 369.70 306.52 366.24 302.69 363.89 298.20 Z" />
<path fill="#1c1d22" opacity="1.00" d=" M 250.21 302.36 C 253.86 300.69 258.39 304.05 257.92 308.02 C 257.82 312.28 252.27 314.88 248.95 312.18 C 245.40 309.79 246.17 303.77 250.21 302.36 Z" />
<path fill="#1c1d22" opacity="1.00" d=" M 296.37 310.41 C 299.81 307.95 305.09 310.75 305.06 314.95 C 305.46 319.39 299.75 322.59 296.22 319.81 C 292.91 317.75 293.02 312.38 296.37 310.41 Z" />
<path fill="#1c1d22" opacity="1.00" d=" M 489.27 313.83 C 494.72 315.70 499.80 318.75 503.00 323.68 L 503.00 324.47 C 498.31 326.12 494.04 328.66 490.08 331.64 C 489.70 325.70 490.03 319.74 489.27 313.83 Z" />
<path fill="#1c1d22" opacity="1.00" d=" M 365.97 330.23 C 370.68 330.30 375.39 330.24 380.11 330.27 C 378.42 334.67 375.53 338.50 373.41 342.71 C 373.18 342.72 372.71 342.75 372.48 342.76 C 370.48 338.51 367.23 334.77 365.97 330.23 Z" />
<path fill="#1c1d22" opacity="1.00" d=" M 489.83 354.00 C 494.69 355.92 499.22 358.67 503.00 362.30 L 503.00 362.46 C 498.92 365.90 494.60 369.11 489.83 371.55 C 489.80 365.70 489.76 359.85 489.83 354.00 Z" />
<path fill="#1c1d22" opacity="1.00" d=" M 316.37 379.48 C 320.85 383.12 325.39 386.75 329.47 390.83 C 325.04 394.47 320.76 398.29 316.37 401.98 C 316.40 394.48 316.37 386.98 316.37 379.48 Z" />
<path fill="#1c1d22" opacity="1.00" d=" M 490.07 389.28 C 493.13 392.24 496.73 394.92 498.96 398.57 C 495.91 400.45 493.13 402.73 490.07 404.61 C 489.85 399.50 489.86 394.38 490.07 389.28 Z" />
<path fill="#1c1d22" opacity="1.00" d=" M 250.12 404.16 C 252.29 401.34 256.15 400.84 259.46 400.53 C 256.06 407.38 252.12 413.96 248.63 420.77 C 243.72 420.97 238.79 420.83 233.87 420.87 C 238.81 414.90 244.81 409.83 250.12 404.16 Z" />
<path fill="#1c1d22" opacity="1.00" d=" M 223.00 406.97 C 225.08 406.57 227.17 406.24 229.27 405.98 C 223.31 412.29 217.10 418.37 210.90 424.45 C 208.86 422.49 207.15 420.24 205.23 418.18 C 203.83 419.11 202.41 420.03 200.96 420.89 C 202.24 419.81 203.51 418.73 204.84 417.71 C 203.22 415.54 201.15 413.72 199.84 411.33 C 203.50 410.67 207.18 410.06 210.82 409.28 C 211.28 409.18 212.20 408.98 212.67 408.87 C 216.13 408.36 219.58 407.71 223.00 406.97 Z" />
<path fill="#1c1d22" opacity="1.00" d=" M 316.36 411.60 C 319.66 416.43 322.62 421.49 325.75 426.44 C 318.31 426.59 310.85 426.61 303.41 426.42 C 306.91 423.24 310.75 420.44 314.21 417.21 C 315.25 415.48 315.70 413.47 316.36 411.60 Z" />
<path fill="#1c1d22" opacity="1.00" d=" M 190.19 416.89 C 191.39 416.32 192.61 415.76 193.82 415.21 C 195.54 417.51 197.21 419.85 198.88 422.20 C 200.29 424.17 201.66 426.18 203.14 428.11 C 201.11 431.64 198.20 434.55 195.78 437.80 C 188.03 438.30 180.11 437.12 172.46 438.42 C 171.97 438.02 171.01 437.21 170.52 436.81 C 169.04 433.91 167.02 431.31 165.83 428.27 C 173.98 424.54 182.07 420.68 190.19 416.89 Z" />
<path fill="#1c1d22" opacity="1.00" d=" M 489.82 420.71 C 493.10 422.26 496.12 424.28 499.12 426.32 C 496.39 429.31 493.11 431.72 490.00 434.29 C 489.90 429.76 489.86 425.23 489.82 420.71 Z" />
<path fill="#1c1d22" opacity="1.00" d=" M 211.01 439.75 C 215.87 435.17 220.95 430.82 226.05 426.51 C 232.19 426.65 238.35 426.36 244.49 426.66 C 242.32 431.05 239.75 435.23 237.33 439.48 C 228.63 440.09 219.77 439.54 211.01 439.75 Z" />
<path fill="#1c1d22" opacity="1.00" d=" M 281.44 444.97 C 286.39 439.77 292.11 435.32 297.37 430.43 C 300.20 435.25 302.63 440.33 304.92 445.43 C 297.10 445.11 289.20 445.95 281.44 444.97 Z" />
<path fill="#1c1d22" opacity="1.00" d=" M 131.84 458.37 C 140.65 452.31 149.27 445.96 157.99 439.76 C 160.85 440.49 163.70 441.28 166.55 442.08 C 172.39 443.84 178.27 445.46 184.14 447.15 C 179.09 453.24 172.95 458.38 167.61 464.22 C 166.35 465.46 165.05 466.68 163.80 467.94 C 156.22 468.07 148.64 467.98 141.05 467.99 C 138.01 464.75 134.51 461.93 131.84 458.37 Z" />
<path fill="#1c1d22" opacity="1.00" d=" M 341.70 440.66 C 342.97 439.25 344.93 439.84 346.59 439.72 C 346.96 440.97 347.36 442.22 347.79 443.46 C 348.65 445.96 349.47 448.49 350.23 451.02 C 343.44 451.11 336.65 451.08 329.86 451.03 C 333.62 447.37 337.76 444.12 341.70 440.66 Z" />
<path fill="#1c1d22" opacity="1.00" d=" M 203.27 447.30 C 212.56 447.22 221.86 447.29 231.15 447.26 C 228.32 453.26 224.09 458.49 220.83 464.26 C 220.01 465.56 219.13 466.82 218.22 468.06 C 206.39 467.89 194.56 468.11 182.74 467.95 C 183.90 466.67 185.09 465.42 186.32 464.22 C 192.03 458.63 197.60 452.92 203.27 447.30 Z" />
<path fill="#1c1d22" opacity="1.00" d=" M 310.47 453.38 C 314.77 452.41 319.47 453.05 323.91 453.06 L 324.29 454.40 C 325.25 458.31 326.24 462.21 327.21 466.12 C 327.32 466.59 327.53 467.53 327.64 468.00 C 318.89 468.00 310.13 468.01 301.38 467.99 C 302.12 466.73 302.87 465.47 303.64 464.24 C 305.98 460.66 308.13 456.95 310.47 453.38 Z" />
<path fill="#1c1d22" opacity="1.00" d=" M 489.76 454.39 C 492.36 456.29 495.09 458.15 497.12 460.70 C 493.75 462.47 490.53 464.52 487.13 466.23 C 488.43 462.39 489.34 458.42 489.76 454.39 Z" />
<path fill="#1c1d22" opacity="1.00" d=" M 339.01 456.77 C 342.01 456.76 345.02 456.58 348.03 456.82 C 349.98 459.46 350.30 463.09 351.58 466.13 C 351.72 466.60 351.99 467.52 352.12 467.98 C 345.89 468.02 339.66 468.00 333.43 467.99 C 333.63 467.53 334.05 466.61 334.25 466.15 C 335.85 463.02 337.40 459.88 339.01 456.77 Z" />
<path fill="#1c1d22" opacity="1.00" d=" M 472.99 483.49 C 475.32 481.92 477.48 480.11 479.46 478.12 C 480.27 481.04 481.33 483.89 482.10 486.82 C 479.06 485.72 476.07 484.48 472.99 483.49 Z" />
<path fill="#1c1d22" opacity="1.00" d=" M 442.91 492.30 C 446.51 492.01 450.11 491.58 453.69 490.99 C 452.18 494.76 449.95 498.19 448.53 502.00 L 448.45 502.00 C 446.47 498.84 444.82 495.49 442.91 492.30 Z" />
<path fill="#1c1d22" opacity="1.00" d=" M 263.82 492.52 C 275.98 492.43 288.14 492.43 300.30 492.62 C 298.25 495.84 295.98 498.92 293.73 502.00 L 293.72 502.00 C 292.10 498.95 291.55 495.04 289.15 492.58 C 284.78 492.60 280.34 492.25 276.00 492.78 C 273.62 495.69 271.42 498.77 269.49 502.00 L 269.38 502.00 C 267.38 498.93 265.71 495.66 263.82 492.52 Z" />
<path fill="#1c1d22" opacity="1.00" d=" M 365.04 492.51 C 372.71 492.52 380.39 492.31 388.06 492.60 C 383.65 492.45 379.23 492.61 374.82 492.48 C 372.90 495.53 370.65 498.55 369.58 502.00 L 369.32 502.00 C 367.71 498.92 366.52 495.65 365.04 492.51 Z" />
<path fill="#1c1d22" opacity="1.00" d=" M 175.33 492.62 C 175.96 492.67 177.24 492.76 177.88 492.81 C 177.51 494.10 176.46 495.44 175.11 495.80 C 175.17 495.01 175.27 493.42 175.33 492.62 Z" />
<path fill="#1c1d22" opacity="1.00" d=" M 186.58 492.64 C 188.67 492.65 190.77 492.57 192.87 492.56 C 192.02 494.45 191.10 496.31 190.03 498.08 C 188.77 496.34 187.59 494.53 186.58 492.64 Z" />
<path fill="#1c1d22" opacity="1.00" d=" M 200.28 492.83 C 202.50 492.78 204.72 492.77 206.94 492.97 C 205.75 495.13 204.53 497.28 203.77 499.63 C 201.58 498.17 202.49 494.53 200.28 492.83 Z" />
<path fill="#1c1d22" opacity="1.00" d=" M 220.04 492.86 C 222.69 492.66 225.34 492.67 228.00 492.83 C 226.74 495.44 225.71 498.16 224.56 500.82 C 224.29 500.82 223.74 500.81 223.46 500.81 C 222.32 498.16 221.32 495.45 220.04 492.86 Z" />
<path fill="#1c1d22" opacity="1.00" d=" M 239.60 492.63 C 243.51 492.55 247.42 492.54 251.34 492.61 C 249.24 495.81 246.98 498.90 244.74 502.00 L 244.72 502.00 C 243.03 498.87 241.11 495.86 239.60 492.63 Z" />
<path fill="#1c1d22" opacity="1.00" d=" M 316.75 492.59 C 319.85 492.60 322.95 492.57 326.05 492.56 C 325.19 495.73 322.47 498.89 322.71 502.00 L 322.00 502.00 C 320.26 498.86 318.44 495.76 316.75 492.59 Z" />
<path fill="#1c1d22" opacity="1.00" d=" M 338.77 492.72 C 342.25 492.83 345.74 492.86 349.22 492.70 C 349.01 496.09 345.97 498.81 344.70 502.00 L 344.66 502.00 C 342.86 498.84 339.58 496.23 338.77 492.72 Z" />
<path fill="#1c1d22" opacity="1.00" d=" M 388.52 492.61 C 392.43 492.56 396.35 492.55 400.26 492.61 C 398.16 495.80 395.89 498.88 393.68 502.00 L 393.66 502.00 C 391.93 498.87 390.01 495.86 388.52 492.61 Z" />
<path fill="#1c1d22" opacity="1.00" d=" M 414.79 492.59 C 418.26 492.51 421.73 492.57 425.20 492.85 C 423.92 495.98 421.10 498.75 420.66 502.00 L 420.01 502.00 C 418.29 498.85 416.45 495.77 414.79 492.59 Z" />
</g>
<g id="#5f83c1ff">
<path fill="#5f83c1" opacity="1.00" d=" M 223.94 52.94 C 229.80 52.99 235.65 53.53 241.50 53.92 C 253.85 55.53 266.27 58.09 277.50 63.65 C 280.95 65.22 284.22 67.13 287.46 69.09 C 298.15 76.18 307.20 85.54 314.50 96.06 C 317.18 99.88 319.62 103.85 321.99 107.87 C 325.82 114.76 329.29 121.85 332.42 129.09 C 333.37 131.33 334.28 133.60 335.22 135.85 C 338.29 137.14 341.35 138.44 344.46 139.66 C 354.72 144.04 364.89 148.64 374.87 153.65 C 379.13 155.85 383.35 158.14 387.60 160.37 C 395.02 164.67 402.42 169.01 409.48 173.90 C 414.70 177.42 419.71 181.23 424.66 185.12 C 431.42 190.67 437.89 196.57 443.85 202.97 C 448.75 208.13 453.15 213.74 457.49 219.37 C 460.67 224.17 463.87 228.96 466.75 233.94 C 469.58 239.17 472.27 244.48 474.63 249.95 C 475.30 251.58 475.95 253.23 476.66 254.86 C 450.77 261.54 424.84 268.08 398.92 274.65 C 392.92 276.27 386.78 277.44 380.94 279.57 C 416.11 285.48 451.11 292.50 486.24 298.60 C 486.57 298.57 487.23 298.50 487.55 298.47 C 487.50 297.92 487.38 296.81 487.32 296.25 L 487.56 295.85 C 487.95 301.86 488.70 307.84 489.27 313.83 C 453.76 321.50 418.41 329.93 382.91 337.59 C 398.59 340.27 414.43 341.94 430.17 344.27 C 450.08 346.92 469.96 349.74 489.88 352.30 C 489.87 352.73 489.84 353.58 489.83 354.00 C 489.76 359.85 489.80 365.70 489.83 371.55 C 489.80 374.76 489.76 377.97 489.88 381.19 C 466.09 383.22 442.28 384.98 418.49 386.84 C 418.11 391.88 418.16 396.96 418.45 402.00 C 442.27 404.31 466.04 407.16 489.87 409.37 C 489.74 413.15 489.80 416.93 489.82 420.71 C 489.86 425.23 489.90 429.76 490.00 434.29 C 489.97 435.11 489.92 436.74 489.89 437.56 C 465.02 434.46 440.29 430.08 415.44 426.73 C 416.27 425.45 417.11 424.16 417.85 422.82 C 418.63 414.33 418.01 405.62 418.04 397.04 C 417.93 389.02 418.42 380.99 418.08 372.98 C 417.93 369.96 415.07 367.69 412.10 368.03 C 392.39 367.97 372.67 368.01 352.96 368.01 C 349.96 367.71 346.57 369.78 346.62 373.06 C 346.40 380.81 346.61 388.57 346.53 396.32 C 336.50 387.81 326.44 379.32 316.34 370.90 C 314.52 369.29 312.68 367.69 310.74 366.23 C 310.70 382.81 310.74 399.39 310.73 415.97 C 310.96 417.36 309.43 417.95 308.61 418.74 C 290.21 432.61 271.88 446.58 253.51 460.49 C 251.71 461.71 250.19 463.45 248.12 464.21 C 239.02 464.34 229.92 464.23 220.83 464.26 C 224.09 458.49 228.32 453.26 231.15 447.26 C 221.86 447.29 212.56 447.22 203.27 447.30 C 197.60 452.92 192.03 458.63 186.32 464.22 C 180.08 464.29 173.84 464.29 167.61 464.22 C 172.95 458.38 179.09 453.24 184.14 447.15 C 178.27 445.46 172.39 443.84 166.55 442.08 C 168.49 440.81 170.43 439.55 172.46 438.42 C 180.11 437.12 188.03 438.30 195.78 437.80 C 198.20 434.55 201.11 431.64 203.14 428.11 C 201.66 426.18 200.29 424.17 198.88 422.20 C 199.40 421.87 200.44 421.22 200.96 420.89 C 202.41 420.03 203.83 419.11 205.23 418.18 C 207.15 420.24 208.86 422.49 210.90 424.45 C 217.10 418.37 223.31 412.29 229.27 405.98 C 227.17 406.24 225.08 406.57 223.00 406.97 C 236.01 399.18 248.82 391.08 261.71 383.10 C 254.23 357.88 246.50 332.72 239.15 307.46 C 256.81 288.75 274.29 269.84 291.85 251.02 C 303.85 266.69 315.74 282.45 327.68 298.17 C 318.36 308.87 308.86 319.41 299.59 330.15 C 289.94 322.83 280.55 315.15 271.16 307.49 C 276.88 301.36 282.40 295.07 288.00 288.84 C 292.74 292.27 296.76 296.63 301.55 300.01 C 302.74 298.75 303.90 297.47 305.03 296.16 C 299.30 289.99 293.80 283.62 288.09 277.44 C 278.70 286.91 269.17 296.24 259.89 305.81 C 272.56 318.27 284.91 331.07 297.67 343.42 C 310.71 328.88 324.02 314.57 337.10 300.05 C 322.33 280.94 307.60 261.81 292.76 242.75 C 272.09 217.62 251.15 192.70 230.38 167.65 C 228.08 164.79 225.46 162.16 223.55 159.01 C 226.23 159.50 229.01 159.67 231.61 160.58 C 238.64 167.91 245.31 175.59 252.29 182.98 C 254.61 179.68 256.80 176.30 259.04 172.95 C 259.97 171.83 259.80 170.32 259.85 168.97 C 259.80 152.29 259.85 135.61 259.82 118.93 C 243.88 121.44 229.06 128.59 214.82 135.87 C 213.61 139.21 213.50 142.87 212.67 146.32 C 206.71 139.27 200.80 132.18 194.92 125.06 C 192.78 122.43 190.35 119.99 188.65 117.03 C 199.11 116.43 209.60 116.85 220.07 116.90 L 220.28 116.46 C 221.50 95.29 222.71 74.11 223.94 52.94 M 240.41 79.57 C 233.84 81.12 231.17 90.20 235.92 95.03 C 240.31 100.25 249.78 98.40 251.68 91.79 C 254.42 85.08 247.36 77.36 240.41 79.57 M 326.04 164.16 C 332.77 166.77 339.56 169.28 346.42 171.52 C 345.37 164.68 343.97 157.90 342.81 151.08 C 336.47 154.32 331.01 159.11 326.04 164.16 M 350.50 194.13 C 355.74 197.71 361.52 200.58 367.14 203.55 C 366.85 197.42 365.83 191.35 365.55 185.21 C 359.62 186.10 354.99 190.47 350.50 194.13 M 357.99 226.31 C 361.84 231.39 366.32 235.96 370.41 240.85 C 370.67 240.79 371.17 240.68 371.43 240.62 C 372.87 234.60 375.23 228.81 376.45 222.75 C 370.12 222.71 363.96 224.39 357.99 226.31 M 361.88 258.74 C 364.55 263.51 367.63 268.04 370.45 272.72 C 370.75 272.74 371.34 272.76 371.64 272.77 C 374.41 268.05 377.59 263.56 380.17 258.73 C 374.09 258.42 367.95 258.39 361.88 258.74 M 286.17 261.12 C 281.38 263.16 281.28 270.76 286.04 272.90 C 290.14 275.30 295.89 271.72 295.63 267.00 C 295.83 262.35 290.27 258.87 286.17 261.12 M 307.46 281.60 C 302.96 283.12 301.69 289.65 305.37 292.68 C 308.87 296.18 315.57 293.91 316.24 289.02 C 317.40 284.20 312.02 279.68 307.46 281.60 M 265.09 283.29 C 261.79 284.09 260.58 288.70 263.02 291.05 C 265.35 293.74 270.24 292.43 270.97 288.99 C 272.08 285.63 268.39 282.10 265.09 283.29 M 363.89 298.20 C 366.24 302.69 369.70 306.52 372.46 310.77 C 372.72 310.74 373.25 310.67 373.52 310.64 C 376.29 306.44 379.56 302.58 382.10 298.24 C 376.03 298.15 369.96 298.22 363.89 298.20 M 250.21 302.36 C 246.17 303.77 245.40 309.79 248.95 312.18 C 252.27 314.88 257.82 312.28 257.92 308.02 C 258.39 304.05 253.86 300.69 250.21 302.36 M 296.37 310.41 C 293.02 312.38 292.91 317.75 296.22 319.81 C 299.75 322.59 305.46 319.39 305.06 314.95 C 305.09 310.75 299.81 307.95 296.37 310.41 M 365.97 330.23 C 367.23 334.77 370.48 338.51 372.48 342.76 C 372.71 342.75 373.18 342.72 373.41 342.71 C 375.53 338.50 378.42 334.67 380.11 330.27 C 375.39 330.24 370.68 330.30 365.97 330.23 M 250.12 404.16 C 244.81 409.83 238.81 414.90 233.87 420.87 C 238.79 420.83 243.72 420.97 248.63 420.77 C 252.12 413.96 256.06 407.38 259.46 400.53 C 256.15 400.84 252.29 401.34 250.12 404.16 M 211.01 439.75 C 219.77 439.54 228.63 440.09 237.33 439.48 C 239.75 435.23 242.32 431.05 244.49 426.66 C 238.35 426.36 232.19 426.65 226.05 426.51 C 220.95 430.82 215.87 435.17 211.01 439.75 Z" />
<path fill="#5f83c1" opacity="1.00" d=" M 350.32 379.93 C 350.07 376.07 352.85 371.83 357.01 371.86 C 373.67 371.74 390.35 371.79 407.01 371.84 C 410.88 371.76 414.62 375.02 414.36 379.04 C 414.42 391.68 414.44 404.33 414.36 416.97 C 414.55 419.32 412.38 421.17 410.10 420.85 C 399.41 420.90 388.71 420.85 378.01 420.87 C 376.04 421.02 373.33 420.35 373.08 418.01 C 372.73 410.67 373.04 403.30 372.92 395.95 C 372.74 393.84 373.38 390.89 375.99 390.76 C 381.32 390.58 386.68 390.62 392.02 390.73 C 393.82 390.67 395.50 392.19 395.48 394.02 C 395.69 401.76 395.42 409.50 395.61 417.24 C 397.19 416.75 399.19 415.99 399.23 413.99 C 399.45 406.35 399.30 398.69 399.31 391.05 C 399.44 389.13 398.18 386.94 396.07 386.96 C 388.73 386.74 381.38 386.92 374.04 386.87 C 371.97 386.65 369.28 387.63 369.25 390.06 C 369.02 400.03 369.25 410.01 369.14 419.99 C 368.50 423.16 370.05 427.26 373.94 426.53 C 386.01 426.57 398.08 426.47 410.15 426.57 C 414.60 430.20 417.75 435.45 421.91 439.51 C 412.80 448.57 403.23 457.20 393.81 465.93 C 379.76 466.41 365.65 465.99 351.58 466.13 C 350.30 463.09 349.98 459.46 348.03 456.82 C 345.02 456.58 342.01 456.76 339.01 456.77 C 337.40 459.88 335.85 463.02 334.25 466.15 C 331.90 466.13 329.55 466.12 327.21 466.12 C 326.24 462.21 325.25 458.31 324.29 454.40 C 326.45 453.85 328.37 452.70 329.86 451.03 C 336.65 451.08 343.44 451.11 350.23 451.02 C 349.47 448.49 348.65 445.96 347.79 443.46 C 363.73 443.47 379.66 443.47 395.60 443.47 C 395.33 438.76 391.57 434.64 386.82 434.25 C 377.54 433.75 368.21 434.33 358.92 433.96 C 354.29 433.74 350.08 429.81 350.35 425.02 C 350.28 409.99 350.33 394.96 350.32 379.93 Z" />
</g>
<g id="#c2ccd6ff">
<path fill="#c2ccd6" opacity="1.00" d=" M 131.99 71.41 C 134.85 70.82 137.77 69.79 140.73 70.28 C 141.28 70.64 142.39 71.35 142.95 71.70 C 144.81 88.01 146.80 104.31 148.54 120.63 C 161.80 118.49 175.21 117.18 188.65 117.03 C 190.35 119.99 192.78 122.43 194.92 125.06 C 200.80 132.18 206.71 139.27 212.67 146.32 C 212.08 149.78 211.33 153.22 210.98 156.72 C 215.19 157.37 219.38 158.12 223.55 159.01 C 225.46 162.16 228.08 164.79 230.38 167.65 C 251.15 192.70 272.09 217.62 292.76 242.75 C 273.62 264.42 254.38 286.00 235.31 307.73 C 242.23 331.45 249.14 355.19 255.89 378.96 L 255.63 379.64 C 241.31 389.39 227.00 399.15 212.67 408.87 C 212.20 408.98 211.28 409.18 210.82 409.28 C 210.81 406.23 210.78 403.18 210.74 400.14 C 203.43 400.03 196.12 400.03 188.82 400.14 C 188.27 405.74 189.55 411.34 190.19 416.89 C 182.07 420.68 173.98 424.54 165.83 428.27 C 167.02 431.31 169.04 433.91 170.52 436.81 C 165.98 438.64 160.99 440.70 156.05 439.11 C 147.32 436.49 140.55 429.55 135.82 422.00 C 126.38 406.50 125.87 386.77 131.46 369.83 C 104.00 366.97 76.90 356.41 56.44 337.57 C 31.50 314.92 17.11 282.20 13.68 248.98 C 13.57 246.71 12.88 244.35 13.56 242.12 C 17.75 237.55 21.91 232.96 26.08 228.37 C 42.76 237.17 59.38 246.10 76.01 255.01 C 78.18 256.16 80.28 257.51 82.68 258.15 C 83.87 242.41 85.08 226.67 86.30 210.94 C 86.79 209.15 84.96 208.22 83.94 207.14 C 67.80 192.24 51.68 177.30 35.60 162.32 C 27.43 165.97 20.05 171.17 13.08 176.73 C 13.56 170.94 14.03 165.16 14.97 159.43 C 21.88 153.48 28.60 147.28 35.72 141.57 C 50.95 153.93 66.43 166.00 81.76 178.24 C 84.60 180.36 87.18 182.83 90.19 184.71 C 91.60 167.65 94.37 150.73 97.70 133.95 C 86.21 117.22 74.72 100.49 63.23 83.76 C 62.17 82.18 60.88 80.70 60.22 78.90 C 63.03 76.04 66.17 73.53 69.51 71.32 C 73.84 79.55 78.27 87.74 82.44 96.05 C 98.04 86.25 113.96 76.13 131.99 71.41 M 116.54 143.47 C 114.17 158.59 111.34 173.64 109.16 188.78 C 121.77 186.24 134.43 183.96 147.04 181.46 C 149.36 180.96 151.71 181.50 154.03 181.64 C 166.68 182.67 179.32 183.84 191.97 184.94 C 188.71 164.82 185.93 144.60 182.35 124.55 C 160.46 131.03 138.46 137.12 116.54 143.47 M 223.50 191.30 C 216.86 201.68 210.27 212.10 203.39 222.32 C 204.48 223.27 206.12 222.99 207.45 223.32 C 217.98 224.92 228.47 226.75 239.01 228.23 C 234.19 215.89 229.15 203.64 224.33 191.31 C 224.12 191.31 223.71 191.30 223.50 191.30 M 109.08 209.48 C 110.79 226.88 112.85 244.25 114.55 261.65 C 114.87 261.71 115.51 261.82 115.83 261.88 C 140.49 251.41 165.10 240.79 189.82 230.48 C 189.22 227.64 187.46 225.22 186.22 222.65 C 160.51 218.25 134.80 213.82 109.08 209.48 M 205.41 330.60 C 209.03 335.42 212.69 340.23 216.25 345.11 C 219.37 342.23 221.45 338.37 224.16 335.11 C 225.14 333.48 226.99 332.16 227.23 330.22 C 219.97 330.54 212.60 329.79 205.41 330.60 M 137.34 349.26 C 140.01 355.41 142.01 361.89 145.07 367.85 C 151.75 365.01 158.32 361.88 164.91 358.84 L 165.30 358.03 C 163.73 351.95 161.79 345.97 159.95 339.97 C 152.28 342.72 144.79 345.98 137.34 349.26 M 207.29 354.85 C 210.64 359.95 214.59 364.63 218.10 369.62 L 218.78 369.24 C 221.69 364.43 224.91 359.78 227.58 354.83 C 220.81 354.79 214.05 354.75 207.29 354.85 M 184.17 356.98 C 180.72 362.68 176.66 367.98 173.25 373.70 C 178.54 378.15 184.07 382.31 189.37 386.75 C 190.14 387.43 191.02 387.92 192.02 388.22 C 194.40 384.71 195.89 380.69 197.90 376.97 C 199.54 373.31 201.85 369.94 203.01 366.09 C 196.81 362.94 190.69 359.35 184.17 356.98 M 134.00 383.15 C 133.45 386.01 135.01 389.00 135.29 391.90 C 138.83 391.27 141.74 388.61 144.79 386.79 C 144.30 383.83 143.69 380.91 142.98 378.00 C 139.70 378.94 136.79 381.19 134.00 383.15 M 209.08 379.27 C 211.74 383.38 214.92 387.13 217.75 391.12 C 218.61 392.19 219.22 393.64 220.68 393.99 C 223.41 389.05 226.63 384.40 229.53 379.55 C 222.74 378.99 215.89 379.55 209.08 379.27 M 143.16 400.16 C 144.57 406.10 146.65 411.87 148.39 417.72 C 149.35 419.85 149.30 422.66 150.95 424.33 C 159.64 422.22 168.30 419.80 176.75 416.87 C 175.73 407.55 174.43 398.25 173.01 388.99 C 162.98 392.48 153.03 396.26 143.16 400.16 Z" />
<path fill="#c2ccd6" opacity="1.00" d=" M 316.34 370.90 C 326.44 379.32 336.50 387.81 346.53 396.32 C 346.56 405.18 346.50 414.04 346.57 422.89 C 342.79 422.73 338.99 422.41 335.24 423.00 C 335.24 426.66 335.37 430.33 335.07 433.99 C 329.47 434.23 323.86 433.82 318.26 434.22 C 318.17 439.15 318.44 444.09 318.12 449.02 C 305.75 449.29 293.37 449.04 281.00 449.18 C 279.53 448.90 277.26 449.76 276.46 448.09 C 278.08 446.98 279.75 445.96 281.44 444.97 C 289.20 445.95 297.10 445.11 304.92 445.43 C 302.63 440.33 300.20 435.25 297.37 430.43 C 299.32 429.01 301.41 427.79 303.41 426.42 C 310.85 426.61 318.31 426.59 325.75 426.44 C 322.62 421.49 319.66 416.43 316.36 411.60 C 316.45 408.39 316.36 405.18 316.37 401.98 C 320.76 398.29 325.04 394.47 329.47 390.83 C 325.39 386.75 320.85 383.12 316.37 379.48 C 316.40 376.62 316.39 373.76 316.34 370.90 M 325.98 400.17 C 325.60 405.13 325.73 410.13 325.93 415.09 C 331.53 415.15 337.22 415.60 342.77 414.87 C 342.74 410.00 342.81 405.13 342.71 400.26 C 337.14 399.93 331.56 400.09 325.98 400.17 Z" />
</g>
<g id="#a98f44ff">
<path fill="#a98f44" opacity="1.00" d=" M 240.41 79.57 C 247.36 77.36 254.42 85.08 251.68 91.79 C 249.78 98.40 240.31 100.25 235.92 95.03 C 231.17 90.20 233.84 81.12 240.41 79.57 Z" />
<path fill="#a98f44" opacity="1.00" d=" M 398.92 274.65 C 424.84 268.08 450.77 261.54 476.66 254.86 C 477.76 257.33 478.76 259.86 479.61 262.43 C 481.33 267.88 482.97 273.36 484.18 278.95 C 485.36 284.69 486.70 290.41 487.32 296.25 C 487.38 296.81 487.50 297.92 487.55 298.47 C 487.23 298.50 486.57 298.57 486.24 298.60 C 451.11 292.50 416.11 285.48 380.94 279.57 C 386.78 277.44 392.92 276.27 398.92 274.65 Z" />
<path fill="#a98f44" opacity="1.00" d=" M 382.91 337.59 C 418.41 329.93 453.76 321.50 489.27 313.83 C 490.03 319.74 489.70 325.70 490.08 331.64 C 489.77 338.52 490.12 345.41 489.88 352.30 C 469.96 349.74 450.08 346.92 430.17 344.27 C 414.43 341.94 398.59 340.27 382.91 337.59 Z" />
<path fill="#a98f44" opacity="1.00" d=" M 418.49 386.84 C 442.28 384.98 466.09 383.22 489.88 381.19 C 489.91 383.88 489.99 386.58 490.07 389.28 C 489.86 394.38 489.85 399.50 490.07 404.61 C 490.03 406.19 489.93 407.78 489.87 409.37 C 466.04 407.16 442.27 404.31 418.45 402.00 C 418.16 396.96 418.11 391.88 418.49 386.84 Z" />
<path fill="#a98f44" opacity="1.00" d=" M 414.29 426.36 C 415.48 425.19 416.69 424.03 417.85 422.82 C 417.11 424.16 416.27 425.45 415.44 426.73 C 440.29 430.08 465.02 434.46 489.89 437.56 C 489.68 443.16 489.89 448.78 489.76 454.39 C 489.34 458.42 488.43 462.39 487.13 466.23 C 485.26 470.59 482.79 474.72 479.46 478.12 C 477.48 480.11 475.32 481.92 472.99 483.49 C 467.18 487.36 460.43 489.46 453.69 490.99 C 450.11 491.58 446.51 492.01 442.91 492.30 C 437.32 492.75 431.70 492.33 426.12 492.65 C 418.70 484.44 412.09 475.53 404.99 467.04 C 403.67 465.54 402.53 463.91 401.58 462.16 C 410.38 454.85 418.89 447.18 427.59 439.75 C 423.22 435.22 418.70 430.85 414.29 426.36 Z" />
</g>
<g id="#363b42ff">
<path fill="#363b42" opacity="1.00" d=" M 205.41 330.60 C 212.60 329.79 219.97 330.54 227.23 330.22 C 226.99 332.16 225.14 333.48 224.16 335.11 C 221.45 338.37 219.37 342.23 216.25 345.11 C 212.69 340.23 209.03 335.42 205.41 330.60 Z" />
<path fill="#363b42" opacity="1.00" d=" M 207.29 354.85 C 214.05 354.75 220.81 354.79 227.58 354.83 C 224.91 359.78 221.69 364.43 218.78 369.24 L 218.10 369.62 C 214.59 364.63 210.64 359.95 207.29 354.85 Z" />
<path fill="#363b42" opacity="1.00" d=" M 209.08 379.27 C 215.89 379.55 222.74 378.99 229.53 379.55 C 226.63 384.40 223.41 389.05 220.68 393.99 C 219.22 393.64 218.61 392.19 217.75 391.12 C 214.92 387.13 211.74 383.38 209.08 379.27 Z" />
</g>
<g id="#92a5acff">
<path fill="#92a5ac" opacity="1.00" d=" M 137.34 349.26 C 144.79 345.98 152.28 342.72 159.95 339.97 C 161.79 345.97 163.73 351.95 165.30 358.03 L 164.91 358.84 C 158.32 361.88 151.75 365.01 145.07 367.85 C 142.01 361.89 140.01 355.41 137.34 349.26 Z" />
<path fill="#92a5ac" opacity="1.00" d=" M 184.17 356.98 C 190.69 359.35 196.81 362.94 203.01 366.09 C 201.85 369.94 199.54 373.31 197.90 376.97 C 195.89 380.69 194.40 384.71 192.02 388.22 C 191.02 387.92 190.14 387.43 189.37 386.75 C 184.07 382.31 178.54 378.15 173.25 373.70 C 176.66 367.98 180.72 362.68 184.17 356.98 Z" />
<path fill="#92a5ac" opacity="1.00" d=" M 134.00 383.15 C 136.79 381.19 139.70 378.94 142.98 378.00 C 143.69 380.91 144.30 383.83 144.79 386.79 C 141.74 388.61 138.83 391.27 135.29 391.90 C 135.01 389.00 133.45 386.01 134.00 383.15 Z" />
<path fill="#92a5ac" opacity="1.00" d=" M 143.16 400.16 C 153.03 396.26 162.98 392.48 173.01 388.99 C 174.43 398.25 175.73 407.55 176.75 416.87 C 168.30 419.80 159.64 422.22 150.95 424.33 C 149.30 422.66 149.35 419.85 148.39 417.72 C 146.65 411.87 144.57 406.10 143.16 400.16 Z" />
<path fill="#92a5ac" opacity="1.00" d=" M 188.82 400.14 C 196.12 400.03 203.43 400.03 210.74 400.14 C 210.78 403.18 210.81 406.23 210.82 409.28 C 207.18 410.06 203.50 410.67 199.84 411.33 C 201.15 413.72 203.22 415.54 204.84 417.71 C 203.51 418.73 202.24 419.81 200.96 420.89 C 200.44 421.22 199.40 421.87 198.88 422.20 C 197.21 419.85 195.54 417.51 193.82 415.21 C 192.61 415.76 191.39 416.32 190.19 416.89 C 189.55 411.34 188.27 405.74 188.82 400.14 Z" />
<path fill="#92a5ac" opacity="1.00" d=" M 325.98 400.17 C 331.56 400.09 337.14 399.93 342.71 400.26 C 342.81 405.13 342.74 410.00 342.77 414.87 C 337.22 415.60 331.53 415.15 325.93 415.09 C 325.73 410.13 325.60 405.13 325.98 400.17 Z" />
<path fill="#92a5ac" opacity="1.00" d=" M 335.24 423.00 C 338.99 422.41 342.79 422.73 346.57 422.89 C 346.56 428.50 346.46 434.11 346.59 439.72 C 344.93 439.84 342.97 439.25 341.70 440.66 C 337.76 444.12 333.62 447.37 329.86 451.03 C 328.37 452.70 326.45 453.85 324.29 454.40 L 323.91 453.06 C 319.47 453.05 314.77 452.41 310.47 453.38 C 308.13 456.95 305.98 460.66 303.64 464.24 C 287.92 464.27 272.21 464.32 256.49 464.21 C 262.89 458.54 269.71 453.33 276.46 448.09 C 277.26 449.76 279.53 448.90 281.00 449.18 C 293.37 449.04 305.75 449.29 318.12 449.02 C 318.44 444.09 318.17 439.15 318.26 434.22 C 323.86 433.82 329.47 434.23 335.07 433.99 C 335.37 430.33 335.24 426.66 335.24 423.00 Z" />
</g>
<g id="#8f4448ff">
<path fill="#8f4448" opacity="1.00" d=" M 379.09 471.22 C 387.05 469.74 395.32 467.59 401.58 462.16 C 402.53 463.91 403.67 465.54 404.99 467.04 C 412.09 475.53 418.70 484.44 426.12 492.65 C 425.89 492.70 425.43 492.80 425.20 492.85 C 421.73 492.57 418.26 492.51 414.79 492.59 C 409.94 492.50 405.10 492.48 400.26 492.61 C 396.35 492.55 392.43 492.56 388.52 492.61 L 388.06 492.60 C 380.39 492.31 372.71 492.52 365.04 492.51 C 357.69 492.58 350.34 492.61 343.00 492.20 C 337.36 492.85 331.70 492.40 326.05 492.56 C 322.95 492.57 319.85 492.60 316.75 492.59 C 311.27 492.51 305.78 492.46 300.30 492.62 C 288.14 492.43 275.98 492.43 263.82 492.52 C 259.66 492.55 255.49 492.48 251.34 492.61 C 247.42 492.54 243.51 492.55 239.60 492.63 C 234.39 492.48 229.19 492.60 224.00 492.21 C 213.63 493.02 203.24 491.95 192.87 492.56 C 190.77 492.57 188.67 492.65 186.58 492.64 C 183.67 492.46 180.77 492.51 177.88 492.81 C 177.24 492.76 175.96 492.67 175.33 492.62 C 173.52 492.57 171.72 492.60 169.92 492.68 C 182.10 488.92 194.64 486.44 207.06 483.60 C 229.49 478.99 252.10 474.56 275.05 473.78 C 291.68 473.53 308.32 473.73 324.95 473.67 C 343.01 473.48 361.23 474.60 379.09 471.22 Z" />
</g>
</svg>
