<?xml version="1.0" encoding="UTF-8" ?>
<!DOCTYPE svg PUBLIC "-//W3C//DTD SVG 1.1//EN" "http://www.w3.org/Graphics/SVG/1.1/DTD/svg11.dtd">
<svg width="464pt" height="475pt" viewBox="0 0 464 475" version="1.1" xmlns="http://www.w3.org/2000/svg">
<g id="#93615bff">
<path fill="#93615b" opacity="1.00" d=" M 310.19 0.00 L 314.78 0.00 C 332.49 0.26 350.29 0.89 367.81 3.71 C 369.39 6.45 371.14 9.09 372.87 11.74 C 370.28 14.91 367.56 17.97 364.85 21.04 C 335.03 22.35 305.29 26.02 276.10 32.28 C 252.52 37.39 229.10 44.28 207.67 55.58 C 198.96 60.00 190.70 65.43 183.50 72.06 C 186.63 75.64 191.71 75.92 196.09 76.57 C 210.39 77.49 224.74 77.08 239.05 77.96 C 250.68 78.76 262.35 78.76 274.00 78.89 C 283.32 79.61 292.67 79.15 302.00 79.06 C 330.43 78.56 359.02 79.76 387.04 84.89 C 391.20 85.69 395.32 86.94 399.61 86.66 C 403.06 88.58 407.01 89.12 410.66 90.54 C 411.81 92.82 413.24 94.95 414.83 96.96 C 414.11 98.12 413.38 99.27 412.67 100.43 C 379.67 94.96 346.38 90.98 312.96 89.23 C 291.34 88.50 269.58 88.30 248.06 90.78 C 243.70 91.78 237.82 91.50 235.34 95.93 C 239.98 99.78 245.34 102.60 250.72 105.27 C 260.50 109.93 270.55 114.16 281.11 116.73 C 299.07 120.93 317.01 125.22 335.08 128.89 C 341.33 130.15 347.71 130.69 353.94 132.04 C 365.36 134.57 376.56 138.04 388.05 140.23 C 390.87 140.82 393.77 140.80 396.64 140.90 C 397.86 141.33 399.05 141.85 400.22 142.43 C 401.59 144.85 402.94 147.27 404.18 149.75 C 403.34 150.71 402.44 151.61 401.66 152.62 C 397.58 151.10 393.16 151.19 388.98 150.09 C 379.19 147.59 369.69 144.09 360.15 140.82 C 357.50 139.91 354.75 139.29 351.99 138.90 C 344.13 137.78 336.61 135.14 328.90 133.32 C 312.49 129.46 295.67 125.99 278.72 127.29 C 279.87 129.09 281.10 130.86 282.61 132.40 C 294.85 145.07 309.10 155.61 324.00 164.93 C 326.26 166.32 328.45 167.81 330.56 169.41 C 321.83 171.03 312.63 171.53 304.55 175.52 C 299.32 178.94 296.11 184.58 292.70 189.66 C 290.13 193.26 289.52 198.09 285.94 200.96 C 276.83 209.30 267.47 217.43 257.69 224.97 C 258.42 220.32 259.29 215.37 257.09 210.96 C 258.15 208.79 259.49 206.78 261.03 204.93 C 259.57 202.19 257.88 199.59 256.24 196.97 C 254.88 194.41 253.89 191.69 252.89 188.98 C 252.18 187.07 251.44 185.17 250.73 183.26 C 249.79 180.69 248.91 178.10 248.24 175.45 C 248.23 170.79 248.07 165.76 250.52 161.60 C 251.99 158.92 254.70 157.33 257.24 155.79 C 258.74 148.79 255.32 141.99 251.79 136.18 C 249.76 132.87 247.10 130.01 244.05 127.62 C 235.86 120.05 226.81 113.24 216.64 108.54 C 202.75 101.93 187.27 99.40 171.98 99.23 C 157.59 99.06 142.98 100.61 129.42 105.68 C 116.67 110.43 105.06 117.83 94.45 126.26 C 84.53 128.39 74.23 128.35 64.13 128.05 C 60.50 117.80 59.25 106.75 59.73 95.92 C 61.23 91.21 64.87 87.64 68.65 84.65 C 73.72 80.70 79.33 77.52 85.08 74.68 C 86.67 80.46 88.31 86.36 91.55 91.47 C 92.57 92.96 94.01 94.68 96.02 94.51 C 100.40 94.38 104.53 92.61 108.89 92.36 C 111.83 92.06 114.85 92.49 117.74 91.75 C 120.44 90.64 122.29 88.25 124.42 86.36 C 127.29 83.55 130.87 81.56 133.58 78.58 C 134.85 77.16 135.83 74.95 134.74 73.15 C 131.48 67.63 133.46 60.93 132.87 54.87 C 137.91 51.75 143.43 49.50 149.10 47.79 C 151.53 51.46 153.73 55.29 156.04 59.04 C 156.83 60.16 157.47 61.78 159.10 61.76 C 163.16 61.82 167.12 60.73 171.04 59.78 C 177.87 57.93 184.77 55.73 190.68 51.73 C 192.94 50.11 195.30 48.01 195.76 45.12 C 196.11 39.08 194.39 33.04 191.28 27.89 C 196.87 23.82 203.06 19.88 210.01 18.89 C 213.49 22.89 214.81 28.53 219.14 31.83 C 223.35 34.99 229.02 33.90 233.74 32.72 C 235.68 32.44 236.79 30.86 237.24 29.08 C 241.19 27.56 245.03 25.63 248.32 22.92 C 248.32 24.69 248.32 26.45 248.35 28.21 C 250.39 27.59 253.11 27.23 253.87 24.86 C 254.53 19.72 253.97 14.50 254.16 9.32 C 272.19 3.29 291.20 0.36 310.19 0.00 M 321.96 8.21 C 321.12 10.80 320.81 13.52 320.76 16.23 C 325.27 14.85 329.98 13.80 334.11 11.45 C 330.09 10.23 326.04 9.17 321.96 8.21 M 344.01 8.19 C 342.97 10.37 342.18 12.66 341.84 15.06 C 345.30 14.20 348.68 13.04 351.97 11.65 C 349.41 10.28 346.73 9.17 344.01 8.19 M 296.08 10.80 C 296.45 14.16 296.80 17.53 297.16 20.89 C 301.75 18.89 306.51 16.97 310.56 13.99 C 305.84 12.56 301.02 11.14 296.08 10.80 M 270.68 13.94 C 271.00 17.85 271.80 21.71 272.88 25.48 C 277.59 22.77 282.33 19.91 286.36 16.26 C 281.16 15.35 275.91 14.71 270.68 13.94 Z" />
<path fill="#93615b" opacity="1.00" d=" M 347.35 167.51 C 351.13 166.42 355.13 167.00 359.02 166.88 C 354.34 172.04 349.77 177.54 347.23 184.11 C 345.05 190.09 346.72 196.71 349.77 202.07 C 348.74 204.69 345.24 204.25 342.98 203.99 C 334.70 202.50 326.51 200.42 318.13 199.49 C 310.44 198.81 302.49 197.43 294.90 199.54 C 297.45 194.12 300.28 188.74 304.32 184.27 C 306.38 182.11 308.91 179.96 312.04 179.81 C 317.73 179.50 323.52 180.01 329.14 178.81 C 331.78 178.34 333.52 176.12 335.51 174.53 C 339.06 171.61 342.95 168.95 347.35 167.51 M 314.27 188.36 C 312.84 190.23 313.46 192.74 313.74 194.88 C 316.18 194.68 318.69 194.76 321.08 194.14 C 323.24 192.43 322.49 189.24 322.88 186.84 C 320.00 186.98 316.80 186.73 314.27 188.36 M 329.08 191.03 C 329.04 193.90 330.36 196.74 332.26 198.84 C 333.89 200.55 336.20 198.62 337.70 197.64 C 340.95 194.64 337.41 190.35 336.72 186.92 C 333.79 187.21 330.73 188.55 329.08 191.03 Z" />
<path fill="#93615b" opacity="1.00" d=" M 358.55 177.55 C 360.79 172.20 365.98 167.79 372.02 168.08 C 382.79 168.19 394.41 169.31 403.32 175.96 C 403.11 185.42 401.41 195.69 395.13 203.13 C 382.35 203.01 369.57 203.05 356.80 203.11 C 354.83 194.71 355.13 185.54 358.55 177.55 M 368.17 187.15 C 365.23 190.31 363.47 194.33 361.50 198.12 C 363.75 200.07 366.79 200.43 369.63 200.74 C 372.13 197.64 375.33 194.18 375.13 189.99 C 373.23 188.35 370.81 186.67 368.17 187.15 M 385.18 191.26 C 384.25 193.70 385.34 196.44 386.23 198.77 C 387.49 198.62 388.77 198.51 390.03 198.24 C 394.89 197.67 393.01 191.27 393.03 187.91 C 390.18 188.33 387.39 189.38 385.18 191.26 Z" />
<path fill="#93615b" opacity="1.00" d=" M 413.40 177.38 C 415.88 174.97 418.95 177.33 421.31 178.65 C 432.98 185.96 443.37 195.50 451.12 206.92 C 456.69 215.08 460.39 224.66 460.57 234.62 C 450.72 229.65 440.72 224.73 430.00 221.97 C 427.67 221.23 425.75 219.66 423.59 218.59 C 423.09 212.81 423.85 207.03 423.71 201.24 C 417.71 201.21 411.71 201.47 405.72 201.22 L 404.52 201.16 C 406.20 192.94 407.05 183.51 413.40 177.38 Z" />
<path fill="#93615b" opacity="1.00" d=" M 190.74 184.91 C 197.37 188.63 204.29 191.81 211.31 194.70 C 212.18 195.17 213.39 195.40 213.75 196.46 C 202.25 204.36 191.52 213.51 182.59 224.29 C 177.88 221.27 172.69 218.62 167.03 218.18 C 164.80 217.91 161.49 217.72 160.93 214.99 C 160.86 209.73 163.84 205.03 167.18 201.20 C 173.62 194.02 181.99 188.83 190.74 184.91 M 192.40 197.50 C 193.59 199.96 194.66 202.47 195.68 205.00 C 198.03 203.57 199.78 201.42 201.61 199.41 C 200.36 197.39 199.79 194.70 198.03 193.13 C 195.81 194.08 194.15 195.92 192.40 197.50 M 185.37 203.19 C 183.05 205.01 180.79 206.91 178.65 208.94 C 180.40 210.89 182.25 212.75 184.17 214.53 C 186.19 212.78 188.09 210.90 189.88 208.91 C 188.46 206.94 186.96 205.02 185.37 203.19 Z" />
<path fill="#93615b" opacity="1.00" d=" M 287.02 210.01 C 293.22 206.93 300.12 205.21 307.06 205.42 C 322.49 205.68 338.41 206.28 352.88 212.20 C 359.80 214.90 365.61 219.85 369.95 225.82 C 375.84 237.70 376.16 251.37 374.48 264.29 C 373.72 269.41 372.00 274.57 368.56 278.55 C 365.53 281.97 361.44 284.16 357.56 286.47 C 346.22 292.69 336.18 300.97 326.36 309.32 C 318.18 316.25 311.35 325.90 311.26 337.01 C 310.69 342.08 313.68 346.45 316.49 350.36 C 313.48 351.50 310.26 352.50 307.00 352.11 C 304.24 351.60 301.82 349.82 298.93 349.83 C 295.10 349.35 290.53 350.39 287.45 347.49 C 284.20 343.84 284.55 338.53 284.48 333.97 C 284.69 328.42 284.41 321.91 288.77 317.76 C 300.96 306.03 317.15 299.27 328.69 286.77 C 333.34 281.73 336.57 274.95 335.65 267.95 C 334.87 258.13 331.48 247.79 323.82 241.19 C 319.05 236.91 312.10 237.79 306.49 239.63 C 296.79 242.94 288.83 249.65 280.43 255.27 C 276.22 257.79 275.34 263.55 277.27 267.78 C 279.55 273.07 282.82 278.18 287.42 281.74 C 289.64 283.59 291.96 281.00 293.48 279.50 C 296.05 276.43 299.00 273.12 299.59 269.04 C 297.64 265.90 293.74 268.34 292.46 270.79 C 290.24 269.40 288.48 266.71 289.38 264.03 C 291.07 261.18 294.13 259.56 296.80 257.76 C 302.26 254.54 307.88 251.43 313.98 249.62 C 318.68 253.38 322.53 258.19 325.49 263.42 C 327.42 266.36 325.67 269.79 324.85 272.80 C 323.62 276.12 323.16 279.90 320.65 282.59 C 316.38 287.68 311.61 292.46 306.01 296.08 C 303.11 298.15 299.41 297.54 296.08 297.93 C 289.90 298.23 283.43 299.83 277.46 297.49 C 264.65 292.88 253.32 282.64 249.67 269.25 C 247.34 260.39 248.11 250.77 251.32 242.23 C 253.01 237.38 257.04 234.05 260.54 230.53 C 268.51 222.69 276.90 214.98 287.02 210.01 M 305.63 214.55 C 305.52 214.79 305.28 215.29 305.16 215.54 C 308.85 218.63 312.62 221.65 316.33 224.72 C 316.60 224.67 317.14 224.55 317.41 224.50 C 319.73 220.25 321.99 215.94 323.74 211.42 C 317.67 212.24 311.62 213.27 305.63 214.55 M 279.89 227.66 C 284.92 228.81 289.93 230.07 295.01 231.01 C 294.33 226.36 293.51 221.73 292.71 217.11 C 288.28 220.42 283.94 223.88 279.89 227.66 M 323.09 227.38 C 327.72 233.11 332.69 238.66 338.16 243.61 C 340.98 235.37 343.59 227.03 346.11 218.69 C 338.21 220.81 330.86 224.74 323.09 227.38 M 347.85 232.22 C 349.45 240.08 352.92 247.47 355.31 255.13 C 357.72 253.59 359.09 251.00 360.85 248.84 C 364.06 244.54 367.59 240.46 370.41 235.88 C 362.99 234.10 355.35 233.49 347.85 232.22 M 269.23 235.83 C 268.40 239.97 267.62 244.13 267.01 248.31 C 271.05 247.08 274.67 244.82 278.41 242.89 C 275.81 239.99 272.45 237.94 269.23 235.83 M 340.67 254.68 C 343.19 263.56 346.76 272.12 349.42 280.97 C 351.71 279.39 353.10 276.93 354.79 274.79 C 358.13 270.28 361.82 266.03 364.87 261.32 C 356.79 259.16 348.87 256.33 340.67 254.68 M 258.79 256.86 C 260.55 261.69 261.19 267.04 263.77 271.51 C 265.99 267.00 268.53 262.63 270.30 257.91 C 266.46 257.53 262.64 256.94 258.79 256.86 M 265.99 282.66 C 268.99 283.34 271.98 284.06 274.97 284.80 C 274.57 282.06 273.80 279.39 272.88 276.79 C 270.32 278.41 267.88 280.26 265.99 282.66 M 284.55 285.42 C 284.39 288.12 284.41 290.82 284.61 293.52 C 286.91 292.72 288.74 291.09 290.23 289.21 C 288.48 287.75 286.82 286.03 284.55 285.42 Z" />
<path fill="#93615b" opacity="1.00" d=" M 184.04 225.09 C 194.94 222.21 206.39 219.50 217.71 221.32 C 210.04 225.44 202.88 230.43 195.94 235.65 C 192.80 231.30 188.63 227.80 184.04 225.09 Z" />
<path fill="#93615b" opacity="1.00" d=" M 152.66 242.65 C 152.97 235.29 155.24 228.14 158.64 221.63 C 164.86 221.91 170.70 224.56 175.52 228.41 C 181.28 232.52 186.29 238.50 193.70 239.52 C 192.65 244.38 190.86 249.03 189.78 253.88 C 182.93 257.53 175.28 259.25 167.88 261.43 C 168.40 256.95 169.12 252.45 168.96 247.93 C 168.83 245.40 166.82 243.43 164.59 242.52 C 160.77 240.95 156.52 241.63 152.66 242.65 M 172.90 247.02 C 174.03 249.56 176.45 251.20 178.53 252.93 C 179.52 249.78 181.59 246.75 181.57 243.41 C 179.12 241.16 176.33 239.32 173.78 237.18 C 172.54 240.28 172.29 243.74 172.90 247.02 Z" />
<path fill="#93615b" opacity="1.00" d=" M 428.92 227.53 C 432.52 228.48 435.80 230.26 439.11 231.94 C 445.77 235.01 452.52 238.13 458.38 242.64 C 460.63 244.44 463.21 246.74 462.88 249.94 C 462.91 259.32 463.43 268.80 461.92 278.11 C 461.59 281.55 459.33 284.48 456.62 286.47 C 454.34 287.90 451.68 286.64 449.68 285.35 C 442.86 281.06 436.69 275.67 431.71 269.34 C 429.69 267.10 429.51 263.96 429.06 261.13 C 433.60 256.56 438.10 251.96 442.61 247.37 C 438.10 241.61 433.27 236.08 429.20 229.99 C 429.13 229.38 428.99 228.14 428.92 227.53 Z" />
<path fill="#93615b" opacity="1.00" d=" M 119.67 237.59 C 120.10 243.99 120.35 250.47 119.73 256.85 C 117.58 261.53 114.23 265.57 112.07 270.27 C 107.93 275.64 103.56 281.00 97.97 284.94 C 93.94 287.95 87.68 287.13 84.75 291.72 C 83.43 295.07 83.83 299.34 80.89 301.89 C 78.22 303.70 75.02 304.56 72.37 306.41 C 69.98 307.81 67.86 309.96 65.05 310.45 C 62.52 309.50 60.62 307.45 58.47 305.87 C 58.30 308.14 58.54 310.53 57.70 312.70 C 55.60 317.13 51.29 319.99 49.08 324.36 C 57.41 324.56 65.74 324.38 74.07 324.45 C 77.96 324.42 81.93 324.60 85.74 323.66 C 89.92 322.56 92.58 318.49 96.88 317.67 C 100.35 316.85 103.95 316.57 107.31 315.34 C 114.33 312.98 118.46 306.20 125.04 303.06 C 130.61 299.56 137.34 298.48 142.78 294.79 C 146.94 291.27 151.81 288.79 156.41 285.92 C 158.09 284.98 159.83 284.12 161.62 283.41 C 171.93 281.18 182.14 276.38 192.92 278.23 C 196.50 278.64 200.50 280.97 200.32 285.06 C 200.54 295.23 200.32 306.83 192.87 314.69 C 192.61 314.80 192.08 315.00 191.82 315.10 C 183.68 316.22 175.44 316.78 167.39 318.47 C 162.13 319.55 156.61 322.18 154.47 327.46 C 150.58 336.76 149.94 347.04 149.35 357.00 C 149.29 358.42 149.26 359.85 149.25 361.29 C 147.43 360.23 145.68 358.95 143.65 358.35 C 141.09 358.48 138.97 360.36 136.44 360.68 C 133.30 360.43 130.24 359.28 127.06 359.55 C 123.98 359.83 120.94 360.48 117.84 360.54 C 117.25 357.72 119.35 355.58 120.04 353.03 C 120.49 350.74 118.06 349.66 116.39 348.89 C 116.60 344.59 117.82 340.47 118.73 336.30 C 118.51 336.01 118.08 335.41 117.87 335.12 C 114.59 334.86 111.39 336.27 108.13 335.84 C 105.03 333.56 106.46 329.37 106.89 326.20 C 100.19 328.67 92.99 327.80 86.01 327.93 C 76.05 328.16 66.02 327.29 56.12 328.80 C 51.77 329.31 46.45 329.91 43.61 325.77 C 46.21 319.17 53.23 315.41 55.96 309.00 C 54.20 304.68 50.30 301.49 49.05 296.94 C 48.66 295.28 50.73 294.58 51.79 293.80 C 59.70 289.80 68.33 287.37 76.97 285.52 C 83.75 281.35 89.06 275.17 94.12 269.10 C 97.99 264.72 99.76 258.97 103.56 254.54 C 108.50 248.51 113.79 242.71 119.67 237.59 Z" />
<path fill="#93615b" opacity="1.00" d=" M 142.35 254.69 C 146.90 254.84 151.37 253.89 155.86 253.28 C 155.94 261.77 155.47 270.28 154.83 278.75 C 153.73 279.27 152.63 279.80 151.52 280.32 C 147.90 282.12 143.85 283.12 140.48 285.40 C 139.52 287.31 139.01 289.41 138.36 291.44 C 126.94 294.61 116.22 299.70 105.34 304.29 C 103.00 305.35 100.48 305.90 97.94 306.21 C 98.26 302.76 98.42 299.16 99.98 296.00 C 101.51 293.60 104.10 292.11 105.67 289.72 C 111.23 280.60 118.88 272.99 126.59 265.68 C 130.92 261.47 136.05 258.27 141.27 255.29 C 141.54 255.14 142.08 254.84 142.35 254.69 Z" />
<path fill="#93615b" opacity="1.00" d=" M 424.37 276.48 C 427.77 280.71 432.84 282.88 437.33 285.71 C 444.40 290.10 451.80 294.31 457.59 300.40 C 461.30 304.21 463.32 309.31 464.00 314.53 L 464.00 317.78 C 462.88 324.24 459.71 330.45 455.10 335.11 C 452.49 337.72 449.41 334.30 447.68 332.34 C 441.19 324.39 433.27 317.72 424.37 312.63 C 424.33 309.79 424.21 306.94 424.34 304.10 L 424.56 303.46 C 424.77 304.30 425.17 305.97 425.38 306.81 C 428.06 303.14 431.36 300.00 434.34 296.59 C 431.69 292.12 428.19 288.21 425.18 283.99 C 424.99 287.09 424.90 290.21 424.93 293.32 L 424.29 292.63 C 423.69 287.25 424.55 281.87 424.37 276.48 Z" />
<path fill="#93615b" opacity="1.00" d=" M 10.86 304.54 C 20.29 303.44 29.55 301.28 38.95 300.07 C 43.91 298.74 49.72 305.01 46.71 309.58 C 41.95 319.17 36.38 328.39 29.84 336.88 C 23.52 344.92 15.72 352.08 11.62 361.65 C 5.04 352.48 1.03 341.39 1.20 330.03 C 1.42 323.36 0.27 316.42 2.45 309.98 C 3.72 306.50 7.40 304.84 10.86 304.54 M 16.37 316.24 C 14.93 319.99 15.41 324.54 17.54 327.96 C 20.63 324.09 23.22 319.73 24.40 314.88 C 21.68 314.59 18.73 314.69 16.37 316.24 Z" />
<path fill="#93615b" opacity="1.00" d=" M 168.65 327.50 C 177.01 325.30 185.49 323.45 194.06 322.32 C 190.98 324.73 187.00 325.51 183.87 327.85 C 181.23 329.81 178.52 331.77 176.44 334.34 C 175.06 336.53 177.71 339.14 180.01 338.32 C 185.00 337.00 188.76 333.21 193.23 330.84 C 191.34 335.64 187.56 339.35 183.91 342.85 C 181.87 345.09 178.61 344.00 175.95 344.38 C 170.22 344.41 165.41 347.88 160.95 351.09 C 160.88 344.20 161.50 337.21 163.60 330.63 C 164.12 328.35 166.83 328.20 168.65 327.50 Z" />
<path fill="#93615b" opacity="1.00" d=" M 424.27 330.28 C 429.48 330.86 432.57 335.61 436.34 338.69 C 442.88 345.16 452.89 346.93 458.55 354.44 C 462.70 359.74 462.35 367.34 459.14 373.01 C 456.22 378.81 452.10 383.89 447.73 388.65 C 440.43 380.79 432.61 373.43 424.49 366.44 C 424.48 364.02 424.45 361.59 424.44 359.18 C 428.12 356.01 431.99 353.10 435.74 350.02 C 431.88 345.66 428.25 341.12 424.46 336.71 C 424.44 334.56 424.40 332.42 424.27 330.28 Z" />
<path fill="#93615b" opacity="1.00" d=" M 422.11 377.00 C 425.76 376.97 428.65 379.55 431.46 381.55 C 443.08 390.85 452.19 404.10 454.26 419.06 C 454.81 423.99 454.82 428.99 454.52 433.94 C 453.58 437.77 449.25 439.21 447.26 442.37 C 444.68 446.58 441.82 450.91 437.48 453.49 C 433.36 454.60 429.02 454.94 425.02 456.52 C 420.65 457.81 418.03 461.97 413.79 463.54 C 411.41 455.56 410.43 447.22 409.35 438.98 C 408.44 436.29 411.19 434.88 412.90 433.47 C 416.41 430.78 419.29 427.28 421.33 423.36 C 422.29 420.88 422.15 418.14 422.60 415.56 C 427.45 414.68 430.35 409.83 434.49 407.44 C 430.80 403.23 427.05 399.08 423.29 394.95 C 423.01 388.97 424.07 382.78 422.11 377.00 Z" />
<path fill="#93615b" opacity="1.00" d=" M 125.04 418.83 C 128.11 415.59 132.86 415.86 136.96 415.72 C 140.07 415.86 143.69 415.53 146.17 417.79 C 153.14 423.53 159.33 430.24 166.94 435.16 C 171.59 439.32 173.99 445.84 173.72 452.02 C 173.70 456.14 173.70 460.26 173.71 464.38 C 167.26 466.04 161.16 469.28 154.39 469.48 C 156.18 467.54 158.52 466.33 160.98 465.47 C 158.27 460.55 154.23 456.55 151.13 451.90 C 147.25 446.92 143.24 441.09 136.86 439.25 C 131.75 437.80 127.02 441.18 123.70 444.71 C 118.87 449.88 114.77 456.12 113.35 463.14 C 112.69 465.70 114.03 468.07 115.14 470.27 C 106.47 470.19 96.39 471.47 89.13 465.77 C 87.28 459.03 92.15 452.35 96.87 447.84 C 106.86 438.76 115.03 427.88 125.04 418.83 M 139.44 424.38 C 137.79 425.36 136.72 427.19 136.36 429.05 C 136.92 431.17 138.40 433.89 140.94 433.75 C 144.69 434.52 148.09 430.15 146.26 426.74 C 145.22 423.99 141.88 423.79 139.44 424.38 M 116.32 432.42 C 114.09 433.54 112.61 436.12 113.54 438.60 C 114.42 442.54 120.72 443.07 122.54 439.66 C 125.62 435.92 120.54 430.41 116.32 432.42 M 158.30 436.48 C 155.94 437.14 153.54 439.20 154.27 441.92 C 154.34 445.08 158.54 446.75 160.96 444.91 C 164.79 442.92 162.47 436.36 158.30 436.48 M 100.39 452.55 C 96.55 454.97 98.06 462.20 103.03 461.79 C 108.18 462.79 109.76 454.49 105.59 452.46 C 103.90 452.05 102.05 451.97 100.39 452.55 M 163.36 452.43 C 160.56 453.83 160.40 458.37 162.92 460.11 C 165.86 462.06 170.62 459.85 169.80 455.99 C 169.97 452.59 166.06 451.39 163.36 452.43 Z" />
<path fill="#93615b" opacity="1.00" d=" M 405.60 438.31 C 405.79 443.87 405.68 449.44 405.71 455.01 C 406.01 457.91 404.04 460.28 402.29 462.34 C 398.58 466.39 394.06 469.83 388.92 471.82 C 382.88 474.13 375.25 471.53 372.39 465.60 C 368.43 458.00 370.00 449.16 369.43 440.95 C 371.85 441.83 374.36 442.58 376.97 442.44 C 379.33 446.08 381.38 449.90 383.58 453.62 C 387.17 449.87 390.98 446.32 394.37 442.38 C 397.81 442.01 401.32 441.69 404.60 440.49 C 404.85 439.94 405.35 438.86 405.60 438.31 Z" />
<path fill="#93615b" opacity="1.00" d=" M 318.32 439.38 C 318.58 445.92 319.18 452.45 319.36 459.00 C 319.56 460.98 318.35 462.66 317.23 464.16 C 313.02 469.48 307.12 473.61 300.40 475.00 L 296.54 475.00 C 289.51 473.82 282.94 470.15 278.14 464.90 C 275.87 462.56 275.60 459.16 275.07 456.12 C 274.34 450.83 273.25 445.30 275.05 440.10 C 281.08 442.80 287.73 442.45 294.17 442.23 C 292.82 442.51 291.49 442.86 290.17 443.20 C 292.92 447.08 295.60 451.03 298.54 454.78 C 301.36 450.25 305.35 446.47 307.60 441.59 C 311.13 440.75 315.48 442.18 318.32 439.38 Z" />
<path fill="#93615b" opacity="1.00" d=" M 326.28 461.11 C 325.52 454.25 326.19 447.34 326.38 440.47 C 328.71 444.09 333.42 442.72 336.82 444.34 C 338.61 447.90 340.82 451.21 342.69 454.73 C 345.81 451.17 349.23 447.87 352.26 444.23 C 354.99 443.46 357.82 443.03 360.53 442.15 C 361.80 448.99 362.51 455.99 362.44 462.95 C 359.59 467.31 354.63 469.72 349.95 471.61 C 344.51 473.87 338.56 471.81 333.58 469.34 C 330.36 467.57 326.60 465.15 326.28 461.11 Z" />
<path fill="#93615b" opacity="1.00" d=" M 191.88 441.14 L 192.04 441.09 L 192.32 441.21 C 194.62 442.51 197.29 442.53 199.86 442.50 L 200.12 442.75 C 202.25 446.74 204.08 450.89 206.47 454.74 C 209.96 450.93 213.22 446.91 216.79 443.18 C 215.85 442.87 214.90 442.57 213.96 442.30 C 219.62 442.37 225.30 442.42 230.90 441.48 C 232.48 447.30 233.92 453.83 231.52 459.63 C 228.27 465.34 222.93 469.80 216.98 472.51 C 211.25 475.16 204.71 473.27 199.42 470.47 C 194.02 467.59 189.03 463.48 186.17 457.97 C 183.37 452.56 179.70 447.71 176.42 442.61 C 181.60 444.00 187.02 443.29 191.88 441.14 Z" />
<path fill="#93615b" opacity="1.00" d=" M 236.71 461.05 C 236.85 454.41 237.44 447.79 237.78 441.15 C 240.64 442.39 243.75 442.61 246.83 442.43 C 249.07 446.30 251.57 450.01 254.19 453.62 C 257.17 449.86 260.04 446.02 263.22 442.43 C 264.92 442.10 266.61 441.68 268.29 441.26 C 269.22 447.09 269.41 453.06 269.16 458.96 C 265.65 465.29 260.27 470.53 254.62 475.00 L 253.74 475.00 C 248.96 473.23 244.53 470.58 240.55 467.42 C 238.64 465.81 236.33 463.83 236.71 461.05 Z" />
<path fill="#93615b" opacity="1.00" d=" M 67.12 455.25 C 70.92 453.36 74.77 451.53 78.79 450.16 C 76.90 455.71 75.39 461.37 73.49 466.92 C 70.99 463.26 68.78 459.37 67.12 455.25 Z" />
<path fill="#93615b" opacity="1.00" d=" M 46.18 461.72 C 49.80 458.26 53.28 454.66 56.85 451.14 C 58.07 454.18 59.18 457.29 59.88 460.50 C 55.33 461.14 50.78 461.82 46.18 461.72 Z" />
</g>
<g id="#6c373bff">
<path fill="#6c373b" opacity="1.00" d=" M 193.73 4.66 C 209.23 -0.77 226.91 0.20 241.69 7.39 C 245.07 9.21 248.72 11.40 250.29 15.09 C 251.47 17.87 249.84 20.67 248.32 22.92 C 245.03 25.63 241.19 27.56 237.24 29.08 C 232.36 30.27 226.86 31.23 222.19 28.80 C 218.34 26.88 219.94 21.67 217.13 18.92 C 211.10 11.79 202.35 7.74 193.73 4.66 M 230.98 13.06 C 230.29 15.74 229.84 18.59 230.59 21.31 C 232.96 22.78 235.98 21.17 238.34 20.31 C 239.54 19.54 241.83 18.82 241.71 17.17 C 238.62 14.84 234.81 13.53 230.98 13.06 Z" />
<path fill="#6c373b" opacity="1.00" d=" M 367.81 3.71 C 374.38 5.54 380.89 7.66 387.11 10.48 C 386.94 10.65 386.60 11.01 386.43 11.19 C 382.53 10.94 378.55 10.71 374.76 11.90 C 376.30 14.31 378.12 16.53 380.15 18.55 C 378.91 19.87 377.63 21.13 376.44 22.48 C 372.62 21.69 368.74 21.27 364.85 21.04 C 367.56 17.97 370.28 14.91 372.87 11.74 C 371.14 9.09 369.39 6.45 367.81 3.71 Z" />
<path fill="#6c373b" opacity="1.00" d=" M 321.96 8.21 C 326.04 9.17 330.09 10.23 334.11 11.45 C 329.98 13.80 325.27 14.85 320.76 16.23 C 320.81 13.52 321.12 10.80 321.96 8.21 Z" />
<path fill="#6c373b" opacity="1.00" d=" M 344.01 8.19 C 346.73 9.17 349.41 10.28 351.97 11.65 C 348.68 13.04 345.30 14.20 341.84 15.06 C 342.18 12.66 342.97 10.37 344.01 8.19 Z" />
<path fill="#6c373b" opacity="1.00" d=" M 296.08 10.80 C 301.02 11.14 305.84 12.56 310.56 13.99 C 306.51 16.97 301.75 18.89 297.16 20.89 C 296.80 17.53 296.45 14.16 296.08 10.80 Z" />
<path fill="#6c373b" opacity="1.00" d=" M 270.68 13.94 C 275.91 14.71 281.16 15.35 286.36 16.26 C 282.33 19.91 277.59 22.77 272.88 25.48 C 271.80 21.71 271.00 17.85 270.68 13.94 Z" />
<path fill="#6c373b" opacity="1.00" d=" M 118.91 24.50 C 126.09 19.96 134.60 18.22 142.91 17.09 C 152.01 16.19 161.51 15.55 170.31 18.55 C 179.03 21.46 186.73 28.21 189.68 37.04 C 190.63 38.93 189.10 40.60 188.08 42.04 C 181.87 49.90 172.02 54.93 161.95 54.80 C 158.40 54.77 155.18 52.53 153.30 49.61 C 151.26 46.88 152.15 42.92 149.64 40.45 C 141.67 31.76 130.29 26.84 118.91 24.50 M 165.39 33.33 C 163.35 38.24 162.32 43.58 162.15 48.88 C 169.38 47.03 176.08 43.24 181.96 38.69 C 177.55 34.94 171.08 32.24 165.39 33.33 Z" />
<path fill="#6c373b" opacity="1.00" d=" M 359.61 32.48 C 362.51 31.36 365.41 30.19 368.43 29.37 C 368.52 31.98 368.47 34.59 368.31 37.20 C 365.34 35.77 362.14 34.65 359.61 32.48 Z" />
<path fill="#6c373b" opacity="1.00" d=" M 43.28 66.26 C 54.36 51.27 72.52 42.29 90.98 41.11 C 100.03 40.39 109.93 41.06 117.47 46.65 C 123.56 51.07 126.55 58.61 126.96 65.94 C 127.66 71.82 125.08 77.75 120.89 81.82 C 115.57 87.03 107.33 88.72 100.26 86.67 C 95.77 85.35 92.33 81.54 90.97 77.13 C 89.91 74.35 90.11 71.29 89.32 68.46 C 88.03 66.23 85.41 65.28 83.08 64.54 C 76.57 62.70 69.71 63.02 63.02 63.17 C 56.35 63.32 49.59 63.95 43.28 66.26 M 107.19 61.99 C 105.45 67.49 103.15 73.16 103.99 79.03 C 106.69 78.78 109.27 77.86 111.60 76.50 C 114.72 74.69 118.19 73.11 120.21 69.97 C 116.78 66.20 112.39 62.66 107.19 61.99 Z" />
<path fill="#6c373b" opacity="1.00" d=" M 360.75 51.62 C 362.53 49.85 364.96 49.05 367.16 47.97 C 367.24 50.18 367.26 52.40 367.23 54.62 C 364.99 53.80 362.84 52.76 360.75 51.62 Z" />
<path fill="#6c373b" opacity="1.00" d=" M 367.97 73.59 C 368.96 71.24 370.97 69.50 372.99 68.03 C 374.98 69.30 376.03 71.59 377.48 73.39 C 374.32 73.59 371.14 73.60 367.97 73.59 Z" />
<path fill="#6c373b" opacity="1.00" d=" M 410.66 90.54 C 415.98 92.64 420.91 95.62 425.47 99.08 C 423.54 100.36 421.55 101.54 419.64 102.83 C 417.34 101.96 415.04 101.09 412.67 100.43 C 413.38 99.27 414.11 98.12 414.83 96.96 C 413.24 94.95 411.81 92.82 410.66 90.54 Z" />
<path fill="#6c373b" opacity="1.00" d=" M 50.28 117.01 C 51.99 109.42 56.63 102.96 59.73 95.92 C 59.25 106.75 60.50 117.80 64.13 128.05 C 74.23 128.35 84.53 128.39 94.45 126.26 C 92.97 129.34 91.01 132.26 88.07 134.14 C 80.08 139.58 70.12 140.52 60.74 141.31 C 61.93 137.46 63.78 133.83 64.79 129.92 C 64.28 128.82 63.24 128.09 62.43 127.23 C 59.19 130.06 55.85 132.77 52.45 135.41 C 51.55 129.31 50.12 123.20 50.28 117.01 Z" />
<path fill="#6c373b" opacity="1.00" d=" M 398.86 107.68 C 400.55 108.49 402.27 109.28 403.82 110.37 C 404.00 112.54 401.18 113.02 399.87 114.20 C 399.42 112.04 399.09 109.86 398.86 107.68 Z" />
<path fill="#6c373b" opacity="1.00" d=" M 388.23 117.99 C 390.92 118.56 393.57 119.28 396.19 120.13 C 394.88 121.83 393.39 123.37 391.81 124.80 C 390.49 122.59 389.33 120.30 388.23 117.99 Z" />
<path fill="#6c373b" opacity="1.00" d=" M 384.97 133.07 C 387.11 131.76 389.37 130.63 391.74 129.79 C 391.76 131.93 391.76 134.08 391.74 136.22 C 389.35 135.47 387.10 134.36 384.97 133.07 Z" />
<path fill="#6c373b" opacity="1.00" d=" M 400.22 142.43 C 405.30 145.32 408.80 150.18 411.59 155.19 C 407.95 154.67 404.29 154.18 400.62 153.99 L 401.66 152.62 C 402.44 151.61 403.34 150.71 404.18 149.75 C 402.94 147.27 401.59 144.85 400.22 142.43 Z" />
<path fill="#6c373b" opacity="1.00" d=" M 241.63 148.60 C 244.49 149.79 247.93 150.62 250.03 152.94 C 248.89 155.23 246.22 156.94 243.94 158.11 C 241.94 155.75 242.32 151.67 241.63 148.60 Z" />
<path fill="#6c373b" opacity="1.00" d=" M 367.14 154.08 C 366.77 152.55 366.46 151.00 366.33 149.43 C 368.31 150.06 370.29 150.71 372.25 151.41 C 371.04 153.06 368.92 153.38 367.14 154.08 Z" />
<path fill="#6c373b" opacity="1.00" d=" M 356.87 157.43 C 357.13 155.66 357.27 153.86 357.85 152.17 C 359.51 152.41 360.91 153.70 361.94 154.98 C 361.10 156.66 358.43 156.56 356.87 157.43 Z" />
<path fill="#6c373b" opacity="1.00" d=" M 346.46 154.43 C 348.82 155.62 351.04 157.07 353.08 158.75 C 351.16 159.17 349.23 159.53 347.30 159.85 C 346.99 158.05 346.71 156.24 346.46 154.43 Z" />
<path fill="#6c373b" opacity="1.00" d=" M 338.07 158.80 C 339.31 159.32 340.56 159.82 341.75 160.45 C 342.19 162.88 338.52 163.13 336.98 164.27 C 337.31 162.44 337.68 160.62 338.07 158.80 Z" />
<path fill="#6c373b" opacity="1.00" d=" M 232.19 162.83 C 235.91 163.73 239.04 166.10 242.36 167.91 C 240.60 170.30 238.04 171.87 235.71 173.64 C 233.82 170.31 233.28 166.45 232.19 162.83 Z" />
<path fill="#6c373b" opacity="1.00" d=" M 242.59 179.77 C 244.29 178.10 246.20 176.67 248.24 175.45 C 248.91 178.10 249.79 180.69 250.73 183.26 C 247.98 182.18 245.26 181.03 242.59 179.77 Z" />
<path fill="#6c373b" opacity="1.00" d=" M 236.40 184.88 C 238.66 187.02 240.13 189.82 241.15 192.73 C 238.93 193.13 236.70 193.54 234.44 193.44 C 234.99 190.56 235.61 187.70 236.40 184.88 Z" />
<path fill="#6c373b" opacity="1.00" d=" M 221.71 194.70 C 220.37 191.87 219.52 188.75 219.53 185.61 C 222.82 186.15 226.12 186.78 229.26 187.93 C 227.26 190.71 224.29 192.52 221.71 194.70 Z" />
<path fill="#6c373b" opacity="1.00" d=" M 247.60 194.92 C 249.26 192.85 251.03 190.87 252.89 188.98 C 253.89 191.69 254.88 194.41 256.24 196.97 C 253.31 196.49 250.43 195.78 247.60 194.92 Z" />
<path fill="#6c373b" opacity="1.00" d=" M 230.91 199.74 C 233.81 200.43 236.68 201.33 239.32 202.73 C 239.38 202.96 239.50 203.40 239.56 203.63 C 237.23 205.50 234.68 207.07 232.26 208.81 C 231.46 205.85 230.99 202.81 230.91 199.74 Z" />
<path fill="#6c373b" opacity="1.00" d=" M 405.72 201.22 C 411.71 201.47 417.71 201.21 423.71 201.24 C 423.85 207.03 423.09 212.81 423.59 218.59 C 421.76 216.49 420.02 214.33 418.32 212.14 C 419.37 209.13 420.47 206.15 421.64 203.19 C 418.78 204.09 415.91 204.91 413.00 205.62 C 410.57 204.16 408.06 202.83 405.72 201.22 Z" />
<path fill="#6c373b" opacity="1.00" d=" M 212.67 209.93 C 214.21 206.96 216.53 204.50 219.07 202.35 C 220.84 204.99 221.67 208.08 222.41 211.14 C 219.13 211.04 215.86 210.70 212.67 209.93 Z" />
<path fill="#6c373b" opacity="1.00" d=" M 305.63 214.55 C 311.62 213.27 317.67 212.24 323.74 211.42 C 321.99 215.94 319.73 220.25 317.41 224.50 C 317.14 224.55 316.60 224.67 316.33 224.72 C 312.62 221.65 308.85 218.63 305.16 215.54 C 305.28 215.29 305.52 214.79 305.63 214.55 M 313.05 214.87 C 311.98 215.81 311.33 217.35 312.50 218.51 C 313.64 220.27 318.43 219.74 317.26 216.94 C 317.21 214.82 314.71 214.10 313.05 214.87 Z" />
<path fill="#6c373b" opacity="1.00" d=" M 119.67 237.59 C 123.56 229.82 128.14 222.30 132.90 215.02 C 136.98 216.86 139.05 221.67 139.68 225.92 C 140.01 230.58 139.99 235.27 139.75 239.93 C 138.16 245.47 132.50 249.38 132.71 255.53 C 125.20 259.48 119.48 266.10 112.07 270.27 C 114.23 265.57 117.58 261.53 119.73 256.85 C 120.35 250.47 120.10 243.99 119.67 237.59 Z" />
<path fill="#6c373b" opacity="1.00" d=" M 279.89 227.66 C 283.94 223.88 288.28 220.42 292.71 217.11 C 293.51 221.73 294.33 226.36 295.01 231.01 C 289.93 230.07 284.92 228.81 279.89 227.66 Z" />
<path fill="#6c373b" opacity="1.00" d=" M 323.09 227.38 C 330.86 224.74 338.21 220.81 346.11 218.69 C 343.59 227.03 340.98 235.37 338.16 243.61 C 332.69 238.66 327.72 233.11 323.09 227.38 M 334.18 225.08 C 333.09 225.79 332.20 226.81 331.65 227.98 C 331.33 231.36 336.01 233.90 338.56 231.59 C 341.21 228.97 337.68 223.13 334.18 225.08 Z" />
<path fill="#6c373b" opacity="1.00" d=" M 429.20 229.99 C 433.27 236.08 438.10 241.61 442.61 247.37 C 438.10 251.96 433.60 256.56 429.06 261.13 C 429.01 258.76 428.99 256.39 429.02 254.02 C 431.93 251.90 434.84 249.76 437.70 247.57 C 434.85 244.70 431.84 241.99 429.02 239.08 C 428.96 236.05 428.94 233.01 429.20 229.99 Z" />
<path fill="#6c373b" opacity="1.00" d=" M 347.85 232.22 C 355.35 233.49 362.99 234.10 370.41 235.88 C 367.59 240.46 364.06 244.54 360.85 248.84 C 359.09 251.00 357.72 253.59 355.31 255.13 C 352.92 247.47 349.45 240.08 347.85 232.22 M 355.12 236.01 C 351.42 237.67 352.61 242.91 355.87 244.28 C 359.35 245.19 362.50 241.44 361.35 238.13 C 360.93 235.36 357.21 235.03 355.12 236.01 Z" />
<path fill="#6c373b" opacity="1.00" d=" M 269.23 235.83 C 272.45 237.94 275.81 239.99 278.41 242.89 C 274.67 244.82 271.05 247.08 267.01 248.31 C 267.62 244.13 268.40 239.97 269.23 235.83 Z" />
<path fill="#6c373b" opacity="1.00" d=" M 142.35 254.69 C 149.11 249.89 156.92 245.02 165.61 246.30 C 164.74 256.57 160.00 265.91 155.86 275.16 C 154.98 278.61 153.16 283.15 156.41 285.92 C 151.81 288.79 146.94 291.27 142.78 294.79 C 143.00 291.41 144.65 288.43 147.23 286.28 C 148.78 284.42 151.61 283.08 151.52 280.32 C 152.63 279.80 153.73 279.27 154.83 278.75 C 155.47 270.28 155.94 261.77 155.86 253.28 C 151.37 253.89 146.90 254.84 142.35 254.69 Z" />
<path fill="#6c373b" opacity="1.00" d=" M 340.67 254.68 C 348.87 256.33 356.79 259.16 364.87 261.32 C 361.82 266.03 358.13 270.28 354.79 274.79 C 353.10 276.93 351.71 279.39 349.42 280.97 C 346.76 272.12 343.19 263.56 340.67 254.68 M 345.64 266.08 C 346.32 268.10 348.26 269.20 349.89 270.38 C 351.81 269.41 354.77 268.67 354.46 265.92 C 355.13 262.98 352.47 261.25 349.97 260.78 C 347.87 261.71 345.53 263.54 345.64 266.08 Z" />
<path fill="#6c373b" opacity="1.00" d=" M 258.79 256.86 C 262.64 256.94 266.46 257.53 270.30 257.91 C 268.53 262.63 265.99 267.00 263.77 271.51 C 261.19 267.04 260.55 261.69 258.79 256.86 Z" />
<path fill="#6c373b" opacity="1.00" d=" M 190.91 267.18 C 199.68 266.22 207.71 262.24 216.18 260.08 C 218.64 264.26 217.74 269.34 217.69 273.95 C 216.99 281.49 216.37 289.29 213.36 296.31 C 208.47 304.05 202.19 312.34 192.87 314.69 C 200.32 306.83 200.54 295.23 200.32 285.06 C 200.50 280.97 196.50 278.64 192.92 278.23 C 182.14 276.38 171.93 281.18 161.62 283.41 C 165.33 277.53 168.68 271.43 171.32 264.99 C 177.82 265.92 184.31 267.41 190.91 267.18 Z" />
<path fill="#6c373b" opacity="1.00" d=" M 265.99 282.66 C 267.88 280.26 270.32 278.41 272.88 276.79 C 273.80 279.39 274.57 282.06 274.97 284.80 C 271.98 284.06 268.99 283.34 265.99 282.66 Z" />
<path fill="#6c373b" opacity="1.00" d=" M 425.18 283.99 C 428.19 288.21 431.69 292.12 434.34 296.59 C 431.36 300.00 428.06 303.14 425.38 306.81 C 425.17 305.97 424.77 304.30 424.56 303.46 C 425.84 301.18 427.70 299.32 429.62 297.58 C 428.03 296.18 426.43 294.80 424.93 293.32 C 424.90 290.21 424.99 287.09 425.18 283.99 Z" />
<path fill="#6c373b" opacity="1.00" d=" M 284.55 285.42 C 286.82 286.03 288.48 287.75 290.23 289.21 C 288.74 291.09 286.91 292.72 284.61 293.52 C 284.41 290.82 284.39 288.12 284.55 285.42 Z" />
<path fill="#6c373b" opacity="1.00" d=" M 424.46 336.71 C 428.25 341.12 431.88 345.66 435.74 350.02 C 431.99 353.10 428.12 356.01 424.44 359.18 C 424.20 351.68 424.36 344.19 424.46 336.71 M 425.29 344.26 C 425.24 347.43 425.25 350.60 425.34 353.77 C 426.88 352.23 428.36 350.63 429.80 348.98 C 428.36 347.34 426.86 345.76 425.29 344.26 Z" />
<path fill="#6c373b" opacity="1.00" d=" M 160.88 361.79 C 165.62 360.92 170.19 359.31 174.94 358.46 C 179.18 357.52 182.53 360.94 185.62 363.27 C 193.88 370.29 201.53 379.21 203.74 390.11 C 204.69 398.86 202.63 409.38 194.89 414.63 C 191.43 403.66 183.68 393.90 173.30 388.75 C 165.80 384.91 157.56 382.60 149.21 381.61 C 151.30 377.27 153.60 372.86 154.01 367.96 C 154.19 364.40 157.65 362.23 160.88 361.79 M 161.61 365.10 C 160.33 367.63 159.10 370.19 158.03 372.82 C 161.15 372.70 164.21 372.02 167.10 370.86 C 165.81 368.52 164.14 366.19 161.61 365.10 M 175.58 370.28 C 174.20 373.42 173.08 376.67 171.99 379.92 C 175.08 379.69 178.11 378.99 181.01 377.93 C 180.07 375.10 178.44 372.56 176.58 370.26 C 176.33 370.26 175.83 370.28 175.58 370.28 M 186.08 387.69 C 188.66 389.04 191.22 390.43 193.86 391.69 C 193.50 387.25 191.50 383.21 190.30 378.99 C 188.06 381.35 186.67 384.52 186.08 387.69 Z" />
<path fill="#6c373b" opacity="1.00" d=" M 423.29 394.95 C 427.05 399.08 430.80 403.23 434.49 407.44 C 430.35 409.83 427.45 414.68 422.60 415.56 C 423.50 408.73 423.01 401.81 423.29 394.95 M 424.18 403.14 C 424.10 406.01 424.14 408.87 424.22 411.74 C 425.66 410.33 427.11 408.93 428.58 407.55 C 427.16 406.02 425.69 404.55 424.18 403.14 Z" />
<path fill="#6c373b" opacity="1.00" d=" M 47.22 413.29 C 57.14 412.91 67.09 413.26 77.02 413.13 C 70.60 417.99 64.74 423.53 58.52 428.63 C 56.43 430.41 53.87 431.46 51.20 431.99 C 50.05 425.73 49.52 419.28 47.22 413.29 Z" />
<path fill="#6c373b" opacity="1.00" d=" M 139.44 424.38 C 141.88 423.79 145.22 423.99 146.26 426.74 C 148.09 430.15 144.69 434.52 140.94 433.75 C 138.40 433.89 136.92 431.17 136.36 429.05 C 136.72 427.19 137.79 425.36 139.44 424.38 Z" />
<path fill="#6c373b" opacity="1.00" d=" M 116.32 432.42 C 120.54 430.41 125.62 435.92 122.54 439.66 C 120.72 443.07 114.42 442.54 113.54 438.60 C 112.61 436.12 114.09 433.54 116.32 432.42 Z" />
<path fill="#6c373b" opacity="1.00" d=" M 158.30 436.48 C 162.47 436.36 164.79 442.92 160.96 444.91 C 158.54 446.75 154.34 445.08 154.27 441.92 C 153.54 439.20 155.94 437.14 158.30 436.48 Z" />
<path fill="#6c373b" opacity="1.00" d=" M 44.09 455.17 C 51.05 449.25 56.61 440.84 65.98 438.51 C 74.19 435.97 82.30 439.86 89.61 443.25 C 86.24 449.05 83.00 455.27 82.70 462.10 C 82.70 464.32 81.85 466.63 79.89 467.84 C 76.07 470.29 71.40 470.71 67.00 471.17 C 57.06 471.85 46.64 471.71 37.38 467.61 C 32.04 465.22 26.89 461.17 25.39 455.25 C 31.46 456.10 38.69 459.78 44.09 455.17 M 67.12 455.25 C 68.78 459.37 70.99 463.26 73.49 466.92 C 75.39 461.37 76.90 455.71 78.79 450.16 C 74.77 451.53 70.92 453.36 67.12 455.25 M 46.18 461.72 C 50.78 461.82 55.33 461.14 59.88 460.50 C 59.18 457.29 58.07 454.18 56.85 451.14 C 53.28 454.66 49.80 458.26 46.18 461.72 Z" />
<path fill="#6c373b" opacity="1.00" d=" M 213.34 442.29 L 213.96 442.30 C 214.90 442.57 215.85 442.87 216.79 443.18 C 213.22 446.91 209.96 450.93 206.47 454.74 C 204.08 450.89 202.25 446.74 200.12 442.75 C 201.62 443.01 203.42 442.37 204.72 443.33 C 205.94 444.98 206.74 446.88 207.66 448.71 C 209.66 446.67 211.56 444.53 213.34 442.29 Z" />
<path fill="#6c373b" opacity="1.00" d=" M 246.83 442.43 C 252.29 442.14 257.76 442.32 263.22 442.43 C 260.04 446.02 257.17 449.86 254.19 453.62 C 251.57 450.01 249.07 446.30 246.83 442.43 M 251.25 443.28 C 252.18 444.84 253.27 446.30 254.46 447.68 C 255.54 446.18 256.62 444.69 257.70 443.21 C 255.55 443.22 253.40 443.24 251.25 443.28 Z" />
<path fill="#6c373b" opacity="1.00" d=" M 294.17 442.23 C 298.65 442.15 303.18 442.63 307.60 441.59 C 305.35 446.47 301.36 450.25 298.54 454.78 C 295.60 451.03 292.92 447.08 290.17 443.20 C 291.49 442.86 292.82 442.51 294.17 442.23 M 295.07 443.29 C 295.89 445.22 296.96 447.05 298.27 448.70 C 300.05 447.10 301.78 445.41 303.00 443.34 C 300.36 443.21 297.71 443.21 295.07 443.29 Z" />
<path fill="#6c373b" opacity="1.00" d=" M 376.97 442.44 C 382.77 442.08 388.57 442.40 394.37 442.38 C 390.98 446.32 387.17 449.87 383.58 453.62 C 381.38 449.90 379.33 446.08 376.97 442.44 M 381.15 443.26 C 381.86 445.08 382.64 446.88 383.47 448.66 C 385.18 447.06 386.78 445.32 388.03 443.34 C 385.74 443.19 383.44 443.17 381.15 443.26 Z" />
<path fill="#6c373b" opacity="1.00" d=" M 336.37 443.46 C 337.21 443.47 338.89 443.49 339.74 443.49 C 340.74 445.36 341.81 447.20 342.92 449.01 C 344.76 447.22 346.55 445.38 348.26 443.47 C 349.53 443.46 350.80 443.48 352.08 443.53 L 352.26 444.23 C 349.23 447.87 345.81 451.17 342.69 454.73 C 340.82 451.21 338.61 447.90 336.82 444.34 L 336.37 443.46 Z" />
<path fill="#6c373b" opacity="1.00" d=" M 132.42 448.54 C 137.83 447.41 142.29 451.78 145.66 455.40 C 147.23 457.35 149.94 459.89 148.39 462.58 C 141.99 469.27 131.03 469.13 123.52 464.49 C 121.53 463.37 120.79 460.83 121.82 458.82 C 123.93 454.28 127.77 450.44 132.42 448.54 Z" />
<path fill="#6c373b" opacity="1.00" d=" M 100.39 452.55 C 102.05 451.97 103.90 452.05 105.59 452.46 C 109.76 454.49 108.18 462.79 103.03 461.79 C 98.06 462.20 96.55 454.97 100.39 452.55 Z" />
<path fill="#6c373b" opacity="1.00" d=" M 163.36 452.43 C 166.06 451.39 169.97 452.59 169.80 455.99 C 170.62 459.85 165.86 462.06 162.92 460.11 C 160.40 458.37 160.56 453.83 163.36 452.43 Z" />
</g>
<g id="#542921ff">
<path fill="#542921" opacity="1.00" d=" M 374.76 11.90 C 378.55 10.71 382.53 10.94 386.43 11.19 C 384.32 13.63 382.34 16.18 380.15 18.55 C 378.12 16.53 376.30 14.31 374.76 11.90 Z" />
<path fill="#542921" opacity="1.00" d=" M 386.07 20.01 C 389.04 16.57 391.88 12.73 395.97 10.54 C 403.15 11.88 409.52 16.20 415.07 20.81 C 421.65 26.38 426.49 34.33 426.82 43.09 C 418.60 36.03 409.14 29.44 398.09 28.18 C 391.89 27.36 385.93 29.76 379.79 29.96 C 380.99 26.16 383.68 23.11 386.07 20.01 Z" />
<path fill="#542921" opacity="1.00" d=" M 230.98 13.06 C 234.81 13.53 238.62 14.84 241.71 17.17 C 241.83 18.82 239.54 19.54 238.34 20.31 C 235.98 21.17 232.96 22.78 230.59 21.31 C 229.84 18.59 230.29 15.74 230.98 13.06 Z" />
<path fill="#542921" opacity="1.00" d=" M 336.93 38.48 C 342.34 37.69 345.30 32.51 349.47 29.56 C 349.20 34.58 346.11 39.15 342.48 42.48 C 338.70 45.92 333.48 43.53 329.05 43.27 C 323.23 42.37 317.39 48.11 318.42 53.95 C 319.42 59.22 324.59 63.60 330.06 63.00 C 334.14 62.69 338.43 60.87 342.41 62.63 C 346.03 64.59 347.99 68.42 349.71 71.98 C 347.01 70.17 344.31 67.97 340.95 67.69 C 338.48 67.46 336.30 68.87 333.96 69.37 C 328.31 70.41 321.92 70.48 317.09 66.90 C 312.13 63.25 308.07 57.97 306.66 51.91 C 306.76 46.24 309.21 40.22 314.01 36.93 C 317.52 34.53 322.03 34.93 326.03 35.50 C 329.78 36.11 332.95 39.18 336.93 38.48 Z" />
<path fill="#542921" opacity="1.00" d=" M 165.39 33.33 C 171.08 32.24 177.55 34.94 181.96 38.69 C 176.08 43.24 169.38 47.03 162.15 48.88 C 162.32 43.58 163.35 38.24 165.39 33.33 Z" />
<path fill="#542921" opacity="1.00" d=" M 271.97 41.37 C 275.08 40.65 277.78 38.87 280.67 37.59 C 279.96 41.66 278.10 46.28 274.03 48.01 C 270.03 49.58 265.36 48.33 261.58 50.62 C 258.29 52.35 255.70 56.12 256.66 59.94 C 259.54 70.63 275.26 75.29 283.02 67.05 C 285.45 64.35 289.56 63.34 292.79 65.22 C 296.71 67.51 300.12 70.93 302.17 75.00 C 298.53 72.78 294.71 69.38 290.14 70.25 C 286.56 72.14 283.99 75.71 279.97 76.86 C 270.99 79.63 260.73 77.52 253.55 71.46 C 248.13 67.10 243.66 60.13 245.16 52.92 C 246.14 47.05 251.16 42.48 256.85 41.24 C 261.85 39.77 266.93 42.00 271.97 41.37 Z" />
<path fill="#542921" opacity="1.00" d=" M 328.37 48.57 C 331.63 46.61 337.12 48.79 336.85 52.99 C 336.97 57.06 331.76 59.91 328.45 57.45 C 326.08 55.31 325.46 50.52 328.37 48.57 Z" />
<path fill="#542921" opacity="1.00" d=" M 270.85 63.15 C 268.47 60.44 268.59 54.18 273.02 53.66 C 277.78 53.46 280.18 58.48 279.77 62.63 C 277.06 63.94 273.53 65.12 270.85 63.15 Z" />
<path fill="#542921" opacity="1.00" d=" M 107.19 61.99 C 112.39 62.66 116.78 66.20 120.21 69.97 C 118.19 73.11 114.72 74.69 111.60 76.50 C 109.27 77.86 106.69 78.78 103.99 79.03 C 103.15 73.16 105.45 67.49 107.19 61.99 Z" />
<path fill="#542921" opacity="1.00" d=" M 423.86 92.32 C 427.16 89.97 431.60 91.22 434.77 93.21 C 445.21 99.24 454.24 109.74 454.74 122.27 C 447.04 114.01 436.70 107.61 425.13 107.33 C 425.52 104.02 429.03 101.75 431.71 100.02 C 430.41 96.38 427.24 93.91 423.86 92.32 Z" />
<path fill="#542921" opacity="1.00" d=" M 285.20 94.19 C 291.40 91.20 298.72 91.99 305.05 94.15 C 308.86 95.38 312.67 93.60 316.40 92.89 C 312.65 97.19 306.21 97.30 301.03 96.15 C 297.12 95.11 292.65 95.85 289.67 98.69 C 287.73 100.47 287.35 103.79 289.18 105.78 C 293.22 110.13 299.31 111.89 305.09 112.16 C 308.69 112.37 311.92 115.01 313.14 118.37 C 310.42 117.01 307.96 114.97 304.92 114.39 C 299.59 114.27 294.31 116.10 288.98 115.29 C 284.04 113.51 279.82 109.23 278.74 104.01 C 278.09 99.66 281.60 96.02 285.20 94.19 Z" />
<path fill="#542921" opacity="1.00" d=" M 334.13 102.06 C 336.48 99.79 339.58 97.63 343.03 98.21 C 348.20 99.10 352.93 101.59 358.07 102.59 C 360.98 103.15 363.38 101.07 365.86 99.95 C 363.96 103.68 360.77 107.84 356.06 107.31 C 351.62 106.54 347.26 103.84 342.66 105.60 C 337.15 106.93 336.65 114.97 340.90 118.02 C 344.60 121.22 349.69 121.06 354.23 121.80 C 358.04 123.21 361.97 126.59 361.85 130.99 C 360.41 129.17 359.21 126.95 356.96 126.02 C 351.41 123.56 345.16 125.72 339.42 124.32 C 333.88 122.49 330.73 116.59 330.11 111.08 C 329.56 107.56 331.78 104.43 334.13 102.06 Z" />
<path fill="#542921" opacity="1.00" d=" M 304.46 101.51 C 305.78 100.39 308.24 99.70 309.53 101.20 C 310.21 103.19 310.40 105.48 309.44 107.41 C 307.75 109.33 303.42 108.82 303.25 105.90 C 303.10 104.39 303.22 102.57 304.46 101.51 Z" />
<path fill="#542921" opacity="1.00" d=" M 348.17 110.21 C 353.12 107.58 355.70 119.11 350.03 118.95 C 345.74 119.11 345.16 112.25 348.17 110.21 Z" />
<path fill="#542921" opacity="1.00" d=" M 42.68 120.88 C 43.05 121.51 43.24 122.20 43.24 122.93 C 43.60 130.37 44.72 137.77 46.51 144.99 C 47.50 148.58 48.38 152.38 50.81 155.31 C 59.46 154.42 68.11 152.32 75.81 148.18 C 69.86 162.18 64.54 176.45 59.94 190.95 C 57.56 198.81 55.35 206.76 54.19 214.90 C 53.04 222.56 54.09 230.30 54.77 237.95 C 38.53 221.84 26.58 200.17 25.69 176.96 C 25.40 157.05 33.14 138.01 42.68 120.88 Z" />
<path fill="#542921" opacity="1.00" d=" M 220.14 120.08 C 229.00 123.21 234.78 131.12 242.87 135.48 C 243.62 132.92 243.94 130.28 244.05 127.62 C 247.10 130.01 249.76 132.87 251.79 136.18 C 255.32 141.99 258.74 148.79 257.24 155.79 C 254.70 157.33 251.99 158.92 250.52 161.60 C 248.07 165.76 248.23 170.79 248.24 175.45 C 246.20 176.67 244.29 178.10 242.59 179.77 C 245.26 181.03 247.98 182.18 250.73 183.26 C 251.44 185.17 252.18 187.07 252.89 188.98 C 251.03 190.87 249.26 192.85 247.60 194.92 C 250.43 195.78 253.31 196.49 256.24 196.97 C 257.88 199.59 259.57 202.19 261.03 204.93 C 259.49 206.78 258.15 208.79 257.09 210.96 C 256.19 212.51 255.34 214.81 253.13 214.63 C 242.92 215.02 232.95 218.04 223.94 222.79 C 221.88 222.20 219.82 221.61 217.71 221.32 C 206.39 219.50 194.94 222.21 184.04 225.09 C 183.68 224.89 182.95 224.49 182.59 224.29 C 191.52 213.51 202.25 204.36 213.75 196.46 C 213.39 195.40 212.18 195.17 211.31 194.70 C 204.29 191.81 197.37 188.63 190.74 184.91 C 182.35 180.19 173.95 175.10 167.36 167.97 C 184.33 171.49 201.91 172.07 219.16 170.60 C 212.20 158.68 204.40 147.24 197.85 135.07 C 196.63 132.90 195.81 130.53 195.22 128.12 C 199.52 129.69 202.86 132.89 206.45 135.62 C 214.98 142.25 223.49 149.08 233.15 154.04 C 231.53 148.20 229.67 142.40 227.08 136.91 C 224.59 131.37 220.78 126.29 220.14 120.08 M 241.63 148.60 C 242.32 151.67 241.94 155.75 243.94 158.11 C 246.22 156.94 248.89 155.23 250.03 152.94 C 247.93 150.62 244.49 149.79 241.63 148.60 M 232.19 162.83 C 233.28 166.45 233.82 170.31 235.71 173.64 C 238.04 171.87 240.60 170.30 242.36 167.91 C 239.04 166.10 235.91 163.73 232.19 162.83 M 236.40 184.88 C 235.61 187.70 234.99 190.56 234.44 193.44 C 236.70 193.54 238.93 193.13 241.15 192.73 C 240.13 189.82 238.66 187.02 236.40 184.88 M 221.71 194.70 C 224.29 192.52 227.26 190.71 229.26 187.93 C 226.12 186.78 222.82 186.15 219.53 185.61 C 219.52 188.75 220.37 191.87 221.71 194.70 M 230.91 199.74 C 230.99 202.81 231.46 205.85 232.26 208.81 C 234.68 207.07 237.23 205.50 239.56 203.63 C 239.50 203.40 239.38 202.96 239.32 202.73 C 236.68 201.33 233.81 200.43 230.91 199.74 M 212.67 209.93 C 215.86 210.70 219.13 211.04 222.41 211.14 C 221.67 208.08 220.84 204.99 219.07 202.35 C 216.53 204.50 214.21 206.96 212.67 209.93 Z" />
<path fill="#542921" opacity="1.00" d=" M 62.43 127.23 C 63.24 128.09 64.28 128.82 64.79 129.92 C 63.78 133.83 61.93 137.46 60.74 141.31 C 56.71 142.36 53.24 139.18 52.45 135.41 C 55.85 132.77 59.19 130.06 62.43 127.23 Z" />
<path fill="#542921" opacity="1.00" d=" M 309.19 141.02 C 310.84 136.88 315.55 134.33 319.88 134.34 C 324.50 135.79 327.94 139.52 332.24 141.62 C 334.33 142.86 336.82 142.12 339.10 142.17 C 337.68 143.40 336.17 145.16 334.06 144.63 C 329.30 143.16 325.82 139.10 321.04 137.71 C 316.65 137.30 313.14 142.77 315.41 146.60 C 318.07 152.49 325.80 152.61 329.34 157.63 C 330.38 159.04 330.58 160.85 330.24 162.54 C 328.16 160.36 326.74 157.56 324.21 155.84 C 321.52 153.62 317.54 154.48 314.89 152.17 C 311.60 149.54 308.47 145.48 309.19 141.02 Z" />
<path fill="#542921" opacity="1.00" d=" M 324.12 145.17 C 326.92 143.48 332.06 148.00 328.72 150.69 C 325.58 154.21 320.86 147.50 324.12 145.17 Z" />
<path fill="#542921" opacity="1.00" d=" M 411.57 144.76 C 416.56 147.52 422.14 149.67 426.24 153.73 C 431.04 160.35 435.18 167.89 436.08 176.14 C 429.43 169.67 421.98 163.37 412.80 161.00 C 413.93 159.77 416.69 159.05 416.07 156.96 C 414.22 153.03 411.33 149.36 411.57 144.76 Z" />
<path fill="#542921" opacity="1.00" d=" M 314.27 188.36 C 316.80 186.73 320.00 186.98 322.88 186.84 C 322.49 189.24 323.24 192.43 321.08 194.14 C 318.69 194.76 316.18 194.68 313.74 194.88 C 313.46 192.74 312.84 190.23 314.27 188.36 Z" />
<path fill="#542921" opacity="1.00" d=" M 329.08 191.03 C 330.73 188.55 333.79 187.21 336.72 186.92 C 337.41 190.35 340.95 194.64 337.70 197.64 C 336.20 198.62 333.89 200.55 332.26 198.84 C 330.36 196.74 329.04 193.90 329.08 191.03 Z" />
<path fill="#542921" opacity="1.00" d=" M 368.17 187.15 C 370.81 186.67 373.23 188.35 375.13 189.99 C 375.33 194.18 372.13 197.64 369.63 200.74 C 366.79 200.43 363.75 200.07 361.50 198.12 C 363.47 194.33 365.23 190.31 368.17 187.15 Z" />
<path fill="#542921" opacity="1.00" d=" M 385.18 191.26 C 387.39 189.38 390.18 188.33 393.03 187.91 C 393.01 191.27 394.89 197.67 390.03 198.24 C 388.77 198.51 387.49 198.62 386.23 198.77 C 385.34 196.44 384.25 193.70 385.18 191.26 Z" />
<path fill="#542921" opacity="1.00" d=" M 192.40 197.50 C 194.15 195.92 195.81 194.08 198.03 193.13 C 199.79 194.70 200.36 197.39 201.61 199.41 C 199.78 201.42 198.03 203.57 195.68 205.00 C 194.66 202.47 193.59 199.96 192.40 197.50 Z" />
<path fill="#542921" opacity="1.00" d=" M 185.37 203.19 C 186.96 205.02 188.46 206.94 189.88 208.91 C 188.09 210.90 186.19 212.78 184.17 214.53 C 182.25 212.75 180.40 210.89 178.65 208.94 C 180.79 206.91 183.05 205.01 185.37 203.19 Z" />
<path fill="#542921" opacity="1.00" d=" M 413.00 205.62 C 415.91 204.91 418.78 204.09 421.64 203.19 C 420.47 206.15 419.37 209.13 418.32 212.14 C 416.50 210.00 414.68 207.87 413.00 205.62 Z" />
<path fill="#542921" opacity="1.00" d=" M 313.05 214.87 C 314.71 214.10 317.21 214.82 317.26 216.94 C 318.43 219.74 313.64 220.27 312.50 218.51 C 311.33 217.35 311.98 215.81 313.05 214.87 Z" />
<path fill="#542921" opacity="1.00" d=" M 334.18 225.08 C 337.68 223.13 341.21 228.97 338.56 231.59 C 336.01 233.90 331.33 231.36 331.65 227.98 C 332.20 226.81 333.09 225.79 334.18 225.08 Z" />
<path fill="#542921" opacity="1.00" d=" M 355.12 236.01 C 357.21 235.03 360.93 235.36 361.35 238.13 C 362.50 241.44 359.35 245.19 355.87 244.28 C 352.61 242.91 351.42 237.67 355.12 236.01 Z" />
<path fill="#542921" opacity="1.00" d=" M 172.90 247.02 C 172.29 243.74 172.54 240.28 173.78 237.18 C 176.33 239.32 179.12 241.16 181.57 243.41 C 181.59 246.75 179.52 249.78 178.53 252.93 C 176.45 251.20 174.03 249.56 172.90 247.02 Z" />
<path fill="#542921" opacity="1.00" d=" M 429.02 239.08 C 431.84 241.99 434.85 244.70 437.70 247.57 C 434.84 249.76 431.93 251.90 429.02 254.02 C 428.99 249.04 429.00 244.06 429.02 239.08 Z" />
<path fill="#542921" opacity="1.00" d=" M 112.07 270.27 C 119.48 266.10 125.20 259.48 132.71 255.53 C 135.57 255.57 138.43 255.65 141.27 255.29 C 136.05 258.27 130.92 261.47 126.59 265.68 C 118.88 272.99 111.23 280.60 105.67 289.72 C 104.10 292.11 101.51 293.60 99.98 296.00 C 98.42 299.16 98.26 302.76 97.94 306.21 C 100.48 305.90 103.00 305.35 105.34 304.29 C 116.22 299.70 126.94 294.61 138.36 291.44 C 139.01 289.41 139.52 287.31 140.48 285.40 C 143.85 283.12 147.90 282.12 151.52 280.32 C 151.61 283.08 148.78 284.42 147.23 286.28 C 144.65 288.43 143.00 291.41 142.78 294.79 C 137.34 298.48 130.61 299.56 125.04 303.06 C 118.46 306.20 114.33 312.98 107.31 315.34 C 103.95 316.57 100.35 316.85 96.88 317.67 C 92.58 318.49 89.92 322.56 85.74 323.66 C 81.93 324.60 77.96 324.42 74.07 324.45 C 65.74 324.38 57.41 324.56 49.08 324.36 C 51.29 319.99 55.60 317.13 57.70 312.70 C 58.54 310.53 58.30 308.14 58.47 305.87 C 60.62 307.45 62.52 309.50 65.05 310.45 C 67.86 309.96 69.98 307.81 72.37 306.41 C 75.02 304.56 78.22 303.70 80.89 301.89 C 83.83 299.34 83.43 295.07 84.75 291.72 C 87.68 287.13 93.94 287.95 97.97 284.94 C 103.56 281.00 107.93 275.64 112.07 270.27 M 74.88 310.72 C 74.04 312.49 73.46 314.37 73.36 316.34 C 78.90 316.20 84.44 316.44 89.98 316.20 C 89.53 313.91 89.19 311.26 87.17 309.76 C 83.45 306.54 79.00 310.47 74.88 310.72 Z" />
<path fill="#542921" opacity="1.00" d=" M 345.64 266.08 C 345.53 263.54 347.87 261.71 349.97 260.78 C 352.47 261.25 355.13 262.98 354.46 265.92 C 354.77 268.67 351.81 269.41 349.89 270.38 C 348.26 269.20 346.32 268.10 345.64 266.08 Z" />
<path fill="#542921" opacity="1.00" d=" M 370.66 299.53 C 377.22 292.24 387.21 287.05 397.21 289.30 C 390.83 298.61 385.95 309.00 383.47 320.06 C 382.63 324.34 381.12 328.68 381.96 333.09 C 380.35 324.50 372.72 317.76 364.21 316.42 C 362.22 309.92 366.55 304.08 370.66 299.53 Z" />
<path fill="#542921" opacity="1.00" d=" M 424.29 292.63 L 424.93 293.32 C 426.43 294.80 428.03 296.18 429.62 297.58 C 427.70 299.32 425.84 301.18 424.56 303.46 L 424.34 304.10 C 424.46 300.28 424.53 296.45 424.29 292.63 Z" />
<path fill="#542921" opacity="1.00" d=" M 16.37 316.24 C 18.73 314.69 21.68 314.59 24.40 314.88 C 23.22 319.73 20.63 324.09 17.54 327.96 C 15.41 324.54 14.93 319.99 16.37 316.24 Z" />
<path fill="#542921" opacity="1.00" d=" M 425.29 344.26 C 426.86 345.76 428.36 347.34 429.80 348.98 C 428.36 350.63 426.88 352.23 425.34 353.77 C 425.25 350.60 425.24 347.43 425.29 344.26 Z" />
<path fill="#542921" opacity="1.00" d=" M 222.96 376.95 C 228.56 360.52 244.11 346.85 261.96 346.66 C 278.14 346.76 293.98 351.28 308.97 357.11 C 307.92 364.88 306.53 372.62 306.57 380.49 C 295.01 380.98 283.43 382.13 272.11 384.61 C 265.96 385.94 259.83 387.94 254.74 391.74 C 243.92 399.25 232.98 408.37 228.47 421.17 C 220.87 408.02 217.76 391.53 222.96 376.95 Z" />
<path fill="#542921" opacity="1.00" d=" M 161.61 365.10 C 164.14 366.19 165.81 368.52 167.10 370.86 C 164.21 372.02 161.15 372.70 158.03 372.82 C 159.10 370.19 160.33 367.63 161.61 365.10 Z" />
<path fill="#542921" opacity="1.00" d=" M 175.58 370.28 C 175.83 370.28 176.33 370.26 176.58 370.26 C 178.44 372.56 180.07 375.10 181.01 377.93 C 178.11 378.99 175.08 379.69 171.99 379.92 C 173.08 376.67 174.20 373.42 175.58 370.28 Z" />
<path fill="#542921" opacity="1.00" d=" M 186.08 387.69 C 186.67 384.52 188.06 381.35 190.30 378.99 C 191.50 383.21 193.50 387.25 193.86 391.69 C 191.22 390.43 188.66 389.04 186.08 387.69 Z" />
<path fill="#542921" opacity="1.00" d=" M 272.68 397.69 C 280.44 390.15 290.96 384.03 302.15 385.34 C 314.13 386.63 325.30 391.83 335.62 397.80 C 331.87 402.50 332.47 409.95 326.89 413.27 C 317.63 407.79 306.62 406.00 295.99 406.20 C 282.77 406.74 271.13 414.54 262.13 423.70 C 260.15 413.78 265.88 404.39 272.68 397.69 Z" />
<path fill="#542921" opacity="1.00" d=" M 143.40 408.42 C 147.65 401.61 151.78 394.73 155.96 387.87 C 155.27 397.10 153.75 406.25 152.73 415.44 C 149.60 413.12 146.48 410.79 143.40 408.42 Z" />
<path fill="#542921" opacity="1.00" d=" M 124.75 399.15 C 127.10 397.60 129.44 396.04 131.75 394.45 C 133.28 399.09 134.75 403.75 136.44 408.34 C 132.63 409.76 128.69 410.76 124.81 411.96 C 124.68 407.69 124.76 403.42 124.75 399.15 Z" />
<path fill="#542921" opacity="1.00" d=" M 424.18 403.14 C 425.69 404.55 427.16 406.02 428.58 407.55 C 427.11 408.93 425.66 410.33 424.22 411.74 C 424.14 408.87 424.10 406.01 424.18 403.14 Z" />
<path fill="#542921" opacity="1.00" d=" M 162.05 417.83 C 169.38 414.35 176.74 410.92 184.04 407.37 C 178.97 414.54 173.71 421.59 168.46 428.63 C 168.24 428.70 167.80 428.82 167.58 428.88 C 165.69 425.22 163.95 421.48 162.05 417.83 Z" />
<path fill="#542921" opacity="1.00" d=" M 105.92 412.08 C 108.31 411.30 110.69 410.51 113.05 409.64 C 114.65 411.96 116.21 414.30 117.75 416.66 C 114.95 418.83 112.61 421.67 109.40 423.25 C 108.31 419.51 106.83 415.88 105.92 412.08 Z" />
<path fill="#542921" opacity="1.00" d=" M 81.79 412.08 C 89.11 417.08 96.39 422.11 103.73 427.08 C 101.07 431.03 98.41 434.99 95.48 438.76 C 91.08 429.78 86.14 421.08 81.79 412.08 Z" />
<path fill="#542921" opacity="1.00" d=" M 35.00 415.41 C 39.16 415.30 43.17 414.11 47.22 413.29 C 49.52 419.28 50.05 425.73 51.20 431.99 C 41.31 434.72 30.58 436.89 20.54 433.61 C 12.51 431.16 4.05 426.95 0.34 418.96 L 0.00 419.62 L 0.00 418.13 C 2.98 418.40 5.95 419.05 8.95 418.85 C 12.83 417.88 16.08 415.18 20.08 414.54 C 25.07 413.80 30.01 415.36 35.00 415.41 Z" />
<path fill="#542921" opacity="1.00" d=" M 199.86 442.50 C 204.35 442.45 208.85 442.37 213.34 442.29 C 211.56 444.53 209.66 446.67 207.66 448.71 C 206.74 446.88 205.94 444.98 204.72 443.33 C 203.42 442.37 201.62 443.01 200.12 442.75 L 199.86 442.50 Z" />
<path fill="#542921" opacity="1.00" d=" M 251.25 443.28 C 253.40 443.24 255.55 443.22 257.70 443.21 C 256.62 444.69 255.54 446.18 254.46 447.68 C 253.27 446.30 252.18 444.84 251.25 443.28 Z" />
<path fill="#542921" opacity="1.00" d=" M 295.07 443.29 C 297.71 443.21 300.36 443.21 303.00 443.34 C 301.78 445.41 300.05 447.10 298.27 448.70 C 296.96 447.05 295.89 445.22 295.07 443.29 Z" />
<path fill="#542921" opacity="1.00" d=" M 381.15 443.26 C 383.44 443.17 385.74 443.19 388.03 443.34 C 386.78 445.32 385.18 447.06 383.47 448.66 C 382.64 446.88 381.86 445.08 381.15 443.26 Z" />
<path fill="#542921" opacity="1.00" d=" M 339.74 443.49 C 342.58 443.51 345.42 443.48 348.26 443.47 C 346.55 445.38 344.76 447.22 342.92 449.01 C 341.81 447.20 340.74 445.36 339.74 443.49 Z" />
</g>
<g id="#b3896fff">
<path fill="#b3896f" opacity="1.00" d=" M 276.10 32.28 C 305.29 26.02 335.03 22.35 364.85 21.04 C 368.74 21.27 372.62 21.69 376.44 22.48 C 371.90 32.13 369.58 43.29 371.50 53.87 C 375.43 68.32 387.20 79.13 399.61 86.66 C 395.32 86.94 391.20 85.69 387.04 84.89 C 359.02 79.76 330.43 78.56 302.00 79.06 C 292.67 79.15 283.32 79.61 274.00 78.89 C 262.35 78.76 250.68 78.76 239.05 77.96 C 224.74 77.08 210.39 77.49 196.09 76.57 C 191.71 75.92 186.63 75.64 183.50 72.06 C 190.70 65.43 198.96 60.00 207.67 55.58 C 229.10 44.28 252.52 37.39 276.10 32.28 M 336.93 38.48 C 332.95 39.18 329.78 36.11 326.03 35.50 C 322.03 34.93 317.52 34.53 314.01 36.93 C 309.21 40.22 306.76 46.24 306.66 51.91 C 308.07 57.97 312.13 63.25 317.09 66.90 C 321.92 70.48 328.31 70.41 333.96 69.37 C 336.30 68.87 338.48 67.46 340.95 67.69 C 344.31 67.97 347.01 70.17 349.71 71.98 C 347.99 68.42 346.03 64.59 342.41 62.63 C 338.43 60.87 334.14 62.69 330.06 63.00 C 324.59 63.60 319.42 59.22 318.42 53.95 C 317.39 48.11 323.23 42.37 329.05 43.27 C 333.48 43.53 338.70 45.92 342.48 42.48 C 346.11 39.15 349.20 34.58 349.47 29.56 C 345.30 32.51 342.34 37.69 336.93 38.48 M 359.61 32.48 C 362.14 34.65 365.34 35.77 368.31 37.20 C 368.47 34.59 368.52 31.98 368.43 29.37 C 365.41 30.19 362.51 31.36 359.61 32.48 M 271.97 41.37 C 266.93 42.00 261.85 39.77 256.85 41.24 C 251.16 42.48 246.14 47.05 245.16 52.92 C 243.66 60.13 248.13 67.10 253.55 71.46 C 260.73 77.52 270.99 79.63 279.97 76.86 C 283.99 75.71 286.56 72.14 290.14 70.25 C 294.71 69.38 298.53 72.78 302.17 75.00 C 300.12 70.93 296.71 67.51 292.79 65.22 C 289.56 63.34 285.45 64.35 283.02 67.05 C 275.26 75.29 259.54 70.63 256.66 59.94 C 255.70 56.12 258.29 52.35 261.58 50.62 C 265.36 48.33 270.03 49.58 274.03 48.01 C 278.10 46.28 279.96 41.66 280.67 37.59 C 277.78 38.87 275.08 40.65 271.97 41.37 M 328.37 48.57 C 325.46 50.52 326.08 55.31 328.45 57.45 C 331.76 59.91 336.97 57.06 336.85 52.99 C 337.12 48.79 331.63 46.61 328.37 48.57 M 360.75 51.62 C 362.84 52.76 364.99 53.80 367.23 54.62 C 367.26 52.40 367.24 50.18 367.16 47.97 C 364.96 49.05 362.53 49.85 360.75 51.62 M 270.85 63.15 C 273.53 65.12 277.06 63.94 279.77 62.63 C 280.18 58.48 277.78 53.46 273.02 53.66 C 268.59 54.18 268.47 60.44 270.85 63.15 M 367.97 73.59 C 371.14 73.60 374.32 73.59 377.48 73.39 C 376.03 71.59 374.98 69.30 372.99 68.03 C 370.97 69.50 368.96 71.24 367.97 73.59 Z" />
<path fill="#b3896f" opacity="1.00" d=" M 248.06 90.78 C 269.58 88.30 291.34 88.50 312.96 89.23 C 346.38 90.98 379.67 94.96 412.67 100.43 C 415.04 101.09 417.34 101.96 419.64 102.83 C 413.24 109.70 406.00 115.76 399.93 122.94 C 397.32 126.14 394.81 129.72 394.18 133.89 C 393.57 136.53 395.55 138.70 396.64 140.90 C 393.77 140.80 390.87 140.82 388.05 140.23 C 376.56 138.04 365.36 134.57 353.94 132.04 C 347.71 130.69 341.33 130.15 335.08 128.89 C 317.01 125.22 299.07 120.93 281.11 116.73 C 270.55 114.16 260.50 109.93 250.72 105.27 C 245.34 102.60 239.98 99.78 235.34 95.93 C 237.82 91.50 243.70 91.78 248.06 90.78 M 285.20 94.19 C 281.60 96.02 278.09 99.66 278.74 104.01 C 279.82 109.23 284.04 113.51 288.98 115.29 C 294.31 116.10 299.59 114.27 304.92 114.39 C 307.96 114.97 310.42 117.01 313.14 118.37 C 311.92 115.01 308.69 112.37 305.09 112.16 C 299.31 111.89 293.22 110.13 289.18 105.78 C 287.35 103.79 287.73 100.47 289.67 98.69 C 292.65 95.85 297.12 95.11 301.03 96.15 C 306.21 97.30 312.65 97.19 316.40 92.89 C 312.67 93.60 308.86 95.38 305.05 94.15 C 298.72 91.99 291.40 91.20 285.20 94.19 M 334.13 102.06 C 331.78 104.43 329.56 107.56 330.11 111.08 C 330.73 116.59 333.88 122.49 339.42 124.32 C 345.16 125.72 351.41 123.56 356.96 126.02 C 359.21 126.95 360.41 129.17 361.85 130.99 C 361.97 126.59 358.04 123.21 354.23 121.80 C 349.69 121.06 344.60 121.22 340.90 118.02 C 336.65 114.97 337.15 106.93 342.66 105.60 C 347.26 103.84 351.62 106.54 356.06 107.31 C 360.77 107.84 363.96 103.68 365.86 99.95 C 363.38 101.07 360.98 103.15 358.07 102.59 C 352.93 101.59 348.20 99.10 343.03 98.21 C 339.58 97.63 336.48 99.79 334.13 102.06 M 304.46 101.51 C 303.22 102.57 303.10 104.39 303.25 105.90 C 303.42 108.82 307.75 109.33 309.44 107.41 C 310.40 105.48 310.21 103.19 309.53 101.20 C 308.24 99.70 305.78 100.39 304.46 101.51 M 398.86 107.68 C 399.09 109.86 399.42 112.04 399.87 114.20 C 401.18 113.02 404.00 112.54 403.82 110.37 C 402.27 109.28 400.55 108.49 398.86 107.68 M 348.17 110.21 C 345.16 112.25 345.74 119.11 350.03 118.95 C 355.70 119.11 353.12 107.58 348.17 110.21 M 388.23 117.99 C 389.33 120.30 390.49 122.59 391.81 124.80 C 393.39 123.37 394.88 121.83 396.19 120.13 C 393.57 119.28 390.92 118.56 388.23 117.99 M 384.97 133.07 C 387.10 134.36 389.35 135.47 391.74 136.22 C 391.76 134.08 391.76 131.93 391.74 129.79 C 389.37 130.63 387.11 131.76 384.97 133.07 Z" />
<path fill="#b3896f" opacity="1.00" d=" M 278.72 127.29 C 295.67 125.99 312.49 129.46 328.90 133.32 C 336.61 135.14 344.13 137.78 351.99 138.90 C 354.75 139.29 357.50 139.91 360.15 140.82 C 369.69 144.09 379.19 147.59 388.98 150.09 C 393.16 151.19 397.58 151.10 401.66 152.62 L 400.62 153.99 C 381.78 154.28 363.00 157.77 345.33 164.29 C 340.38 165.98 336.01 169.43 330.56 169.41 C 328.45 167.81 326.26 166.32 324.00 164.93 C 309.10 155.61 294.85 145.07 282.61 132.40 C 281.10 130.86 279.87 129.09 278.72 127.29 M 309.19 141.02 C 308.47 145.48 311.60 149.54 314.89 152.17 C 317.54 154.48 321.52 153.62 324.21 155.84 C 326.74 157.56 328.16 160.36 330.24 162.54 C 330.58 160.85 330.38 159.04 329.34 157.63 C 325.80 152.61 318.07 152.49 315.41 146.60 C 313.14 142.77 316.65 137.30 321.04 137.71 C 325.82 139.10 329.30 143.16 334.06 144.63 C 336.17 145.16 337.68 143.40 339.10 142.17 C 336.82 142.12 334.33 142.86 332.24 141.62 C 327.94 139.52 324.50 135.79 319.88 134.34 C 315.55 134.33 310.84 136.88 309.19 141.02 M 324.12 145.17 C 320.86 147.50 325.58 154.21 328.72 150.69 C 332.06 148.00 326.92 143.48 324.12 145.17 M 367.14 154.08 C 368.92 153.38 371.04 153.06 372.25 151.41 C 370.29 150.71 368.31 150.06 366.33 149.43 C 366.46 151.00 366.77 152.55 367.14 154.08 M 356.87 157.43 C 358.43 156.56 361.10 156.66 361.94 154.98 C 360.91 153.70 359.51 152.41 357.85 152.17 C 357.27 153.86 357.13 155.66 356.87 157.43 M 346.46 154.43 C 346.71 156.24 346.99 158.05 347.30 159.85 C 349.23 159.53 351.16 159.17 353.08 158.75 C 351.04 157.07 348.82 155.62 346.46 154.43 M 338.07 158.80 C 337.68 160.62 337.31 162.44 336.98 164.27 C 338.52 163.13 342.19 162.88 341.75 160.45 C 340.56 159.82 339.31 159.32 338.07 158.80 Z" />
<path fill="#b3896f" opacity="1.00" d=" M 369.95 225.82 C 376.90 232.14 382.70 240.41 383.23 250.09 C 384.06 263.04 383.32 277.34 375.17 288.08 C 369.10 296.26 359.13 299.63 350.74 304.75 C 347.48 306.80 343.47 308.43 341.65 312.05 C 340.96 314.19 343.36 315.24 345.03 315.51 C 351.35 316.71 357.83 315.94 364.21 316.42 C 372.72 317.76 380.35 324.50 381.96 333.09 C 382.34 335.04 382.38 337.05 382.40 339.04 C 382.37 355.02 382.40 371.00 382.39 386.98 C 382.41 393.89 379.08 400.46 374.32 405.33 C 372.09 407.54 369.28 409.50 366.04 409.62 C 356.86 410.20 348.05 413.11 338.96 414.24 C 336.90 414.65 333.51 413.87 334.56 411.07 C 336.40 403.20 342.43 394.98 351.15 394.56 C 353.40 394.46 356.69 393.85 356.75 391.00 C 355.99 386.06 350.86 382.66 346.04 382.82 C 340.04 382.76 334.05 382.81 328.06 382.79 C 324.67 382.30 321.87 386.66 318.54 384.48 C 313.22 380.96 312.45 373.83 312.48 367.98 C 312.39 362.56 315.94 357.60 320.88 355.55 C 331.83 350.73 344.12 353.71 355.53 351.34 C 357.64 351.06 359.50 349.46 359.03 347.15 C 352.36 341.97 343.12 342.30 335.74 345.73 C 329.70 348.56 323.15 350.04 316.49 350.36 C 313.68 346.45 310.69 342.08 311.26 337.01 C 311.35 325.90 318.18 316.25 326.36 309.32 C 336.18 300.97 346.22 292.69 357.56 286.47 C 361.44 284.16 365.53 281.97 368.56 278.55 C 372.00 274.57 373.72 269.41 374.48 264.29 C 376.16 251.37 375.84 237.70 369.95 225.82 Z" />
<path fill="#b3896f" opacity="1.00" d=" M 123.70 444.71 C 127.02 441.18 131.75 437.80 136.86 439.25 C 143.24 441.09 147.25 446.92 151.13 451.90 C 154.23 456.55 158.27 460.55 160.98 465.47 C 158.52 466.33 156.18 467.54 154.39 469.48 C 146.86 473.33 138.14 472.30 129.98 472.67 C 124.91 472.95 119.82 472.30 115.14 470.27 C 114.03 468.07 112.69 465.70 113.35 463.14 C 114.77 456.12 118.87 449.88 123.70 444.71 M 132.42 448.54 C 127.77 450.44 123.93 454.28 121.82 458.82 C 120.79 460.83 121.53 463.37 123.52 464.49 C 131.03 469.13 141.99 469.27 148.39 462.58 C 149.94 459.89 147.23 457.35 145.66 455.40 C 142.29 451.78 137.83 447.41 132.42 448.54 Z" />
</g>
<g id="#bba78cff">
<path fill="#bba78c" opacity="1.00" d=" M 360.01 209.35 C 374.45 204.31 390.88 206.39 404.69 212.52 C 400.19 220.42 394.53 227.62 388.65 234.54 C 387.42 235.68 386.47 237.43 384.77 237.86 C 383.13 232.52 379.62 228.09 376.12 223.85 C 371.50 218.51 366.43 213.34 360.14 210.00 L 360.01 209.35 Z" />
<path fill="#bba78c" opacity="1.00" d=" M 410.39 216.97 C 414.99 218.05 417.63 222.49 419.63 226.41 C 422.29 231.83 423.25 237.93 423.20 243.93 C 423.18 252.96 423.23 261.99 423.17 271.01 C 415.22 276.86 407.12 282.75 398.27 287.15 C 396.15 284.24 394.30 281.17 392.76 277.93 C 395.24 272.46 398.72 267.45 400.72 261.77 C 401.48 259.90 400.56 257.98 399.59 256.40 C 396.52 251.58 391.88 248.03 387.07 245.06 C 394.85 235.71 402.70 226.41 410.39 216.97 Z" />
<path fill="#bba78c" opacity="1.00" d=" M 240.21 221.66 C 244.46 220.66 248.73 219.62 253.11 219.35 C 253.51 223.60 252.89 227.89 251.82 232.01 C 249.70 235.05 245.45 235.04 242.47 236.86 C 241.37 231.86 240.28 226.81 240.21 221.66 Z" />
<path fill="#bba78c" opacity="1.00" d=" M 216.70 229.95 C 222.25 225.89 228.71 223.32 235.36 221.68 C 236.48 227.06 236.58 232.60 236.59 238.08 C 232.49 238.96 228.47 240.38 224.95 242.71 C 221.80 238.75 218.28 234.86 216.70 229.95 Z" />
<path fill="#bba78c" opacity="1.00" d=" M 197.00 253.24 C 198.40 244.83 202.57 234.62 212.16 233.32 C 215.40 237.07 218.63 241.09 219.97 245.95 C 221.08 248.33 218.40 250.68 216.17 250.84 C 209.74 251.37 203.37 252.32 197.00 253.24 Z" />
<path fill="#bba78c" opacity="1.00" d=" M 389.01 254.39 C 391.94 255.83 395.28 257.66 396.35 260.98 C 396.08 265.26 392.94 268.60 390.56 271.94 C 389.41 266.21 387.20 260.22 389.01 254.39 Z" />
<path fill="#bba78c" opacity="1.00" d=" M 410.26 283.21 C 414.58 280.26 419.09 277.27 424.37 276.48 C 424.55 281.87 423.69 287.25 424.29 292.63 C 424.53 296.45 424.46 300.28 424.34 304.10 C 424.21 306.94 424.33 309.79 424.37 312.63 C 413.56 319.17 407.59 331.35 396.64 337.65 C 395.64 334.43 394.18 330.48 396.43 327.45 C 399.70 322.45 403.78 318.02 407.00 312.98 C 407.49 311.89 408.62 310.48 407.69 309.32 C 404.80 304.76 399.68 302.25 396.41 298.01 C 396.36 296.25 397.60 294.84 398.60 293.53 C 402.01 289.59 406.03 286.22 410.26 283.21 Z" />
<path fill="#bba78c" opacity="1.00" d=" M 395.23 305.73 C 398.07 307.23 401.26 308.44 403.29 311.05 C 402.92 314.68 398.86 316.47 396.33 318.65 C 395.45 314.40 395.27 310.06 395.23 305.73 Z" />
<path fill="#bba78c" opacity="1.00" d=" M 74.88 310.72 C 79.00 310.47 83.45 306.54 87.17 309.76 C 89.19 311.26 89.53 313.91 89.98 316.20 C 84.44 316.44 78.90 316.20 73.36 316.34 C 73.46 314.37 74.04 312.49 74.88 310.72 Z" />
<path fill="#bba78c" opacity="1.00" d=" M 191.82 315.10 C 198.25 314.72 204.62 313.82 210.98 312.81 C 206.72 321.55 202.35 330.24 198.42 339.14 C 194.82 347.58 185.82 352.34 177.09 353.62 C 167.86 354.86 158.60 355.93 149.35 357.00 C 149.94 347.04 150.58 336.76 154.47 327.46 C 156.61 322.18 162.13 319.55 167.39 318.47 C 175.44 316.78 183.68 316.22 191.82 315.10 M 168.65 327.50 C 166.83 328.20 164.12 328.35 163.60 330.63 C 161.50 337.21 160.88 344.20 160.95 351.09 C 165.41 347.88 170.22 344.41 175.95 344.38 C 178.61 344.00 181.87 345.09 183.91 342.85 C 187.56 339.35 191.34 335.64 193.23 330.84 C 188.76 333.21 185.00 337.00 180.01 338.32 C 177.71 339.14 175.06 336.53 176.44 334.34 C 178.52 331.77 181.23 329.81 183.87 327.85 C 187.00 325.51 190.98 324.73 194.06 322.32 C 185.49 323.45 177.01 325.30 168.65 327.50 Z" />
<path fill="#bba78c" opacity="1.00" d=" M 43.61 325.77 C 46.45 329.91 51.77 329.31 56.12 328.80 C 66.02 327.29 76.05 328.16 86.01 327.93 C 92.99 327.80 100.19 328.67 106.89 326.20 C 106.46 329.37 105.03 333.56 108.13 335.84 C 111.39 336.27 114.59 334.86 117.87 335.12 C 118.08 335.41 118.51 336.01 118.73 336.30 C 117.82 340.47 116.60 344.59 116.39 348.89 C 115.05 351.89 111.89 353.61 109.68 355.95 C 107.60 352.90 105.73 349.72 103.75 346.61 C 98.92 350.26 94.37 354.47 88.86 357.08 C 84.02 355.49 81.29 350.39 76.96 347.85 C 75.23 347.73 73.16 347.41 71.83 348.82 C 68.50 351.56 65.36 354.55 61.97 357.24 C 57.32 354.47 53.48 350.56 48.94 347.61 C 42.27 352.63 34.52 356.38 29.11 362.91 C 28.31 357.29 27.17 351.70 26.82 346.03 C 32.58 339.42 39.54 333.67 43.61 325.77 Z" />
<path fill="#bba78c" opacity="1.00" d=" M 401.80 342.77 C 407.97 337.49 414.26 332.32 420.99 327.78 C 422.13 328.53 423.36 329.23 424.27 330.28 C 424.40 332.42 424.44 334.56 424.46 336.71 C 424.36 344.19 424.20 351.68 424.44 359.18 C 424.45 361.59 424.48 364.02 424.49 366.44 C 421.51 367.03 419.37 369.31 417.28 371.33 C 411.91 376.60 407.23 382.56 401.40 387.36 C 399.85 388.71 397.93 389.51 395.94 389.97 C 394.42 387.05 392.97 383.04 395.23 380.14 C 398.61 374.72 404.16 370.79 406.93 365.04 C 404.92 358.54 393.74 359.03 394.09 351.03 C 395.95 347.71 399.07 345.35 401.80 342.77 Z" />
<path fill="#bba78c" opacity="1.00" d=" M 68.01 358.96 C 66.54 355.99 69.52 353.50 72.06 352.68 C 75.20 351.92 78.48 353.49 80.60 355.76 C 78.72 360.73 76.50 365.60 73.68 370.11 C 70.71 367.10 69.46 362.84 68.01 358.96 Z" />
<path fill="#bba78c" opacity="1.00" d=" M 42.96 359.25 C 44.87 356.97 46.95 354.44 49.94 353.64 C 51.91 353.67 54.49 355.11 54.71 357.22 C 53.49 361.44 51.48 365.45 48.99 369.07 C 46.36 366.22 44.46 362.80 42.96 359.25 Z" />
<path fill="#bba78c" opacity="1.00" d=" M 136.44 360.68 C 138.97 360.36 141.09 358.48 143.65 358.35 C 145.68 358.95 147.43 360.23 149.25 361.29 C 149.04 366.00 149.25 370.89 147.61 375.40 C 144.72 376.79 142.21 378.80 139.66 380.71 C 130.08 388.12 120.61 395.68 111.04 403.09 C 108.27 405.05 105.65 407.71 102.06 407.90 C 92.77 409.15 83.37 409.57 74.00 409.62 C 66.59 409.67 59.28 408.27 51.94 407.41 C 47.87 406.81 44.21 409.04 40.69 410.72 C 37.15 412.82 32.87 411.79 28.97 411.99 C 24.47 412.53 22.62 407.03 23.55 403.45 C 24.88 398.63 27.91 394.47 31.23 390.81 C 33.26 391.82 35.40 394.31 37.79 392.72 C 42.08 390.46 45.92 387.47 50.09 385.01 C 54.09 387.33 57.33 391.53 62.13 392.10 C 68.43 389.17 72.71 383.32 78.12 379.13 C 81.41 383.21 83.14 388.41 86.97 392.06 C 92.00 391.52 96.08 387.86 100.21 385.18 C 102.16 383.60 105.06 382.09 104.82 379.15 C 104.86 373.13 107.80 367.19 112.27 363.24 C 115.00 362.46 116.95 365.66 119.23 366.78 C 121.95 369.20 123.91 365.21 125.80 363.73 C 128.49 360.68 132.67 360.48 136.44 360.68 Z" />
<path fill="#bba78c" opacity="1.00" d=" M 395.25 361.63 C 398.02 362.43 400.35 364.15 402.42 366.10 C 400.94 369.08 398.21 371.34 395.10 372.46 C 394.49 368.86 394.78 365.22 395.25 361.63 Z" />
<path fill="#bba78c" opacity="1.00" d=" M 89.87 386.31 C 86.49 383.80 84.83 377.80 87.70 374.23 C 92.29 375.47 96.58 377.61 100.48 380.31 C 97.79 383.43 93.93 385.61 89.87 386.31 Z" />
<path fill="#bba78c" opacity="1.00" d=" M 60.12 375.62 C 63.45 377.11 65.84 380.05 67.85 382.99 C 65.88 384.67 63.89 387.52 61.08 387.31 C 56.81 384.72 58.49 379.30 60.12 375.62 Z" />
<path fill="#bba78c" opacity="1.00" d=" M 34.70 378.56 C 36.19 376.91 38.19 379.74 39.27 380.80 C 41.36 382.66 41.45 387.22 37.95 387.43 C 32.88 388.29 33.13 381.55 34.70 378.56 Z" />
<path fill="#bba78c" opacity="1.00" d=" M 396.46 396.95 C 406.27 392.05 412.16 381.78 422.11 377.00 C 424.07 382.78 423.01 388.97 423.29 394.95 C 423.01 401.81 423.50 408.73 422.60 415.56 C 422.15 418.14 422.29 420.88 421.33 423.36 C 419.29 427.28 416.41 430.78 412.90 433.47 C 408.18 424.97 397.68 422.32 392.73 414.06 C 395.77 413.46 399.05 413.54 401.86 412.08 C 403.37 411.34 403.68 409.45 403.09 407.99 C 401.89 403.81 399.13 400.30 396.46 396.95 Z" />
<path fill="#bba78c" opacity="1.00" d=" M 392.96 402.57 C 395.30 404.36 397.28 406.77 397.89 409.72 C 395.42 410.37 392.88 410.03 390.41 409.59 C 391.02 407.16 391.81 404.79 392.96 402.57 Z" />
<path fill="#bba78c" opacity="1.00" d=" M 369.43 440.95 C 372.69 431.27 379.63 423.20 387.15 416.48 C 391.09 418.46 394.14 421.74 397.05 424.98 C 400.47 429.00 403.77 433.30 405.60 438.31 C 405.35 438.86 404.85 439.94 404.60 440.49 C 401.32 441.69 397.81 442.01 394.37 442.38 C 388.57 442.40 382.77 442.08 376.97 442.44 C 374.36 442.58 371.85 441.83 369.43 440.95 Z" />
<path fill="#bba78c" opacity="1.00" d=" M 192.32 441.21 C 197.46 436.15 202.30 430.24 209.03 427.30 C 213.90 427.06 218.84 426.93 223.70 427.36 C 228.43 430.28 230.44 436.17 230.90 441.48 C 225.30 442.42 219.62 442.37 213.96 442.30 L 213.34 442.29 C 208.85 442.37 204.35 442.45 199.86 442.50 C 197.29 442.53 194.62 442.51 192.32 441.21 Z" />
<path fill="#bba78c" opacity="1.00" d=" M 247.79 428.79 C 251.37 427.90 255.21 428.28 258.87 428.54 C 264.08 430.51 267.30 435.96 268.29 441.26 C 266.61 441.68 264.92 442.10 263.22 442.43 C 257.76 442.32 252.29 442.14 246.83 442.43 C 243.75 442.61 240.64 442.39 237.78 441.15 C 238.89 435.77 243.13 431.42 247.79 428.79 Z" />
<path fill="#bba78c" opacity="1.00" d=" M 275.05 440.10 C 278.14 434.19 283.58 427.45 291.01 428.31 C 297.24 428.63 303.63 427.58 309.72 429.24 C 314.35 430.47 317.80 434.64 318.32 439.38 C 315.48 442.18 311.13 440.75 307.60 441.59 C 303.18 442.63 298.65 442.15 294.17 442.23 C 287.73 442.45 281.08 442.80 275.05 440.10 Z" />
<path fill="#bba78c" opacity="1.00" d=" M 187.88 429.41 C 190.90 429.48 193.93 429.49 196.96 429.43 C 195.60 431.17 194.44 433.06 193.60 435.11 C 191.79 433.12 189.89 431.20 187.88 429.41 Z" />
<path fill="#bba78c" opacity="1.00" d=" M 230.83 429.45 C 233.91 429.46 236.98 429.48 240.05 429.43 C 237.92 431.39 235.81 433.45 234.46 436.06 C 232.96 434.03 231.36 431.98 230.83 429.45 Z" />
<path fill="#bba78c" opacity="1.00" d=" M 326.38 440.47 C 328.82 435.88 331.78 428.93 338.00 429.45 C 343.41 429.59 348.85 429.23 354.25 429.62 C 359.29 431.41 359.88 437.61 360.53 442.15 C 357.82 443.03 354.99 443.46 352.26 444.23 L 352.08 443.53 C 350.80 443.48 349.53 443.46 348.26 443.47 C 345.42 443.48 342.58 443.51 339.74 443.49 C 338.89 443.49 337.21 443.47 336.37 443.46 L 336.82 444.34 C 333.42 442.72 328.71 444.09 326.38 440.47 Z" />
<path fill="#bba78c" opacity="1.00" d=" M 361.41 430.56 C 364.78 429.23 368.34 428.45 371.96 428.21 C 369.37 431.56 366.97 435.05 364.90 438.75 C 363.84 435.97 362.66 433.25 361.41 430.56 Z" />
<path fill="#bba78c" opacity="1.00" d=" M 268.16 430.58 C 270.81 429.97 273.50 429.59 276.22 429.41 C 274.50 431.51 272.96 433.73 271.51 436.02 C 270.53 434.12 269.37 432.32 268.16 430.58 Z" />
<path fill="#bba78c" opacity="1.00" d=" M 319.38 430.66 C 322.13 430.67 324.88 430.68 327.64 430.64 C 326.06 432.69 325.05 435.09 323.64 437.24 C 322.20 435.06 320.81 432.84 319.38 430.66 Z" />
<path fill="#bba78c" opacity="1.00" d=" M 175.31 441.16 C 176.95 437.63 179.80 434.86 183.04 432.79 C 186.16 435.39 188.95 438.35 191.88 441.14 C 187.02 443.29 181.60 444.00 176.42 442.61 C 176.14 442.24 175.59 441.52 175.31 441.16 Z" />
</g>
</svg>
