<?xml version="1.0" encoding="UTF-8" ?>
<!DOCTYPE svg PUBLIC "-//W3C//DTD SVG 1.1//EN" "http://www.w3.org/Graphics/SVG/1.1/DTD/svg11.dtd">
<svg width="473pt" height="478pt" viewBox="0 0 473 478" version="1.1" xmlns="http://www.w3.org/2000/svg">
<g id="#cfc3b3ff">
<path fill="#cfc3b3" opacity="1.00" d=" M 28.00 0.00 L 32.70 0.00 C 36.80 0.28 41.32 0.49 44.63 3.22 C 47.51 5.57 47.90 9.55 47.86 13.01 C 47.57 28.67 46.42 44.32 46.83 59.98 C 47.15 62.72 46.82 65.97 48.79 68.16 C 50.90 69.56 54.43 69.02 55.61 66.61 C 56.82 64.26 57.08 61.58 57.39 58.99 C 58.73 45.01 58.75 30.92 60.20 16.95 C 60.90 11.70 62.08 4.67 68.02 3.01 C 73.97 2.03 80.25 2.06 86.11 3.54 C 90.75 4.72 93.24 9.54 93.31 14.05 C 93.79 28.06 91.67 41.98 90.20 55.88 C 89.94 60.11 89.44 64.68 91.34 68.63 C 92.78 71.62 96.85 71.73 99.51 70.49 C 102.64 68.65 103.50 64.78 104.21 61.49 C 106.06 50.14 103.98 38.36 107.15 27.19 C 108.36 22.74 111.48 18.54 116.10 17.30 C 123.95 15.14 133.40 16.81 138.81 23.27 C 143.26 28.33 144.50 35.57 142.92 42.01 C 139.71 57.21 136.23 72.45 135.63 88.03 C 135.19 105.72 136.03 123.43 137.79 141.03 C 113.28 139.30 88.81 137.08 64.30 135.35 C 65.03 162.56 66.20 189.77 66.53 216.99 C 66.61 226.12 65.92 235.27 64.37 244.27 C 63.85 246.34 63.36 248.41 62.94 250.51 C 60.39 243.43 55.73 236.72 48.35 234.13 C 40.54 216.66 34.10 198.57 29.25 180.05 C 16.42 130.83 14.14 79.62 14.05 28.99 C 14.36 20.92 14.19 12.36 17.83 4.94 C 19.62 1.08 24.05 -0.19 28.00 0.00 M 27.38 10.43 C 24.53 12.23 24.14 15.90 23.72 18.92 C 23.16 24.93 23.43 30.98 23.40 37.00 C 23.49 41.67 23.31 46.53 24.99 50.97 C 26.29 54.66 31.00 55.65 34.31 54.32 C 36.87 53.20 38.21 50.50 38.97 47.95 C 41.14 40.52 40.81 32.67 40.80 25.01 C 40.59 20.34 40.68 15.11 37.73 11.20 C 35.00 8.71 30.57 9.18 27.38 10.43 M 75.19 13.31 C 71.23 14.37 68.97 18.28 68.12 22.04 C 66.09 30.51 66.57 39.31 66.77 47.95 C 67.01 50.68 67.22 54.56 70.38 55.53 C 74.15 56.39 79.57 56.67 81.61 52.60 C 84.18 46.74 84.02 40.17 85.09 33.96 C 85.68 28.25 86.61 22.16 84.39 16.69 C 83.04 13.07 78.51 12.28 75.19 13.31 M 120.37 28.51 C 117.08 30.00 116.17 33.87 115.62 37.09 C 114.39 44.18 112.67 51.37 113.60 58.60 C 113.94 61.95 116.52 65.17 120.08 65.25 C 122.81 65.46 126.61 65.91 128.09 63.00 C 130.76 57.90 131.27 52.05 132.31 46.48 C 132.83 41.82 134.00 36.70 131.72 32.32 C 129.61 28.44 124.33 27.44 120.37 28.51 Z" />
<path fill="#cfc3b3" opacity="1.00" d=" M 457.21 0.00 L 461.67 0.00 C 464.74 0.46 467.78 2.01 469.17 4.93 C 472.50 11.47 472.45 19.05 473.00 26.20 L 473.00 35.91 C 472.52 88.14 469.59 141.06 454.56 191.40 C 447.44 215.50 437.19 238.51 426.11 261.01 C 425.89 260.09 425.46 258.26 425.25 257.34 C 424.34 252.98 423.64 248.58 422.65 244.24 C 420.87 234.26 420.29 224.09 420.52 213.97 C 420.91 187.75 422.02 161.55 422.71 135.34 C 398.21 137.22 373.73 139.37 349.22 141.05 C 350.93 124.10 351.70 107.05 351.45 90.02 C 351.07 73.40 347.23 57.17 343.91 40.96 C 342.05 32.93 345.42 23.83 352.56 19.51 C 358.21 16.12 365.40 15.57 371.63 17.54 C 376.22 19.08 379.02 23.56 380.10 28.07 C 382.82 38.78 381.11 49.95 382.68 60.80 C 383.31 64.14 384.07 67.94 386.92 70.15 C 389.58 71.81 394.08 71.80 395.66 68.65 C 397.54 64.78 397.08 60.29 396.83 56.13 C 395.38 42.15 393.17 28.15 393.73 14.06 C 393.74 9.54 396.24 4.73 400.88 3.55 C 406.75 2.05 413.03 2.03 418.99 3.01 C 424.55 4.51 425.92 10.95 426.69 15.88 C 428.40 30.67 428.17 45.62 429.77 60.42 C 430.20 62.95 430.42 65.81 432.27 67.77 C 434.25 69.47 438.43 69.48 439.24 66.53 C 440.16 63.47 440.16 60.22 440.26 57.05 C 440.36 43.37 439.60 29.70 439.21 16.03 C 439.18 11.87 438.65 6.97 441.83 3.72 C 445.91 -0.14 451.98 0.21 457.21 0.00 M 450.37 10.34 C 447.71 12.07 447.14 15.53 446.63 18.42 C 445.91 25.57 446.07 32.79 446.54 39.95 C 447.06 44.09 447.54 48.51 449.96 52.04 C 452.66 56.23 460.23 55.80 462.00 50.97 C 463.51 47.18 463.50 43.02 463.59 39.00 C 463.58 32.30 463.89 25.57 463.29 18.88 C 462.84 15.88 462.45 12.23 459.66 10.43 C 456.77 9.22 453.26 9.01 450.37 10.34 M 406.13 13.33 C 402.63 14.56 401.62 18.65 401.35 21.95 C 400.94 30.01 402.42 38.01 403.54 45.96 C 404.26 49.43 404.73 54.14 408.63 55.50 C 411.41 56.24 414.51 56.31 417.22 55.29 C 420.54 53.51 420.01 49.13 420.33 45.95 C 420.32 36.98 421.10 27.61 417.87 19.05 C 416.22 14.42 410.79 11.76 406.13 13.33 M 361.22 28.36 C 356.90 28.82 354.01 32.90 353.99 37.06 C 353.86 43.85 355.35 50.55 356.74 57.16 C 357.60 59.93 358.17 63.49 361.02 64.92 C 365.08 65.97 371.05 65.70 372.72 61.05 C 374.76 54.83 373.18 48.16 372.25 41.89 C 371.29 37.78 371.44 32.97 368.37 29.72 C 366.57 27.70 363.62 27.96 361.22 28.36 Z" />
<path fill="#cfc3b3" opacity="1.00" d=" M 184.03 217.99 C 187.20 214.74 191.57 213.17 195.90 212.14 L 195.63 213.12 C 193.49 219.85 193.90 227.01 193.90 233.98 C 194.05 240.17 194.16 246.45 195.97 252.43 C 188.86 250.33 182.80 244.85 180.04 237.96 C 177.36 231.29 178.70 222.99 184.03 217.99 Z" />
<path fill="#cfc3b3" opacity="1.00" d=" M 292.16 212.10 C 300.31 213.49 308.28 219.41 309.27 228.08 C 310.96 239.17 302.33 249.15 292.32 252.63 C 292.46 251.96 292.75 250.62 292.89 249.95 C 294.24 243.73 294.19 237.32 294.31 230.99 C 294.25 224.97 294.50 218.76 292.43 213.00 L 292.16 212.10 Z" />
<path fill="#cfc3b3" opacity="1.00" d=" M 198.72 212.56 C 204.74 212.96 209.67 217.30 213.19 221.89 C 218.06 228.40 220.37 237.82 216.27 245.26 C 212.68 251.47 204.91 253.14 198.26 253.08 L 198.79 251.77 C 200.45 248.02 200.50 243.83 200.73 239.80 C 200.76 230.72 201.67 221.31 198.72 212.56 Z" />
<path fill="#cfc3b3" opacity="1.00" d=" M 272.64 225.64 C 276.10 219.27 282.00 213.33 289.51 212.45 C 286.97 219.36 287.41 226.83 287.31 234.06 C 287.55 240.50 287.12 247.29 289.95 253.26 C 284.14 252.85 277.61 252.09 273.50 247.45 C 268.26 241.45 269.13 232.29 272.64 225.64 Z" />
<path fill="#cfc3b3" opacity="1.00" d=" M 181.00 267.01 C 183.93 267.24 187.33 266.17 189.85 268.16 C 199.34 274.44 208.93 280.57 218.41 286.87 C 218.38 294.62 218.42 302.38 218.39 310.14 C 213.05 308.52 207.63 307.17 202.31 305.48 C 195.26 295.53 189.04 284.96 182.25 274.80 C 180.41 272.61 181.14 269.62 181.00 267.01 Z" />
<path fill="#cfc3b3" opacity="1.00" d=" M 298.32 268.21 C 300.82 266.19 304.23 267.22 307.17 267.00 C 306.96 269.40 307.78 272.15 306.27 274.25 C 300.00 283.98 293.70 293.69 287.48 303.45 C 286.81 304.39 286.26 305.61 284.98 305.81 C 279.95 307.37 274.84 308.68 269.79 310.17 C 269.77 302.40 269.80 294.63 269.78 286.86 C 279.30 280.66 288.82 274.46 298.32 268.21 Z" />
<path fill="#cfc3b3" opacity="1.00" d=" M 77.07 360.54 C 78.26 359.30 79.46 358.07 80.66 356.84 C 84.17 362.49 87.85 368.05 91.23 373.79 C 86.37 373.30 81.54 372.19 77.08 370.18 C 77.09 366.97 77.09 363.75 77.07 360.54 Z" />
<path fill="#cfc3b3" opacity="1.00" d=" M 406.34 356.84 C 407.54 358.05 408.75 359.28 409.95 360.52 C 410.04 369.72 409.68 378.93 410.13 388.12 C 410.10 391.25 412.63 393.38 414.98 395.00 C 424.77 401.78 434.75 408.30 444.69 414.87 C 432.14 415.73 419.54 415.81 406.97 416.20 C 400.61 416.18 393.51 416.95 388.11 412.86 C 381.61 408.16 379.68 399.61 379.59 392.02 C 379.54 380.46 379.54 368.89 379.62 357.33 C 384.33 364.21 387.83 371.84 392.59 378.70 C 397.14 371.39 401.82 364.17 406.34 356.84 Z" />
<path fill="#cfc3b3" opacity="1.00" d=" M 97.51 374.17 C 100.59 368.43 103.82 362.77 107.40 357.34 C 107.44 362.98 107.48 368.62 107.42 374.27 C 104.12 374.27 100.81 374.26 97.51 374.17 Z" />
<path fill="#cfc3b3" opacity="1.00" d=" M 52.96 407.89 C 69.81 408.31 86.67 407.93 103.52 408.09 C 101.57 410.54 99.41 412.97 96.51 414.31 C 91.38 416.83 85.51 416.12 79.99 416.20 C 67.43 415.89 54.87 415.56 42.32 415.00 C 45.79 412.52 49.40 410.24 52.96 407.89 Z" />
<path fill="#cfc3b3" opacity="1.00" d=" M 122.83 430.13 C 127.38 425.81 132.04 421.60 136.70 417.41 C 138.96 421.69 141.34 425.92 143.63 430.19 C 136.70 430.17 129.76 430.28 122.83 430.13 Z" />
<path fill="#cfc3b3" opacity="1.00" d=" M 211.43 430.19 C 213.78 425.91 215.97 421.55 218.55 417.40 C 223.00 421.76 227.77 425.78 232.24 430.12 C 225.30 430.29 218.36 430.17 211.43 430.19 Z" />
<path fill="#cfc3b3" opacity="1.00" d=" M 269.69 417.41 C 271.80 421.60 273.66 425.92 275.60 430.19 C 269.05 430.18 262.51 430.25 255.97 430.16 C 260.42 425.78 265.21 421.76 269.69 417.41 Z" />
<path fill="#cfc3b3" opacity="1.00" d=" M 351.46 417.42 C 356.18 421.55 360.83 425.79 365.36 430.13 C 358.43 430.27 351.50 430.18 344.57 430.19 C 346.83 425.91 349.24 421.72 351.46 417.42 Z" />
<path fill="#cfc3b3" opacity="1.00" d=" M 171.70 455.87 C 176.37 455.86 181.04 455.86 185.71 455.87 C 182.93 463.12 181.41 470.73 178.72 478.00 L 178.38 478.00 C 176.71 470.47 173.83 463.27 171.70 455.87 Z" />
<path fill="#cfc3b3" opacity="1.00" d=" M 302.50 455.87 C 307.16 455.86 311.82 455.86 316.48 455.87 C 314.20 463.08 311.95 470.31 309.63 477.51 C 306.75 470.48 304.95 463.05 302.50 455.87 Z" />
</g>
<g id="#bc6c54ff">
<path fill="#bc6c54" opacity="1.00" d=" M 27.38 10.43 C 30.57 9.18 35.00 8.71 37.73 11.20 C 40.68 15.11 40.59 20.34 40.80 25.01 C 40.81 32.67 41.14 40.52 38.97 47.95 C 38.21 50.50 36.87 53.20 34.31 54.32 C 31.00 55.65 26.29 54.66 24.99 50.97 C 23.31 46.53 23.49 41.67 23.40 37.00 C 23.43 30.98 23.16 24.93 23.72 18.92 C 24.14 15.90 24.53 12.23 27.38 10.43 Z" />
<path fill="#bc6c54" opacity="1.00" d=" M 450.37 10.34 C 453.26 9.01 456.77 9.22 459.66 10.43 C 462.45 12.23 462.84 15.88 463.29 18.88 C 463.89 25.57 463.58 32.30 463.59 39.00 C 463.50 43.02 463.51 47.18 462.00 50.97 C 460.23 55.80 452.66 56.23 449.96 52.04 C 447.54 48.51 447.06 44.09 446.54 39.95 C 446.07 32.79 445.91 25.57 446.63 18.42 C 447.14 15.53 447.71 12.07 450.37 10.34 Z" />
<path fill="#bc6c54" opacity="1.00" d=" M 75.19 13.31 C 78.51 12.28 83.04 13.07 84.39 16.69 C 86.61 22.16 85.68 28.25 85.09 33.96 C 84.02 40.17 84.18 46.74 81.61 52.60 C 79.57 56.67 74.15 56.39 70.38 55.53 C 67.22 54.56 67.01 50.68 66.77 47.95 C 66.57 39.31 66.09 30.51 68.12 22.04 C 68.97 18.28 71.23 14.37 75.19 13.31 Z" />
<path fill="#bc6c54" opacity="1.00" d=" M 406.13 13.33 C 410.79 11.76 416.22 14.42 417.87 19.05 C 421.10 27.61 420.32 36.98 420.33 45.95 C 420.01 49.13 420.54 53.51 417.22 55.29 C 414.51 56.31 411.41 56.24 408.63 55.50 C 404.73 54.14 404.26 49.43 403.54 45.96 C 402.42 38.01 400.94 30.01 401.35 21.95 C 401.62 18.65 402.63 14.56 406.13 13.33 Z" />
<path fill="#bc6c54" opacity="1.00" d=" M 120.37 28.51 C 124.33 27.44 129.61 28.44 131.72 32.32 C 134.00 36.70 132.83 41.82 132.31 46.48 C 131.27 52.05 130.76 57.90 128.09 63.00 C 126.61 65.91 122.81 65.46 120.08 65.25 C 116.52 65.17 113.94 61.95 113.60 58.60 C 112.67 51.37 114.39 44.18 115.62 37.09 C 116.17 33.87 117.08 30.00 120.37 28.51 Z" />
<path fill="#bc6c54" opacity="1.00" d=" M 361.22 28.36 C 363.62 27.96 366.57 27.70 368.37 29.72 C 371.44 32.97 371.29 37.78 372.25 41.89 C 373.18 48.16 374.76 54.83 372.72 61.05 C 371.05 65.70 365.08 65.97 361.02 64.92 C 358.17 63.49 357.60 59.93 356.74 57.16 C 355.35 50.55 353.86 43.85 353.99 37.06 C 354.01 32.90 356.90 28.82 361.22 28.36 Z" />
<path fill="#bc6c54" opacity="1.00" d=" M 168.35 374.09 C 172.93 370.63 177.54 367.21 182.15 363.79 C 185.47 367.13 188.66 370.60 191.84 374.08 C 184.01 374.39 176.18 374.38 168.35 374.09 Z" />
<path fill="#bc6c54" opacity="1.00" d=" M 286.23 384.95 C 292.51 377.65 299.45 370.88 305.99 363.80 C 314.96 370.24 323.71 376.99 332.72 383.36 C 333.05 390.48 332.64 397.62 332.96 404.74 C 338.47 408.42 343.77 412.38 349.19 416.19 C 346.89 420.88 344.54 425.54 342.18 430.20 C 337.13 430.20 332.08 430.21 327.04 430.19 C 323.57 437.53 319.97 444.81 316.66 452.23 C 311.99 452.43 307.30 452.26 302.63 452.40 C 299.21 445.14 296.50 437.56 293.08 430.31 C 288.43 430.01 283.76 430.29 279.11 430.19 C 276.79 425.52 274.45 420.88 272.13 416.22 C 276.79 413.54 281.43 410.81 286.09 408.13 C 286.28 400.40 285.96 392.67 286.23 384.95 Z" />
<path fill="#bc6c54" opacity="1.00" d=" M 150.41 408.08 C 167.67 408.06 184.92 408.06 202.18 408.06 C 206.77 410.82 211.42 413.49 216.05 416.20 C 213.75 420.88 211.39 425.54 209.05 430.20 C 204.39 430.20 199.72 430.20 195.06 430.19 C 191.97 437.54 188.77 444.85 185.82 452.25 C 181.13 452.37 176.45 452.32 171.76 452.37 C 168.09 445.02 164.74 437.51 161.09 430.15 C 156.06 430.23 151.02 430.20 145.99 430.20 C 143.65 425.54 141.32 420.89 139.00 416.23 C 142.81 413.52 146.62 410.81 150.41 408.08 Z" />
</g>
<g id="#6e743eff">
<path fill="#6e743e" opacity="1.00" d=" M 227.74 47.89 C 233.21 39.43 238.49 30.85 244.05 22.45 C 249.72 30.77 254.97 39.37 260.38 47.86 C 267.36 45.39 274.14 42.40 281.13 39.97 C 282.21 40.48 282.56 41.77 283.23 42.67 C 288.04 51.05 292.96 59.36 297.82 67.70 C 302.50 66.19 307.15 64.59 311.81 63.04 C 318.03 76.31 324.43 89.49 330.48 102.83 C 324.57 108.88 318.90 115.17 313.01 121.24 C 306.29 107.38 299.90 93.36 293.15 79.52 C 285.96 86.66 279.26 94.28 272.08 101.41 C 262.73 89.03 253.45 76.59 244.09 64.22 C 234.72 76.60 225.51 89.10 216.05 101.41 C 208.97 94.16 202.13 86.66 195.04 79.42 C 188.44 93.30 181.81 107.16 175.36 121.11 C 169.14 115.20 163.34 108.81 157.66 102.39 C 164.10 89.39 170.11 76.18 176.31 63.06 C 180.99 64.58 185.69 66.02 190.30 67.72 C 195.91 58.45 201.16 48.96 206.82 39.73 C 213.79 42.46 220.78 45.13 227.74 47.89 Z" />
<path fill="#6e743e" opacity="1.00" d=" M 217.16 107.28 C 226.29 94.59 235.07 81.66 244.09 68.89 C 253.08 81.67 261.97 94.52 270.95 107.30 C 278.41 100.02 285.66 92.54 293.13 85.28 C 298.65 98.81 304.04 112.38 309.45 125.96 C 316.89 122.59 324.23 119.00 331.63 115.55 C 331.02 123.72 330.33 131.89 329.60 140.05 C 317.60 149.13 305.83 158.52 294.72 168.67 C 286.30 176.66 278.13 185.13 272.17 195.16 C 266.83 204.13 264.23 214.57 264.12 224.97 C 263.71 232.36 264.81 240.28 261.18 247.07 C 258.77 252.05 253.28 254.78 247.96 255.23 C 241.79 255.79 234.75 255.46 230.03 250.91 C 225.38 246.67 224.14 240.05 224.26 234.02 C 224.25 223.59 223.81 212.88 219.83 203.09 C 215.47 192.09 207.69 182.85 199.42 174.56 C 186.52 161.45 171.93 150.18 157.32 139.08 L 158.54 139.99 C 157.89 131.84 157.15 123.70 156.54 115.55 C 163.98 118.92 171.31 122.52 178.72 125.96 C 184.12 112.37 189.58 98.80 195.04 85.23 C 202.45 92.54 209.83 99.89 217.16 107.28 M 243.60 90.25 C 240.38 100.58 236.70 110.77 233.85 121.20 C 240.68 121.42 247.51 121.37 254.35 121.25 C 251.39 110.83 247.99 100.53 244.52 90.27 C 244.29 90.27 243.83 90.26 243.60 90.25 M 191.97 118.11 C 194.33 128.59 197.83 138.80 200.95 149.08 C 206.43 144.95 212.01 140.90 217.10 136.29 C 208.68 130.30 200.36 124.15 191.97 118.11 M 271.07 136.40 C 276.47 140.66 281.59 145.37 287.46 148.98 C 290.18 138.78 293.76 128.83 296.16 118.56 C 287.49 124.04 279.47 130.51 271.07 136.40 M 265.41 159.42 C 260.46 166.64 255.00 173.49 250.09 180.75 C 256.24 183.17 262.47 185.39 268.61 187.82 C 268.60 177.14 268.78 166.46 268.55 155.78 C 267.42 156.91 266.32 158.10 265.41 159.42 M 219.87 156.40 C 219.32 166.72 219.65 177.07 219.73 187.40 C 226.03 185.73 232.01 183.10 238.09 180.79 C 234.85 175.80 231.17 171.12 227.72 166.28 C 225.15 162.95 223.04 159.22 219.87 156.40 Z" />
<path fill="#6e743e" opacity="1.00" d=" M 64.30 135.35 C 88.81 137.08 113.28 139.30 137.79 141.03 C 139.36 155.83 140.94 170.62 142.47 185.42 C 132.35 184.23 122.23 183.03 112.11 181.93 C 112.21 198.59 114.78 215.09 117.96 231.40 C 113.73 237.81 110.37 244.74 106.55 251.38 C 101.45 244.34 97.96 236.29 93.62 228.78 C 89.49 235.67 87.11 243.48 82.59 250.14 C 79.33 243.01 75.95 235.93 72.56 228.87 C 69.46 233.80 67.18 239.18 64.37 244.27 C 65.92 235.27 66.61 226.12 66.53 216.99 C 66.20 189.77 65.03 162.56 64.30 135.35 Z" />
<path fill="#6e743e" opacity="1.00" d=" M 349.22 141.05 C 373.73 139.37 398.21 137.22 422.71 135.34 C 422.02 161.55 420.91 187.75 420.52 213.97 C 420.29 224.09 420.87 234.26 422.65 244.24 C 419.85 239.15 417.53 233.81 414.50 228.85 C 411.02 235.92 407.76 243.09 404.37 250.20 C 399.96 243.48 397.53 235.72 393.44 228.83 C 388.96 236.27 385.53 244.35 380.47 251.44 C 376.64 244.77 373.30 237.81 369.05 231.40 C 372.22 215.10 374.77 198.62 374.91 181.98 C 364.78 183.08 354.67 184.37 344.54 185.41 C 346.09 170.62 347.65 155.83 349.22 141.05 Z" />
<path fill="#6e743e" opacity="1.00" d=" M 71.24 276.09 C 75.43 269.27 78.30 261.60 82.90 255.08 C 87.18 262.88 89.43 271.62 93.60 279.48 C 97.89 271.23 101.81 262.79 106.23 254.61 C 112.21 261.55 116.36 269.86 122.58 276.61 C 124.07 293.75 128.14 310.52 131.87 327.28 C 126.70 322.19 121.91 316.72 116.92 311.46 C 114.57 308.75 112.29 305.99 109.87 303.36 C 104.86 309.56 100.72 316.39 95.86 322.70 C 91.18 315.69 87.47 308.10 82.89 301.03 C 77.23 307.30 72.37 314.26 66.47 320.30 C 65.08 316.42 63.63 312.55 62.36 308.63 C 63.06 292.99 64.18 277.36 64.32 261.69 C 66.60 266.50 68.79 271.36 71.24 276.09 Z" />
<path fill="#6e743e" opacity="1.00" d=" M 364.43 276.66 C 370.65 269.89 374.85 261.56 380.81 254.58 C 385.35 262.75 388.83 271.49 393.72 279.46 C 397.40 271.28 400.03 262.61 404.38 254.74 C 408.08 261.86 411.95 268.89 415.55 276.06 C 419.32 270.10 421.27 263.19 425.25 257.34 C 425.46 258.26 425.89 260.09 426.11 261.01 C 429.13 274.04 433.14 286.90 438.85 299.02 C 441.64 305.18 445.06 311.02 448.22 316.99 C 446.15 315.83 444.04 314.68 442.20 313.17 C 438.51 307.82 432.42 304.92 427.40 301.01 C 425.02 307.41 422.96 313.92 420.54 320.31 C 414.66 314.24 409.81 307.26 404.16 300.99 C 399.55 308.06 395.87 315.70 391.16 322.71 C 386.30 316.38 382.16 309.53 377.12 303.34 C 374.75 306.03 372.48 308.81 370.11 311.49 C 365.08 316.73 360.32 322.22 355.14 327.31 C 358.85 310.56 362.91 293.79 364.43 276.66 Z" />
<path fill="#6e743e" opacity="1.00" d=" M 127.31 256.54 C 142.45 259.72 157.71 262.41 172.73 266.04 C 173.82 277.97 174.33 289.95 175.15 301.90 C 184.04 307.75 192.93 313.61 201.93 319.29 C 202.19 337.64 201.96 355.99 202.05 374.34 C 200.62 374.36 199.20 374.36 197.77 374.33 C 192.06 370.28 187.49 364.85 182.20 360.28 C 175.81 364.94 169.52 369.75 163.06 374.32 C 160.48 374.34 157.90 374.29 155.33 374.27 C 155.35 367.65 155.31 361.03 155.35 354.40 C 163.92 345.89 172.48 337.37 181.01 328.82 C 169.39 321.37 157.69 314.03 146.01 306.68 C 145.96 316.37 146.00 326.07 145.99 335.76 C 150.49 334.39 155.06 333.19 159.51 331.65 C 161.53 331.16 162.41 329.09 163.60 327.63 C 158.58 327.14 154.05 329.46 149.47 331.10 C 149.52 324.97 149.48 318.85 149.49 312.73 C 158.15 318.20 166.69 323.95 174.92 330.03 C 167.83 337.22 160.27 343.95 152.99 350.95 C 147.95 348.56 142.86 346.28 137.81 343.92 C 134.31 314.80 130.79 285.67 127.31 256.54 Z" />
<path fill="#6e743e" opacity="1.00" d=" M 315.30 265.91 C 330.46 262.73 345.67 259.76 360.83 256.52 C 357.39 285.53 354.00 314.56 350.32 343.54 C 345.85 346.70 340.15 348.39 335.18 350.94 C 327.82 343.92 320.38 336.98 313.02 329.95 C 321.63 324.29 329.90 318.12 338.70 312.77 C 338.69 318.87 338.66 324.96 338.72 331.06 C 334.15 329.60 329.73 327.00 324.76 327.68 C 325.51 328.84 326.27 330.01 327.04 331.18 C 332.13 332.59 337.13 334.28 342.21 335.73 C 342.17 326.07 342.23 316.41 342.17 306.75 C 330.45 314.03 318.83 321.45 307.17 328.83 C 315.74 337.27 324.14 345.89 332.78 354.26 C 332.93 362.85 332.81 371.45 332.85 380.04 C 323.87 373.49 314.98 366.82 305.99 360.28 C 299.37 366.46 292.85 372.75 286.15 378.83 C 286.17 359.01 286.06 339.19 286.20 319.37 C 295.21 313.70 304.06 307.79 312.99 302.00 C 313.75 289.97 314.58 277.95 315.30 265.91 Z" />
</g>
<g id="#43a87dff">
<path fill="#43a87d" opacity="1.00" d=" M 243.60 90.25 C 243.83 90.26 244.29 90.27 244.52 90.27 C 247.99 100.53 251.39 110.83 254.35 121.25 C 247.51 121.37 240.68 121.42 233.85 121.20 C 236.70 110.77 240.38 100.58 243.60 90.25 Z" />
<path fill="#43a87d" opacity="1.00" d=" M 191.97 118.11 C 200.36 124.15 208.68 130.30 217.10 136.29 C 212.01 140.90 206.43 144.95 200.95 149.08 C 197.83 138.80 194.33 128.59 191.97 118.11 Z" />
<path fill="#43a87d" opacity="1.00" d=" M 271.07 136.40 C 279.47 130.51 287.49 124.04 296.16 118.56 C 293.76 128.83 290.18 138.78 287.46 148.98 C 281.59 145.37 276.47 140.66 271.07 136.40 Z" />
<path fill="#43a87d" opacity="1.00" d=" M 156.67 149.58 C 168.69 156.40 179.86 164.67 190.31 173.69 C 204.02 185.96 215.61 202.10 218.30 220.66 C 214.34 216.90 210.63 212.56 205.43 210.46 C 193.03 204.99 176.18 213.13 174.24 226.92 C 172.65 242.33 186.13 258.54 202.10 257.65 C 209.31 257.44 215.39 253.12 220.79 248.78 C 223.77 253.20 227.71 257.38 233.08 258.69 C 240.44 260.48 248.36 260.59 255.67 258.53 C 260.81 257.10 264.53 253.05 267.38 248.75 C 270.81 251.39 274.22 254.22 278.30 255.82 C 283.86 258.22 290.38 258.33 295.99 256.01 C 304.56 252.62 310.84 244.69 313.25 235.92 C 314.65 231.01 314.46 225.53 312.04 220.97 C 306.89 210.95 293.69 206.11 283.26 210.25 C 277.81 212.38 273.71 216.71 269.93 220.99 C 270.55 212.77 274.03 205.11 277.94 197.96 C 284.64 185.84 294.56 175.84 305.44 167.41 C 313.72 160.92 322.31 154.76 331.48 149.58 C 331.59 165.41 330.65 181.23 330.62 197.05 C 341.81 196.09 352.97 194.65 364.17 193.75 C 355.48 207.36 346.44 220.75 337.59 234.26 C 343.61 240.31 350.04 245.93 356.15 251.89 C 337.76 255.64 319.36 259.42 300.96 263.13 C 296.91 264.13 293.73 267.07 290.17 269.10 C 282.16 273.93 274.46 279.31 266.27 283.85 C 251.83 287.86 236.34 287.77 221.90 283.77 C 211.18 277.72 201.03 270.69 190.48 264.33 C 188.53 263.22 186.25 262.93 184.10 262.43 C 166.71 258.96 149.34 255.37 131.95 251.86 C 138.20 246.02 144.54 240.27 150.64 234.28 C 141.78 220.78 132.66 207.44 124.13 193.72 C 135.28 194.60 146.39 196.00 157.52 197.05 C 157.56 181.22 156.60 165.41 156.67 149.58 Z" />
<path fill="#43a87d" opacity="1.00" d=" M 265.41 159.42 C 266.32 158.10 267.42 156.91 268.55 155.78 C 268.78 166.46 268.60 177.14 268.61 187.82 C 262.47 185.39 256.24 183.17 250.09 180.75 C 255.00 173.49 260.46 166.64 265.41 159.42 Z" />
<path fill="#43a87d" opacity="1.00" d=" M 219.87 156.40 C 223.04 159.22 225.15 162.95 227.72 166.28 C 231.17 171.12 234.85 175.80 238.09 180.79 C 232.01 183.10 226.03 185.73 219.73 187.40 C 219.65 177.07 219.32 166.72 219.87 156.40 Z" />
<path fill="#43a87d" opacity="1.00" d=" M 64.37 244.27 C 67.18 239.18 69.46 233.80 72.56 228.87 C 75.95 235.93 79.33 243.01 82.59 250.14 C 87.11 243.48 89.49 235.67 93.62 228.78 C 97.96 236.29 101.45 244.34 106.55 251.38 C 110.37 244.74 113.73 237.81 117.96 231.40 C 120.11 246.40 121.61 261.49 122.58 276.61 C 116.36 269.86 112.21 261.55 106.23 254.61 C 101.81 262.79 97.89 271.23 93.60 279.48 C 89.43 271.62 87.18 262.88 82.90 255.08 C 78.30 261.60 75.43 269.27 71.24 276.09 C 68.79 271.36 66.60 266.50 64.32 261.69 C 63.87 257.96 63.40 254.24 62.94 250.51 C 63.36 248.41 63.85 246.34 64.37 244.27 Z" />
<path fill="#43a87d" opacity="1.00" d=" M 393.44 228.83 C 397.53 235.72 399.96 243.48 404.37 250.20 C 407.76 243.09 411.02 235.92 414.50 228.85 C 417.53 233.81 419.85 239.15 422.65 244.24 C 423.64 248.58 424.34 252.98 425.25 257.34 C 421.27 263.19 419.32 270.10 415.55 276.06 C 411.95 268.89 408.08 261.86 404.38 254.74 C 400.03 262.61 397.40 271.28 393.72 279.46 C 388.83 271.49 385.35 262.75 380.81 254.58 C 374.85 261.56 370.65 269.89 364.43 276.66 C 365.37 261.52 366.90 246.41 369.05 231.40 C 373.30 237.81 376.64 244.77 380.47 251.44 C 385.53 244.35 388.96 236.27 393.44 228.83 Z" />
<path fill="#43a87d" opacity="1.00" d=" M 66.47 320.30 C 72.37 314.26 77.23 307.30 82.89 301.03 C 87.47 308.10 91.18 315.69 95.86 322.70 C 100.72 316.39 104.86 309.56 109.87 303.36 C 112.29 305.99 114.57 308.75 116.92 311.46 C 119.92 332.43 123.40 353.32 126.56 374.27 C 125.71 374.27 124.01 374.27 123.16 374.27 C 117.94 368.54 112.87 362.67 107.56 357.01 L 107.40 357.34 C 103.82 362.77 100.59 368.43 97.51 374.17 C 95.41 374.09 93.32 373.97 91.23 373.79 C 87.85 368.05 84.17 362.49 80.66 356.84 C 79.46 358.07 78.26 359.30 77.07 360.54 C 75.15 362.56 73.24 364.58 71.28 366.56 C 61.22 358.69 59.99 344.83 60.91 333.02 C 61.27 324.88 61.59 316.74 62.36 308.63 C 63.63 312.55 65.08 316.42 66.47 320.30 Z" />
<path fill="#43a87d" opacity="1.00" d=" M 404.16 300.99 C 409.81 307.26 414.66 314.24 420.54 320.31 C 422.96 313.92 425.02 307.41 427.40 301.01 C 432.42 304.92 438.51 307.82 442.20 313.17 C 448.34 330.83 455.13 348.26 461.09 365.98 C 452.62 361.71 444.13 357.49 435.65 353.27 C 432.01 360.87 428.99 368.77 425.05 376.22 C 419.72 371.29 415.06 365.68 409.95 360.52 C 408.75 359.28 407.54 358.05 406.34 356.84 C 401.82 364.17 397.14 371.39 392.59 378.70 C 387.83 371.84 384.33 364.21 379.62 357.33 L 379.46 357.02 C 372.80 364.13 366.52 371.58 359.82 378.66 C 363.09 356.25 366.88 333.91 370.11 311.49 C 372.48 308.81 374.75 306.03 377.12 303.34 C 382.16 309.53 386.30 316.38 391.16 322.71 C 395.87 315.70 399.55 308.06 404.16 300.99 Z" />
</g>
<g id="#443230ff">
<path fill="#443230" opacity="1.00" d=" M 150.70 134.25 C 152.92 135.84 155.12 137.45 157.32 139.08 C 171.93 150.18 186.52 161.45 199.42 174.56 C 207.69 182.85 215.47 192.09 219.83 203.09 C 223.81 212.88 224.25 223.59 224.26 234.02 C 224.14 240.05 225.38 246.67 230.03 250.91 C 234.75 255.46 241.79 255.79 247.96 255.23 C 253.28 254.78 258.77 252.05 261.18 247.07 C 264.81 240.28 263.71 232.36 264.12 224.97 C 264.23 214.57 266.83 204.13 272.17 195.16 C 278.13 185.13 286.30 176.66 294.72 168.67 C 305.83 158.52 317.60 149.13 329.60 140.05 C 332.22 138.11 334.84 136.17 337.50 134.27 C 337.19 152.50 336.66 170.73 336.40 188.96 C 348.81 187.79 361.22 186.56 373.64 185.48 C 364.01 201.80 354.28 218.06 344.54 234.32 C 350.29 239.87 356.25 245.19 362.02 250.72 C 360.06 251.11 358.10 251.49 356.15 251.89 C 350.04 245.93 343.61 240.31 337.59 234.26 C 346.44 220.75 355.48 207.36 364.17 193.75 C 352.97 194.65 341.81 196.09 330.62 197.05 C 330.65 181.23 331.59 165.41 331.48 149.58 C 322.31 154.76 313.72 160.92 305.44 167.41 C 294.56 175.84 284.64 185.84 277.94 197.96 C 274.03 205.11 270.55 212.77 269.93 220.99 C 273.71 216.71 277.81 212.38 283.26 210.25 C 293.69 206.11 306.89 210.95 312.04 220.97 C 314.46 225.53 314.65 231.01 313.25 235.92 C 310.84 244.69 304.56 252.62 295.99 256.01 C 290.38 258.33 283.86 258.22 278.30 255.82 C 274.22 254.22 270.81 251.39 267.38 248.75 C 264.53 253.05 260.81 257.10 255.67 258.53 C 248.36 260.59 240.44 260.48 233.08 258.69 C 227.71 257.38 223.77 253.20 220.79 248.78 C 215.39 253.12 209.31 257.44 202.10 257.65 C 186.13 258.54 172.65 242.33 174.24 226.92 C 176.18 213.13 193.03 204.99 205.43 210.46 C 210.63 212.56 214.34 216.90 218.30 220.66 C 215.61 202.10 204.02 185.96 190.31 173.69 C 179.86 164.67 168.69 156.40 156.67 149.58 C 156.60 165.41 157.56 181.22 157.52 197.05 C 146.39 196.00 135.28 194.60 124.13 193.72 C 132.66 207.44 141.78 220.78 150.64 234.28 C 144.54 240.27 138.20 246.02 131.95 251.86 C 130.04 251.49 128.13 251.13 126.22 250.78 C 131.88 245.12 137.95 239.89 143.66 234.29 C 133.88 218.08 124.19 201.80 114.56 185.50 C 126.99 186.53 139.41 187.76 151.83 188.92 C 151.46 170.70 151.00 152.47 150.70 134.25 M 184.03 217.99 C 178.70 222.99 177.36 231.29 180.04 237.96 C 182.80 244.85 188.86 250.33 195.97 252.43 C 196.50 252.55 197.57 252.78 198.10 252.90 C 198.27 252.62 198.62 252.05 198.79 251.77 L 198.26 253.08 C 204.91 253.14 212.68 251.47 216.27 245.26 C 220.37 237.82 218.06 228.40 213.19 221.89 C 209.67 217.30 204.74 212.96 198.72 212.56 C 197.95 212.70 196.40 212.98 195.63 213.12 L 195.90 212.14 C 191.57 213.17 187.20 214.74 184.03 217.99 M 292.16 212.10 L 292.43 213.00 C 291.70 212.86 290.24 212.58 289.51 212.45 C 282.00 213.33 276.10 219.27 272.64 225.64 C 269.13 232.29 268.26 241.45 273.50 247.45 C 277.61 252.09 284.14 252.85 289.95 253.26 C 291.03 252.27 292.40 251.41 292.89 249.95 C 292.75 250.62 292.46 251.96 292.32 252.63 C 302.33 249.15 310.96 239.17 309.27 228.08 C 308.28 219.41 300.31 213.49 292.16 212.10 Z" />
</g>
<g id="#060402ff">
<path fill="#060402" opacity="1.00" d=" M 195.63 213.12 C 196.40 212.98 197.95 212.70 198.72 212.56 C 201.67 221.31 200.76 230.72 200.73 239.80 C 200.50 243.83 200.45 248.02 198.79 251.77 C 198.62 252.05 198.27 252.62 198.10 252.90 C 197.57 252.78 196.50 252.55 195.97 252.43 C 194.16 246.45 194.05 240.17 193.90 233.98 C 193.90 227.01 193.49 219.85 195.63 213.12 Z" />
<path fill="#060402" opacity="1.00" d=" M 289.51 212.45 C 290.24 212.58 291.70 212.86 292.43 213.00 C 294.50 218.76 294.25 224.97 294.31 230.99 C 294.19 237.32 294.24 243.73 292.89 249.95 C 292.40 251.41 291.03 252.27 289.95 253.26 C 287.12 247.29 287.55 240.50 287.31 234.06 C 287.41 226.83 286.97 219.36 289.51 212.45 Z" />
</g>
<g id="#b38099ff">
<path fill="#b38099" opacity="1.00" d=" M 28.16 236.32 C 34.64 234.31 41.58 232.00 48.35 234.13 C 55.73 236.72 60.39 243.43 62.94 250.51 C 63.40 254.24 63.87 257.96 64.32 261.69 C 64.18 277.36 63.06 292.99 62.36 308.63 C 61.59 316.74 61.27 324.88 60.91 333.02 C 59.99 344.83 61.22 358.69 71.28 366.56 C 73.10 367.94 75.05 369.14 77.08 370.18 C 81.54 372.19 86.37 373.30 91.23 373.79 C 93.32 373.97 95.41 374.09 97.51 374.17 C 100.81 374.26 104.12 374.27 107.42 374.27 C 112.67 374.26 117.91 374.27 123.16 374.27 C 124.01 374.27 125.71 374.27 126.56 374.27 C 136.15 374.27 145.74 374.26 155.33 374.27 C 157.90 374.29 160.48 374.34 163.06 374.32 C 164.82 374.29 166.59 374.20 168.35 374.09 C 176.18 374.38 184.01 374.39 191.84 374.08 C 193.82 374.20 195.79 374.27 197.77 374.33 C 199.20 374.36 200.62 374.36 202.05 374.34 C 206.37 374.25 211.04 374.31 214.79 371.82 C 219.69 368.70 221.87 362.69 221.90 357.09 C 221.91 332.65 221.89 308.21 221.90 283.77 C 236.34 287.77 251.83 287.86 266.27 283.85 C 266.28 312.90 266.30 341.96 266.26 371.01 C 266.16 380.53 264.65 390.78 258.35 398.32 C 252.71 405.15 243.59 407.90 235.01 408.02 C 224.06 408.14 213.12 408.03 202.18 408.06 C 184.92 408.06 167.67 408.06 150.41 408.08 C 134.78 408.07 119.15 408.04 103.52 408.09 C 86.67 407.93 69.81 408.31 52.96 407.89 C 43.80 407.32 34.27 405.63 26.59 400.30 C 20.31 396.07 16.14 389.23 14.43 381.94 C 12.49 373.42 11.97 364.27 15.03 355.94 C 21.30 338.03 33.20 322.73 39.75 304.94 C 41.41 300.02 42.93 294.58 41.34 289.44 C 39.72 284.56 35.39 281.24 30.94 279.04 C 22.46 274.84 12.93 273.62 3.62 272.76 C 12.44 267.68 21.90 263.87 31.33 260.09 C 21.69 254.17 10.79 250.74 0.00 247.64 L 0.00 247.29 C 9.23 243.24 18.58 239.45 28.16 236.32 Z" />
</g>
</svg>
