<?xml version="1.0" encoding="UTF-8" ?>
<!DOCTYPE svg PUBLIC "-//W3C//DTD SVG 1.1//EN" "http://www.w3.org/Graphics/SVG/1.1/DTD/svg11.dtd">
<svg width="470pt" height="478pt" viewBox="0 0 470 478" version="1.1" xmlns="http://www.w3.org/2000/svg">
<g id="#9f721bff">
<path fill="#9f721b" opacity="1.00" d=" M 83.77 0.00 L 84.72 0.00 C 90.28 2.98 96.15 5.84 100.60 10.42 C 101.96 11.44 100.45 12.87 99.70 13.69 C 95.64 17.55 90.87 20.64 85.83 23.05 C 83.97 15.53 83.38 7.73 83.77 0.00 Z" />
<path fill="#9f721b" opacity="1.00" d=" M 112.27 12.23 C 122.67 6.96 135.15 4.66 146.39 8.53 C 156.57 11.99 164.37 20.02 170.36 28.67 C 174.05 33.76 176.90 39.50 181.32 44.04 C 178.44 50.70 170.78 53.75 163.88 52.63 C 157.87 52.51 153.28 48.33 148.04 46.07 C 143.90 44.28 139.26 44.34 134.89 45.05 C 130.85 45.84 126.96 47.29 123.25 49.07 C 118.54 51.43 113.97 54.04 109.35 56.56 C 106.52 58.15 103.73 59.82 101.00 61.57 C 96.45 64.48 91.85 67.32 87.09 69.88 C 80.68 73.04 74.26 76.69 67.05 77.60 C 57.07 78.41 47.05 74.00 40.30 66.71 C 31.88 57.74 28.19 45.22 27.98 33.11 C 33.43 38.38 37.54 46.58 45.82 47.61 C 53.95 49.12 61.97 46.04 68.75 41.77 C 83.66 32.52 96.36 19.89 112.27 12.23 Z" />
<path fill="#9f721b" opacity="1.00" d=" M 269.61 16.17 C 277.37 15.03 285.25 14.68 293.07 14.14 C 293.59 14.31 294.62 14.64 295.14 14.80 L 294.40 15.61 C 290.33 20.43 285.80 24.81 280.82 28.69 C 276.73 24.85 273.05 20.59 269.61 16.17 Z" />
<path fill="#9f721b" opacity="1.00" d=" M 300.21 14.20 C 310.14 13.41 320.14 13.84 329.91 15.82 C 333.24 15.82 335.69 18.42 338.89 18.84 C 347.14 20.40 355.69 23.80 361.08 30.49 C 345.95 40.59 333.76 54.30 321.31 67.39 C 319.52 69.01 317.78 71.49 315.04 71.01 C 307.44 70.81 299.70 70.59 292.37 68.39 C 290.96 67.87 288.69 66.93 289.33 65.00 C 292.90 48.08 299.18 31.58 300.21 14.20 Z" />
<path fill="#9f721b" opacity="1.00" d=" M 60.35 25.97 C 60.59 22.23 59.86 17.84 61.93 14.59 C 68.69 17.87 73.70 24.12 77.92 30.22 C 73.54 34.19 67.43 36.68 61.51 36.57 C 59.86 33.44 60.65 29.46 60.35 25.97 Z" />
<path fill="#9f721b" opacity="1.00" d=" M 253.96 17.22 C 259.09 16.81 264.25 16.53 269.37 15.86 C 266.06 20.01 262.76 24.18 259.13 28.05 C 256.20 24.86 253.37 21.58 250.75 18.13 C 251.97 18.46 252.98 18.21 253.77 17.39 L 253.96 17.22 Z" />
<path fill="#9f721b" opacity="1.00" d=" M 239.21 23.22 C 240.98 23.13 243.17 23.16 244.26 24.84 C 245.80 27.25 245.26 30.28 245.20 32.98 C 244.56 41.32 244.57 49.68 244.00 58.02 C 243.81 60.06 243.72 62.59 241.72 63.76 C 238.20 65.74 234.06 66.04 230.15 66.68 C 226.16 67.08 222.06 68.14 218.08 67.14 C 215.09 66.23 214.41 62.78 214.07 60.08 C 213.18 52.39 212.06 44.71 211.73 36.96 C 211.65 34.30 211.80 30.97 214.30 29.39 C 222.23 26.08 230.58 23.63 239.21 23.22 Z" />
<path fill="#9f721b" opacity="1.00" d=" M 376.11 36.98 C 383.14 41.49 389.66 47.00 394.64 53.74 C 387.10 54.67 379.50 54.94 371.99 56.08 C 371.34 49.43 372.50 42.66 376.11 36.98 Z" />
<path fill="#9f721b" opacity="1.00" d=" M 183.91 53.64 C 189.02 50.07 193.93 46.19 199.23 42.91 C 197.62 47.75 196.84 52.95 194.36 57.46 C 194.03 57.71 193.37 58.22 193.04 58.48 C 189.49 58.08 186.76 55.55 183.91 53.64 Z" />
<path fill="#9f721b" opacity="1.00" d=" M 389.17 69.99 C 390.45 64.73 393.26 60.00 395.93 55.35 C 402.87 60.57 408.63 67.33 412.79 74.95 C 405.97 74.75 399.17 73.87 392.48 72.62 C 391.24 72.15 388.55 71.94 389.17 69.99 Z" />
<path fill="#9f721b" opacity="1.00" d=" M 174.34 56.97 C 177.40 59.65 178.22 63.83 179.61 67.47 C 181.56 74.23 183.96 81.23 183.09 88.36 C 178.87 88.88 175.67 85.79 172.34 83.78 C 167.46 80.57 160.95 81.95 156.10 78.74 C 156.00 78.30 155.80 77.44 155.71 77.01 C 158.36 74.23 161.43 71.87 163.95 68.95 C 167.63 65.14 170.43 60.56 174.34 56.97 Z" />
<path fill="#9f721b" opacity="1.00" d=" M 114.99 70.17 C 118.64 68.88 122.52 68.35 126.39 68.35 C 127.47 68.33 128.55 68.32 129.64 68.32 C 132.65 68.34 135.66 68.51 138.64 68.98 C 143.79 70.67 149.57 72.50 152.58 77.38 C 155.39 81.91 153.28 87.56 151.19 91.94 C 148.80 96.58 144.32 99.74 139.51 101.48 C 138.92 101.62 137.74 101.90 137.15 102.04 C 131.53 103.52 125.82 101.33 120.15 102.28 C 119.63 102.20 118.60 102.05 118.09 101.98 C 114.98 101.48 111.89 100.70 109.03 99.36 C 104.53 97.26 99.98 93.96 98.68 88.90 C 98.43 85.59 100.06 82.45 101.54 79.59 C 103.58 76.36 106.61 73.88 110.01 72.19 C 111.64 71.45 113.30 70.77 114.99 70.17 Z" />
<path fill="#9f721b" opacity="1.00" d=" M 169.90 104.58 C 178.08 97.82 185.02 89.65 193.51 83.28 C 193.78 103.77 190.17 125.63 177.01 142.03 C 166.82 154.97 150.97 162.30 134.91 164.52 C 123.66 165.96 111.56 166.96 101.03 161.87 C 88.97 156.24 81.02 145.15 72.41 135.49 C 67.20 129.77 61.01 123.92 52.98 122.95 C 44.58 122.15 36.45 125.14 28.74 128.10 C 34.73 117.42 42.49 107.63 52.00 99.87 C 57.34 95.61 64.05 91.70 71.15 93.31 C 82.77 95.48 91.10 104.68 101.35 109.82 C 105.93 112.21 110.69 114.28 115.58 115.95 C 118.27 116.85 121.03 117.55 123.83 118.02 C 129.77 119.05 135.78 119.62 141.81 119.80 C 147.38 119.99 152.54 117.36 157.08 114.40 C 161.49 111.31 165.74 108.00 169.90 104.58 Z" />
<path fill="#9f721b" opacity="1.00" d=" M 342.24 97.24 C 350.00 93.89 358.62 93.77 366.93 93.29 C 383.29 92.61 399.67 92.45 416.04 92.65 C 417.61 92.85 420.13 92.21 420.57 94.35 C 423.78 105.72 424.58 117.74 428.77 128.84 C 429.98 132.09 427.68 134.80 425.66 137.03 C 423.08 135.74 420.22 135.22 417.36 135.45 C 417.29 138.59 418.50 141.51 419.96 144.23 C 415.73 149.39 411.78 154.79 407.37 159.78 C 395.27 145.29 382.48 130.05 364.68 122.48 C 353.38 117.75 341.52 114.55 329.90 110.71 C 333.14 105.58 336.51 99.90 342.24 97.24 Z" />
<path fill="#9f721b" opacity="1.00" d=" M 215.11 134.61 C 226.25 128.07 239.89 128.65 252.10 131.31 C 256.80 132.23 261.03 134.48 265.32 136.51 C 261.02 142.01 257.29 147.93 253.94 154.04 C 244.57 150.38 233.55 147.74 223.99 152.23 C 222.29 145.82 218.98 139.95 215.11 134.61 Z" />
<path fill="#9f721b" opacity="1.00" d=" M 66.00 144.05 C 66.91 142.32 68.11 138.48 70.64 140.54 C 76.34 144.59 81.31 149.83 85.09 155.72 C 77.14 160.27 68.89 165.28 59.67 166.50 C 60.15 158.67 63.04 151.23 66.00 144.05 Z" />
<path fill="#9f721b" opacity="1.00" d=" M 293.61 140.47 C 302.09 140.59 310.40 142.74 318.35 145.55 C 332.88 150.88 346.28 158.95 358.47 168.42 C 371.15 178.81 378.88 194.24 382.34 210.06 C 383.76 219.00 384.20 228.11 383.78 237.15 C 383.37 243.67 381.13 250.98 375.01 254.30 C 371.14 256.78 365.84 259.30 361.53 256.37 C 355.50 252.10 353.67 244.25 352.89 237.31 C 356.41 235.23 360.82 233.67 362.50 229.58 C 365.20 223.16 365.11 215.78 363.62 209.07 C 363.36 207.29 361.78 206.21 360.09 206.02 C 353.10 204.86 345.58 206.73 340.32 211.58 C 338.22 208.11 335.75 204.88 332.95 201.94 C 337.25 193.29 337.49 183.18 336.25 173.78 C 335.60 170.30 334.48 164.86 329.90 165.12 C 323.29 165.61 317.11 169.54 313.32 174.91 C 308.03 170.97 302.48 167.35 296.53 164.47 C 296.60 156.39 295.65 148.29 293.61 140.47 Z" />
<path fill="#9f721b" opacity="1.00" d=" M 152.19 172.18 C 158.89 163.33 168.14 156.20 178.80 152.85 C 176.02 158.95 173.89 165.37 172.83 171.99 C 171.08 173.39 169.39 174.86 167.81 176.45 C 166.35 176.69 164.91 176.98 163.48 177.33 C 159.83 175.37 156.10 173.54 152.19 172.18 Z" />
<path fill="#9f721b" opacity="1.00" d=" M 379.76 162.82 C 386.03 162.45 392.17 163.85 398.21 165.36 C 396.40 169.22 393.30 172.26 390.33 175.25 C 389.24 174.67 388.09 174.16 386.98 173.64 C 386.84 176.03 386.73 178.43 386.85 180.82 C 386.81 180.27 386.73 179.16 386.69 178.61 C 384.58 179.79 382.39 180.85 380.02 181.41 C 379.95 175.21 379.74 169.02 379.76 162.82 Z" />
<path fill="#9f721b" opacity="1.00" d=" M 224.25 171.39 C 227.63 168.43 231.00 163.90 236.00 164.32 C 239.58 165.60 242.41 168.32 245.12 170.90 C 250.09 175.77 254.90 180.80 259.77 185.78 C 253.21 183.46 247.98 177.94 240.98 176.85 C 239.11 177.95 237.58 179.58 235.61 180.52 C 232.21 181.40 230.52 176.27 227.13 177.01 C 220.99 179.01 215.88 183.15 210.11 185.92 C 214.83 181.08 218.94 175.63 224.25 171.39 Z" />
<path fill="#9f721b" opacity="1.00" d=" M 96.47 166.42 C 104.34 166.39 112.12 168.79 119.16 172.18 C 117.58 176.25 114.57 179.50 111.85 182.82 C 108.29 186.60 104.96 191.11 99.88 192.89 C 97.80 189.79 97.30 186.04 96.82 182.43 C 96.20 177.12 95.88 171.74 96.47 166.42 Z" />
<path fill="#9f721b" opacity="1.00" d=" M 134.24 184.47 C 135.68 190.28 137.78 196.14 142.01 200.54 C 138.42 203.18 135.12 206.22 132.45 209.81 C 128.48 206.14 122.90 205.43 117.74 205.09 C 121.74 197.12 127.72 190.43 134.24 184.47 Z" />
<path fill="#9f721b" opacity="1.00" d=" M 220.29 196.32 C 225.35 193.22 230.50 188.21 236.93 189.41 C 243.13 191.44 248.46 195.44 253.49 199.50 C 255.28 200.82 256.44 202.75 256.98 204.89 C 251.39 203.95 247.43 199.06 241.99 197.75 C 239.61 198.42 238.04 200.48 235.94 201.65 C 232.30 202.61 230.56 197.34 226.97 197.93 C 222.07 199.73 218.03 203.30 213.09 205.03 C 213.15 200.83 217.42 198.67 220.29 196.32 Z" />
<path fill="#9f721b" opacity="1.00" d=" M 229.70 212.73 C 232.43 211.05 236.03 210.62 238.93 212.15 C 243.63 214.54 247.86 217.76 252.00 221.00 C 253.00 221.67 253.50 222.76 253.97 223.83 C 249.83 222.79 245.96 220.92 241.92 219.57 C 239.04 220.86 236.90 224.78 233.34 223.54 C 231.42 222.44 229.74 220.98 227.98 219.65 C 223.64 220.89 219.57 222.99 215.10 223.79 C 219.20 219.22 224.39 215.74 229.70 212.73 Z" />
<path fill="#9f721b" opacity="1.00" d=" M 101.75 247.10 C 102.98 237.91 103.86 228.35 107.98 219.91 C 110.14 225.94 113.77 231.50 119.03 235.25 C 116.46 244.78 115.71 254.66 115.31 264.48 C 110.25 263.58 105.68 260.54 102.58 256.49 C 100.37 253.81 101.68 250.21 101.75 247.10 Z" />
<path fill="#9f721b" opacity="1.00" d=" M 218.20 246.68 C 223.23 241.38 229.01 236.88 234.71 232.34 C 240.76 236.43 246.14 241.45 251.03 246.86 C 244.61 246.02 238.73 241.42 232.03 243.00 C 227.23 243.57 223.08 246.72 218.20 246.68 Z" />
<path fill="#9f721b" opacity="1.00" d=" M 67.37 268.09 C 75.13 268.97 82.41 272.84 87.86 278.39 C 82.10 282.92 76.22 287.29 70.38 291.72 C 69.29 283.85 68.94 275.86 67.37 268.09 Z" />
<path fill="#9f721b" opacity="1.00" d=" M 382.19 278.63 C 387.29 272.69 394.88 269.08 402.58 268.09 C 401.23 275.89 400.66 283.82 399.59 291.67 C 393.94 287.14 388.13 282.77 382.19 278.63 Z" />
<path fill="#9f721b" opacity="1.00" d=" M 68.26 303.59 C 73.84 297.86 79.27 291.61 86.61 288.06 C 88.60 295.46 89.90 303.10 89.72 310.78 C 83.12 306.97 75.74 304.80 68.26 303.59 Z" />
<path fill="#9f721b" opacity="1.00" d=" M 383.48 288.01 C 390.70 291.73 396.15 297.82 401.76 303.52 C 394.28 304.83 386.95 307.04 380.28 310.73 C 380.16 303.05 381.34 295.38 383.48 288.01 Z" />
<path fill="#9f721b" opacity="1.00" d=" M 68.40 309.33 C 74.25 311.66 79.96 314.43 85.33 317.71 C 86.40 318.44 88.77 319.64 87.03 321.03 C 82.37 325.69 76.95 330.23 70.44 331.93 C 69.09 324.49 68.25 316.90 68.40 309.33 Z" />
<path fill="#9f721b" opacity="1.00" d=" M 381.94 319.96 C 387.66 315.07 394.86 312.37 401.63 309.27 C 401.71 316.87 400.96 324.51 399.52 331.97 C 392.55 330.08 386.86 325.04 381.94 319.96 Z" />
<path fill="#9f721b" opacity="1.00" d=" M 74.30 339.32 C 80.11 335.68 86.82 332.80 93.82 333.18 C 92.83 340.74 91.87 348.33 91.58 355.95 C 89.14 355.70 87.59 353.72 85.81 352.28 C 81.30 348.68 77.12 344.35 74.30 339.32 Z" />
<path fill="#9f721b" opacity="1.00" d=" M 376.16 333.23 C 383.26 332.87 390.45 335.57 396.00 339.90 C 390.71 345.74 385.92 352.92 378.41 355.95 C 378.12 348.35 377.21 340.77 376.16 333.23 Z" />
<path fill="#9f721b" opacity="1.00" d=" M 163.92 346.99 C 164.78 343.58 165.07 339.65 167.76 337.08 C 170.53 340.73 173.43 344.35 175.47 348.47 C 176.57 350.46 175.30 352.61 174.39 354.39 C 172.13 358.34 169.58 362.27 166.07 365.23 C 164.40 366.85 161.39 365.31 161.67 362.99 C 161.99 357.61 163.01 352.29 163.92 346.99 Z" />
<path fill="#9f721b" opacity="1.00" d=" M 293.62 350.04 C 295.38 345.13 298.87 341.08 302.03 337.02 C 304.59 340.10 305.08 344.19 305.91 347.97 C 306.68 353.01 307.81 358.04 307.89 363.15 C 308.22 365.74 304.65 366.80 303.15 364.92 C 298.99 360.77 295.20 355.76 293.62 350.04 Z" />
<path fill="#9f721b" opacity="1.00" d=" M 46.82 351.92 C 51.01 349.52 54.71 346.35 58.97 344.06 C 58.66 345.58 58.28 347.11 57.43 348.44 C 54.84 352.70 52.54 357.35 48.58 360.53 C 44.91 361.55 41.59 359.11 38.47 357.58 C 35.67 355.87 32.22 354.45 30.87 351.22 C 36.20 351.07 41.77 354.84 46.82 351.92 Z" />
<path fill="#9f721b" opacity="1.00" d=" M 410.96 344.09 C 416.24 346.65 420.42 351.20 426.04 353.04 C 430.47 353.25 434.73 351.36 439.17 351.16 C 438.16 354.01 435.25 355.31 432.87 356.81 C 429.32 358.74 425.70 361.29 421.43 360.71 C 416.87 356.02 412.88 350.39 410.96 344.09 Z" />
<path fill="#9f721b" opacity="1.00" d=" M 218.29 350.53 C 219.45 348.68 220.88 345.32 223.62 346.51 C 227.63 348.40 230.49 352.62 235.05 353.35 C 239.43 352.45 242.20 348.40 246.02 346.36 C 249.68 345.42 252.71 351.05 249.01 352.97 C 244.16 356.38 239.58 362.09 233.14 361.68 C 227.51 359.06 222.68 354.88 218.29 350.53 Z" />
<path fill="#9f721b" opacity="1.00" d=" M 78.29 360.15 C 85.81 362.31 93.07 365.33 99.82 369.32 C 95.27 375.66 87.69 378.74 82.02 383.92 C 79.41 376.30 78.96 368.11 78.29 360.15 Z" />
<path fill="#9f721b" opacity="1.00" d=" M 370.13 369.29 C 376.92 365.36 384.17 362.34 391.70 360.16 C 391.28 367.47 390.43 374.80 388.77 381.94 C 388.70 382.73 387.73 384.43 386.91 383.17 C 381.71 378.06 374.29 375.40 370.13 369.29 Z" />
<path fill="#9f721b" opacity="1.00" d=" M 220.28 363.33 C 226.31 362.74 229.39 369.91 235.01 370.97 C 239.44 369.57 242.34 365.49 246.43 363.45 C 248.31 362.70 251.24 363.41 250.67 365.97 C 247.55 370.91 243.34 375.13 238.91 378.89 C 237.09 380.59 234.16 381.66 232.03 379.84 C 227.94 376.69 224.51 372.76 221.01 368.97 C 219.68 367.54 218.17 364.75 220.28 363.33 Z" />
<path fill="#9f721b" opacity="1.00" d=" M 50.89 376.29 C 55.38 373.74 59.05 369.78 64.02 368.06 C 61.58 373.60 58.17 378.71 54.57 383.57 C 52.92 385.97 49.70 384.21 47.74 383.16 C 44.42 381.04 40.40 379.61 37.97 376.39 C 42.27 376.25 46.62 376.99 50.89 376.29 Z" />
<path fill="#9f721b" opacity="1.00" d=" M 406.06 368.03 C 411.06 369.63 414.59 373.75 419.07 376.28 C 423.35 377.02 427.72 376.22 432.04 376.38 C 428.69 380.36 423.56 382.56 418.86 384.57 C 416.33 385.66 414.96 382.99 413.73 381.33 C 410.96 377.04 407.72 372.93 406.06 368.03 Z" />
<path fill="#9f721b" opacity="1.00" d=" M 53.04 402.27 C 59.33 400.62 63.37 394.39 69.82 393.02 C 66.66 399.08 62.84 405.08 57.51 409.47 C 54.08 410.66 50.88 408.29 48.06 406.66 C 45.84 405.10 43.11 403.86 41.93 401.26 C 45.68 401.00 49.35 401.80 53.04 402.27 Z" />
<path fill="#9f721b" opacity="1.00" d=" M 400.16 393.05 C 406.32 394.29 410.27 399.92 415.99 402.11 C 420.00 402.32 423.98 400.86 428.04 401.17 C 426.51 404.48 422.86 405.97 419.96 407.86 C 417.49 409.24 413.81 411.04 411.40 408.67 C 406.87 404.11 403.06 398.79 400.16 393.05 Z" />
<path fill="#9f721b" opacity="1.00" d=" M 208.85 400.95 C 211.74 398.57 214.91 396.57 218.10 394.62 C 220.82 399.58 222.85 404.89 225.67 409.79 C 229.61 406.37 231.33 400.98 234.89 397.13 C 238.04 401.39 240.62 406.02 243.81 410.25 C 246.46 405.14 248.87 399.91 251.30 394.71 C 254.41 396.34 257.31 398.35 260.35 400.10 C 261.64 402.79 262.49 405.68 262.82 408.65 C 257.82 411.58 252.67 414.58 246.82 415.39 C 237.44 416.83 227.65 416.86 218.44 414.35 C 214.25 413.16 210.62 410.70 206.82 408.66 C 207.16 406.02 207.73 403.38 208.85 400.95 Z" />
</g>
<g id="#d7a443ff">
<path fill="#d7a443" opacity="1.00" d=" M 269.37 15.86 L 269.61 16.17 C 273.05 20.59 276.73 24.85 280.82 28.69 C 285.80 24.81 290.33 20.43 294.40 15.61 C 291.71 32.52 285.20 48.48 280.87 64.98 C 279.50 66.62 276.86 65.92 274.95 66.24 C 267.65 66.04 260.25 66.95 253.01 65.74 C 250.32 65.31 248.93 62.50 249.25 59.97 C 249.85 45.86 250.24 31.73 250.21 17.60 C 251.39 17.41 252.58 17.34 253.77 17.39 C 252.98 18.21 251.97 18.46 250.75 18.13 C 253.37 21.58 256.20 24.86 259.13 28.05 C 262.76 24.18 266.06 20.01 269.37 15.86 Z" />
<path fill="#d7a443" opacity="1.00" d=" M 363.70 43.64 C 367.70 41.18 371.66 38.58 376.11 36.98 C 372.50 42.66 371.34 49.43 371.99 56.08 C 379.50 54.94 387.10 54.67 394.64 53.74 L 394.90 53.71 C 395.16 54.12 395.67 54.94 395.93 55.35 C 393.26 60.00 390.45 64.73 389.17 69.99 C 388.55 71.94 391.24 72.15 392.48 72.62 C 399.17 73.87 405.97 74.75 412.79 74.95 L 413.24 74.96 C 414.06 76.95 412.90 78.52 410.77 78.42 C 388.59 82.79 366.07 85.30 343.98 90.13 C 341.24 90.45 338.01 92.84 335.72 90.27 C 331.84 86.70 329.02 82.16 326.38 77.65 C 325.47 75.85 324.20 74.07 324.07 72.00 C 325.76 69.73 328.05 68.00 330.26 66.26 C 341.01 58.15 352.30 50.80 363.70 43.64 Z" />
<path fill="#d7a443" opacity="1.00" d=" M 199.23 42.91 C 200.15 40.61 203.64 38.28 205.78 40.28 C 207.13 45.06 207.07 50.13 208.01 55.01 C 208.40 59.29 209.88 63.59 209.36 67.90 C 206.94 72.20 201.68 73.47 197.59 75.65 C 194.84 76.90 190.40 79.18 188.65 75.41 C 185.94 68.47 185.39 60.90 183.91 53.64 C 186.76 55.55 189.49 58.08 193.04 58.48 C 193.37 58.22 194.03 57.71 194.36 57.46 C 196.84 52.95 197.62 47.75 199.23 42.91 Z" />
<path fill="#d7a443" opacity="1.00" d=" M 309.02 122.83 C 314.37 119.67 319.99 116.94 325.82 114.77 C 339.82 119.76 354.34 124.01 367.04 131.94 C 379.16 141.32 388.41 153.72 398.21 165.36 C 392.17 163.85 386.03 162.45 379.76 162.82 C 379.74 169.02 379.95 175.21 380.02 181.41 C 376.92 176.47 372.45 172.62 368.15 168.77 C 356.30 158.60 343.38 149.63 329.55 142.37 C 319.68 137.35 309.20 132.85 298.02 132.12 C 300.69 128.01 304.96 125.38 309.02 122.83 Z" />
<path fill="#d7a443" opacity="1.00" d=" M 224.61 155.35 C 233.74 153.11 243.36 154.27 252.15 157.38 C 261.52 160.93 271.00 165.38 278.11 172.59 C 277.59 178.70 277.96 184.84 277.39 190.94 C 276.82 201.70 275.04 212.34 274.07 223.06 C 280.83 218.14 283.90 209.95 286.35 202.28 C 288.87 193.52 291.47 184.73 295.27 176.43 C 300.28 175.98 305.68 176.55 309.66 179.93 C 314.98 187.07 318.38 195.35 321.96 203.43 C 316.97 213.60 311.24 223.45 306.86 233.90 C 316.91 229.41 326.94 224.02 334.08 215.43 L 334.47 216.23 C 339.75 223.91 344.39 232.13 347.04 241.12 C 350.35 251.62 350.10 262.81 348.89 273.63 C 337.10 259.06 319.56 249.50 300.99 247.16 C 285.59 245.28 269.06 246.49 255.38 254.40 C 245.64 260.01 238.93 270.26 237.59 281.42 C 236.55 291.55 237.12 302.24 241.48 311.60 C 244.74 318.76 251.33 324.27 258.97 326.19 C 270.30 329.29 282.19 326.83 293.05 323.11 C 297.84 321.31 303.71 321.62 307.22 325.76 C 301.62 330.67 296.01 335.76 291.87 342.01 C 290.25 344.60 288.60 347.92 290.15 350.93 C 293.37 358.39 298.75 364.90 300.86 372.85 C 301.74 378.19 299.03 383.27 296.82 387.95 C 293.75 393.40 290.75 399.78 284.48 402.13 C 286.05 393.22 287.54 384.14 286.86 375.07 C 283.37 372.65 278.37 373.15 274.54 374.60 C 266.65 378.02 261.32 385.21 256.50 392.03 C 257.77 394.72 259.09 397.40 260.35 400.10 C 257.31 398.35 254.41 396.34 251.30 394.71 C 248.87 399.91 246.46 405.14 243.81 410.25 C 240.62 406.02 238.04 401.39 234.89 397.13 C 231.33 400.98 229.61 406.37 225.67 409.79 C 222.85 404.89 220.82 399.58 218.10 394.62 C 214.91 396.57 211.74 398.57 208.85 400.95 C 210.10 397.93 211.97 395.18 212.95 392.06 C 209.17 385.81 204.21 380.03 198.03 376.06 C 193.46 373.07 187.64 372.74 182.61 374.70 C 182.39 383.93 183.43 393.15 185.20 402.20 C 180.12 400.28 177.13 395.58 174.55 391.09 C 171.68 385.83 168.52 380.21 168.58 374.04 C 170.26 365.41 176.35 358.57 179.65 350.57 C 180.93 347.67 179.33 344.59 177.84 342.12 C 173.74 335.78 168.01 330.75 162.49 325.70 C 164.96 323.18 168.46 321.47 172.07 322.14 C 178.23 323.12 183.99 325.79 190.17 326.75 C 200.17 328.44 211.37 327.96 219.87 321.83 C 227.14 316.56 230.61 307.63 231.80 299.01 C 233.35 287.76 232.73 275.43 226.27 265.70 C 219.55 255.51 207.78 249.86 196.05 247.77 C 180.72 245.07 164.51 246.15 150.02 252.06 C 138.55 256.67 128.29 264.26 120.57 273.91 C 119.62 261.96 119.21 249.60 123.55 238.20 C 126.26 229.96 130.96 222.65 135.64 215.45 C 142.76 224.14 153.00 229.45 163.11 233.91 C 158.30 223.61 152.74 213.65 147.57 203.50 C 152.24 194.52 154.93 183.58 163.48 177.33 C 164.91 176.98 166.35 176.69 167.81 176.45 C 169.37 176.36 170.95 176.37 172.52 176.31 L 173.98 176.19 C 180.86 188.46 181.80 203.06 188.70 215.31 C 190.35 218.43 192.94 220.89 195.72 223.00 C 193.52 206.12 191.30 189.16 191.87 172.08 C 201.13 163.87 212.64 158.31 224.61 155.35 M 224.25 171.39 C 218.94 175.63 214.83 181.08 210.11 185.92 C 215.88 183.15 220.99 179.01 227.13 177.01 C 230.52 176.27 232.21 181.40 235.61 180.52 C 237.58 179.58 239.11 177.95 240.98 176.85 C 247.98 177.94 253.21 183.46 259.77 185.78 C 254.90 180.80 250.09 175.77 245.12 170.90 C 242.41 168.32 239.58 165.60 236.00 164.32 C 231.00 163.90 227.63 168.43 224.25 171.39 M 220.29 196.32 C 217.42 198.67 213.15 200.83 213.09 205.03 C 218.03 203.30 222.07 199.73 226.97 197.93 C 230.56 197.34 232.30 202.61 235.94 201.65 C 238.04 200.48 239.61 198.42 241.99 197.75 C 247.43 199.06 251.39 203.95 256.98 204.89 C 256.44 202.75 255.28 200.82 253.49 199.50 C 248.46 195.44 243.13 191.44 236.93 189.41 C 230.50 188.21 225.35 193.22 220.29 196.32 M 229.70 212.73 C 224.39 215.74 219.20 219.22 215.10 223.79 C 219.57 222.99 223.64 220.89 227.98 219.65 C 229.74 220.98 231.42 222.44 233.34 223.54 C 236.90 224.78 239.04 220.86 241.92 219.57 C 245.96 220.92 249.83 222.79 253.97 223.83 C 253.50 222.76 253.00 221.67 252.00 221.00 C 247.86 217.76 243.63 214.54 238.93 212.15 C 236.03 210.62 232.43 211.05 229.70 212.73 M 218.20 246.68 C 223.08 246.72 227.23 243.57 232.03 243.00 C 238.73 241.42 244.61 246.02 251.03 246.86 C 246.14 241.45 240.76 236.43 234.71 232.34 C 229.01 236.88 223.23 241.38 218.20 246.68 M 177.66 326.57 C 181.95 336.25 189.79 343.79 197.51 350.81 C 202.18 349.72 206.14 346.76 209.59 343.55 C 214.08 339.26 218.14 334.48 221.40 329.19 C 215.91 329.48 210.47 328.62 204.99 328.65 C 195.84 328.55 186.69 328.10 177.66 326.57 M 263.05 328.68 C 258.02 328.62 253.03 329.45 248.00 329.14 C 254.32 337.68 261.19 347.25 271.68 350.74 C 280.17 344.35 287.32 335.91 292.32 326.50 C 282.66 328.18 272.84 328.58 263.05 328.68 M 218.29 350.53 C 222.68 354.88 227.51 359.06 233.14 361.68 C 239.58 362.09 244.16 356.38 249.01 352.97 C 252.71 351.05 249.68 345.42 246.02 346.36 C 242.20 348.40 239.43 352.45 235.05 353.35 C 230.49 352.62 227.63 348.40 223.62 346.51 C 220.88 345.32 219.45 348.68 218.29 350.53 M 220.28 363.33 C 218.17 364.75 219.68 367.54 221.01 368.97 C 224.51 372.76 227.94 376.69 232.03 379.84 C 234.16 381.66 237.09 380.59 238.91 378.89 C 243.34 375.13 247.55 370.91 250.67 365.97 C 251.24 363.41 248.31 362.70 246.43 363.45 C 242.34 365.49 239.44 369.57 235.01 370.97 C 229.39 369.91 226.31 362.74 220.28 363.33 Z" />
<path fill="#d7a443" opacity="1.00" d=" M 4.50 186.89 C 6.01 179.35 7.65 171.55 12.10 165.12 C 16.73 170.90 21.82 176.56 24.63 183.51 C 21.35 191.22 21.00 199.71 20.29 207.94 C 19.07 222.60 19.30 237.33 19.21 252.02 C 19.52 262.46 18.83 273.07 21.23 283.32 C 23.79 278.96 23.99 273.79 25.12 268.97 C 27.51 258.33 29.36 247.30 34.74 237.65 C 39.46 228.74 46.63 220.99 48.85 210.90 C 55.23 212.90 60.49 217.28 65.51 221.54 C 68.49 224.42 72.26 227.46 72.42 231.97 C 73.11 239.89 74.49 248.18 79.15 254.83 C 82.68 260.05 88.84 263.18 95.10 263.33 C 98.60 263.57 103.05 263.49 105.08 266.97 C 107.65 271.88 106.60 277.72 105.47 282.89 C 101.02 302.61 96.43 322.83 98.52 343.16 C 101.25 362.40 108.83 380.51 116.62 398.17 C 118.81 403.38 121.77 408.30 123.27 413.79 C 117.80 414.56 112.18 413.54 106.78 414.84 C 101.28 416.46 99.93 422.71 96.50 426.56 C 96.13 426.63 95.39 426.78 95.02 426.85 C 90.74 423.94 88.14 419.15 83.86 416.24 C 78.97 415.78 74.00 415.88 69.09 416.17 C 64.37 418.94 61.73 424.24 57.05 427.08 C 52.56 424.03 50.17 418.44 45.13 416.11 C 38.79 416.03 32.44 416.93 26.26 418.36 C 26.20 413.00 26.19 407.04 29.48 402.52 C 32.67 399.62 38.33 400.78 40.75 396.75 C 42.38 394.05 40.70 391.09 39.52 388.60 C 36.23 382.20 32.95 375.80 29.72 369.38 C 12.24 334.45 0.86 296.04 0.00 256.82 L 0.00 246.19 C 0.36 226.37 0.95 206.44 4.50 186.89 M 67.37 268.09 C 68.94 275.86 69.29 283.85 70.38 291.72 C 76.22 287.29 82.10 282.92 87.86 278.39 C 82.41 272.84 75.13 268.97 67.37 268.09 M 68.26 303.59 C 75.74 304.80 83.12 306.97 89.72 310.78 C 89.90 303.10 88.60 295.46 86.61 288.06 C 79.27 291.61 73.84 297.86 68.26 303.59 M 68.40 309.33 C 68.25 316.90 69.09 324.49 70.44 331.93 C 76.95 330.23 82.37 325.69 87.03 321.03 C 88.77 319.64 86.40 318.44 85.33 317.71 C 79.96 314.43 74.25 311.66 68.40 309.33 M 74.30 339.32 C 77.12 344.35 81.30 348.68 85.81 352.28 C 87.59 353.72 89.14 355.70 91.58 355.95 C 91.87 348.33 92.83 340.74 93.82 333.18 C 86.82 332.80 80.11 335.68 74.30 339.32 M 46.82 351.92 C 41.77 354.84 36.20 351.07 30.87 351.22 C 32.22 354.45 35.67 355.87 38.47 357.58 C 41.59 359.11 44.91 361.55 48.58 360.53 C 52.54 357.35 54.84 352.70 57.43 348.44 C 58.28 347.11 58.66 345.58 58.97 344.06 C 54.71 346.35 51.01 349.52 46.82 351.92 M 78.29 360.15 C 78.96 368.11 79.41 376.30 82.02 383.92 C 87.69 378.74 95.27 375.66 99.82 369.32 C 93.07 365.33 85.81 362.31 78.29 360.15 M 50.89 376.29 C 46.62 376.99 42.27 376.25 37.97 376.39 C 40.40 379.61 44.42 381.04 47.74 383.16 C 49.70 384.21 52.92 385.97 54.57 383.57 C 58.17 378.71 61.58 373.60 64.02 368.06 C 59.05 369.78 55.38 373.74 50.89 376.29 M 53.04 402.27 C 49.35 401.80 45.68 401.00 41.93 401.26 C 43.11 403.86 45.84 405.10 48.06 406.66 C 50.88 408.29 54.08 410.66 57.51 409.47 C 62.84 405.08 66.66 399.08 69.82 393.02 C 63.37 394.39 59.33 400.62 53.04 402.27 Z" />
<path fill="#d7a443" opacity="1.00" d=" M 445.37 183.50 C 448.16 176.54 453.28 170.91 457.91 165.12 C 464.29 174.91 465.51 186.91 467.24 198.20 C 469.26 214.43 469.76 230.80 470.00 247.13 L 470.00 256.77 C 469.35 280.02 465.39 303.16 458.23 325.28 C 451.58 346.89 441.68 367.29 431.16 387.23 C 429.83 390.13 427.42 393.47 429.22 396.70 C 431.61 400.78 437.32 399.61 440.51 402.53 C 443.82 407.05 443.81 413.02 443.72 418.38 C 437.58 416.91 431.24 416.06 424.92 416.11 C 419.81 418.38 417.44 424.06 412.91 427.13 C 408.33 424.14 405.60 418.97 400.89 416.17 C 397.27 415.78 393.62 416.04 389.99 415.97 C 388.30 416.11 386.28 415.65 385.00 417.04 C 381.76 419.80 379.29 423.35 376.05 426.11 C 375.17 426.92 373.69 427.25 373.02 426.02 C 369.99 422.14 368.42 416.39 363.20 414.84 C 357.81 413.56 352.19 414.54 346.73 413.80 C 348.28 408.12 351.37 403.04 353.61 397.62 C 361.56 379.51 369.36 360.90 371.70 341.10 C 373.06 322.66 369.40 304.31 365.30 286.42 C 364.00 280.28 362.03 273.65 364.57 267.56 C 366.37 263.59 371.22 263.52 374.94 263.32 C 380.72 263.19 386.40 260.56 389.98 255.98 C 395.33 249.20 396.83 240.34 397.58 231.96 C 397.72 227.44 401.53 224.42 404.51 221.53 C 409.51 217.28 414.77 212.92 421.12 210.91 C 424.16 223.47 434.18 232.60 438.49 244.62 C 443.44 257.08 444.23 270.69 448.38 283.37 C 450.35 278.87 450.08 273.84 450.52 269.04 C 450.91 252.83 450.86 236.60 450.44 220.39 C 449.45 208.06 449.99 195.19 445.37 183.50 M 382.19 278.63 C 388.13 282.77 393.94 287.14 399.59 291.67 C 400.66 283.82 401.23 275.89 402.58 268.09 C 394.88 269.08 387.29 272.69 382.19 278.63 M 383.48 288.01 C 381.34 295.38 380.16 303.05 380.28 310.73 C 386.95 307.04 394.28 304.83 401.76 303.52 C 396.15 297.82 390.70 291.73 383.48 288.01 M 381.94 319.96 C 386.86 325.04 392.55 330.08 399.52 331.97 C 400.96 324.51 401.71 316.87 401.63 309.27 C 394.86 312.37 387.66 315.07 381.94 319.96 M 376.16 333.23 C 377.21 340.77 378.12 348.35 378.41 355.95 C 385.92 352.92 390.71 345.74 396.00 339.90 C 390.45 335.57 383.26 332.87 376.16 333.23 M 410.96 344.09 C 412.88 350.39 416.87 356.02 421.43 360.71 C 425.70 361.29 429.32 358.74 432.87 356.81 C 435.25 355.31 438.16 354.01 439.17 351.16 C 434.73 351.36 430.47 353.25 426.04 353.04 C 420.42 351.20 416.24 346.65 410.96 344.09 M 370.13 369.29 C 374.29 375.40 381.71 378.06 386.91 383.17 C 387.73 384.43 388.70 382.73 388.77 381.94 C 390.43 374.80 391.28 367.47 391.70 360.16 C 384.17 362.34 376.92 365.36 370.13 369.29 M 406.06 368.03 C 407.72 372.93 410.96 377.04 413.73 381.33 C 414.96 382.99 416.33 385.66 418.86 384.57 C 423.56 382.56 428.69 380.36 432.04 376.38 C 427.72 376.22 423.35 377.02 419.07 376.28 C 414.59 373.75 411.06 369.63 406.06 368.03 M 400.16 393.05 C 403.06 398.79 406.87 404.11 411.40 408.67 C 413.81 411.04 417.49 409.24 419.96 407.86 C 422.86 405.97 426.51 404.48 428.04 401.17 C 423.98 400.86 420.00 402.32 415.99 402.11 C 410.27 399.92 406.32 394.29 400.16 393.05 Z" />
<path fill="#d7a443" opacity="1.00" d=" M 109.07 419.21 C 114.50 417.60 121.53 419.76 123.41 425.54 C 124.16 427.79 124.79 431.84 121.54 432.33 C 116.38 433.13 111.10 432.87 105.90 432.62 C 104.00 432.42 101.22 432.27 100.70 429.97 C 99.51 424.69 104.42 420.41 109.07 419.21 Z" />
<path fill="#d7a443" opacity="1.00" d=" M 352.38 419.60 C 358.18 417.34 365.70 419.53 368.72 425.14 C 369.83 427.35 370.10 431.39 367.06 432.13 C 361.75 433.21 356.24 432.84 350.86 432.67 C 349.30 432.46 347.10 432.51 346.30 430.87 C 345.09 426.30 347.96 421.17 352.38 419.60 Z" />
<path fill="#d7a443" opacity="1.00" d=" M 69.54 421.75 C 74.63 420.78 81.83 421.35 84.21 426.80 C 85.34 429.88 85.82 434.65 82.24 436.31 C 77.74 437.96 72.76 437.65 68.06 437.28 C 65.53 436.89 61.82 436.07 61.48 432.99 C 61.74 428.19 64.68 423.08 69.54 421.75 Z" />
<path fill="#d7a443" opacity="1.00" d=" M 393.48 421.62 C 397.38 420.95 401.94 421.24 404.79 424.33 C 407.12 426.87 408.86 430.46 408.33 433.96 C 406.01 437.68 400.91 437.38 397.06 437.55 C 393.32 437.32 388.65 437.90 385.91 434.82 C 382.89 429.28 387.08 421.78 393.48 421.62 Z" />
<path fill="#d7a443" opacity="1.00" d=" M 33.60 422.79 C 38.48 422.08 43.70 421.81 48.40 423.56 C 52.53 425.07 53.32 432.54 48.50 433.70 C 43.13 435.28 37.40 434.82 31.87 434.72 C 29.38 434.46 25.33 434.32 25.00 431.06 C 24.79 426.35 29.46 423.43 33.60 422.79 Z" />
<path fill="#d7a443" opacity="1.00" d=" M 424.50 422.71 C 430.51 422.01 437.47 421.61 442.53 425.54 C 444.90 427.39 446.46 432.44 442.85 433.80 C 438.09 435.38 432.95 434.75 428.02 434.73 C 424.81 434.44 420.68 434.51 418.65 431.55 C 416.82 427.41 420.12 422.83 424.50 422.71 Z" />
</g>
<g id="#372817ff">
<path fill="#372817" opacity="1.00" d=" M 134.89 45.05 C 139.26 44.34 143.90 44.28 148.04 46.07 L 148.33 46.82 C 146.00 54.44 142.22 61.58 139.56 69.11 L 138.64 68.98 C 135.66 68.51 132.65 68.34 129.64 68.32 C 131.36 60.56 133.04 52.78 134.89 45.05 Z" />
<path fill="#372817" opacity="1.00" d=" M 109.35 56.56 C 113.97 54.04 118.54 51.43 123.25 49.07 C 124.22 55.51 125.39 61.92 126.39 68.35 C 122.52 68.35 118.64 68.88 114.99 70.17 C 113.09 65.64 111.43 61.01 109.35 56.56 Z" />
<path fill="#372817" opacity="1.00" d=" M 87.09 69.88 C 91.85 67.32 96.45 64.48 101.00 61.57 C 104.05 65.07 107.02 68.64 110.01 72.19 C 106.61 73.88 103.58 76.36 101.54 79.59 C 96.62 76.52 91.78 73.30 87.09 69.88 Z" />
<path fill="#372817" opacity="1.00" d=" M 151.19 91.94 C 157.46 96.10 163.61 100.45 169.90 104.58 C 165.74 108.00 161.49 111.31 157.08 114.40 C 151.15 110.20 145.27 105.91 139.51 101.48 C 144.32 99.74 148.80 96.58 151.19 91.94 Z" />
<path fill="#372817" opacity="1.00" d=" M 109.03 99.36 C 111.89 100.70 114.98 101.48 118.09 101.98 C 117.24 106.63 116.40 111.29 115.58 115.95 C 110.69 114.28 105.93 112.21 101.35 109.82 C 103.77 106.23 106.44 102.82 109.03 99.36 Z" />
<path fill="#372817" opacity="1.00" d=" M 120.15 102.28 C 125.82 101.33 131.53 103.52 137.15 102.04 C 138.73 107.95 140.22 113.89 141.81 119.80 C 135.78 119.62 129.77 119.05 123.83 118.02 C 125.09 113.27 126.10 108.43 127.81 103.81 C 125.38 102.77 122.72 102.69 120.15 102.28 Z" />
<path fill="#372817" opacity="1.00" d=" M 177.66 326.57 C 186.69 328.10 195.84 328.55 204.99 328.65 C 210.47 328.62 215.91 329.48 221.40 329.19 C 218.14 334.48 214.08 339.26 209.59 343.55 C 206.14 346.76 202.18 349.72 197.51 350.81 C 189.79 343.79 181.95 336.25 177.66 326.57 M 188.15 332.48 C 190.18 337.80 194.54 341.83 198.86 345.37 C 203.19 342.51 207.74 339.29 210.02 334.47 C 202.73 333.73 195.43 333.30 188.15 332.48 Z" />
<path fill="#372817" opacity="1.00" d=" M 263.05 328.68 C 272.84 328.58 282.66 328.18 292.32 326.50 C 287.32 335.91 280.17 344.35 271.68 350.74 C 261.19 347.25 254.32 337.68 248.00 329.14 C 253.03 329.45 258.02 328.62 263.05 328.68 M 259.91 334.47 C 261.91 339.43 266.64 342.63 271.00 345.38 C 275.05 341.77 279.55 337.97 281.18 332.61 C 274.10 333.36 266.99 333.69 259.91 334.47 Z" />
<path fill="#372817" opacity="1.00" d=" M 29.13 438.26 C 34.39 437.97 39.76 437.96 44.94 439.04 C 48.61 439.67 49.73 443.72 49.98 446.90 C 50.56 453.52 50.70 460.25 49.70 466.84 C 49.19 470.52 46.90 474.14 43.15 475.16 C 38.33 476.43 33.09 476.98 28.21 475.70 C 22.96 474.15 19.67 469.08 18.53 463.97 C 17.16 457.76 16.80 451.12 18.54 444.95 C 19.91 440.43 24.82 438.56 29.13 438.26 Z" />
<path fill="#372817" opacity="1.00" d=" M 105.49 438.60 C 110.79 437.10 116.70 437.39 121.90 439.19 C 126.71 441.01 128.40 446.47 128.78 451.14 C 129.13 457.09 129.63 463.46 126.98 469.00 C 125.03 473.06 120.31 474.51 116.13 474.73 C 110.93 474.98 105.62 475.34 100.49 474.29 C 97.54 473.73 96.90 470.42 96.82 467.91 C 96.55 461.57 96.57 455.15 97.83 448.92 C 98.73 444.62 101.11 440.13 105.49 438.60 Z" />
<path fill="#372817" opacity="1.00" d=" M 351.11 438.27 C 357.14 437.44 364.86 436.55 369.10 441.96 C 373.59 448.32 373.10 456.57 373.32 463.99 C 373.08 467.10 373.67 470.86 371.40 473.35 C 367.74 475.60 363.12 474.74 359.03 474.96 C 353.58 474.81 346.61 474.94 343.38 469.65 C 340.05 463.40 340.81 455.92 341.48 449.13 C 341.92 443.88 345.63 438.88 351.11 438.27 Z" />
<path fill="#372817" opacity="1.00" d=" M 426.58 438.71 C 433.33 438.13 440.61 437.10 447.03 439.88 C 451.93 442.18 452.52 448.25 452.59 453.02 C 452.57 459.90 451.86 467.72 446.68 472.82 C 442.28 477.14 435.54 476.73 429.90 475.88 C 426.25 475.48 422.42 473.57 421.16 469.89 C 419.26 464.52 419.64 458.68 419.63 453.08 C 419.86 449.20 419.61 445.04 421.48 441.51 C 422.51 439.68 424.63 438.99 426.58 438.71 Z" />
<path fill="#372817" opacity="1.00" d=" M 61.88 444.98 C 62.78 441.92 66.15 440.80 69.02 440.66 C 73.47 440.41 78.13 440.17 82.39 441.66 C 86.68 443.60 86.79 449.00 87.08 453.02 C 87.15 459.47 87.61 466.19 85.54 472.40 C 84.44 475.88 80.82 477.32 77.55 478.00 L 70.34 478.00 C 67.09 477.50 63.08 476.74 61.76 473.27 C 60.32 469.02 60.94 464.44 60.83 460.05 C 60.99 455.03 60.43 449.85 61.88 444.98 Z" />
<path fill="#372817" opacity="1.00" d=" M 387.03 441.95 C 390.72 440.22 394.98 440.52 398.95 440.52 C 402.11 440.67 406.19 440.94 407.76 444.19 C 409.57 448.54 408.98 453.40 409.16 458.00 C 408.99 463.07 409.79 468.32 408.25 473.24 C 406.94 476.72 402.92 477.49 399.67 478.00 L 393.33 478.00 C 389.81 477.56 385.77 476.28 384.52 472.56 C 382.35 466.32 382.86 459.54 382.91 453.05 C 383.22 449.17 383.24 444.20 387.03 441.95 Z" />
</g>
<g id="#e8dab4ff">
<path fill="#e8dab4" opacity="1.00" d=" M 178.80 152.85 C 184.31 141.00 192.27 130.03 202.93 122.32 C 207.95 125.33 211.59 130.05 215.11 134.61 C 218.98 139.95 222.29 145.82 223.99 152.23 C 224.21 153.27 224.41 154.31 224.61 155.35 C 212.64 158.31 201.13 163.87 191.87 172.08 C 189.33 173.10 186.54 173.03 183.87 173.38 C 180.43 173.72 177.26 175.22 173.98 176.19 L 172.52 176.31 C 172.60 174.86 172.70 173.43 172.83 171.99 C 173.89 165.37 176.02 158.95 178.80 152.85 Z" />
<path fill="#e8dab4" opacity="1.00" d=" M 265.32 136.51 C 269.69 131.17 274.59 124.50 282.02 123.86 C 289.37 125.56 291.46 134.25 293.61 140.47 C 295.65 148.29 296.60 156.39 296.53 164.47 C 296.42 168.36 296.22 172.27 295.39 176.08 C 289.90 173.79 284.00 172.97 278.11 172.59 C 271.00 165.38 261.52 160.93 252.15 157.38 C 252.74 156.26 253.33 155.15 253.94 154.04 C 257.29 147.93 261.02 142.01 265.32 136.51 Z" />
<path fill="#e8dab4" opacity="1.00" d=" M 313.32 174.91 C 317.11 169.54 323.29 165.61 329.90 165.12 C 334.48 164.86 335.60 170.30 336.25 173.78 C 337.49 183.18 337.25 193.29 332.95 201.94 C 331.74 203.98 330.20 205.79 328.56 207.49 C 326.57 205.82 324.28 204.58 321.96 203.43 C 318.38 195.35 314.98 187.07 309.66 179.93 C 310.90 178.27 312.11 176.59 313.32 174.91 Z" />
<path fill="#e8dab4" opacity="1.00" d=" M 134.14 169.21 C 140.24 168.15 146.38 170.46 152.19 172.18 C 156.10 173.54 159.83 175.37 163.48 177.33 C 154.93 183.58 152.24 194.52 147.57 203.50 C 147.29 203.65 146.73 203.95 146.45 204.10 C 144.90 203.00 143.41 201.82 142.01 200.54 C 137.78 196.14 135.68 190.28 134.24 184.47 C 133.16 179.62 130.51 173.53 134.14 169.21 Z" />
<path fill="#e8dab4" opacity="1.00" d=" M 103.09 207.87 C 107.43 205.11 112.75 204.92 117.74 205.09 C 122.90 205.43 128.48 206.14 132.45 209.81 C 133.79 211.02 135.10 212.26 136.43 213.50 C 136.23 213.98 135.83 214.96 135.64 215.45 C 130.96 222.65 126.26 229.96 123.55 238.20 C 122.03 237.24 120.49 236.31 119.03 235.25 C 113.77 231.50 110.14 225.94 107.98 219.91 C 106.37 215.89 104.61 211.93 103.09 207.87 Z" />
<path fill="#e8dab4" opacity="1.00" d=" M 340.32 211.58 C 345.58 206.73 353.10 204.86 360.09 206.02 C 361.78 206.21 363.36 207.29 363.62 209.07 C 365.11 215.78 365.20 223.16 362.50 229.58 C 360.82 233.67 356.41 235.23 352.89 237.31 C 350.87 238.47 348.96 239.82 347.04 241.12 C 344.39 232.13 339.75 223.91 334.47 216.23 C 336.42 214.69 338.38 213.14 340.32 211.58 Z" />
<path fill="#e8dab4" opacity="1.00" d=" M 150.02 252.06 C 164.51 246.15 180.72 245.07 196.05 247.77 C 207.78 249.86 219.55 255.51 226.27 265.70 C 232.73 275.43 233.35 287.76 231.80 299.01 C 230.61 307.63 227.14 316.56 219.87 321.83 C 211.37 327.96 200.17 328.44 190.17 326.75 C 183.99 325.79 178.23 323.12 172.07 322.14 C 168.46 321.47 164.96 323.18 162.49 325.70 C 155.83 333.81 155.61 345.03 155.46 355.03 C 155.78 381.27 169.85 404.62 184.81 425.22 C 190.01 432.99 196.70 440.06 199.78 449.02 C 201.57 461.32 189.84 472.15 177.96 472.04 C 175.58 471.88 172.54 472.12 170.93 470.00 C 170.91 467.23 174.38 467.39 176.04 466.07 C 179.35 463.05 179.85 458.22 180.01 454.00 C 180.22 448.99 176.63 444.99 173.47 441.53 C 165.52 433.45 156.62 426.38 148.36 418.63 C 130.46 402.25 114.43 382.67 107.23 359.12 C 98.41 330.81 101.49 297.46 120.57 273.91 C 128.29 264.26 138.55 256.67 150.02 252.06 Z" />
<path fill="#e8dab4" opacity="1.00" d=" M 255.38 254.40 C 269.06 246.49 285.59 245.28 300.99 247.16 C 319.56 249.50 337.10 259.06 348.89 273.63 C 362.04 289.88 368.00 311.22 367.01 331.95 C 366.39 353.48 358.49 374.46 345.76 391.73 C 333.32 409.10 316.66 422.71 300.90 436.90 C 296.49 441.29 291.06 445.65 289.73 452.05 C 289.50 456.53 289.83 461.54 292.74 465.19 C 294.13 467.29 297.34 466.86 298.60 469.03 C 299.29 470.63 297.19 471.27 296.06 471.62 C 286.42 473.63 275.76 468.34 271.54 459.44 C 269.28 454.76 268.79 448.97 271.72 444.46 C 277.55 434.31 285.19 425.35 291.60 415.56 C 304.06 397.09 314.54 375.90 314.19 353.10 C 313.91 343.74 313.41 333.33 307.22 325.76 C 303.71 321.62 297.84 321.31 293.05 323.11 C 282.19 326.83 270.30 329.29 258.97 326.19 C 251.33 324.27 244.74 318.76 241.48 311.60 C 237.12 302.24 236.55 291.55 237.59 281.42 C 238.93 270.26 245.64 260.01 255.38 254.40 Z" />
<path fill="#e8dab4" opacity="1.00" d=" M 182.61 374.70 C 187.64 372.74 193.46 373.07 198.03 376.06 C 204.21 380.03 209.17 385.81 212.95 392.06 C 211.97 395.18 210.10 397.93 208.85 400.95 C 207.73 403.38 207.16 406.02 206.82 408.66 C 205.89 422.65 212.42 435.68 218.09 448.07 C 208.16 440.42 199.10 431.39 192.25 420.84 C 188.51 415.24 186.48 408.75 185.20 402.20 C 183.43 393.15 182.39 383.93 182.61 374.70 Z" />
<path fill="#e8dab4" opacity="1.00" d=" M 274.54 374.60 C 278.37 373.15 283.37 372.65 286.86 375.07 C 287.54 384.14 286.05 393.22 284.48 402.13 C 283.35 406.86 282.37 411.70 280.09 416.04 C 274.78 426.47 266.58 435.08 257.97 442.86 C 255.84 444.65 253.91 446.77 251.36 447.98 C 255.08 441.39 257.82 434.27 260.20 427.10 C 262.04 421.15 263.53 414.92 262.82 408.65 C 262.49 405.68 261.64 402.79 260.35 400.10 C 259.09 397.40 257.77 394.72 256.50 392.03 C 261.32 385.21 266.65 378.02 274.54 374.60 Z" />
</g>
<g id="#b79e6fff">
<path fill="#b79e6f" opacity="1.00" d=" M 48.43 135.54 C 50.16 134.81 53.37 135.31 52.62 137.86 C 50.67 144.60 46.25 150.28 43.68 156.78 C 39.85 165.01 40.17 174.36 37.64 182.97 C 37.23 184.20 36.54 185.75 35.06 185.87 C 32.83 185.02 31.38 182.96 29.83 181.26 C 25.44 175.83 21.37 170.07 18.24 163.81 C 16.86 161.44 18.43 158.80 19.75 156.81 C 23.44 151.57 28.52 147.51 33.58 143.65 C 38.19 140.42 42.95 137.10 48.43 135.54 Z" />
<path fill="#b79e6f" opacity="1.00" d=" M 417.36 135.45 C 420.22 135.22 423.08 135.74 425.66 137.03 C 434.22 141.41 442.10 147.30 448.49 154.50 C 450.64 157.21 453.72 160.93 451.45 164.47 C 447.40 171.79 442.76 179.00 436.72 184.85 C 435.54 186.39 433.22 185.89 432.76 183.99 C 430.17 176.60 430.24 168.55 427.96 161.06 C 425.98 155.14 422.84 149.72 419.96 144.23 C 418.50 141.51 417.29 138.59 417.36 135.45 Z" />
<path fill="#b79e6f" opacity="1.00" d=" M 183.87 173.38 C 186.54 173.03 189.33 173.10 191.87 172.08 C 191.30 189.16 193.52 206.12 195.72 223.00 C 192.94 220.89 190.35 218.43 188.70 215.31 C 181.80 203.06 180.86 188.46 173.98 176.19 C 177.26 175.22 180.43 173.72 183.87 173.38 Z" />
<path fill="#b79e6f" opacity="1.00" d=" M 278.11 172.59 C 284.00 172.97 289.90 173.79 295.39 176.08 L 295.27 176.43 C 291.47 184.73 288.87 193.52 286.35 202.28 C 283.90 209.95 280.83 218.14 274.07 223.06 C 275.04 212.34 276.82 201.70 277.39 190.94 C 277.96 184.84 277.59 178.70 278.11 172.59 Z" />
<path fill="#b79e6f" opacity="1.00" d=" M 386.98 173.64 C 388.09 174.16 389.24 174.67 390.33 175.25 C 397.34 181.00 403.60 187.64 409.30 194.68 C 410.97 196.94 413.00 199.20 413.48 202.06 C 411.61 205.50 408.34 207.87 405.49 210.45 C 401.73 213.47 398.17 216.81 394.01 219.29 C 392.70 213.48 393.86 207.39 392.24 201.61 C 390.28 194.73 387.66 187.98 386.85 180.82 C 386.73 178.43 386.84 176.03 386.98 173.64 Z" />
<path fill="#b79e6f" opacity="1.00" d=" M 74.52 180.57 C 76.22 179.18 77.85 177.59 79.94 176.79 C 81.47 176.87 81.48 178.75 81.78 179.84 C 82.62 187.35 79.76 194.53 77.75 201.62 C 76.12 207.40 77.28 213.48 75.98 219.29 C 69.33 214.73 62.88 209.61 57.46 203.61 C 55.46 201.78 57.46 199.33 58.53 197.59 C 63.15 191.31 68.66 185.70 74.52 180.57 Z" />
<path fill="#b79e6f" opacity="1.00" d=" M 24.63 183.51 C 28.07 190.10 32.42 196.19 37.12 201.93 C 40.40 205.59 43.86 209.70 48.85 210.90 C 46.63 220.99 39.46 228.74 34.74 237.65 C 29.36 247.30 27.51 258.33 25.12 268.97 C 23.99 273.79 23.79 278.96 21.23 283.32 C 18.83 273.07 19.52 262.46 19.21 252.02 C 19.30 237.33 19.07 222.60 20.29 207.94 C 21.00 199.71 21.35 191.22 24.63 183.51 Z" />
<path fill="#b79e6f" opacity="1.00" d=" M 430.05 205.05 C 436.07 198.60 441.20 191.28 445.37 183.50 C 449.99 195.19 449.45 208.06 450.44 220.39 C 450.86 236.60 450.91 252.83 450.52 269.04 C 450.08 273.84 450.35 278.87 448.38 283.37 C 444.23 270.69 443.44 257.08 438.49 244.62 C 434.18 232.60 424.16 223.47 421.12 210.91 C 424.69 210.06 427.58 207.66 430.05 205.05 Z" />
<path fill="#b79e6f" opacity="1.00" d=" M 146.45 204.10 C 146.73 203.95 147.29 203.65 147.57 203.50 C 152.74 213.65 158.30 223.61 163.11 233.91 C 153.00 229.45 142.76 224.14 135.64 215.45 C 135.83 214.96 136.23 213.98 136.43 213.50 C 138.32 209.16 142.40 206.27 146.45 204.10 Z" />
<path fill="#b79e6f" opacity="1.00" d=" M 306.86 233.90 C 311.24 223.45 316.97 213.60 321.96 203.43 C 324.28 204.58 326.57 205.82 328.56 207.49 C 331.05 209.63 332.99 212.32 334.08 215.43 C 326.94 224.02 316.91 229.41 306.86 233.90 Z" />
<path fill="#b79e6f" opacity="1.00" d=" M 188.15 332.48 C 195.43 333.30 202.73 333.73 210.02 334.47 C 207.74 339.29 203.19 342.51 198.86 345.37 C 194.54 341.83 190.18 337.80 188.15 332.48 Z" />
<path fill="#b79e6f" opacity="1.00" d=" M 259.91 334.47 C 266.99 333.69 274.10 333.36 281.18 332.61 C 279.55 337.97 275.05 341.77 271.00 345.38 C 266.64 342.63 261.91 339.43 259.91 334.47 Z" />
</g>
</svg>
