<?xml version="1.0" encoding="UTF-8" ?>
<!DOCTYPE svg PUBLIC "-//W3C//DTD SVG 1.1//EN" "http://www.w3.org/Graphics/SVG/1.1/DTD/svg11.dtd">
<svg width="494pt" height="500pt" viewBox="0 0 494 500" version="1.1" xmlns="http://www.w3.org/2000/svg">
<g id="#6f8fb5ff">
<path fill="#6f8fb5" opacity="1.00" d=" M 211.18 0.00 L 212.87 0.00 C 204.39 14.52 196.21 29.93 194.42 46.91 C 192.83 63.45 201.55 79.12 212.95 90.47 C 208.50 96.26 206.82 103.78 207.59 110.97 C 208.45 120.13 211.06 128.97 213.95 137.66 C 209.34 131.42 207.83 123.32 202.54 117.46 C 198.33 111.64 189.41 113.57 185.15 107.85 C 183.13 104.23 182.61 100.02 181.93 96.00 C 179.80 81.88 181.41 67.60 182.19 53.46 C 181.24 54.81 180.29 56.17 179.62 57.69 C 171.99 75.85 167.05 95.31 166.59 115.07 C 166.46 122.00 166.70 129.13 169.44 135.61 C 173.19 134.48 177.74 133.05 181.07 136.01 C 186.43 140.74 187.77 148.28 189.28 154.93 C 190.95 165.31 192.40 176.01 190.67 186.48 C 182.46 167.08 165.95 152.25 147.11 143.42 C 151.74 135.60 155.36 127.00 156.42 117.91 C 157.16 111.94 156.05 105.98 155.53 100.04 C 154.54 90.38 154.51 80.66 154.68 70.96 C 155.10 55.74 160.05 40.46 169.66 28.53 C 180.46 14.88 196.10 6.00 212.30 0.25 L 211.18 0.00 Z" />
<path fill="#6f8fb5" opacity="1.00" d=" M 280.96 0.00 L 281.27 0.00 C 293.66 4.54 305.74 10.52 315.65 19.38 C 325.20 27.76 332.44 38.77 336.08 50.98 C 340.25 64.21 339.52 78.27 339.09 91.95 C 338.81 101.91 336.01 111.92 338.17 121.84 C 339.74 129.48 342.90 136.73 346.89 143.41 C 328.06 152.30 311.52 167.08 303.31 186.51 C 302.83 183.34 302.35 180.16 302.52 176.95 C 302.84 166.50 303.83 155.94 306.96 145.93 C 308.49 141.66 310.52 136.84 314.91 134.85 C 317.93 133.38 321.25 134.72 324.20 135.68 C 326.95 130.96 327.10 125.33 327.38 120.02 C 327.68 100.39 323.53 80.83 316.32 62.61 C 315.10 59.42 313.91 56.16 311.80 53.43 C 312.71 69.57 314.61 86.02 310.95 101.97 C 310.26 104.59 309.72 107.60 307.45 109.36 C 302.92 113.20 295.84 112.18 291.90 116.93 C 286.34 122.85 284.79 131.19 280.07 137.59 C 282.73 129.54 285.18 121.38 286.18 112.94 C 287.38 105.16 285.94 96.79 281.06 90.47 C 289.87 81.65 296.94 70.56 299.14 58.13 C 300.91 48.19 298.59 38.08 295.27 28.71 C 291.55 18.66 286.68 9.05 280.96 0.00 Z" />
<path fill="#6f8fb5" opacity="1.00" d=" M 45.29 35.89 C 54.39 46.77 62.03 59.10 66.49 72.62 C 69.28 81.86 71.18 91.51 75.99 99.99 C 79.76 106.85 85.52 112.43 91.96 116.80 C 104.13 124.96 117.49 131.19 129.47 139.65 C 132.08 141.56 134.74 143.46 136.90 145.90 C 131.88 144.91 127.76 141.66 122.93 140.13 C 110.93 135.88 97.31 135.19 86.91 127.15 C 82.16 123.64 79.69 118.15 77.16 113.01 C 73.61 106.17 68.56 100.20 62.96 94.94 C 67.94 111.29 69.65 128.94 65.60 145.68 C 62.85 156.84 61.70 168.40 62.49 179.87 C 64.20 192.57 71.76 203.57 80.31 212.74 C 84.51 217.00 88.79 221.38 94.11 224.25 C 94.39 224.42 94.95 224.75 95.23 224.92 C 95.31 225.39 95.47 226.33 95.55 226.80 C 82.42 230.80 68.68 228.09 55.35 226.98 C 41.22 216.92 29.34 203.21 23.31 186.80 C 19.17 176.06 18.29 164.38 19.15 152.99 C 19.99 142.67 21.37 131.99 26.38 122.78 C 27.13 142.10 30.43 162.26 41.61 178.50 C 46.33 185.24 52.55 191.25 60.28 194.37 C 53.17 184.62 47.34 173.78 44.58 161.96 C 38.86 138.25 42.20 113.64 45.64 89.86 C 47.17 78.29 49.89 66.68 48.65 54.96 C 48.12 48.51 46.82 42.16 45.29 35.89 Z" />
<path fill="#6f8fb5" opacity="1.00" d=" M 427.50 72.63 C 431.94 59.10 439.59 46.78 448.71 35.91 C 446.10 46.39 444.27 57.25 445.34 68.07 C 449.03 99.26 456.93 131.21 449.29 162.44 C 446.51 174.06 440.73 184.69 433.77 194.32 C 445.20 189.67 453.09 179.18 458.19 168.31 C 464.82 154.10 466.96 138.29 467.63 122.76 C 471.53 129.77 473.00 137.79 474.14 145.63 C 475.54 157.59 475.85 169.96 472.38 181.63 C 467.08 200.21 454.27 215.94 438.65 226.98 C 425.31 228.09 411.54 230.81 398.40 226.79 C 398.49 226.33 398.68 225.40 398.77 224.93 C 399.04 224.77 399.60 224.45 399.87 224.29 C 404.22 222.06 407.69 218.57 411.20 215.25 C 420.75 205.76 429.32 194.17 431.42 180.55 C 432.11 173.35 431.67 166.08 430.87 158.91 C 430.06 151.50 427.75 144.36 426.80 136.97 C 425.06 123.07 426.81 108.93 430.88 95.58 C 426.54 98.64 423.43 103.04 420.31 107.25 C 415.72 113.49 413.96 121.71 407.67 126.67 C 397.95 134.64 384.96 135.75 373.37 139.36 C 367.71 140.96 362.87 144.62 357.11 145.89 C 364.98 138.08 375.04 133.03 384.47 127.40 C 395.30 121.03 407.14 115.24 414.82 104.91 C 421.94 95.50 424.22 83.69 427.50 72.63 Z" />
<path fill="#6f8fb5" opacity="1.00" d=" M 1.76 181.64 C 8.70 199.59 17.24 217.11 28.78 232.59 C 27.83 239.12 29.55 245.57 30.24 252.03 C 30.93 257.98 27.33 263.24 26.76 269.04 C 24.77 285.92 33.98 303.04 48.07 312.10 C 48.43 311.90 49.13 311.51 49.48 311.31 C 49.75 312.94 50.07 314.55 50.38 316.18 C 45.87 315.83 41.83 313.76 37.87 311.75 C 39.52 323.71 44.95 335.78 54.86 343.10 C 60.41 347.26 67.40 348.37 73.88 350.31 C 77.43 351.52 81.58 352.82 83.10 356.63 C 77.67 353.31 71.41 349.80 64.82 351.32 C 60.45 352.27 57.85 356.34 56.41 360.26 C 43.92 351.73 33.30 340.57 25.20 327.81 C 6.88 298.99 1.05 264.22 0.00 230.61 L 0.00 210.48 C 0.45 200.86 0.60 191.21 1.76 181.64 Z" />
<path fill="#6f8fb5" opacity="1.00" d=" M 465.26 232.57 C 476.73 217.06 485.36 199.61 492.19 181.62 C 493.63 193.44 493.77 205.36 494.00 217.25 L 494.00 230.52 C 492.99 262.03 487.88 294.39 472.18 322.18 C 463.73 337.29 451.86 350.46 437.61 360.30 C 436.16 356.47 433.73 352.47 429.48 351.40 C 422.80 349.66 416.42 353.30 410.89 356.63 C 412.60 352.56 417.16 351.27 420.99 350.04 C 427.67 348.20 434.80 346.79 440.28 342.25 C 449.41 334.77 454.53 323.29 456.16 311.78 C 452.17 313.72 448.15 315.87 443.63 316.15 C 443.86 314.89 444.12 313.64 444.38 312.39 C 449.04 310.83 452.46 307.15 455.70 303.64 C 464.00 294.34 468.71 281.54 467.24 269.05 C 466.70 263.23 463.01 257.97 463.75 252.00 C 464.45 245.55 466.10 239.10 465.26 232.57 Z" />
</g>
<g id="#95b1d6ff">
<path fill="#95b1d6" opacity="1.00" d=" M 179.62 57.69 C 180.29 56.17 181.24 54.81 182.19 53.46 C 181.41 67.60 179.80 81.88 181.93 96.00 C 182.61 100.02 183.13 104.23 185.15 107.85 C 189.41 113.57 198.33 111.64 202.54 117.46 C 207.83 123.32 209.34 131.42 213.95 137.66 C 218.43 148.36 224.10 159.27 233.90 166.03 C 229.54 170.59 225.31 175.48 222.57 181.21 C 219.39 173.73 216.58 166.04 214.82 158.09 C 213.39 151.64 210.96 145.31 206.90 140.05 C 204.43 136.74 200.30 135.46 197.24 132.85 C 193.38 129.60 190.63 125.30 187.00 121.83 C 188.99 128.78 192.91 134.98 197.29 140.66 C 201.86 146.38 202.96 153.93 203.34 161.02 C 203.94 174.49 201.76 188.16 196.61 200.64 C 194.22 206.10 191.51 211.61 187.14 215.78 C 188.98 206.15 191.61 196.34 190.67 186.48 C 192.40 176.01 190.95 165.31 189.28 154.93 C 187.77 148.28 186.43 140.74 181.07 136.01 C 177.74 133.05 173.19 134.48 169.44 135.61 C 166.70 129.13 166.46 122.00 166.59 115.07 C 167.05 95.31 171.99 75.85 179.62 57.69 Z" />
<path fill="#95b1d6" opacity="1.00" d=" M 311.80 53.43 C 313.91 56.16 315.10 59.42 316.32 62.61 C 323.53 80.83 327.68 100.39 327.38 120.02 C 327.10 125.33 326.95 130.96 324.20 135.68 C 321.25 134.72 317.93 133.38 314.91 134.85 C 310.52 136.84 308.49 141.66 306.96 145.93 C 303.83 155.94 302.84 166.50 302.52 176.95 C 302.35 180.16 302.83 183.34 303.31 186.51 C 302.46 196.33 304.88 206.13 306.94 215.69 C 301.73 211.25 299.15 204.68 296.50 198.56 C 291.41 184.74 289.34 169.66 291.21 155.02 C 291.91 149.92 293.37 144.76 296.66 140.68 C 301.05 135.03 304.96 128.85 306.95 121.91 C 303.19 125.52 300.39 130.06 296.23 133.27 C 293.25 135.60 289.43 136.91 287.10 140.03 C 283.04 145.30 280.63 151.65 279.15 158.09 C 277.35 166.03 274.60 173.72 271.42 181.20 C 268.67 175.48 264.49 170.58 260.11 166.04 C 269.90 159.24 275.60 148.32 280.07 137.59 C 284.79 131.19 286.34 122.85 291.90 116.93 C 295.84 112.18 302.92 113.20 307.45 109.36 C 309.72 107.60 310.26 104.59 310.95 101.97 C 314.61 86.02 312.71 69.57 311.80 53.43 Z" />
<path fill="#95b1d6" opacity="1.00" d=" M 62.96 94.94 C 68.56 100.20 73.61 106.17 77.16 113.01 C 79.69 118.15 82.16 123.64 86.91 127.15 C 97.31 135.19 110.93 135.88 122.93 140.13 C 127.76 141.66 131.88 144.91 136.90 145.90 C 142.25 150.95 148.54 154.98 153.45 160.52 C 162.73 170.38 168.80 183.34 169.60 196.92 C 170.72 217.43 167.32 238.24 159.48 257.24 C 159.05 242.03 149.83 228.85 140.09 217.89 C 141.64 224.61 144.31 231.33 143.48 238.34 C 142.30 244.34 138.24 249.18 135.69 254.62 C 132.97 259.62 131.48 265.15 129.95 270.60 C 127.91 260.84 121.55 251.98 112.45 247.70 C 117.30 244.53 123.96 246.41 128.29 242.30 C 130.98 240.05 132.57 236.86 134.07 233.77 C 127.78 231.40 120.44 231.37 114.40 234.49 C 109.81 236.70 106.18 240.40 102.93 244.25 L 102.45 244.80 C 94.94 243.30 87.22 242.99 79.85 240.81 C 70.70 238.30 62.35 233.34 55.35 226.98 C 68.68 228.09 82.42 230.80 95.55 226.80 C 95.47 226.33 95.31 225.39 95.23 224.92 C 102.61 230.06 112.15 229.60 120.29 226.70 C 114.37 221.87 106.98 219.28 101.05 214.44 C 106.63 213.40 113.16 212.32 118.13 215.78 C 121.79 219.17 122.91 224.88 127.65 227.23 C 129.94 228.47 134.22 229.25 135.15 225.98 C 136.16 221.99 136.13 217.57 134.22 213.84 C 135.81 209.09 134.37 204.18 133.85 199.39 C 136.62 203.44 135.08 208.65 137.04 212.94 C 138.30 215.95 142.23 215.29 144.75 214.63 C 145.59 210.24 145.32 205.62 144.83 201.19 C 142.92 194.34 137.03 189.29 130.88 186.18 C 126.54 183.87 121.49 185.23 117.09 186.62 C 111.90 184.30 107.37 180.68 103.24 176.82 C 93.62 167.60 86.06 156.33 80.79 144.11 C 79.13 140.32 77.76 136.41 75.93 132.69 C 75.36 138.51 76.35 144.31 77.17 150.06 C 78.90 160.43 81.35 171.39 88.54 179.47 C 97.95 189.80 111.92 193.90 122.42 202.79 C 112.93 199.31 104.62 206.93 99.10 213.73 C 95.47 211.56 91.88 209.12 89.31 205.69 C 83.69 197.92 80.81 188.68 77.31 179.87 C 77.83 190.55 80.50 201.14 85.33 210.70 C 87.66 215.59 91.16 219.75 94.11 224.25 C 88.79 221.38 84.51 217.00 80.31 212.74 C 71.76 203.57 64.20 192.57 62.49 179.87 C 61.70 168.40 62.85 156.84 65.60 145.68 C 69.65 128.94 67.94 111.29 62.96 94.94 M 92.93 146.03 C 95.79 152.67 100.23 158.53 105.23 163.70 C 110.69 169.35 118.10 172.33 124.71 176.32 C 133.57 181.54 142.87 187.84 146.47 197.98 C 147.14 196.82 147.81 195.66 148.49 194.51 C 150.26 199.16 150.44 204.19 150.95 209.09 C 154.72 202.86 158.06 196.23 159.73 189.11 C 160.85 184.98 159.99 180.62 158.23 176.81 C 155.89 171.71 152.88 166.88 149.14 162.69 C 150.66 171.57 150.98 181.13 147.28 189.53 C 145.54 178.24 137.91 168.47 128.21 162.73 C 122.32 158.92 115.27 157.78 109.00 154.79 C 103.37 152.38 98.39 148.77 92.93 146.03 Z" />
<path fill="#95b1d6" opacity="1.00" d=" M 420.31 107.25 C 423.43 103.04 426.54 98.64 430.88 95.58 C 426.81 108.93 425.06 123.07 426.80 136.97 C 427.75 144.36 430.06 151.50 430.87 158.91 C 431.67 166.08 432.11 173.35 431.42 180.55 C 429.32 194.17 420.75 205.76 411.20 215.25 C 407.69 218.57 404.22 222.06 399.87 224.29 C 403.59 218.77 407.77 213.51 410.28 207.28 C 413.63 199.21 416.46 190.54 416.06 181.70 C 412.86 189.66 410.04 197.90 405.19 205.06 C 402.57 208.79 398.76 211.41 394.93 213.77 C 391.19 209.23 386.81 204.90 381.27 202.68 C 378.15 201.40 374.74 202.04 371.58 202.78 C 382.61 193.48 397.58 189.33 406.85 177.84 C 413.13 169.55 415.35 159.03 416.98 148.97 C 417.76 143.60 418.50 138.18 418.18 132.74 C 416.10 135.75 415.37 139.42 413.83 142.70 C 406.51 159.93 394.98 176.00 378.84 185.91 C 377.26 187.05 375.34 187.42 373.49 187.85 C 374.61 187.34 375.72 186.82 376.84 186.30 C 372.60 185.50 367.97 183.95 363.81 185.87 C 358.79 188.10 354.37 191.76 351.30 196.32 C 347.58 201.75 348.89 208.71 349.11 214.88 C 351.55 214.75 354.93 216.10 356.56 213.60 C 359.16 209.24 357.19 203.55 360.19 199.30 C 359.68 204.11 358.11 209.06 359.78 213.82 C 357.84 217.60 357.83 222.10 358.88 226.13 C 359.95 229.23 364.04 228.43 366.30 227.25 C 370.75 225.00 372.16 219.87 375.24 216.32 C 380.09 212.17 387.13 213.38 392.90 214.43 C 387.04 219.29 379.77 221.97 373.77 226.62 C 381.86 229.67 391.40 230.01 398.77 224.93 C 398.68 225.40 398.49 226.33 398.40 226.79 C 411.54 230.81 425.31 228.09 438.65 226.98 C 430.89 234.11 421.34 239.35 411.02 241.61 C 404.48 243.01 397.81 243.85 391.16 244.56 C 387.01 239.05 381.39 234.29 374.56 232.64 C 369.71 231.60 364.56 231.99 359.93 233.77 C 362.01 238.30 364.94 243.28 370.06 244.72 C 373.95 245.44 378.02 245.70 381.54 247.70 C 372.46 252.01 366.05 260.82 364.05 270.60 C 362.40 264.69 360.70 258.72 357.64 253.36 C 355.20 248.41 351.54 243.91 350.51 238.37 C 349.70 231.36 352.35 224.62 353.87 217.89 C 344.20 228.95 334.78 242.05 334.54 257.35 C 326.47 237.72 322.98 216.16 324.56 194.99 C 326.03 177.96 336.05 162.63 349.43 152.40 C 352.19 150.47 354.55 148.04 357.11 145.89 C 362.87 144.62 367.71 140.96 373.37 139.36 C 384.96 135.75 397.95 134.64 407.67 126.67 C 413.96 121.71 415.72 113.49 420.31 107.25 M 382.78 155.76 C 377.10 158.14 370.92 159.38 365.70 162.76 C 356.01 168.49 348.41 178.30 346.72 189.58 C 342.98 181.08 343.30 171.41 344.90 162.45 C 339.00 170.25 331.63 179.64 334.48 190.05 C 336.31 196.75 339.27 203.18 343.06 209.00 C 343.55 204.13 343.73 199.12 345.50 194.50 C 346.11 195.67 346.73 196.84 347.35 198.02 C 349.31 193.97 351.47 189.93 354.78 186.81 C 361.60 180.23 370.14 175.86 378.33 171.26 C 388.63 165.89 396.31 156.36 401.11 145.95 C 395.01 149.24 389.26 153.22 382.78 155.76 Z" />
<path fill="#95b1d6" opacity="1.00" d=" M 28.78 232.59 C 42.43 247.75 58.52 260.89 76.74 270.17 C 87.08 275.22 98.24 279.95 110.00 279.20 C 114.30 279.26 119.40 278.95 122.63 282.34 C 126.16 286.21 127.18 291.59 128.25 296.55 C 130.84 310.62 131.58 324.95 131.89 339.23 C 129.38 328.21 126.44 316.21 117.58 308.47 C 111.51 302.98 102.18 302.48 95.02 306.02 C 90.10 308.18 84.11 311.17 78.93 308.11 C 72.31 304.04 69.44 296.45 66.16 289.80 C 65.41 297.29 65.37 305.08 67.72 312.30 C 69.31 317.29 73.77 321.12 78.97 321.86 C 84.79 323.17 91.63 321.39 96.58 325.49 C 102.14 330.25 104.71 337.44 106.71 344.27 C 111.83 364.30 113.21 385.21 111.16 405.77 C 110.64 405.61 109.60 405.28 109.08 405.12 C 105.81 401.50 106.06 396.20 104.36 391.84 C 100.91 382.26 94.91 373.89 90.17 364.93 C 88.56 361.59 86.19 358.70 83.10 356.63 C 81.58 352.82 77.43 351.52 73.88 350.31 C 67.40 348.37 60.41 347.26 54.86 343.10 C 44.95 335.78 39.52 323.71 37.87 311.75 C 41.83 313.76 45.87 315.83 50.38 316.18 C 50.55 317.06 50.73 317.95 50.91 318.84 C 53.42 319.47 55.93 320.10 58.44 320.74 C 57.82 318.23 57.20 315.73 56.58 313.22 C 54.14 311.95 51.68 310.72 49.21 309.52 L 49.48 311.31 C 49.13 311.51 48.43 311.90 48.07 312.10 C 33.98 303.04 24.77 285.92 26.76 269.04 C 27.33 263.24 30.93 257.98 30.24 252.03 C 29.55 245.57 27.83 239.12 28.78 232.59 M 41.50 277.38 C 42.77 281.82 43.96 286.28 45.36 290.68 C 48.49 292.46 51.55 294.38 54.68 296.16 C 54.68 291.78 54.67 287.39 54.68 283.01 C 50.30 281.10 45.92 279.20 41.50 277.38 M 81.09 286.82 C 81.07 290.58 81.08 294.34 81.08 298.10 C 83.59 299.35 86.10 300.61 88.61 301.87 C 88.61 300.03 88.76 298.17 88.52 296.35 C 86.32 292.97 83.55 290.01 81.09 286.82 M 67.99 328.35 C 70.38 332.80 72.94 337.16 75.46 341.54 C 77.95 341.53 80.45 341.53 82.94 341.54 C 82.35 339.01 81.72 336.49 81.08 333.97 C 76.74 332.05 72.37 330.18 67.99 328.35 M 90.61 347.36 C 92.38 353.60 94.31 359.79 96.15 366.02 C 99.29 366.67 102.44 367.31 105.59 367.91 C 105.59 365.39 105.58 362.87 105.58 360.36 C 100.58 356.03 95.71 351.56 90.61 347.36 Z" />
<path fill="#95b1d6" opacity="1.00" d=" M 412.60 272.44 C 432.75 263.12 450.45 249.01 465.26 232.57 C 466.10 239.10 464.45 245.55 463.75 252.00 C 463.01 257.97 466.70 263.23 467.24 269.05 C 468.71 281.54 464.00 294.34 455.70 303.64 C 452.46 307.15 449.04 310.83 444.38 312.39 C 444.53 311.66 444.83 310.19 444.98 309.45 C 442.45 310.71 439.93 311.98 437.41 313.26 C 436.79 315.75 436.17 318.23 435.57 320.73 C 438.07 320.13 440.58 319.52 443.09 318.89 C 443.26 317.98 443.44 317.06 443.63 316.15 C 448.15 315.87 452.17 313.72 456.16 311.78 C 454.53 323.29 449.41 334.77 440.28 342.25 C 434.80 346.79 427.67 348.20 420.99 350.04 C 417.16 351.27 412.60 352.56 410.89 356.63 C 408.56 358.38 406.27 360.31 404.95 362.98 C 400.37 371.37 395.14 379.43 391.08 388.09 C 388.69 392.90 388.43 398.39 386.29 403.27 C 385.73 404.77 384.36 405.57 382.82 405.77 C 381.70 392.53 381.39 379.14 383.25 365.94 C 384.73 355.09 386.35 344.02 391.05 334.02 C 393.34 329.36 396.76 324.52 402.07 323.17 C 408.01 321.98 414.55 323.20 420.03 320.08 C 423.82 318.06 426.03 314.04 426.96 309.99 C 428.52 303.37 428.54 296.47 427.83 289.73 C 424.48 296.62 421.42 304.55 414.38 308.50 C 409.24 310.84 403.65 308.12 398.92 306.00 C 391.55 302.32 381.97 303.13 375.89 308.90 C 367.42 316.74 364.56 328.43 362.11 339.28 C 362.45 324.09 363.17 308.82 366.29 293.91 C 367.41 289.41 368.64 284.40 372.45 281.37 C 376.08 278.80 380.79 279.29 385.00 279.21 C 394.65 279.73 403.90 276.24 412.60 272.44 M 439.31 283.08 C 439.33 287.44 439.31 291.81 439.33 296.18 C 442.47 294.44 445.50 292.51 448.62 290.73 C 450.03 286.32 451.22 281.84 452.50 277.39 C 448.11 279.29 443.69 281.14 439.31 283.08 M 405.36 296.31 C 405.37 298.16 405.38 300.01 405.38 301.86 C 407.94 300.65 410.48 299.41 412.95 298.04 C 412.90 294.31 412.94 290.58 412.89 286.85 C 410.36 289.98 407.84 293.13 405.36 296.31 M 412.92 333.96 C 412.28 336.48 411.65 339.00 411.05 341.54 C 413.55 341.53 416.06 341.53 418.57 341.52 C 421.04 337.13 423.64 332.81 425.99 328.35 C 421.66 330.28 417.28 332.11 412.92 333.96 M 388.42 360.39 C 388.41 362.90 388.41 365.40 388.41 367.91 C 391.57 367.31 394.73 366.68 397.87 365.99 C 399.68 359.77 401.62 353.59 403.40 347.37 C 398.32 351.60 393.42 356.06 388.42 360.39 Z" />
<path fill="#95b1d6" opacity="1.00" d=" M 159.21 283.51 C 165.71 272.34 169.76 259.99 173.46 247.67 C 174.63 264.45 173.57 281.30 171.75 297.99 C 171.26 300.21 170.43 302.34 169.54 304.43 C 165.75 313.07 163.94 322.55 164.01 331.98 C 163.94 337.69 166.25 343.10 169.08 347.94 C 172.58 353.97 178.02 358.72 180.75 365.23 C 183.90 372.53 185.50 380.71 184.49 388.64 C 183.36 388.12 182.24 387.58 181.12 387.05 C 175.13 381.19 172.23 373.07 169.46 365.36 C 166.88 357.93 162.61 351.25 157.94 344.97 C 154.49 340.23 150.75 335.20 150.39 329.11 C 148.89 313.58 150.73 296.95 159.21 283.51 Z" />
<path fill="#95b1d6" opacity="1.00" d=" M 320.52 247.43 C 324.30 260.49 328.71 273.54 335.80 285.23 C 342.18 295.94 344.07 308.69 344.10 320.98 C 343.90 326.68 343.91 332.80 340.83 337.84 C 337.44 343.64 332.94 348.70 329.62 354.54 C 323.20 364.95 321.98 378.29 312.87 387.05 C 311.78 387.59 310.69 388.13 309.60 388.67 C 308.11 376.96 311.77 364.47 319.53 355.50 C 325.17 348.55 330.29 340.21 329.99 330.95 C 329.85 320.88 327.80 310.65 323.08 301.71 C 322.73 303.17 322.39 304.65 322.11 306.14 C 322.04 303.10 322.49 300.07 322.11 297.05 C 320.41 280.58 319.36 263.98 320.52 247.43 Z" />
<path fill="#95b1d6" opacity="1.00" d=" M 7.96 339.75 C 16.07 345.03 22.18 352.98 26.14 361.74 C 28.85 367.67 32.50 373.98 38.90 376.46 C 43.16 377.85 48.43 378.25 51.86 374.82 C 56.87 370.45 64.41 368.04 70.61 371.34 C 76.10 374.26 77.81 380.63 79.79 386.03 C 78.99 391.03 80.00 396.04 80.80 400.97 C 82.43 409.28 84.87 418.71 92.42 423.61 C 102.18 428.61 113.82 425.92 123.87 430.01 C 129.45 432.15 133.99 436.39 137.26 441.32 C 131.04 442.22 126.01 437.30 119.81 437.96 C 121.58 439.26 123.41 440.49 125.12 441.88 C 128.73 444.73 130.10 449.50 133.68 452.38 C 136.48 452.48 139.16 451.27 141.96 451.10 C 148.43 450.57 155.32 451.46 160.85 455.09 C 167.33 459.26 173.87 463.37 179.94 468.14 C 181.68 473.64 182.67 479.34 182.94 485.11 C 177.09 474.22 165.72 467.51 154.29 463.78 C 144.06 460.25 132.96 460.78 122.76 457.16 C 110.42 453.18 99.19 444.39 94.22 432.17 C 84.37 436.18 73.65 437.84 63.05 437.66 C 55.88 437.46 49.48 433.30 44.95 427.98 C 37.98 419.89 34.00 409.81 30.14 400.00 C 37.43 408.84 47.10 416.03 58.31 418.94 C 51.26 413.80 44.64 405.61 46.99 396.30 C 39.84 395.69 32.47 393.73 26.98 388.86 C 22.05 384.67 19.39 378.32 18.88 371.95 C 17.93 360.59 15.46 348.72 7.96 339.75 Z" />
<path fill="#95b1d6" opacity="1.00" d=" M 467.84 361.76 C 471.81 352.95 477.98 345.01 486.11 339.68 C 478.79 348.36 476.17 359.88 475.22 370.94 C 474.79 377.63 472.24 384.44 467.03 388.86 C 461.53 393.71 454.17 395.69 447.01 396.30 C 449.32 405.60 442.74 413.82 435.68 418.94 C 446.88 416.08 456.50 408.88 463.81 400.08 C 459.98 409.90 455.96 419.96 449.00 428.04 C 444.49 433.33 438.09 437.43 430.97 437.65 C 420.36 437.84 409.63 436.19 399.78 432.17 C 394.50 445.14 382.26 454.17 369.04 457.88 C 359.68 460.68 349.70 460.46 340.43 463.59 C 328.72 467.22 317.05 474.02 311.06 485.10 C 311.14 479.50 312.64 474.13 313.50 468.64 L 313.69 468.16 C 317.26 465.99 320.44 463.20 324.02 461.02 C 330.12 457.28 335.85 452.17 343.26 451.39 C 348.85 450.30 354.44 451.40 359.91 452.50 C 362.73 450.78 364.09 447.56 366.03 445.01 C 368.05 441.95 371.31 440.13 374.16 437.97 C 367.97 437.18 362.98 442.31 356.77 441.25 C 360.55 435.42 366.31 430.78 373.10 429.02 C 382.43 426.33 392.79 428.14 401.60 423.59 C 409.18 418.71 411.52 409.22 413.19 400.93 C 414.00 396.03 414.98 391.04 414.20 386.07 C 415.79 382.13 416.72 377.78 419.60 374.50 C 422.26 371.08 426.73 369.47 430.98 369.85 C 435.77 370.05 439.74 372.95 443.40 375.74 C 446.48 378.31 450.87 377.52 454.46 376.68 C 461.21 374.44 465.05 367.86 467.84 361.76 Z" />
<path fill="#95b1d6" opacity="1.00" d=" M 154.54 354.91 C 157.51 362.08 160.91 369.10 165.52 375.38 C 165.71 375.05 166.09 374.39 166.28 374.05 C 166.78 374.84 167.15 375.69 167.37 376.59 C 166.44 380.46 168.01 384.24 169.20 387.86 C 170.91 392.96 173.90 397.48 176.22 402.31 C 162.13 390.80 157.02 372.20 154.54 354.91 Z" />
<path fill="#95b1d6" opacity="1.00" d=" M 328.47 375.38 C 333.10 369.12 336.46 362.09 339.45 354.93 C 336.95 372.19 331.87 390.78 317.81 402.28 C 320.22 397.22 323.35 392.49 325.05 387.11 C 326.11 383.72 327.69 380.11 326.51 376.53 C 326.94 375.70 327.34 374.86 327.70 374.00 C 327.90 374.35 328.28 375.03 328.47 375.38 Z" />
</g>
<g id="#c3cbd6ff">
<path fill="#c3cbd6" opacity="1.00" d=" M 187.00 121.83 C 190.63 125.30 193.38 129.60 197.24 132.85 C 200.30 135.46 204.43 136.74 206.90 140.05 C 210.96 145.31 213.39 151.64 214.82 158.09 C 216.58 166.04 219.39 173.73 222.57 181.21 C 220.02 193.66 218.12 206.26 217.14 218.92 C 215.96 233.53 218.70 248.09 222.42 262.15 C 219.50 257.94 216.63 253.68 214.00 249.28 C 213.05 246.89 212.15 244.49 211.24 242.10 C 211.11 242.47 210.85 243.21 210.72 243.58 C 208.42 240.07 206.88 236.11 204.27 232.80 C 199.43 226.49 193.25 221.32 186.63 216.98 C 186.76 216.68 187.01 216.08 187.14 215.78 C 191.51 211.61 194.22 206.10 196.61 200.64 C 201.76 188.16 203.94 174.49 203.34 161.02 C 202.96 153.93 201.86 146.38 197.29 140.66 C 192.91 134.98 188.99 128.78 187.00 121.83 Z" />
<path fill="#c3cbd6" opacity="1.00" d=" M 296.23 133.27 C 300.39 130.06 303.19 125.52 306.95 121.91 C 304.96 128.85 301.05 135.03 296.66 140.68 C 293.37 144.76 291.91 149.92 291.21 155.02 C 289.34 169.66 291.41 184.74 296.50 198.56 C 299.15 204.68 301.73 211.25 306.94 215.69 C 307.06 216.64 306.75 217.38 306.00 217.89 C 299.75 222.22 293.85 227.22 289.31 233.36 C 286.86 236.62 285.42 240.49 283.10 243.84 C 282.86 242.56 282.64 241.28 282.43 240.00 C 281.57 243.65 280.34 247.20 279.01 250.71 C 276.78 254.71 274.10 258.43 271.56 262.23 C 275.28 248.16 278.03 233.59 276.85 218.97 C 275.88 206.28 273.98 193.66 271.42 181.20 C 274.60 173.72 277.35 166.03 279.15 158.09 C 280.63 151.65 283.04 145.30 287.10 140.03 C 289.43 136.91 293.25 135.60 296.23 133.27 Z" />
<path fill="#c3cbd6" opacity="1.00" d=" M 75.93 132.69 C 77.76 136.41 79.13 140.32 80.79 144.11 C 86.06 156.33 93.62 167.60 103.24 176.82 C 107.37 180.68 111.90 184.30 117.09 186.62 C 124.04 188.51 130.20 193.19 133.85 199.39 C 134.37 204.18 135.81 209.09 134.22 213.84 C 131.38 209.15 127.20 205.44 122.42 202.79 C 111.92 193.90 97.95 189.80 88.54 179.47 C 81.35 171.39 78.90 160.43 77.17 150.06 C 76.35 144.31 75.36 138.51 75.93 132.69 Z" />
<path fill="#c3cbd6" opacity="1.00" d=" M 413.83 142.70 C 415.37 139.42 416.10 135.75 418.18 132.74 C 418.50 138.18 417.76 143.60 416.98 148.97 C 415.35 159.03 413.13 169.55 406.85 177.84 C 397.58 189.33 382.61 193.48 371.58 202.78 C 366.81 205.43 362.64 209.14 359.78 213.82 C 358.11 209.06 359.68 204.11 360.19 199.30 C 363.22 194.20 368.00 190.09 373.49 187.85 C 375.34 187.42 377.26 187.05 378.84 185.91 C 394.98 176.00 406.51 159.93 413.83 142.70 Z" />
<path fill="#c3cbd6" opacity="1.00" d=" M 92.93 146.03 C 98.39 148.77 103.37 152.38 109.00 154.79 C 115.27 157.78 122.32 158.92 128.21 162.73 C 137.91 168.47 145.54 178.24 147.28 189.53 C 147.39 191.25 147.91 192.90 148.49 194.51 C 147.81 195.66 147.14 196.82 146.47 197.98 C 142.87 187.84 133.57 181.54 124.71 176.32 C 118.10 172.33 110.69 169.35 105.23 163.70 C 100.23 158.53 95.79 152.67 92.93 146.03 Z" />
<path fill="#c3cbd6" opacity="1.00" d=" M 382.78 155.76 C 389.26 153.22 395.01 149.24 401.11 145.95 C 396.31 156.36 388.63 165.89 378.33 171.26 C 370.14 175.86 361.60 180.23 354.78 186.81 C 351.47 189.93 349.31 193.97 347.35 198.02 C 346.73 196.84 346.11 195.67 345.50 194.50 C 346.08 192.91 346.57 191.27 346.72 189.58 C 348.41 178.30 356.01 168.49 365.70 162.76 C 370.92 159.38 377.10 158.14 382.78 155.76 Z" />
<path fill="#c3cbd6" opacity="1.00" d=" M 77.31 179.87 C 80.81 188.68 83.69 197.92 89.31 205.69 C 91.88 209.12 95.47 211.56 99.10 213.73 C 98.84 214.05 98.32 214.68 98.06 214.99 C 99.06 214.80 100.06 214.62 101.05 214.44 C 106.98 219.28 114.37 221.87 120.29 226.70 C 112.15 229.60 102.61 230.06 95.23 224.92 C 94.95 224.75 94.39 224.42 94.11 224.25 C 91.16 219.75 87.66 215.59 85.33 210.70 C 80.50 201.14 77.83 190.55 77.31 179.87 Z" />
<path fill="#c3cbd6" opacity="1.00" d=" M 405.19 205.06 C 410.04 197.90 412.86 189.66 416.06 181.70 C 416.46 190.54 413.63 199.21 410.28 207.28 C 407.77 213.51 403.59 218.77 399.87 224.29 C 399.60 224.45 399.04 224.77 398.77 224.93 C 391.40 230.01 381.86 229.67 373.77 226.62 C 379.77 221.97 387.04 219.29 392.90 214.43 C 393.91 214.62 394.92 214.80 395.94 215.00 C 395.68 214.69 395.18 214.07 394.93 213.77 C 398.76 211.41 402.57 208.79 405.19 205.06 Z" />
<path fill="#c3cbd6" opacity="1.00" d=" M 140.09 217.89 C 149.83 228.85 159.05 242.03 159.48 257.24 C 155.41 270.11 149.02 282.09 143.68 294.45 C 142.65 297.17 141.23 299.93 141.46 302.92 C 141.92 308.34 143.70 313.52 145.01 318.77 C 139.16 312.66 134.83 305.12 132.74 296.91 C 130.26 288.37 130.14 279.41 129.95 270.60 C 131.48 265.15 132.97 259.62 135.69 254.62 C 138.24 249.18 142.30 244.34 143.48 238.34 C 144.31 231.33 141.64 224.61 140.09 217.89 Z" />
<path fill="#c3cbd6" opacity="1.00" d=" M 334.54 257.35 C 334.78 242.05 344.20 228.95 353.87 217.89 C 352.35 224.62 349.70 231.36 350.51 238.37 C 351.54 243.91 355.20 248.41 357.64 253.36 C 360.70 258.72 362.40 264.69 364.05 270.60 C 364.31 287.60 361.62 306.23 349.00 318.76 C 350.41 311.68 354.39 304.17 351.34 297.01 C 345.96 283.70 338.86 271.07 334.54 257.35 Z" />
<path fill="#c3cbd6" opacity="1.00" d=" M 66.16 289.80 C 69.44 296.45 72.31 304.04 78.93 308.11 C 84.11 311.17 90.10 308.18 95.02 306.02 C 102.18 302.48 111.51 302.98 117.58 308.47 C 126.44 316.21 129.38 328.21 131.89 339.23 C 133.09 350.43 134.94 361.80 139.56 372.16 C 144.19 382.63 153.17 390.16 159.32 399.63 C 162.20 403.93 163.02 409.12 163.87 414.12 C 165.54 423.92 170.39 432.73 175.15 441.32 C 164.73 433.37 154.89 424.66 145.56 415.45 C 141.63 411.54 136.32 409.50 131.05 408.16 C 124.54 406.59 117.86 405.72 111.16 405.77 C 113.21 385.21 111.83 364.30 106.71 344.27 C 104.71 337.44 102.14 330.25 96.58 325.49 C 91.63 321.39 84.79 323.17 78.97 321.86 C 73.77 321.12 69.31 317.29 67.72 312.30 C 65.37 305.08 65.41 297.29 66.16 289.80 Z" />
<path fill="#c3cbd6" opacity="1.00" d=" M 414.38 308.50 C 421.42 304.55 424.48 296.62 427.83 289.73 C 428.54 296.47 428.52 303.37 426.96 309.99 C 426.03 314.04 423.82 318.06 420.03 320.08 C 414.55 323.20 408.01 321.98 402.07 323.17 C 396.76 324.52 393.34 329.36 391.05 334.02 C 386.35 344.02 384.73 355.09 383.25 365.94 C 381.39 379.14 381.70 392.53 382.82 405.77 C 373.78 405.83 364.57 407.02 356.14 410.43 C 350.30 412.68 346.36 417.72 341.86 421.81 C 334.48 428.64 326.90 435.28 318.85 441.31 C 323.03 433.74 327.31 426.05 329.39 417.58 C 330.78 412.02 330.91 406.02 333.89 400.97 C 338.34 393.32 345.02 387.30 349.94 379.98 C 358.21 368.09 360.47 353.33 362.11 339.28 C 364.56 328.43 367.42 316.74 375.89 308.90 C 381.97 303.13 391.55 302.32 398.92 306.00 C 403.65 308.12 409.24 310.84 414.38 308.50 Z" />
<path fill="#c3cbd6" opacity="1.00" d=" M 169.54 304.43 C 170.43 302.34 171.26 300.21 171.75 297.99 C 171.78 313.35 174.20 330.17 184.85 342.04 C 187.61 345.42 190.13 349.04 192.02 352.99 C 195.79 361.01 194.99 370.29 198.72 378.31 C 200.37 382.12 202.81 385.52 205.45 388.71 C 205.63 378.01 206.11 367.30 207.35 356.66 C 211.75 365.46 216.93 374.04 224.02 380.97 C 224.72 381.64 225.43 382.31 226.15 382.98 C 225.73 393.75 229.80 405.30 239.28 411.21 C 238.24 417.19 236.99 423.40 238.50 429.42 C 239.75 433.98 242.85 437.92 247.01 440.19 C 251.57 437.68 254.90 433.12 255.80 427.98 C 256.69 422.52 255.92 416.94 254.57 411.63 C 263.71 405.34 268.47 394.19 267.73 383.24 L 267.73 383.03 C 268.49 382.35 269.24 381.67 269.97 380.97 C 277.05 374.06 282.22 365.48 286.63 356.69 C 287.90 367.27 288.34 377.94 288.55 388.59 C 293.49 383.15 296.87 376.31 298.02 369.04 C 298.94 363.41 299.75 357.69 302.20 352.48 C 304.87 346.96 308.99 342.38 312.67 337.55 C 319.00 328.36 320.95 317.02 322.11 306.14 C 322.39 304.65 322.73 303.17 323.08 301.71 C 327.80 310.65 329.85 320.88 329.99 330.95 C 330.29 340.21 325.17 348.55 319.53 355.50 C 311.77 364.47 308.11 376.96 309.60 388.67 C 310.69 388.13 311.78 387.59 312.87 387.05 C 318.33 384.95 322.89 381.06 326.51 376.53 C 327.69 380.11 326.11 383.72 325.05 387.11 C 323.35 392.49 320.22 397.22 317.81 402.28 C 306.75 414.05 290.72 419.21 279.03 430.21 C 286.99 429.76 295.64 428.30 301.67 422.64 C 308.72 415.84 316.47 409.83 324.22 403.87 C 321.25 411.41 318.31 419.01 316.63 426.97 C 315.57 431.81 313.66 437.22 308.93 439.60 C 304.39 442.12 299.01 440.96 294.15 442.22 C 287.95 443.82 282.30 447.03 277.19 450.85 C 281.07 451.27 285.21 451.23 288.73 453.16 C 291.20 454.30 290.96 458.58 294.10 458.56 C 297.13 456.33 298.10 452.30 299.86 449.11 C 299.52 453.96 299.38 459.03 297.30 463.53 C 296.66 464.71 295.60 466.15 294.07 465.99 C 288.68 466.12 285.65 459.50 280.08 460.53 C 276.43 462.17 273.78 465.32 270.87 467.97 C 264.93 473.58 259.34 479.89 251.93 483.60 C 248.68 485.35 244.69 485.14 241.51 483.34 C 234.36 479.51 228.88 473.37 223.04 467.88 C 220.16 465.27 217.55 462.17 213.95 460.54 C 207.92 459.25 204.37 467.83 198.37 465.55 C 194.33 461.47 194.72 454.96 194.20 449.63 C 196.14 452.54 196.92 456.42 199.84 458.56 C 203.00 458.63 202.80 454.35 205.24 453.16 C 208.74 451.25 212.86 451.25 216.73 450.88 C 211.10 446.49 204.57 442.90 197.45 441.77 C 192.69 441.25 187.39 441.72 183.40 438.55 C 179.18 435.33 178.01 429.84 176.89 424.96 C 175.18 417.70 172.48 410.73 169.74 403.82 C 177.31 409.68 184.91 415.54 191.83 422.18 C 197.87 428.16 206.79 429.77 214.97 430.21 C 203.29 419.22 187.29 414.04 176.22 402.31 C 173.90 397.48 170.91 392.96 169.20 387.86 C 168.01 384.24 166.44 380.46 167.37 376.59 C 171.20 380.94 175.60 384.99 181.12 387.05 C 182.24 387.58 183.36 388.12 184.49 388.64 C 185.50 380.71 183.90 372.53 180.75 365.23 C 178.02 358.72 172.58 353.97 169.08 347.94 C 166.25 343.10 163.94 337.69 164.01 331.98 C 163.94 322.55 165.75 313.07 169.54 304.43 M 211.20 375.41 C 209.74 382.97 208.07 391.11 210.52 398.63 C 211.24 401.38 215.77 403.43 217.28 400.27 C 219.03 396.10 218.62 391.43 218.70 387.01 C 218.84 382.01 215.27 377.85 211.20 375.41 M 276.60 381.62 C 274.56 385.43 275.40 389.92 275.43 394.05 C 275.74 396.69 275.64 400.27 278.26 401.79 C 281.22 402.46 283.51 399.73 283.99 397.08 C 285.60 389.93 284.20 382.54 282.85 375.47 C 280.29 376.94 277.97 378.96 276.60 381.62 M 216.87 407.49 C 216.94 411.98 216.51 416.52 217.11 421.00 C 218.27 425.44 222.35 428.26 226.22 430.25 C 226.16 425.81 226.54 421.34 226.02 416.92 C 224.95 412.37 220.80 409.49 216.87 407.49 M 268.24 415.93 C 267.22 420.61 267.93 425.48 267.78 430.24 C 271.65 428.25 275.74 425.45 276.88 420.99 C 277.49 416.52 277.05 411.98 277.13 407.49 C 273.46 409.35 269.73 411.91 268.24 415.93 M 226.31 443.94 C 227.08 447.68 229.29 450.93 231.43 454.02 C 232.86 453.87 232.82 452.19 233.22 451.16 C 234.55 446.04 232.95 440.81 231.88 435.80 C 229.40 437.92 226.10 440.29 226.31 443.94 M 262.11 435.81 C 261.02 440.79 259.48 446.00 260.77 451.10 C 261.15 452.16 261.17 453.75 262.52 454.11 C 264.67 450.99 266.89 447.71 267.68 443.95 C 267.88 440.30 264.60 437.92 262.11 435.81 M 231.94 465.97 C 232.87 469.36 236.15 471.47 239.53 471.78 C 239.26 467.86 238.76 463.93 237.42 460.22 C 235.12 461.49 232.16 462.99 231.94 465.97 M 254.51 471.81 C 257.88 471.41 261.18 469.33 262.08 465.91 C 261.73 462.97 258.89 461.46 256.56 460.23 C 255.23 463.95 254.73 467.88 254.51 471.81 Z" />
<path fill="#c3cbd6" opacity="1.00" d=" M 80.80 400.97 C 80.00 396.04 78.99 391.03 79.79 386.03 C 84.86 394.92 90.05 404.51 98.95 410.12 C 106.17 414.74 115.04 412.81 123.10 413.36 C 133.76 414.29 142.81 421.37 148.78 429.90 C 150.66 434.23 151.15 439.19 154.08 443.01 C 157.53 447.73 162.64 450.93 168.05 452.94 C 172.79 454.68 176.86 457.69 181.20 460.18 C 179.31 455.56 175.29 452.49 171.87 449.06 C 174.26 449.70 176.66 450.31 179.00 451.10 C 186.55 456.54 192.04 464.23 198.84 470.52 C 201.03 474.44 203.79 478.07 205.28 482.35 C 201.57 479.63 198.32 476.32 194.44 473.82 C 194.93 476.36 195.42 478.91 195.85 481.47 C 194.33 481.04 192.58 480.87 191.59 479.48 C 187.99 475.43 184.21 471.50 179.94 468.14 C 173.87 463.37 167.33 459.26 160.85 455.09 C 155.32 451.46 148.43 450.57 141.96 451.10 C 139.16 451.27 136.48 452.48 133.68 452.38 C 130.10 449.50 128.73 444.73 125.12 441.88 C 123.41 440.49 121.58 439.26 119.81 437.96 C 126.01 437.30 131.04 442.22 137.26 441.32 C 133.99 436.39 129.45 432.15 123.87 430.01 C 113.82 425.92 102.18 428.61 92.42 423.61 C 84.87 418.71 82.43 409.28 80.80 400.97 Z" />
<path fill="#c3cbd6" opacity="1.00" d=" M 401.67 404.64 C 406.76 399.13 410.57 392.59 414.20 386.07 C 414.98 391.04 414.00 396.03 413.19 400.93 C 411.52 409.22 409.18 418.71 401.60 423.59 C 392.79 428.14 382.43 426.33 373.10 429.02 C 366.31 430.78 360.55 435.42 356.77 441.25 C 362.98 442.31 367.97 437.18 374.16 437.97 C 371.31 440.13 368.05 441.95 366.03 445.01 C 364.09 447.56 362.73 450.78 359.91 452.50 C 354.44 451.40 348.85 450.30 343.26 451.39 C 335.85 452.17 330.12 457.28 324.02 461.02 C 320.44 463.20 317.26 465.99 313.69 468.16 L 313.50 468.64 C 309.43 471.87 305.82 475.61 302.39 479.50 C 301.39 480.88 299.62 481.03 298.12 481.48 C 298.56 478.92 299.06 476.36 299.55 473.82 C 295.67 476.36 292.35 479.61 288.70 482.45 C 290.14 478.12 292.93 474.48 295.14 470.55 C 301.97 464.25 307.46 456.50 315.06 451.07 C 317.39 450.30 319.77 449.68 322.15 449.04 C 318.73 452.47 314.69 455.54 312.82 460.17 C 317.15 457.72 321.19 454.69 325.90 452.96 C 331.32 450.94 336.46 447.75 339.91 443.02 C 342.82 439.21 343.33 434.30 345.15 429.99 C 350.28 422.71 357.42 416.49 366.19 414.19 C 373.83 412.05 381.91 414.44 389.58 412.45 C 394.33 411.23 398.39 408.20 401.67 404.64 Z" />
</g>
<g id="#483730ff">
<path fill="#483730" opacity="1.00" d=" M 149.14 162.69 C 152.88 166.88 155.89 171.71 158.23 176.81 C 159.99 180.62 160.85 184.98 159.73 189.11 C 158.06 196.23 154.72 202.86 150.95 209.09 C 150.44 204.19 150.26 199.16 148.49 194.51 C 147.91 192.90 147.39 191.25 147.28 189.53 C 150.98 181.13 150.66 171.57 149.14 162.69 Z" />
<path fill="#483730" opacity="1.00" d=" M 246.61 163.22 C 246.80 163.20 247.18 163.18 247.36 163.16 C 249.11 167.14 250.88 171.13 252.46 175.19 C 251.27 178.68 248.71 181.61 247.00 184.89 C 245.28 181.61 242.75 178.66 241.54 175.18 C 243.12 171.15 244.86 167.18 246.61 163.22 Z" />
<path fill="#483730" opacity="1.00" d=" M 334.48 190.05 C 331.63 179.64 339.00 170.25 344.90 162.45 C 343.30 171.41 342.98 181.08 346.72 189.58 C 346.57 191.27 346.08 192.91 345.50 194.50 C 343.73 199.12 343.55 204.13 343.06 209.00 C 339.27 203.18 336.31 196.75 334.48 190.05 Z" />
<path fill="#483730" opacity="1.00" d=" M 169.79 173.87 C 172.42 176.79 174.76 179.96 177.22 183.02 C 175.38 184.81 173.79 186.91 171.50 188.17 C 170.94 183.40 170.28 178.65 169.79 173.87 Z" />
<path fill="#483730" opacity="1.00" d=" M 316.80 183.00 C 319.27 179.89 321.72 176.77 324.25 173.71 C 323.69 178.59 323.08 183.45 322.44 188.32 C 320.35 186.78 318.60 184.86 316.80 183.00 Z" />
<path fill="#483730" opacity="1.00" d=" M 117.09 186.62 C 121.49 185.23 126.54 183.87 130.88 186.18 C 137.03 189.29 142.92 194.34 144.83 201.19 C 145.32 205.62 145.59 210.24 144.75 214.63 C 142.23 215.29 138.30 215.95 137.04 212.94 C 135.08 208.65 136.62 203.44 133.85 199.39 C 130.20 193.19 124.04 188.51 117.09 186.62 Z" />
<path fill="#483730" opacity="1.00" d=" M 363.81 185.87 C 367.97 183.95 372.60 185.50 376.84 186.30 C 375.72 186.82 374.61 187.34 373.49 187.85 C 368.00 190.09 363.22 194.20 360.19 199.30 C 357.19 203.55 359.16 209.24 356.56 213.60 C 354.93 216.10 351.55 214.75 349.11 214.88 C 348.89 208.71 347.58 201.75 351.30 196.32 C 354.37 191.76 358.79 188.10 363.81 185.87 Z" />
<path fill="#483730" opacity="1.00" d=" M 246.74 191.28 C 246.87 191.28 247.12 191.27 247.25 191.27 C 249.77 197.23 251.97 203.32 254.54 209.26 C 252.17 213.70 249.65 218.08 247.06 222.40 C 244.27 218.17 241.90 213.69 239.46 209.27 C 242.02 203.32 244.23 197.24 246.74 191.28 Z" />
<path fill="#483730" opacity="1.00" d=" M 177.25 194.36 C 180.38 198.15 183.65 201.85 186.64 205.76 C 183.46 207.53 180.38 209.46 177.25 211.31 C 177.23 205.66 177.23 200.01 177.25 194.36 Z" />
<path fill="#483730" opacity="1.00" d=" M 307.37 205.67 C 310.45 201.87 313.61 198.13 316.76 194.37 C 316.76 200.00 316.76 205.64 316.76 211.28 C 313.63 209.40 310.52 207.50 307.37 205.67 Z" />
<path fill="#483730" opacity="1.00" d=" M 99.10 213.73 C 104.62 206.93 112.93 199.31 122.42 202.79 C 127.20 205.44 131.38 209.15 134.22 213.84 C 136.13 217.57 136.16 221.99 135.15 225.98 C 134.22 229.25 129.94 228.47 127.65 227.23 C 122.91 224.88 121.79 219.17 118.13 215.78 C 113.16 212.32 106.63 213.40 101.05 214.44 C 100.06 214.62 99.06 214.80 98.06 214.99 C 98.32 214.68 98.84 214.05 99.10 213.73 Z" />
<path fill="#483730" opacity="1.00" d=" M 371.58 202.78 C 374.74 202.04 378.15 201.40 381.27 202.68 C 386.81 204.90 391.19 209.23 394.93 213.77 C 395.18 214.07 395.68 214.69 395.94 215.00 C 394.92 214.80 393.91 214.62 392.90 214.43 C 387.13 213.38 380.09 212.17 375.24 216.32 C 372.16 219.87 370.75 225.00 366.30 227.25 C 364.04 228.43 359.95 229.23 358.88 226.13 C 357.83 222.10 357.84 217.60 359.78 213.82 C 362.64 209.14 366.81 205.43 371.58 202.78 Z" />
<path fill="#483730" opacity="1.00" d=" M 224.17 205.74 C 225.79 210.09 227.55 214.45 230.68 217.98 C 229.54 219.71 227.24 221.33 225.21 219.93 C 222.12 215.94 222.12 210.22 224.17 205.74 Z" />
<path fill="#483730" opacity="1.00" d=" M 269.67 205.78 C 272.05 210.12 271.78 215.92 268.82 219.90 C 266.78 221.35 264.46 219.73 263.30 217.99 C 266.35 214.47 268.32 210.21 269.67 205.78 Z" />
<path fill="#483730" opacity="1.00" d=" M 182.69 221.57 C 185.34 252.40 190.37 283.49 202.83 312.04 C 212.09 334.26 219.21 357.38 224.02 380.97 C 216.93 374.04 211.75 365.46 207.35 356.66 C 206.11 367.30 205.63 378.01 205.45 388.71 C 202.81 385.52 200.37 382.12 198.72 378.31 C 194.99 370.29 195.79 361.01 192.02 352.99 C 191.06 349.10 190.94 345.06 190.33 341.11 C 187.40 317.65 182.07 294.56 179.27 271.08 C 177.76 254.53 179.97 237.89 182.69 221.57 Z" />
<path fill="#483730" opacity="1.00" d=" M 310.21 232.50 C 310.60 228.86 310.62 225.18 311.34 221.59 C 314.43 240.54 316.92 260.00 313.72 279.12 C 309.96 303.58 304.95 327.86 302.20 352.48 C 299.75 357.69 298.94 363.41 298.02 369.04 C 296.87 376.31 293.49 383.15 288.55 388.59 C 288.34 377.94 287.90 367.27 286.63 356.69 C 282.22 365.48 277.05 374.06 269.97 380.97 C 273.61 362.94 278.70 345.21 285.00 327.93 C 288.74 316.94 293.90 306.50 297.50 295.46 C 304.25 275.08 308.07 253.83 310.21 232.50 Z" />
<path fill="#483730" opacity="1.00" d=" M 227.45 236.94 C 227.09 233.53 227.48 230.09 228.20 226.75 C 229.44 231.37 231.80 235.53 234.81 239.21 C 235.13 241.63 231.80 242.08 230.12 241.33 C 228.21 240.76 227.67 238.67 227.45 236.94 Z" />
<path fill="#483730" opacity="1.00" d=" M 265.78 226.80 C 266.62 230.77 267.20 235.02 266.08 238.99 C 265.34 241.76 261.40 242.46 259.39 240.66 C 258.59 238.87 260.47 237.69 261.28 236.35 C 263.54 233.58 264.63 230.12 265.78 226.80 Z" />
<path fill="#483730" opacity="1.00" d=" M 235.62 262.23 C 239.58 251.65 243.11 240.90 247.00 230.29 C 250.89 240.90 254.41 251.64 258.38 262.22 C 254.54 267.83 250.88 273.57 247.00 279.15 C 243.13 273.57 239.48 267.82 235.62 262.23 Z" />
<path fill="#483730" opacity="1.00" d=" M 114.40 234.49 C 120.44 231.37 127.78 231.40 134.07 233.77 C 132.57 236.86 130.98 240.05 128.29 242.30 C 123.96 246.41 117.30 244.53 112.45 247.70 C 105.83 250.92 100.23 255.73 94.32 260.03 C 96.58 254.46 99.37 249.10 102.93 244.25 C 106.18 240.40 109.81 236.70 114.40 234.49 Z" />
<path fill="#483730" opacity="1.00" d=" M 359.93 233.77 C 364.56 231.99 369.71 231.60 374.56 232.64 C 381.39 234.29 387.01 239.05 391.16 244.56 C 394.82 249.29 397.52 254.69 399.70 260.24 C 393.99 255.59 388.14 251.03 381.54 247.70 C 378.02 245.70 373.95 245.44 370.06 244.72 C 364.94 243.28 362.01 238.30 359.93 233.77 Z" />
<path fill="#483730" opacity="1.00" d=" M 282.43 240.00 C 282.64 241.28 282.86 242.56 283.10 243.84 L 283.16 244.18 C 282.41 252.07 283.02 260.02 282.82 267.94 C 279.03 271.68 275.40 275.58 271.43 279.14 C 269.62 276.04 267.66 273.02 266.00 269.84 L 265.05 270.21 L 265.81 269.67 C 268.99 267.27 272.35 265.03 275.12 262.14 C 276.88 258.51 277.73 254.52 279.01 250.71 C 280.34 247.20 281.57 243.65 282.43 240.00 Z" />
<path fill="#483730" opacity="1.00" d=" M 210.72 243.58 C 210.85 243.21 211.11 242.47 211.24 242.10 C 212.15 244.49 213.05 246.89 214.00 249.28 C 214.94 253.05 216.24 256.72 217.44 260.42 C 218.57 265.98 224.49 268.13 228.24 271.68 C 226.21 274.70 224.48 277.91 222.60 281.03 C 218.60 277.52 215.12 273.48 211.18 269.91 C 210.89 261.15 211.77 252.29 210.72 243.58 Z" />
<path fill="#483730" opacity="1.00" d=" M 41.50 277.38 C 45.92 279.20 50.30 281.10 54.68 283.01 C 54.67 287.39 54.68 291.78 54.68 296.16 C 51.55 294.38 48.49 292.46 45.36 290.68 C 43.96 286.28 42.77 281.82 41.50 277.38 Z" />
<path fill="#483730" opacity="1.00" d=" M 439.31 283.08 C 443.69 281.14 448.11 279.29 452.50 277.39 C 451.22 281.84 450.03 286.32 448.62 290.73 C 445.50 292.51 442.47 294.44 439.33 296.18 C 439.31 291.81 439.33 287.44 439.31 283.08 Z" />
<path fill="#483730" opacity="1.00" d=" M 267.81 298.02 C 271.56 293.84 274.96 289.34 278.93 285.36 C 278.35 290.89 278.01 296.49 276.95 301.95 C 274.70 304.53 272.28 307.02 269.55 309.11 C 268.93 305.42 268.30 301.73 267.81 298.02 Z" />
<path fill="#483730" opacity="1.00" d=" M 81.09 286.82 C 83.55 290.01 86.32 292.97 88.52 296.35 C 88.76 298.17 88.61 300.03 88.61 301.87 C 86.10 300.61 83.59 299.35 81.08 298.10 C 81.08 294.34 81.07 290.58 81.09 286.82 Z" />
<path fill="#483730" opacity="1.00" d=" M 215.08 286.93 C 218.80 291.26 222.51 295.59 226.21 299.93 C 225.68 303.64 225.08 307.34 224.38 311.03 C 221.77 308.81 219.26 306.44 217.06 303.81 C 215.87 298.29 215.67 292.56 215.08 286.93 Z" />
<path fill="#483730" opacity="1.00" d=" M 405.36 296.31 C 407.84 293.13 410.36 289.98 412.89 286.85 C 412.94 290.58 412.90 294.31 412.95 298.04 C 410.48 299.41 407.94 300.65 405.38 301.86 C 405.38 300.01 405.37 298.16 405.36 296.31 Z" />
<path fill="#483730" opacity="1.00" d=" M 237.60 315.04 C 240.75 307.02 243.63 298.89 246.99 290.96 C 250.39 298.88 253.25 307.03 256.40 315.06 C 253.46 319.24 250.56 323.46 247.50 327.55 C 247.28 327.60 246.84 327.70 246.62 327.75 C 243.56 323.55 240.55 319.31 237.60 315.04 Z" />
<path fill="#483730" opacity="1.00" d=" M 49.21 309.52 C 51.68 310.72 54.14 311.95 56.58 313.22 C 57.20 315.73 57.82 318.23 58.44 320.74 C 55.93 320.10 53.42 319.47 50.91 318.84 C 50.73 317.95 50.55 317.06 50.38 316.18 C 50.07 314.55 49.75 312.94 49.48 311.31 L 49.21 309.52 Z" />
<path fill="#483730" opacity="1.00" d=" M 437.41 313.26 C 439.93 311.98 442.45 310.71 444.98 309.45 C 444.83 310.19 444.53 311.66 444.38 312.39 C 444.12 313.64 443.86 314.89 443.63 316.15 C 443.44 317.06 443.26 317.98 443.09 318.89 C 440.58 319.52 438.07 320.13 435.57 320.73 C 436.17 318.23 436.79 315.75 437.41 313.26 Z" />
<path fill="#483730" opacity="1.00" d=" M 263.99 335.88 C 267.65 332.78 271.29 329.64 275.10 326.72 C 274.04 332.33 272.79 337.90 271.41 343.43 C 268.95 344.08 266.48 344.70 264.00 345.25 C 263.94 342.13 263.95 339.00 263.99 335.88 Z" />
<path fill="#483730" opacity="1.00" d=" M 67.99 328.35 C 72.37 330.18 76.74 332.05 81.08 333.97 C 81.72 336.49 82.35 339.01 82.94 341.54 C 80.45 341.53 77.95 341.53 75.46 341.54 C 72.94 337.16 70.38 332.80 67.99 328.35 Z" />
<path fill="#483730" opacity="1.00" d=" M 218.89 328.60 C 222.54 331.43 226.16 334.32 229.56 337.43 C 230.63 340.44 229.80 343.90 229.99 347.08 C 227.43 346.55 224.90 345.92 222.41 345.14 C 221.32 339.60 219.87 334.15 218.89 328.60 Z" />
<path fill="#483730" opacity="1.00" d=" M 412.92 333.96 C 417.28 332.11 421.66 330.28 425.99 328.35 C 423.64 332.81 421.04 337.13 418.57 341.52 C 416.06 341.53 413.55 341.53 411.05 341.54 C 411.65 339.00 412.28 336.48 412.92 333.96 Z" />
<path fill="#483730" opacity="1.00" d=" M 246.65 338.69 C 247.59 339.75 248.29 340.98 248.71 342.35 C 251.15 349.67 253.94 356.86 256.37 364.18 C 254.49 365.43 252.31 366.21 250.04 366.09 C 245.86 366.04 241.25 366.78 237.64 364.18 C 240.53 355.64 243.66 347.19 246.65 338.69 Z" />
<path fill="#483730" opacity="1.00" d=" M 90.61 347.36 C 95.71 351.56 100.58 356.03 105.58 360.36 C 105.58 362.87 105.59 365.39 105.59 367.91 C 102.44 367.31 99.29 366.67 96.15 366.02 C 94.31 359.79 92.38 353.60 90.61 347.36 Z" />
<path fill="#483730" opacity="1.00" d=" M 388.42 360.39 C 393.42 356.06 398.32 351.60 403.40 347.37 C 401.62 353.59 399.68 359.77 397.87 365.99 C 394.73 366.68 391.57 367.31 388.41 367.91 C 388.41 365.40 388.41 362.90 388.42 360.39 Z" />
<path fill="#483730" opacity="1.00" d=" M 213.00 481.18 C 216.13 479.61 219.39 477.31 223.09 478.22 C 228.47 479.38 233.48 482.87 236.16 487.72 C 238.43 492.05 236.63 497.54 232.49 500.00 L 232.29 500.00 C 231.83 497.56 231.80 494.87 230.25 492.81 C 228.08 489.85 224.71 488.14 221.36 486.88 C 218.10 485.76 215.25 483.77 213.00 481.18 Z" />
<path fill="#483730" opacity="1.00" d=" M 257.75 487.93 C 260.35 482.98 265.42 479.43 270.83 478.23 C 274.56 477.29 277.87 479.60 281.02 481.20 C 278.73 483.75 275.90 485.75 272.66 486.93 C 266.78 488.62 261.35 493.38 261.77 500.00 L 261.62 500.00 C 257.44 497.68 255.58 492.25 257.75 487.93 Z" />
<path fill="#483730" opacity="1.00" d=" M 204.60 486.09 C 204.39 484.28 205.05 481.69 207.07 481.25 C 211.19 481.56 215.02 483.81 216.64 487.73 C 216.74 489.63 217.71 491.81 216.46 493.55 C 215.08 495.35 213.11 496.57 211.39 498.01 C 211.41 495.63 212.17 493.09 211.29 490.80 C 209.27 487.99 205.58 487.42 202.45 486.67 C 203.82 488.57 204.68 491.30 203.33 493.46 C 201.94 495.31 199.93 496.56 198.16 498.01 C 198.20 495.47 199.18 492.60 197.76 490.29 C 195.82 488.26 192.96 487.51 190.33 486.83 C 191.23 484.74 191.75 480.75 194.95 481.63 C 197.43 482.17 201.55 482.66 201.41 486.05 C 202.47 486.06 203.53 486.07 204.60 486.09 Z" />
<path fill="#483730" opacity="1.00" d=" M 277.45 487.75 C 278.70 483.65 282.92 481.66 286.90 481.25 C 288.97 481.62 289.28 484.28 289.82 485.92 C 290.58 485.89 291.34 485.85 292.11 485.82 C 293.24 482.53 297.07 481.83 300.09 481.53 C 302.62 481.83 302.74 484.99 303.65 486.83 C 301.01 487.52 298.12 488.26 296.20 490.34 C 294.84 492.66 295.78 495.48 295.84 498.01 C 294.05 496.55 292.03 495.31 290.65 493.44 C 289.29 491.38 290.34 488.89 291.23 486.89 C 288.30 487.22 285.30 488.08 283.13 490.18 C 281.51 492.45 282.67 495.46 282.60 498.01 C 280.86 496.54 278.85 495.32 277.47 493.47 C 276.30 491.73 276.93 489.58 277.45 487.75 Z" />
</g>
<g id="#81767cff">
<path fill="#81767c" opacity="1.00" d=" M 228.24 271.68 C 230.57 268.43 233.32 265.50 235.62 262.23 C 239.48 267.82 243.13 273.57 247.00 279.15 C 250.88 273.57 254.54 267.83 258.38 262.22 C 260.72 264.83 263.30 267.22 265.81 269.67 L 265.05 270.21 L 266.00 269.84 C 267.66 273.02 269.62 276.04 271.43 279.14 C 275.40 275.58 279.03 271.68 282.82 267.94 C 283.76 267.94 285.64 267.94 286.58 267.94 C 285.34 274.21 284.07 280.48 282.83 286.75 C 285.34 286.17 287.84 285.57 290.35 284.95 C 285.32 295.01 280.27 305.06 275.27 315.13 C 278.43 313.90 281.57 312.64 284.69 311.34 C 280.98 322.02 277.21 332.67 273.52 343.35 C 272.59 345.95 271.98 348.87 269.82 350.80 C 265.30 355.22 260.90 359.76 256.37 364.18 C 253.94 356.86 251.15 349.67 248.71 342.35 C 248.29 340.98 247.59 339.75 246.65 338.69 C 243.66 347.19 240.53 355.64 237.64 364.18 C 232.63 358.94 227.08 354.16 222.45 348.60 C 217.85 336.27 213.71 323.75 209.31 311.34 C 212.44 312.58 215.57 313.83 218.70 315.06 C 213.71 305.00 208.63 294.97 203.66 284.90 C 206.17 285.51 208.67 286.14 211.17 286.78 C 209.93 280.47 208.61 274.18 207.44 267.85 C 208.70 268.51 209.94 269.20 211.18 269.91 C 215.12 273.48 218.60 277.52 222.60 281.03 C 224.48 277.91 226.21 274.70 228.24 271.68 M 267.81 298.02 C 268.30 301.73 268.93 305.42 269.55 309.11 C 272.28 307.02 274.70 304.53 276.95 301.95 C 278.01 296.49 278.35 290.89 278.93 285.36 C 274.96 289.34 271.56 293.84 267.81 298.02 M 215.08 286.93 C 215.67 292.56 215.87 298.29 217.06 303.81 C 219.26 306.44 221.77 308.81 224.38 311.03 C 225.08 307.34 225.68 303.64 226.21 299.93 C 222.51 295.59 218.80 291.26 215.08 286.93 M 237.60 315.04 C 240.55 319.31 243.56 323.55 246.62 327.75 C 246.84 327.70 247.28 327.60 247.50 327.55 C 250.56 323.46 253.46 319.24 256.40 315.06 C 253.25 307.03 250.39 298.88 246.99 290.96 C 243.63 298.89 240.75 307.02 237.60 315.04 M 263.99 335.88 C 263.95 339.00 263.94 342.13 264.00 345.25 C 266.48 344.70 268.95 344.08 271.41 343.43 C 272.79 337.90 274.04 332.33 275.10 326.72 C 271.29 329.64 267.65 332.78 263.99 335.88 M 218.89 328.60 C 219.87 334.15 221.32 339.60 222.41 345.14 C 224.90 345.92 227.43 346.55 229.99 347.08 C 229.80 343.90 230.63 340.44 229.56 337.43 C 226.16 334.32 222.54 331.43 218.89 328.60 Z" />
<path fill="#81767c" opacity="1.00" d=" M 235.85 388.63 C 240.36 387.70 243.61 384.03 247.00 381.18 C 250.39 384.03 253.63 387.71 258.15 388.63 C 262.00 388.46 264.78 385.34 267.73 383.24 C 268.47 394.19 263.71 405.34 254.57 411.63 C 255.92 416.94 256.69 422.52 255.80 427.98 C 254.90 433.12 251.57 437.68 247.01 440.19 C 242.85 437.92 239.75 433.98 238.50 429.42 C 236.99 423.40 238.24 417.19 239.28 411.21 C 229.80 405.30 225.73 393.75 226.15 382.98 C 229.02 385.31 231.93 388.42 235.85 388.63 Z" />
<path fill="#81767c" opacity="1.00" d=" M 148.78 429.90 C 157.50 438.84 169.63 443.01 179.00 451.10 C 176.66 450.31 174.26 449.70 171.87 449.06 C 175.29 452.49 179.31 455.56 181.20 460.18 C 176.86 457.69 172.79 454.68 168.05 452.94 C 162.64 450.93 157.53 447.73 154.08 443.01 C 151.15 439.19 150.66 434.23 148.78 429.90 Z" />
<path fill="#81767c" opacity="1.00" d=" M 315.06 451.07 C 324.40 443.03 336.47 438.90 345.15 429.99 C 343.33 434.30 342.82 439.21 339.91 443.02 C 336.46 447.75 331.32 450.94 325.90 452.96 C 321.19 454.69 317.15 457.72 312.82 460.17 C 314.69 455.54 318.73 452.47 322.15 449.04 C 319.77 449.68 317.39 450.30 315.06 451.07 Z" />
<path fill="#81767c" opacity="1.00" d=" M 179.94 468.14 C 184.21 471.50 187.99 475.43 191.59 479.48 C 192.58 480.87 194.33 481.04 195.85 481.47 C 195.42 478.91 194.93 476.36 194.44 473.82 C 198.32 476.32 201.57 479.63 205.28 482.35 C 203.79 478.07 201.03 474.44 198.84 470.52 C 203.24 474.50 208.19 477.75 213.00 481.18 C 215.25 483.77 218.10 485.76 221.36 486.88 C 220.25 486.89 218.03 486.90 216.92 486.91 C 216.85 487.12 216.71 487.53 216.64 487.73 C 215.02 483.81 211.19 481.56 207.07 481.25 C 205.05 481.69 204.39 484.28 204.60 486.09 C 203.53 486.07 202.47 486.06 201.41 486.05 C 201.55 482.66 197.43 482.17 194.95 481.63 C 191.75 480.75 191.23 484.74 190.33 486.83 C 187.93 486.31 184.06 488.08 182.94 485.11 C 182.67 479.34 181.68 473.64 179.94 468.14 Z" />
<path fill="#81767c" opacity="1.00" d=" M 302.39 479.50 C 305.82 475.61 309.43 471.87 313.50 468.64 C 312.64 474.13 311.14 479.50 311.06 485.10 C 309.95 488.10 306.06 486.29 303.65 486.83 C 302.74 484.99 302.62 481.83 300.09 481.53 C 297.07 481.83 293.24 482.53 292.11 485.82 C 291.34 485.85 290.58 485.89 289.82 485.92 C 289.28 484.28 288.97 481.62 286.90 481.25 C 282.92 481.66 278.70 483.65 277.45 487.75 L 277.73 486.71 C 276.04 486.75 274.35 486.83 272.66 486.93 C 275.90 485.75 278.73 483.75 281.02 481.20 C 285.82 477.78 290.74 474.50 295.14 470.55 C 292.93 474.48 290.14 478.12 288.70 482.45 C 292.35 479.61 295.67 476.36 299.55 473.82 C 299.06 476.36 298.56 478.92 298.12 481.48 C 299.62 481.03 301.39 480.88 302.39 479.50 Z" />
</g>
<g id="#d0672eff">
<path fill="#d0672e" opacity="1.00" d=" M 211.20 375.41 C 215.27 377.85 218.84 382.01 218.70 387.01 C 218.62 391.43 219.03 396.10 217.28 400.27 C 215.77 403.43 211.24 401.38 210.52 398.63 C 208.07 391.11 209.74 382.97 211.20 375.41 Z" />
<path fill="#d0672e" opacity="1.00" d=" M 276.60 381.62 C 277.97 378.96 280.29 376.94 282.85 375.47 C 284.20 382.54 285.60 389.93 283.99 397.08 C 283.51 399.73 281.22 402.46 278.26 401.79 C 275.64 400.27 275.74 396.69 275.43 394.05 C 275.40 389.92 274.56 385.43 276.60 381.62 Z" />
<path fill="#d0672e" opacity="1.00" d=" M 216.87 407.49 C 220.80 409.49 224.95 412.37 226.02 416.92 C 226.54 421.34 226.16 425.81 226.22 430.25 C 222.35 428.26 218.27 425.44 217.11 421.00 C 216.51 416.52 216.94 411.98 216.87 407.49 Z" />
<path fill="#d0672e" opacity="1.00" d=" M 268.24 415.93 C 269.73 411.91 273.46 409.35 277.13 407.49 C 277.05 411.98 277.49 416.52 276.88 420.99 C 275.74 425.45 271.65 428.25 267.78 430.24 C 267.93 425.48 267.22 420.61 268.24 415.93 Z" />
<path fill="#d0672e" opacity="1.00" d=" M 226.31 443.94 C 226.10 440.29 229.40 437.92 231.88 435.80 C 232.95 440.81 234.55 446.04 233.22 451.16 C 232.82 452.19 232.86 453.87 231.43 454.02 C 229.29 450.93 227.08 447.68 226.31 443.94 Z" />
<path fill="#d0672e" opacity="1.00" d=" M 262.11 435.81 C 264.60 437.92 267.88 440.30 267.68 443.95 C 266.89 447.71 264.67 450.99 262.52 454.11 C 261.17 453.75 261.15 452.16 260.77 451.10 C 259.48 446.00 261.02 440.79 262.11 435.81 Z" />
<path fill="#d0672e" opacity="1.00" d=" M 231.94 465.97 C 232.16 462.99 235.12 461.49 237.42 460.22 C 238.76 463.93 239.26 467.86 239.53 471.78 C 236.15 471.47 232.87 469.36 231.94 465.97 Z" />
<path fill="#d0672e" opacity="1.00" d=" M 254.51 471.81 C 254.73 467.88 255.23 463.95 256.56 460.23 C 258.89 461.46 261.73 462.97 262.08 465.91 C 261.18 469.33 257.88 471.41 254.51 471.81 Z" />
</g>
</svg>
