<?xml version="1.0" encoding="UTF-8" ?>
<!DOCTYPE svg PUBLIC "-//W3C//DTD SVG 1.1//EN" "http://www.w3.org/Graphics/SVG/1.1/DTD/svg11.dtd">
<svg width="479pt" height="460pt" viewBox="0 0 479 460" version="1.1" xmlns="http://www.w3.org/2000/svg">
<g id="#52372eff">
<path fill="#52372e" opacity="1.00" d=" M 120.31 0.00 L 120.59 0.00 C 122.58 9.40 124.39 18.84 126.29 28.26 C 121.92 30.21 117.52 32.09 113.10 33.92 C 108.08 26.39 103.05 18.86 98.04 11.31 C 105.47 7.55 113.01 4.01 120.31 0.00 Z" />
<path fill="#52372e" opacity="1.00" d=" M 49.01 24.52 C 68.49 28.20 87.95 32.02 107.41 35.80 C 107.47 41.48 107.47 47.16 107.41 52.84 C 87.30 57.17 67.24 61.68 47.12 65.96 C 47.75 52.15 48.39 38.34 49.01 24.52 Z" />
<path fill="#52372e" opacity="1.00" d=" M 109.34 62.22 C 113.14 64.68 116.91 67.20 120.64 69.77 C 116.25 83.55 111.84 97.33 107.50 111.13 C 97.35 105.01 87.35 98.64 77.33 92.32 C 88.03 82.32 98.67 72.26 109.34 62.22 Z" />
<path fill="#52372e" opacity="1.00" d=" M 467.00 99.08 C 467.26 99.55 467.77 100.49 468.03 100.97 C 470.37 101.69 473.32 101.99 474.63 104.39 C 476.53 107.90 477.50 112.07 476.98 116.05 C 476.39 119.85 472.94 122.19 469.60 123.44 C 463.36 124.68 456.80 124.95 450.58 123.46 C 447.14 122.73 444.92 119.44 444.92 116.02 C 444.65 111.99 444.05 106.43 448.43 104.34 C 454.44 101.48 461.29 101.59 467.78 100.99 C 467.59 100.51 467.19 99.56 467.00 99.08 Z" />
<path fill="#52372e" opacity="1.00" d=" M 230.43 126.63 C 239.35 124.63 248.98 131.13 250.40 140.17 C 252.41 149.33 245.33 159.07 236.03 160.07 C 227.28 161.51 218.29 154.87 217.03 146.12 C 215.29 137.38 221.69 128.17 230.43 126.63 M 230.41 136.52 C 225.34 138.76 224.80 146.57 229.49 149.49 C 233.90 152.80 240.95 149.49 241.23 143.99 C 242.04 138.38 235.38 133.78 230.41 136.52 Z" />
<path fill="#52372e" opacity="1.00" d=" M 447.47 132.45 C 454.42 129.23 462.34 130.11 469.77 130.35 C 472.53 130.84 476.05 131.84 476.60 135.08 C 477.19 138.98 477.10 143.11 475.94 146.90 C 475.04 149.84 472.04 151.17 469.39 152.13 C 462.95 152.83 456.36 153.11 449.94 152.06 C 444.79 151.29 443.63 145.34 442.96 141.07 C 442.10 137.50 444.17 133.85 447.47 132.45 Z" />
<path fill="#52372e" opacity="1.00" d=" M 85.43 145.56 C 92.28 144.22 99.72 146.40 104.67 151.34 C 109.60 156.08 112.02 163.26 110.95 170.02 C 109.98 177.13 105.15 183.52 98.64 186.50 C 91.66 189.81 82.92 188.95 76.74 184.31 C 70.41 179.78 66.93 171.65 68.07 163.94 C 69.13 154.92 76.52 147.17 85.43 145.56 M 85.37 157.53 C 80.14 159.67 76.69 165.41 77.40 171.05 C 77.96 178.16 85.11 183.85 92.17 182.71 C 99.92 181.97 105.54 173.41 103.11 166.00 C 101.23 158.63 92.30 154.40 85.37 157.53 Z" />
<path fill="#52372e" opacity="1.00" d=" M 451.33 157.49 C 457.10 156.11 463.12 156.35 469.00 156.79 C 473.73 157.28 478.38 160.24 479.00 165.30 L 479.00 169.19 C 477.72 175.26 476.92 182.54 471.41 186.41 C 465.06 190.52 457.17 188.36 450.29 187.10 C 447.92 185.36 445.27 183.26 445.12 180.07 C 444.55 174.74 444.62 169.31 445.38 164.00 C 445.82 160.86 448.21 158.17 451.33 157.49 Z" />
<path fill="#52372e" opacity="1.00" d=" M 379.26 239.43 C 380.91 239.44 382.47 240.49 383.15 241.99 C 385.29 246.31 385.16 252.20 381.68 255.79 C 378.59 257.61 375.98 254.04 375.49 251.33 C 374.61 247.22 375.15 241.62 379.26 239.43 Z" />
<path fill="#52372e" opacity="1.00" d=" M 393.32 241.43 C 395.08 240.77 396.32 242.65 396.94 244.03 C 398.22 247.13 398.10 251.24 395.70 253.76 C 393.67 255.47 391.16 253.42 390.67 251.30 C 389.65 247.98 389.94 243.30 393.32 241.43 Z" />
<path fill="#52372e" opacity="1.00" d=" M 407.35 245.32 C 409.82 244.51 411.20 248.00 410.89 250.01 C 411.16 252.35 408.85 255.90 406.45 253.65 C 404.61 251.29 404.86 247.05 407.35 245.32 Z" />
<path fill="#52372e" opacity="1.00" d=" M 372.37 268.31 C 373.76 267.46 375.89 267.83 376.84 269.21 C 378.96 272.20 379.29 276.17 378.51 279.67 C 377.91 281.93 376.58 284.49 373.98 284.77 C 371.89 284.07 370.36 282.17 369.98 280.03 C 368.94 276.09 369.34 271.28 372.37 268.31 Z" />
<path fill="#52372e" opacity="1.00" d=" M 385.28 272.29 C 387.41 270.51 390.67 272.25 391.31 274.72 C 392.56 278.41 392.70 283.69 388.96 286.01 C 387.22 287.44 384.79 285.72 383.94 284.06 C 382.05 280.40 382.18 275.26 385.28 272.29 Z" />
<path fill="#52372e" opacity="1.00" d=" M 401.35 275.43 C 408.60 274.30 409.26 288.38 401.95 288.41 C 396.56 286.81 396.32 277.64 401.35 275.43 Z" />
<path fill="#52372e" opacity="1.00" d=" M 301.68 355.05 C 301.78 352.34 304.38 350.96 306.17 349.38 C 309.33 352.35 312.38 355.42 315.31 358.62 C 312.92 360.49 310.51 363.68 307.07 362.80 C 303.96 361.67 301.58 358.39 301.68 355.05 Z" />
<path fill="#52372e" opacity="1.00" d=" M 276.07 371.05 C 278.57 366.46 282.44 362.85 286.19 359.28 C 287.90 362.03 289.50 364.85 290.90 367.77 C 287.44 370.00 284.18 372.53 280.61 374.57 C 279.10 375.32 277.30 376.38 275.63 375.44 C 274.56 374.08 275.41 372.38 276.07 371.05 Z" />
<path fill="#52372e" opacity="1.00" d=" M 366.60 376.52 C 368.57 373.53 370.94 369.68 375.02 369.80 C 379.61 369.88 383.80 372.04 387.85 373.99 C 390.99 375.72 394.38 377.51 396.42 380.57 C 397.81 382.73 396.61 385.33 395.12 387.07 C 392.79 389.79 389.73 392.46 385.96 392.56 C 381.92 392.51 378.20 390.69 374.62 389.03 C 371.30 387.26 367.55 385.78 365.21 382.71 C 363.83 380.66 365.65 378.35 366.60 376.52 Z" />
<path fill="#52372e" opacity="1.00" d=" M 282.92 385.94 C 285.29 380.63 289.37 376.37 293.38 372.27 C 294.96 374.84 296.44 377.47 297.77 380.18 C 292.91 384.04 289.44 390.17 282.89 391.35 C 282.60 389.57 282.00 387.64 282.92 385.94 Z" />
<path fill="#52372e" opacity="1.00" d=" M 23.36 387.52 C 29.54 385.57 36.53 386.42 42.03 389.86 C 48.58 393.82 52.79 401.31 52.75 408.97 C 52.87 416.12 49.28 423.18 43.48 427.36 C 36.40 432.67 26.12 433.15 18.58 428.50 C 10.93 424.06 6.46 414.86 7.75 406.10 C 8.78 397.57 15.16 390.04 23.36 387.52 M 25.30 398.44 C 19.77 400.23 16.08 406.30 17.16 412.05 C 18.10 418.79 25.38 423.68 31.98 421.94 C 38.50 420.61 42.90 413.34 41.04 406.95 C 39.51 400.27 31.74 396.08 25.30 398.44 Z" />
<path fill="#52372e" opacity="1.00" d=" M 355.79 395.99 C 356.59 392.42 358.84 387.86 362.99 387.67 C 366.32 388.34 369.32 390.03 372.44 391.32 C 376.63 393.44 382.33 394.46 384.54 399.07 C 385.36 404.54 379.43 410.44 373.85 408.76 C 369.14 407.52 365.35 404.27 361.25 401.80 C 359.16 400.20 356.34 398.80 355.79 395.99 Z" />
<path fill="#52372e" opacity="1.00" d=" M 343.52 411.88 C 344.12 408.41 345.64 404.70 348.99 403.08 C 351.83 402.42 354.63 403.88 357.23 404.90 C 362.31 407.64 368.67 409.62 371.55 415.02 C 372.25 419.63 367.19 422.95 363.04 422.99 C 355.08 423.11 348.51 417.52 343.52 411.88 Z" />
</g>
<g id="#8c5b37ff">
<path fill="#8c5b37" opacity="1.00" d=" M 205.37 24.29 C 216.18 24.31 226.99 24.16 237.79 24.37 C 237.49 24.96 236.88 26.14 236.58 26.74 C 232.56 29.71 229.78 33.93 226.15 37.31 C 224.27 33.11 222.51 28.86 220.39 24.77 C 217.31 28.37 214.42 32.12 211.05 35.45 C 209.46 32.48 207.85 29.53 206.09 26.66 C 205.88 27.29 205.45 28.56 205.24 29.20 C 205.25 27.56 205.31 25.93 205.37 24.29 Z" />
<path fill="#8c5b37" opacity="1.00" d=" M 173.50 28.07 C 181.05 27.67 188.57 26.66 196.13 26.33 C 191.73 29.57 187.26 32.70 182.81 35.85 C 179.60 33.38 176.53 30.75 173.50 28.07 Z" />
<path fill="#8c5b37" opacity="1.00" d=" M 245.30 26.08 C 251.37 27.16 257.47 28.07 263.45 29.57 C 260.11 33.19 256.51 36.57 252.39 39.28 C 249.90 34.95 247.62 30.51 245.30 26.08 Z" />
<path fill="#8c5b37" opacity="1.00" d=" M 269.04 31.03 C 275.17 32.91 281.35 34.84 287.02 37.92 C 286.62 38.15 285.81 38.62 285.41 38.86 C 280.79 39.81 276.12 40.45 271.44 41.05 C 270.67 37.70 269.86 34.37 269.04 31.03 Z" />
<path fill="#8c5b37" opacity="1.00" d=" M 151.83 36.32 C 157.13 34.23 162.65 32.55 168.33 31.91 C 168.19 32.28 167.89 33.01 167.74 33.37 C 165.45 36.40 162.94 39.26 160.81 42.40 L 159.85 42.40 C 156.91 40.75 154.33 38.55 151.83 36.32 Z" />
<path fill="#8c5b37" opacity="1.00" d=" M 116.67 39.40 C 124.28 39.31 131.89 39.27 139.50 39.42 C 135.80 41.98 132.37 45.12 128.10 46.70 C 124.10 44.90 120.71 42.02 117.04 39.65 L 116.67 39.40 Z" />
<path fill="#8c5b37" opacity="1.00" d=" M 302.53 39.84 C 308.02 40.48 313.02 43.01 317.90 45.44 C 313.68 47.17 309.52 49.01 305.32 50.76 C 304.46 47.10 303.64 43.43 302.53 39.84 Z" />
<path fill="#8c5b37" opacity="1.00" d=" M 322.24 47.97 C 325.62 50.50 329.10 53.06 331.73 56.41 C 331.64 57.28 330.69 58.01 330.27 58.81 C 327.12 59.14 323.97 59.52 320.83 59.94 C 321.08 55.93 321.53 51.93 322.24 47.97 Z" />
<path fill="#8c5b37" opacity="1.00" d=" M 341.50 76.19 C 344.98 81.04 348.48 85.86 352.02 90.66 C 347.20 90.68 342.38 90.64 337.57 90.40 C 338.85 85.66 340.28 80.95 341.50 76.19 Z" />
<path fill="#8c5b37" opacity="1.00" d=" M 353.67 93.14 L 354.06 92.82 C 355.36 99.49 354.27 106.37 354.69 113.13 C 353.81 113.31 352.94 113.44 352.07 113.53 C 348.73 110.18 345.36 106.85 341.75 103.79 C 345.44 99.93 349.55 96.53 353.67 93.14 Z" />
<path fill="#8c5b37" opacity="1.00" d=" M 341.85 125.20 C 346.08 125.08 350.28 124.63 354.48 124.13 C 351.63 128.85 347.93 132.98 344.64 137.40 C 343.37 133.42 342.46 129.33 341.85 125.20 Z" />
<path fill="#8c5b37" opacity="1.00" d=" M 330.03 145.25 C 333.42 144.38 336.85 143.63 340.31 143.05 C 337.49 146.89 334.56 150.65 331.65 154.42 C 331.06 151.37 330.52 148.32 330.03 145.25 Z" />
<path fill="#8c5b37" opacity="1.00" d=" M 321.21 169.72 C 323.26 169.08 325.31 168.45 327.36 167.83 L 327.59 167.76 C 328.55 171.23 329.67 174.65 330.67 178.11 C 326.90 176.08 323.93 172.97 321.21 169.72 Z" />
<path fill="#8c5b37" opacity="1.00" d=" M 332.59 184.15 L 332.69 184.06 C 333.91 188.31 335.38 192.48 336.52 196.76 C 332.33 195.95 328.44 194.16 324.71 192.16 C 327.26 189.42 329.89 186.75 332.59 184.15 Z" />
<path fill="#8c5b37" opacity="1.00" d=" M 337.94 222.41 C 341.76 221.33 345.58 220.24 349.40 219.14 C 349.43 226.24 349.16 233.39 347.66 240.36 C 344.17 234.52 340.64 228.67 337.94 222.41 Z" />
<path fill="#8c5b37" opacity="1.00" d=" M 328.33 256.39 C 334.03 254.51 339.66 252.39 345.24 250.16 C 342.67 257.91 339.17 265.35 334.77 272.25 C 332.35 267.07 330.20 261.78 328.33 256.39 Z" />
<path fill="#8c5b37" opacity="1.00" d=" M 309.30 288.95 C 313.20 289.60 317.07 290.42 320.90 291.40 C 317.52 297.32 313.77 303.05 309.43 308.31 C 309.24 301.86 309.13 295.40 309.30 288.95 Z" />
<path fill="#8c5b37" opacity="1.00" d=" M 286.94 315.01 C 292.36 315.51 297.78 316.00 303.20 316.44 C 298.25 322.41 292.92 328.08 287.35 333.49 C 286.55 327.36 286.64 321.17 286.94 315.01 Z" />
</g>
<g id="#b16b3bff">
<path fill="#b16b3b" opacity="1.00" d=" M 220.39 24.77 C 222.51 28.86 224.27 33.11 226.15 37.31 C 229.78 33.93 232.56 29.71 236.58 26.74 C 232.42 42.06 229.95 57.88 229.96 73.79 C 221.11 73.67 212.26 73.93 203.41 73.65 C 203.91 58.84 203.91 43.97 205.24 29.20 C 205.45 28.56 205.88 27.29 206.09 26.66 C 207.85 29.53 209.46 32.48 211.05 35.45 C 214.42 32.12 217.31 28.37 220.39 24.77 M 216.54 34.09 C 214.27 37.77 211.71 41.27 209.62 45.07 C 214.44 45.11 219.26 45.08 224.07 45.10 C 221.87 41.23 219.48 37.45 216.54 34.09 M 213.05 45.74 C 212.92 54.86 212.92 63.99 213.05 73.11 C 216.01 73.28 218.99 73.31 221.96 73.20 C 222.04 67.45 221.11 61.75 221.07 56.01 C 220.96 52.78 221.11 49.50 220.50 46.32 C 218.47 44.82 215.46 45.88 213.05 45.74 Z" />
<path fill="#b16b3b" opacity="1.00" d=" M 182.81 35.85 C 187.26 32.70 191.73 29.57 196.13 26.33 C 195.93 40.22 196.10 54.12 196.04 68.01 C 192.73 67.87 189.44 67.57 186.17 67.10 C 186.31 62.33 186.34 57.56 186.25 52.79 C 186.70 52.76 187.60 52.69 188.05 52.65 C 186.93 47.54 184.78 42.76 182.82 37.94 C 180.23 42.75 177.51 47.54 175.70 52.72 C 176.53 52.75 178.18 52.81 179.01 52.84 C 179.09 57.47 179.14 62.10 179.17 66.73 C 177.21 66.47 175.25 66.21 173.30 65.96 C 173.63 53.33 173.25 40.70 173.50 28.07 C 176.53 30.75 179.60 33.38 182.81 35.85 Z" />
<path fill="#b16b3b" opacity="1.00" d=" M 237.46 73.74 C 238.77 57.71 240.04 41.38 245.30 26.08 C 247.62 30.51 249.90 34.95 252.39 39.28 C 256.51 36.57 260.11 33.19 263.45 29.57 C 265.31 30.05 267.18 30.54 269.04 31.03 C 269.86 34.37 270.67 37.70 271.44 41.05 C 276.12 40.45 280.79 39.81 285.41 38.86 C 275.63 50.67 265.39 62.76 260.15 77.40 C 256.76 76.82 253.31 76.50 249.96 75.68 L 249.64 75.07 C 250.73 66.01 254.28 57.53 257.90 49.24 C 259.87 49.75 261.83 50.29 263.80 50.83 C 263.36 46.52 262.75 42.22 261.90 37.96 C 258.27 40.73 254.77 43.65 251.35 46.67 C 251.50 46.89 251.79 47.34 251.94 47.56 C 246.91 55.77 243.36 64.86 241.96 74.42 C 240.46 74.17 238.96 73.94 237.46 73.74 Z" />
<path fill="#b16b3b" opacity="1.00" d=" M 160.81 42.40 C 162.94 39.26 165.45 36.40 167.74 33.37 C 167.99 43.58 167.61 53.82 167.77 64.04 C 165.95 64.10 164.13 64.14 162.31 64.18 C 162.82 60.38 163.26 56.56 164.08 52.81 C 164.51 52.77 165.36 52.68 165.79 52.63 C 164.11 49.23 162.47 45.81 160.81 42.40 Z" />
<path fill="#b16b3b" opacity="1.00" d=" M 148.98 37.41 C 149.69 37.14 151.12 36.59 151.83 36.32 C 154.33 38.55 156.91 40.75 159.85 42.40 C 157.26 45.64 155.15 49.21 152.99 52.74 C 154.73 52.80 156.48 52.85 158.23 52.89 C 158.01 56.66 157.67 60.43 157.11 64.17 C 154.38 64.17 151.65 64.14 148.92 64.07 C 148.95 55.18 148.84 46.29 148.98 37.41 Z" />
<path fill="#b16b3b" opacity="1.00" d=" M 117.04 39.65 C 120.71 42.02 124.10 44.90 128.10 46.70 C 132.37 45.12 135.80 41.98 139.50 39.42 C 139.48 46.37 139.50 53.31 139.49 60.26 C 138.14 60.32 136.80 60.38 135.46 60.45 C 133.42 56.50 130.99 52.75 128.05 49.40 C 126.01 52.96 124.20 56.64 122.63 60.43 C 120.71 60.36 118.79 60.32 116.87 60.29 C 116.95 53.41 116.68 46.53 117.04 39.65 Z" />
<path fill="#b16b3b" opacity="1.00" d=" M 267.55 79.22 C 278.04 64.90 289.13 50.92 302.27 38.92 L 302.53 39.84 C 303.64 43.43 304.46 47.10 305.32 50.76 C 309.52 49.01 313.68 47.17 317.90 45.44 C 319.34 46.28 320.79 47.13 322.24 47.97 C 321.53 51.93 321.08 55.93 320.83 59.94 C 323.97 59.52 327.12 59.14 330.27 58.81 C 316.27 73.72 298.38 84.19 280.87 94.45 C 279.09 92.50 277.35 90.52 275.64 88.51 C 285.41 80.37 295.07 72.08 305.17 64.36 C 305.94 64.83 306.71 65.31 307.49 65.78 C 309.81 61.61 312.23 57.50 314.25 53.17 C 308.79 54.68 303.44 56.56 298.10 58.41 C 298.78 59.07 299.46 59.73 300.16 60.38 C 290.32 67.85 281.29 76.34 271.30 83.60 C 270.04 82.14 268.80 80.68 267.55 79.22 Z" />
<path fill="#b16b3b" opacity="1.00" d=" M 280.69 99.80 C 300.27 91.04 319.78 82.13 339.36 73.36 C 340.06 74.31 340.78 75.25 341.50 76.19 C 340.28 80.95 338.85 85.66 337.57 90.40 C 342.38 90.64 347.20 90.68 352.02 90.66 C 352.43 91.28 353.25 92.52 353.67 93.14 C 349.55 96.53 345.44 99.93 341.75 103.79 C 345.36 106.85 348.73 110.18 352.07 113.53 C 330.86 116.11 309.60 118.28 288.40 120.93 C 287.31 118.18 286.30 115.40 285.37 112.59 C 300.13 109.56 315.40 107.97 329.48 102.34 C 330.18 103.93 330.87 105.53 331.56 107.13 C 335.12 103.87 338.07 100.04 340.94 96.17 C 335.61 94.25 330.25 92.41 324.79 90.89 C 325.14 91.94 325.50 92.99 325.88 94.03 C 312.14 99.96 297.35 102.77 282.70 105.44 C 282.00 103.57 281.35 101.68 280.69 99.80 Z" />
<path fill="#b16b3b" opacity="1.00" d=" M 396.39 92.58 C 413.88 86.98 432.94 85.35 450.94 89.40 C 456.94 91.04 464.22 92.81 467.00 99.08 C 467.19 99.56 467.59 100.51 467.78 100.99 C 461.29 101.59 454.44 101.48 448.43 104.34 C 444.05 106.43 444.65 111.99 444.92 116.02 C 444.92 119.44 447.14 122.73 450.58 123.46 C 456.80 124.95 463.36 124.68 469.60 123.44 C 469.64 125.74 469.70 128.05 469.77 130.35 C 462.34 130.11 454.42 129.23 447.47 132.45 C 444.17 133.85 442.10 137.50 442.96 141.07 C 443.63 145.34 444.79 151.29 449.94 152.06 C 456.36 153.11 462.95 152.83 469.39 152.13 C 469.26 153.68 469.13 155.23 469.00 156.79 C 463.12 156.35 457.10 156.11 451.33 157.49 C 448.21 158.17 445.82 160.86 445.38 164.00 C 444.62 169.31 444.55 174.74 445.12 180.07 C 445.27 183.26 447.92 185.36 450.29 187.10 C 447.64 186.65 444.37 186.96 442.52 184.62 C 440.27 181.51 440.36 177.47 439.78 173.85 C 439.13 166.48 436.37 159.50 433.13 152.92 C 430.52 147.77 427.61 142.58 423.01 138.94 C 421.86 139.87 420.72 140.81 419.59 141.76 C 427.48 157.70 434.96 174.20 437.86 191.88 C 439.31 201.51 439.11 212.61 432.37 220.34 C 425.84 227.74 415.43 229.62 406.03 229.93 C 389.82 230.23 373.53 227.78 358.18 222.53 C 358.16 220.01 358.15 217.50 358.16 214.99 C 343.82 201.16 336.34 181.46 333.83 162.04 C 337.43 150.57 347.63 142.58 358.11 137.57 C 360.66 143.23 363.17 148.91 365.69 154.59 C 375.12 154.61 384.55 154.60 393.98 154.57 C 396.54 154.61 399.55 154.61 401.33 156.78 C 403.43 158.96 403.39 162.18 403.43 165.00 C 403.38 173.31 403.38 181.62 403.42 189.93 C 403.40 192.74 403.45 196.12 400.94 197.99 C 397.55 200.65 392.88 199.80 388.88 199.84 C 385.96 200.07 382.89 198.09 382.81 194.97 C 382.49 190.32 382.56 185.64 382.75 180.99 C 382.58 176.58 388.44 176.59 391.33 177.64 C 392.26 179.93 392.43 183.26 395.70 183.12 C 395.75 180.17 396.18 176.97 394.74 174.26 C 392.68 169.99 386.70 168.45 382.68 170.70 C 379.07 173.18 378.82 178.01 378.86 181.98 C 379.04 188.35 378.58 194.75 379.10 201.12 C 379.32 203.97 382.31 205.56 384.94 205.44 C 390.84 205.47 397.45 206.24 402.56 202.64 C 405.97 200.29 407.40 196.03 407.19 192.02 C 407.09 181.35 407.30 170.68 407.09 160.01 C 407.11 154.27 401.63 150.72 396.71 149.25 C 387.85 146.05 377.72 148.40 369.33 143.68 C 365.12 141.45 362.56 136.73 362.91 131.98 C 363.40 122.87 368.47 114.83 373.60 107.58 C 378.91 99.81 387.76 95.58 396.39 92.58 M 416.99 103.03 C 413.82 105.91 411.45 110.45 413.28 114.72 C 415.55 119.19 418.96 123.26 423.46 125.59 C 422.68 121.84 421.16 118.28 420.51 114.51 C 420.13 108.13 424.05 102.65 425.40 96.62 C 422.16 98.13 419.41 100.44 416.99 103.03 M 398.14 107.11 C 396.10 109.48 394.93 112.86 396.17 115.88 C 398.18 121.08 402.57 124.90 406.97 128.10 C 406.03 123.01 403.99 118.14 403.56 112.97 C 404.16 107.87 407.32 103.53 408.40 98.53 C 404.34 100.51 400.97 103.63 398.14 107.11 M 428.29 106.30 C 424.84 108.06 425.56 113.73 429.25 114.69 C 432.62 116.07 436.39 112.40 435.20 108.99 C 434.81 105.88 430.67 104.78 428.29 106.30 M 408.22 107.42 C 407.07 107.69 405.89 108.27 405.28 109.32 C 404.95 111.42 406.70 113.89 409.03 112.88 C 412.06 112.16 410.93 107.45 408.22 107.42 M 384.32 111.39 C 381.10 111.96 379.79 115.92 381.58 118.51 C 383.32 121.69 388.59 121.27 389.75 117.80 C 391.69 114.29 387.93 110.35 384.32 111.39 M 345.47 162.42 C 343.60 164.46 341.23 166.00 339.55 168.20 C 340.35 172.37 341.77 176.40 343.08 180.44 C 346.13 176.71 347.95 172.18 349.55 167.69 C 351.08 162.89 352.52 157.91 352.04 152.81 C 349.99 156.10 348.22 159.64 345.47 162.42 M 345.14 183.16 C 346.86 187.46 348.71 191.71 350.53 195.97 C 357.66 187.39 359.91 175.69 359.85 164.78 C 355.82 171.55 351.56 178.37 345.14 183.16 M 419.17 170.25 C 416.16 171.74 415.69 176.55 418.71 178.28 C 421.49 180.35 425.59 178.32 425.94 174.96 C 426.79 171.32 422.22 168.45 419.17 170.25 M 352.70 198.10 C 354.53 201.49 356.37 204.90 358.93 207.81 C 361.24 206.34 362.96 204.10 363.48 201.37 C 365.00 194.32 364.66 186.98 363.74 179.86 C 361.26 186.59 357.83 193.01 352.70 198.10 M 419.36 187.40 C 415.35 189.43 416.03 196.34 420.30 197.61 C 423.58 198.88 427.53 196.45 427.87 192.95 C 428.67 188.54 423.10 185.05 419.36 187.40 M 417.24 202.25 C 414.44 203.57 413.87 207.75 416.19 209.79 C 418.63 212.48 423.84 210.81 424.03 207.09 C 424.81 203.47 420.40 200.43 417.24 202.25 M 370.41 207.47 C 366.99 207.91 364.79 211.73 366.09 214.93 C 367.32 219.21 373.94 220.04 376.07 216.05 C 378.72 212.29 375.03 206.23 370.41 207.47 M 404.37 209.40 C 400.03 209.89 397.96 215.90 401.27 218.83 C 403.89 221.95 409.55 220.66 410.60 216.76 C 412.00 212.97 408.46 208.34 404.37 209.40 M 384.38 211.44 C 380.81 212.75 379.55 217.93 382.24 220.65 C 385.05 223.72 391.32 222.49 391.85 218.03 C 393.17 213.71 388.34 209.99 384.38 211.44 Z" />
<path fill="#b16b3b" opacity="1.00" d=" M 52.34 100.51 C 60.49 97.89 69.83 103.68 71.32 112.04 C 73.28 120.43 66.57 129.34 58.04 129.99 C 49.89 131.03 41.88 124.18 41.51 116.00 C 40.90 109.12 45.77 102.41 52.34 100.51 Z" />
<path fill="#b16b3b" opacity="1.00" d=" M 284.33 130.17 C 303.46 128.09 322.70 127.14 341.85 125.20 C 342.46 129.33 343.37 133.42 344.64 137.40 C 343.23 139.31 341.79 141.20 340.31 143.05 C 336.85 143.63 333.42 144.38 330.03 145.25 C 330.52 148.32 331.06 151.37 331.65 154.42 C 331.03 155.20 330.41 155.97 329.79 156.75 C 314.06 156.59 298.32 156.90 282.60 156.60 C 282.90 153.70 283.07 150.79 283.12 147.88 C 296.38 145.44 309.78 143.86 323.01 141.28 C 322.98 142.07 322.92 143.65 322.89 144.45 C 326.01 142.39 328.96 140.09 331.79 137.65 C 329.54 135.05 327.05 132.67 324.35 130.54 C 324.00 132.74 323.62 134.93 323.32 137.13 C 323.25 136.39 323.12 134.90 323.06 134.15 C 310.06 135.20 297.08 136.74 284.04 137.24 C 284.10 134.88 284.21 132.52 284.33 130.17 Z" />
<path fill="#b16b3b" opacity="1.00" d=" M 277.10 164.00 C 293.50 163.99 309.91 164.03 326.32 163.98 C 326.67 165.26 327.01 166.54 327.36 167.83 C 325.31 168.45 323.26 169.08 321.21 169.72 C 323.93 172.97 326.90 176.08 330.67 178.11 C 331.36 180.11 331.98 182.12 332.59 184.15 C 329.89 186.75 327.26 189.42 324.71 192.16 C 328.44 194.16 332.33 195.95 336.52 196.76 L 336.69 196.80 C 336.89 197.62 337.29 199.24 337.49 200.05 C 324.82 196.93 311.86 195.17 298.91 193.70 C 290.99 192.97 283.05 192.16 275.09 192.43 C 275.14 188.60 275.44 184.78 275.93 180.99 C 288.99 181.76 301.77 184.73 314.36 188.13 C 314.54 189.42 314.75 190.71 314.96 192.00 C 318.86 189.87 322.63 187.46 325.94 184.47 C 321.64 180.92 317.55 177.12 313.06 173.81 C 313.16 175.45 313.28 177.08 313.41 178.72 C 301.32 175.08 289.00 171.91 276.41 170.71 C 276.67 168.48 276.89 166.24 277.10 164.00 Z" />
<path fill="#b16b3b" opacity="1.00" d=" M 176.34 166.49 C 183.07 164.14 191.00 168.93 192.04 175.98 C 193.40 182.44 188.56 189.29 182.03 190.21 C 175.56 191.49 168.78 186.53 167.95 180.02 C 166.90 174.22 170.74 168.19 176.34 166.49 Z" />
<path fill="#b16b3b" opacity="1.00" d=" M 23.67 204.31 C 28.40 201.50 33.08 198.62 37.83 195.87 C 41.86 197.41 45.92 198.89 49.97 200.40 C 50.36 204.73 51.46 208.96 52.69 213.12 C 63.00 252.69 74.20 292.11 88.60 330.41 C 89.70 333.50 91.14 336.45 92.72 339.31 C 95.72 338.13 98.71 336.94 101.71 335.73 C 85.36 293.90 74.89 250.07 65.75 206.18 C 68.98 207.46 72.69 208.15 75.14 210.82 C 78.43 214.20 81.80 217.50 85.13 220.84 C 87.35 222.84 87.47 226.01 88.24 228.71 C 101.85 285.29 112.96 342.64 131.94 397.77 C 113.72 399.11 95.49 400.37 77.25 401.52 C 51.71 352.62 29.18 302.12 10.74 250.11 C 6.89 239.90 3.83 229.42 0.00 219.21 L 0.00 218.48 C 4.64 215.78 9.22 212.98 13.82 210.22 C 20.99 234.94 31.05 258.71 41.91 282.00 C 42.90 284.01 43.84 286.09 45.33 287.79 C 48.42 288.62 51.53 287.02 54.50 286.29 C 44.15 262.35 35.09 237.87 26.94 213.09 C 25.96 210.12 24.84 207.21 23.67 204.31 M 47.18 303.61 C 48.36 306.11 49.66 308.55 51.07 310.93 C 53.57 309.82 55.99 308.55 58.31 307.12 C 57.22 304.68 56.05 302.29 54.81 299.94 C 52.15 300.92 49.60 302.15 47.18 303.61 M 53.00 320.37 C 54.01 322.96 55.17 325.49 56.49 327.94 C 58.99 326.89 61.46 325.75 63.89 324.53 C 62.93 321.98 61.85 319.49 60.65 317.05 C 58.01 317.93 55.45 319.05 53.00 320.37 M 58.91 336.04 C 59.54 338.57 60.99 340.79 62.25 343.05 C 64.84 342.07 67.29 340.77 69.53 339.14 C 68.40 336.73 67.20 334.36 65.92 332.02 C 63.59 333.29 60.53 333.85 58.91 336.04 M 92.57 350.92 C 93.68 353.36 94.89 355.76 96.19 358.11 C 98.80 357.14 101.28 355.88 103.53 354.24 C 102.39 351.81 101.18 349.41 99.90 347.05 C 97.35 348.13 94.90 349.42 92.57 350.92 M 64.22 352.35 C 65.34 354.94 66.62 357.45 68.07 359.87 C 70.40 358.81 72.72 357.74 75.05 356.67 C 74.43 353.92 73.20 351.37 71.80 348.95 C 69.23 349.97 66.70 351.11 64.22 352.35 M 98.08 367.51 C 99.11 370.04 100.25 372.53 101.49 374.96 C 103.99 373.90 107.22 373.33 108.79 371.00 C 108.04 368.52 106.72 366.28 105.58 363.97 C 103.02 365.03 100.52 366.21 98.08 367.51 M 71.95 369.31 C 72.31 371.87 72.79 374.41 73.38 376.94 C 75.96 376.50 78.50 375.83 80.98 375.01 C 80.29 372.75 80.36 370.03 78.85 368.15 C 76.50 368.12 74.22 368.80 71.95 369.31 M 102.00 382.45 C 102.99 385.03 104.11 387.56 105.38 390.02 C 107.96 389.03 110.49 387.90 112.94 386.62 C 111.95 384.06 110.84 381.54 109.57 379.11 C 107.00 380.11 104.47 381.21 102.00 382.45 M 75.55 384.87 C 76.66 387.23 77.59 389.73 79.25 391.78 C 82.02 391.50 84.22 389.59 86.50 388.17 C 85.39 385.74 84.20 383.35 82.93 381.01 C 80.36 382.07 77.89 383.36 75.55 384.87 Z" />
<path fill="#b16b3b" opacity="1.00" d=" M 275.05 199.82 C 300.05 199.92 325.03 203.72 348.91 211.12 C 349.03 213.79 349.22 216.47 349.40 219.14 C 345.58 220.24 341.76 221.33 337.94 222.41 C 340.64 228.67 344.17 234.52 347.66 240.36 C 347.01 243.66 346.19 246.92 345.24 250.16 C 339.66 252.39 334.03 254.51 328.33 256.39 C 330.20 261.78 332.35 267.07 334.77 272.25 C 333.23 274.61 331.62 276.94 329.96 279.23 C 314.03 259.50 293.25 244.14 271.24 231.83 C 272.01 228.50 272.62 225.15 273.17 221.78 C 291.94 225.49 309.69 232.85 327.97 238.31 C 327.99 241.17 328.04 244.03 328.09 246.89 C 333.04 244.48 337.97 242.01 342.89 239.54 C 338.19 234.38 333.24 229.47 328.13 224.73 C 328.05 227.11 327.99 229.50 327.97 231.90 C 323.18 228.77 318.03 226.25 312.67 224.25 C 300.14 219.49 287.35 215.44 274.36 212.16 C 274.95 208.07 275.10 203.94 275.05 199.82 Z" />
<path fill="#b16b3b" opacity="1.00" d=" M 134.33 268.91 C 131.22 249.80 130.32 230.37 130.71 211.04 C 135.30 213.78 139.99 216.34 144.71 218.87 C 149.37 246.42 153.31 274.12 155.32 302.01 C 156.20 309.98 155.72 318.06 156.98 326.00 C 159.92 325.99 162.86 325.96 165.80 325.91 C 165.13 318.95 165.18 311.94 164.84 304.96 C 162.88 277.73 161.17 250.29 155.10 223.60 C 159.52 225.31 161.54 229.92 163.05 234.07 C 166.35 243.72 168.04 253.83 169.66 263.87 C 175.28 301.78 177.51 340.09 182.70 378.04 C 183.14 382.94 178.81 386.73 174.74 388.60 C 164.81 392.97 153.92 394.44 143.26 395.91 C 131.18 357.07 118.40 318.41 108.44 278.96 C 104.49 262.80 100.96 246.44 99.86 229.81 C 105.83 224.40 111.67 218.85 117.63 213.43 C 120.49 241.63 123.41 269.85 128.30 297.78 C 132.11 297.40 135.92 296.76 139.54 295.45 C 137.84 286.59 135.63 277.84 134.33 268.91 M 128.24 313.04 C 129.38 316.12 130.65 319.15 132.03 322.13 C 134.98 320.87 138.96 320.59 140.97 317.99 C 140.24 314.96 138.83 312.15 137.69 309.27 C 134.48 310.37 131.33 311.64 128.24 313.04 M 134.05 337.36 C 134.94 340.59 136.21 343.70 137.70 346.70 C 140.87 345.77 143.94 344.52 146.88 343.00 C 145.81 339.87 144.57 336.80 143.15 333.82 C 140.09 334.91 137.05 336.10 134.05 337.36 M 156.72 339.75 C 157.92 342.08 159.11 344.41 160.31 346.74 C 162.79 345.63 165.20 344.40 167.56 343.08 C 166.49 340.56 165.25 338.13 163.84 335.80 C 161.28 336.76 158.84 338.01 156.72 339.75 M 140.20 358.18 C 140.01 361.25 141.77 364.21 143.24 366.84 C 146.51 367.31 149.60 364.90 152.62 363.76 C 151.56 360.70 150.33 357.70 148.94 354.78 C 145.94 355.64 142.83 356.43 140.20 358.18 M 158.36 358.26 C 158.95 360.74 159.56 363.21 160.22 365.67 C 162.74 365.17 165.25 364.58 167.72 363.83 C 167.11 361.30 166.48 358.77 165.80 356.25 C 163.31 356.88 160.83 357.55 158.36 358.26 M 162.12 375.26 C 162.71 377.77 163.37 380.26 164.12 382.72 C 166.64 382.18 169.14 381.49 171.48 380.37 C 170.86 378.01 170.27 375.64 169.68 373.28 C 167.15 373.88 164.63 374.53 162.12 375.26 M 145.15 381.06 C 146.30 383.49 147.57 385.88 148.92 388.21 C 151.56 387.28 154.11 386.05 156.27 384.25 C 155.06 381.91 153.87 379.56 152.68 377.21 C 150.10 378.35 147.59 379.63 145.15 381.06 Z" />
<path fill="#b16b3b" opacity="1.00" d=" M 204.12 219.41 C 205.85 217.83 207.59 216.25 209.40 214.75 C 212.59 219.14 216.00 223.37 219.23 227.74 C 219.56 237.83 220.03 247.91 220.12 258.01 C 221.21 269.98 220.61 282.03 221.62 294.01 C 222.26 304.00 221.44 314.08 222.99 324.01 C 225.23 323.39 227.75 323.24 229.67 321.81 C 230.10 318.56 229.83 315.28 229.72 312.02 C 228.79 294.36 229.27 276.66 228.83 258.99 C 228.75 252.78 227.84 246.55 228.74 240.35 C 230.49 242.50 232.43 244.55 233.79 246.98 C 234.92 285.96 236.31 324.96 237.49 363.94 C 224.10 371.35 209.72 378.30 194.16 378.98 C 188.45 339.01 182.75 299.05 177.04 259.08 C 176.47 255.03 175.95 250.97 175.11 246.97 C 180.29 242.13 185.35 237.18 190.54 232.37 C 192.20 236.85 192.78 241.60 193.56 246.29 C 198.90 275.91 203.82 305.61 209.30 335.21 C 211.82 334.13 214.31 332.97 216.75 331.72 C 212.56 294.36 208.65 256.95 204.15 219.62 L 204.12 219.41 M 220.84 329.93 C 221.49 332.38 220.96 338.37 225.07 336.84 C 226.70 336.54 228.30 336.10 229.91 335.69 C 229.34 333.12 228.65 330.59 227.85 328.09 C 225.50 328.66 223.16 329.28 220.84 329.93 M 209.21 341.26 C 209.87 343.11 210.53 344.96 211.19 346.81 C 213.05 346.16 214.91 345.51 216.77 344.85 C 216.11 343.00 215.46 341.14 214.80 339.29 C 212.94 339.94 211.07 340.60 209.21 341.26 M 222.80 341.90 C 223.03 344.18 223.65 346.41 224.22 348.63 C 226.76 348.14 229.28 347.57 231.77 346.88 C 231.08 344.35 230.23 341.87 229.19 339.47 C 227.11 340.25 224.32 340.12 222.80 341.90 M 211.30 352.61 C 211.79 355.11 212.40 357.58 213.16 360.02 C 215.45 359.44 217.89 359.12 219.94 357.86 C 220.35 355.52 219.23 353.21 218.80 350.94 C 216.24 351.21 213.73 351.79 211.30 352.61 M 224.82 352.31 C 224.99 354.90 225.43 357.46 226.18 359.95 C 228.56 359.49 231.00 359.18 233.25 358.23 C 233.85 355.86 232.34 353.34 231.91 350.97 C 229.54 351.36 227.17 351.81 224.82 352.31 M 213.02 364.04 C 213.61 366.43 214.26 368.81 214.96 371.18 C 217.49 370.85 219.98 370.25 222.35 369.28 C 221.77 366.88 221.20 364.48 220.63 362.09 C 218.04 362.48 215.50 363.16 213.02 364.04 Z" />
<path fill="#b16b3b" opacity="1.00" d=" M 268.59 235.88 C 270.57 236.00 271.92 237.54 273.38 238.69 C 291.24 253.72 308.64 269.68 322.45 288.61 C 322.07 289.31 321.29 290.70 320.90 291.40 C 317.07 290.42 313.20 289.60 309.30 288.95 C 309.13 295.40 309.24 301.86 309.43 308.31 C 307.67 311.25 305.33 313.77 303.20 316.44 C 297.78 316.00 292.36 315.51 286.94 315.01 C 286.64 321.17 286.55 327.36 287.35 333.49 C 284.64 336.19 281.87 338.81 279.02 341.37 C 275.91 318.79 272.20 296.29 267.57 273.98 C 265.23 263.68 263.22 253.28 259.96 243.21 C 260.39 242.86 261.23 242.14 261.66 241.78 C 272.03 257.08 278.60 274.49 286.22 291.23 C 284.51 292.74 282.81 294.24 281.10 295.74 C 287.11 298.64 293.31 301.19 299.69 303.16 C 299.08 295.79 298.51 288.43 297.79 281.07 C 295.86 282.72 293.92 284.36 292.03 286.05 C 286.99 273.15 281.04 260.62 274.56 248.39 C 272.33 244.34 269.81 240.38 268.59 235.88 Z" />
<path fill="#b16b3b" opacity="1.00" d=" M 248.96 248.62 C 251.45 247.36 253.94 246.11 256.45 244.89 C 259.40 280.76 262.03 316.72 261.93 352.74 C 256.56 355.71 250.86 358.05 245.06 360.09 C 244.97 335.02 243.58 309.97 241.17 285.03 C 240.03 274.85 239.19 264.62 237.32 254.55 C 238.71 253.78 240.11 253.01 241.52 252.26 C 242.79 254.29 243.84 256.48 244.29 258.85 C 248.58 278.62 250.33 298.83 251.66 318.98 C 252.20 325.64 251.89 332.36 252.85 339.00 C 254.54 338.60 256.24 338.19 257.94 337.80 C 258.85 315.73 257.55 293.57 254.44 271.70 C 253.16 263.90 251.92 256.00 248.96 248.62 M 250.88 347.02 C 251.55 349.30 251.26 352.31 253.05 354.02 C 255.56 353.40 257.78 352.02 260.03 350.81 C 259.48 348.96 258.92 347.12 258.40 345.27 C 255.81 345.44 253.30 346.13 250.88 347.02 Z" />
<path fill="#b16b3b" opacity="1.00" d=" M 297.85 331.85 C 308.51 319.84 319.22 307.88 329.97 295.95 C 348.75 304.81 367.60 313.53 386.42 322.33 C 382.84 329.73 379.02 337.00 375.45 344.40 C 373.83 347.14 376.43 349.90 378.66 351.26 C 383.25 354.13 389.04 356.16 391.57 361.34 C 393.64 365.91 390.55 370.48 387.85 373.99 C 383.80 372.04 379.61 369.88 375.02 369.80 C 370.94 369.68 368.57 373.53 366.60 376.52 C 365.65 378.35 363.83 380.66 365.21 382.71 C 367.55 385.78 371.30 387.26 374.62 389.03 C 374.07 389.60 372.98 390.75 372.44 391.32 C 369.32 390.03 366.32 388.34 362.99 387.67 C 358.84 387.86 356.59 392.42 355.79 395.99 C 356.34 398.80 359.16 400.20 361.25 401.80 C 359.91 402.83 358.56 403.86 357.23 404.90 C 354.63 403.88 351.83 402.42 348.99 403.08 C 345.64 404.70 344.12 408.41 343.52 411.88 C 341.13 412.33 338.31 413.68 336.10 412.07 C 331.39 408.89 326.81 404.73 325.16 399.11 C 323.81 394.87 325.23 390.31 327.78 386.84 C 332.66 380.11 337.53 373.31 341.26 365.85 C 324.64 357.75 309.18 346.62 297.85 331.85 M 325.20 314.36 C 322.71 315.40 321.37 318.61 322.97 320.96 C 324.73 324.54 331.11 323.77 331.60 319.63 C 332.62 316.06 328.51 312.75 325.20 314.36 M 329.29 327.25 C 323.89 331.39 324.28 338.97 323.84 345.08 C 325.27 345.13 326.69 345.19 328.12 345.25 C 328.56 340.75 327.63 335.43 330.78 331.72 C 335.15 327.68 341.60 328.46 347.08 328.15 C 347.02 326.77 346.98 325.40 346.93 324.03 C 340.99 324.18 334.57 324.14 329.29 327.25 M 336.26 332.32 C 333.46 333.63 332.81 337.74 335.11 339.83 C 337.87 342.93 343.95 340.08 343.01 335.91 C 342.75 332.80 339.00 330.76 336.26 332.32 M 341.31 341.33 C 337.73 344.67 337.21 349.93 337.49 354.56 C 338.36 354.48 340.10 354.31 340.97 354.23 C 341.72 350.69 341.44 346.18 344.72 343.84 C 348.07 341.58 352.31 341.59 356.17 341.04 C 356.26 340.16 356.45 338.39 356.54 337.51 C 351.29 337.38 345.40 337.59 341.31 341.33 M 349.36 347.37 C 346.17 348.88 346.04 354.08 349.23 355.66 C 352.36 357.66 356.95 354.60 356.21 350.94 C 355.86 347.76 352.14 346.03 349.36 347.37 M 356.35 376.36 C 355.37 377.70 357.51 378.73 358.00 379.76 C 361.41 376.50 364.15 372.63 367.12 368.99 C 368.56 367.51 367.09 364.92 365.02 365.66 C 361.42 368.53 358.69 372.43 356.35 376.36 M 353.16 381.07 C 349.93 382.96 347.58 386.41 346.78 390.04 C 345.86 392.01 349.64 393.25 350.30 391.34 C 351.81 388.19 354.13 385.61 356.37 382.97 C 356.87 381.00 354.61 379.99 353.16 381.07 M 343.21 396.23 C 338.90 398.72 334.72 403.74 335.99 409.00 C 338.98 410.48 339.57 406.57 340.74 404.75 C 341.90 401.67 345.29 400.54 347.14 398.04 C 347.00 396.05 344.82 394.97 343.21 396.23 Z" />
<path fill="#b16b3b" opacity="1.00" d=" M 9.55 330.46 C 16.48 328.27 24.50 332.93 25.98 340.04 C 27.97 347.31 22.43 355.38 14.95 356.15 C 7.54 357.38 0.31 351.19 0.00 343.76 L 0.00 342.26 C 0.47 336.86 4.25 331.89 9.55 330.46 Z" />
</g>
<g id="#ca9336ff">
<path fill="#ca9336" opacity="1.00" d=" M 216.54 34.09 C 219.48 37.45 221.87 41.23 224.07 45.10 C 219.26 45.08 214.44 45.11 209.62 45.07 C 211.71 41.27 214.27 37.77 216.54 34.09 Z" />
<path fill="#ca9336" opacity="1.00" d=" M 175.70 52.72 C 177.51 47.54 180.23 42.75 182.82 37.94 C 184.78 42.76 186.93 47.54 188.05 52.65 C 187.60 52.69 186.70 52.76 186.25 52.79 C 183.84 52.91 181.42 52.91 179.01 52.84 C 178.18 52.81 176.53 52.75 175.70 52.72 Z" />
<path fill="#ca9336" opacity="1.00" d=" M 251.35 46.67 C 254.77 43.65 258.27 40.73 261.90 37.96 C 262.75 42.22 263.36 46.52 263.80 50.83 C 261.83 50.29 259.87 49.75 257.90 49.24 C 255.90 48.72 253.90 48.20 251.94 47.56 C 251.79 47.34 251.50 46.89 251.35 46.67 Z" />
<path fill="#ca9336" opacity="1.00" d=" M 159.85 42.40 L 160.81 42.40 C 162.47 45.81 164.11 49.23 165.79 52.63 C 165.36 52.68 164.51 52.77 164.08 52.81 C 162.13 52.91 160.18 52.91 158.23 52.89 C 156.48 52.85 154.73 52.80 152.99 52.74 C 155.15 49.21 157.26 45.64 159.85 42.40 Z" />
<path fill="#ca9336" opacity="1.00" d=" M 122.63 60.43 C 124.20 56.64 126.01 52.96 128.05 49.40 C 130.99 52.75 133.42 56.50 135.46 60.45 C 131.19 60.57 126.91 60.60 122.63 60.43 Z" />
<path fill="#ca9336" opacity="1.00" d=" M 298.10 58.41 C 303.44 56.56 308.79 54.68 314.25 53.17 C 312.23 57.50 309.81 61.61 307.49 65.78 C 306.71 65.31 305.94 64.83 305.17 64.36 C 303.37 63.19 301.72 61.83 300.16 60.38 C 299.46 59.73 298.78 59.07 298.10 58.41 Z" />
<path fill="#ca9336" opacity="1.00" d=" M 324.79 90.89 C 330.25 92.41 335.61 94.25 340.94 96.17 C 338.07 100.04 335.12 103.87 331.56 107.13 C 330.87 105.53 330.18 103.93 329.48 102.34 C 328.26 99.58 326.95 96.86 325.88 94.03 C 325.50 92.99 325.14 91.94 324.79 90.89 Z" />
<path fill="#ca9336" opacity="1.00" d=" M 428.29 106.30 C 430.67 104.78 434.81 105.88 435.20 108.99 C 436.39 112.40 432.62 116.07 429.25 114.69 C 425.56 113.73 424.84 108.06 428.29 106.30 Z" />
<path fill="#ca9336" opacity="1.00" d=" M 408.22 107.42 C 410.93 107.45 412.06 112.16 409.03 112.88 C 406.70 113.89 404.95 111.42 405.28 109.32 C 405.89 108.27 407.07 107.69 408.22 107.42 Z" />
<path fill="#ca9336" opacity="1.00" d=" M 384.32 111.39 C 387.93 110.35 391.69 114.29 389.75 117.80 C 388.59 121.27 383.32 121.69 381.58 118.51 C 379.79 115.92 381.10 111.96 384.32 111.39 Z" />
<path fill="#ca9336" opacity="1.00" d=" M 324.35 130.54 C 327.05 132.67 329.54 135.05 331.79 137.65 C 328.96 140.09 326.01 142.39 322.89 144.45 C 322.92 143.65 322.98 142.07 323.01 141.28 C 323.10 139.89 323.20 138.51 323.32 137.13 C 323.62 134.93 324.00 132.74 324.35 130.54 Z" />
<path fill="#ca9336" opacity="1.00" d=" M 230.41 136.52 C 235.38 133.78 242.04 138.38 241.23 143.99 C 240.95 149.49 233.90 152.80 229.49 149.49 C 224.80 146.57 225.34 138.76 230.41 136.52 Z" />
<path fill="#ca9336" opacity="1.00" d=" M 85.37 157.53 C 92.30 154.40 101.23 158.63 103.11 166.00 C 105.54 173.41 99.92 181.97 92.17 182.71 C 85.11 183.85 77.96 178.16 77.40 171.05 C 76.69 165.41 80.14 159.67 85.37 157.53 Z" />
<path fill="#ca9336" opacity="1.00" d=" M 419.17 170.25 C 422.22 168.45 426.79 171.32 425.94 174.96 C 425.59 178.32 421.49 180.35 418.71 178.28 C 415.69 176.55 416.16 171.74 419.17 170.25 Z" />
<path fill="#ca9336" opacity="1.00" d=" M 313.06 173.81 C 317.55 177.12 321.64 180.92 325.94 184.47 C 322.63 187.46 318.86 189.87 314.96 192.00 C 314.75 190.71 314.54 189.42 314.36 188.13 C 313.94 185.01 313.66 181.86 313.41 178.72 C 313.28 177.08 313.16 175.45 313.06 173.81 Z" />
<path fill="#ca9336" opacity="1.00" d=" M 419.36 187.40 C 423.10 185.05 428.67 188.54 427.87 192.95 C 427.53 196.45 423.58 198.88 420.30 197.61 C 416.03 196.34 415.35 189.43 419.36 187.40 Z" />
<path fill="#ca9336" opacity="1.00" d=" M 417.24 202.25 C 420.40 200.43 424.81 203.47 424.03 207.09 C 423.84 210.81 418.63 212.48 416.19 209.79 C 413.87 207.75 414.44 203.57 417.24 202.25 Z" />
<path fill="#ca9336" opacity="1.00" d=" M 370.41 207.47 C 375.03 206.23 378.72 212.29 376.07 216.05 C 373.94 220.04 367.32 219.21 366.09 214.93 C 364.79 211.73 366.99 207.91 370.41 207.47 Z" />
<path fill="#ca9336" opacity="1.00" d=" M 404.37 209.40 C 408.46 208.34 412.00 212.97 410.60 216.76 C 409.55 220.66 403.89 221.95 401.27 218.83 C 397.96 215.90 400.03 209.89 404.37 209.40 Z" />
<path fill="#ca9336" opacity="1.00" d=" M 384.38 211.44 C 388.34 209.99 393.17 213.71 391.85 218.03 C 391.32 222.49 385.05 223.72 382.24 220.65 C 379.55 217.93 380.81 212.75 384.38 211.44 Z" />
<path fill="#ca9336" opacity="1.00" d=" M 328.13 224.73 C 333.24 229.47 338.19 234.38 342.89 239.54 C 337.97 242.01 333.04 244.48 328.09 246.89 C 328.04 244.03 327.99 241.17 327.97 238.31 C 327.96 236.17 327.95 234.03 327.97 231.90 C 327.99 229.50 328.05 227.11 328.13 224.73 Z" />
<path fill="#ca9336" opacity="1.00" d=" M 292.03 286.05 C 293.92 284.36 295.86 282.72 297.79 281.07 C 298.51 288.43 299.08 295.79 299.69 303.16 C 293.31 301.19 287.11 298.64 281.10 295.74 C 282.81 294.24 284.51 292.74 286.22 291.23 C 288.16 289.51 290.08 287.77 292.03 286.05 Z" />
<path fill="#ca9336" opacity="1.00" d=" M 325.20 314.36 C 328.51 312.75 332.62 316.06 331.60 319.63 C 331.11 323.77 324.73 324.54 322.97 320.96 C 321.37 318.61 322.71 315.40 325.20 314.36 Z" />
<path fill="#ca9336" opacity="1.00" d=" M 336.26 332.32 C 339.00 330.76 342.75 332.80 343.01 335.91 C 343.95 340.08 337.87 342.93 335.11 339.83 C 332.81 337.74 333.46 333.63 336.26 332.32 Z" />
<path fill="#ca9336" opacity="1.00" d=" M 349.36 347.37 C 352.14 346.03 355.86 347.76 356.21 350.94 C 356.95 354.60 352.36 357.66 349.23 355.66 C 346.04 354.08 346.17 348.88 349.36 347.37 Z" />
<path fill="#ca9336" opacity="1.00" d=" M 25.30 398.44 C 31.74 396.08 39.51 400.27 41.04 406.95 C 42.90 413.34 38.50 420.61 31.98 421.94 C 25.38 423.68 18.10 418.79 17.16 412.05 C 16.08 406.30 19.77 400.23 25.30 398.44 Z" />
</g>
<g id="#99552aff">
<path fill="#99552a" opacity="1.00" d=" M 213.05 45.74 C 215.46 45.88 218.47 44.82 220.50 46.32 C 221.11 49.50 220.96 52.78 221.07 56.01 C 221.11 61.75 222.04 67.45 221.96 73.20 C 218.99 73.31 216.01 73.28 213.05 73.11 C 212.92 63.99 212.92 54.86 213.05 45.74 Z" />
<path fill="#99552a" opacity="1.00" d=" M 251.94 47.56 C 253.90 48.20 255.90 48.72 257.90 49.24 C 254.28 57.53 250.73 66.01 249.64 75.07 L 249.24 75.41 C 246.79 75.34 244.36 74.88 241.96 74.42 C 243.36 64.86 246.91 55.77 251.94 47.56 Z" />
<path fill="#99552a" opacity="1.00" d=" M 158.23 52.89 C 160.18 52.91 162.13 52.91 164.08 52.81 C 163.26 56.56 162.82 60.38 162.31 64.18 C 160.58 64.17 158.84 64.17 157.11 64.17 C 157.67 60.43 158.01 56.66 158.23 52.89 Z" />
<path fill="#99552a" opacity="1.00" d=" M 179.01 52.84 C 181.42 52.91 183.84 52.91 186.25 52.79 C 186.34 57.56 186.31 62.33 186.17 67.10 C 183.83 66.98 181.50 66.87 179.17 66.73 C 179.14 62.10 179.09 57.47 179.01 52.84 Z" />
<path fill="#99552a" opacity="1.00" d=" M 271.30 83.60 C 281.29 76.34 290.32 67.85 300.16 60.38 C 301.72 61.83 303.37 63.19 305.17 64.36 C 295.07 72.08 285.41 80.37 275.64 88.51 C 274.20 86.87 272.75 85.23 271.30 83.60 Z" />
<path fill="#99552a" opacity="1.00" d=" M 282.70 105.44 C 297.35 102.77 312.14 99.96 325.88 94.03 C 326.95 96.86 328.26 99.58 329.48 102.34 C 315.40 107.97 300.13 109.56 285.37 112.59 L 285.24 112.62 C 284.43 110.21 283.56 107.83 282.70 105.44 Z" />
<path fill="#99552a" opacity="1.00" d=" M 416.99 103.03 C 419.41 100.44 422.16 98.13 425.40 96.62 C 424.05 102.65 420.13 108.13 420.51 114.51 C 421.16 118.28 422.68 121.84 423.46 125.59 C 418.96 123.26 415.55 119.19 413.28 114.72 C 411.45 110.45 413.82 105.91 416.99 103.03 Z" />
<path fill="#99552a" opacity="1.00" d=" M 398.14 107.11 C 400.97 103.63 404.34 100.51 408.40 98.53 C 407.32 103.53 404.16 107.87 403.56 112.97 C 403.99 118.14 406.03 123.01 406.97 128.10 C 402.57 124.90 398.18 121.08 396.17 115.88 C 394.93 112.86 396.10 109.48 398.14 107.11 Z" />
<path fill="#99552a" opacity="1.00" d=" M 284.04 137.24 C 297.08 136.74 310.06 135.20 323.06 134.15 C 323.12 134.90 323.25 136.39 323.32 137.13 C 323.20 138.51 323.10 139.89 323.01 141.28 C 309.78 143.86 296.38 145.44 283.12 147.88 C 283.34 144.32 283.79 140.79 284.04 137.24 Z" />
<path fill="#99552a" opacity="1.00" d=" M 276.41 170.71 C 289.00 171.91 301.32 175.08 313.41 178.72 C 313.66 181.86 313.94 185.01 314.36 188.13 C 301.77 184.73 288.99 181.76 275.93 180.99 C 276.02 177.56 276.12 174.13 276.41 170.71 Z" />
<path fill="#99552a" opacity="1.00" d=" M 49.97 200.40 C 55.24 202.31 60.49 204.25 65.75 206.18 C 74.89 250.07 85.36 293.90 101.71 335.73 C 98.71 336.94 95.72 338.13 92.72 339.31 C 91.14 336.45 89.70 333.50 88.60 330.41 C 74.20 292.11 63.00 252.69 52.69 213.12 C 51.46 208.96 50.36 204.73 49.97 200.40 Z" />
<path fill="#99552a" opacity="1.00" d=" M 13.82 210.22 C 17.10 208.24 20.39 206.28 23.67 204.31 C 24.84 207.21 25.96 210.12 26.94 213.09 C 35.09 237.87 44.15 262.35 54.50 286.29 C 51.53 287.02 48.42 288.62 45.33 287.79 C 43.84 286.09 42.90 284.01 41.91 282.00 C 31.05 258.71 20.99 234.94 13.82 210.22 Z" />
<path fill="#99552a" opacity="1.00" d=" M 124.36 207.17 C 126.49 208.43 128.61 209.71 130.71 211.04 C 130.32 230.37 131.22 249.80 134.33 268.91 C 135.63 277.84 137.84 286.59 139.54 295.45 C 135.92 296.76 132.11 297.40 128.30 297.78 C 123.41 269.85 120.49 241.63 117.63 213.43 C 119.89 211.36 122.14 209.28 124.36 207.17 Z" />
<path fill="#99552a" opacity="1.00" d=" M 274.36 212.16 C 287.35 215.44 300.14 219.49 312.67 224.25 C 318.03 226.25 323.18 228.77 327.97 231.90 C 327.95 234.03 327.96 236.17 327.97 238.31 C 309.69 232.85 291.94 225.49 273.17 221.78 C 273.71 218.60 274.08 215.38 274.36 212.16 Z" />
<path fill="#99552a" opacity="1.00" d=" M 144.71 218.87 C 148.11 220.59 151.63 222.04 155.10 223.60 C 161.17 250.29 162.88 277.73 164.84 304.96 C 165.18 311.94 165.13 318.95 165.80 325.91 C 162.86 325.96 159.92 325.99 156.98 326.00 C 155.72 318.06 156.20 309.98 155.32 302.01 C 153.31 274.12 149.37 246.42 144.71 218.87 Z" />
<path fill="#99552a" opacity="1.00" d=" M 190.54 232.37 C 195.09 228.13 199.52 223.77 204.15 219.62 C 208.65 256.95 212.56 294.36 216.75 331.72 C 214.31 332.97 211.82 334.13 209.30 335.21 C 203.82 305.61 198.90 275.91 193.56 246.29 C 192.78 241.60 192.20 236.85 190.54 232.37 Z" />
<path fill="#99552a" opacity="1.00" d=" M 219.23 227.74 C 222.44 231.85 225.61 236.01 228.76 240.18 L 228.74 240.35 C 227.84 246.55 228.75 252.78 228.83 258.99 C 229.27 276.66 228.79 294.36 229.72 312.02 C 229.83 315.28 230.10 318.56 229.67 321.81 C 227.75 323.24 225.23 323.39 222.99 324.01 C 221.44 314.08 222.26 304.00 221.62 294.01 C 220.61 282.03 221.21 269.98 220.12 258.01 C 220.03 247.91 219.56 237.83 219.23 227.74 Z" />
<path fill="#99552a" opacity="1.00" d=" M 261.66 241.78 C 264.05 239.92 266.52 238.11 268.59 235.88 C 269.81 240.38 272.33 244.34 274.56 248.39 C 281.04 260.62 286.99 273.15 292.03 286.05 C 290.08 287.77 288.16 289.51 286.22 291.23 C 278.60 274.49 272.03 257.08 261.66 241.78 Z" />
<path fill="#99552a" opacity="1.00" d=" M 241.52 252.26 C 244.02 251.08 246.49 249.85 248.96 248.62 C 251.92 256.00 253.16 263.90 254.44 271.70 C 257.55 293.57 258.85 315.73 257.94 337.80 C 256.24 338.19 254.54 338.60 252.85 339.00 C 251.89 332.36 252.20 325.64 251.66 318.98 C 250.33 298.83 248.58 278.62 244.29 258.85 C 243.84 256.48 242.79 254.29 241.52 252.26 Z" />
<path fill="#99552a" opacity="1.00" d=" M 47.18 303.61 C 49.60 302.15 52.15 300.92 54.81 299.94 C 56.05 302.29 57.22 304.68 58.31 307.12 C 55.99 308.55 53.57 309.82 51.07 310.93 C 49.66 308.55 48.36 306.11 47.18 303.61 Z" />
<path fill="#99552a" opacity="1.00" d=" M 128.24 313.04 C 131.33 311.64 134.48 310.37 137.69 309.27 C 138.83 312.15 140.24 314.96 140.97 317.99 C 138.96 320.59 134.98 320.87 132.03 322.13 C 130.65 319.15 129.38 316.12 128.24 313.04 Z" />
<path fill="#99552a" opacity="1.00" d=" M 53.00 320.37 C 55.45 319.05 58.01 317.93 60.65 317.05 C 61.85 319.49 62.93 321.98 63.89 324.53 C 61.46 325.75 58.99 326.89 56.49 327.94 C 55.17 325.49 54.01 322.96 53.00 320.37 Z" />
<path fill="#99552a" opacity="1.00" d=" M 329.29 327.25 C 334.57 324.14 340.99 324.18 346.93 324.03 C 346.98 325.40 347.02 326.77 347.08 328.15 C 341.60 328.46 335.15 327.68 330.78 331.72 C 327.63 335.43 328.56 340.75 328.12 345.25 C 326.69 345.19 325.27 345.13 323.84 345.08 C 324.28 338.97 323.89 331.39 329.29 327.25 Z" />
<path fill="#99552a" opacity="1.00" d=" M 220.84 329.93 C 223.16 329.28 225.50 328.66 227.85 328.09 C 228.65 330.59 229.34 333.12 229.91 335.69 C 228.30 336.10 226.70 336.54 225.07 336.84 C 220.96 338.37 221.49 332.38 220.84 329.93 Z" />
<path fill="#99552a" opacity="1.00" d=" M 58.91 336.04 C 60.53 333.85 63.59 333.29 65.92 332.02 C 67.20 334.36 68.40 336.73 69.53 339.14 C 67.29 340.77 64.84 342.07 62.25 343.05 C 60.99 340.79 59.54 338.57 58.91 336.04 Z" />
<path fill="#99552a" opacity="1.00" d=" M 134.05 337.36 C 137.05 336.10 140.09 334.91 143.15 333.82 C 144.57 336.80 145.81 339.87 146.88 343.00 C 143.94 344.52 140.87 345.77 137.70 346.70 C 136.21 343.70 134.94 340.59 134.05 337.36 Z" />
<path fill="#99552a" opacity="1.00" d=" M 156.72 339.75 C 158.84 338.01 161.28 336.76 163.84 335.80 C 165.25 338.13 166.49 340.56 167.56 343.08 C 165.20 344.40 162.79 345.63 160.31 346.74 C 159.11 344.41 157.92 342.08 156.72 339.75 Z" />
<path fill="#99552a" opacity="1.00" d=" M 341.31 341.33 C 345.40 337.59 351.29 337.38 356.54 337.51 C 356.45 338.39 356.26 340.16 356.17 341.04 C 352.31 341.59 348.07 341.58 344.72 343.84 C 341.44 346.18 341.72 350.69 340.97 354.23 C 340.10 354.31 338.36 354.48 337.49 354.56 C 337.21 349.93 337.73 344.67 341.31 341.33 Z" />
<path fill="#99552a" opacity="1.00" d=" M 209.21 341.26 C 211.07 340.60 212.94 339.94 214.80 339.29 C 215.46 341.14 216.11 343.00 216.77 344.85 C 214.91 345.51 213.05 346.16 211.19 346.81 C 210.53 344.96 209.87 343.11 209.21 341.26 Z" />
<path fill="#99552a" opacity="1.00" d=" M 222.80 341.90 C 224.32 340.12 227.11 340.25 229.19 339.47 C 230.23 341.87 231.08 344.35 231.77 346.88 C 229.28 347.57 226.76 348.14 224.22 348.63 C 223.65 346.41 223.03 344.18 222.80 341.90 Z" />
<path fill="#99552a" opacity="1.00" d=" M 250.88 347.02 C 253.30 346.13 255.81 345.44 258.40 345.27 C 258.92 347.12 259.48 348.96 260.03 350.81 C 257.78 352.02 255.56 353.40 253.05 354.02 C 251.26 352.31 251.55 349.30 250.88 347.02 Z" />
<path fill="#99552a" opacity="1.00" d=" M 92.57 350.92 C 94.90 349.42 97.35 348.13 99.90 347.05 C 101.18 349.41 102.39 351.81 103.53 354.24 C 101.28 355.88 98.80 357.14 96.19 358.11 C 94.89 355.76 93.68 353.36 92.57 350.92 Z" />
<path fill="#99552a" opacity="1.00" d=" M 64.22 352.35 C 66.70 351.11 69.23 349.97 71.80 348.95 C 73.20 351.37 74.43 353.92 75.05 356.67 C 72.72 357.74 70.40 358.81 68.07 359.87 C 66.62 357.45 65.34 354.94 64.22 352.35 Z" />
<path fill="#99552a" opacity="1.00" d=" M 211.30 352.61 C 213.73 351.79 216.24 351.21 218.80 350.94 C 219.23 353.21 220.35 355.52 219.94 357.86 C 217.89 359.12 215.45 359.44 213.16 360.02 C 212.40 357.58 211.79 355.11 211.30 352.61 Z" />
<path fill="#99552a" opacity="1.00" d=" M 224.82 352.31 C 227.17 351.81 229.54 351.36 231.91 350.97 C 232.34 353.34 233.85 355.86 233.25 358.23 C 231.00 359.18 228.56 359.49 226.18 359.95 C 225.43 357.46 224.99 354.90 224.82 352.31 Z" />
<path fill="#99552a" opacity="1.00" d=" M 140.20 358.18 C 142.83 356.43 145.94 355.64 148.94 354.78 C 150.33 357.70 151.56 360.70 152.62 363.76 C 149.60 364.90 146.51 367.31 143.24 366.84 C 141.77 364.21 140.01 361.25 140.20 358.18 Z" />
<path fill="#99552a" opacity="1.00" d=" M 158.36 358.26 C 160.83 357.55 163.31 356.88 165.80 356.25 C 166.48 358.77 167.11 361.30 167.72 363.83 C 165.25 364.58 162.74 365.17 160.22 365.67 C 159.56 363.21 158.95 360.74 158.36 358.26 Z" />
<path fill="#99552a" opacity="1.00" d=" M 213.02 364.04 C 215.50 363.16 218.04 362.48 220.63 362.09 C 221.20 364.48 221.77 366.88 222.35 369.28 C 219.98 370.25 217.49 370.85 214.96 371.18 C 214.26 368.81 213.61 366.43 213.02 364.04 Z" />
<path fill="#99552a" opacity="1.00" d=" M 98.08 367.51 C 100.52 366.21 103.02 365.03 105.58 363.97 C 106.72 366.28 108.04 368.52 108.79 371.00 C 107.22 373.33 103.99 373.90 101.49 374.96 C 100.25 372.53 99.11 370.04 98.08 367.51 Z" />
<path fill="#99552a" opacity="1.00" d=" M 356.35 376.36 C 358.69 372.43 361.42 368.53 365.02 365.66 C 367.09 364.92 368.56 367.51 367.12 368.99 C 364.15 372.63 361.41 376.50 358.00 379.76 C 357.51 378.73 355.37 377.70 356.35 376.36 Z" />
<path fill="#99552a" opacity="1.00" d=" M 71.95 369.31 C 74.22 368.80 76.50 368.12 78.85 368.15 C 80.36 370.03 80.29 372.75 80.98 375.01 C 78.50 375.83 75.96 376.50 73.38 376.94 C 72.79 374.41 72.31 371.87 71.95 369.31 Z" />
<path fill="#99552a" opacity="1.00" d=" M 162.12 375.26 C 164.63 374.53 167.15 373.88 169.68 373.28 C 170.27 375.64 170.86 378.01 171.48 380.37 C 169.14 381.49 166.64 382.18 164.12 382.72 C 163.37 380.26 162.71 377.77 162.12 375.26 Z" />
<path fill="#99552a" opacity="1.00" d=" M 145.15 381.06 C 147.59 379.63 150.10 378.35 152.68 377.21 C 153.87 379.56 155.06 381.91 156.27 384.25 C 154.11 386.05 151.56 387.28 148.92 388.21 C 147.57 385.88 146.30 383.49 145.15 381.06 Z" />
<path fill="#99552a" opacity="1.00" d=" M 102.00 382.45 C 104.47 381.21 107.00 380.11 109.57 379.11 C 110.84 381.54 111.95 384.06 112.94 386.62 C 110.49 387.90 107.96 389.03 105.38 390.02 C 104.11 387.56 102.99 385.03 102.00 382.45 Z" />
<path fill="#99552a" opacity="1.00" d=" M 75.55 384.87 C 77.89 383.36 80.36 382.07 82.93 381.01 C 84.20 383.35 85.39 385.74 86.50 388.17 C 84.22 389.59 82.02 391.50 79.25 391.78 C 77.59 389.73 76.66 387.23 75.55 384.87 Z" />
<path fill="#99552a" opacity="1.00" d=" M 353.16 381.07 C 354.61 379.99 356.87 381.00 356.37 382.97 C 354.13 385.61 351.81 388.19 350.30 391.34 C 349.64 393.25 345.86 392.01 346.78 390.04 C 347.58 386.41 349.93 382.96 353.16 381.07 Z" />
<path fill="#99552a" opacity="1.00" d=" M 343.21 396.23 C 344.82 394.97 347.00 396.05 347.14 398.04 C 345.29 400.54 341.90 401.67 340.74 404.75 C 339.57 406.57 338.98 410.48 335.99 409.00 C 334.72 403.74 338.90 398.72 343.21 396.23 Z" />
</g>
<g id="#71542cff">
<path fill="#71542c" opacity="1.00" d=" M 343.10 60.30 C 353.42 61.83 364.81 64.73 371.40 73.50 C 366.34 77.90 361.33 82.35 356.25 86.71 C 351.90 77.89 347.42 69.13 343.10 60.30 Z" />
<path fill="#71542c" opacity="1.00" d=" M 356.31 94.15 C 362.68 89.28 368.87 84.19 375.13 79.19 C 378.26 83.56 381.37 87.94 384.51 92.31 C 373.73 98.81 365.53 108.93 360.17 120.22 C 358.54 111.59 357.54 102.84 356.31 94.15 Z" />
<path fill="#71542c" opacity="1.00" d=" M 345.47 162.42 C 348.22 159.64 349.99 156.10 352.04 152.81 C 352.52 157.91 351.08 162.89 349.55 167.69 C 347.95 172.18 346.13 176.71 343.08 180.44 C 341.77 176.40 340.35 172.37 339.55 168.20 C 341.23 166.00 343.60 164.46 345.47 162.42 Z" />
<path fill="#71542c" opacity="1.00" d=" M 345.14 183.16 C 351.56 178.37 355.82 171.55 359.85 164.78 C 359.91 175.69 357.66 187.39 350.53 195.97 C 348.71 191.71 346.86 187.46 345.14 183.16 Z" />
<path fill="#71542c" opacity="1.00" d=" M 352.70 198.10 C 357.83 193.01 361.26 186.59 363.74 179.86 C 364.66 186.98 365.00 194.32 363.48 201.37 C 362.96 204.10 361.24 206.34 358.93 207.81 C 356.37 204.90 354.53 201.49 352.70 198.10 Z" />
<path fill="#71542c" opacity="1.00" d=" M 358.16 230.00 C 380.18 231.83 402.20 233.72 424.22 235.68 C 428.60 246.46 428.41 258.80 424.17 269.60 C 399.66 265.14 375.13 260.80 350.62 256.37 C 353.13 247.58 355.65 238.79 358.16 230.00 M 379.26 239.43 C 375.15 241.62 374.61 247.22 375.49 251.33 C 375.98 254.04 378.59 257.61 381.68 255.79 C 385.16 252.20 385.29 246.31 383.15 241.99 C 382.47 240.49 380.91 239.44 379.26 239.43 M 393.32 241.43 C 389.94 243.30 389.65 247.98 390.67 251.30 C 391.16 253.42 393.67 255.47 395.70 253.76 C 398.10 251.24 398.22 247.13 396.94 244.03 C 396.32 242.65 395.08 240.77 393.32 241.43 M 407.35 245.32 C 404.86 247.05 404.61 251.29 406.45 253.65 C 408.85 255.90 411.16 252.35 410.89 250.01 C 411.20 248.00 409.82 244.51 407.35 245.32 Z" />
<path fill="#71542c" opacity="1.00" d=" M 335.54 290.31 C 339.94 280.27 344.33 270.22 348.73 260.17 C 373.25 265.76 397.75 271.45 422.25 277.12 C 417.62 292.17 411.28 307.39 399.83 318.59 C 378.34 309.31 356.98 299.71 335.54 290.31 M 372.37 268.31 C 369.34 271.28 368.94 276.09 369.98 280.03 C 370.36 282.17 371.89 284.07 373.98 284.77 C 376.58 284.49 377.91 281.93 378.51 279.67 C 379.29 276.17 378.96 272.20 376.84 269.21 C 375.89 267.83 373.76 267.46 372.37 268.31 M 385.28 272.29 C 382.18 275.26 382.05 280.40 383.94 284.06 C 384.79 285.72 387.22 287.44 388.96 286.01 C 392.70 283.69 392.56 278.41 391.31 274.72 C 390.67 272.25 387.41 270.51 385.28 272.29 M 401.35 275.43 C 396.32 277.64 396.56 286.81 401.95 288.41 C 409.26 288.38 408.60 274.30 401.35 275.43 Z" />
<path fill="#71542c" opacity="1.00" d=" M 282.80 344.99 C 286.56 342.48 290.32 339.98 294.07 337.47 C 298.14 341.40 302.00 345.56 306.17 349.38 C 304.38 350.96 301.78 352.34 301.68 355.05 C 301.58 358.39 303.96 361.67 307.07 362.80 C 310.51 363.68 312.92 360.49 315.31 358.62 C 320.10 363.63 325.21 368.32 329.89 373.44 C 323.63 380.36 316.75 386.71 309.15 392.13 C 300.37 376.41 291.51 360.74 282.80 344.99 Z" />
<path fill="#71542c" opacity="1.00" d=" M 264.11 360.07 C 268.16 354.23 272.82 348.81 277.10 343.13 C 280.15 348.50 283.01 353.98 286.19 359.28 C 282.44 362.85 278.57 366.46 276.07 371.05 C 275.41 372.38 274.56 374.08 275.63 375.44 C 277.30 376.38 279.10 375.32 280.61 374.57 C 284.18 372.53 287.44 370.00 290.90 367.77 C 291.69 369.29 292.51 370.79 293.38 372.27 C 289.37 376.37 285.29 380.63 282.92 385.94 C 282.00 387.64 282.60 389.57 282.89 391.35 C 289.44 390.17 292.91 384.04 297.77 380.18 C 300.20 384.85 302.85 389.41 305.39 394.04 C 292.85 405.20 278.42 413.96 263.92 422.28 C 264.03 401.55 263.63 380.78 264.11 360.07 Z" />
<path fill="#71542c" opacity="1.00" d=" M 236.61 392.52 C 246.90 387.25 249.47 375.18 254.44 365.76 C 256.05 383.09 257.89 400.67 255.12 417.98 C 253.44 428.41 249.21 439.07 240.71 445.78 C 233.21 451.83 223.46 453.98 214.04 454.57 C 182.00 457.18 149.91 459.78 117.74 460.00 L 111.36 460.00 C 96.76 459.25 81.55 456.97 68.98 449.01 C 65.59 446.62 61.01 443.09 62.50 438.35 C 65.93 427.66 70.93 417.56 75.35 407.25 C 79.98 406.96 84.61 406.73 89.25 406.52 C 86.72 411.53 85.83 417.41 87.26 422.89 C 88.57 426.99 92.89 429.24 96.95 429.65 C 101.76 430.17 107.41 429.70 110.84 425.86 C 113.70 422.65 113.11 418.00 113.16 414.02 C 113.25 410.77 112.31 407.59 110.32 405.00 C 115.86 405.17 121.37 404.47 126.90 404.22 C 126.45 409.44 125.50 414.88 126.96 420.01 C 128.99 424.56 134.73 424.38 138.94 424.24 C 142.78 424.30 147.41 422.78 148.50 418.64 C 149.58 413.35 149.02 407.77 146.92 402.79 C 151.47 402.59 156.02 402.26 160.55 401.79 C 160.19 406.86 159.17 412.49 161.82 417.13 C 164.74 421.37 170.58 420.44 175.04 420.40 C 178.28 420.53 181.58 418.63 182.37 415.35 C 183.40 410.23 183.47 404.41 180.14 400.07 C 183.92 400.12 187.69 399.66 191.46 399.41 C 190.32 405.04 189.89 410.89 190.70 416.58 C 191.51 420.32 195.96 420.48 199.04 420.48 C 203.62 420.37 208.93 420.87 212.60 417.58 C 215.35 415.21 214.85 411.25 215.00 407.99 C 215.16 404.19 214.65 400.38 213.02 396.91 C 220.93 395.90 229.06 395.22 236.61 392.52 Z" />
</g>
<g id="#be583bff">
<path fill="#be583b" opacity="1.00" d=" M 223.85 375.45 C 231.36 374.31 238.80 372.11 245.09 367.73 C 242.78 376.16 238.80 385.28 230.50 389.31 C 221.03 393.37 210.20 389.99 201.92 384.72 C 210.22 383.94 215.66 376.44 223.85 375.45 Z" />
</g>
<g id="#a9916bff">
<path fill="#a9916b" opacity="1.00" d=" M 191.46 399.41 C 192.63 397.98 193.77 395.95 195.89 396.02 C 201.59 395.95 207.46 395.32 213.02 396.91 C 214.65 400.38 215.16 404.19 215.00 407.99 C 214.85 411.25 215.35 415.21 212.60 417.58 C 208.93 420.87 203.62 420.37 199.04 420.48 C 195.96 420.48 191.51 420.32 190.70 416.58 C 189.89 410.89 190.32 405.04 191.46 399.41 Z" />
<path fill="#a9916b" opacity="1.00" d=" M 160.55 401.79 C 161.98 401.02 163.34 399.89 165.03 399.79 C 170.06 399.42 175.12 399.63 180.14 400.07 C 183.47 404.41 183.40 410.23 182.37 415.35 C 181.58 418.63 178.28 420.53 175.04 420.40 C 170.58 420.44 164.74 421.37 161.82 417.13 C 159.17 412.49 160.19 406.86 160.55 401.79 Z" />
<path fill="#a9916b" opacity="1.00" d=" M 126.90 404.22 C 128.46 403.14 129.91 401.53 131.98 401.61 C 136.96 401.52 142.17 400.88 146.92 402.79 C 149.02 407.77 149.58 413.35 148.50 418.64 C 147.41 422.78 142.78 424.30 138.94 424.24 C 134.73 424.38 128.99 424.56 126.96 420.01 C 125.50 414.88 126.45 409.44 126.90 404.22 Z" />
<path fill="#a9916b" opacity="1.00" d=" M 89.25 406.52 C 91.66 405.12 94.15 403.56 97.04 403.53 C 101.49 403.36 106.20 402.92 110.32 405.00 C 112.31 407.59 113.25 410.77 113.16 414.02 C 113.11 418.00 113.70 422.65 110.84 425.86 C 107.41 429.70 101.76 430.17 96.95 429.65 C 92.89 429.24 88.57 426.99 87.26 422.89 C 85.83 417.41 86.72 411.53 89.25 406.52 Z" />
</g>
</svg>
