<?xml version="1.0" encoding="UTF-8" ?>
<!DOCTYPE svg PUBLIC "-//W3C//DTD SVG 1.1//EN" "http://www.w3.org/Graphics/SVG/1.1/DTD/svg11.dtd">
<svg width="513pt" height="492pt" viewBox="0 0 513 492" version="1.1" xmlns="http://www.w3.org/2000/svg">
<g id="#a68f6dfc">
<path fill="#a68f6d" opacity="1.00" d=" M 76.13 30.40 C 80.48 18.48 88.12 7.54 98.41 0.01 C 96.90 11.67 96.41 23.45 96.50 35.20 C 95.86 29.32 92.06 24.55 88.18 20.37 C 83.65 23.03 79.22 26.08 76.13 30.40 Z" />
<path fill="#a68f6d" opacity="1.00" d=" M 414.59 0.01 C 424.89 7.53 432.52 18.50 436.88 30.43 C 433.80 26.08 429.35 23.03 424.82 20.37 C 421.27 24.33 417.35 28.62 417.00 34.21 C 416.84 34.33 416.53 34.55 416.37 34.67 C 416.73 23.09 415.99 11.50 414.59 0.01 Z" />
<path fill="#a68f6d" opacity="1.00" d=" M 195.18 30.77 C 199.10 36.84 200.12 44.18 201.03 51.20 C 199.90 48.56 197.77 46.62 195.49 44.97 C 193.05 51.52 188.54 57.13 182.80 61.09 C 190.22 52.71 193.56 41.64 195.18 30.77 Z" />
<path fill="#a68f6d" opacity="1.00" d=" M 311.97 51.18 C 312.85 44.14 313.92 36.80 317.85 30.71 C 319.35 41.62 322.79 52.67 330.18 61.07 C 324.44 57.12 319.94 51.49 317.48 44.96 C 315.23 46.62 313.10 48.56 311.97 51.18 Z" />
<path fill="#a68f6d" opacity="1.00" d=" M 12.96 62.09 C 13.70 53.85 17.74 45.78 24.49 40.84 C 22.52 50.37 22.78 60.13 22.55 69.77 C 22.15 68.10 22.27 66.37 22.31 64.67 C 20.62 62.01 18.56 59.62 16.35 57.38 C 15.28 59.45 14.21 61.52 13.03 63.54 L 12.96 62.09 Z" />
<path fill="#a68f6d" opacity="1.00" d=" M 488.50 40.84 C 495.55 45.77 498.95 54.09 500.38 62.29 C 498.26 62.97 497.85 58.71 496.63 57.39 C 494.69 59.55 492.37 61.50 491.13 64.18 C 490.82 65.97 490.83 67.80 490.63 69.60 L 490.36 70.30 C 490.40 60.47 490.40 50.55 488.50 40.84 Z" />
<path fill="#a68f6d" opacity="1.00" d=" M 170.54 102.72 C 171.57 105.44 172.15 108.29 172.52 111.17 L 172.26 111.41 C 168.97 114.48 165.75 117.70 161.88 120.09 C 165.81 114.89 168.67 108.95 170.54 102.72 Z" />
<path fill="#a68f6d" opacity="1.00" d=" M 340.46 111.18 C 340.85 108.28 341.45 105.41 342.41 102.65 C 344.31 108.90 347.17 114.87 351.11 120.09 C 347.27 117.73 344.10 114.51 340.79 111.49 L 340.46 111.18 Z" />
<path fill="#a68f6d" opacity="1.00" d=" M 17.87 145.21 C 14.58 137.03 12.88 127.41 16.40 119.02 C 20.14 129.84 27.84 139.89 38.88 143.89 C 30.92 142.44 23.16 139.80 16.24 135.54 C 17.61 148.83 28.23 159.42 40.33 163.94 C 29.87 162.86 21.66 154.62 17.87 145.21 Z" />
<path fill="#a68f6d" opacity="1.00" d=" M 474.07 143.90 C 485.29 139.97 492.70 129.67 496.81 118.96 C 500.40 129.39 497.94 141.13 492.44 150.44 C 488.25 157.60 480.97 163.02 472.62 163.95 C 484.78 159.48 495.34 148.80 496.78 135.52 C 489.84 139.79 482.06 142.45 474.07 143.90 Z" />
<path fill="#a68f6d" opacity="1.00" d=" M 78.99 222.55 C 73.70 217.73 71.66 209.16 75.36 202.81 C 77.29 207.54 80.90 211.29 85.27 213.88 C 81.34 212.67 78.26 209.87 75.33 207.11 C 73.74 212.61 76.20 217.94 78.99 222.55 Z" />
<path fill="#a68f6d" opacity="1.00" d=" M 437.60 202.83 C 441.37 209.13 439.25 217.71 434.02 222.54 C 436.76 217.91 439.27 212.60 437.65 207.11 C 434.74 209.84 431.70 212.64 427.80 213.84 C 432.10 211.25 435.73 207.56 437.60 202.83 Z" />
</g>
<g id="#3b2814ff">
<path fill="#3b2814" opacity="1.00" d=" M 76.13 30.40 C 79.22 26.08 83.65 23.03 88.18 20.37 C 92.06 24.55 95.86 29.32 96.50 35.20 C 96.27 41.82 96.28 49.00 100.28 54.64 C 106.66 63.80 118.40 67.15 129.03 67.63 C 141.35 67.71 153.66 67.67 165.97 67.65 C 172.18 67.61 178.00 64.86 182.80 61.09 C 188.54 57.13 193.05 51.52 195.49 44.97 C 197.77 46.62 199.90 48.56 201.03 51.20 C 201.31 57.87 201.53 65.03 197.92 70.95 C 191.69 81.58 179.44 88.87 166.98 88.15 C 150.64 88.17 134.29 88.01 117.95 88.23 C 112.76 88.20 108.86 93.07 108.83 98.03 C 108.62 107.04 108.82 116.05 108.76 125.07 C 120.83 125.06 132.91 125.09 144.99 125.06 C 150.96 125.12 156.90 123.37 161.88 120.09 C 165.75 117.70 168.97 114.48 172.26 111.41 C 172.25 119.69 170.93 128.34 166.34 135.40 C 162.60 141.21 156.10 145.46 149.08 145.52 C 136.30 145.55 123.52 145.51 110.75 145.54 C 111.02 165.14 122.87 182.37 136.97 195.06 C 148.59 205.21 162.11 214.23 177.53 217.09 C 168.51 208.75 159.01 200.94 149.91 192.69 C 153.33 192.65 156.76 192.66 160.19 192.72 C 162.81 194.32 164.11 197.06 165.30 199.76 C 167.11 203.77 172.34 203.17 175.92 202.68 C 180.71 201.52 179.84 194.92 184.20 193.02 C 188.40 192.26 192.71 192.81 196.95 192.69 C 191.58 197.54 186.04 202.19 180.67 207.03 C 184.77 210.41 188.46 214.39 192.98 217.19 C 207.98 217.54 223.01 217.23 238.02 217.33 C 238.04 223.47 238.04 229.60 238.02 235.74 C 232.55 235.73 227.09 235.75 221.63 235.73 C 220.25 235.72 218.88 235.71 217.51 235.70 C 217.53 249.32 217.51 262.94 217.52 276.56 C 224.95 284.08 229.59 293.75 233.63 303.38 C 238.80 316.02 242.83 329.09 246.23 342.31 C 253.07 342.33 259.92 342.33 266.76 342.31 C 270.63 327.34 275.22 312.50 281.53 298.36 C 285.10 290.50 289.31 282.76 295.47 276.60 C 295.49 262.96 295.49 249.33 295.47 235.70 C 294.10 235.71 292.73 235.72 291.37 235.73 C 285.91 235.75 280.44 235.73 274.98 235.74 C 274.96 229.60 274.96 223.46 274.98 217.33 C 288.98 217.36 302.98 217.30 316.98 217.36 C 318.52 217.30 320.25 217.51 321.49 216.37 C 325.23 213.39 328.77 210.16 332.38 207.03 C 329.36 204.28 326.19 201.70 323.25 198.87 C 325.73 197.57 326.22 194.63 327.80 192.56 C 332.34 195.71 336.37 199.52 340.70 202.94 C 343.60 200.09 346.32 197.06 349.31 194.29 C 350.32 193.14 351.86 192.95 353.27 192.64 C 355.18 193.83 355.38 196.55 356.64 198.35 C 349.67 204.73 342.35 210.72 335.41 217.13 C 347.33 215.01 358.09 208.85 367.77 201.82 C 380.94 191.94 392.66 179.26 398.68 163.73 C 400.96 157.94 402.03 151.74 402.26 145.54 C 389.49 145.51 376.72 145.55 363.96 145.53 C 356.65 145.47 349.93 140.90 346.24 134.76 C 342.03 127.82 340.67 119.50 340.79 111.49 C 344.10 114.51 347.27 117.73 351.11 120.09 C 356.10 123.37 362.03 125.12 368.00 125.06 C 380.08 125.09 392.16 125.06 404.24 125.07 C 404.18 116.08 404.37 107.08 404.17 98.10 C 404.15 93.12 400.27 88.21 395.06 88.22 C 377.71 87.99 360.35 88.22 343.00 88.12 C 335.11 88.02 327.66 84.28 321.82 79.16 C 316.55 74.54 312.44 68.11 312.02 60.98 C 311.82 57.72 311.77 54.44 311.97 51.18 C 313.10 48.56 315.23 46.62 317.48 44.96 C 319.94 51.49 324.44 57.12 330.18 61.07 C 334.97 64.85 340.79 67.61 346.99 67.65 C 359.34 67.67 371.70 67.71 384.06 67.62 C 393.99 67.15 404.70 64.24 411.39 56.40 C 416.47 50.49 417.17 42.18 416.26 34.74 L 416.37 34.67 C 416.53 34.55 416.84 34.33 417.00 34.21 C 417.35 28.62 421.27 24.33 424.82 20.37 C 429.35 23.03 433.80 26.08 436.88 30.43 C 437.36 49.27 436.92 68.14 437.08 86.99 C 437.10 88.12 437.17 90.39 438.90 90.10 C 447.27 90.37 455.66 90.12 464.04 90.21 C 472.35 90.28 481.29 87.26 486.24 80.25 C 488.47 77.34 489.15 73.68 490.36 70.30 L 490.63 69.60 C 490.83 67.80 490.82 65.97 491.13 64.18 C 492.37 61.50 494.69 59.55 496.63 57.39 C 497.85 58.71 498.26 62.97 500.38 62.29 C 501.28 69.13 500.42 76.10 500.69 82.99 C 501.05 91.58 494.21 98.38 487.00 101.87 C 472.10 109.11 455.09 108.52 438.95 108.75 C 437.16 108.43 437.06 110.74 437.07 111.91 C 437.10 122.32 437.00 132.73 437.12 143.14 C 436.80 146.01 440.14 145.54 442.00 145.57 C 452.70 145.25 463.56 146.47 474.07 143.90 C 482.06 142.45 489.84 139.79 496.78 135.52 C 495.34 148.80 484.78 159.48 472.62 163.95 C 460.96 167.80 448.51 164.91 436.58 166.80 C 434.97 167.13 432.79 167.85 433.09 169.94 C 432.64 181.97 430.94 194.65 423.80 204.72 C 421.29 208.52 417.47 211.08 414.04 213.97 C 418.42 215.79 423.42 215.59 427.80 213.84 C 431.70 212.64 434.74 209.84 437.65 207.11 C 439.27 212.60 436.76 217.91 434.02 222.54 C 430.38 226.13 426.00 229.15 421.02 230.50 C 415.14 232.11 408.99 231.57 402.96 231.67 C 394.17 231.76 385.33 231.68 376.58 232.72 C 374.26 233.16 371.65 233.27 369.76 234.86 C 369.04 236.40 369.45 238.23 369.28 239.89 C 355.64 239.88 342.00 239.87 328.36 239.89 C 334.43 252.76 340.57 265.59 346.62 278.46 C 351.95 271.35 356.35 263.59 361.14 256.12 C 360.44 254.79 359.75 253.46 359.05 252.14 C 354.97 252.13 350.90 252.13 346.82 252.14 C 346.80 253.49 346.79 254.84 346.78 256.19 C 349.51 256.24 352.24 256.26 354.98 256.27 C 352.93 260.30 351.11 264.46 348.72 268.32 C 344.65 260.20 340.58 252.07 336.53 243.94 C 348.84 243.92 361.15 243.93 373.47 243.94 C 373.47 246.66 373.47 249.39 373.48 252.12 C 361.23 269.89 348.87 287.58 336.64 305.36 C 332.93 299.41 329.84 293.11 326.24 287.10 C 317.77 304.98 308.86 322.66 300.71 340.69 L 300.61 340.71 C 297.91 341.77 295.50 340.46 293.43 338.76 C 284.53 351.49 277.59 365.49 268.92 378.38 C 263.45 368.18 259.67 357.17 254.60 346.77 C 252.31 349.75 250.30 352.94 248.46 356.21 C 243.78 351.36 240.44 345.44 235.93 340.45 C 232.80 346.86 230.95 353.83 227.49 360.09 C 225.08 358.63 222.64 357.23 220.26 355.74 C 208.69 333.05 198.18 309.78 186.57 287.11 C 183.28 293.26 180.00 299.41 176.37 305.36 C 164.57 288.24 152.71 271.15 140.84 254.08 C 138.59 251.19 139.79 247.30 139.54 243.94 C 151.85 243.93 164.17 243.92 176.48 243.94 C 172.41 252.07 168.36 260.21 164.27 268.33 C 161.91 264.46 160.05 260.31 158.06 256.25 C 160.77 256.25 163.48 256.24 166.19 256.20 C 166.20 254.86 166.20 253.51 166.22 252.18 C 162.13 252.12 158.04 252.13 153.96 252.13 C 153.26 253.46 152.56 254.79 151.86 256.11 C 156.36 263.32 160.84 270.56 165.58 277.61 C 165.81 277.71 166.27 277.92 166.50 278.03 C 172.66 265.37 178.59 252.61 184.63 239.89 C 170.99 239.87 157.36 239.88 143.72 239.89 C 143.67 238.33 143.69 236.78 143.50 235.24 C 141.98 233.33 139.23 233.31 137.04 232.82 C 124.32 231.22 111.46 231.93 98.67 231.56 C 91.20 231.39 84.16 227.84 78.99 222.55 C 76.20 217.94 73.74 212.61 75.33 207.11 C 78.26 209.87 81.34 212.67 85.27 213.88 C 89.62 215.61 94.56 215.74 98.94 214.01 C 95.57 211.07 91.72 208.55 89.22 204.75 C 82.04 194.68 80.35 181.96 79.91 169.91 C 80.18 167.72 77.78 167.06 76.11 166.74 C 64.26 164.97 51.91 167.78 40.33 163.94 C 28.23 159.42 17.61 148.83 16.24 135.54 C 23.16 139.80 30.92 142.44 38.88 143.89 C 49.38 146.46 60.22 145.25 70.90 145.57 C 72.78 145.57 76.26 146.00 75.88 143.05 C 75.96 132.35 75.97 121.63 75.88 110.92 C 76.10 109.24 74.50 108.40 73.03 108.69 C 58.96 108.66 44.47 108.81 31.04 104.00 C 24.29 101.53 17.51 97.58 14.10 90.99 C 11.73 86.74 12.39 81.72 12.32 77.05 C 12.45 72.07 11.65 66.99 12.96 62.09 L 13.03 63.54 C 14.21 61.52 15.28 59.45 16.35 57.38 C 18.56 59.62 20.62 62.01 22.31 64.67 C 22.27 66.37 22.15 68.10 22.55 69.77 L 22.60 70.01 C 23.72 74.01 24.86 78.18 27.63 81.39 C 32.98 87.91 41.81 90.42 49.98 90.22 C 58.01 90.09 66.05 90.39 74.08 90.10 C 75.77 90.30 75.97 88.17 75.92 87.00 C 76.09 68.14 75.64 49.25 76.13 30.40 M 86.13 37.58 C 84.90 39.70 83.76 41.87 82.69 44.07 C 84.91 44.07 87.14 44.04 89.36 44.00 C 88.82 41.63 87.69 39.44 86.13 37.58 M 423.55 44.06 C 425.79 44.07 428.03 44.06 430.28 44.04 C 429.20 41.85 428.06 39.69 426.85 37.56 C 425.28 39.46 424.21 41.70 423.55 44.06 M 84.86 64.06 C 87.36 64.12 89.87 64.10 92.37 64.04 C 91.14 62.20 89.88 60.39 88.59 58.60 C 87.22 60.33 85.96 62.15 84.86 64.06 M 424.34 58.63 C 423.08 60.41 421.84 62.21 420.63 64.04 C 423.14 64.08 425.65 64.09 428.16 64.02 C 427.04 62.12 425.75 60.33 424.34 58.63 M 181.87 68.22 C 182.89 69.64 183.93 71.06 185.00 72.45 C 186.01 70.60 186.86 68.67 187.55 66.67 C 185.65 67.15 183.76 67.67 181.87 68.22 M 325.46 66.70 C 325.97 68.83 326.96 70.76 328.52 72.30 C 329.37 70.94 330.21 69.56 331.05 68.19 C 329.19 67.66 327.33 67.17 325.46 66.70 M 119.28 73.03 C 119.17 75.74 119.20 78.45 119.34 81.16 C 121.14 80.13 122.89 79.01 124.59 77.83 C 123.06 75.98 121.26 74.39 119.28 73.03 M 388.43 77.81 C 390.12 78.96 391.85 80.06 393.63 81.09 C 393.78 78.40 393.82 75.71 393.77 73.03 C 391.77 74.37 389.93 75.93 388.43 77.81 M 142.11 74.06 C 142.01 76.46 141.95 78.86 141.94 81.26 C 144.21 80.57 146.43 79.74 148.57 78.70 C 146.81 76.66 144.50 75.25 142.11 74.06 M 364.42 78.71 C 366.57 79.67 368.76 80.53 370.99 81.30 C 371.01 78.89 371.00 76.47 370.94 74.06 C 368.54 75.26 366.23 76.70 364.42 78.71 M 164.91 75.69 C 165.49 77.46 166.16 79.20 166.87 80.93 C 168.79 79.57 170.48 77.91 171.76 75.93 C 169.48 75.78 167.19 75.70 164.91 75.69 M 341.34 76.04 C 342.77 78.00 344.46 79.85 346.85 80.62 C 347.19 78.95 347.53 77.27 347.86 75.60 C 345.68 75.69 343.50 75.84 341.34 76.04 M 19.80 79.16 C 19.01 81.56 18.65 84.07 18.48 86.58 C 20.48 86.10 22.46 85.59 24.43 85.00 C 23.27 82.78 21.83 80.68 19.80 79.16 M 91.08 80.00 C 89.61 81.03 89.05 82.82 88.25 84.34 C 90.38 84.29 92.50 84.21 94.63 84.10 C 93.75 82.64 93.16 79.96 91.08 80.00 M 418.31 84.01 C 420.46 84.16 422.61 84.28 424.77 84.37 C 423.86 82.69 422.91 81.03 421.89 79.42 C 420.35 80.66 419.15 82.22 418.31 84.01 M 488.52 85.01 C 490.52 85.56 492.52 86.06 494.54 86.53 C 494.28 84.06 493.87 81.61 493.21 79.22 C 491.13 80.69 489.54 82.68 488.52 85.01 M 31.78 93.82 C 33.07 96.25 34.65 98.53 36.60 100.48 C 38.19 98.45 39.56 96.27 40.70 93.95 C 37.73 93.77 34.75 93.74 31.78 93.82 M 472.35 93.99 C 473.47 96.28 474.83 98.43 476.37 100.47 C 478.37 98.54 479.92 96.22 481.18 93.76 C 478.24 93.73 475.29 93.81 472.35 93.99 M 55.20 97.75 C 56.87 99.73 58.73 101.54 60.75 103.16 C 61.56 100.72 62.31 98.26 63.01 95.79 C 60.33 96.10 57.72 96.80 55.20 97.75 M 449.93 95.78 C 450.65 98.25 451.43 100.70 452.25 103.15 C 454.28 101.56 456.15 99.76 457.79 97.76 C 455.26 96.76 452.63 96.05 449.93 95.78 M 82.58 113.01 C 87.88 113.25 93.19 113.18 98.49 112.94 C 96.39 108.89 93.01 105.71 90.10 102.25 C 87.50 105.77 84.86 109.27 82.58 113.01 M 414.56 112.91 C 419.83 113.23 425.12 113.27 430.39 112.97 C 428.14 109.25 425.58 105.74 422.93 102.30 C 420.04 105.74 416.61 108.85 414.56 112.91 M 153.49 130.93 C 154.58 132.69 155.81 134.37 157.14 135.95 C 158.52 134.07 159.22 131.84 159.66 129.58 C 157.59 129.98 155.53 130.42 153.49 130.93 M 353.34 129.59 C 354.09 131.51 353.84 134.46 355.95 135.48 C 357.70 134.42 358.53 132.47 359.57 130.81 C 357.52 130.30 355.43 129.91 353.34 129.59 M 116.88 133.46 C 116.88 135.44 116.90 137.43 116.94 139.41 C 118.94 138.53 120.84 137.44 122.54 136.06 C 120.73 135.04 118.83 134.18 116.88 133.46 M 135.57 133.89 C 135.71 136.08 135.87 138.26 136.05 140.45 C 137.86 139.02 141.53 138.07 141.17 135.28 C 139.33 134.70 137.45 134.30 135.57 133.89 M 371.67 135.25 C 371.73 138.11 375.02 138.98 376.97 140.42 C 377.14 138.26 377.29 136.11 377.43 133.96 C 375.50 134.33 373.56 134.73 371.67 135.25 M 390.44 136.13 C 392.22 137.33 394.11 138.40 396.06 139.33 C 396.07 137.35 396.07 135.37 396.05 133.39 C 394.13 134.20 392.25 135.11 390.44 136.13 M 82.86 146.03 C 88.69 146.48 94.54 146.44 100.39 146.27 C 97.65 142.22 94.37 138.57 91.58 134.56 C 88.05 137.87 85.68 142.15 82.86 146.03 M 421.47 134.56 C 418.63 138.53 415.36 142.19 412.65 146.26 C 418.47 146.51 424.29 146.41 430.11 146.07 C 427.39 142.12 425.00 137.87 421.47 134.56 M 32.45 149.55 C 33.15 151.72 33.03 154.65 34.93 156.17 C 37.20 155.56 38.07 152.87 39.43 151.14 C 37.13 150.52 34.79 150.01 32.45 149.55 M 473.62 151.16 C 475.05 152.87 475.96 156.36 478.69 155.92 C 479.61 153.90 480.06 151.71 480.57 149.55 C 478.23 150.01 475.91 150.54 473.62 151.16 M 45.57 153.95 C 46.79 156.40 48.36 158.66 50.16 160.71 C 51.56 158.62 52.59 156.32 53.36 153.93 C 50.76 153.86 48.17 153.86 45.57 153.95 M 60.63 156.39 C 62.54 158.41 64.95 159.77 67.60 160.59 C 67.63 158.17 67.61 155.75 67.55 153.33 C 65.18 154.19 62.86 155.21 60.63 156.39 M 445.46 153.36 C 445.41 155.75 445.40 158.13 445.43 160.52 C 447.71 159.64 450.61 159.23 452.09 157.07 C 450.98 154.70 447.65 154.40 445.46 153.36 M 459.64 153.87 C 460.37 156.28 461.38 158.61 462.79 160.71 C 464.61 158.66 466.19 156.41 467.47 153.99 C 464.86 153.88 462.25 153.84 459.64 153.87 M 92.46 178.16 C 97.91 177.35 103.23 175.91 108.62 174.80 C 106.25 170.58 102.16 167.72 99.50 163.69 C 96.15 167.94 94.47 173.21 92.46 178.16 M 404.40 174.80 C 409.77 175.90 415.10 177.27 420.51 178.18 C 418.82 173.13 416.45 168.33 413.91 163.66 C 410.74 167.37 406.89 170.56 404.40 174.80 M 111.06 194.71 C 110.14 198.55 109.69 202.48 109.69 206.43 C 114.41 204.30 119.10 202.02 123.47 199.24 C 119.45 197.43 115.33 195.81 111.06 194.71 M 389.57 199.26 C 393.86 202.12 398.65 204.12 403.28 206.36 C 403.26 202.42 402.81 198.50 401.99 194.66 C 397.75 195.90 393.65 197.56 389.57 199.26 M 129.63 211.48 C 129.90 214.92 130.34 218.35 131.12 221.72 C 134.72 219.36 138.70 217.10 140.92 213.26 C 137.20 212.38 133.42 211.83 129.63 211.48 M 372.12 213.26 C 374.34 217.07 378.24 219.37 381.87 221.64 C 382.69 218.30 383.11 214.87 383.35 211.44 C 379.59 211.94 375.84 212.52 372.12 213.26 M 82.51 217.71 C 83.06 219.89 83.91 221.98 84.95 223.97 C 86.54 222.42 88.06 220.80 89.47 219.09 C 87.18 218.48 84.85 218.04 82.51 217.71 M 423.60 219.08 C 425.06 220.57 426.30 223.68 428.76 223.21 C 429.45 221.42 429.92 219.56 430.38 217.70 C 428.10 218.07 425.84 218.52 423.60 219.08 M 98.56 222.82 C 100.61 224.20 102.79 225.40 105.05 226.42 C 105.10 224.06 105.11 221.70 105.09 219.35 C 102.66 219.98 100.45 221.17 98.56 222.82 M 407.95 219.33 C 407.90 221.72 407.89 224.12 407.91 226.51 C 410.17 225.45 412.35 224.23 414.44 222.85 C 412.58 221.16 410.38 219.95 407.95 219.33 M 158.53 221.05 C 159.76 223.77 161.44 226.26 163.32 228.57 C 165.02 226.18 165.96 223.38 166.49 220.52 C 163.83 220.66 161.18 220.84 158.53 221.05 M 346.55 220.60 C 347.15 223.32 348.00 225.98 349.16 228.53 C 351.59 226.55 353.22 223.85 354.42 220.99 C 351.80 220.82 349.17 220.69 346.55 220.60 M 182.05 226.00 C 183.75 227.84 185.66 229.46 187.91 230.59 C 188.53 228.00 188.95 225.38 189.26 222.75 C 186.73 223.52 184.26 224.53 182.05 226.00 M 199.37 226.76 C 201.51 228.16 203.74 229.42 206.08 230.46 C 206.15 227.80 206.14 225.14 206.06 222.48 C 203.54 223.40 201.19 224.77 199.37 226.76 M 217.79 225.15 C 217.10 227.73 220.54 228.07 222.06 229.29 C 222.07 227.13 222.06 224.97 222.03 222.81 C 220.59 223.55 219.14 224.26 217.79 225.15 M 290.96 222.79 C 290.93 224.95 290.93 227.11 290.95 229.27 C 292.51 228.10 295.72 227.74 295.32 225.22 C 293.92 224.31 292.43 223.56 290.96 222.79 M 306.93 222.53 C 306.85 225.20 306.85 227.88 306.92 230.56 C 309.27 229.49 311.51 228.18 313.64 226.70 C 311.81 224.72 309.50 223.30 306.93 222.53 M 323.72 222.63 C 324.05 225.29 324.47 227.94 325.06 230.55 C 326.95 229.18 330.57 228.28 330.57 225.57 C 328.48 224.18 326.06 223.45 323.72 222.63 Z" />
<path fill="#3b2814" opacity="1.00" d=" M 7.67 171.94 C 8.23 166.36 8.32 160.61 10.40 155.32 C 13.80 164.83 14.56 175.01 15.78 184.96 C 16.58 190.20 15.47 195.96 18.27 200.73 C 22.18 207.33 28.72 211.75 33.32 217.79 C 34.39 219.08 34.69 220.76 34.90 222.37 C 30.20 221.93 25.70 220.34 21.00 219.96 C 17.72 221.98 15.67 225.43 13.13 228.24 C 10.62 219.92 6.18 211.95 6.21 203.05 C 6.23 192.67 6.94 182.30 7.67 171.94 Z" />
<path fill="#3b2814" opacity="1.00" d=" M 502.54 155.36 C 503.54 157.77 504.16 160.32 504.44 162.91 C 505.57 172.90 506.10 182.96 506.56 193.00 C 506.69 198.65 507.25 204.40 505.99 209.97 C 504.55 216.23 501.76 222.05 499.89 228.17 C 497.44 225.21 494.84 222.37 492.11 219.66 C 487.48 220.74 482.81 221.73 478.10 222.39 C 478.29 220.73 478.62 219.01 479.74 217.70 C 484.22 211.92 490.40 207.60 494.34 201.38 C 497.59 196.52 496.39 190.39 497.21 184.91 C 498.41 174.99 499.24 164.86 502.54 155.36 Z" />
<path fill="#3b2814" opacity="1.00" d=" M 161.29 176.42 C 162.85 176.11 164.64 176.03 165.97 177.06 C 166.21 178.76 166.88 181.43 164.91 182.35 C 163.36 182.51 160.72 183.00 160.16 181.02 C 159.98 179.48 159.58 177.25 161.29 176.42 Z" />
<path fill="#3b2814" opacity="1.00" d=" M 179.46 176.49 C 181.12 176.17 183.33 175.80 184.51 177.34 C 184.75 179.03 185.27 181.70 183.16 182.42 C 181.69 182.68 180.28 182.51 178.94 181.91 C 178.36 180.17 178.00 177.90 179.46 176.49 Z" />
<path fill="#3b2814" opacity="1.00" d=" M 226.65 262.27 C 223.52 253.67 227.72 243.53 235.98 239.62 C 236.01 250.02 236.00 260.42 235.99 270.81 C 231.90 269.35 228.07 266.52 226.65 262.27 Z" />
<path fill="#3b2814" opacity="1.00" d=" M 277.01 239.63 C 283.42 242.83 287.89 249.68 287.28 256.97 C 287.50 263.31 283.02 269.02 277.01 270.80 C 277.00 260.41 276.98 250.02 277.01 239.63 Z" />
<path fill="#3b2814" opacity="1.00" d=" M 114.72 262.25 C 115.48 263.72 116.23 265.23 116.56 266.88 C 118.74 278.21 120.06 289.72 123.00 300.89 C 121.66 300.58 120.33 300.28 118.99 299.97 C 116.19 304.66 113.74 309.54 110.94 314.23 C 111.08 303.12 111.69 292.03 112.39 280.95 C 112.88 274.69 113.17 268.36 114.72 262.25 Z" />
<path fill="#3b2814" opacity="1.00" d=" M 396.44 266.87 C 396.72 265.22 397.52 263.74 398.32 262.30 C 399.46 266.94 399.86 271.70 400.26 276.45 C 401.19 289.02 401.85 301.61 402.07 314.22 C 399.41 310.00 397.46 305.36 394.69 301.22 C 393.75 299.50 391.57 300.75 390.05 300.63 C 392.96 289.54 394.27 278.11 396.44 266.87 Z" />
<path fill="#3b2814" opacity="1.00" d=" M 54.57 274.21 C 57.77 271.12 61.49 268.47 66.02 267.89 C 70.74 277.36 80.29 282.89 88.20 289.40 C 84.16 292.26 79.39 294.29 76.05 298.02 C 72.98 303.05 70.90 308.62 67.73 313.61 C 63.06 309.21 56.04 306.51 54.25 299.74 C 52.25 291.35 54.26 282.69 54.57 274.21 Z" />
<path fill="#3b2814" opacity="1.00" d=" M 424.85 289.40 C 432.75 282.88 442.30 277.34 446.99 267.85 C 451.50 268.51 455.21 271.15 458.43 274.22 C 458.72 282.71 460.76 291.38 458.73 299.77 C 456.92 306.54 449.91 309.27 445.22 313.66 C 442.83 309.65 440.77 305.46 438.81 301.23 C 436.35 295.20 429.72 293.01 424.85 289.40 Z" />
<path fill="#3b2814" opacity="1.00" d=" M 248.27 316.06 C 250.64 310.29 253.69 304.80 256.58 299.28 C 259.20 304.89 262.39 310.26 264.72 316.00 C 264.56 321.86 262.60 327.82 258.59 332.18 C 258.40 327.41 258.52 322.63 258.47 317.86 C 257.15 317.85 255.84 317.85 254.53 317.85 C 254.48 322.62 254.60 327.40 254.41 332.17 C 250.40 327.83 248.45 321.89 248.27 316.06 Z" />
<path fill="#3b2814" opacity="1.00" d=" M 14.39 315.19 C 21.52 316.85 28.38 319.45 35.45 321.33 C 36.32 328.88 38.31 336.60 43.16 342.63 C 37.78 342.59 32.40 342.63 27.03 342.81 C 26.74 354.30 27.26 365.80 26.77 377.28 C 21.71 371.05 19.33 363.17 17.68 355.44 C 15.05 342.20 14.52 328.65 14.39 315.19 Z" />
<path fill="#3b2814" opacity="1.00" d=" M 477.54 321.33 C 484.61 319.42 491.54 317.05 498.61 315.15 C 498.46 328.46 497.96 341.83 495.41 354.93 C 493.76 362.82 491.39 370.89 486.24 377.28 C 485.75 365.80 486.23 354.31 485.98 342.83 C 480.60 342.60 475.22 342.60 469.85 342.64 C 474.67 336.59 476.66 328.88 477.54 321.33 Z" />
<path fill="#3b2814" opacity="1.00" d=" M 70.17 355.21 C 73.73 349.47 79.40 345.35 84.04 340.51 C 89.96 344.86 94.80 350.45 100.56 354.99 C 100.94 365.47 99.38 376.17 102.08 386.43 C 98.12 384.44 94.37 382.08 90.69 379.62 C 85.26 386.51 81.47 394.52 76.03 401.40 C 74.37 392.00 73.49 382.49 72.12 373.05 C 71.62 367.09 70.02 361.21 70.17 355.21 Z" />
<path fill="#3b2814" opacity="1.00" d=" M 412.44 355.03 C 418.13 350.39 423.15 345.01 428.89 340.45 C 433.09 344.48 437.36 348.47 441.29 352.78 C 443.88 355.17 442.63 358.89 442.39 361.94 C 440.37 375.07 439.18 388.32 436.96 401.42 C 431.63 394.47 427.72 386.57 422.36 379.65 C 418.66 382.10 414.89 384.47 410.91 386.45 C 413.61 376.19 412.06 365.49 412.44 355.03 Z" />
<path fill="#3b2814" opacity="1.00" d=" M 127.97 380.14 C 133.40 375.16 138.30 369.64 143.83 364.77 C 148.06 367.73 152.23 370.80 156.74 373.34 C 159.11 385.42 162.44 397.27 165.52 409.18 C 158.69 403.70 152.41 397.57 145.88 391.74 C 140.49 398.04 136.31 405.29 130.75 411.45 C 129.57 401.04 128.67 390.60 127.97 380.14 Z" />
<path fill="#3b2814" opacity="1.00" d=" M 356.26 373.34 C 360.81 370.88 364.97 367.78 369.16 364.75 C 374.69 369.62 379.58 375.16 385.02 380.13 C 384.32 390.58 383.41 401.03 382.25 411.44 C 376.52 405.54 372.95 397.85 367.09 392.11 C 360.21 397.39 354.42 404.00 347.47 409.22 C 350.55 397.30 353.89 385.43 356.26 373.34 Z" />
<path fill="#3b2814" opacity="1.00" d=" M 184.40 371.30 C 186.65 371.49 188.91 371.67 191.16 371.87 C 194.02 380.05 197.67 388.13 203.28 394.81 C 205.37 397.37 208.22 399.30 211.50 399.93 C 207.30 401.26 201.33 400.53 199.18 405.22 C 197.51 407.95 195.99 410.76 194.36 413.51 C 188.83 407.41 182.44 401.89 178.46 394.57 C 176.55 391.30 176.39 387.43 176.46 383.75 C 179.85 380.11 182.06 375.63 184.40 371.30 Z" />
<path fill="#3b2814" opacity="1.00" d=" M 321.81 371.93 C 324.06 371.69 326.31 371.45 328.56 371.22 C 330.90 375.57 333.07 380.10 336.53 383.70 C 336.61 387.41 336.44 391.29 334.53 394.58 C 330.54 401.92 324.14 407.46 318.60 413.57 C 316.24 409.87 314.63 405.61 311.57 402.41 C 308.36 401.14 304.89 400.77 301.58 399.84 C 305.16 399.29 308.09 396.93 310.27 394.16 C 315.54 387.60 319.05 379.82 321.81 371.93 Z" />
<path fill="#3b2814" opacity="1.00" d=" M 239.86 401.26 C 243.29 405.90 244.71 411.58 247.36 416.64 C 249.08 420.29 251.67 423.40 253.94 426.71 C 252.08 426.78 250.22 426.85 248.36 426.93 C 247.60 429.42 246.79 431.90 246.14 434.43 C 243.96 423.40 240.45 412.54 239.86 401.26 Z" />
<path fill="#3b2814" opacity="1.00" d=" M 126.96 428.13 C 128.91 429.67 131.01 431.01 133.11 432.33 C 145.39 439.69 160.28 440.37 174.24 440.34 L 174.31 440.74 C 168.73 448.59 162.18 455.71 156.25 463.30 C 161.46 472.43 166.96 481.41 172.20 490.53 C 149.99 486.50 129.44 475.46 112.48 460.76 C 111.81 451.10 108.08 441.98 106.98 432.38 C 113.66 431.04 120.42 430.09 126.96 428.13 Z" />
<path fill="#3b2814" opacity="1.00" d=" M 379.89 432.33 C 382.01 431.03 384.11 429.69 386.05 428.14 C 392.63 430.01 399.39 431.08 406.10 432.36 C 404.86 441.95 401.23 451.11 400.52 460.78 C 383.59 475.45 363.11 486.51 340.94 490.51 C 346.02 481.33 351.51 472.38 356.81 463.33 C 350.91 455.68 344.28 448.61 338.68 440.74 L 338.76 440.33 C 352.71 440.34 367.63 439.76 379.89 432.33 Z" />
<path fill="#3b2814" opacity="1.00" d=" M 203.29 440.65 C 214.93 440.85 226.57 440.53 238.20 440.83 C 240.13 448.34 242.77 455.65 244.90 463.12 C 246.56 469.77 249.17 476.20 250.14 483.01 C 250.92 487.01 247.52 489.89 244.66 492.00 L 202.99 492.00 C 197.69 484.01 192.13 476.20 186.65 468.34 C 185.80 467.00 184.40 465.23 185.88 463.80 C 191.30 455.97 197.72 448.85 202.64 440.67 C 202.80 440.67 203.13 440.65 203.29 440.65 Z" />
<path fill="#3b2814" opacity="1.00" d=" M 274.80 440.81 C 286.44 440.68 298.08 440.68 309.72 440.74 L 310.41 440.74 C 315.77 449.33 322.34 457.09 328.29 465.28 C 322.36 474.31 315.98 483.02 309.98 492.00 L 268.32 492.00 C 265.81 490.01 262.59 487.65 262.80 484.07 C 263.31 478.05 265.57 472.37 267.10 466.57 C 269.50 457.93 272.53 449.48 274.80 440.81 Z" />
</g>
<g id="#553f2aff">
<path fill="#553f2a" opacity="1.00" d=" M 86.13 37.58 C 87.69 39.44 88.82 41.63 89.36 44.00 C 87.14 44.04 84.91 44.07 82.69 44.07 C 83.76 41.87 84.90 39.70 86.13 37.58 Z" />
<path fill="#553f2a" opacity="1.00" d=" M 423.55 44.06 C 424.21 41.70 425.28 39.46 426.85 37.56 C 428.06 39.69 429.20 41.85 430.28 44.04 C 428.03 44.06 425.79 44.07 423.55 44.06 Z" />
<path fill="#553f2a" opacity="1.00" d=" M 84.86 64.06 C 85.96 62.15 87.22 60.33 88.59 58.60 C 89.88 60.39 91.14 62.20 92.37 64.04 C 89.87 64.10 87.36 64.12 84.86 64.06 Z" />
<path fill="#553f2a" opacity="1.00" d=" M 424.34 58.63 C 425.75 60.33 427.04 62.12 428.16 64.02 C 425.65 64.09 423.14 64.08 420.63 64.04 C 421.84 62.21 423.08 60.41 424.34 58.63 Z" />
<path fill="#553f2a" opacity="1.00" d=" M 181.87 68.22 C 183.76 67.67 185.65 67.15 187.55 66.67 C 186.86 68.67 186.01 70.60 185.00 72.45 C 183.93 71.06 182.89 69.64 181.87 68.22 Z" />
<path fill="#553f2a" opacity="1.00" d=" M 325.46 66.70 C 327.33 67.17 329.19 67.66 331.05 68.19 C 330.21 69.56 329.37 70.94 328.52 72.30 C 326.96 70.76 325.97 68.83 325.46 66.70 Z" />
<path fill="#553f2a" opacity="1.00" d=" M 119.28 73.03 C 121.26 74.39 123.06 75.98 124.59 77.83 C 122.89 79.01 121.14 80.13 119.34 81.16 C 119.20 78.45 119.17 75.74 119.28 73.03 Z" />
<path fill="#553f2a" opacity="1.00" d=" M 388.43 77.81 C 389.93 75.93 391.77 74.37 393.77 73.03 C 393.82 75.71 393.78 78.40 393.63 81.09 C 391.85 80.06 390.12 78.96 388.43 77.81 Z" />
<path fill="#553f2a" opacity="1.00" d=" M 142.11 74.06 C 144.50 75.25 146.81 76.66 148.57 78.70 C 146.43 79.74 144.21 80.57 141.94 81.26 C 141.95 78.86 142.01 76.46 142.11 74.06 Z" />
<path fill="#553f2a" opacity="1.00" d=" M 364.42 78.71 C 366.23 76.70 368.54 75.26 370.94 74.06 C 371.00 76.47 371.01 78.89 370.99 81.30 C 368.76 80.53 366.57 79.67 364.42 78.71 Z" />
<path fill="#553f2a" opacity="1.00" d=" M 164.91 75.69 C 167.19 75.70 169.48 75.78 171.76 75.93 C 170.48 77.91 168.79 79.57 166.87 80.93 C 166.16 79.20 165.49 77.46 164.91 75.69 Z" />
<path fill="#553f2a" opacity="1.00" d=" M 341.34 76.04 C 343.50 75.84 345.68 75.69 347.86 75.60 C 347.53 77.27 347.19 78.95 346.85 80.62 C 344.46 79.85 342.77 78.00 341.34 76.04 Z" />
<path fill="#553f2a" opacity="1.00" d=" M 19.80 79.16 C 21.83 80.68 23.27 82.78 24.43 85.00 C 22.46 85.59 20.48 86.10 18.48 86.58 C 18.65 84.07 19.01 81.56 19.80 79.16 Z" />
<path fill="#553f2a" opacity="1.00" d=" M 91.08 80.00 C 93.16 79.96 93.75 82.64 94.63 84.10 C 92.50 84.21 90.38 84.29 88.25 84.34 C 89.05 82.82 89.61 81.03 91.08 80.00 Z" />
<path fill="#553f2a" opacity="1.00" d=" M 418.31 84.01 C 419.15 82.22 420.35 80.66 421.89 79.42 C 422.91 81.03 423.86 82.69 424.77 84.37 C 422.61 84.28 420.46 84.16 418.31 84.01 Z" />
<path fill="#553f2a" opacity="1.00" d=" M 488.52 85.01 C 489.54 82.68 491.13 80.69 493.21 79.22 C 493.87 81.61 494.28 84.06 494.54 86.53 C 492.52 86.06 490.52 85.56 488.52 85.01 Z" />
<path fill="#553f2a" opacity="1.00" d=" M 31.78 93.82 C 34.75 93.74 37.73 93.77 40.70 93.95 C 39.56 96.27 38.19 98.45 36.60 100.48 C 34.65 98.53 33.07 96.25 31.78 93.82 Z" />
<path fill="#553f2a" opacity="1.00" d=" M 472.35 93.99 C 475.29 93.81 478.24 93.73 481.18 93.76 C 479.92 96.22 478.37 98.54 476.37 100.47 C 474.83 98.43 473.47 96.28 472.35 93.99 Z" />
<path fill="#553f2a" opacity="1.00" d=" M 55.20 97.75 C 57.72 96.80 60.33 96.10 63.01 95.79 C 62.31 98.26 61.56 100.72 60.75 103.16 C 58.73 101.54 56.87 99.73 55.20 97.75 Z" />
<path fill="#553f2a" opacity="1.00" d=" M 449.93 95.78 C 452.63 96.05 455.26 96.76 457.79 97.76 C 456.15 99.76 454.28 101.56 452.25 103.15 C 451.43 100.70 450.65 98.25 449.93 95.78 Z" />
<path fill="#553f2a" opacity="1.00" d=" M 82.58 113.01 C 84.86 109.27 87.50 105.77 90.10 102.25 C 93.01 105.71 96.39 108.89 98.49 112.94 C 93.19 113.18 87.88 113.25 82.58 113.01 Z" />
<path fill="#553f2a" opacity="1.00" d=" M 414.56 112.91 C 416.61 108.85 420.04 105.74 422.93 102.30 C 425.58 105.74 428.14 109.25 430.39 112.97 C 425.12 113.27 419.83 113.23 414.56 112.91 Z" />
<path fill="#553f2a" opacity="1.00" d=" M 153.49 130.93 C 155.53 130.42 157.59 129.98 159.66 129.58 C 159.22 131.84 158.52 134.07 157.14 135.95 C 155.81 134.37 154.58 132.69 153.49 130.93 Z" />
<path fill="#553f2a" opacity="1.00" d=" M 353.34 129.59 C 355.43 129.91 357.52 130.30 359.57 130.81 C 358.53 132.47 357.70 134.42 355.95 135.48 C 353.84 134.46 354.09 131.51 353.34 129.59 Z" />
<path fill="#553f2a" opacity="1.00" d=" M 116.88 133.46 C 118.83 134.18 120.73 135.04 122.54 136.06 C 120.84 137.44 118.94 138.53 116.94 139.41 C 116.90 137.43 116.88 135.44 116.88 133.46 Z" />
<path fill="#553f2a" opacity="1.00" d=" M 135.57 133.89 C 137.45 134.30 139.33 134.70 141.17 135.28 C 141.53 138.07 137.86 139.02 136.05 140.45 C 135.87 138.26 135.71 136.08 135.57 133.89 Z" />
<path fill="#553f2a" opacity="1.00" d=" M 371.67 135.25 C 373.56 134.73 375.50 134.33 377.43 133.96 C 377.29 136.11 377.14 138.26 376.97 140.42 C 375.02 138.98 371.73 138.11 371.67 135.25 Z" />
<path fill="#553f2a" opacity="1.00" d=" M 390.44 136.13 C 392.25 135.11 394.13 134.20 396.05 133.39 C 396.07 135.37 396.07 137.35 396.06 139.33 C 394.11 138.40 392.22 137.33 390.44 136.13 Z" />
<path fill="#553f2a" opacity="1.00" d=" M 82.86 146.03 C 85.68 142.15 88.05 137.87 91.58 134.56 C 94.37 138.57 97.65 142.22 100.39 146.27 C 94.54 146.44 88.69 146.48 82.86 146.03 Z" />
<path fill="#553f2a" opacity="1.00" d=" M 421.47 134.56 C 425.00 137.87 427.39 142.12 430.11 146.07 C 424.29 146.41 418.47 146.51 412.65 146.26 C 415.36 142.19 418.63 138.53 421.47 134.56 Z" />
<path fill="#553f2a" opacity="1.00" d=" M 32.45 149.55 C 34.79 150.01 37.13 150.52 39.43 151.14 C 38.07 152.87 37.20 155.56 34.93 156.17 C 33.03 154.65 33.15 151.72 32.45 149.55 Z" />
<path fill="#553f2a" opacity="1.00" d=" M 473.62 151.16 C 475.91 150.54 478.23 150.01 480.57 149.55 C 480.06 151.71 479.61 153.90 478.69 155.92 C 475.96 156.36 475.05 152.87 473.62 151.16 Z" />
<path fill="#553f2a" opacity="1.00" d=" M 45.57 153.95 C 48.17 153.86 50.76 153.86 53.36 153.93 C 52.59 156.32 51.56 158.62 50.16 160.71 C 48.36 158.66 46.79 156.40 45.57 153.95 Z" />
<path fill="#553f2a" opacity="1.00" d=" M 60.63 156.39 C 62.86 155.21 65.18 154.19 67.55 153.33 C 67.61 155.75 67.63 158.17 67.60 160.59 C 64.95 159.77 62.54 158.41 60.63 156.39 Z" />
<path fill="#553f2a" opacity="1.00" d=" M 445.46 153.36 C 447.65 154.40 450.98 154.70 452.09 157.07 C 450.61 159.23 447.71 159.64 445.43 160.52 C 445.40 158.13 445.41 155.75 445.46 153.36 Z" />
<path fill="#553f2a" opacity="1.00" d=" M 459.64 153.87 C 462.25 153.84 464.86 153.88 467.47 153.99 C 466.19 156.41 464.61 158.66 462.79 160.71 C 461.38 158.61 460.37 156.28 459.64 153.87 Z" />
<path fill="#553f2a" opacity="1.00" d=" M 92.46 178.16 C 94.47 173.21 96.15 167.94 99.50 163.69 C 102.16 167.72 106.25 170.58 108.62 174.80 C 103.23 175.91 97.91 177.35 92.46 178.16 Z" />
<path fill="#553f2a" opacity="1.00" d=" M 404.40 174.80 C 406.89 170.56 410.74 167.37 413.91 163.66 C 416.45 168.33 418.82 173.13 420.51 178.18 C 415.10 177.27 409.77 175.90 404.40 174.80 Z" />
<path fill="#553f2a" opacity="1.00" d=" M 111.06 194.71 C 115.33 195.81 119.45 197.43 123.47 199.24 C 119.10 202.02 114.41 204.30 109.69 206.43 C 109.69 202.48 110.14 198.55 111.06 194.71 Z" />
<path fill="#553f2a" opacity="1.00" d=" M 389.57 199.26 C 393.65 197.56 397.75 195.90 401.99 194.66 C 402.81 198.50 403.26 202.42 403.28 206.36 C 398.65 204.12 393.86 202.12 389.57 199.26 Z" />
<path fill="#553f2a" opacity="1.00" d=" M 129.63 211.48 C 133.42 211.83 137.20 212.38 140.92 213.26 C 138.70 217.10 134.72 219.36 131.12 221.72 C 130.34 218.35 129.90 214.92 129.63 211.48 Z" />
<path fill="#553f2a" opacity="1.00" d=" M 372.12 213.26 C 375.84 212.52 379.59 211.94 383.35 211.44 C 383.11 214.87 382.69 218.30 381.87 221.64 C 378.24 219.37 374.34 217.07 372.12 213.26 Z" />
<path fill="#553f2a" opacity="1.00" d=" M 82.51 217.71 C 84.85 218.04 87.18 218.48 89.47 219.09 C 88.06 220.80 86.54 222.42 84.95 223.97 C 83.91 221.98 83.06 219.89 82.51 217.71 Z" />
<path fill="#553f2a" opacity="1.00" d=" M 423.60 219.08 C 425.84 218.52 428.10 218.07 430.38 217.70 C 429.92 219.56 429.45 221.42 428.76 223.21 C 426.30 223.68 425.06 220.57 423.60 219.08 Z" />
<path fill="#553f2a" opacity="1.00" d=" M 13.13 228.24 C 15.67 225.43 17.72 221.98 21.00 219.96 C 25.70 220.34 30.20 221.93 34.90 222.37 C 34.86 249.91 34.89 277.44 34.88 304.98 C 34.87 310.43 34.70 315.91 35.45 321.33 C 28.38 319.45 21.52 316.85 14.39 315.19 C 14.34 289.10 14.38 263.01 14.37 236.93 C 14.33 233.99 13.94 231.06 13.13 228.24 Z" />
<path fill="#553f2a" opacity="1.00" d=" M 98.56 222.82 C 100.45 221.17 102.66 219.98 105.09 219.35 C 105.11 221.70 105.10 224.06 105.05 226.42 C 102.79 225.40 100.61 224.20 98.56 222.82 Z" />
<path fill="#553f2a" opacity="1.00" d=" M 407.95 219.33 C 410.38 219.95 412.58 221.16 414.44 222.85 C 412.35 224.23 410.17 225.45 407.91 226.51 C 407.89 224.12 407.90 221.72 407.95 219.33 Z" />
<path fill="#553f2a" opacity="1.00" d=" M 478.10 222.39 C 482.81 221.73 487.48 220.74 492.11 219.66 C 494.84 222.37 497.44 225.21 499.89 228.17 C 499.04 231.04 498.65 234.03 498.63 237.02 C 498.63 263.06 498.67 289.11 498.61 315.15 C 491.54 317.05 484.61 319.42 477.54 321.33 C 478.29 315.93 478.13 310.47 478.12 305.03 C 478.11 277.49 478.14 249.94 478.10 222.39 Z" />
<path fill="#553f2a" opacity="1.00" d=" M 158.53 221.05 C 161.18 220.84 163.83 220.66 166.49 220.52 C 165.96 223.38 165.02 226.18 163.32 228.57 C 161.44 226.26 159.76 223.77 158.53 221.05 Z" />
<path fill="#553f2a" opacity="1.00" d=" M 346.55 220.60 C 349.17 220.69 351.80 220.82 354.42 220.99 C 353.22 223.85 351.59 226.55 349.16 228.53 C 348.00 225.98 347.15 223.32 346.55 220.60 Z" />
<path fill="#553f2a" opacity="1.00" d=" M 182.05 226.00 C 184.26 224.53 186.73 223.52 189.26 222.75 C 188.95 225.38 188.53 228.00 187.91 230.59 C 185.66 229.46 183.75 227.84 182.05 226.00 Z" />
<path fill="#553f2a" opacity="1.00" d=" M 199.37 226.76 C 201.19 224.77 203.54 223.40 206.06 222.48 C 206.14 225.14 206.15 227.80 206.08 230.46 C 203.74 229.42 201.51 228.16 199.37 226.76 Z" />
<path fill="#553f2a" opacity="1.00" d=" M 217.79 225.15 C 219.14 224.26 220.59 223.55 222.03 222.81 C 222.06 224.97 222.07 227.13 222.06 229.29 C 220.54 228.07 217.10 227.73 217.79 225.15 Z" />
<path fill="#553f2a" opacity="1.00" d=" M 290.96 222.79 C 292.43 223.56 293.92 224.31 295.32 225.22 C 295.72 227.74 292.51 228.10 290.95 229.27 C 290.93 227.11 290.93 224.95 290.96 222.79 Z" />
<path fill="#553f2a" opacity="1.00" d=" M 306.93 222.53 C 309.50 223.30 311.81 224.72 313.64 226.70 C 311.51 228.18 309.27 229.49 306.92 230.56 C 306.85 227.88 306.85 225.20 306.93 222.53 Z" />
<path fill="#553f2a" opacity="1.00" d=" M 323.72 222.63 C 326.06 223.45 328.48 224.18 330.57 225.57 C 330.57 228.28 326.95 229.18 325.06 230.55 C 324.47 227.94 324.05 225.29 323.72 222.63 Z" />
<path fill="#553f2a" opacity="1.00" d=" M 57.60 243.06 C 57.96 240.37 58.64 237.73 59.65 235.21 C 64.26 245.45 64.78 256.89 66.02 267.89 C 61.49 268.47 57.77 271.12 54.57 274.21 C 55.37 263.81 56.21 253.41 57.60 243.06 Z" />
<path fill="#553f2a" opacity="1.00" d=" M 453.35 235.21 C 454.46 237.99 455.13 240.94 455.51 243.91 C 456.81 253.98 457.64 264.10 458.43 274.22 C 455.21 271.15 451.50 268.51 446.99 267.85 C 448.19 256.86 448.74 245.44 453.35 235.21 Z" />
<path fill="#553f2a" opacity="1.00" d=" M 76.05 298.02 C 79.39 294.29 84.16 292.26 88.20 289.40 C 92.40 293.05 98.09 295.86 100.39 301.12 C 100.77 319.07 100.41 337.04 100.56 354.99 C 94.80 350.45 89.96 344.86 84.04 340.51 C 79.40 345.35 73.73 349.47 70.17 355.21 C 70.02 361.21 71.62 367.09 72.12 373.05 C 73.49 382.49 74.37 392.00 76.03 401.40 C 81.47 394.52 85.26 386.51 90.69 379.62 C 94.37 382.08 98.12 384.44 102.08 386.43 C 106.02 402.44 115.88 416.24 126.96 428.13 C 120.42 430.09 113.66 431.04 106.98 432.38 C 108.08 441.98 111.81 451.10 112.48 460.76 C 96.80 447.25 83.17 429.87 78.80 409.24 C 78.18 406.93 77.82 404.49 76.59 402.41 C 74.89 401.19 72.86 400.57 70.92 399.84 C 61.08 396.41 51.33 392.67 42.00 388.00 C 36.49 385.13 30.97 381.95 26.77 377.28 C 27.26 365.80 26.74 354.30 27.03 342.81 C 32.40 342.63 37.78 342.59 43.16 342.63 C 49.60 350.53 59.78 354.40 69.77 354.74 C 69.75 343.46 69.79 332.18 69.78 320.91 C 69.88 318.31 69.15 315.78 67.73 313.61 C 70.90 308.62 72.98 303.05 76.05 298.02 Z" />
<path fill="#553f2a" opacity="1.00" d=" M 413.75 298.85 C 416.95 295.16 421.04 292.40 424.85 289.40 C 429.72 293.01 436.35 295.20 438.81 301.23 C 440.77 305.46 442.83 309.65 445.22 313.66 C 443.58 316.15 443.06 319.12 443.20 322.06 C 443.32 332.99 443.08 343.93 443.35 354.86 C 453.29 354.27 463.43 350.55 469.85 342.64 C 475.22 342.60 480.60 342.60 485.98 342.83 C 486.23 354.31 485.75 365.80 486.24 377.28 C 482.37 381.57 477.39 384.63 472.34 387.33 C 461.90 392.80 450.78 396.77 439.71 400.73 C 438.24 401.43 436.21 401.82 435.74 403.64 C 433.91 409.28 433.10 415.23 430.76 420.72 C 424.39 436.42 413.29 449.82 400.52 460.78 C 401.23 451.11 404.86 441.95 406.10 432.36 C 399.39 431.08 392.63 430.01 386.05 428.14 C 397.12 416.24 406.96 402.45 410.91 386.45 C 414.89 384.47 418.66 382.10 422.36 379.65 C 427.72 386.57 431.63 394.47 436.96 401.42 C 439.18 388.32 440.37 375.07 442.39 361.94 C 442.63 358.89 443.88 355.17 441.29 352.78 C 437.36 348.47 433.09 344.48 428.89 340.45 C 423.15 345.01 418.13 350.39 412.44 355.03 C 412.47 338.00 412.48 320.97 412.43 303.94 C 412.47 302.18 412.39 300.19 413.75 298.85 Z" />
<path fill="#553f2a" opacity="1.00" d=" M 118.99 299.97 C 120.33 300.28 121.66 300.58 123.00 300.89 C 126.16 312.39 137.47 318.07 146.34 324.64 C 152.01 328.40 152.36 335.82 153.58 341.88 C 155.53 352.27 155.14 362.91 156.74 373.34 C 152.23 370.80 148.06 367.73 143.83 364.77 C 138.30 369.64 133.40 375.16 127.97 380.14 C 126.83 369.16 128.29 357.80 124.82 347.14 C 122.36 338.97 117.67 331.76 113.60 324.34 C 111.88 321.26 110.64 317.81 110.94 314.23 C 113.74 309.54 116.19 304.66 118.99 299.97 Z" />
<path fill="#553f2a" opacity="1.00" d=" M 390.05 300.63 C 391.57 300.75 393.75 299.50 394.69 301.22 C 397.46 305.36 399.41 310.00 402.07 314.22 C 402.37 317.80 401.10 321.25 399.39 324.34 C 395.32 331.77 390.62 338.98 388.16 347.16 C 384.71 357.81 386.16 369.15 385.02 380.13 C 379.58 375.16 374.69 369.62 369.16 364.75 C 364.97 367.78 360.81 370.88 356.26 373.34 C 357.85 362.92 357.45 352.28 359.41 341.89 C 360.64 335.87 360.96 328.48 366.58 324.71 C 375.54 318.08 387.02 312.32 390.05 300.63 Z" />
<path fill="#553f2a" opacity="1.00" d=" M 178.35 327.52 C 182.76 333.64 184.59 341.12 186.69 348.25 C 189.09 355.96 188.26 364.28 191.16 371.87 C 188.91 371.67 186.65 371.49 184.40 371.30 C 182.06 375.63 179.85 380.11 176.46 383.75 C 176.50 371.54 176.58 359.32 176.86 347.10 C 177.09 340.56 177.12 333.97 178.35 327.52 Z" />
<path fill="#553f2a" opacity="1.00" d=" M 326.29 348.27 C 328.41 341.15 330.18 333.64 334.66 327.56 C 335.80 333.66 335.88 339.89 336.10 346.07 C 336.41 358.61 336.48 371.16 336.53 383.70 C 333.07 380.10 330.90 375.57 328.56 371.22 C 326.31 371.45 324.06 371.69 321.81 371.93 C 324.73 364.33 323.90 355.99 326.29 348.27 Z" />
<path fill="#553f2a" opacity="1.00" d=" M 268.92 378.38 C 277.59 365.49 284.53 351.49 293.43 338.76 C 295.50 340.46 297.91 341.77 300.61 340.71 C 298.87 344.59 297.36 348.57 295.40 352.35 C 294.76 350.43 294.15 348.52 293.52 346.60 C 285.02 363.44 277.20 380.61 268.84 397.52 C 263.13 386.80 258.07 375.74 252.33 365.03 C 251.68 367.70 251.03 370.36 250.38 373.03 C 245.49 366.32 240.88 359.41 236.00 352.70 C 234.46 362.14 233.50 371.66 231.72 381.06 C 228.01 372.57 223.78 364.31 220.26 355.74 C 222.64 357.23 225.08 358.63 227.49 360.09 C 230.95 353.83 232.80 346.86 235.93 340.45 C 240.44 345.44 243.78 351.36 248.46 356.21 C 250.30 352.94 252.31 349.75 254.60 346.77 C 259.67 357.17 263.45 368.18 268.92 378.38 Z" />
<path fill="#553f2a" opacity="1.00" d=" M 130.75 411.45 C 136.31 405.29 140.49 398.04 145.88 391.74 C 152.41 397.57 158.69 403.70 165.52 409.18 C 168.39 419.57 171.40 429.93 174.24 440.34 C 160.28 440.37 145.39 439.69 133.11 432.33 C 132.32 425.37 131.48 418.41 130.75 411.45 Z" />
<path fill="#553f2a" opacity="1.00" d=" M 347.47 409.22 C 354.42 404.00 360.21 397.39 367.09 392.11 C 372.95 397.85 376.52 405.54 382.25 411.44 C 381.52 418.41 380.66 425.37 379.89 432.33 C 367.63 439.76 352.71 440.34 338.76 440.33 C 341.59 429.94 344.59 419.59 347.47 409.22 Z" />
<path fill="#553f2a" opacity="1.00" d=" M 211.50 399.93 C 216.06 400.07 220.66 401.04 224.68 403.26 C 227.98 405.08 231.46 407.81 231.80 411.87 C 233.00 421.72 236.80 431.01 238.20 440.83 C 226.57 440.53 214.93 440.85 203.29 440.65 C 201.89 431.31 201.36 420.65 194.36 413.51 C 195.99 410.76 197.51 407.95 199.18 405.22 C 201.33 400.53 207.30 401.26 211.50 399.93 Z" />
<path fill="#553f2a" opacity="1.00" d=" M 283.70 406.69 C 288.38 401.98 295.13 400.23 301.58 399.84 C 304.89 400.77 308.36 401.14 311.57 402.41 C 314.63 405.61 316.24 409.87 318.60 413.57 C 311.62 420.71 311.05 431.38 309.72 440.74 C 298.08 440.68 286.44 440.68 274.80 440.81 C 276.20 431.01 279.98 421.73 281.19 411.89 C 281.40 409.92 282.24 408.04 283.70 406.69 Z" />
<path fill="#553f2a" opacity="1.00" d=" M 248.36 426.93 C 250.22 426.85 252.08 426.78 253.94 426.71 C 259.21 435.19 261.67 445.14 262.70 454.99 C 263.07 459.19 265.20 462.90 267.10 466.57 C 265.57 472.37 263.31 478.05 262.80 484.07 C 262.59 487.65 265.81 490.01 268.32 492.00 L 244.66 492.00 C 247.52 489.89 250.92 487.01 250.14 483.01 C 249.17 476.20 246.56 469.77 244.90 463.12 C 246.16 458.12 247.69 453.15 248.06 447.99 C 248.57 443.37 246.97 438.91 246.14 434.43 C 246.79 431.90 247.60 429.42 248.36 426.93 Z" />
<path fill="#553f2a" opacity="1.00" d=" M 174.31 440.74 C 183.75 440.68 193.20 440.83 202.64 440.67 C 197.72 448.85 191.30 455.97 185.88 463.80 C 184.40 465.23 185.80 467.00 186.65 468.34 C 192.13 476.20 197.69 484.01 202.99 492.00 L 182.61 492.00 C 179.12 491.59 175.66 491.08 172.20 490.53 C 166.96 481.41 161.46 472.43 156.25 463.30 C 162.18 455.71 168.73 448.59 174.31 440.74 Z" />
<path fill="#553f2a" opacity="1.00" d=" M 310.41 440.74 C 319.83 440.74 329.26 440.72 338.68 440.74 C 344.28 448.61 350.91 455.68 356.81 463.33 C 351.51 472.38 346.02 481.33 340.94 490.51 C 337.19 491.11 333.42 491.65 329.63 492.00 L 309.98 492.00 C 315.98 483.02 322.36 474.31 328.29 465.28 C 322.34 457.09 315.77 449.33 310.41 440.74 Z" />
</g>
<g id="#d9d1c6ff">
<path fill="#d9d1c6" opacity="1.00" d=" M 156.04 165.90 C 155.88 164.30 157.70 163.84 158.94 164.01 C 168.30 164.05 177.68 163.87 187.04 164.10 C 188.58 163.90 188.82 165.87 188.77 166.96 C 188.73 174.24 188.94 181.53 188.67 188.81 C 187.81 190.71 185.75 191.71 184.20 193.02 C 179.84 194.92 180.71 201.52 175.92 202.68 C 172.34 203.17 167.11 203.77 165.30 199.76 C 164.11 197.06 162.81 194.32 160.19 192.72 C 158.43 191.15 155.41 189.93 155.96 187.06 C 156.00 180.01 155.83 172.95 156.04 165.90 M 161.29 176.42 C 159.58 177.25 159.98 179.48 160.16 181.02 C 160.72 183.00 163.36 182.51 164.91 182.35 C 166.88 181.43 166.21 178.76 165.97 177.06 C 164.64 176.03 162.85 176.11 161.29 176.42 M 179.46 176.49 C 178.00 177.90 178.36 180.17 178.94 181.91 C 180.28 182.51 181.69 182.68 183.16 182.42 C 185.27 181.70 184.75 179.03 184.51 177.34 C 183.33 175.80 181.12 176.17 179.46 176.49 Z" />
<path fill="#d9d1c6" opacity="1.00" d=" M 316.84 188.47 C 312.41 186.99 312.85 178.32 317.96 178.38 C 320.20 178.33 322.73 177.94 324.74 179.19 C 326.72 180.41 325.51 184.39 328.35 184.47 C 336.55 184.58 344.77 184.60 352.97 184.46 C 355.69 184.35 354.56 180.57 356.36 179.30 C 358.29 177.94 360.82 178.34 363.05 178.35 C 368.45 178.09 368.94 187.18 364.21 188.58 C 368.18 189.86 368.42 195.98 365.40 198.29 C 362.63 199.31 359.47 198.98 356.64 198.35 C 355.38 196.55 355.18 193.83 353.27 192.64 C 344.78 192.63 336.29 192.77 327.80 192.56 C 326.22 194.63 325.73 197.57 323.25 198.87 C 320.61 198.71 317.43 199.54 315.20 197.79 C 312.99 195.03 313.39 190.09 316.84 188.47 Z" />
<path fill="#d9d1c6" opacity="1.00" d=" M 250.34 200.89 C 254.45 200.85 258.57 200.85 262.69 200.89 C 266.74 206.40 270.90 211.84 274.98 217.33 C 274.96 223.46 274.96 229.60 274.98 235.74 C 280.44 235.73 285.91 235.75 291.37 235.73 C 291.37 247.51 291.43 259.30 291.36 271.08 C 291.54 273.09 289.92 274.51 288.93 276.06 C 275.81 293.59 268.27 314.73 264.71 336.20 C 259.23 336.20 253.76 336.20 248.29 336.20 C 244.70 314.72 237.18 293.57 224.05 276.03 C 223.06 274.48 221.45 273.04 221.64 271.04 C 221.58 259.27 221.63 247.50 221.63 235.73 C 227.09 235.75 232.55 235.73 238.02 235.74 C 238.04 229.60 238.04 223.47 238.02 217.33 C 242.12 211.85 246.26 206.39 250.34 200.89 M 226.65 262.27 C 228.07 266.52 231.90 269.35 235.99 270.81 C 236.00 260.42 236.01 250.02 235.98 239.62 C 227.72 243.53 223.52 253.67 226.65 262.27 M 277.01 239.63 C 276.98 250.02 277.00 260.41 277.01 270.80 C 283.02 269.02 287.50 263.31 287.28 256.97 C 287.89 249.68 283.42 242.83 277.01 239.63 M 248.27 316.06 C 248.45 321.89 250.40 327.83 254.41 332.17 C 254.60 327.40 254.48 322.62 254.53 317.85 C 255.84 317.85 257.15 317.85 258.47 317.86 C 258.52 322.63 258.40 327.41 258.59 332.18 C 262.60 327.82 264.56 321.86 264.72 316.00 C 262.39 310.26 259.20 304.89 256.58 299.28 C 253.69 304.80 250.64 310.29 248.27 316.06 Z" />
<path fill="#d9d1c6" opacity="1.00" d=" M 30.99 408.97 C 40.53 402.56 52.49 402.06 63.61 401.77 C 63.61 408.62 63.62 415.48 63.60 422.34 C 56.90 422.91 48.91 420.40 43.48 425.61 C 36.56 432.10 33.51 441.82 32.90 451.08 C 32.66 462.71 33.84 474.30 34.85 485.86 C 30.03 479.27 25.96 472.03 23.73 464.13 C 20.74 453.39 20.35 442.12 20.63 431.03 C 20.87 422.72 23.79 413.79 30.99 408.97 Z" />
<path fill="#d9d1c6" opacity="1.00" d=" M 449.39 401.77 C 460.91 402.10 473.55 402.56 483.12 409.81 C 490.48 415.44 492.52 425.27 492.46 434.06 C 492.46 445.82 491.88 457.89 487.61 468.99 C 485.35 475.05 481.93 480.59 478.20 485.84 C 479.09 474.26 480.36 462.66 480.09 451.02 C 479.46 441.78 476.41 432.09 469.50 425.60 C 464.09 420.40 456.09 422.91 449.41 422.34 C 449.37 415.48 449.39 408.62 449.39 401.77 Z" />
<path fill="#d9d1c6" opacity="1.00" d=" M 0.00 446.19 C 0.60 433.21 10.31 423.02 20.51 416.11 C 16.31 428.11 11.79 440.20 10.39 452.91 C 10.03 464.70 12.42 476.34 14.32 487.92 C 5.38 477.58 1.23 463.90 0.00 450.50 L 0.00 446.19 Z" />
<path fill="#d9d1c6" opacity="1.00" d=" M 492.50 416.10 C 502.73 423.00 512.39 433.25 513.00 446.23 L 513.00 450.39 C 511.78 463.84 507.63 477.55 498.68 487.93 C 500.08 479.96 501.40 471.96 502.22 463.91 C 504.49 447.33 497.61 431.50 492.50 416.10 Z" />
<path fill="#d9d1c6" opacity="1.00" d=" M 53.95 448.02 C 54.93 441.68 56.76 434.01 63.08 430.99 C 67.95 429.98 73.02 430.78 77.98 430.54 C 77.97 435.98 77.97 441.42 77.98 446.86 C 73.91 446.93 68.76 446.01 66.11 449.96 C 59.34 459.81 62.24 472.35 61.47 483.53 C 53.38 473.78 52.53 460.11 53.95 448.02 Z" />
<path fill="#d9d1c6" opacity="1.00" d=" M 435.02 430.54 C 439.66 430.64 444.31 430.30 448.94 430.71 C 453.81 432.02 456.26 437.09 457.66 441.52 C 459.97 449.74 460.15 458.51 458.80 466.91 C 457.59 472.87 455.62 478.93 451.53 483.57 C 450.76 472.37 453.66 459.80 446.86 449.93 C 444.21 446.02 439.07 446.92 435.02 446.86 C 435.02 441.42 435.02 435.98 435.02 430.54 Z" />
<path fill="#d9d1c6" opacity="1.00" d=" M 100.56 461.22 C 105.65 463.82 111.40 466.40 114.41 471.53 C 115.98 476.00 112.96 480.68 109.55 483.42 C 102.51 488.81 93.23 489.78 84.65 489.92 C 90.73 486.71 97.90 483.19 100.16 476.14 C 100.99 471.22 100.33 466.18 100.56 461.22 Z" />
<path fill="#d9d1c6" opacity="1.00" d=" M 398.64 471.41 C 401.72 466.39 407.37 463.80 412.44 461.21 C 413.07 467.48 410.75 474.69 414.83 480.15 C 418.30 484.76 423.54 487.53 428.66 489.95 C 419.96 489.77 410.54 488.88 403.41 483.40 C 399.99 480.63 396.95 475.89 398.64 471.41 Z" />
</g>
</svg>
