<?xml version="1.0" encoding="UTF-8" ?>
<!DOCTYPE svg PUBLIC "-//W3C//DTD SVG 1.1//EN" "http://www.w3.org/Graphics/SVG/1.1/DTD/svg11.dtd">
<svg width="475pt" height="477pt" viewBox="0 0 475 477" version="1.1" xmlns="http://www.w3.org/2000/svg">
<g id="#2e353fff">
<path fill="#2e353f" opacity="1.00" d=" M 199.33 0.00 L 204.43 0.00 C 215.75 0.90 226.31 7.44 231.84 17.41 C 223.30 13.20 214.08 10.19 204.49 9.93 C 204.36 15.46 204.20 20.99 204.07 26.52 C 198.38 15.98 187.80 9.37 177.00 4.97 C 183.86 1.34 191.67 0.24 199.33 0.00 Z" />
<path fill="#2e353f" opacity="1.00" d=" M 104.03 25.50 C 111.78 16.60 123.46 12.30 134.93 11.02 C 144.94 9.87 155.70 10.25 164.61 15.45 C 172.46 19.85 177.99 27.58 180.73 36.05 C 168.70 31.36 155.85 27.73 142.81 28.79 C 144.95 34.87 145.94 41.38 144.78 47.78 C 136.33 33.59 119.55 27.75 104.03 25.50 Z" />
<path fill="#2e353f" opacity="1.00" d=" M 213.98 20.04 C 216.65 21.17 220.39 21.25 221.94 24.02 C 220.55 26.32 217.44 26.66 215.00 26.84 C 212.41 25.70 213.97 22.19 213.98 20.04 Z" />
<path fill="#2e353f" opacity="1.00" d=" M 24.12 41.24 C 36.77 32.23 52.54 27.41 68.09 28.35 C 82.20 29.94 94.82 37.53 105.77 46.16 C 110.70 50.30 115.81 54.53 118.95 60.26 C 104.10 57.07 88.99 54.66 73.76 54.85 C 76.56 68.47 79.19 82.14 80.93 95.95 C 73.75 87.79 65.94 80.01 56.66 74.25 C 49.56 69.86 41.42 66.77 32.97 66.80 C 21.45 66.81 10.08 70.18 0.01 75.69 C 3.91 61.93 12.40 49.49 24.12 41.24 Z" />
<path fill="#2e353f" opacity="1.00" d=" M 156.35 41.12 C 161.15 42.83 166.17 43.97 170.75 46.23 C 170.72 46.56 170.67 47.22 170.64 47.55 C 166.19 49.70 161.26 50.50 156.49 51.62 C 155.78 48.16 155.78 44.61 156.35 41.12 Z" />
<path fill="#2e353f" opacity="1.00" d=" M 90.20 70.46 C 95.46 71.50 100.76 72.34 106.01 73.45 C 102.62 78.28 97.40 81.23 92.24 83.81 C 91.42 79.38 90.81 74.92 90.20 70.46 Z" />
<path fill="#2e353f" opacity="1.00" d=" M 54.66 92.59 C 60.60 95.30 64.38 100.84 68.17 105.88 C 72.09 111.41 77.54 115.57 82.74 119.82 C 78.65 120.56 72.97 120.60 70.92 124.93 C 69.46 131.74 69.94 138.92 71.54 145.68 C 62.94 142.29 56.25 134.47 55.20 125.16 C 54.00 114.36 54.79 103.44 54.66 92.59 Z" />
<path fill="#2e353f" opacity="1.00" d=" M 78.39 128.39 C 81.59 127.84 82.11 133.29 79.63 134.60 C 76.30 135.36 75.48 129.29 78.39 128.39 Z" />
<path fill="#2e353f" opacity="1.00" d=" M 45.43 139.77 C 53.83 144.77 61.94 150.30 69.54 156.45 C 76.58 162.14 83.07 168.95 86.55 177.43 C 87.46 179.16 87.95 181.54 90.06 182.20 C 92.04 176.25 95.36 170.62 100.77 167.18 C 101.38 178.40 103.80 189.40 106.39 200.30 C 102.31 205.52 98.32 210.82 94.36 216.13 C 89.79 206.00 85.17 195.29 76.56 187.87 C 74.83 192.40 74.75 197.66 71.47 201.48 C 66.96 197.87 62.62 194.00 57.65 191.04 C 55.56 183.51 51.86 176.39 51.26 168.50 C 50.33 158.75 48.10 149.18 45.43 139.77 Z" />
<path fill="#2e353f" opacity="1.00" d=" M 145.36 149.29 C 148.27 147.18 151.99 144.94 155.68 146.48 C 160.58 148.44 164.14 152.60 167.30 156.66 C 169.65 159.75 171.69 163.16 172.39 167.03 C 156.72 167.68 141.38 171.87 127.07 178.15 C 127.29 174.27 128.24 170.44 130.17 167.04 C 133.92 160.17 139.09 154.00 145.36 149.29 Z" />
<path fill="#2e353f" opacity="1.00" d=" M 30.89 164.01 C 38.28 172.14 44.49 181.34 50.05 190.80 C 46.16 190.79 41.70 191.43 39.43 195.03 C 40.50 200.43 43.33 205.26 45.10 210.43 C 41.48 207.87 38.15 204.80 35.84 200.97 C 32.80 196.26 31.94 190.59 31.22 185.14 C 30.47 178.13 29.86 171.02 30.89 164.01 Z" />
<path fill="#2e353f" opacity="1.00" d=" M 4.31 189.59 C 17.94 195.26 29.84 204.47 39.75 215.33 C 48.50 224.70 55.82 235.27 63.12 245.78 C 63.07 246.82 63.03 247.87 62.98 248.92 C 53.77 244.26 43.73 241.52 33.61 239.67 C 35.82 247.17 38.40 254.63 39.32 262.45 C 40.39 271.59 42.98 280.43 45.13 289.34 C 40.13 287.87 35.23 286.03 30.71 283.40 C 28.57 280.50 26.48 277.56 24.21 274.76 C 22.03 271.88 19.34 268.95 19.24 265.12 C 16.85 239.54 12.73 213.94 4.31 189.59 Z" />
<path fill="#2e353f" opacity="1.00" d=" M 47.24 196.39 C 48.69 196.21 50.29 197.36 49.90 198.98 C 50.12 201.54 45.97 202.08 45.35 199.70 C 44.67 198.25 45.81 196.71 47.24 196.39 Z" />
<path fill="#2e353f" opacity="1.00" d=" M 224.22 218.13 C 238.34 211.06 254.74 211.36 270.01 213.48 C 261.18 223.01 254.84 235.17 253.85 248.26 C 243.18 249.17 232.53 245.60 221.89 247.33 C 212.91 249.61 205.19 255.12 197.92 260.67 C 199.09 243.44 208.41 226.01 224.22 218.13 Z" />
<path fill="#2e353f" opacity="1.00" d=" M 304.26 221.51 C 306.26 220.35 309.02 221.40 309.49 223.73 C 310.13 226.31 307.03 228.61 304.72 227.34 C 302.43 226.40 302.37 222.88 304.26 221.51 Z" />
<path fill="#2e353f" opacity="1.00" d=" M 342.36 235.39 C 345.15 233.87 348.79 236.92 347.77 239.96 C 347.24 242.85 343.13 243.86 341.20 241.73 C 339.27 239.94 339.90 236.38 342.36 235.39 Z" />
<path fill="#2e353f" opacity="1.00" d=" M 361.21 257.32 C 364.72 255.99 368.68 259.40 367.98 263.05 C 367.67 266.91 362.41 269.07 359.51 266.40 C 356.29 264.05 357.27 258.28 361.21 257.32 Z" />
<path fill="#2e353f" opacity="1.00" d=" M 217.99 265.07 C 228.79 258.50 241.93 257.72 254.24 258.70 C 258.99 266.30 264.28 273.59 270.61 279.96 C 256.46 280.59 242.15 282.52 228.97 287.94 C 223.05 290.49 217.00 293.82 213.47 299.43 C 209.97 304.87 208.51 311.29 207.75 317.64 C 204.97 311.87 201.82 306.23 200.05 300.05 C 198.68 296.04 200.13 291.85 201.15 287.94 C 203.76 278.63 209.53 269.99 217.99 265.07 Z" />
<path fill="#2e353f" opacity="1.00" d=" M 274.18 283.00 C 282.55 288.64 291.56 294.42 296.79 303.32 C 291.29 304.73 285.67 302.50 280.14 303.58 C 274.92 304.52 269.83 306.35 264.45 306.17 C 265.52 297.72 271.43 290.94 274.18 283.00 Z" />
<path fill="#2e353f" opacity="1.00" d=" M 345.30 283.54 C 346.99 282.35 349.39 282.93 350.31 284.78 C 351.86 287.32 348.56 290.78 345.96 289.23 C 343.67 288.41 343.38 284.85 345.30 283.54 Z" />
<path fill="#2e353f" opacity="1.00" d=" M 65.76 297.00 C 73.61 299.63 80.65 304.00 87.48 308.58 C 87.93 314.46 89.78 320.05 91.23 325.72 C 92.77 333.67 95.80 341.18 99.00 348.58 C 96.31 352.54 93.71 356.58 90.40 360.07 C 87.12 351.22 78.97 345.75 74.00 338.01 C 70.74 332.92 66.59 328.49 62.86 323.76 C 70.20 324.68 76.94 327.78 83.70 330.58 C 80.68 326.15 76.66 322.34 74.66 317.27 C 71.86 310.44 67.55 304.24 65.76 297.00 Z" />
<path fill="#2e353f" opacity="1.00" d=" M 445.17 300.75 C 453.66 303.29 460.24 309.99 464.37 317.63 C 468.28 324.88 470.76 332.93 471.51 341.14 C 471.73 347.52 469.58 353.67 467.72 359.69 C 465.28 351.95 460.90 344.64 454.32 339.73 C 449.84 336.22 444.39 334.32 438.91 333.01 C 443.72 329.12 449.68 327.16 454.73 323.69 C 456.85 322.36 455.75 319.69 455.12 317.81 C 452.59 311.70 448.66 306.33 445.17 300.75 Z" />
<path fill="#2e353f" opacity="1.00" d=" M 440.32 314.30 C 443.33 313.13 445.11 318.19 441.75 318.70 C 439.02 319.60 437.95 315.32 440.32 314.30 Z" />
<path fill="#2e353f" opacity="1.00" d=" M 167.92 328.88 C 171.08 329.72 174.15 331.16 176.29 333.71 C 182.60 340.80 185.84 349.95 188.90 358.77 C 182.60 354.92 175.64 351.91 168.20 351.44 C 168.15 343.92 167.84 336.40 167.92 328.88 Z" />
<path fill="#2e353f" opacity="1.00" d=" M 207.90 346.92 C 208.97 344.67 210.23 341.79 212.95 341.27 C 215.96 343.06 218.10 346.08 220.98 348.12 C 227.94 353.36 234.75 359.34 243.22 361.93 C 244.80 362.35 244.89 364.22 245.14 365.55 C 245.88 373.75 245.96 382.18 248.60 390.07 C 249.74 393.79 253.53 395.53 256.67 397.28 C 265.40 401.64 275.16 405.05 285.06 403.88 C 289.60 403.55 293.98 402.27 298.32 401.00 C 285.69 413.75 268.06 422.23 249.90 421.76 C 238.01 421.55 226.19 416.75 217.88 408.19 C 208.71 398.97 203.98 385.87 204.13 372.96 C 204.25 364.19 204.67 355.18 207.90 346.92 Z" />
<path fill="#2e353f" opacity="1.00" d=" M 259.34 347.01 C 263.74 352.75 268.59 358.17 274.00 363.00 C 278.82 367.51 285.64 368.56 291.88 369.72 C 299.22 370.66 307.06 371.96 314.06 368.80 C 316.60 367.50 317.01 371.35 316.08 372.86 C 312.34 379.86 306.16 385.35 299.43 389.41 C 293.03 393.21 285.31 395.04 277.93 393.56 C 267.13 391.38 257.70 384.20 251.80 375.01 C 253.91 365.57 256.79 356.33 259.34 347.01 Z" />
<path fill="#2e353f" opacity="1.00" d=" M 443.35 349.83 C 453.89 354.70 458.64 366.44 461.74 376.89 C 465.09 386.86 461.26 397.18 457.37 406.36 C 454.86 398.71 451.50 391.02 445.56 385.38 C 442.77 382.56 439.14 380.85 435.64 379.12 C 439.92 375.87 445.56 375.29 450.12 372.95 C 451.71 364.69 446.82 356.98 443.35 349.83 Z" />
<path fill="#2e353f" opacity="1.00" d=" M 436.93 368.84 C 436.48 366.68 435.71 362.72 439.07 362.70 C 440.74 364.33 440.15 366.68 439.95 368.74 C 439.19 368.76 437.68 368.81 436.93 368.84 Z" />
<path fill="#2e353f" opacity="1.00" d=" M 170.14 369.92 C 175.93 371.97 179.76 377.04 182.94 382.03 C 187.21 389.03 190.77 396.65 191.87 404.85 C 185.53 400.44 178.11 397.59 170.33 397.36 C 170.30 388.21 169.83 379.06 170.14 369.92 Z" />
<path fill="#2e353f" opacity="1.00" d=" M 97.19 373.17 C 106.29 373.29 115.43 373.56 124.42 375.08 C 123.25 383.41 123.30 392.30 126.97 400.04 C 130.67 406.34 138.46 407.94 143.56 412.72 C 136.50 414.46 129.17 414.33 121.96 414.52 C 118.39 414.71 115.88 411.79 112.99 410.20 C 107.28 406.61 100.47 405.76 94.10 403.94 C 92.31 403.34 89.95 402.86 89.37 400.76 C 86.34 393.15 82.01 386.17 77.55 379.33 C 80.61 380.69 83.45 383.13 86.95 383.12 C 91.57 381.36 94.22 376.84 97.19 373.17 Z" />
<path fill="#2e353f" opacity="1.00" d=" M 336.29 385.28 C 342.74 380.64 351.62 378.96 359.07 382.17 C 356.55 395.16 346.06 408.11 332.01 408.51 C 327.07 408.55 321.75 408.18 317.53 405.34 C 314.52 403.23 313.21 399.62 311.40 396.57 C 315.80 397.48 320.35 399.01 324.87 398.16 C 330.77 396.11 332.30 389.37 336.29 385.28 Z" />
<path fill="#2e353f" opacity="1.00" d=" M 437.35 396.85 C 442.41 405.38 445.31 415.09 446.54 424.90 C 447.94 433.98 443.36 442.71 437.67 449.44 C 435.02 437.12 429.07 425.17 418.85 417.44 C 424.64 416.77 430.57 417.54 436.30 416.37 C 438.66 410.15 438.45 403.31 437.35 396.85 Z" />
<path fill="#2e353f" opacity="1.00" d=" M 425.23 402.00 C 428.73 399.66 431.74 405.54 428.23 407.34 C 424.95 409.21 421.77 403.78 425.23 402.00 Z" />
<path fill="#2e353f" opacity="1.00" d=" M 33.99 427.20 C 44.91 419.12 58.37 413.85 72.08 414.21 C 77.99 414.26 83.49 417.31 87.32 421.69 C 92.57 430.50 94.83 441.45 92.07 451.46 C 90.46 451.43 88.71 451.73 87.30 450.74 C 81.33 447.24 76.50 442.18 71.40 437.59 C 67.97 434.44 63.35 433.22 58.98 431.98 C 50.78 429.76 42.37 428.50 33.99 427.20 Z" />
<path fill="#2e353f" opacity="1.00" d=" M 111.64 447.61 C 117.86 443.24 122.11 436.82 127.69 431.76 C 129.84 438.61 131.47 445.74 131.39 452.95 C 131.51 455.58 129.36 457.40 127.61 459.02 C 124.67 459.94 121.32 459.79 118.78 461.74 C 113.10 465.81 107.33 469.76 101.40 473.48 C 99.67 474.62 97.62 475.05 95.62 475.48 C 94.84 468.56 99.27 462.58 102.68 456.97 C 105.04 453.31 108.08 450.12 111.64 447.61 Z" />
<path fill="#2e353f" opacity="1.00" d=" M 401.11 435.71 C 405.33 443.10 410.11 450.48 411.95 458.89 C 412.43 466.00 407.04 471.69 402.90 476.88 C 401.83 472.50 400.43 468.04 397.39 464.60 C 394.85 461.40 391.03 459.75 387.45 458.04 C 392.07 457.32 396.97 457.88 401.37 456.09 C 402.51 449.35 401.32 442.49 401.11 435.71 Z" />
<path fill="#2e353f" opacity="1.00" d=" M 155.50 441.50 C 160.51 439.48 165.81 438.24 171.00 436.76 C 175.13 440.12 175.25 446.07 175.77 450.96 C 176.67 456.40 171.93 460.25 168.07 463.15 C 161.01 468.09 153.24 472.12 144.97 474.58 C 141.75 475.64 138.43 474.59 135.63 472.95 C 140.15 467.93 145.07 462.79 147.11 456.20 C 148.61 450.75 150.64 444.84 155.50 441.50 Z" />
<path fill="#2e353f" opacity="1.00" d=" M 389.42 443.41 C 393.08 441.52 395.75 447.85 391.94 449.18 C 388.24 450.92 385.74 444.84 389.42 443.41 Z" />
</g>
<g id="#a23624ff">
<path fill="#a23624" opacity="1.00" d=" M 241.70 17.75 C 258.60 11.69 276.22 7.53 294.09 5.70 C 311.74 3.84 329.53 5.49 347.03 8.01 C 365.66 10.82 384.19 14.78 402.01 20.96 C 411.87 24.60 422.17 28.50 429.74 36.10 C 428.07 37.39 426.13 38.70 423.91 38.31 C 411.53 35.14 398.70 34.70 385.99 34.25 C 357.92 33.09 329.97 37.55 302.58 43.31 C 265.13 51.55 228.09 63.92 195.42 84.35 C 185.44 90.72 175.80 97.76 167.34 106.08 C 163.71 109.91 159.81 113.73 157.58 118.60 C 155.37 123.48 158.77 130.00 164.14 130.66 C 166.91 130.61 169.28 128.95 171.63 127.67 C 205.72 110.79 244.40 106.60 281.97 106.07 C 307.66 105.95 333.39 107.08 358.94 109.88 C 382.43 112.52 405.93 116.39 428.37 124.02 C 431.25 125.23 434.39 126.14 436.83 128.15 C 440.62 132.21 443.16 137.23 445.98 141.96 C 444.00 141.22 442.05 140.45 440.07 139.72 C 422.71 133.61 405.16 127.76 386.99 124.59 C 349.74 118.09 311.86 114.41 274.02 115.50 C 253.76 116.15 233.45 117.63 213.53 121.55 C 203.50 123.60 193.45 126.17 184.29 130.86 C 180.85 132.38 177.92 134.78 175.10 137.21 C 178.10 139.92 181.46 142.48 185.54 143.18 C 191.30 144.32 197.19 143.47 203.01 143.87 C 225.05 144.99 247.05 146.65 269.05 148.30 C 294.66 149.86 320.09 154.00 345.02 160.05 C 368.76 165.81 392.07 173.58 414.15 184.09 C 418.89 186.56 423.73 188.87 428.27 191.72 C 431.77 193.92 431.99 198.42 431.81 202.12 C 429.58 200.94 427.39 199.69 425.19 198.47 C 409.89 190.06 393.55 183.72 377.07 178.04 C 344.20 167.03 310.34 158.97 276.02 154.05 C 255.64 151.22 234.99 149.46 214.41 150.66 C 206.23 151.32 197.77 152.01 190.32 155.76 C 188.35 157.47 187.30 160.56 189.54 162.56 C 195.94 168.44 205.22 168.96 213.45 169.54 C 235.45 173.06 257.40 176.98 279.20 181.62 C 296.13 185.68 312.75 191.00 329.16 196.80 C 345.97 203.07 362.92 209.87 377.38 220.72 C 384.83 227.71 393.95 234.00 397.35 244.12 C 392.24 242.61 387.81 239.59 383.40 236.72 C 372.80 229.68 362.04 222.76 350.40 217.53 C 334.16 210.12 316.59 206.34 299.09 203.30 C 271.96 198.85 244.50 196.26 217.00 195.97 C 210.30 195.83 203.50 195.93 196.94 194.38 C 192.77 193.40 188.59 191.55 185.87 188.13 C 183.50 185.13 181.66 181.75 179.07 178.92 C 177.26 176.69 174.94 174.75 173.79 172.06 C 173.53 168.96 176.33 166.27 175.59 163.12 C 174.07 158.28 170.07 154.88 166.55 151.48 C 164.42 148.64 162.67 145.37 159.60 143.40 C 155.00 139.94 148.85 141.40 143.79 139.12 C 130.25 133.78 118.20 125.46 105.63 118.27 C 102.65 116.54 98.66 115.57 95.62 117.68 C 93.67 118.86 92.93 121.12 92.05 123.08 C 86.79 116.46 83.53 108.41 82.14 100.10 C 95.99 100.65 109.68 94.00 118.24 83.19 C 122.98 77.38 125.99 70.31 127.47 62.98 C 144.71 66.23 163.18 66.34 179.60 59.48 C 183.74 57.50 188.52 55.35 190.62 51.00 C 191.33 45.80 188.82 40.94 187.12 36.18 C 190.63 35.08 194.28 34.49 197.94 34.10 C 202.69 38.07 209.08 39.23 215.11 38.66 C 221.75 38.10 228.33 36.28 234.24 33.17 C 235.99 32.09 238.15 31.02 238.82 28.91 C 238.74 25.80 236.32 23.51 235.02 20.86 C 236.98 19.34 239.42 18.65 241.70 17.75 M 321.79 16.82 C 322.25 20.92 323.04 24.97 323.98 28.99 C 327.88 26.79 331.72 24.50 335.35 21.86 C 330.97 19.82 326.43 18.14 321.79 16.82 M 293.86 22.94 C 294.79 26.34 295.90 29.69 297.19 32.97 C 301.39 31.51 305.64 30.12 309.57 27.98 C 304.45 25.94 299.14 24.47 293.86 22.94 M 261.19 30.00 C 262.58 34.16 263.88 38.36 265.69 42.36 C 270.26 39.22 275.06 36.35 279.19 32.62 C 273.20 31.66 267.25 30.40 261.19 30.00 M 233.74 40.78 C 235.39 45.00 237.18 49.15 239.46 53.07 C 243.41 49.10 247.77 45.54 251.47 41.32 C 245.57 40.87 239.66 40.67 233.74 40.78 M 202.70 51.30 C 206.43 56.07 210.93 60.16 214.74 64.87 C 218.18 60.74 221.28 56.33 224.76 52.22 C 217.43 51.51 210.05 51.54 202.70 51.30 M 173.97 67.43 C 177.02 72.97 180.81 78.05 184.24 83.35 C 189.35 78.27 193.77 72.54 198.20 66.87 C 190.12 66.67 182.04 67.26 173.97 67.43 M 137.79 84.35 C 139.83 88.19 142.30 91.77 144.71 95.38 C 147.36 99.32 149.47 103.65 152.71 107.17 C 158.59 98.22 164.28 89.13 169.96 80.05 C 159.19 81.06 148.50 82.84 137.79 84.35 Z" />
<path fill="#a23624" opacity="1.00" d=" M 431.00 29.73 C 436.76 26.33 443.62 30.08 448.54 33.40 C 459.90 42.06 468.63 55.60 468.79 70.19 C 463.93 66.74 460.36 61.64 454.93 58.97 C 445.01 54.31 433.73 53.19 424.05 47.97 C 427.80 44.06 434.32 43.71 437.22 39.00 C 436.40 35.23 433.24 32.67 431.00 29.73 Z" />
<path fill="#a23624" opacity="1.00" d=" M 84.00 152.22 C 87.19 141.90 91.23 131.30 98.76 123.33 C 113.27 131.06 126.95 140.51 142.44 146.26 C 133.20 150.12 126.35 158.06 122.05 166.92 C 109.65 161.39 97.41 154.96 84.00 152.22 Z" />
<path fill="#a23624" opacity="1.00" d=" M 449.75 142.93 C 448.08 137.65 444.47 132.95 444.33 127.26 C 461.62 131.05 472.36 148.17 475.00 164.70 L 475.00 171.22 C 474.49 173.31 473.76 175.35 472.99 177.37 C 469.71 173.60 468.65 168.46 465.27 164.75 C 458.97 156.92 449.99 152.16 441.32 147.47 C 444.07 145.86 446.92 144.42 449.75 142.93 Z" />
<path fill="#a23624" opacity="1.00" d=" M 83.52 157.51 C 88.49 158.83 94.18 159.63 97.64 163.84 C 95.12 167.50 92.38 171.08 88.74 173.71 C 84.65 169.40 84.78 162.98 83.52 157.51 Z" />
<path fill="#a23624" opacity="1.00" d=" M 107.92 166.63 C 113.08 167.78 119.39 169.08 122.15 174.09 C 122.53 178.04 121.93 182.02 121.27 185.92 C 119.42 194.06 117.37 202.16 116.49 210.48 C 111.20 196.49 108.53 181.55 107.92 166.63 Z" />
<path fill="#a23624" opacity="1.00" d=" M 157.04 201.94 C 162.82 196.96 168.49 191.86 174.08 186.68 C 181.25 192.46 186.00 200.54 190.73 208.30 C 194.19 214.46 197.68 220.74 199.23 227.70 C 192.07 230.73 185.21 234.43 177.97 237.27 C 173.51 237.62 168.25 235.01 164.54 238.56 C 153.35 248.15 145.44 260.86 135.03 271.20 C 132.48 270.54 129.09 270.61 127.66 267.98 C 128.32 262.90 134.23 258.13 130.86 253.01 C 125.79 244.74 118.90 237.42 110.64 232.28 C 114.32 231.88 117.96 230.93 121.14 228.98 C 123.47 227.64 125.75 226.21 128.01 224.74 C 129.10 224.02 130.18 223.28 131.24 222.52 C 140.16 216.07 148.64 209.05 157.04 201.94 M 162.98 211.49 C 170.29 214.66 177.08 218.89 183.04 224.20 C 182.65 216.58 180.22 209.28 177.63 202.16 C 172.58 205.00 167.67 208.10 162.98 211.49 M 145.95 224.41 C 148.44 228.66 151.03 232.84 153.75 236.94 C 156.46 232.71 159.20 228.49 161.30 223.92 C 156.18 223.92 151.06 224.15 145.95 224.41 M 128.74 237.23 C 131.22 241.27 134.10 245.04 136.86 248.89 C 139.02 244.79 141.12 240.64 142.95 236.37 C 138.21 236.59 133.47 236.83 128.74 237.23 Z" />
<path fill="#a23624" opacity="1.00" d=" M 71.47 201.48 C 74.75 197.66 74.83 192.40 76.56 187.87 C 85.17 195.29 89.79 206.00 94.36 216.13 C 98.32 210.82 102.31 205.52 106.39 200.30 C 109.11 207.34 111.75 214.44 113.53 221.78 C 114.16 224.09 114.32 227.19 111.92 228.58 C 109.21 229.08 106.43 228.85 103.70 228.85 C 99.96 224.52 96.68 219.83 93.17 215.32 C 90.36 218.09 91.90 222.05 92.26 225.45 C 93.46 234.24 94.50 243.08 94.85 251.96 C 95.19 257.02 93.36 261.85 93.01 266.84 C 94.23 267.89 95.93 268.03 97.43 268.39 C 105.94 269.77 114.57 270.16 123.13 271.10 L 123.94 271.17 C 120.90 277.69 115.67 283.51 115.25 291.00 C 114.79 294.17 118.42 295.86 118.72 298.86 C 119.58 303.63 117.55 308.19 115.20 312.21 C 119.01 317.82 124.43 322.13 128.00 327.92 C 125.69 329.94 122.94 331.55 121.09 334.04 C 120.05 335.39 121.24 336.99 121.83 338.26 C 123.43 341.42 126.31 344.15 126.68 347.81 C 125.59 351.04 121.37 351.90 120.16 355.04 C 120.29 360.22 121.74 365.24 122.72 370.30 C 113.68 368.74 104.16 366.43 95.11 369.00 C 91.20 370.12 87.76 372.37 84.60 374.87 C 77.89 372.04 70.56 368.98 66.45 362.62 C 63.39 358.11 64.78 352.34 62.70 347.49 C 59.26 339.18 53.89 331.84 48.23 324.91 C 45.01 320.80 40.52 317.71 38.14 312.95 C 32.23 302.15 27.83 290.46 20.24 280.65 C 23.90 280.70 27.44 281.81 30.71 283.40 C 35.23 286.03 40.13 287.87 45.13 289.34 C 42.98 280.43 40.39 271.59 39.32 262.45 C 38.40 254.63 35.82 247.17 33.61 239.67 C 43.73 241.52 53.77 244.26 62.98 248.92 C 63.03 247.87 63.07 246.82 63.12 245.78 C 63.74 226.58 60.18 207.32 53.47 189.36 C 54.87 189.88 56.33 190.32 57.65 191.04 C 62.62 194.00 66.96 197.87 71.47 201.48 M 73.10 210.94 C 71.78 220.64 70.87 230.40 70.07 240.15 C 76.06 237.82 81.88 235.08 87.83 232.63 C 83.17 225.23 78.09 218.11 73.10 210.94 M 76.95 264.71 C 81.38 264.09 85.80 263.43 90.20 262.65 C 87.64 257.77 84.41 253.31 81.47 248.67 C 78.86 253.63 77.98 259.26 76.95 264.71 M 46.00 252.67 C 46.62 259.93 47.88 267.12 49.19 274.29 C 53.99 270.97 58.29 266.99 62.53 263.01 C 57.13 259.40 51.79 255.64 46.00 252.67 M 84.49 273.37 C 82.17 277.70 80.60 282.38 78.22 286.68 C 83.20 287.28 88.21 287.43 93.21 287.65 C 91.24 282.58 88.28 277.96 85.40 273.38 C 85.17 273.38 84.71 273.37 84.49 273.37 M 58.35 274.84 C 58.28 281.15 58.36 287.46 58.36 293.77 C 63.34 291.34 68.14 288.58 72.92 285.81 C 68.04 282.18 63.37 278.27 58.35 274.84 M 65.76 297.00 C 67.55 304.24 71.86 310.44 74.66 317.27 C 76.66 322.34 80.68 326.15 83.70 330.58 C 76.94 327.78 70.20 324.68 62.86 323.76 C 66.59 328.49 70.74 332.92 74.00 338.01 C 78.97 345.75 87.12 351.22 90.40 360.07 C 93.71 356.58 96.31 352.54 99.00 348.58 C 100.09 347.46 101.85 346.65 102.09 344.95 C 102.99 340.47 103.08 335.67 101.61 331.31 C 99.86 327.26 95.38 325.61 91.23 325.72 C 89.78 320.05 87.93 314.46 87.48 308.58 C 80.65 304.00 73.61 299.63 65.76 297.00 M 91.26 306.92 C 92.89 310.85 95.53 314.23 97.67 317.88 C 98.74 310.95 100.09 304.05 100.85 297.07 C 97.69 300.38 93.96 303.20 91.26 306.92 M 100.84 320.57 C 102.21 324.04 104.66 326.87 107.12 329.61 C 108.99 325.63 110.39 321.46 111.86 317.32 C 108.20 318.46 104.52 319.52 100.84 320.57 M 108.41 334.06 C 107.82 337.91 107.40 341.78 107.11 345.66 C 110.82 344.42 114.57 343.26 118.10 341.56 C 114.92 338.98 111.70 336.47 108.41 334.06 M 101.33 351.96 C 98.77 356.32 96.11 360.64 93.92 365.20 C 99.31 365.42 104.71 365.43 110.10 365.08 C 107.37 360.58 104.47 356.19 101.33 351.96 Z" />
<path fill="#a23624" opacity="1.00" d=" M 436.17 193.89 C 438.47 192.40 440.80 195.06 442.32 196.59 C 448.49 203.99 452.85 212.75 456.29 221.70 C 457.99 226.47 459.55 232.15 456.96 236.89 C 456.02 238.84 453.32 238.32 452.82 236.34 C 448.12 224.42 439.17 214.01 427.54 208.44 C 430.94 207.16 434.39 205.96 437.63 204.29 C 437.01 200.85 435.79 197.42 436.17 193.89 Z" />
<path fill="#a23624" opacity="1.00" d=" M 275.07 219.11 C 285.82 210.44 300.72 208.58 313.90 211.60 C 332.09 215.72 348.76 224.43 365.29 232.78 C 371.16 235.89 377.92 238.46 381.58 244.37 C 385.50 250.83 385.15 258.72 385.37 266.00 C 385.21 279.78 385.40 293.76 382.28 307.27 C 380.95 312.12 379.07 317.90 373.96 319.90 C 370.58 321.37 367.24 319.27 364.44 317.56 C 355.06 311.47 346.75 303.94 338.32 296.64 C 326.52 286.12 315.04 275.26 303.77 264.18 C 299.70 260.51 300.14 254.21 301.59 249.43 C 303.60 243.25 311.83 239.92 317.26 243.77 C 319.66 246.82 320.07 253.04 315.89 254.79 C 313.03 255.90 310.62 253.53 308.05 252.74 C 305.30 252.26 304.91 256.11 306.64 257.50 C 309.03 260.10 312.34 262.53 315.98 262.55 C 319.48 261.14 322.81 259.08 325.62 256.55 C 327.86 253.24 327.30 248.87 326.83 245.12 C 325.91 240.62 321.12 238.53 317.02 237.90 C 311.34 237.08 305.32 237.00 299.85 238.89 C 293.76 241.57 292.46 249.06 292.78 255.01 C 292.65 259.57 296.05 263.01 298.77 266.26 C 309.54 278.18 321.52 288.95 333.80 299.28 C 337.63 302.64 342.72 305.29 344.44 310.42 C 346.00 316.07 344.80 322.07 346.21 327.76 C 347.66 333.74 350.82 339.63 355.99 343.17 C 360.31 346.05 365.91 344.50 370.51 346.56 C 373.09 349.45 374.58 353.31 375.40 357.07 C 376.15 361.05 372.36 363.46 370.16 366.11 C 368.02 368.37 367.70 372.29 364.58 373.54 C 361.04 374.15 358.01 370.14 354.46 371.70 C 349.14 373.50 344.10 376.25 338.48 377.03 C 341.04 372.83 342.89 367.53 341.24 362.66 C 338.52 360.32 335.01 359.10 332.33 356.68 C 324.76 350.22 317.13 343.84 309.43 337.53 C 304.93 333.86 300.32 330.05 294.70 328.26 C 286.12 325.46 276.98 325.23 268.04 325.00 C 261.82 324.97 254.98 324.93 249.74 328.79 C 246.15 331.33 244.71 335.83 244.58 340.06 C 244.38 346.15 244.95 352.27 246.01 358.26 C 238.05 351.89 229.41 346.48 220.57 341.42 C 218.64 340.05 215.13 338.30 216.47 335.40 C 220.03 327.56 225.85 320.94 231.82 314.82 C 234.98 311.97 238.31 308.11 242.99 308.45 C 255.17 308.60 267.37 308.24 279.53 308.62 C 285.08 310.47 288.74 315.50 292.47 319.73 C 301.57 319.73 310.70 320.06 319.78 319.59 C 321.81 317.88 320.97 314.40 320.80 312.03 C 317.86 306.26 311.79 302.74 305.93 300.47 C 299.99 298.49 295.04 294.51 290.16 290.72 C 281.18 283.47 272.68 275.47 265.83 266.13 C 262.74 261.62 259.48 256.65 259.60 250.96 C 259.91 238.81 265.53 226.73 275.07 219.11 M 295.38 220.66 C 298.44 224.56 301.65 228.34 304.81 232.16 C 305.54 232.84 306.15 234.17 307.36 233.66 C 310.60 228.65 313.30 223.29 316.12 218.02 C 309.19 218.76 302.22 219.31 295.38 220.66 M 280.71 226.57 C 279.18 230.65 278.53 235.00 277.74 239.28 C 281.54 237.85 285.22 236.10 288.75 234.09 C 286.42 231.44 284.32 228.53 281.53 226.34 C 281.33 226.40 280.92 226.51 280.71 226.57 M 330.14 225.94 C 334.27 235.84 337.94 245.95 340.18 256.46 C 346.60 251.12 352.32 244.99 358.32 239.19 C 359.69 238.04 357.51 236.80 356.66 236.20 C 348.48 231.33 339.31 228.33 330.14 225.94 M 270.72 244.96 C 272.71 248.29 275.05 251.40 277.77 254.18 C 279.21 251.01 280.30 247.71 281.04 244.32 C 277.59 244.30 274.15 244.52 270.72 244.96 M 351.75 248.62 C 352.21 258.61 353.91 268.55 356.95 278.08 C 364.57 274.96 371.67 270.31 377.20 264.17 C 378.15 262.93 379.46 261.74 379.74 260.15 C 378.02 258.15 375.60 256.97 373.32 255.73 C 366.53 252.33 359.26 249.83 351.75 248.62 M 276.34 264.41 C 278.68 265.98 281.35 266.94 283.94 268.02 C 284.57 264.99 285.13 261.94 285.62 258.89 C 282.57 260.61 278.16 261.35 276.34 264.41 M 286.03 275.91 C 289.01 276.90 292.01 277.85 295.04 278.73 C 294.38 275.61 293.40 272.57 292.19 269.63 C 290.01 271.60 287.97 273.71 286.03 275.91 M 338.97 271.99 C 339.47 281.06 342.38 289.78 343.15 298.82 C 350.41 294.23 357.70 289.66 365.35 285.74 C 356.24 281.77 347.44 277.17 338.97 271.99 M 297.23 286.48 C 300.71 287.33 304.21 288.13 307.70 288.96 C 306.62 285.95 305.53 282.94 304.41 279.96 C 301.75 281.82 299.39 284.06 297.23 286.48 M 311.03 296.47 C 314.24 297.69 317.48 298.84 320.74 299.92 C 319.46 296.49 318.06 293.10 316.53 289.78 C 314.44 291.78 312.59 294.02 311.03 296.47 M 323.03 308.47 C 326.26 310.59 329.59 312.54 333.08 314.22 C 332.27 310.48 331.18 306.81 329.93 303.20 C 327.52 304.82 325.24 306.60 323.03 308.47 Z" />
<path fill="#a23624" opacity="1.00" d=" M 399.51 233.82 C 401.77 233.02 404.37 231.94 406.63 233.38 C 411.21 235.94 414.54 240.17 417.77 244.21 C 421.66 249.49 425.46 255.07 427.35 261.42 C 427.66 263.39 428.54 266.33 426.35 267.51 C 423.27 264.95 421.15 261.46 418.07 258.92 C 412.48 254.59 405.52 252.25 400.40 247.29 C 401.40 246.20 402.80 245.38 403.43 243.99 C 403.72 240.19 401.22 236.99 399.51 233.82 Z" />
<path fill="#a23624" opacity="1.00" d=" M 409.36 260.87 C 416.01 263.08 420.89 268.43 425.46 273.49 C 428.33 277.10 432.04 280.96 431.70 285.94 C 431.48 296.33 431.49 306.75 430.74 317.12 C 430.59 321.92 426.86 325.71 422.82 327.80 C 415.82 331.39 407.71 331.52 400.03 331.09 C 401.71 313.12 401.04 295.00 403.12 277.06 C 403.89 271.29 404.75 264.96 409.36 260.87 M 408.91 299.38 C 410.24 306.36 412.16 313.22 414.15 320.03 C 418.01 312.69 422.19 305.51 426.06 298.17 C 420.32 298.16 414.61 298.82 408.91 299.38 Z" />
<path fill="#a23624" opacity="1.00" d=" M 399.35 336.88 C 408.87 336.64 418.44 335.48 427.95 335.94 C 430.36 339.07 430.01 343.27 430.26 347.00 C 430.35 354.37 430.49 362.57 425.80 368.73 C 422.61 372.97 416.90 374.24 411.85 373.66 C 406.06 373.23 400.74 370.34 396.65 366.31 C 397.59 356.51 398.56 346.70 399.35 336.88 M 405.00 344.41 C 406.35 351.08 408.26 357.63 410.16 364.16 C 414.25 357.87 418.80 351.83 422.14 345.10 C 416.57 343.39 410.71 343.61 405.00 344.41 Z" />
<path fill="#a23624" opacity="1.00" d=" M 399.37 373.61 C 406.38 378.55 415.01 380.42 423.45 380.92 C 423.27 390.79 419.87 400.76 413.01 408.00 C 407.91 413.43 400.54 417.62 392.86 416.55 C 385.30 415.54 379.10 410.32 374.59 404.46 C 382.88 394.20 391.13 383.91 399.37 373.61 M 400.36 385.94 C 397.50 392.83 394.87 399.81 392.11 406.74 C 398.88 402.85 405.86 399.30 412.45 395.10 C 409.55 390.78 405.09 387.91 400.36 385.94 Z" />
<path fill="#a23624" opacity="1.00" d=" M 374.44 411.83 C 378.06 413.69 381.98 415.16 385.04 417.93 C 386.53 419.17 386.17 421.33 386.35 423.06 C 386.26 434.65 382.84 446.99 374.12 455.08 C 367.56 461.22 358.36 463.40 349.60 463.53 C 347.37 455.23 346.41 446.66 345.02 438.19 C 355.87 430.68 365.93 421.95 374.44 411.83 M 357.20 440.44 C 362.70 440.97 368.17 441.99 373.73 441.93 C 373.01 436.66 372.63 431.35 372.34 426.05 C 366.90 430.41 362.37 435.78 357.20 440.44 Z" />
<path fill="#a23624" opacity="1.00" d=" M 105.47 422.33 C 120.77 419.38 136.65 418.15 152.06 421.08 C 157.89 422.32 164.06 424.30 168.04 429.00 C 169.93 431.15 170.51 434.02 171.00 436.76 C 165.81 438.24 160.51 439.48 155.50 441.50 C 150.64 444.84 148.61 450.75 147.11 456.20 C 140.74 457.87 134.18 458.62 127.61 459.02 C 129.36 457.40 131.51 455.58 131.39 452.95 C 131.47 445.74 129.84 438.61 127.69 431.76 C 122.11 436.82 117.86 443.24 111.64 447.61 C 108.08 450.12 105.04 453.31 102.68 456.97 C 98.93 455.56 95.38 453.70 92.07 451.46 C 94.83 441.45 92.57 430.50 87.32 421.69 C 93.29 422.77 99.44 423.57 105.47 422.33 Z" />
<path fill="#a23624" opacity="1.00" d=" M 178.06 429.96 C 177.98 427.55 180.54 425.27 182.87 426.40 C 192.08 432.36 202.33 436.44 212.74 439.79 C 213.60 446.70 216.72 453.06 217.93 459.88 C 216.75 461.95 213.96 461.78 211.92 462.15 C 204.46 462.64 196.43 462.91 189.65 459.27 C 184.54 456.53 182.24 450.83 180.57 445.61 C 179.12 440.53 177.94 435.27 178.06 429.96 M 193.12 445.52 C 196.60 446.94 200.17 448.13 203.81 449.10 C 203.82 446.74 203.83 444.38 203.85 442.03 C 200.26 443.16 196.68 444.30 193.12 445.52 Z" />
<path fill="#a23624" opacity="1.00" d=" M 295.93 441.97 C 309.48 440.68 323.04 439.65 336.55 438.03 C 339.11 442.61 338.70 447.99 338.83 453.05 C 338.75 456.72 339.07 460.74 337.01 463.99 C 335.56 466.31 332.79 467.38 330.15 467.51 C 325.26 467.68 319.90 468.36 315.65 465.35 C 306.88 460.10 297.22 452.90 295.93 441.97 M 312.99 450.45 C 318.35 453.51 323.61 456.78 329.25 459.33 C 329.80 454.97 330.32 450.60 330.78 446.22 C 324.66 446.70 318.69 448.22 312.99 450.45 Z" />
<path fill="#a23624" opacity="1.00" d=" M 258.43 438.78 C 266.74 441.62 275.62 444.09 284.44 442.20 C 287.98 450.48 292.79 458.57 300.26 463.88 C 289.97 466.63 279.14 467.43 268.57 466.22 C 264.04 465.54 258.78 464.08 256.34 459.86 C 254.56 452.93 255.46 445.28 258.43 438.78 M 271.06 452.17 C 273.81 454.02 276.69 455.66 279.67 457.13 C 280.12 454.07 280.51 451.01 280.80 447.95 C 277.44 449.09 274.17 450.48 271.06 452.17 Z" />
<path fill="#a23624" opacity="1.00" d=" M 224.82 439.95 C 231.37 440.84 238.00 441.04 244.58 441.70 C 244.92 442.37 245.27 443.05 245.63 443.73 L 245.75 443.95 C 246.95 449.43 249.31 454.59 250.36 460.09 C 250.94 462.33 249.02 464.30 246.86 464.41 C 241.91 464.93 236.87 464.73 231.96 464.00 C 229.92 463.57 227.03 463.07 226.62 460.58 C 225.25 453.80 225.25 446.83 224.82 439.95 M 232.18 450.38 C 235.35 452.28 238.58 454.08 241.84 455.81 C 241.58 452.50 241.17 449.20 240.66 445.92 C 237.79 447.33 234.96 448.80 232.18 450.38 Z" />
</g>
<g id="#6d1f11ff">
<path fill="#6d1f11" opacity="1.00" d=" M 208.61 13.36 C 216.73 14.47 226.09 15.78 231.65 22.48 C 233.81 24.36 231.37 26.68 229.65 27.71 C 224.60 30.93 218.86 33.08 212.98 34.19 C 210.91 35.04 210.34 32.61 209.94 31.18 C 208.65 25.34 208.75 19.31 208.61 13.36 M 213.98 20.04 C 213.97 22.19 212.41 25.70 215.00 26.84 C 217.44 26.66 220.55 26.32 221.94 24.02 C 220.39 21.25 216.65 21.17 213.98 20.04 Z" />
<path fill="#6d1f11" opacity="1.00" d=" M 321.79 16.82 C 326.43 18.14 330.97 19.82 335.35 21.86 C 331.72 24.50 327.88 26.79 323.98 28.99 C 323.04 24.97 322.25 20.92 321.79 16.82 Z" />
<path fill="#6d1f11" opacity="1.00" d=" M 293.86 22.94 C 299.14 24.47 304.45 25.94 309.57 27.98 C 305.64 30.12 301.39 31.51 297.19 32.97 C 295.90 29.69 294.79 26.34 293.86 22.94 Z" />
<path fill="#6d1f11" opacity="1.00" d=" M 261.19 30.00 C 267.25 30.40 273.20 31.66 279.19 32.62 C 275.06 36.35 270.26 39.22 265.69 42.36 C 263.88 38.36 262.58 34.16 261.19 30.00 Z" />
<path fill="#6d1f11" opacity="1.00" d=" M 151.72 59.61 C 147.51 51.32 148.52 41.59 148.52 32.59 C 158.18 35.14 167.84 37.93 176.94 42.12 C 179.65 43.32 182.04 45.12 184.28 47.04 C 174.18 52.86 162.99 56.76 151.72 59.61 M 156.35 41.12 C 155.78 44.61 155.78 48.16 156.49 51.62 C 161.26 50.50 166.19 49.70 170.64 47.55 C 170.67 47.22 170.72 46.56 170.75 46.23 C 166.17 43.97 161.15 42.83 156.35 41.12 Z" />
<path fill="#6d1f11" opacity="1.00" d=" M 233.74 40.78 C 239.66 40.67 245.57 40.87 251.47 41.32 C 247.77 45.54 243.41 49.10 239.46 53.07 C 237.18 49.15 235.39 45.00 233.74 40.78 Z" />
<path fill="#6d1f11" opacity="1.00" d=" M 202.70 51.30 C 210.05 51.54 217.43 51.51 224.76 52.22 C 221.28 56.33 218.18 60.74 214.74 64.87 C 210.93 60.16 206.43 56.07 202.70 51.30 Z" />
<path fill="#6d1f11" opacity="1.00" d=" M 79.89 58.56 C 92.58 62.22 105.27 65.86 117.92 69.64 C 110.05 81.24 98.40 89.76 85.90 95.81 C 83.91 83.39 81.87 70.98 79.89 58.56 M 90.20 70.46 C 90.81 74.92 91.42 79.38 92.24 83.81 C 97.40 81.23 102.62 78.28 106.01 73.45 C 100.76 72.34 95.46 71.50 90.20 70.46 Z" />
<path fill="#6d1f11" opacity="1.00" d=" M 173.97 67.43 C 182.04 67.26 190.12 66.67 198.20 66.87 C 193.77 72.54 189.35 78.27 184.24 83.35 C 180.81 78.05 177.02 72.97 173.97 67.43 Z" />
<path fill="#6d1f11" opacity="1.00" d=" M 137.79 84.35 C 148.50 82.84 159.19 81.06 169.96 80.05 C 164.28 89.13 158.59 98.22 152.71 107.17 C 149.47 103.65 147.36 99.32 144.71 95.38 C 142.30 91.77 139.83 88.19 137.79 84.35 Z" />
<path fill="#6d1f11" opacity="1.00" d=" M 72.72 126.65 C 75.93 121.87 82.82 121.37 88.12 121.48 C 86.42 127.90 83.78 134.02 80.94 140.00 C 79.11 143.70 77.35 147.62 74.10 150.31 C 72.63 142.57 71.28 134.47 72.72 126.65 M 78.39 128.39 C 75.48 129.29 76.30 135.36 79.63 134.60 C 82.11 133.29 81.59 127.84 78.39 128.39 Z" />
<path fill="#6d1f11" opacity="1.00" d=" M 42.19 196.70 C 44.61 194.28 47.86 192.68 51.33 193.57 C 51.32 199.82 49.74 205.91 47.88 211.83 C 45.87 206.83 43.80 201.85 42.19 196.70 M 47.24 196.39 C 45.81 196.71 44.67 198.25 45.35 199.70 C 45.97 202.08 50.12 201.54 49.90 198.98 C 50.29 197.36 48.69 196.21 47.24 196.39 Z" />
<path fill="#6d1f11" opacity="1.00" d=" M 162.98 211.49 C 167.67 208.10 172.58 205.00 177.63 202.16 C 180.22 209.28 182.65 216.58 183.04 224.20 C 177.08 218.89 170.29 214.66 162.98 211.49 Z" />
<path fill="#6d1f11" opacity="1.00" d=" M 50.20 218.93 C 49.81 214.03 52.55 209.50 55.27 205.63 C 56.95 213.58 58.53 221.56 60.05 229.55 C 56.32 226.53 51.88 223.65 50.20 218.93 Z" />
<path fill="#6d1f11" opacity="1.00" d=" M 73.10 210.94 C 78.09 218.11 83.17 225.23 87.83 232.63 C 81.88 235.08 76.06 237.82 70.07 240.15 C 70.87 230.40 71.78 220.64 73.10 210.94 Z" />
<path fill="#6d1f11" opacity="1.00" d=" M 295.38 220.66 C 302.22 219.31 309.19 218.76 316.12 218.02 C 313.30 223.29 310.60 228.65 307.36 233.66 C 306.15 234.17 305.54 232.84 304.81 232.16 C 301.65 228.34 298.44 224.56 295.38 220.66 M 304.26 221.51 C 302.37 222.88 302.43 226.40 304.72 227.34 C 307.03 228.61 310.13 226.31 309.49 223.73 C 309.02 221.40 306.26 220.35 304.26 221.51 Z" />
<path fill="#6d1f11" opacity="1.00" d=" M 145.95 224.41 C 151.06 224.15 156.18 223.92 161.30 223.92 C 159.20 228.49 156.46 232.71 153.75 236.94 C 151.03 232.84 148.44 228.66 145.95 224.41 Z" />
<path fill="#6d1f11" opacity="1.00" d=" M 280.71 226.57 C 280.92 226.51 281.33 226.40 281.53 226.34 C 284.32 228.53 286.42 231.44 288.75 234.09 C 285.22 236.10 281.54 237.85 277.74 239.28 C 278.53 235.00 279.18 230.65 280.71 226.57 Z" />
<path fill="#6d1f11" opacity="1.00" d=" M 330.14 225.94 C 339.31 228.33 348.48 231.33 356.66 236.20 C 357.51 236.80 359.69 238.04 358.32 239.19 C 352.32 244.99 346.60 251.12 340.18 256.46 C 337.94 245.95 334.27 235.84 330.14 225.94 M 342.36 235.39 C 339.90 236.38 339.27 239.94 341.20 241.73 C 343.13 243.86 347.24 242.85 347.77 239.96 C 348.79 236.92 345.15 233.87 342.36 235.39 Z" />
<path fill="#6d1f11" opacity="1.00" d=" M 177.97 237.27 C 185.21 234.43 192.07 230.73 199.23 227.70 C 200.84 233.72 198.82 239.87 196.36 245.35 C 193.30 252.12 189.18 258.38 184.17 263.87 C 184.57 254.60 181.86 245.58 177.97 237.27 Z" />
<path fill="#6d1f11" opacity="1.00" d=" M 128.74 237.23 C 133.47 236.83 138.21 236.59 142.95 236.37 C 141.12 240.64 139.02 244.79 136.86 248.89 C 134.10 245.04 131.22 241.27 128.74 237.23 Z" />
<path fill="#6d1f11" opacity="1.00" d=" M 270.72 244.96 C 274.15 244.52 277.59 244.30 281.04 244.32 C 280.30 247.71 279.21 251.01 277.77 254.18 C 275.05 251.40 272.71 248.29 270.72 244.96 Z" />
<path fill="#6d1f11" opacity="1.00" d=" M 76.95 264.71 C 77.98 259.26 78.86 253.63 81.47 248.67 C 84.41 253.31 87.64 257.77 90.20 262.65 C 85.80 263.43 81.38 264.09 76.95 264.71 Z" />
<path fill="#6d1f11" opacity="1.00" d=" M 351.75 248.62 C 359.26 249.83 366.53 252.33 373.32 255.73 C 375.60 256.97 378.02 258.15 379.74 260.15 C 379.46 261.74 378.15 262.93 377.20 264.17 C 371.67 270.31 364.57 274.96 356.95 278.08 C 353.91 268.55 352.21 258.61 351.75 248.62 M 361.21 257.32 C 357.27 258.28 356.29 264.05 359.51 266.40 C 362.41 269.07 367.67 266.91 367.98 263.05 C 368.68 259.40 364.72 255.99 361.21 257.32 Z" />
<path fill="#6d1f11" opacity="1.00" d=" M 46.00 252.67 C 51.79 255.64 57.13 259.40 62.53 263.01 C 58.29 266.99 53.99 270.97 49.19 274.29 C 47.88 267.12 46.62 259.93 46.00 252.67 Z" />
<path fill="#6d1f11" opacity="1.00" d=" M 276.34 264.41 C 278.16 261.35 282.57 260.61 285.62 258.89 C 285.13 261.94 284.57 264.99 283.94 268.02 C 281.35 266.94 278.68 265.98 276.34 264.41 Z" />
<path fill="#6d1f11" opacity="1.00" d=" M 286.03 275.91 C 287.97 273.71 290.01 271.60 292.19 269.63 C 293.40 272.57 294.38 275.61 295.04 278.73 C 292.01 277.85 289.01 276.90 286.03 275.91 Z" />
<path fill="#6d1f11" opacity="1.00" d=" M 338.97 271.99 C 347.44 277.17 356.24 281.77 365.35 285.74 C 357.70 289.66 350.41 294.23 343.15 298.82 C 342.38 289.78 339.47 281.06 338.97 271.99 M 345.30 283.54 C 343.38 284.85 343.67 288.41 345.96 289.23 C 348.56 290.78 351.86 287.32 350.31 284.78 C 349.39 282.93 346.99 282.35 345.30 283.54 Z" />
<path fill="#6d1f11" opacity="1.00" d=" M 84.49 273.37 C 84.71 273.37 85.17 273.38 85.40 273.38 C 88.28 277.96 91.24 282.58 93.21 287.65 C 88.21 287.43 83.20 287.28 78.22 286.68 C 80.60 282.38 82.17 277.70 84.49 273.37 Z" />
<path fill="#6d1f11" opacity="1.00" d=" M 58.35 274.84 C 63.37 278.27 68.04 282.18 72.92 285.81 C 68.14 288.58 63.34 291.34 58.36 293.77 C 58.36 287.46 58.28 281.15 58.35 274.84 Z" />
<path fill="#6d1f11" opacity="1.00" d=" M 297.23 286.48 C 299.39 284.06 301.75 281.82 304.41 279.96 C 305.53 282.94 306.62 285.95 307.70 288.96 C 304.21 288.13 300.71 287.33 297.23 286.48 Z" />
<path fill="#6d1f11" opacity="1.00" d=" M 311.03 296.47 C 312.59 294.02 314.44 291.78 316.53 289.78 C 318.06 293.10 319.46 296.49 320.74 299.92 C 317.48 298.84 314.24 297.69 311.03 296.47 Z" />
<path fill="#6d1f11" opacity="1.00" d=" M 91.26 306.92 C 93.96 303.20 97.69 300.38 100.85 297.07 C 100.09 304.05 98.74 310.95 97.67 317.88 C 95.53 314.23 92.89 310.85 91.26 306.92 Z" />
<path fill="#6d1f11" opacity="1.00" d=" M 408.91 299.38 C 414.61 298.82 420.32 298.16 426.06 298.17 C 422.19 305.51 418.01 312.69 414.15 320.03 C 412.16 313.22 410.24 306.36 408.91 299.38 Z" />
<path fill="#6d1f11" opacity="1.00" d=" M 437.54 300.58 C 441.90 307.16 445.64 314.12 449.80 320.83 C 445.13 322.01 440.46 323.69 436.94 327.11 C 437.25 318.27 437.20 309.42 437.54 300.58 M 440.32 314.30 C 437.95 315.32 439.02 319.60 441.75 318.70 C 445.11 318.19 443.33 313.13 440.32 314.30 Z" />
<path fill="#6d1f11" opacity="1.00" d=" M 323.03 308.47 C 325.24 306.60 327.52 304.82 329.93 303.20 C 331.18 306.81 332.27 310.48 333.08 314.22 C 329.59 312.54 326.26 310.59 323.03 308.47 Z" />
<path fill="#6d1f11" opacity="1.00" d=" M 100.84 320.57 C 104.52 319.52 108.20 318.46 111.86 317.32 C 110.39 321.46 108.99 325.63 107.12 329.61 C 104.66 326.87 102.21 324.04 100.84 320.57 Z" />
<path fill="#6d1f11" opacity="1.00" d=" M 108.41 334.06 C 111.70 336.47 114.92 338.98 118.10 341.56 C 114.57 343.26 110.82 344.42 107.11 345.66 C 107.40 341.78 107.82 337.91 108.41 334.06 Z" />
<path fill="#6d1f11" opacity="1.00" d=" M 405.00 344.41 C 410.71 343.61 416.57 343.39 422.14 345.10 C 418.80 351.83 414.25 357.87 410.16 364.16 C 408.26 357.63 406.35 351.08 405.00 344.41 Z" />
<path fill="#6d1f11" opacity="1.00" d=" M 101.33 351.96 C 104.47 356.19 107.37 360.58 110.10 365.08 C 104.71 365.43 99.31 365.42 93.92 365.20 C 96.11 360.64 98.77 356.32 101.33 351.96 Z" />
<path fill="#6d1f11" opacity="1.00" d=" M 436.53 352.66 C 439.55 357.95 442.55 363.27 445.33 368.71 C 440.70 371.01 436.12 373.40 431.51 375.72 C 433.18 368.03 434.86 360.34 436.53 352.66 M 436.93 368.84 C 437.68 368.81 439.19 368.76 439.95 368.74 C 440.15 366.68 440.74 364.33 439.07 362.70 C 435.71 362.72 436.48 366.68 436.93 368.84 Z" />
<path fill="#6d1f11" opacity="1.00" d=" M 400.36 385.94 C 405.09 387.91 409.55 390.78 412.45 395.10 C 405.86 399.30 398.88 402.85 392.11 406.74 C 394.87 399.81 397.50 392.83 400.36 385.94 Z" />
<path fill="#6d1f11" opacity="1.00" d=" M 416.26 413.40 C 420.55 405.23 424.70 396.99 429.10 388.88 C 430.85 396.17 432.40 403.51 434.05 410.83 C 428.12 411.73 422.19 412.57 416.26 413.40 M 425.23 402.00 C 421.77 403.78 424.95 409.21 428.23 407.34 C 431.74 405.54 428.73 399.66 425.23 402.00 Z" />
<path fill="#6d1f11" opacity="1.00" d=" M 357.20 440.44 C 362.37 435.78 366.90 430.41 372.34 426.05 C 372.63 431.35 373.01 436.66 373.73 441.93 C 368.17 441.99 362.70 440.97 357.20 440.44 Z" />
<path fill="#6d1f11" opacity="1.00" d=" M 380.16 454.57 C 385.40 446.15 390.63 437.72 395.87 429.30 C 396.09 437.25 396.27 445.21 396.38 453.16 C 390.97 453.58 385.57 454.10 380.16 454.57 M 389.42 443.41 C 385.74 444.84 388.24 450.92 391.94 449.18 C 395.75 447.85 393.08 441.52 389.42 443.41 Z" />
<path fill="#6d1f11" opacity="1.00" d=" M 193.12 445.52 C 196.68 444.30 200.26 443.16 203.85 442.03 C 203.83 444.38 203.82 446.74 203.81 449.10 C 200.17 448.13 196.60 446.94 193.12 445.52 Z" />
<path fill="#6d1f11" opacity="1.00" d=" M 232.18 450.38 C 234.96 448.80 237.79 447.33 240.66 445.92 C 241.17 449.20 241.58 452.50 241.84 455.81 C 238.58 454.08 235.35 452.28 232.18 450.38 Z" />
<path fill="#6d1f11" opacity="1.00" d=" M 312.99 450.45 C 318.69 448.22 324.66 446.70 330.78 446.22 C 330.32 450.60 329.80 454.97 329.25 459.33 C 323.61 456.78 318.35 453.51 312.99 450.45 Z" />
<path fill="#6d1f11" opacity="1.00" d=" M 271.06 452.17 C 274.17 450.48 277.44 449.09 280.80 447.95 C 280.51 451.01 280.12 454.07 279.67 457.13 C 276.69 455.66 273.81 454.02 271.06 452.17 Z" />
</g>
<g id="#b69665ff">
<path fill="#b69665" opacity="1.00" d=" M 302.58 43.31 C 329.97 37.55 357.92 33.09 385.99 34.25 C 398.70 34.70 411.53 35.14 423.91 38.31 C 413.16 46.13 401.02 53.91 395.73 66.70 C 392.14 76.10 391.03 87.56 396.76 96.37 C 404.28 108.55 416.85 116.12 428.37 124.02 C 405.93 116.39 382.43 112.52 358.94 109.88 C 333.39 107.08 307.66 105.95 281.97 106.07 C 244.40 106.60 205.72 110.79 171.63 127.67 C 173.84 125.17 176.28 122.84 179.21 121.20 C 194.49 111.96 211.33 105.61 228.35 100.43 C 233.18 99.06 238.00 97.38 243.04 96.99 C 246.05 96.72 248.68 98.47 251.30 99.68 C 259.16 103.88 268.36 103.91 277.04 103.70 C 284.36 103.28 292.36 102.15 297.97 96.98 C 301.53 93.81 302.55 88.90 305.38 85.21 C 307.58 83.37 309.48 86.58 311.17 87.75 C 319.34 96.38 329.82 103.67 341.92 104.96 C 356.07 106.82 371.40 100.29 378.63 87.72 C 368.23 92.55 356.77 97.42 345.07 94.94 C 337.29 92.86 330.17 88.17 325.06 81.95 C 320.40 76.55 321.03 68.60 323.32 62.32 C 325.61 56.10 331.87 52.36 338.17 51.30 C 349.36 49.43 361.22 51.39 371.18 56.84 C 375.70 59.28 379.45 62.84 383.37 66.09 C 381.24 58.42 375.88 51.91 369.01 47.97 C 359.70 42.57 348.54 41.51 337.99 42.27 C 327.68 43.10 316.98 47.19 310.77 55.84 C 306.78 60.83 305.76 67.27 304.50 73.34 C 301.45 69.49 298.30 65.48 293.88 63.13 C 286.70 59.06 278.04 59.08 270.11 60.34 C 259.86 62.03 249.83 67.03 243.43 75.40 C 241.02 78.34 241.14 82.34 239.78 85.74 C 239.07 87.16 237.22 87.23 235.87 87.62 C 218.82 90.14 202.01 94.25 185.63 99.59 C 179.45 101.53 173.57 104.30 167.34 106.08 C 175.80 97.76 185.44 90.72 195.42 84.35 C 228.09 63.92 265.13 51.55 302.58 43.31 Z" />
<path fill="#b69665" opacity="1.00" d=" M 272.34 69.45 C 275.80 68.63 279.46 68.40 282.94 69.28 C 288.94 70.79 293.36 76.88 293.23 83.00 C 291.81 89.97 285.00 95.29 277.96 95.55 C 270.92 95.88 263.12 94.09 258.32 88.58 C 256.28 86.35 256.04 82.95 257.54 80.36 C 260.53 74.77 266.31 71.05 272.34 69.45 Z" />
<path fill="#b69665" opacity="1.00" d=" M 213.53 121.55 C 233.45 117.63 253.76 116.15 274.02 115.50 C 311.86 114.41 349.74 118.09 386.99 124.59 C 405.16 127.76 422.71 133.61 440.07 139.72 C 435.63 139.25 431.74 141.95 428.25 144.32 C 420.60 150.16 414.30 158.09 411.13 167.23 C 409.13 172.96 410.86 179.22 414.15 184.09 C 392.07 173.58 368.76 165.81 345.02 160.05 C 320.09 154.00 294.66 149.86 269.05 148.30 C 247.05 146.65 225.05 144.99 203.01 143.87 C 197.19 143.47 191.30 144.32 185.54 143.18 C 207.95 140.40 230.44 138.16 253.00 137.05 C 255.88 137.01 258.86 136.71 261.65 137.54 C 264.69 139.40 266.97 142.33 270.22 143.89 C 278.30 147.95 287.87 148.69 296.62 146.64 C 301.60 145.53 305.48 141.95 310.19 140.21 C 312.45 139.13 313.70 141.76 314.96 143.11 C 318.38 147.88 323.77 150.58 328.97 152.97 C 336.87 156.43 346.05 158.32 354.42 155.43 C 357.82 154.39 360.66 152.19 363.39 149.99 C 357.08 151.81 350.58 153.90 343.92 152.95 C 337.28 152.18 330.80 148.38 327.40 142.55 C 324.75 138.06 327.80 132.23 332.18 130.18 C 338.50 127.17 346.07 127.92 352.32 130.76 C 357.90 133.09 362.53 137.04 367.48 140.41 C 364.62 129.97 354.55 122.95 344.04 122.02 C 334.89 121.17 324.29 121.52 317.26 128.28 C 315.05 130.05 312.55 133.14 309.38 131.64 C 305.95 129.35 304.55 125.14 301.79 122.19 C 298.46 118.18 292.96 116.97 287.97 117.06 C 280.34 117.15 272.06 118.78 266.49 124.38 C 264.47 126.03 262.75 129.02 259.74 128.45 C 243.57 126.46 227.21 125.48 210.92 126.41 C 201.89 126.89 193.18 129.47 184.29 130.86 C 193.45 126.17 203.50 123.60 213.53 121.55 Z" />
<path fill="#b69665" opacity="1.00" d=" M 283.44 123.61 C 290.19 122.01 299.63 125.21 300.39 133.03 C 299.49 139.08 292.52 141.68 287.10 141.77 C 281.14 142.06 273.66 138.56 273.07 131.99 C 273.47 126.94 279.15 124.61 283.44 123.61 Z" />
<path fill="#b69665" opacity="1.00" d=" M 214.41 150.66 C 234.99 149.46 255.64 151.22 276.02 154.05 C 310.34 158.97 344.20 167.03 377.07 178.04 C 393.55 183.72 409.89 190.06 425.19 198.47 C 414.01 195.66 401.48 194.56 390.86 199.89 C 385.37 202.64 379.94 206.43 377.11 212.04 C 375.64 214.79 376.64 217.93 377.38 220.72 C 362.92 209.87 345.97 203.07 329.16 196.80 C 312.75 191.00 296.13 185.68 279.20 181.62 C 257.40 176.98 235.45 173.06 213.45 169.54 C 225.18 167.39 237.18 167.89 249.04 168.39 C 254.24 168.85 259.62 168.85 264.61 170.56 C 268.42 172.93 270.88 177.02 274.96 179.06 C 281.37 182.41 289.04 182.21 295.98 180.92 C 300.47 180.15 305.16 176.66 309.66 179.26 C 312.72 181.61 314.06 185.52 316.91 188.12 C 321.43 192.36 327.48 196.16 333.95 194.96 C 338.07 194.50 341.56 192.10 344.50 189.33 C 338.27 190.09 331.32 192.04 325.56 188.51 C 322.28 186.40 318.73 182.83 319.51 178.58 C 320.19 174.75 324.80 174.33 327.95 174.15 C 333.77 173.52 338.91 176.64 343.77 179.35 C 340.72 173.47 335.08 168.21 328.03 168.54 C 321.70 168.02 316.49 171.84 310.93 174.08 C 308.08 175.31 305.89 172.54 304.54 170.45 C 301.73 166.11 299.03 161.06 293.88 159.17 C 286.91 156.65 278.67 157.44 272.49 161.61 C 270.62 162.78 268.86 164.16 266.84 165.08 C 264.92 165.22 263.14 164.22 261.37 163.60 C 250.17 158.76 238.17 155.63 225.97 154.88 C 214.08 154.16 202.19 155.21 190.32 155.76 C 197.77 152.01 206.23 151.32 214.41 150.66 Z" />
<path fill="#b69665" opacity="1.00" d=" M 282.25 163.35 C 288.23 161.22 297.42 164.56 296.86 171.93 C 293.92 178.56 283.85 180.82 278.72 175.27 C 274.52 171.64 277.11 164.46 282.25 163.35 Z" />
<path fill="#b69665" opacity="1.00" d=" M 138.17 180.70 C 147.70 176.07 158.46 173.77 169.04 174.08 C 170.98 176.03 172.53 178.35 174.67 180.11 C 171.95 181.89 169.12 183.50 166.51 185.44 C 162.79 188.30 160.16 192.27 157.63 196.16 C 151.98 190.25 145.43 185.26 138.26 181.34 C 138.24 181.18 138.19 180.86 138.17 180.70 Z" />
<path fill="#b69665" opacity="1.00" d=" M 121.27 185.92 C 124.51 184.69 127.62 183.00 131.03 182.29 C 133.89 182.89 136.27 184.78 138.71 186.29 C 145.36 190.81 151.77 195.82 157.04 201.94 C 148.64 209.05 140.16 216.07 131.24 222.52 C 128.44 219.44 125.94 215.72 121.93 214.10 C 120.00 213.26 118.17 212.20 116.41 211.06 L 116.49 210.48 C 117.37 202.16 119.42 194.06 121.27 185.92 Z" />
<path fill="#b69665" opacity="1.00" d=" M 92.26 225.45 C 91.90 222.05 90.36 218.09 93.17 215.32 C 96.68 219.83 99.96 224.52 103.70 228.85 C 110.05 236.30 116.84 243.36 123.67 250.36 C 127.33 253.43 126.51 258.73 126.46 262.98 C 126.03 265.77 126.07 269.71 123.13 271.10 C 114.57 270.16 105.94 269.77 97.43 268.39 C 95.93 268.03 94.23 267.89 93.01 266.84 C 93.36 261.85 95.19 257.02 94.85 251.96 C 94.50 243.08 93.46 234.24 92.26 225.45 M 101.89 236.51 C 101.69 242.34 101.50 248.29 102.72 254.03 C 103.54 259.49 110.57 260.39 114.83 258.70 C 116.21 256.60 114.23 254.48 113.35 252.61 C 109.79 247.07 106.21 241.49 101.89 236.51 Z" />
<path fill="#b69665" opacity="1.00" d=" M 117.96 216.25 C 121.46 218.89 124.77 221.78 128.01 224.74 C 125.75 226.21 123.47 227.64 121.14 228.98 C 121.29 224.50 119.92 220.22 117.96 216.25 Z" />
<path fill="#b69665" opacity="1.00" d=" M 389.87 325.02 C 390.51 300.89 390.98 276.77 391.78 252.65 C 397.63 255.41 403.44 258.25 409.36 260.87 C 404.75 264.96 403.89 271.29 403.12 277.06 C 401.04 295.00 401.71 313.12 400.03 331.09 C 397.39 331.04 394.71 331.26 392.11 330.75 C 389.77 329.91 389.85 327.05 389.87 325.02 Z" />
<path fill="#b69665" opacity="1.00" d=" M 131.13 275.17 C 136.31 275.89 141.41 277.08 146.49 278.32 C 150.87 279.45 156.00 278.97 159.44 282.46 C 163.55 286.20 168.57 291.89 165.76 297.80 C 163.13 303.83 162.17 310.42 162.15 316.97 C 162.04 338.01 162.53 359.06 164.21 380.04 C 164.50 384.35 165.12 389.42 161.92 392.87 C 159.67 395.40 156.01 394.77 153.00 394.90 C 148.55 394.77 143.31 395.70 139.86 392.16 C 136.31 389.12 137.64 384.05 137.43 379.97 C 139.54 379.16 142.51 378.58 142.94 375.92 C 143.43 370.98 143.13 365.98 143.15 361.02 C 143.41 357.31 140.19 354.94 137.75 352.74 C 140.49 349.05 144.45 344.53 142.48 339.62 C 138.28 329.62 131.35 319.86 132.83 308.46 C 136.55 309.43 140.38 310.78 144.27 310.24 C 146.53 309.80 149.52 308.62 149.49 305.87 C 149.86 301.26 149.85 296.61 149.56 292.00 C 149.57 288.85 146.07 286.67 143.16 287.45 C 139.43 287.89 137.06 291.05 134.96 293.82 C 138.12 293.09 141.25 292.26 144.38 291.40 C 146.35 296.38 146.12 301.98 143.61 306.73 C 137.68 305.33 131.72 304.01 125.73 302.88 C 125.43 296.22 126.45 289.61 126.61 282.97 C 126.61 279.73 129.33 277.53 131.13 275.17 Z" />
<path fill="#b69665" opacity="1.00" d=" M 121.24 312.23 C 122.83 309.73 127.16 309.83 129.47 311.43 C 131.42 314.65 129.07 318.46 127.86 321.55 C 124.57 319.64 120.99 316.30 121.24 312.23 Z" />
<path fill="#b69665" opacity="1.00" d=" M 249.74 328.79 C 254.98 324.93 261.82 324.97 268.04 325.00 C 276.98 325.23 286.12 325.46 294.70 328.26 C 300.32 330.05 304.93 333.86 309.43 337.53 C 317.13 343.84 324.76 350.22 332.33 356.68 C 335.01 359.10 338.52 360.32 341.24 362.66 C 342.89 367.53 341.04 372.83 338.48 377.03 C 336.11 378.15 333.63 379.04 331.25 380.13 C 331.57 377.26 332.46 374.20 331.45 371.38 C 329.19 367.25 325.42 364.27 322.03 361.10 C 313.78 353.87 305.03 347.20 295.90 341.12 C 287.87 335.38 277.47 335.40 268.01 335.61 C 262.84 336.05 256.25 336.19 253.38 341.35 C 249.97 347.77 250.06 355.27 248.85 362.28 C 247.87 360.96 246.81 359.70 246.01 358.26 C 244.95 352.27 244.38 346.15 244.58 340.06 C 244.71 335.83 246.15 331.33 249.74 328.79 Z" />
<path fill="#b69665" opacity="1.00" d=" M 130.39 332.45 C 134.12 331.11 136.52 335.23 137.79 338.08 C 139.51 341.29 138.25 345.72 135.02 347.44 C 130.97 345.72 128.12 341.78 126.22 337.93 C 124.95 335.14 128.03 332.99 130.39 332.45 Z" />
<path fill="#b69665" opacity="1.00" d=" M 387.79 337.74 C 391.32 336.04 395.54 337.17 399.35 336.88 C 398.56 346.70 397.59 356.51 396.65 366.31 C 390.68 363.29 385.02 357.19 385.85 350.04 C 386.23 346.00 384.85 341.05 387.79 337.74 Z" />
<path fill="#b69665" opacity="1.00" d=" M 125.87 353.94 C 130.71 355.10 135.74 357.59 138.15 362.16 C 139.57 364.43 137.14 366.37 135.25 367.17 C 133.08 368.05 130.68 369.19 128.30 368.65 C 125.54 364.36 124.95 358.89 125.87 353.94 Z" />
<path fill="#b69665" opacity="1.00" d=" M 374.33 371.28 C 376.93 367.30 381.10 364.05 386.02 363.85 C 387.74 363.45 389.19 364.55 390.49 365.51 C 393.67 367.95 396.59 370.72 399.37 373.61 C 391.13 383.91 382.88 394.20 374.59 404.46 C 369.83 400.69 364.84 397.19 360.49 392.94 C 364.47 385.34 369.47 378.33 374.33 371.28 Z" />
<path fill="#b69665" opacity="1.00" d=" M 332.98 417.15 C 342.22 413.28 351.35 408.89 361.16 406.63 C 366.20 405.41 371.20 408.10 374.44 411.83 C 365.93 421.95 355.87 430.68 345.02 438.19 C 341.77 430.77 337.41 423.91 332.98 417.15 Z" />
<path fill="#b69665" opacity="1.00" d=" M 298.63 427.62 C 300.90 425.49 304.21 425.19 307.14 424.64 C 313.37 423.96 319.72 423.45 325.96 424.15 C 331.43 426.81 333.79 432.98 336.55 438.03 C 323.04 439.65 309.48 440.68 295.93 441.97 C 296.34 437.16 295.89 431.84 298.63 427.62 Z" />
<path fill="#b69665" opacity="1.00" d=" M 182.87 426.40 C 189.58 425.95 196.30 425.74 203.02 425.39 C 205.61 425.21 208.64 425.46 210.34 427.71 C 213.00 431.12 212.79 435.71 212.74 439.79 C 202.33 436.44 192.08 432.36 182.87 426.40 Z" />
<path fill="#b69665" opacity="1.00" d=" M 222.63 432.92 C 222.35 430.60 222.48 427.51 225.05 426.53 C 230.02 426.40 235.02 426.78 239.95 427.41 C 241.87 427.61 243.35 429.08 244.16 430.75 C 246.22 434.75 245.81 439.39 245.63 443.73 C 245.27 443.05 244.92 442.37 244.58 441.70 C 238.00 441.04 231.37 440.84 224.82 439.95 C 222.81 438.27 222.94 435.29 222.63 432.92 Z" />
<path fill="#b69665" opacity="1.00" d=" M 258.43 438.78 C 258.51 434.80 256.58 429.07 261.04 426.75 C 266.01 426.25 271.03 426.64 276.02 426.53 C 278.71 426.47 282.21 426.80 283.32 429.72 C 284.88 433.68 284.25 438.05 284.44 442.20 C 275.62 444.09 266.74 441.62 258.43 438.78 Z" />
</g>
<g id="#81664aff">
<path fill="#81664a" opacity="1.00" d=" M 310.77 55.84 C 316.98 47.19 327.68 43.10 337.99 42.27 C 348.54 41.51 359.70 42.57 369.01 47.97 C 375.88 51.91 381.24 58.42 383.37 66.09 C 379.45 62.84 375.70 59.28 371.18 56.84 C 361.22 51.39 349.36 49.43 338.17 51.30 C 331.87 52.36 325.61 56.10 323.32 62.32 C 321.03 68.60 320.40 76.55 325.06 81.95 C 330.17 88.17 337.29 92.86 345.07 94.94 C 356.77 97.42 368.23 92.55 378.63 87.72 C 371.40 100.29 356.07 106.82 341.92 104.96 C 329.82 103.67 319.34 96.38 311.17 87.75 C 309.48 86.58 307.58 83.37 305.38 85.21 C 302.55 88.90 301.53 93.81 297.97 96.98 C 292.36 102.15 284.36 103.28 277.04 103.70 C 268.36 103.91 259.16 103.88 251.30 99.68 C 248.68 98.47 246.05 96.72 243.04 96.99 C 238.00 97.38 233.18 99.06 228.35 100.43 C 211.33 105.61 194.49 111.96 179.21 121.20 C 176.28 122.84 173.84 125.17 171.63 127.67 C 169.28 128.95 166.91 130.61 164.14 130.66 C 158.77 130.00 155.37 123.48 157.58 118.60 C 159.81 113.73 163.71 109.91 167.34 106.08 C 173.57 104.30 179.45 101.53 185.63 99.59 C 202.01 94.25 218.82 90.14 235.87 87.62 C 237.22 87.23 239.07 87.16 239.78 85.74 C 241.14 82.34 241.02 78.34 243.43 75.40 C 249.83 67.03 259.86 62.03 270.11 60.34 C 278.04 59.08 286.70 59.06 293.88 63.13 C 298.30 65.48 301.45 69.49 304.50 73.34 C 305.76 67.27 306.78 60.83 310.77 55.84 M 272.34 69.45 C 266.31 71.05 260.53 74.77 257.54 80.36 C 256.04 82.95 256.28 86.35 258.32 88.58 C 263.12 94.09 270.92 95.88 277.96 95.55 C 285.00 95.29 291.81 89.97 293.23 83.00 C 293.36 76.88 288.94 70.79 282.94 69.28 C 279.46 68.40 275.80 68.63 272.34 69.45 Z" />
<path fill="#81664a" opacity="1.00" d=" M 266.49 124.38 C 272.06 118.78 280.34 117.15 287.97 117.06 C 292.96 116.97 298.46 118.18 301.79 122.19 C 304.55 125.14 305.95 129.35 309.38 131.64 C 312.55 133.14 315.05 130.05 317.26 128.28 C 324.29 121.52 334.89 121.17 344.04 122.02 C 354.55 122.95 364.62 129.97 367.48 140.41 C 362.53 137.04 357.90 133.09 352.32 130.76 C 346.07 127.92 338.50 127.17 332.18 130.18 C 327.80 132.23 324.75 138.06 327.40 142.55 C 330.80 148.38 337.28 152.18 343.92 152.95 C 350.58 153.90 357.08 151.81 363.39 149.99 C 360.66 152.19 357.82 154.39 354.42 155.43 C 346.05 158.32 336.87 156.43 328.97 152.97 C 323.77 150.58 318.38 147.88 314.96 143.11 C 313.70 141.76 312.45 139.13 310.19 140.21 C 305.48 141.95 301.60 145.53 296.62 146.64 C 287.87 148.69 278.30 147.95 270.22 143.89 C 266.97 142.33 264.69 139.40 261.65 137.54 C 258.86 136.71 255.88 137.01 253.00 137.05 C 230.44 138.16 207.95 140.40 185.54 143.18 C 181.46 142.48 178.10 139.92 175.10 137.21 C 177.92 134.78 180.85 132.38 184.29 130.86 C 193.18 129.47 201.89 126.89 210.92 126.41 C 227.21 125.48 243.57 126.46 259.74 128.45 C 262.75 129.02 264.47 126.03 266.49 124.38 M 283.44 123.61 C 279.15 124.61 273.47 126.94 273.07 131.99 C 273.66 138.56 281.14 142.06 287.10 141.77 C 292.52 141.68 299.49 139.08 300.39 133.03 C 299.63 125.21 290.19 122.01 283.44 123.61 Z" />
<path fill="#81664a" opacity="1.00" d=" M 190.32 155.76 C 202.19 155.21 214.08 154.16 225.97 154.88 C 238.17 155.63 250.17 158.76 261.37 163.60 C 263.14 164.22 264.92 165.22 266.84 165.08 C 268.86 164.16 270.62 162.78 272.49 161.61 C 278.67 157.44 286.91 156.65 293.88 159.17 C 299.03 161.06 301.73 166.11 304.54 170.45 C 305.89 172.54 308.08 175.31 310.93 174.08 C 316.49 171.84 321.70 168.02 328.03 168.54 C 335.08 168.21 340.72 173.47 343.77 179.35 C 338.91 176.64 333.77 173.52 327.95 174.15 C 324.80 174.33 320.19 174.75 319.51 178.58 C 318.73 182.83 322.28 186.40 325.56 188.51 C 331.32 192.04 338.27 190.09 344.50 189.33 C 341.56 192.10 338.07 194.50 333.95 194.96 C 327.48 196.16 321.43 192.36 316.91 188.12 C 314.06 185.52 312.72 181.61 309.66 179.26 C 305.16 176.66 300.47 180.15 295.98 180.92 C 289.04 182.21 281.37 182.41 274.96 179.06 C 270.88 177.02 268.42 172.93 264.61 170.56 C 259.62 168.85 254.24 168.85 249.04 168.39 C 237.18 167.89 225.18 167.39 213.45 169.54 C 205.22 168.96 195.94 168.44 189.54 162.56 C 187.30 160.56 188.35 157.47 190.32 155.76 M 282.25 163.35 C 277.11 164.46 274.52 171.64 278.72 175.27 C 283.85 180.82 293.92 178.56 296.86 171.93 C 297.42 164.56 288.23 161.22 282.25 163.35 Z" />
<path fill="#81664a" opacity="1.00" d=" M 101.89 236.51 C 106.21 241.49 109.79 247.07 113.35 252.61 C 114.23 254.48 116.21 256.60 114.83 258.70 C 110.57 260.39 103.54 259.49 102.72 254.03 C 101.50 248.29 101.69 242.34 101.89 236.51 Z" />
<path fill="#81664a" opacity="1.00" d=" M 123.87 274.67 C 126.28 274.86 128.70 275.06 131.13 275.17 C 129.33 277.53 126.61 279.73 126.61 282.97 C 126.45 289.61 125.43 296.22 125.73 302.88 C 131.72 304.01 137.68 305.33 143.61 306.73 C 146.12 301.98 146.35 296.38 144.38 291.40 C 141.25 292.26 138.12 293.09 134.96 293.82 C 137.06 291.05 139.43 287.89 143.16 287.45 C 146.07 286.67 149.57 288.85 149.56 292.00 C 149.85 296.61 149.86 301.26 149.49 305.87 C 149.52 308.62 146.53 309.80 144.27 310.24 C 140.38 310.78 136.55 309.43 132.83 308.46 C 129.63 307.43 126.47 306.29 123.18 305.59 C 123.26 295.28 123.65 284.97 123.87 274.67 Z" />
<path fill="#81664a" opacity="1.00" d=" M 91.23 325.72 C 95.38 325.61 99.86 327.26 101.61 331.31 C 103.08 335.67 102.99 340.47 102.09 344.95 C 101.85 346.65 100.09 347.46 99.00 348.58 C 95.80 341.18 92.77 333.67 91.23 325.72 Z" />
</g>
</svg>
