<?xml version="1.0" encoding="UTF-8" ?>
<!DOCTYPE svg PUBLIC "-//W3C//DTD SVG 1.1//EN" "http://www.w3.org/Graphics/SVG/1.1/DTD/svg11.dtd">
<svg width="470pt" height="478pt" viewBox="0 0 470 478" version="1.1" xmlns="http://www.w3.org/2000/svg">
<g id="#1e2c2eff">
<path fill="#1e2c2e" opacity="1.00" d=" M 83.72 0.00 L 84.62 0.00 C 90.26 2.91 96.16 5.82 100.61 10.46 C 101.92 11.45 100.42 12.85 99.72 13.66 C 95.72 17.62 90.80 20.52 85.85 23.15 C 83.95 15.59 83.44 7.77 83.72 0.00 Z" />
<path fill="#1e2c2e" opacity="1.00" d=" M 116.31 10.39 C 125.94 6.37 137.10 5.10 147.04 8.75 C 156.22 12.08 163.47 19.15 169.11 26.92 C 173.34 32.55 176.51 38.95 181.35 44.12 C 178.45 50.27 171.59 53.57 164.93 52.72 C 158.88 52.76 153.91 49.10 148.86 46.31 C 144.46 44.43 139.55 44.03 134.87 44.99 C 130.85 45.89 126.96 47.32 123.21 49.03 C 118.50 51.27 113.98 53.90 109.45 56.48 C 106.60 58.12 103.78 59.82 100.98 61.56 C 96.37 64.42 91.76 67.29 86.98 69.87 C 79.77 73.54 72.28 77.85 63.94 77.69 C 53.78 77.44 44.13 72.03 38.00 64.03 C 31.14 55.27 28.22 44.01 27.94 33.03 C 32.42 37.56 35.88 43.40 41.66 46.44 C 47.31 48.63 53.82 48.36 59.49 46.34 C 66.82 43.60 73.25 39.01 79.51 34.40 C 91.25 25.66 102.68 16.10 116.31 10.39 M 150.30 20.34 C 146.65 24.58 144.97 30.09 143.37 35.35 C 147.42 37.33 151.84 38.25 156.33 38.36 C 155.50 32.17 154.49 25.81 151.62 20.20 C 151.29 20.24 150.63 20.31 150.30 20.34 M 118.04 26.97 C 117.42 31.93 116.40 36.94 117.03 41.95 C 120.12 42.74 123.04 40.78 125.97 40.05 C 128.37 39.03 131.42 38.97 133.27 37.01 C 130.44 30.59 125.66 25.13 120.72 20.21 C 119.27 22.21 118.27 24.50 118.04 26.97 M 89.88 33.57 C 87.39 39.82 88.05 46.73 88.60 53.28 C 89.06 54.97 88.77 57.64 90.98 58.11 C 96.27 56.73 100.85 53.46 105.16 50.21 C 106.29 49.14 108.79 47.51 107.19 45.85 C 101.97 41.09 96.43 36.41 89.88 33.57 Z" />
<path fill="#1e2c2e" opacity="1.00" d=" M 269.42 15.83 C 277.93 15.28 286.42 14.50 294.92 13.86 C 294.76 14.30 294.44 15.18 294.29 15.62 C 290.42 20.58 285.73 24.82 280.84 28.74 C 276.65 24.79 272.82 20.47 269.42 15.83 Z" />
<path fill="#1e2c2e" opacity="1.00" d=" M 300.25 14.16 C 309.83 13.47 319.50 13.68 328.93 15.62 C 332.88 15.87 336.11 18.45 339.98 19.02 C 347.94 20.58 355.73 24.18 361.18 30.32 C 346.72 40.20 334.72 53.10 322.83 65.84 C 321.02 67.62 319.35 69.71 317.04 70.87 C 309.33 71.18 301.51 70.59 293.97 68.87 C 292.15 68.27 288.77 67.62 289.33 65.03 C 292.90 48.08 299.15 31.56 300.25 14.16 Z" />
<path fill="#1e2c2e" opacity="1.00" d=" M 60.58 32.98 C 60.32 26.72 59.79 20.26 61.69 14.18 C 68.42 17.99 73.70 23.92 78.00 30.26 C 73.84 33.89 68.46 36.10 62.98 36.67 C 60.62 37.27 60.68 34.53 60.58 32.98 Z" />
<path fill="#1e2c2e" opacity="1.00" d=" M 254.06 17.29 C 259.10 16.71 264.17 16.34 269.24 16.04 C 266.03 20.09 262.74 24.07 259.39 28.00 C 256.05 24.97 253.15 21.49 250.58 17.79 C 251.74 17.61 252.90 17.45 254.06 17.29 Z" />
<path fill="#1e2c2e" opacity="1.00" d=" M 239.13 23.19 C 241.11 23.07 243.63 23.27 244.58 25.35 C 245.77 28.06 245.23 31.12 245.15 33.99 C 244.43 42.69 244.68 51.45 243.75 60.13 C 243.58 64.12 239.05 65.10 235.90 65.75 C 230.31 66.59 224.65 67.93 218.98 67.36 C 215.42 66.97 214.36 63.04 214.06 60.05 C 213.16 52.36 212.05 44.68 211.73 36.94 C 211.69 34.28 211.76 30.83 214.41 29.38 C 222.22 25.94 230.58 23.64 239.13 23.19 Z" />
<path fill="#1e2c2e" opacity="1.00" d=" M 375.97 36.90 C 383.17 41.32 389.62 47.03 394.76 53.74 C 387.13 54.70 379.45 55.18 371.80 55.97 C 371.33 49.33 372.76 42.73 375.97 36.90 Z" />
<path fill="#1e2c2e" opacity="1.00" d=" M 184.15 53.30 C 189.27 49.91 194.08 46.07 199.26 42.78 C 197.72 48.18 196.28 53.63 194.01 58.79 C 191.28 57.84 188.61 56.71 185.87 55.81 C 185.48 55.71 184.70 55.51 184.31 55.41 L 184.00 55.33 C 184.04 54.83 184.11 53.81 184.15 53.30 Z" />
<path fill="#1e2c2e" opacity="1.00" d=" M 389.36 71.46 C 389.28 65.49 393.41 60.48 395.90 55.30 C 402.90 60.48 408.63 67.28 412.80 74.91 C 404.93 74.56 396.78 74.34 389.36 71.46 Z" />
<path fill="#1e2c2e" opacity="1.00" d=" M 160.48 72.48 C 165.86 67.83 169.32 61.40 174.77 56.84 C 177.76 61.16 179.28 66.23 180.75 71.21 C 182.28 76.84 183.80 82.64 183.15 88.52 C 178.34 88.67 174.90 85.09 170.93 83.02 C 166.12 80.56 159.66 81.96 155.59 78.08 C 156.03 75.57 158.90 74.34 160.48 72.48 Z" />
<path fill="#1e2c2e" opacity="1.00" d=" M 115.00 70.18 C 118.69 69.07 122.54 68.53 126.39 68.37 C 127.47 68.34 128.56 68.33 129.64 68.34 C 132.64 68.39 135.64 68.62 138.60 69.09 C 144.44 70.66 151.19 73.22 153.53 79.34 C 154.66 83.62 153.11 88.13 151.17 91.94 C 148.62 96.45 144.27 99.62 139.51 101.48 C 138.71 101.68 137.92 101.87 137.12 102.03 C 134.06 102.61 130.95 102.80 127.84 102.76 C 124.57 102.64 121.31 102.35 118.07 101.91 C 114.98 101.41 111.95 100.55 109.06 99.34 C 104.54 97.32 100.01 93.97 98.70 88.95 C 98.40 85.67 99.95 82.52 101.56 79.75 C 103.65 76.53 106.60 73.94 110.00 72.19 C 111.64 71.44 113.30 70.76 115.00 70.18 Z" />
<path fill="#1e2c2e" opacity="1.00" d=" M 169.81 104.62 C 178.03 97.84 185.05 89.71 193.50 83.21 C 193.80 103.71 190.19 125.56 177.05 141.98 C 166.89 154.92 151.07 162.27 135.01 164.50 C 123.76 165.96 111.65 166.98 101.11 161.91 C 89.02 156.30 81.06 145.20 72.44 135.52 C 67.22 129.79 61.01 123.90 52.94 122.95 C 44.56 122.14 36.46 125.16 28.76 128.07 C 34.73 117.42 42.47 107.64 51.96 99.90 C 57.31 95.62 64.03 91.70 71.16 93.30 C 82.73 95.51 91.11 104.57 101.26 109.84 C 105.83 112.30 110.62 114.39 115.57 115.99 C 118.28 116.83 121.04 117.54 123.84 118.05 C 129.76 119.09 135.75 119.72 141.76 119.87 C 147.35 119.91 152.50 117.39 157.10 114.44 C 161.60 111.52 165.74 108.10 169.81 104.62 M 87.15 125.94 C 86.61 129.78 86.90 133.67 87.81 137.43 C 95.25 135.90 101.76 131.35 106.82 125.82 C 103.66 122.22 98.87 120.84 95.41 117.61 C 93.74 116.31 92.17 114.48 89.89 114.44 C 87.85 117.91 87.68 122.05 87.15 125.94 M 152.15 128.99 C 156.60 132.44 161.51 135.90 167.25 136.57 C 169.19 137.01 169.78 134.55 169.99 133.11 C 170.64 127.04 170.56 120.81 168.97 114.88 C 162.57 118.38 155.86 122.51 152.15 128.99 M 120.80 130.84 C 121.32 137.31 122.77 143.65 123.97 150.02 C 124.30 152.20 125.22 154.23 126.35 156.11 C 131.32 148.74 136.92 141.57 139.93 133.11 C 134.03 130.20 127.22 129.61 120.80 130.84 Z" />
<path fill="#1e2c2e" opacity="1.00" d=" M 342.18 97.27 C 349.66 94.00 357.96 93.79 365.98 93.34 C 383.99 92.64 402.04 92.24 420.05 92.84 C 423.19 102.80 424.28 113.28 426.93 123.37 C 427.69 125.90 428.97 128.34 429.03 131.04 C 429.07 133.52 427.03 135.24 425.75 137.14 C 423.38 136.21 420.90 135.39 418.32 135.42 C 416.24 138.15 419.14 141.51 420.02 144.25 C 415.82 149.41 411.75 154.69 407.52 159.83 C 398.47 149.16 389.32 138.31 377.96 130.00 C 363.72 119.73 346.12 116.39 329.85 110.66 C 333.20 105.62 336.46 99.92 342.18 97.27 Z" />
<path fill="#1e2c2e" opacity="1.00" d=" M 215.13 134.59 C 225.61 128.44 238.35 128.65 249.93 130.84 C 255.30 131.83 260.49 133.76 265.11 136.70 C 260.98 142.20 257.30 148.02 253.94 154.02 C 244.52 150.35 233.56 147.85 223.93 152.19 C 222.26 145.78 218.99 139.92 215.13 134.59 Z" />
<path fill="#1e2c2e" opacity="1.00" d=" M 66.36 143.27 C 67.13 141.71 68.46 138.65 70.56 140.51 C 76.38 144.49 81.20 149.89 85.16 155.70 C 77.16 160.33 68.86 165.13 59.63 166.65 C 60.21 158.49 63.13 150.71 66.36 143.27 Z" />
<path fill="#1e2c2e" opacity="1.00" d=" M 293.61 140.41 C 303.37 140.73 312.91 143.33 321.95 146.92 C 335.10 152.25 347.31 159.73 358.49 168.43 C 371.15 178.82 378.89 194.24 382.34 210.04 C 383.72 219.27 384.53 228.69 383.76 238.01 C 383.22 244.21 380.94 251.01 375.21 254.24 C 371.28 256.70 365.91 259.33 361.54 256.37 C 355.47 252.15 353.79 244.29 352.81 237.41 C 356.54 235.17 361.17 233.30 362.81 228.91 C 364.93 223.23 365.01 216.94 364.01 211.02 C 363.62 209.18 363.13 206.67 360.94 206.24 C 353.74 204.69 345.93 206.71 340.37 211.56 C 338.19 208.14 335.71 204.92 332.98 201.92 C 337.10 192.97 337.78 182.64 336.07 173.02 C 335.40 169.80 334.09 165.17 330.05 165.14 C 323.38 165.52 317.18 169.55 313.31 174.89 C 308.01 170.96 302.46 167.38 296.55 164.46 C 296.49 156.37 295.63 148.26 293.61 140.41 Z" />
<path fill="#1e2c2e" opacity="1.00" d=" M 152.10 172.13 C 158.93 163.72 167.67 156.04 178.38 153.30 C 175.94 159.31 173.84 165.52 172.85 171.95 C 171.14 173.39 169.45 174.86 167.81 176.38 C 169.37 176.35 170.93 176.36 172.49 176.27 C 173.01 176.20 174.05 176.04 174.57 175.96 C 177.37 183.52 180.21 191.07 182.31 198.86 C 184.92 207.71 187.93 217.28 195.64 223.06 C 194.52 213.04 193.01 203.07 192.31 193.01 C 191.63 186.19 192.01 179.32 191.44 172.50 C 200.80 164.04 212.53 158.34 224.74 155.32 C 233.82 153.14 243.38 154.28 252.11 157.37 C 261.50 160.88 271.00 165.31 278.05 172.62 C 278.17 189.55 275.98 206.35 274.14 223.15 C 282.64 216.34 285.42 205.32 288.35 195.35 C 290.24 188.88 292.50 182.53 295.21 176.36 C 300.26 176.06 305.66 176.56 309.71 179.93 C 314.96 187.11 318.35 195.38 321.96 203.46 C 316.98 213.64 311.37 223.52 306.79 233.89 C 312.46 231.44 317.92 228.50 323.11 225.15 C 327.17 222.58 330.39 218.95 334.23 216.10 C 339.86 223.64 344.17 232.15 347.01 241.12 C 350.41 251.61 350.06 262.83 348.91 273.65 C 339.12 261.85 325.80 252.92 310.88 249.15 C 294.45 244.98 276.48 245.11 260.69 251.70 C 250.40 256.09 241.61 264.85 238.81 275.87 C 235.97 286.56 236.72 298.15 240.23 308.60 C 242.97 317.15 250.18 323.97 258.89 326.18 C 269.75 328.86 281.21 327.23 291.63 323.50 C 296.81 321.53 303.22 321.25 307.23 325.72 C 301.66 330.69 295.99 335.74 291.86 342.02 C 290.24 344.61 288.62 347.92 290.16 350.93 C 293.28 358.16 298.37 364.46 300.66 372.06 C 302.06 377.64 299.13 383.07 296.81 387.97 C 293.79 393.50 290.64 399.70 284.47 402.23 C 286.09 393.04 287.57 383.69 286.76 374.33 C 282.31 373.36 277.47 372.85 273.32 375.15 C 266.11 378.82 260.99 385.44 256.65 392.08 C 259.29 397.36 261.89 402.79 262.74 408.70 C 257.07 412.25 250.89 415.27 244.12 415.83 C 233.00 416.85 220.86 416.98 210.98 411.03 C 209.61 410.26 208.26 409.48 206.90 408.73 C 207.32 402.69 210.89 397.68 212.80 392.16 C 209.24 385.49 203.82 379.62 197.33 375.70 C 193.02 372.97 187.77 373.15 182.97 374.15 C 182.09 383.59 183.44 393.03 185.23 402.29 C 182.11 400.73 179.20 398.64 177.39 395.60 C 173.35 389.34 169.28 382.60 168.54 375.04 C 169.61 365.68 176.71 358.56 179.84 349.94 C 180.72 347.19 179.21 344.45 177.85 342.14 C 173.76 335.79 168.02 330.77 162.50 325.70 C 164.82 323.56 167.74 321.63 171.07 322.08 C 177.91 322.70 184.16 326.02 190.98 326.85 C 200.04 328.03 209.94 327.99 217.98 323.05 C 226.03 318.55 229.99 309.36 231.52 300.65 C 233.32 289.14 233.06 276.43 226.58 266.31 C 220.68 256.70 210.12 250.95 199.36 248.51 C 179.72 243.96 158.16 246.41 140.66 256.68 C 133.02 261.16 126.03 266.92 120.56 273.91 C 119.63 261.95 119.20 249.59 123.55 238.18 C 126.34 230.02 130.77 222.58 135.70 215.56 C 142.96 224.07 153.02 229.49 163.13 233.90 C 158.09 223.62 152.81 213.45 147.34 203.40 C 152.24 194.45 155.29 184.15 163.08 177.09 C 159.52 175.23 155.90 173.45 152.10 172.13 M 227.59 167.68 C 221.07 173.49 214.72 179.60 209.39 186.54 C 215.81 184.02 221.13 179.15 227.82 177.30 C 230.11 178.11 231.89 179.88 234.05 180.96 C 237.61 181.71 239.56 176.21 243.16 177.70 C 249.46 180.03 254.77 184.32 260.88 187.06 C 257.01 181.70 252.04 177.28 247.46 172.55 C 243.96 169.28 240.53 165.55 235.94 163.84 C 232.68 163.33 229.98 165.83 227.59 167.68 M 220.58 195.60 C 217.19 198.21 212.58 200.72 212.45 205.57 C 218.12 204.30 222.24 199.56 227.85 198.31 C 230.17 199.19 231.93 201.05 234.07 202.25 C 237.57 202.79 239.41 197.94 242.85 198.42 C 247.95 200.31 252.00 204.42 257.45 205.50 C 256.76 200.60 252.17 197.96 248.60 195.19 C 244.38 192.43 240.04 189.30 234.93 188.56 C 229.46 189.01 225.07 192.80 220.58 195.60 M 230.20 212.03 C 224.45 215.27 218.51 218.78 214.51 224.16 C 218.47 223.66 222.11 222.02 225.85 220.75 C 229.79 219.01 231.90 225.31 235.90 224.26 C 238.37 223.12 240.04 219.79 243.10 220.45 C 247.21 221.48 250.87 224.08 255.25 224.11 C 251.33 219.09 245.78 215.70 240.40 212.46 C 237.33 210.52 233.37 210.05 230.20 212.03 M 234.43 231.91 C 228.72 236.88 222.26 241.14 217.59 247.19 C 223.66 246.98 228.91 243.03 235.04 243.21 C 240.88 243.13 245.87 246.89 251.65 247.21 C 246.92 241.13 240.96 235.98 234.43 231.91 M 188.68 333.17 C 191.01 337.99 194.79 341.85 198.97 345.10 C 203.26 342.30 207.01 338.76 210.01 334.60 C 202.91 334.00 195.82 333.03 188.68 333.17 M 259.96 334.52 C 262.41 339.01 266.33 342.64 270.95 344.81 C 275.21 341.83 278.59 337.71 281.13 333.19 C 274.04 333.01 267.03 334.26 259.96 334.52 M 217.88 350.75 C 221.80 354.69 226.14 358.26 230.97 361.04 C 232.75 361.96 234.91 363.07 236.84 361.88 C 241.85 359.52 246.26 355.99 250.29 352.24 C 253.24 349.65 248.52 344.14 245.36 346.37 C 241.81 348.30 239.18 351.96 235.11 352.87 C 230.28 352.30 227.48 347.47 223.08 345.85 C 220.07 345.42 219.08 348.70 217.88 350.75 M 220.12 362.99 C 217.76 364.13 218.89 367.14 220.26 368.64 C 223.75 372.87 227.54 376.96 231.95 380.25 C 233.75 381.76 236.29 381.53 238.02 380.04 C 242.96 376.38 247.26 371.79 250.66 366.67 C 252.11 364.42 249.40 361.77 247.06 362.75 C 242.59 364.70 239.48 368.82 234.98 370.72 C 230.94 369.20 227.98 365.89 224.38 363.65 C 223.16 362.80 221.53 362.12 220.12 362.99 Z" />
<path fill="#1e2c2e" opacity="1.00" d=" M 379.73 162.61 C 385.80 162.66 391.75 163.79 397.69 164.91 L 398.56 165.07 C 396.45 169.01 393.38 172.28 390.31 175.48 C 389.27 174.90 388.20 174.36 387.15 173.81 C 387.02 175.39 386.88 176.98 386.82 178.56 C 384.66 179.76 382.40 180.77 380.04 181.49 C 379.57 175.21 379.69 168.90 379.73 162.61 Z" />
<path fill="#1e2c2e" opacity="1.00" d=" M 3.76 191.10 C 5.32 182.12 7.00 172.82 12.06 165.05 C 16.74 170.85 21.74 176.58 24.67 183.52 C 23.25 187.17 22.17 190.97 21.68 194.87 C 19.36 211.79 19.26 228.91 19.27 245.96 C 19.49 258.46 18.74 271.14 21.32 283.44 C 23.73 277.86 24.45 271.79 25.73 265.90 C 27.92 256.01 29.98 245.87 35.05 236.97 C 39.66 228.31 46.85 220.77 48.52 210.78 C 55.24 212.91 60.83 217.45 66.05 222.03 C 68.93 224.76 72.27 227.79 72.40 232.07 C 73.20 239.98 74.47 248.25 79.18 254.88 C 82.53 259.75 88.17 262.90 94.07 263.21 C 97.83 263.70 102.78 263.17 105.05 266.93 C 107.78 272.07 106.49 278.16 105.34 283.55 C 101.05 302.19 96.97 321.23 98.22 340.47 C 100.27 359.22 107.41 376.91 114.82 394.10 C 117.57 400.71 121.10 407.00 123.39 413.81 C 118.10 414.36 112.72 413.75 107.47 414.67 C 102.91 415.54 100.77 420.05 98.59 423.63 C 97.65 424.90 96.96 426.87 95.08 426.88 C 90.74 424.02 88.22 419.10 83.83 416.31 C 80.28 415.70 76.63 415.99 73.04 415.95 C 71.10 416.05 68.84 415.78 67.36 417.34 C 63.76 420.54 60.71 424.32 57.03 427.45 C 54.10 424.55 51.49 421.34 48.54 418.47 C 47.29 417.34 45.91 415.98 44.09 416.09 C 38.02 416.10 32.02 417.15 26.07 418.26 C 26.40 412.93 26.12 406.94 29.54 402.47 C 32.68 399.90 37.60 400.53 40.35 397.34 C 42.52 394.66 40.83 391.28 39.56 388.64 C 36.14 381.99 32.70 375.35 29.36 368.66 C 12.08 333.91 0.84 295.73 0.00 256.76 L 0.00 247.28 C 0.26 228.51 0.85 209.67 3.76 191.10 M 67.31 267.37 C 68.06 275.64 68.93 283.92 70.17 292.15 C 76.42 287.87 82.26 283.06 88.39 278.61 C 83.15 272.29 75.17 269.01 67.31 267.37 M 67.71 303.82 C 75.49 305.18 83.08 307.48 90.04 311.24 C 90.39 303.11 89.33 294.82 86.42 287.20 C 79.39 291.76 72.99 297.29 67.71 303.82 M 68.04 308.82 C 67.51 316.79 68.79 324.72 70.05 332.57 C 77.50 330.59 83.53 325.32 88.74 319.86 C 82.60 314.95 75.34 311.62 68.04 308.82 M 73.50 339.21 C 78.27 346.22 84.25 352.96 91.89 356.84 C 92.28 348.71 93.33 340.64 94.11 332.55 C 86.69 332.46 79.76 335.50 73.50 339.21 M 44.90 352.44 C 39.89 353.17 35.08 350.80 30.07 350.79 C 32.07 355.25 36.93 357.09 40.90 359.36 C 43.76 360.80 48.03 362.70 50.42 359.47 C 54.28 354.72 58.06 349.54 59.60 343.51 C 54.25 345.74 50.11 350.03 44.90 352.44 M 77.85 359.72 C 78.33 368.09 79.08 376.58 81.74 384.58 C 87.78 379.23 95.64 375.91 100.44 369.24 C 93.42 364.98 85.80 361.77 77.85 359.72 M 49.95 376.14 C 45.69 376.56 41.41 375.77 37.14 375.91 C 39.49 379.74 43.94 381.27 47.61 383.49 C 49.79 384.48 53.11 386.67 54.85 383.89 C 58.64 378.74 62.46 373.39 64.57 367.30 C 59.06 369.15 55.15 373.75 49.95 376.14 M 53.94 401.60 C 49.71 401.78 45.55 400.61 41.31 400.58 C 42.48 403.94 45.73 405.67 48.55 407.46 C 50.87 408.79 53.29 410.25 56.03 410.41 C 58.13 410.17 59.52 408.33 60.91 406.92 C 64.62 402.51 68.22 397.85 70.33 392.42 C 63.96 393.73 59.82 399.32 53.94 401.60 Z" />
<path fill="#1e2c2e" opacity="1.00" d=" M 445.31 183.55 C 448.23 176.59 453.26 170.87 457.94 165.06 C 461.08 169.92 463.00 175.42 464.25 181.04 C 469.08 202.75 469.59 225.12 470.00 247.27 L 470.00 259.55 C 469.53 266.34 469.12 273.14 468.27 279.90 C 464.05 315.10 451.44 348.79 434.91 379.97 C 432.78 384.92 428.86 389.46 428.63 394.97 C 429.74 400.64 436.91 399.49 440.48 402.51 C 443.88 406.98 443.60 412.95 443.91 418.28 C 437.97 417.16 431.98 416.09 425.92 416.09 C 424.10 415.98 422.72 417.32 421.47 418.44 C 418.52 421.33 415.91 424.55 412.97 427.45 C 410.08 424.89 407.43 422.07 404.75 419.29 C 403.16 417.78 401.49 415.81 399.07 416.04 C 394.79 415.94 390.47 415.69 386.23 416.29 C 381.76 419.34 378.73 424.04 374.59 427.51 C 370.33 423.68 369.10 416.73 363.20 414.85 C 357.78 413.62 352.15 414.42 346.65 413.84 C 350.18 403.93 355.32 394.70 359.10 384.88 C 366.15 367.09 373.08 348.39 371.93 328.93 C 371.34 314.41 368.50 300.12 365.20 286.01 C 364.02 280.47 362.43 274.66 364.02 269.04 C 364.61 266.64 366.51 264.57 368.97 264.05 C 373.71 263.00 378.87 263.63 383.31 261.33 C 389.10 258.57 392.83 252.85 394.77 246.91 C 396.63 241.83 397.00 236.41 397.74 231.10 C 398.17 227.19 401.39 224.55 404.01 221.97 C 409.21 217.41 414.79 212.92 421.47 210.78 C 423.29 221.53 431.38 229.46 436.00 238.98 C 443.19 252.83 443.70 268.80 448.47 283.43 C 450.21 277.76 450.25 271.78 450.49 265.91 C 450.86 250.53 450.86 235.13 450.35 219.75 C 449.40 207.64 449.81 195.04 445.31 183.55 M 381.59 278.60 C 387.81 282.96 393.67 287.80 399.88 292.17 C 400.76 283.91 402.07 275.70 402.67 267.41 C 394.80 268.97 386.90 272.38 381.59 278.60 M 379.95 311.21 C 386.94 307.51 394.52 305.17 402.30 303.81 C 396.99 297.31 390.66 291.70 383.55 287.25 C 380.63 294.85 379.73 303.12 379.95 311.21 M 381.27 319.89 C 386.52 325.28 392.49 330.64 399.97 332.52 C 401.21 324.70 402.49 316.79 401.96 308.85 C 394.63 311.61 387.39 314.94 381.27 319.89 M 375.87 332.57 C 376.67 340.65 377.70 348.71 378.09 356.82 C 385.85 353.10 391.64 346.17 396.51 339.25 C 390.29 335.44 383.30 332.43 375.87 332.57 M 410.40 343.50 C 411.26 347.74 413.77 351.33 416.07 354.90 C 417.75 357.23 419.31 359.99 422.02 361.24 C 425.29 361.58 428.26 359.75 431.07 358.34 C 434.40 356.38 438.39 354.65 439.86 350.77 C 434.71 350.78 429.68 353.45 424.55 352.26 C 419.63 349.68 415.56 345.68 410.40 343.50 M 369.53 369.20 C 374.28 375.91 382.25 379.11 388.20 384.58 C 390.96 376.60 391.66 368.08 392.16 359.72 C 384.22 361.81 376.60 365.03 369.53 369.20 M 405.45 367.31 C 406.94 372.59 410.41 376.93 413.31 381.47 C 414.65 383.19 416.19 386.32 418.89 385.04 C 423.88 382.73 429.45 380.49 432.88 375.99 C 428.58 375.74 424.29 376.61 420.01 376.14 C 414.82 373.76 411.00 369.04 405.45 367.31 M 399.67 392.38 C 401.72 397.85 405.36 402.50 409.08 406.92 C 410.78 408.87 413.10 411.36 415.97 410.07 C 420.83 408.10 426.24 405.53 428.73 400.64 C 424.46 400.59 420.25 401.73 415.99 401.58 C 410.20 399.18 405.98 393.79 399.67 392.38 Z" />
<path fill="#1e2c2e" opacity="1.00" d=" M 99.84 193.02 C 95.82 184.80 95.89 175.15 96.56 166.21 C 104.43 166.65 112.21 168.72 119.28 172.21 C 116.87 177.22 113.15 181.42 109.45 185.50 C 106.67 188.49 103.71 191.47 99.84 193.02 Z" />
<path fill="#1e2c2e" opacity="1.00" d=" M 117.71 205.07 C 121.91 197.44 127.17 190.18 134.26 185.00 C 135.76 190.61 137.98 196.19 142.00 200.50 C 138.47 203.19 135.25 206.25 132.41 209.66 C 128.30 206.28 122.87 205.40 117.71 205.07 Z" />
<path fill="#1e2c2e" opacity="1.00" d=" M 101.86 246.04 C 103.06 237.18 104.08 228.05 107.92 219.87 C 110.15 225.89 113.78 231.44 119.03 235.23 C 116.46 244.79 115.73 254.70 115.29 264.55 C 109.77 263.29 104.43 259.99 101.68 254.94 C 100.86 252.05 101.70 248.98 101.86 246.04 Z" />
<path fill="#1e2c2e" opacity="1.00" d=" M 74.52 274.58 C 77.12 273.81 80.53 276.10 79.85 279.07 C 79.89 283.35 72.89 284.42 71.78 280.20 C 70.45 277.92 72.58 275.57 74.52 274.58 Z" />
<path fill="#1e2c2e" opacity="1.00" d=" M 393.51 274.61 C 396.69 273.60 400.15 278.22 397.81 280.97 C 396.16 284.52 390.06 282.90 390.12 279.04 C 389.65 276.76 391.42 275.03 393.51 274.61 Z" />
<path fill="#1e2c2e" opacity="1.00" d=" M 80.36 296.43 C 82.25 295.88 85.20 295.76 85.87 298.12 C 87.11 300.75 85.20 304.77 81.90 303.79 C 78.26 303.68 77.90 298.32 80.36 296.43 Z" />
<path fill="#1e2c2e" opacity="1.00" d=" M 386.88 303.80 C 382.55 303.65 382.58 296.20 386.88 296.13 C 389.68 295.35 390.83 298.08 391.94 300.03 C 390.73 301.84 389.63 304.53 386.88 303.80 Z" />
<path fill="#1e2c2e" opacity="1.00" d=" M 73.12 316.91 C 75.23 317.19 78.76 316.88 78.85 319.89 C 79.66 322.72 76.87 323.81 74.97 325.01 C 73.70 323.99 71.88 323.31 71.41 321.59 C 70.79 319.80 72.44 318.39 73.12 316.91 Z" />
<path fill="#1e2c2e" opacity="1.00" d=" M 391.13 321.03 C 390.12 316.54 397.21 315.62 398.53 319.42 C 399.60 322.01 397.03 323.93 395.00 324.96 C 393.59 323.79 390.89 323.33 391.13 321.03 Z" />
<path fill="#1e2c2e" opacity="1.00" d=" M 84.43 339.53 C 86.55 338.49 89.52 339.33 90.20 341.77 C 92.10 345.12 87.73 349.21 84.43 347.46 C 81.28 346.06 81.27 340.92 84.43 339.53 Z" />
<path fill="#1e2c2e" opacity="1.00" d=" M 381.48 339.59 C 384.44 337.91 388.61 340.53 387.86 344.01 C 387.85 347.96 382.11 349.11 380.13 345.94 C 378.57 343.90 379.51 340.96 381.48 339.59 Z" />
<path fill="#1e2c2e" opacity="1.00" d=" M 83.38 367.53 C 85.07 366.91 87.47 366.70 88.74 368.25 C 91.13 370.44 89.54 375.26 86.14 375.29 C 82.04 375.83 79.71 369.76 83.38 367.53 Z" />
<path fill="#1e2c2e" opacity="1.00" d=" M 382.95 375.08 C 378.68 374.17 379.54 366.67 384.06 367.09 C 386.80 366.47 387.84 369.20 389.00 371.05 C 387.79 373.14 385.84 376.45 382.95 375.08 Z" />
<path fill="#1e2c2e" opacity="1.00" d=" M 108.36 419.42 C 115.10 416.71 124.39 421.18 123.98 429.09 C 124.43 431.97 121.18 432.66 119.01 432.68 C 113.66 432.85 108.19 433.22 102.92 432.11 C 100.58 431.67 100.27 428.95 100.64 427.03 C 101.41 423.24 104.87 420.61 108.36 419.42 Z" />
<path fill="#1e2c2e" opacity="1.00" d=" M 352.40 419.58 C 358.21 417.34 365.76 419.55 368.75 425.19 C 369.81 427.38 370.10 431.34 367.11 432.10 C 362.82 433.12 358.34 432.79 353.96 432.82 C 351.49 432.61 348.70 432.96 346.58 431.42 C 344.70 426.81 347.84 421.19 352.40 419.58 Z" />
<path fill="#1e2c2e" opacity="1.00" d=" M 70.34 421.56 C 73.68 421.07 77.22 421.38 80.32 422.77 C 84.59 424.63 85.96 430.28 84.38 434.35 C 82.44 437.47 78.22 437.25 75.00 437.54 C 70.89 437.49 66.18 437.89 62.70 435.30 C 60.97 434.07 61.47 431.76 61.97 430.04 C 63.06 426.05 66.09 422.29 70.34 421.56 Z" />
<path fill="#1e2c2e" opacity="1.00" d=" M 393.44 421.62 C 397.09 421.03 401.29 421.14 404.19 423.76 C 406.93 426.29 408.81 430.16 408.36 433.94 C 405.76 437.93 400.23 437.39 396.06 437.56 C 392.52 437.28 387.83 437.74 385.62 434.36 C 383.20 428.76 387.22 421.86 393.44 421.62 Z" />
<path fill="#1e2c2e" opacity="1.00" d=" M 33.55 422.80 C 38.45 422.07 43.70 421.80 48.42 423.57 C 52.46 425.05 53.32 432.36 48.67 433.63 C 43.62 435.26 38.17 434.79 32.93 434.78 C 30.29 434.49 26.62 434.72 25.17 431.98 C 24.08 426.96 29.16 423.42 33.55 422.80 Z" />
<path fill="#1e2c2e" opacity="1.00" d=" M 424.53 422.70 C 430.12 422.01 436.32 421.76 441.37 424.68 C 444.05 426.25 446.35 430.37 444.04 433.10 C 440.19 435.47 435.35 434.66 431.04 434.84 C 426.99 434.53 422.09 435.10 418.95 432.01 C 416.53 427.96 419.94 422.75 424.53 422.70 Z" />
</g>
<g id="#3a4754ff">
<path fill="#3a4754" opacity="1.00" d=" M 269.24 16.04 L 269.42 15.83 C 272.82 20.47 276.65 24.79 280.84 28.74 C 285.73 24.82 290.42 20.58 294.29 15.62 C 291.69 32.73 285.18 48.94 280.55 65.54 C 276.12 66.68 271.48 66.12 266.96 66.28 C 262.07 66.22 257.06 66.81 252.29 65.50 C 249.53 64.70 249.07 61.50 249.27 59.04 C 249.91 45.21 250.21 31.36 250.24 17.51 C 251.51 17.43 252.78 17.36 254.06 17.29 C 252.90 17.45 251.74 17.61 250.58 17.79 C 253.15 21.49 256.05 24.97 259.39 28.00 C 262.74 24.07 266.03 20.09 269.24 16.04 Z" />
<path fill="#3a4754" opacity="1.00" d=" M 150.30 20.34 C 150.63 20.31 151.29 20.24 151.62 20.20 C 154.49 25.81 155.50 32.17 156.33 38.36 C 151.84 38.25 147.42 37.33 143.37 35.35 C 144.97 30.09 146.65 24.58 150.30 20.34 Z" />
<path fill="#3a4754" opacity="1.00" d=" M 118.04 26.97 C 118.27 24.50 119.27 22.21 120.72 20.21 C 125.66 25.13 130.44 30.59 133.27 37.01 C 131.42 38.97 128.37 39.03 125.97 40.05 C 123.04 40.78 120.12 42.74 117.03 41.95 C 116.40 36.94 117.42 31.93 118.04 26.97 Z" />
<path fill="#3a4754" opacity="1.00" d=" M 89.88 33.57 C 96.43 36.41 101.97 41.09 107.19 45.85 C 108.79 47.51 106.29 49.14 105.16 50.21 C 100.85 53.46 96.27 56.73 90.98 58.11 C 88.77 57.64 89.06 54.97 88.60 53.28 C 88.05 46.73 87.39 39.82 89.88 33.57 Z" />
<path fill="#3a4754" opacity="1.00" d=" M 344.26 56.28 C 354.65 49.55 364.73 42.18 375.97 36.90 C 372.76 42.73 371.33 49.33 371.80 55.97 C 379.45 55.18 387.13 54.70 394.76 53.74 L 394.97 53.71 C 395.20 54.11 395.67 54.90 395.90 55.30 C 393.41 60.48 389.28 65.49 389.36 71.46 C 396.78 74.34 404.93 74.56 412.80 74.91 L 413.47 74.93 C 413.38 75.64 413.19 77.05 413.10 77.76 C 388.24 83.27 362.69 85.40 337.94 91.54 C 335.73 90.78 334.25 88.85 332.77 87.16 C 329.12 82.56 325.94 77.54 323.79 72.07 C 329.81 65.85 337.22 61.24 344.26 56.28 Z" />
<path fill="#3a4754" opacity="1.00" d=" M 199.26 42.78 C 200.21 39.96 206.03 37.59 206.24 42.01 C 207.26 49.71 208.36 57.40 209.46 65.08 C 210.40 68.90 206.64 71.21 203.76 72.70 C 199.93 74.51 196.18 76.75 191.97 77.52 C 189.50 77.83 188.34 75.09 187.76 73.17 C 186.19 67.34 185.21 61.37 184.31 55.41 C 184.70 55.51 185.48 55.71 185.87 55.81 C 188.61 56.71 191.28 57.84 194.01 58.79 C 196.28 53.63 197.72 48.18 199.26 42.78 Z" />
<path fill="#3a4754" opacity="1.00" d=" M 87.15 125.94 C 87.68 122.05 87.85 117.91 89.89 114.44 C 92.17 114.48 93.74 116.31 95.41 117.61 C 98.87 120.84 103.66 122.22 106.82 125.82 C 101.76 131.35 95.25 135.90 87.81 137.43 C 86.90 133.67 86.61 129.78 87.15 125.94 Z" />
<path fill="#3a4754" opacity="1.00" d=" M 152.15 128.99 C 155.86 122.51 162.57 118.38 168.97 114.88 C 170.56 120.81 170.64 127.04 169.99 133.11 C 169.78 134.55 169.19 137.01 167.25 136.57 C 161.51 135.90 156.60 132.44 152.15 128.99 Z" />
<path fill="#3a4754" opacity="1.00" d=" M 297.88 132.04 C 305.05 123.48 315.71 118.96 325.79 114.77 C 339.77 119.74 354.27 123.99 366.95 131.90 C 378.90 141.15 388.21 153.27 397.69 164.91 C 391.75 163.79 385.80 162.66 379.73 162.61 C 379.69 168.90 379.57 175.21 380.04 181.49 C 377.37 177.11 373.54 173.62 369.78 170.20 C 358.49 160.23 346.10 151.50 332.95 144.17 C 322.04 138.29 310.39 133.01 297.88 132.04 Z" />
<path fill="#3a4754" opacity="1.00" d=" M 120.80 130.84 C 127.22 129.61 134.03 130.20 139.93 133.11 C 136.92 141.57 131.32 148.74 126.35 156.11 C 125.22 154.23 124.30 152.20 123.97 150.02 C 122.77 143.65 121.32 137.31 120.80 130.84 Z" />
<path fill="#3a4754" opacity="1.00" d=" M 48.38 135.58 C 49.76 135.28 51.59 134.92 52.56 136.27 C 52.88 138.31 51.90 140.23 51.09 142.04 C 47.82 148.76 43.69 155.14 41.62 162.38 C 40.12 168.56 39.53 174.92 38.14 181.12 C 37.67 182.81 37.25 184.83 35.62 185.81 C 33.46 185.72 32.16 183.65 30.74 182.29 C 25.95 176.57 21.56 170.41 18.24 163.72 C 16.89 161.36 18.51 158.77 19.79 156.78 C 23.67 151.35 28.96 147.14 34.26 143.18 C 38.66 140.16 43.19 137.06 48.38 135.58 Z" />
<path fill="#3a4754" opacity="1.00" d=" M 418.32 135.42 C 420.90 135.39 423.38 136.21 425.75 137.14 C 433.31 140.85 440.09 146.05 446.11 151.91 C 448.78 154.81 451.92 157.95 452.31 162.07 C 449.28 169.74 444.08 176.42 438.85 182.74 C 437.50 184.09 434.89 187.39 433.24 184.75 C 430.70 179.52 430.73 173.49 429.51 167.89 C 428.48 159.29 423.92 151.79 420.02 144.25 C 419.14 141.51 416.24 138.15 418.32 135.42 Z" />
<path fill="#3a4754" opacity="1.00" d=" M 227.59 167.68 C 229.98 165.83 232.68 163.33 235.94 163.84 C 240.53 165.55 243.96 169.28 247.46 172.55 C 252.04 177.28 257.01 181.70 260.88 187.06 C 254.77 184.32 249.46 180.03 243.16 177.70 C 239.56 176.21 237.61 181.71 234.05 180.96 C 231.89 179.88 230.11 178.11 227.82 177.30 C 221.13 179.15 215.81 184.02 209.39 186.54 C 214.72 179.60 221.07 173.49 227.59 167.68 Z" />
<path fill="#3a4754" opacity="1.00" d=" M 174.57 175.96 C 180.04 174.14 185.69 173.00 191.44 172.50 C 192.01 179.32 191.63 186.19 192.31 193.01 C 193.01 203.07 194.52 213.04 195.64 223.06 C 187.93 217.28 184.92 207.71 182.31 198.86 C 180.21 191.07 177.37 183.52 174.57 175.96 Z" />
<path fill="#3a4754" opacity="1.00" d=" M 278.05 172.62 C 283.92 173.06 289.76 174.02 295.32 176.03 L 295.21 176.36 C 292.50 182.53 290.24 188.88 288.35 195.35 C 285.42 205.32 282.64 216.34 274.14 223.15 C 275.98 206.35 278.17 189.55 278.05 172.62 Z" />
<path fill="#3a4754" opacity="1.00" d=" M 387.15 173.81 C 388.20 174.36 389.27 174.90 390.31 175.48 C 396.28 179.82 401.21 185.46 406.15 190.91 C 408.91 194.38 412.36 197.65 413.49 202.07 C 411.65 205.25 408.71 207.57 406.01 209.98 C 402.08 213.24 398.24 216.63 393.93 219.37 C 392.93 213.25 393.81 206.93 392.07 200.92 C 389.97 193.57 386.97 186.30 386.82 178.56 C 386.88 176.98 387.02 175.39 387.15 173.81 Z" />
<path fill="#3a4754" opacity="1.00" d=" M 63.47 191.51 C 68.27 186.37 73.12 181.08 79.05 177.23 C 80.33 175.94 81.45 177.80 81.58 178.94 C 82.84 186.49 79.98 193.83 77.91 200.96 C 76.17 206.96 77.05 213.26 76.07 219.36 C 71.93 216.76 68.27 213.48 64.49 210.40 C 61.61 207.84 58.44 205.41 56.49 202.02 C 57.55 197.83 60.81 194.74 63.47 191.51 Z" />
<path fill="#3a4754" opacity="1.00" d=" M 21.68 194.87 C 22.17 190.97 23.25 187.17 24.67 183.52 C 27.84 189.70 31.90 195.38 36.20 200.81 C 39.62 204.83 43.25 209.23 48.52 210.78 C 46.85 220.77 39.66 228.31 35.05 236.97 C 29.98 245.87 27.92 256.01 25.73 265.90 C 24.45 271.79 23.73 277.86 21.32 283.44 C 18.74 271.14 19.49 258.46 19.27 245.96 C 19.26 228.91 19.36 211.79 21.68 194.87 Z" />
<path fill="#3a4754" opacity="1.00" d=" M 445.31 183.55 C 449.81 195.04 449.40 207.64 450.35 219.75 C 450.86 235.13 450.86 250.53 450.49 265.91 C 450.25 271.78 450.21 277.76 448.47 283.43 C 443.70 268.80 443.19 252.83 436.00 238.98 C 431.38 229.46 423.29 221.53 421.47 210.78 C 426.97 209.17 430.68 204.51 434.21 200.30 C 438.32 195.01 442.26 189.53 445.31 183.55 Z" />
<path fill="#3a4754" opacity="1.00" d=" M 220.58 195.60 C 225.07 192.80 229.46 189.01 234.93 188.56 C 240.04 189.30 244.38 192.43 248.60 195.19 C 252.17 197.96 256.76 200.60 257.45 205.50 C 252.00 204.42 247.95 200.31 242.85 198.42 C 239.41 197.94 237.57 202.79 234.07 202.25 C 231.93 201.05 230.17 199.19 227.85 198.31 C 222.24 199.56 218.12 204.30 212.45 205.57 C 212.58 200.72 217.19 198.21 220.58 195.60 Z" />
<path fill="#3a4754" opacity="1.00" d=" M 146.31 204.09 L 147.34 203.40 C 152.81 213.45 158.09 223.62 163.13 233.90 C 153.02 229.49 142.96 224.07 135.70 215.56 C 135.87 215.02 136.21 213.96 136.38 213.43 C 138.37 209.15 142.40 206.44 146.31 204.09 Z" />
<path fill="#3a4754" opacity="1.00" d=" M 306.79 233.89 C 311.37 223.52 316.98 213.64 321.96 203.46 C 324.24 204.73 326.52 206.03 328.63 207.59 C 331.32 209.79 333.23 212.77 334.23 216.10 C 330.39 218.95 327.17 222.58 323.11 225.15 C 317.92 228.50 312.46 231.44 306.79 233.89 Z" />
<path fill="#3a4754" opacity="1.00" d=" M 230.20 212.03 C 233.37 210.05 237.33 210.52 240.40 212.46 C 245.78 215.70 251.33 219.09 255.25 224.11 C 250.87 224.08 247.21 221.48 243.10 220.45 C 240.04 219.79 238.37 223.12 235.90 224.26 C 231.90 225.31 229.79 219.01 225.85 220.75 C 222.11 222.02 218.47 223.66 214.51 224.16 C 218.51 218.78 224.45 215.27 230.20 212.03 Z" />
<path fill="#3a4754" opacity="1.00" d=" M 234.43 231.91 C 240.96 235.98 246.92 241.13 251.65 247.21 C 245.87 246.89 240.88 243.13 235.04 243.21 C 228.91 243.03 223.66 246.98 217.59 247.19 C 222.26 241.14 228.72 236.88 234.43 231.91 Z" />
<path fill="#3a4754" opacity="1.00" d=" M 67.31 267.37 C 75.17 269.01 83.15 272.29 88.39 278.61 C 82.26 283.06 76.42 287.87 70.17 292.15 C 68.93 283.92 68.06 275.64 67.31 267.37 M 74.52 274.58 C 72.58 275.57 70.45 277.92 71.78 280.20 C 72.89 284.42 79.89 283.35 79.85 279.07 C 80.53 276.10 77.12 273.81 74.52 274.58 Z" />
<path fill="#3a4754" opacity="1.00" d=" M 381.59 278.60 C 386.90 272.38 394.80 268.97 402.67 267.41 C 402.07 275.70 400.76 283.91 399.88 292.17 C 393.67 287.80 387.81 282.96 381.59 278.60 M 393.51 274.61 C 391.42 275.03 389.65 276.76 390.12 279.04 C 390.06 282.90 396.16 284.52 397.81 280.97 C 400.15 278.22 396.69 273.60 393.51 274.61 Z" />
<path fill="#3a4754" opacity="1.00" d=" M 67.71 303.82 C 72.99 297.29 79.39 291.76 86.42 287.20 C 89.33 294.82 90.39 303.11 90.04 311.24 C 83.08 307.48 75.49 305.18 67.71 303.82 M 80.36 296.43 C 77.90 298.32 78.26 303.68 81.90 303.79 C 85.20 304.77 87.11 300.75 85.87 298.12 C 85.20 295.76 82.25 295.88 80.36 296.43 Z" />
<path fill="#3a4754" opacity="1.00" d=" M 379.95 311.21 C 379.73 303.12 380.63 294.85 383.55 287.25 C 390.66 291.70 396.99 297.31 402.30 303.81 C 394.52 305.17 386.94 307.51 379.95 311.21 M 386.88 303.80 C 389.63 304.53 390.73 301.84 391.94 300.03 C 390.83 298.08 389.68 295.35 386.88 296.13 C 382.58 296.20 382.55 303.65 386.88 303.80 Z" />
<path fill="#3a4754" opacity="1.00" d=" M 68.04 308.82 C 75.34 311.62 82.60 314.95 88.74 319.86 C 83.53 325.32 77.50 330.59 70.05 332.57 C 68.79 324.72 67.51 316.79 68.04 308.82 M 73.12 316.91 C 72.44 318.39 70.79 319.80 71.41 321.59 C 71.88 323.31 73.70 323.99 74.97 325.01 C 76.87 323.81 79.66 322.72 78.85 319.89 C 78.76 316.88 75.23 317.19 73.12 316.91 Z" />
<path fill="#3a4754" opacity="1.00" d=" M 381.27 319.89 C 387.39 314.94 394.63 311.61 401.96 308.85 C 402.49 316.79 401.21 324.70 399.97 332.52 C 392.49 330.64 386.52 325.28 381.27 319.89 M 391.13 321.03 C 390.89 323.33 393.59 323.79 395.00 324.96 C 397.03 323.93 399.60 322.01 398.53 319.42 C 397.21 315.62 390.12 316.54 391.13 321.03 Z" />
<path fill="#3a4754" opacity="1.00" d=" M 73.50 339.21 C 79.76 335.50 86.69 332.46 94.11 332.55 C 93.33 340.64 92.28 348.71 91.89 356.84 C 84.25 352.96 78.27 346.22 73.50 339.21 M 84.43 339.53 C 81.27 340.92 81.28 346.06 84.43 347.46 C 87.73 349.21 92.10 345.12 90.20 341.77 C 89.52 339.33 86.55 338.49 84.43 339.53 Z" />
<path fill="#3a4754" opacity="1.00" d=" M 188.68 333.17 C 195.82 333.03 202.91 334.00 210.01 334.60 C 207.01 338.76 203.26 342.30 198.97 345.10 C 194.79 341.85 191.01 337.99 188.68 333.17 Z" />
<path fill="#3a4754" opacity="1.00" d=" M 259.96 334.52 C 267.03 334.26 274.04 333.01 281.13 333.19 C 278.59 337.71 275.21 341.83 270.95 344.81 C 266.33 342.64 262.41 339.01 259.96 334.52 Z" />
<path fill="#3a4754" opacity="1.00" d=" M 375.87 332.57 C 383.30 332.43 390.29 335.44 396.51 339.25 C 391.64 346.17 385.85 353.10 378.09 356.82 C 377.70 348.71 376.67 340.65 375.87 332.57 M 381.48 339.59 C 379.51 340.96 378.57 343.90 380.13 345.94 C 382.11 349.11 387.85 347.96 387.86 344.01 C 388.61 340.53 384.44 337.91 381.48 339.59 Z" />
<path fill="#3a4754" opacity="1.00" d=" M 44.90 352.44 C 50.11 350.03 54.25 345.74 59.60 343.51 C 58.06 349.54 54.28 354.72 50.42 359.47 C 48.03 362.70 43.76 360.80 40.90 359.36 C 36.93 357.09 32.07 355.25 30.07 350.79 C 35.08 350.80 39.89 353.17 44.90 352.44 Z" />
<path fill="#3a4754" opacity="1.00" d=" M 410.40 343.50 C 415.56 345.68 419.63 349.68 424.55 352.26 C 429.68 353.45 434.71 350.78 439.86 350.77 C 438.39 354.65 434.40 356.38 431.07 358.34 C 428.26 359.75 425.29 361.58 422.02 361.24 C 419.31 359.99 417.75 357.23 416.07 354.90 C 413.77 351.33 411.26 347.74 410.40 343.50 Z" />
<path fill="#3a4754" opacity="1.00" d=" M 217.88 350.75 C 219.08 348.70 220.07 345.42 223.08 345.85 C 227.48 347.47 230.28 352.30 235.11 352.87 C 239.18 351.96 241.81 348.30 245.36 346.37 C 248.52 344.14 253.24 349.65 250.29 352.24 C 246.26 355.99 241.85 359.52 236.84 361.88 C 234.91 363.07 232.75 361.96 230.97 361.04 C 226.14 358.26 221.80 354.69 217.88 350.75 Z" />
<path fill="#3a4754" opacity="1.00" d=" M 77.85 359.72 C 85.80 361.77 93.42 364.98 100.44 369.24 C 95.64 375.91 87.78 379.23 81.74 384.58 C 79.08 376.58 78.33 368.09 77.85 359.72 M 83.38 367.53 C 79.71 369.76 82.04 375.83 86.14 375.29 C 89.54 375.26 91.13 370.44 88.74 368.25 C 87.47 366.70 85.07 366.91 83.38 367.53 Z" />
<path fill="#3a4754" opacity="1.00" d=" M 369.53 369.20 C 376.60 365.03 384.22 361.81 392.16 359.72 C 391.66 368.08 390.96 376.60 388.20 384.58 C 382.25 379.11 374.28 375.91 369.53 369.20 M 382.95 375.08 C 385.84 376.45 387.79 373.14 389.00 371.05 C 387.84 369.20 386.80 366.47 384.06 367.09 C 379.54 366.67 378.68 374.17 382.95 375.08 Z" />
<path fill="#3a4754" opacity="1.00" d=" M 220.12 362.99 C 221.53 362.12 223.16 362.80 224.38 363.65 C 227.98 365.89 230.94 369.20 234.98 370.72 C 239.48 368.82 242.59 364.70 247.06 362.75 C 249.40 361.77 252.11 364.42 250.66 366.67 C 247.26 371.79 242.96 376.38 238.02 380.04 C 236.29 381.53 233.75 381.76 231.95 380.25 C 227.54 376.96 223.75 372.87 220.26 368.64 C 218.89 367.14 217.76 364.13 220.12 362.99 Z" />
<path fill="#3a4754" opacity="1.00" d=" M 49.95 376.14 C 55.15 373.75 59.06 369.15 64.57 367.30 C 62.46 373.39 58.64 378.74 54.85 383.89 C 53.11 386.67 49.79 384.48 47.61 383.49 C 43.94 381.27 39.49 379.74 37.14 375.91 C 41.41 375.77 45.69 376.56 49.95 376.14 Z" />
<path fill="#3a4754" opacity="1.00" d=" M 405.45 367.31 C 411.00 369.04 414.82 373.76 420.01 376.14 C 424.29 376.61 428.58 375.74 432.88 375.99 C 429.45 380.49 423.88 382.73 418.89 385.04 C 416.19 386.32 414.65 383.19 413.31 381.47 C 410.41 376.93 406.94 372.59 405.45 367.31 Z" />
<path fill="#3a4754" opacity="1.00" d=" M 53.94 401.60 C 59.82 399.32 63.96 393.73 70.33 392.42 C 68.22 397.85 64.62 402.51 60.91 406.92 C 59.52 408.33 58.13 410.17 56.03 410.41 C 53.29 410.25 50.87 408.79 48.55 407.46 C 45.73 405.67 42.48 403.94 41.31 400.58 C 45.55 400.61 49.71 401.78 53.94 401.60 Z" />
<path fill="#3a4754" opacity="1.00" d=" M 399.67 392.38 C 405.98 393.79 410.20 399.18 415.99 401.58 C 420.25 401.73 424.46 400.59 428.73 400.64 C 426.24 405.53 420.83 408.10 415.97 410.07 C 413.10 411.36 410.78 408.87 409.08 406.92 C 405.36 402.50 401.72 397.85 399.67 392.38 Z" />
</g>
<g id="#0a0e22ff">
<path fill="#0a0e22" opacity="1.00" d=" M 134.87 44.99 C 139.55 44.03 144.46 44.43 148.86 46.31 C 145.72 53.94 142.50 61.54 139.46 69.21 L 138.60 69.09 C 135.64 68.62 132.64 68.39 129.64 68.34 C 131.34 60.54 133.12 52.77 134.87 44.99 Z" />
<path fill="#0a0e22" opacity="1.00" d=" M 109.45 56.48 C 113.98 53.90 118.50 51.27 123.21 49.03 C 124.23 55.49 125.35 61.92 126.39 68.37 C 122.54 68.53 118.69 69.07 115.00 70.18 C 113.15 65.61 111.33 61.03 109.45 56.48 Z" />
<path fill="#0a0e22" opacity="1.00" d=" M 86.98 69.87 C 91.76 67.29 96.37 64.42 100.98 61.56 C 104.02 65.07 107.01 68.64 110.00 72.19 C 106.60 73.94 103.65 76.53 101.56 79.75 C 96.71 76.44 91.78 73.26 86.98 69.87 Z" />
<path fill="#0a0e22" opacity="1.00" d=" M 151.17 91.94 C 157.40 96.14 163.61 100.37 169.81 104.62 C 165.74 108.10 161.60 111.52 157.10 114.44 C 151.19 110.18 145.29 105.91 139.51 101.48 C 144.27 99.62 148.62 96.45 151.17 91.94 Z" />
<path fill="#0a0e22" opacity="1.00" d=" M 109.06 99.34 C 111.95 100.55 114.98 101.41 118.07 101.91 C 117.24 106.60 116.38 111.29 115.57 115.99 C 110.62 114.39 105.83 112.30 101.26 109.84 C 103.82 106.31 106.43 102.82 109.06 99.34 Z" />
<path fill="#0a0e22" opacity="1.00" d=" M 127.84 102.76 C 130.95 102.80 134.06 102.61 137.12 102.03 C 138.70 107.97 140.26 113.91 141.76 119.87 C 135.75 119.72 129.76 119.09 123.84 118.05 C 125.15 112.95 126.46 107.85 127.84 102.76 Z" />
<path fill="#0a0e22" opacity="1.00" d=" M 178.38 153.30 C 184.28 141.40 192.06 130.09 202.97 122.26 C 207.86 125.45 211.63 129.99 215.13 134.59 C 218.99 139.92 222.26 145.78 223.93 152.19 C 224.20 153.23 224.47 154.27 224.74 155.32 C 212.53 158.34 200.80 164.04 191.44 172.50 C 185.69 173.00 180.04 174.14 174.57 175.96 C 174.05 176.04 173.01 176.20 172.49 176.27 C 172.59 174.83 172.71 173.39 172.85 171.95 C 173.84 165.52 175.94 159.31 178.38 153.30 Z" />
<path fill="#0a0e22" opacity="1.00" d=" M 265.11 136.70 C 269.17 131.71 273.49 126.10 279.88 124.12 C 283.48 122.93 286.68 125.75 288.52 128.55 C 290.91 132.16 292.37 136.29 293.61 140.41 C 295.63 148.26 296.49 156.37 296.55 164.46 C 296.45 168.33 296.23 172.24 295.32 176.03 C 289.76 174.02 283.92 173.06 278.05 172.62 C 271.00 165.31 261.50 160.88 252.11 157.37 C 252.72 156.25 253.33 155.13 253.94 154.02 C 257.30 148.02 260.98 142.20 265.11 136.70 Z" />
<path fill="#0a0e22" opacity="1.00" d=" M 313.31 174.89 C 317.18 169.55 323.38 165.52 330.05 165.14 C 334.09 165.17 335.40 169.80 336.07 173.02 C 337.78 182.64 337.10 192.97 332.98 201.92 C 331.68 203.92 330.15 205.76 328.63 207.59 C 326.52 206.03 324.24 204.73 321.96 203.46 C 318.35 195.38 314.96 187.11 309.71 179.93 C 310.91 178.25 312.09 176.55 313.31 174.89 Z" />
<path fill="#0a0e22" opacity="1.00" d=" M 134.11 169.21 C 140.20 168.16 146.31 170.44 152.10 172.13 C 155.90 173.45 159.52 175.23 163.08 177.09 C 155.29 184.15 152.24 194.45 147.34 203.40 L 146.31 204.09 C 144.84 202.92 143.38 201.75 142.00 200.50 C 137.98 196.19 135.76 190.61 134.26 185.00 C 133.35 179.97 130.44 173.73 134.11 169.21 Z" />
<path fill="#0a0e22" opacity="1.00" d=" M 103.04 207.78 C 107.51 205.31 112.70 204.82 117.71 205.07 C 122.87 205.40 128.30 206.28 132.41 209.66 C 133.77 210.88 135.06 212.17 136.38 213.43 C 136.21 213.96 135.87 215.02 135.70 215.56 C 130.77 222.58 126.34 230.02 123.55 238.18 C 122.02 237.23 120.48 236.30 119.03 235.23 C 113.78 231.44 110.15 225.89 107.92 219.87 C 106.32 215.83 104.61 211.83 103.04 207.78 Z" />
<path fill="#0a0e22" opacity="1.00" d=" M 340.37 211.56 C 345.93 206.71 353.74 204.69 360.94 206.24 C 363.13 206.67 363.62 209.18 364.01 211.02 C 365.01 216.94 364.93 223.23 362.81 228.91 C 361.17 233.30 356.54 235.17 352.81 237.41 C 350.81 238.55 348.91 239.83 347.01 241.12 C 344.17 232.15 339.86 223.64 334.23 216.10 C 336.34 214.68 338.37 213.13 340.37 211.56 Z" />
<path fill="#0a0e22" opacity="1.00" d=" M 140.66 256.68 C 158.16 246.41 179.72 243.96 199.36 248.51 C 210.12 250.95 220.68 256.70 226.58 266.31 C 233.06 276.43 233.32 289.14 231.52 300.65 C 229.99 309.36 226.03 318.55 217.98 323.05 C 209.94 327.99 200.04 328.03 190.98 326.85 C 184.16 326.02 177.91 322.70 171.07 322.08 C 167.74 321.63 164.82 323.56 162.50 325.70 C 156.02 333.50 155.68 344.34 155.45 354.00 C 155.40 379.08 168.14 401.81 182.29 421.68 C 187.71 429.65 194.08 437.05 198.52 445.65 C 200.77 449.63 200.15 454.51 198.48 458.59 C 194.75 467.59 184.48 473.17 174.89 471.86 C 173.19 471.57 170.80 471.18 170.85 468.97 C 172.97 466.92 176.55 466.74 177.86 463.83 C 179.92 459.74 180.55 454.81 179.52 450.36 C 177.36 444.73 172.64 440.67 168.41 436.59 C 157.21 426.43 145.51 416.77 135.28 405.58 C 118.41 387.65 105.82 364.91 103.24 340.14 C 100.40 316.99 105.68 292.26 120.56 273.91 C 126.03 266.92 133.02 261.16 140.66 256.68 Z" />
<path fill="#0a0e22" opacity="1.00" d=" M 260.69 251.70 C 276.48 245.11 294.45 244.98 310.88 249.15 C 325.80 252.92 339.12 261.85 348.91 273.65 C 362.07 289.90 368.01 311.27 367.01 332.01 C 366.39 352.56 359.19 372.66 347.39 389.43 C 334.92 407.66 317.76 421.80 301.44 436.41 C 297.04 440.71 291.86 444.92 289.95 451.00 C 289.24 455.57 289.74 460.66 292.28 464.62 C 293.75 467.27 298.16 466.79 298.82 470.00 C 297.87 471.10 296.45 471.63 295.04 471.81 C 285.42 473.28 275.06 467.74 271.22 458.74 C 269.24 454.27 268.97 448.88 271.64 444.62 C 277.33 434.59 284.88 425.77 291.20 416.14 C 303.67 397.77 314.25 376.75 314.19 354.04 C 314.00 344.36 313.55 333.62 307.23 325.72 C 303.22 321.25 296.81 321.53 291.63 323.50 C 281.21 327.23 269.75 328.86 258.89 326.18 C 250.18 323.97 242.97 317.15 240.23 308.60 C 236.72 298.15 235.97 286.56 238.81 275.87 C 241.61 264.85 250.40 256.09 260.69 251.70 Z" />
<path fill="#0a0e22" opacity="1.00" d=" M 163.51 348.87 C 164.33 344.73 164.88 340.28 167.66 336.91 C 170.49 340.59 173.46 344.24 175.50 348.43 C 176.70 350.43 175.30 352.61 174.43 354.43 C 172.17 358.35 169.67 362.30 166.16 365.22 C 164.55 367.00 161.22 365.38 161.67 362.97 C 161.79 358.22 162.82 353.55 163.51 348.87 Z" />
<path fill="#0a0e22" opacity="1.00" d=" M 293.62 349.99 C 295.33 345.00 298.92 340.94 302.12 336.85 C 305.01 341.01 305.61 346.14 306.49 350.99 C 307.03 355.34 308.22 359.69 307.85 364.10 C 307.13 366.58 303.88 366.31 302.58 364.48 C 298.73 360.34 294.95 355.57 293.62 349.99 Z" />
<path fill="#0a0e22" opacity="1.00" d=" M 182.97 374.15 C 187.77 373.15 193.02 372.97 197.33 375.70 C 203.82 379.62 209.24 385.49 212.80 392.16 C 210.89 397.68 207.32 402.69 206.90 408.73 C 206.22 413.46 207.03 418.25 208.22 422.84 C 210.49 431.66 214.24 439.99 218.11 448.19 C 207.90 440.06 198.32 430.77 191.47 419.57 C 188.18 414.32 186.43 408.31 185.23 402.29 C 183.44 393.03 182.09 383.59 182.97 374.15 Z" />
<path fill="#0a0e22" opacity="1.00" d=" M 273.32 375.15 C 277.47 372.85 282.31 373.36 286.76 374.33 C 287.57 383.69 286.09 393.04 284.47 402.23 C 283.21 408.16 281.56 414.10 278.33 419.30 C 271.55 430.57 261.93 439.85 251.76 448.07 C 256.96 435.55 263.94 422.68 262.74 408.70 C 261.89 402.79 259.29 397.36 256.65 392.08 C 260.99 385.44 266.11 378.82 273.32 375.15 Z" />
<path fill="#0a0e22" opacity="1.00" d=" M 29.19 438.25 C 34.71 438.03 40.41 437.84 45.78 439.30 C 49.45 440.40 49.77 444.88 50.12 448.06 C 50.49 455.30 50.83 462.81 48.72 469.84 C 47.51 473.53 43.71 475.45 40.07 475.89 C 34.61 476.67 28.21 477.14 23.76 473.23 C 18.91 468.99 17.78 462.17 17.44 456.07 C 17.38 451.78 17.26 447.19 19.30 443.28 C 21.25 439.77 25.47 438.62 29.19 438.25 Z" />
<path fill="#0a0e22" opacity="1.00" d=" M 105.38 438.63 C 110.43 437.11 115.99 437.45 121.03 438.86 C 125.88 440.19 128.19 445.31 128.63 449.94 C 129.19 456.05 129.65 462.52 127.31 468.34 C 125.81 472.06 121.92 474.11 118.09 474.51 C 112.71 475.10 107.24 475.20 101.85 474.58 C 99.80 474.40 97.62 473.20 97.28 470.99 C 96.20 464.68 96.66 458.19 97.31 451.86 C 97.93 446.64 100.02 440.63 105.38 438.63 Z" />
<path fill="#0a0e22" opacity="1.00" d=" M 351.17 438.26 C 356.80 437.53 363.66 436.62 368.16 440.91 C 372.28 445.16 372.77 451.48 373.17 457.08 C 373.28 461.91 373.73 466.87 372.52 471.60 C 371.49 474.70 367.67 474.68 365.00 474.89 C 359.45 474.94 353.69 475.37 348.33 473.63 C 343.77 472.16 341.66 467.28 341.23 462.85 C 340.75 457.02 340.64 450.97 342.44 445.34 C 343.64 441.47 347.25 438.83 351.17 438.26 Z" />
<path fill="#0a0e22" opacity="1.00" d=" M 426.49 438.75 C 433.27 438.10 440.56 437.11 447.02 439.87 C 451.91 442.17 452.52 448.22 452.59 452.99 C 452.57 459.84 451.87 467.62 446.77 472.74 C 441.94 477.46 434.49 476.74 428.42 475.55 C 424.41 474.87 421.26 471.53 420.64 467.54 C 419.29 459.97 419.22 452.12 420.37 444.52 C 420.75 441.37 423.32 438.93 426.49 438.75 Z" />
<path fill="#0a0e22" opacity="1.00" d=" M 61.62 445.86 C 62.10 443.21 64.40 441.27 67.03 440.96 C 71.88 440.22 76.95 440.18 81.72 441.41 C 86.14 442.76 86.80 448.03 87.02 451.96 C 87.18 458.77 87.70 465.88 85.51 472.45 C 84.39 475.96 80.70 477.32 77.42 478.00 L 70.44 478.00 C 67.40 477.47 63.67 476.96 62.08 473.93 C 60.47 470.52 60.90 466.60 60.80 462.94 C 60.99 457.25 60.42 451.46 61.62 445.86 Z" />
<path fill="#0a0e22" opacity="1.00" d=" M 384.92 443.93 C 387.60 440.13 392.90 440.68 397.00 440.47 C 400.91 440.58 406.45 440.41 408.07 444.88 C 409.55 449.76 409.01 454.96 409.18 460.00 C 409.07 464.42 409.65 469.04 408.20 473.31 C 406.88 476.75 402.87 477.46 399.66 478.00 L 393.48 478.00 C 390.17 477.53 386.29 476.61 384.82 473.21 C 382.59 468.14 382.96 462.42 382.80 457.01 C 383.01 452.63 382.64 447.86 384.92 443.93 Z" />
</g>
</svg>
