<?xml version="1.0" encoding="UTF-8" ?>
<!DOCTYPE svg PUBLIC "-//W3C//DTD SVG 1.1//EN" "http://www.w3.org/Graphics/SVG/1.1/DTD/svg11.dtd">
<svg width="505pt" height="477pt" viewBox="0 0 505 477" version="1.1" xmlns="http://www.w3.org/2000/svg">
<g id="#beb1a8ff">
<path fill="#beb1a8" opacity="1.00" d=" M 156.29 0.00 L 160.73 0.00 C 176.29 1.23 192.36 2.69 206.54 9.75 C 212.46 14.76 214.81 22.80 215.59 30.26 C 210.99 35.31 203.75 35.62 198.13 38.98 C 187.46 44.87 177.73 52.54 169.52 61.55 C 165.44 66.29 161.26 71.56 160.37 77.94 C 160.02 85.25 160.35 92.58 160.22 99.90 C 137.98 111.51 117.95 127.82 103.29 148.28 C 94.42 160.32 85.83 172.64 78.90 185.92 C 75.26 193.14 71.97 200.82 71.64 209.02 C 71.56 216.66 66.88 223.47 60.90 227.88 C 55.42 231.95 48.41 234.80 41.50 233.37 C 33.10 231.55 26.04 225.14 22.74 217.29 C 18.07 206.08 21.51 190.59 33.12 185.10 C 38.65 182.21 45.16 183.52 50.96 181.54 C 59.58 178.81 67.46 174.08 74.68 168.69 C 82.18 162.65 90.22 156.32 94.16 147.25 C 97.26 144.89 99.37 141.58 101.22 138.21 C 106.49 128.92 113.75 120.71 117.47 110.59 C 119.92 104.09 119.53 97.02 118.86 90.23 C 102.13 85.83 84.89 90.79 69.02 96.17 C 60.31 98.41 51.14 101.14 44.33 107.29 C 38.70 112.46 39.67 120.67 37.55 127.38 C 36.36 132.26 33.18 137.00 28.14 138.46 C 20.91 140.54 12.30 139.71 6.46 134.64 C 2.67 131.44 0.60 126.66 0.00 121.81 L 0.00 117.58 C 0.68 112.33 2.07 106.86 5.83 102.93 C 10.40 97.91 17.44 96.24 23.98 96.18 C 35.56 96.12 47.10 93.86 57.87 89.62 C 62.66 87.71 67.67 85.79 71.30 81.97 C 77.58 80.53 81.96 75.58 86.90 71.86 C 96.93 63.91 108.92 58.93 119.07 51.16 C 123.10 48.04 126.86 43.39 126.16 37.96 C 125.96 34.37 123.53 31.23 120.31 29.75 C 112.48 25.87 103.46 26.76 94.99 26.58 C 88.38 26.38 81.80 27.07 75.34 28.42 C 64.77 29.86 52.77 33.08 46.74 42.70 C 43.48 47.29 40.91 53.14 35.24 55.21 C 26.46 58.07 15.83 56.52 9.11 49.87 C 0.01 41.08 -0.51 25.20 7.74 15.69 C 13.49 8.88 23.27 6.16 31.82 8.23 C 39.30 10.19 43.68 17.66 51.13 19.71 C 58.84 22.13 66.90 19.70 74.25 17.15 C 84.69 13.52 95.06 9.64 105.77 6.85 C 122.24 2.44 139.26 0.40 156.29 0.00 M 191.22 9.41 C 188.47 9.54 185.99 12.08 186.69 14.93 C 187.16 19.09 193.63 20.32 195.39 16.42 C 197.21 13.38 194.72 9.29 191.22 9.41 M 202.38 13.42 C 199.72 14.23 198.99 18.04 201.16 19.77 C 203.04 21.70 206.47 20.54 207.13 18.02 C 208.21 15.34 204.98 12.36 202.38 13.42 M 22.41 19.56 C 15.90 21.99 12.36 29.46 13.37 36.15 C 14.03 43.30 20.64 50.12 28.16 48.86 C 36.53 47.52 41.16 37.85 39.08 30.08 C 37.78 22.74 29.81 16.68 22.41 19.56 M 192.21 25.30 C 189.61 26.20 187.69 29.20 188.97 31.88 C 191.71 37.82 203.02 36.94 203.66 29.95 C 202.84 24.94 196.31 23.47 192.21 25.30 M 207.16 26.33 C 207.72 28.09 209.66 27.93 211.14 28.23 C 211.00 27.44 210.72 25.86 210.58 25.07 C 209.22 24.20 207.70 24.88 207.16 26.33 M 16.40 106.61 C 10.07 109.08 6.21 116.46 7.99 123.06 C 9.63 130.78 18.55 135.80 26.01 133.13 C 33.68 130.93 37.96 121.53 34.69 114.27 C 31.97 107.30 23.29 103.71 16.40 106.61 M 41.42 191.46 C 34.38 194.05 29.76 201.57 30.19 209.00 C 30.27 216.82 36.09 224.38 43.86 225.89 C 50.02 227.25 56.69 224.51 60.40 219.47 C 65.50 212.84 65.26 202.72 59.76 196.39 C 55.48 191.10 47.78 189.00 41.42 191.46 Z" />
<path fill="#beb1a8" opacity="1.00" d=" M 327.55 0.00 L 333.75 0.00 C 357.95 0.37 382.03 4.85 404.73 13.24 C 415.24 16.48 425.83 22.36 437.15 20.19 C 445.00 18.91 449.60 11.59 456.69 8.75 C 466.26 5.50 477.90 8.98 483.69 17.38 C 490.03 26.28 489.71 39.36 482.82 47.86 C 478.56 53.26 471.78 56.31 464.97 56.52 C 459.70 56.72 453.77 56.02 449.98 51.96 C 445.14 46.74 442.69 39.36 436.41 35.50 C 429.89 31.51 422.34 29.22 414.77 28.43 C 408.60 27.09 402.32 26.40 396.00 26.58 C 387.25 26.72 377.93 25.83 369.81 29.75 C 364.14 32.37 362.13 40.20 365.59 45.33 C 369.64 51.42 376.39 54.85 382.45 58.60 C 390.30 63.34 398.48 67.67 405.50 73.63 C 409.50 76.98 413.53 80.65 418.76 81.87 C 420.71 83.83 422.95 85.51 425.46 86.68 C 436.87 92.11 449.33 95.51 461.98 96.03 C 469.53 96.07 478.02 96.61 483.67 102.30 C 488.83 107.38 490.43 115.05 490.00 122.06 C 489.46 130.19 483.03 137.39 475.03 138.90 C 469.06 140.03 462.03 139.92 457.21 135.73 C 448.74 127.89 453.94 113.55 444.68 106.26 C 437.86 100.95 429.36 98.16 421.05 96.20 C 409.05 91.96 396.52 88.42 383.69 88.49 C 379.62 88.67 375.33 88.74 371.64 90.67 C 370.05 95.84 370.55 101.41 371.49 106.66 C 373.47 115.44 378.97 122.82 383.81 130.22 C 388.14 136.21 391.21 143.10 396.40 148.45 C 398.39 152.32 401.07 155.79 404.19 158.82 C 413.82 168.42 425.18 176.62 438.08 181.18 C 444.37 183.67 451.63 182.00 457.64 185.43 C 465.21 189.24 469.20 197.82 469.35 206.03 C 470.08 218.23 461.26 230.10 449.48 233.18 C 438.45 235.64 427.24 228.58 421.50 219.46 C 417.61 213.68 419.08 206.39 417.02 200.04 C 413.17 187.40 405.93 176.17 398.79 165.18 C 390.43 153.06 382.12 140.75 371.62 130.33 C 359.40 118.11 345.23 107.86 329.90 99.89 C 329.85 93.26 329.95 86.64 329.89 80.02 C 329.87 72.98 325.31 67.08 320.97 61.96 C 312.58 52.64 302.55 44.75 291.54 38.75 C 286.01 35.55 278.95 35.22 274.50 30.22 C 275.32 22.80 277.67 14.90 283.44 9.80 C 297.10 2.90 312.57 1.53 327.55 0.00 M 298.38 9.40 C 295.86 9.90 293.40 12.27 294.19 15.04 C 294.81 18.91 300.82 20.40 302.72 16.71 C 304.80 13.61 302.18 8.80 298.38 9.40 M 285.34 13.37 C 282.69 14.23 281.81 18.12 284.17 19.82 C 286.04 21.73 289.60 20.47 290.08 17.91 C 291.02 15.20 287.96 12.48 285.34 13.37 M 461.09 19.19 C 453.11 21.12 449.00 30.50 451.08 38.05 C 452.46 44.60 459.03 50.25 465.94 48.78 C 473.40 47.26 477.83 39.10 476.76 31.87 C 476.22 24.35 468.89 17.21 461.09 19.19 M 278.68 27.70 C 279.52 27.80 281.20 27.98 282.05 28.07 C 282.35 27.01 282.64 25.95 282.94 24.89 C 280.51 24.29 279.17 25.34 278.68 27.70 M 290.27 25.33 C 287.57 26.13 285.75 29.28 286.98 31.95 C 289.81 37.79 300.95 36.94 301.68 30.00 C 300.96 24.95 294.36 23.48 290.27 25.33 M 464.13 106.30 C 457.69 108.23 453.35 115.21 454.54 121.85 C 455.40 128.76 462.07 134.29 469.03 133.79 C 476.96 133.72 483.67 125.90 482.43 118.03 C 481.76 109.48 472.18 103.42 464.13 106.30 M 437.29 191.46 C 425.83 195.48 422.40 211.71 430.53 220.45 C 434.89 225.64 442.61 227.72 448.92 225.09 C 455.37 222.61 459.78 215.95 459.92 209.09 C 460.30 202.87 457.17 196.61 452.01 193.15 C 447.74 190.27 442.09 189.66 437.29 191.46 Z" />
<path fill="#beb1a8" opacity="1.00" d=" M 229.60 81.88 C 260.92 78.86 293.10 84.56 321.24 98.70 C 353.76 114.82 380.77 142.01 396.14 174.94 C 408.71 201.58 413.41 231.84 409.67 261.05 C 406.39 287.45 396.10 312.89 380.33 334.29 C 364.65 355.70 343.61 373.10 319.75 384.70 C 298.38 395.13 274.75 400.80 250.99 401.50 C 220.04 402.47 188.83 394.71 162.00 379.21 C 133.17 362.67 109.46 337.20 95.53 306.98 C 80.76 275.35 77.20 238.70 85.40 204.79 C 93.20 171.86 112.18 141.86 138.10 120.17 C 163.76 98.48 196.17 85.05 229.60 81.88 M 226.60 100.07 C 232.24 111.47 238.85 122.37 244.95 133.52 C 248.99 127.92 252.31 121.85 255.94 115.99 C 259.06 110.67 262.68 105.64 265.39 100.08 C 252.46 99.83 239.53 99.85 226.60 100.07 M 133.99 137.60 C 144.57 141.40 155.11 145.34 165.84 148.75 C 164.62 138.19 163.60 127.60 161.94 117.11 C 152.53 123.82 143.26 130.71 133.99 137.60 M 330.08 118.98 C 328.31 129.52 327.48 140.18 326.14 150.78 C 336.82 147.08 347.58 143.56 358.09 139.38 C 348.73 132.62 339.50 125.67 330.08 118.98 M 230.19 145.29 C 234.91 155.88 239.79 166.42 245.06 176.74 C 246.62 174.33 248.09 171.86 249.36 169.28 C 253.30 161.16 258.05 153.46 261.79 145.24 C 251.26 145.21 240.72 145.06 230.19 145.29 M 156.73 171.65 C 166.05 177.16 175.08 183.21 184.72 188.15 C 184.10 177.68 183.54 167.22 182.81 156.76 C 173.51 160.47 164.51 165.30 156.73 171.65 M 309.20 158.63 C 308.47 169.13 307.88 179.64 307.29 190.15 C 316.85 184.95 326.20 179.30 335.31 173.35 C 327.38 167.22 318.56 162.21 309.20 158.63 M 97.40 218.04 C 96.75 224.50 95.93 230.99 96.40 237.48 C 106.89 233.70 117.54 230.32 127.87 226.12 C 125.00 222.67 121.92 219.40 118.79 216.19 C 113.02 210.33 107.86 203.89 101.77 198.35 C 99.34 204.66 98.29 211.38 97.40 218.04 M 372.72 218.67 C 369.89 221.76 366.72 224.57 364.16 227.90 C 368.53 230.22 373.36 231.43 377.99 233.11 C 383.99 235.06 389.80 237.56 395.89 239.23 C 395.46 226.10 394.64 212.69 390.20 200.21 C 384.12 206.12 378.49 212.46 372.72 218.67 M 135.83 245.04 C 144.43 243.85 153.07 242.78 161.62 241.29 C 161.22 239.89 160.35 238.69 159.47 237.55 C 154.66 231.45 150.04 225.19 145.45 218.92 C 139.19 226.10 137.09 235.85 135.83 245.04 M 344.54 223.60 C 339.76 230.08 334.89 236.51 330.07 242.97 C 338.68 244.71 347.43 245.60 356.11 246.91 C 355.28 237.83 352.35 228.93 347.48 221.22 C 346.08 221.30 345.39 222.68 344.54 223.60 M 182.21 243.30 C 173.86 246.86 168.57 255.31 167.01 264.02 C 164.85 275.51 165.57 288.13 171.70 298.36 C 177.31 308.00 187.36 314.46 198.04 317.14 C 205.97 319.33 214.26 318.41 222.38 318.63 C 222.46 329.78 221.75 342.00 228.28 351.69 C 233.71 360.05 245.48 362.08 254.23 358.23 C 259.69 355.74 263.36 350.48 265.18 344.90 C 268.16 336.48 267.62 327.42 267.72 318.64 C 275.79 318.40 284.04 319.34 291.93 317.15 C 302.44 314.59 312.34 308.37 318.03 299.01 C 324.63 288.34 325.43 274.96 322.87 262.92 C 321.12 254.55 315.81 246.59 307.74 243.22 C 300.12 239.70 291.03 241.66 284.31 246.25 C 275.86 252.00 270.23 260.98 266.26 270.22 C 260.13 284.33 257.77 299.67 256.30 314.88 C 248.80 314.86 241.31 314.84 233.82 314.90 C 232.26 298.43 229.49 281.76 222.28 266.72 C 218.21 258.39 212.62 250.39 204.59 245.46 C 198.01 241.37 189.40 239.92 182.21 243.30 M 107.42 307.67 C 112.89 318.29 121.13 327.10 129.70 335.28 C 130.74 333.03 131.74 330.75 132.49 328.38 C 135.22 319.50 138.52 310.80 141.12 301.87 C 129.85 303.56 118.53 305.14 107.42 307.67 M 350.93 303.81 C 353.55 313.31 357.22 322.48 360.03 331.93 C 360.72 333.59 360.96 335.71 362.50 336.86 C 371.10 328.88 379.51 320.05 384.32 309.19 C 373.21 307.32 362.12 305.17 350.93 303.81 Z" />
<path fill="#beb1a8" opacity="1.00" d=" M 119.78 382.12 C 116.79 373.05 120.91 363.58 126.28 356.33 C 128.27 358.50 130.28 360.67 132.47 362.65 C 129.92 366.14 126.74 369.64 126.36 374.14 C 125.93 380.60 129.74 387.61 136.09 389.65 C 142.36 390.95 148.99 390.60 155.08 388.60 C 151.24 384.41 146.80 380.83 142.06 377.72 C 142.43 380.33 142.82 382.93 143.18 385.55 C 139.09 384.96 134.27 383.83 132.47 379.61 C 130.72 374.72 133.64 369.99 136.67 366.38 C 148.44 377.42 162.52 385.89 177.33 392.22 C 176.21 396.06 173.06 399.18 168.90 399.32 C 158.91 400.09 148.69 399.77 138.93 397.37 C 130.81 395.39 122.35 390.59 119.78 382.12 Z" />
<path fill="#beb1a8" opacity="1.00" d=" M 365.72 356.33 C 370.44 362.83 374.36 370.84 372.92 379.08 C 372.03 385.87 367.11 391.58 361.03 394.45 C 351.74 398.94 341.17 399.63 331.01 399.68 C 327.00 399.57 322.74 399.90 319.03 398.11 C 316.64 397.04 315.67 394.48 314.67 392.27 C 329.47 385.89 343.55 377.44 355.35 366.40 C 358.38 370.03 361.30 374.78 359.55 379.67 C 357.74 383.86 352.93 384.91 348.88 385.55 C 349.20 382.95 349.56 380.37 349.91 377.78 C 345.19 380.89 340.73 384.41 336.88 388.56 C 342.97 390.63 349.63 390.93 355.93 389.66 C 361.58 387.78 365.31 381.85 365.71 376.06 C 366.07 370.82 362.49 366.58 359.54 362.66 C 361.72 360.67 363.73 358.51 365.72 356.33 Z" />
</g>
<g id="#cd7c83ff">
<path fill="#cd7c83" opacity="1.00" d=" M 191.22 9.41 C 194.72 9.29 197.21 13.38 195.39 16.42 C 193.63 20.32 187.16 19.09 186.69 14.93 C 185.99 12.08 188.47 9.54 191.22 9.41 Z" />
<path fill="#cd7c83" opacity="1.00" d=" M 298.38 9.40 C 302.18 8.80 304.80 13.61 302.72 16.71 C 300.82 20.40 294.81 18.91 294.19 15.04 C 293.40 12.27 295.86 9.90 298.38 9.40 Z" />
<path fill="#cd7c83" opacity="1.00" d=" M 202.38 13.42 C 204.98 12.36 208.21 15.34 207.13 18.02 C 206.47 20.54 203.04 21.70 201.16 19.77 C 198.99 18.04 199.72 14.23 202.38 13.42 Z" />
<path fill="#cd7c83" opacity="1.00" d=" M 285.34 13.37 C 287.96 12.48 291.02 15.20 290.08 17.91 C 289.60 20.47 286.04 21.73 284.17 19.82 C 281.81 18.12 282.69 14.23 285.34 13.37 Z" />
<path fill="#cd7c83" opacity="1.00" d=" M 192.21 25.30 C 196.31 23.47 202.84 24.94 203.66 29.95 C 203.02 36.94 191.71 37.82 188.97 31.88 C 187.69 29.20 189.61 26.20 192.21 25.30 Z" />
<path fill="#cd7c83" opacity="1.00" d=" M 207.16 26.33 C 207.70 24.88 209.22 24.20 210.58 25.07 C 210.72 25.86 211.00 27.44 211.14 28.23 C 209.66 27.93 207.72 28.09 207.16 26.33 Z" />
<path fill="#cd7c83" opacity="1.00" d=" M 278.68 27.70 C 279.17 25.34 280.51 24.29 282.94 24.89 C 282.64 25.95 282.35 27.01 282.05 28.07 C 281.20 27.98 279.52 27.80 278.68 27.70 Z" />
<path fill="#cd7c83" opacity="1.00" d=" M 290.27 25.33 C 294.36 23.48 300.96 24.95 301.68 30.00 C 300.95 36.94 289.81 37.79 286.98 31.95 C 285.75 29.28 287.57 26.13 290.27 25.33 Z" />
</g>
<g id="#302722ff">
<path fill="#302722" opacity="1.00" d=" M 206.54 9.75 C 217.01 11.83 227.32 14.76 237.25 18.68 C 229.68 21.79 221.95 24.98 215.59 30.26 C 214.81 22.80 212.46 14.76 206.54 9.75 Z" />
<path fill="#302722" opacity="1.00" d=" M 252.79 18.75 C 262.69 14.79 273.00 11.93 283.44 9.80 C 277.67 14.90 275.32 22.80 274.50 30.22 C 268.16 24.92 260.44 21.69 252.79 18.75 Z" />
<path fill="#302722" opacity="1.00" d=" M 431.66 322.46 C 441.08 322.33 450.50 322.45 459.92 322.38 C 459.85 322.94 459.70 324.05 459.63 324.61 C 459.06 328.88 458.43 333.31 456.03 337.00 C 452.38 342.70 448.80 348.45 444.98 354.04 C 440.20 352.13 435.17 350.99 430.04 350.56 C 430.13 342.63 430.85 334.73 431.37 326.83 C 431.46 325.37 431.55 323.90 431.66 322.46 Z" />
<path fill="#302722" opacity="1.00" d=" M 471.26 322.35 C 479.16 326.86 486.62 332.87 490.98 341.01 C 492.27 342.49 490.62 343.86 489.96 345.15 C 486.08 346.45 482.48 348.43 478.97 350.53 C 474.55 344.44 469.68 338.64 463.93 333.76 C 465.40 331.37 466.88 328.98 468.42 326.63 C 469.36 325.20 470.31 323.77 471.26 322.35 Z" />
<path fill="#302722" opacity="1.00" d=" M 393.93 343.07 C 402.03 334.16 412.56 327.54 424.14 324.22 C 424.35 325.73 424.59 327.27 424.81 328.79 C 425.21 331.73 425.58 334.68 425.92 337.63 C 417.15 341.85 408.51 346.32 399.77 350.60 C 398.66 349.23 397.55 347.87 396.48 346.48 C 395.62 345.35 394.77 344.21 393.93 343.07 Z" />
<path fill="#302722" opacity="1.00" d=" M 254.38 347.15 C 254.38 340.17 257.57 333.05 264.00 329.80 C 263.30 336.43 260.95 344.15 254.38 347.15 Z" />
<path fill="#302722" opacity="1.00" d=" M 226.22 329.92 C 232.66 333.10 235.76 340.29 235.71 347.21 C 229.28 344.12 226.76 336.55 226.22 329.92 Z" />
<path fill="#302722" opacity="1.00" d=" M 447.28 366.37 C 453.86 358.99 459.50 350.85 465.68 343.15 C 472.33 351.50 477.68 360.94 480.79 371.18 C 472.82 377.35 464.38 382.86 456.35 388.95 C 456.39 391.25 456.45 393.57 456.51 395.88 C 458.97 395.95 461.44 396.03 463.92 396.12 C 463.06 401.96 462.45 408.16 459.11 413.20 C 457.65 415.51 454.51 414.62 452.23 414.89 C 450.46 414.87 448.69 414.83 446.92 414.81 C 448.77 411.62 450.66 408.42 451.81 404.90 C 453.01 401.53 453.47 397.76 455.90 394.97 C 456.03 393.09 456.13 391.20 456.23 389.33 C 455.73 389.47 454.73 389.74 454.22 389.88 C 453.21 384.54 452.05 379.16 449.84 374.17 C 448.81 371.63 447.35 369.17 447.28 366.37 Z" />
<path fill="#302722" opacity="1.00" d=" M 401.71 358.16 C 408.52 355.11 415.25 351.88 422.12 348.99 C 422.23 353.37 422.41 357.75 422.51 362.14 C 422.33 362.53 421.97 363.31 421.79 363.70 C 418.85 366.44 415.57 368.77 412.48 371.33 C 409.00 366.85 405.22 362.61 401.71 358.16 Z" />
<path fill="#302722" opacity="1.00" d=" M 493.44 353.73 C 494.09 353.42 495.40 352.79 496.05 352.48 C 500.09 360.03 501.16 368.64 501.51 377.06 C 500.70 377.07 499.09 377.07 498.28 377.07 C 495.03 377.07 491.77 377.04 488.52 376.98 C 486.97 370.96 484.03 365.46 480.92 360.13 C 485.07 357.95 489.21 355.75 493.44 353.73 Z" />
<path fill="#302722" opacity="1.00" d=" M 376.93 378.90 C 378.75 370.00 381.04 359.80 389.05 354.36 C 395.16 361.47 402.65 367.20 409.32 373.75 C 409.70 373.58 410.46 373.24 410.83 373.06 C 410.16 378.15 409.34 383.22 408.89 388.33 C 408.46 388.20 407.59 387.94 407.15 387.81 C 397.79 385.07 388.42 382.35 379.08 379.55 C 378.54 379.39 377.46 379.07 376.93 378.90 Z" />
<path fill="#302722" opacity="1.00" d=" M 428.04 356.01 C 433.74 355.68 439.48 356.23 444.91 358.05 C 444.01 359.52 443.12 361.01 442.15 362.43 C 441.88 362.77 441.34 363.45 441.08 363.79 C 436.68 363.98 432.28 363.85 427.89 363.86 C 427.90 362.96 427.92 361.15 427.94 360.25 C 427.96 358.83 427.99 357.42 428.04 356.01 Z" />
<path fill="#302722" opacity="1.00" d=" M 418.99 373.11 C 422.23 369.51 427.10 368.28 431.67 367.38 C 431.58 367.85 431.41 368.79 431.33 369.26 C 430.84 371.86 430.34 374.47 429.84 377.07 C 427.33 377.66 424.83 378.26 422.32 378.85 C 421.11 377.35 419.88 375.87 418.71 374.35 L 418.99 373.11 Z" />
<path fill="#302722" opacity="1.00" d=" M 437.43 367.53 C 442.06 371.27 447.60 376.55 446.23 383.11 C 442.36 383.48 438.49 383.86 434.65 384.48 C 433.92 383.87 433.20 383.26 432.49 382.66 C 431.67 381.93 430.85 381.21 430.04 380.50 C 432.01 377.01 433.93 373.49 435.96 370.04 C 436.33 369.41 437.06 368.16 437.43 367.53 Z" />
<path fill="#302722" opacity="1.00" d=" M 412.83 388.72 C 412.61 384.37 413.93 380.01 416.92 376.79 C 417.86 378.14 418.96 379.43 419.62 380.97 C 419.74 384.00 418.91 386.95 418.43 389.92 C 416.56 389.52 414.69 389.11 412.83 388.72 Z" />
<path fill="#302722" opacity="1.00" d=" M 426.01 392.58 C 424.61 389.12 423.73 385.11 426.55 382.07 C 427.32 385.56 428.82 389.58 426.01 392.58 Z" />
<path fill="#302722" opacity="1.00" d=" M 498.68 382.62 C 500.25 382.64 501.82 382.69 503.40 382.74 C 504.09 386.56 504.73 390.41 505.00 394.30 L 505.00 401.62 C 504.61 405.39 503.97 409.13 503.38 412.88 C 502.12 412.57 500.88 412.28 499.64 411.98 C 495.82 411.06 492.04 410.04 488.27 408.98 C 488.22 400.29 488.34 391.60 488.22 382.91 C 491.70 382.75 495.18 382.59 498.68 382.62 Z" />
<path fill="#302722" opacity="1.00" d=" M 376.79 386.51 C 377.30 386.57 378.33 386.68 378.84 386.74 C 383.22 387.21 387.59 387.77 391.96 388.33 C 392.06 392.10 392.08 395.88 392.02 399.66 C 387.84 399.65 383.67 399.67 379.49 399.70 C 379.52 400.62 379.56 402.46 379.59 403.38 C 383.60 403.41 387.64 403.07 391.63 403.65 C 392.69 405.30 393.36 407.16 394.17 408.95 C 389.63 410.37 385.08 411.72 380.53 413.09 C 379.15 410.24 377.03 407.47 377.18 404.16 C 377.70 403.76 378.74 402.98 379.26 402.59 C 379.17 402.11 378.98 401.14 378.89 400.65 C 374.46 397.37 376.66 391.14 376.79 386.51 Z" />
<path fill="#302722" opacity="1.00" d=" M 469.66 390.94 C 472.74 388.38 477.04 388.01 480.77 386.80 C 481.28 392.32 481.89 397.82 482.55 403.33 C 478.82 404.23 475.04 404.85 471.22 405.14 C 470.78 400.40 469.78 395.70 469.66 390.94 Z" />
<path fill="#302722" opacity="1.00" d=" M 433.69 391.96 C 438.05 391.29 442.43 390.83 446.79 390.23 C 447.05 394.34 446.84 398.47 446.66 402.60 C 446.04 403.34 445.47 404.12 444.95 404.94 C 444.94 404.48 444.92 403.55 444.91 403.08 C 441.33 401.94 437.64 401.22 434.01 400.30 C 433.46 400.14 432.37 399.83 431.82 399.68 C 431.64 397.24 431.61 394.79 431.65 392.36 C 432.16 392.26 433.18 392.06 433.69 391.96 Z" />
<path fill="#302722" opacity="1.00" d=" M 407.43 392.34 C 407.77 392.31 408.45 392.25 408.79 392.22 C 409.69 397.27 410.24 402.60 413.09 407.03 C 409.90 408.41 406.76 410.13 403.29 410.64 C 397.84 407.06 396.54 400.09 395.75 394.09 C 399.64 393.50 403.52 392.84 407.43 392.34 Z" />
<path fill="#302722" opacity="1.00" d=" M 413.04 393.87 C 416.05 393.98 419.06 394.08 422.07 394.18 C 420.93 397.25 419.78 400.32 418.63 403.38 C 414.73 401.96 412.75 397.86 413.04 393.87 Z" />
<path fill="#302722" opacity="1.00" d=" M 245.07 401.75 C 255.11 401.75 265.16 400.90 275.20 401.56 C 275.38 406.54 275.52 411.60 274.00 416.41 C 274.38 419.14 275.58 421.87 274.79 424.66 C 268.57 425.43 262.45 426.78 256.29 427.90 C 255.71 424.78 255.13 421.66 254.55 418.54 C 260.74 418.42 266.92 418.43 273.11 418.41 C 273.12 417.51 273.13 415.71 273.14 414.81 C 263.81 414.71 254.48 414.77 245.16 414.76 C 245.08 410.42 245.06 406.08 245.07 401.75 Z" />
<path fill="#302722" opacity="1.00" d=" M 207.39 401.63 C 217.34 401.25 227.33 401.03 237.26 401.79 C 237.30 406.15 237.17 410.51 237.23 414.87 C 228.52 414.69 219.80 414.89 211.09 414.82 C 210.65 414.80 209.77 414.75 209.33 414.73 C 208.49 410.39 208.01 406.00 207.39 401.63 Z" />
<path fill="#302722" opacity="1.00" d=" M 426.35 409.79 C 428.13 407.66 430.02 405.62 431.99 403.67 C 432.33 403.79 433.00 404.03 433.34 404.15 C 437.05 405.65 440.76 407.18 444.28 409.08 L 445.19 409.72 C 443.03 416.09 438.96 421.55 434.42 426.42 C 431.16 421.66 429.25 416.19 426.90 410.97 C 425.69 410.99 424.49 411.01 423.29 411.04 C 422.98 413.68 422.62 416.31 422.23 418.95 C 417.86 419.95 413.33 420.02 408.98 418.94 C 411.37 415.78 413.82 412.67 416.05 409.39 C 418.60 409.20 421.15 409.09 423.71 408.98 L 423.45 410.12 C 424.41 410.01 425.38 409.90 426.35 409.79 Z" />
<path fill="#302722" opacity="1.00" d=" M 158.47 414.99 C 161.48 413.30 164.03 410.95 165.89 408.04 C 165.12 413.34 164.69 418.67 163.96 423.97 C 162.06 421.02 160.27 418.00 158.47 414.99 Z" />
<path fill="#302722" opacity="1.00" d=" M 328.06 424.00 C 327.33 418.69 326.83 413.36 326.21 408.04 C 327.97 411.00 330.54 413.32 333.55 414.98 C 331.74 418.00 329.95 421.03 328.06 424.00 Z" />
<path fill="#302722" opacity="1.00" d=" M 460.11 420.64 C 462.77 416.28 465.45 411.91 467.80 407.37 C 473.33 409.20 478.87 411.00 484.36 412.96 C 481.95 420.84 476.65 427.82 469.42 431.85 C 466.34 428.09 463.25 424.34 460.11 420.64 Z" />
<path fill="#302722" opacity="1.00" d=" M 382.61 418.58 C 386.97 416.66 391.37 414.81 395.80 413.07 C 399.66 418.23 404.94 422.01 410.83 424.54 C 408.35 428.04 405.96 431.61 403.67 435.24 C 394.32 434.13 385.68 427.56 382.61 418.58 Z" />
<path fill="#302722" opacity="1.00" d=" M 488.41 416.88 C 491.94 418.21 495.45 419.59 498.87 421.21 C 499.75 421.63 500.65 422.05 501.55 422.49 C 498.68 432.26 494.05 441.69 486.62 448.80 C 485.90 448.04 485.19 447.28 484.49 446.53 C 480.68 442.41 477.07 438.11 473.42 433.86 C 479.20 428.95 484.82 423.66 488.41 416.88 Z" />
<path fill="#302722" opacity="1.00" d=" M 230.04 420.33 C 235.75 420.06 241.40 419.19 247.09 418.79 C 248.71 418.30 249.38 419.85 249.87 421.03 C 250.89 423.31 251.62 425.69 252.42 428.06 C 246.20 430.56 240.00 433.13 233.70 435.43 C 231.90 430.56 230.32 425.55 230.04 420.33 Z" />
<path fill="#302722" opacity="1.00" d=" M 445.12 418.75 C 446.39 419.70 447.64 420.67 448.91 421.65 C 453.12 425.10 457.84 427.98 461.54 432.01 C 458.46 438.02 452.35 441.48 446.89 445.03 C 444.01 441.31 441.16 437.56 438.37 433.78 C 437.45 432.53 436.54 431.29 435.63 430.05 C 439.85 427.30 443.11 423.36 445.12 418.75 Z" />
<path fill="#302722" opacity="1.00" d=" M 414.82 424.50 C 418.73 423.54 422.56 422.28 426.28 420.72 C 428.27 423.33 430.12 426.04 431.77 428.88 C 426.99 432.82 421.06 435.55 414.77 435.53 C 414.72 431.85 414.74 428.18 414.82 424.50 Z" />
<path fill="#302722" opacity="1.00" d=" M 116.10 422.11 C 118.06 422.95 120.02 423.78 121.99 424.62 C 119.77 427.84 118.12 431.40 116.75 435.05 C 116.26 430.75 115.96 426.43 116.10 422.11 Z" />
<path fill="#302722" opacity="1.00" d=" M 370.02 424.61 C 371.98 423.79 373.94 422.97 375.89 422.14 C 376.06 426.45 375.72 430.77 375.27 435.06 C 373.87 431.41 372.24 427.84 370.02 424.61 Z" />
<path fill="#302722" opacity="1.00" d=" M 211.38 423.76 C 215.62 423.28 219.88 422.88 224.14 422.54 C 225.77 431.50 227.60 440.53 231.72 448.74 C 227.76 449.65 223.80 450.58 219.82 451.44 C 218.16 451.79 216.51 452.13 214.86 452.48 C 211.19 443.41 208.80 433.88 207.35 424.22 C 208.35 424.10 210.37 423.88 211.38 423.76 Z" />
<path fill="#302722" opacity="1.00" d=" M 131.92 436.66 C 131.11 432.78 130.82 428.75 131.73 424.87 C 133.57 425.37 135.41 425.87 137.28 426.29 C 135.50 429.75 133.69 433.19 131.92 436.66 Z" />
<path fill="#302722" opacity="1.00" d=" M 354.69 426.41 C 356.54 425.83 358.39 425.26 360.24 424.69 C 361.21 428.64 360.94 432.74 359.99 436.66 C 358.31 433.20 356.61 429.74 354.69 426.41 Z" />
<path fill="#302722" opacity="1.00" d=" M 265.93 429.93 C 268.70 428.93 271.49 427.97 274.27 426.97 C 274.91 426.75 276.21 426.31 276.86 426.08 C 277.48 428.67 278.20 431.25 278.76 433.86 C 278.51 434.07 278.01 434.49 277.76 434.70 C 275.69 436.30 273.51 437.75 271.34 439.21 C 269.52 436.12 267.71 433.03 265.93 429.93 Z" />
<path fill="#302722" opacity="1.00" d=" M 233.76 439.27 C 243.21 437.07 252.45 433.91 261.98 432.09 C 264.24 434.13 265.81 436.78 267.62 439.21 C 261.51 446.30 255.12 453.14 248.77 460.00 C 241.90 454.73 236.18 447.69 233.76 439.27 Z" />
<path fill="#302722" opacity="1.00" d=" M 416.83 443.17 C 422.11 440.57 427.22 437.60 431.74 433.80 C 432.41 435.08 433.09 436.35 433.78 437.63 C 429.48 441.90 424.09 444.76 418.51 447.00 C 418.19 446.30 417.88 445.61 417.57 444.93 C 417.39 444.49 417.02 443.61 416.83 443.17 Z" />
<path fill="#302722" opacity="1.00" d=" M 280.61 437.51 C 283.45 439.66 286.64 441.26 289.62 443.17 C 289.75 443.53 290.00 444.25 290.12 444.60 C 288.06 450.30 286.32 456.11 284.66 461.94 C 276.86 460.37 269.33 457.76 262.06 454.55 C 268.09 448.71 274.51 443.29 280.61 437.51 Z" />
<path fill="#302722" opacity="1.00" d=" M 452.62 449.02 C 457.44 445.73 461.78 441.83 465.84 437.66 C 470.00 442.39 474.23 447.07 478.44 451.76 C 479.21 452.63 479.99 453.52 480.78 454.41 C 475.35 459.43 468.83 463.02 461.99 465.73 C 461.29 464.65 460.60 463.60 459.89 462.55 C 457.60 457.96 455.14 453.48 452.62 449.02 Z" />
<path fill="#302722" opacity="1.00" d=" M 293.92 445.16 C 297.68 446.07 301.52 446.58 305.35 447.12 C 305.36 447.48 305.38 448.20 305.39 448.57 C 305.39 450.48 305.34 452.39 305.30 454.31 C 301.00 454.39 296.71 454.38 292.41 454.30 C 292.83 451.69 293.26 449.09 293.69 446.49 L 293.92 445.16 Z" />
<path fill="#302722" opacity="1.00" d=" M 394.02 444.95 C 399.67 444.99 405.33 444.80 410.98 445.08 C 410.97 445.50 410.97 446.35 410.97 446.77 C 410.93 448.08 410.89 449.40 410.84 450.72 C 405.61 450.65 400.37 450.81 395.15 450.36 C 393.01 449.57 390.82 448.91 388.61 448.36 C 388.47 452.28 388.90 456.28 388.08 460.15 C 384.56 464.55 378.33 464.10 373.26 463.98 C 372.71 458.90 372.14 453.82 371.60 448.74 C 371.55 448.28 371.44 447.36 371.39 446.90 C 375.96 446.92 380.52 446.64 385.08 446.96 C 388.06 447.50 390.91 448.56 393.90 449.08 C 393.93 448.05 393.99 445.99 394.02 444.95 Z" />
<path fill="#302722" opacity="1.00" d=" M 314.81 446.84 C 322.94 447.31 331.39 445.58 339.24 448.22 C 347.15 445.69 355.60 447.14 363.76 446.94 C 363.78 447.39 363.83 448.29 363.85 448.74 C 363.90 451.83 363.85 454.93 363.81 458.03 C 356.29 458.21 348.75 458.21 341.23 458.07 C 341.21 455.01 341.19 451.96 341.17 448.92 C 340.28 448.93 338.49 448.96 337.60 448.98 C 337.51 453.89 337.51 458.81 337.61 463.72 C 330.04 463.82 322.48 463.78 314.92 463.81 C 314.78 458.80 314.72 453.79 314.79 448.78 C 314.79 448.30 314.80 447.33 314.81 446.84 Z" />
<path fill="#302722" opacity="1.00" d=" M 224.35 457.19 C 227.27 455.72 230.10 454.01 233.24 453.04 C 237.04 456.67 240.08 461.14 244.77 463.79 C 243.44 465.22 242.12 466.67 240.76 468.09 C 239.08 469.83 237.37 471.53 235.66 473.25 C 229.24 469.94 223.43 465.52 218.63 460.11 C 220.53 459.13 222.44 458.16 224.35 457.19 Z" />
<path fill="#302722" opacity="1.00" d=" M 392.18 454.33 C 395.83 454.28 399.54 454.01 403.15 454.80 C 403.77 460.92 403.22 467.08 403.39 473.22 C 403.39 474.48 403.40 475.74 403.42 477.00 L 392.10 477.00 C 392.09 475.73 392.10 474.46 392.11 473.20 C 392.12 466.91 392.10 460.62 392.18 454.33 Z" />
<path fill="#302722" opacity="1.00" d=" M 406.93 454.38 C 412.60 454.68 418.53 453.56 424.04 454.90 C 428.01 459.63 430.46 465.42 433.86 470.56 C 434.41 471.50 434.97 472.44 435.53 473.39 C 430.09 474.67 424.49 475.01 418.93 475.15 C 418.37 474.39 417.81 473.64 417.26 472.90 C 415.11 470.01 412.57 467.44 410.49 464.52 C 408.34 461.55 407.72 457.87 406.93 454.38 Z" />
<path fill="#302722" opacity="1.00" d=" M 433.78 460.06 C 439.37 458.76 444.97 457.49 450.57 456.25 C 451.97 459.05 453.37 461.85 454.77 464.66 C 455.14 465.39 455.87 466.85 456.24 467.59 C 450.80 470.12 445.05 471.88 439.23 473.25 C 438.70 472.09 438.19 470.93 437.68 469.78 C 436.27 466.58 435.01 463.32 433.78 460.06 Z" />
<path fill="#302722" opacity="1.00" d=" M 258.21 458.23 C 265.28 461.87 272.88 464.31 280.67 465.82 C 279.50 468.29 278.34 470.76 277.13 473.21 C 276.49 474.47 275.85 475.73 275.22 477.00 L 271.27 477.00 C 262.05 476.53 252.76 476.50 243.64 474.99 C 244.84 473.40 246.00 471.77 247.39 470.34 C 251.01 466.31 254.63 462.29 258.21 458.23 Z" />
<path fill="#302722" opacity="1.00" d=" M 290.27 458.18 C 295.26 458.14 300.25 458.13 305.24 458.15 C 305.37 463.16 305.41 468.18 305.39 473.19 C 305.38 474.45 305.38 475.72 305.37 477.00 L 286.44 477.00 C 286.76 475.73 287.05 474.46 287.32 473.19 C 288.29 468.19 289.25 463.18 290.27 458.18 Z" />
<path fill="#302722" opacity="1.00" d=" M 354.36 462.03 C 359.45 461.84 364.55 461.86 369.64 462.14 C 369.59 465.75 369.59 469.37 369.61 472.99 C 371.99 472.97 374.37 472.96 376.75 472.95 C 376.43 471.97 376.12 471.00 375.81 470.03 C 380.28 469.91 384.62 468.62 388.30 466.04 C 388.30 468.42 388.31 470.80 388.33 473.19 C 388.33 474.45 388.33 475.72 388.35 477.00 L 379.07 477.00 C 378.29 475.75 377.58 474.46 376.86 473.19 C 374.76 473.22 372.66 473.28 370.57 473.39 C 369.18 474.28 367.79 475.34 366.03 475.13 C 361.53 475.26 357.03 475.09 352.53 475.12 C 352.59 474.64 352.73 473.67 352.79 473.19 C 353.31 469.47 353.84 465.75 354.36 462.03 Z" />
<path fill="#302722" opacity="1.00" d=" M 335.43 465.91 C 339.86 465.64 344.30 465.64 348.74 465.85 C 348.76 468.29 348.79 470.73 348.78 473.18 C 348.75 474.45 348.68 475.72 348.59 477.00 L 335.55 477.00 C 335.55 476.06 335.55 474.17 335.55 473.22 C 333.03 473.21 330.51 473.21 328.00 473.22 C 328.00 474.16 328.00 476.05 328.00 477.00 L 309.15 477.00 C 309.15 475.73 309.15 474.46 309.16 473.19 C 309.17 471.37 309.18 469.55 309.19 467.74 C 315.43 467.54 321.68 467.54 327.93 467.69 C 327.98 469.48 328.04 471.27 328.10 473.07 C 330.52 473.06 332.95 473.06 335.38 473.05 C 335.39 470.66 335.42 468.28 335.43 465.91 Z" />
</g>
<g id="#c0533eff">
<path fill="#c0533e" opacity="1.00" d=" M 22.41 19.56 C 29.81 16.68 37.78 22.74 39.08 30.08 C 41.16 37.85 36.53 47.52 28.16 48.86 C 20.64 50.12 14.03 43.30 13.37 36.15 C 12.36 29.46 15.90 21.99 22.41 19.56 Z" />
<path fill="#c0533e" opacity="1.00" d=" M 461.09 19.19 C 468.89 17.21 476.22 24.35 476.76 31.87 C 477.83 39.10 473.40 47.26 465.94 48.78 C 459.03 50.25 452.46 44.60 451.08 38.05 C 449.00 30.50 453.11 21.12 461.09 19.19 Z" />
<path fill="#c0533e" opacity="1.00" d=" M 16.40 106.61 C 23.29 103.71 31.97 107.30 34.69 114.27 C 37.96 121.53 33.68 130.93 26.01 133.13 C 18.55 135.80 9.63 130.78 7.99 123.06 C 6.21 116.46 10.07 109.08 16.40 106.61 Z" />
<path fill="#c0533e" opacity="1.00" d=" M 464.13 106.30 C 472.18 103.42 481.76 109.48 482.43 118.03 C 483.67 125.90 476.96 133.72 469.03 133.79 C 462.07 134.29 455.40 128.76 454.54 121.85 C 453.35 115.21 457.69 108.23 464.13 106.30 Z" />
<path fill="#c0533e" opacity="1.00" d=" M 41.42 191.46 C 47.78 189.00 55.48 191.10 59.76 196.39 C 65.26 202.72 65.50 212.84 60.40 219.47 C 56.69 224.51 50.02 227.25 43.86 225.89 C 36.09 224.38 30.27 216.82 30.19 209.00 C 29.76 201.57 34.38 194.05 41.42 191.46 Z" />
<path fill="#c0533e" opacity="1.00" d=" M 437.29 191.46 C 442.09 189.66 447.74 190.27 452.01 193.15 C 457.17 196.61 460.30 202.87 459.92 209.09 C 459.78 215.95 455.37 222.61 448.92 225.09 C 442.61 227.72 434.89 225.64 430.53 220.45 C 422.40 211.71 425.83 195.48 437.29 191.46 Z" />
<path fill="#c0533e" opacity="1.00" d=" M 182.21 243.30 C 189.40 239.92 198.01 241.37 204.59 245.46 C 212.62 250.39 218.21 258.39 222.28 266.72 C 229.49 281.76 232.26 298.43 233.82 314.90 C 241.31 314.84 248.80 314.86 256.30 314.88 C 257.77 299.67 260.13 284.33 266.26 270.22 C 270.23 260.98 275.86 252.00 284.31 246.25 C 291.03 241.66 300.12 239.70 307.74 243.22 C 315.81 246.59 321.12 254.55 322.87 262.92 C 325.43 274.96 324.63 288.34 318.03 299.01 C 312.34 308.37 302.44 314.59 291.93 317.15 C 284.04 319.34 275.79 318.40 267.72 318.64 C 267.62 327.42 268.16 336.48 265.18 344.90 C 263.36 350.48 259.69 355.74 254.23 358.23 C 245.48 362.08 233.71 360.05 228.28 351.69 C 221.75 342.00 222.46 329.78 222.38 318.63 C 214.26 318.41 205.97 319.33 198.04 317.14 C 187.36 314.46 177.31 308.00 171.70 298.36 C 165.57 288.13 164.85 275.51 167.01 264.02 C 168.57 255.31 173.86 246.86 182.21 243.30 M 254.38 347.15 C 260.95 344.15 263.30 336.43 264.00 329.80 C 257.57 333.05 254.38 340.17 254.38 347.15 M 226.22 329.92 C 226.76 336.55 229.28 344.12 235.71 347.21 C 235.76 340.29 232.66 333.10 226.22 329.92 Z" />
</g>
<g id="#9f958cff">
<path fill="#9f958c" opacity="1.00" d=" M 75.34 28.42 C 81.80 27.07 88.38 26.38 94.99 26.58 C 103.46 26.76 112.48 25.87 120.31 29.75 C 123.53 31.23 125.96 34.37 126.16 37.96 C 126.86 43.39 123.10 48.04 119.07 51.16 C 108.92 58.93 96.93 63.91 86.90 71.86 C 81.96 75.58 77.58 80.53 71.30 81.97 C 77.99 74.73 84.88 67.54 89.97 59.04 C 92.89 54.07 95.82 47.85 93.18 42.15 C 89.91 34.90 82.14 31.54 75.34 28.42 Z" />
<path fill="#9f958c" opacity="1.00" d=" M 369.81 29.75 C 377.93 25.83 387.25 26.72 396.00 26.58 C 402.32 26.40 408.60 27.09 414.77 28.43 C 408.02 31.56 400.30 34.87 396.98 42.04 C 394.79 46.56 396.29 51.74 398.46 55.96 C 403.52 65.80 411.32 73.82 418.76 81.87 C 413.53 80.65 409.50 76.98 405.50 73.63 C 398.48 67.67 390.30 63.34 382.45 58.60 C 376.39 54.85 369.64 51.42 365.59 45.33 C 362.13 40.20 364.14 32.37 369.81 29.75 Z" />
<path fill="#9f958c" opacity="1.00" d=" M 69.02 96.17 C 84.89 90.79 102.13 85.83 118.86 90.23 C 119.53 97.02 119.92 104.09 117.47 110.59 C 113.75 120.71 106.49 128.92 101.22 138.21 C 99.37 141.58 97.26 144.89 94.16 147.25 C 97.20 138.13 99.60 127.99 96.71 118.53 C 92.31 106.68 80.23 100.26 69.02 96.17 Z" />
<path fill="#9f958c" opacity="1.00" d=" M 383.69 88.49 C 396.52 88.42 409.05 91.96 421.05 96.20 C 409.90 100.31 397.92 106.68 393.45 118.42 C 390.37 128.33 393.09 138.95 396.40 148.45 C 391.21 143.10 388.14 136.21 383.81 130.22 C 378.97 122.82 373.47 115.44 371.49 106.66 C 370.55 101.41 370.05 95.84 371.64 90.67 C 375.33 88.74 379.62 88.67 383.69 88.49 Z" />
<path fill="#9f958c" opacity="1.00" d=" M 226.60 100.07 C 239.53 99.85 252.46 99.83 265.39 100.08 C 262.68 105.64 259.06 110.67 255.94 115.99 C 252.31 121.85 248.99 127.92 244.95 133.52 C 238.85 122.37 232.24 111.47 226.60 100.07 Z" />
<path fill="#9f958c" opacity="1.00" d=" M 133.99 137.60 C 143.26 130.71 152.53 123.82 161.94 117.11 C 163.60 127.60 164.62 138.19 165.84 148.75 C 155.11 145.34 144.57 141.40 133.99 137.60 Z" />
<path fill="#9f958c" opacity="1.00" d=" M 330.08 118.98 C 339.50 125.67 348.73 132.62 358.09 139.38 C 347.58 143.56 336.82 147.08 326.14 150.78 C 327.48 140.18 328.31 129.52 330.08 118.98 Z" />
<path fill="#9f958c" opacity="1.00" d=" M 230.19 145.29 C 240.72 145.06 251.26 145.21 261.79 145.24 C 258.05 153.46 253.30 161.16 249.36 169.28 C 248.09 171.86 246.62 174.33 245.06 176.74 C 239.79 166.42 234.91 155.88 230.19 145.29 Z" />
<path fill="#9f958c" opacity="1.00" d=" M 156.73 171.65 C 164.51 165.30 173.51 160.47 182.81 156.76 C 183.54 167.22 184.10 177.68 184.72 188.15 C 175.08 183.21 166.05 177.16 156.73 171.65 Z" />
<path fill="#9f958c" opacity="1.00" d=" M 309.20 158.63 C 318.56 162.21 327.38 167.22 335.31 173.35 C 326.20 179.30 316.85 184.95 307.29 190.15 C 307.88 179.64 308.47 169.13 309.20 158.63 Z" />
<path fill="#9f958c" opacity="1.00" d=" M 97.40 218.04 C 98.29 211.38 99.34 204.66 101.77 198.35 C 107.86 203.89 113.02 210.33 118.79 216.19 C 121.92 219.40 125.00 222.67 127.87 226.12 C 117.54 230.32 106.89 233.70 96.40 237.48 C 95.93 230.99 96.75 224.50 97.40 218.04 Z" />
<path fill="#9f958c" opacity="1.00" d=" M 372.72 218.67 C 378.49 212.46 384.12 206.12 390.20 200.21 C 394.64 212.69 395.46 226.10 395.89 239.23 C 389.80 237.56 383.99 235.06 377.99 233.11 C 373.36 231.43 368.53 230.22 364.16 227.90 C 366.72 224.57 369.89 221.76 372.72 218.67 Z" />
<path fill="#9f958c" opacity="1.00" d=" M 135.83 245.04 C 137.09 235.85 139.19 226.10 145.45 218.92 C 150.04 225.19 154.66 231.45 159.47 237.55 C 160.35 238.69 161.22 239.89 161.62 241.29 C 153.07 242.78 144.43 243.85 135.83 245.04 Z" />
<path fill="#9f958c" opacity="1.00" d=" M 344.54 223.60 C 345.39 222.68 346.08 221.30 347.48 221.22 C 352.35 228.93 355.28 237.83 356.11 246.91 C 347.43 245.60 338.68 244.71 330.07 242.97 C 334.89 236.51 339.76 230.08 344.54 223.60 Z" />
<path fill="#9f958c" opacity="1.00" d=" M 107.42 307.67 C 118.53 305.14 129.85 303.56 141.12 301.87 C 138.52 310.80 135.22 319.50 132.49 328.38 C 131.74 330.75 130.74 333.03 129.70 335.28 C 121.13 327.10 112.89 318.29 107.42 307.67 Z" />
<path fill="#9f958c" opacity="1.00" d=" M 350.93 303.81 C 362.12 305.17 373.21 307.32 384.32 309.19 C 379.51 320.05 371.10 328.88 362.50 336.86 C 360.96 335.71 360.72 333.59 360.03 331.93 C 357.22 322.48 353.55 313.31 350.93 303.81 Z" />
<path fill="#9f958c" opacity="1.00" d=" M 132.47 362.65 C 133.96 363.79 135.34 365.05 136.67 366.38 C 133.64 369.99 130.72 374.72 132.47 379.61 C 134.27 383.83 139.09 384.96 143.18 385.55 C 142.82 382.93 142.43 380.33 142.06 377.72 C 146.80 380.83 151.24 384.41 155.08 388.60 C 148.99 390.60 142.36 390.95 136.09 389.65 C 129.74 387.61 125.93 380.60 126.36 374.14 C 126.74 369.64 129.92 366.14 132.47 362.65 Z" />
<path fill="#9f958c" opacity="1.00" d=" M 355.35 366.40 C 356.67 365.07 358.06 363.81 359.54 362.66 C 362.49 366.58 366.07 370.82 365.71 376.06 C 365.31 381.85 361.58 387.78 355.93 389.66 C 349.63 390.93 342.97 390.63 336.88 388.56 C 340.73 384.41 345.19 380.89 349.91 377.78 C 349.56 380.37 349.20 382.95 348.88 385.55 C 352.93 384.91 357.74 383.86 359.55 379.67 C 361.30 374.78 358.38 370.03 355.35 366.40 Z" />
</g>
<g id="#6e434dff">
<path fill="#6e434d" opacity="1.00" d=" M 456.03 337.00 C 458.43 333.31 459.06 328.88 459.63 324.61 C 462.57 325.21 465.51 325.87 468.42 326.63 C 466.88 328.98 465.40 331.37 463.93 333.76 C 469.68 338.64 474.55 344.44 478.97 350.53 C 482.48 348.43 486.08 346.45 489.96 345.15 C 490.98 348.07 492.29 350.86 493.44 353.73 C 489.21 355.75 485.07 357.95 480.92 360.13 C 484.03 365.46 486.97 370.96 488.52 376.98 C 491.77 377.04 495.03 377.07 498.28 377.07 C 498.41 378.92 498.54 380.76 498.68 382.62 C 495.18 382.59 491.70 382.75 488.22 382.91 C 488.34 391.60 488.22 400.29 488.27 408.98 C 492.04 410.04 495.82 411.06 499.64 411.98 C 499.46 415.06 499.20 418.13 498.87 421.21 C 495.45 419.59 491.94 418.21 488.41 416.88 C 484.82 423.66 479.20 428.95 473.42 433.86 C 477.07 438.11 480.68 442.41 484.49 446.53 C 482.48 448.29 480.47 450.03 478.44 451.76 C 474.23 447.07 470.00 442.39 465.84 437.66 C 461.78 441.83 457.44 445.73 452.62 449.02 C 455.14 453.48 457.60 457.96 459.89 462.55 C 458.18 463.25 456.48 463.95 454.77 464.66 C 453.37 461.85 451.97 459.05 450.57 456.25 C 444.97 457.49 439.37 458.76 433.78 460.06 C 435.01 463.32 436.27 466.58 437.68 469.78 C 436.73 469.97 434.82 470.36 433.86 470.56 C 430.46 465.42 428.01 459.63 424.04 454.90 C 418.53 453.56 412.60 454.68 406.93 454.38 C 407.72 457.87 408.34 461.55 410.49 464.52 C 412.57 467.44 415.11 470.01 417.26 472.90 C 412.63 473.08 408.01 473.21 403.39 473.22 C 403.22 467.08 403.77 460.92 403.15 454.80 C 399.54 454.01 395.83 454.28 392.18 454.33 C 392.10 460.62 392.12 466.91 392.11 473.20 C 390.84 473.19 389.58 473.18 388.33 473.19 C 388.31 470.80 388.30 468.42 388.30 466.04 C 384.62 468.62 380.28 469.91 375.81 470.03 C 376.12 471.00 376.43 471.97 376.75 472.95 C 374.37 472.96 371.99 472.97 369.61 472.99 C 369.59 469.37 369.59 465.75 369.64 462.14 C 364.55 461.86 359.45 461.84 354.36 462.03 C 353.84 465.75 353.31 469.47 352.79 473.19 C 351.45 473.18 350.11 473.18 348.78 473.18 C 348.79 470.73 348.76 468.29 348.74 465.85 C 344.30 465.64 339.86 465.64 335.43 465.91 C 335.42 468.28 335.39 470.66 335.38 473.05 C 332.95 473.06 330.52 473.06 328.10 473.07 C 328.04 471.27 327.98 469.48 327.93 467.69 C 321.68 467.54 315.43 467.54 309.19 467.74 C 309.18 469.55 309.17 471.37 309.16 473.19 C 307.90 473.19 306.64 473.19 305.39 473.19 C 305.41 468.18 305.37 463.16 305.24 458.15 C 300.25 458.13 295.26 458.14 290.27 458.18 C 289.25 463.18 288.29 468.19 287.32 473.19 C 283.92 473.20 280.52 473.20 277.13 473.21 C 278.34 470.76 279.50 468.29 280.67 465.82 C 272.88 464.31 265.28 461.87 258.21 458.23 C 254.63 462.29 251.01 466.31 247.39 470.34 C 245.18 469.60 242.97 468.84 240.76 468.09 C 242.12 466.67 243.44 465.22 244.77 463.79 C 240.08 461.14 237.04 456.67 233.24 453.04 C 230.10 454.01 227.27 455.72 224.35 457.19 C 222.82 455.28 221.31 453.36 219.82 451.44 C 223.80 450.58 227.76 449.65 231.72 448.74 C 227.60 440.53 225.77 431.50 224.14 422.54 C 219.88 422.88 215.62 423.28 211.38 423.76 C 211.28 420.78 211.18 417.80 211.09 414.82 C 219.80 414.89 228.52 414.69 237.23 414.87 L 237.74 414.87 C 237.81 410.54 237.65 406.22 237.72 401.89 C 240.16 401.83 242.62 401.79 245.07 401.75 C 245.06 406.08 245.08 410.42 245.16 414.76 C 254.48 414.77 263.81 414.71 273.14 414.81 C 273.13 415.71 273.12 417.51 273.11 418.41 C 266.92 418.43 260.74 418.42 254.55 418.54 C 255.13 421.66 255.71 424.78 256.29 427.90 C 262.45 426.78 268.57 425.43 274.79 424.66 C 274.66 425.24 274.40 426.39 274.27 426.97 C 271.49 427.97 268.70 428.93 265.93 429.93 C 267.71 433.03 269.52 436.12 271.34 439.21 C 273.51 437.75 275.69 436.30 277.76 434.70 C 278.69 435.64 279.63 436.61 280.61 437.51 C 274.51 443.29 268.09 448.71 262.06 454.55 C 269.33 457.76 276.86 460.37 284.66 461.94 C 286.32 456.11 288.06 450.30 290.12 444.60 C 291.29 445.27 292.49 445.87 293.69 446.49 C 293.26 449.09 292.83 451.69 292.41 454.30 C 296.71 454.38 301.00 454.39 305.30 454.31 C 305.34 452.39 305.39 450.48 305.39 448.57 C 308.52 448.65 311.65 448.72 314.79 448.78 C 314.72 453.79 314.78 458.80 314.92 463.81 C 322.48 463.78 330.04 463.82 337.61 463.72 C 337.51 458.81 337.51 453.89 337.60 448.98 C 338.49 448.96 340.28 448.93 341.17 448.92 C 341.19 451.96 341.21 455.01 341.23 458.07 C 348.75 458.21 356.29 458.21 363.81 458.03 C 363.85 454.93 363.90 451.83 363.85 448.74 C 366.43 448.73 369.01 448.73 371.60 448.74 C 372.14 453.82 372.71 458.90 373.26 463.98 C 378.33 464.10 384.56 464.55 388.08 460.15 C 388.90 456.28 388.47 452.28 388.61 448.36 C 390.82 448.91 393.01 449.57 395.15 450.36 C 400.37 450.81 405.61 450.65 410.84 450.72 C 410.89 449.40 410.93 448.08 410.97 446.77 C 413.17 446.16 415.37 445.56 417.57 444.93 C 417.88 445.61 418.19 446.30 418.51 447.00 C 424.09 444.76 429.48 441.90 433.78 437.63 C 435.29 436.32 436.83 435.05 438.37 433.78 C 441.16 437.56 444.01 441.31 446.89 445.03 C 452.35 441.48 458.46 438.02 461.54 432.01 C 457.84 427.98 453.12 425.10 448.91 421.65 C 450.04 419.41 451.15 417.15 452.23 414.89 C 454.51 414.62 457.65 415.51 459.11 413.20 C 462.45 408.16 463.06 401.96 463.92 396.12 C 461.44 396.03 458.97 395.95 456.51 395.88 C 456.45 393.57 456.39 391.25 456.35 388.95 C 464.38 382.86 472.82 377.35 480.79 371.18 C 477.68 360.94 472.33 351.50 465.68 343.15 C 459.50 350.85 453.86 358.99 447.28 366.37 C 445.62 364.99 443.89 363.69 442.15 362.43 C 443.12 361.01 444.01 359.52 444.91 358.05 C 439.48 356.23 433.74 355.68 428.04 356.01 C 427.99 357.42 427.96 358.83 427.94 360.25 C 426.11 360.84 424.27 361.38 422.51 362.14 C 422.41 357.75 422.23 353.37 422.12 348.99 C 415.25 351.88 408.52 355.11 401.71 358.16 C 405.22 362.61 409.00 366.85 412.48 371.33 C 412.07 371.76 411.25 372.63 410.83 373.06 C 410.46 373.24 409.70 373.58 409.32 373.75 C 402.65 367.20 395.16 361.47 389.05 354.36 C 391.86 352.07 394.02 349.12 396.48 346.48 C 397.55 347.87 398.66 349.23 399.77 350.60 C 408.51 346.32 417.15 341.85 425.92 337.63 C 425.58 334.68 425.21 331.73 424.81 328.79 C 426.99 328.12 429.17 327.46 431.37 326.83 C 430.85 334.73 430.13 342.63 430.04 350.56 C 435.17 350.99 440.20 352.13 444.98 354.04 C 448.80 348.45 452.38 342.70 456.03 337.00 M 469.66 390.94 C 469.78 395.70 470.78 400.40 471.22 405.14 C 475.04 404.85 478.82 404.23 482.55 403.33 C 481.89 397.82 481.28 392.32 480.77 386.80 C 477.04 388.01 472.74 388.38 469.66 390.94 M 460.11 420.64 C 463.25 424.34 466.34 428.09 469.42 431.85 C 476.65 427.82 481.95 420.84 484.36 412.96 C 478.87 411.00 473.33 409.20 467.80 407.37 C 465.45 411.91 462.77 416.28 460.11 420.64 M 230.04 420.33 C 230.32 425.55 231.90 430.56 233.70 435.43 C 240.00 433.13 246.20 430.56 252.42 428.06 C 251.62 425.69 250.89 423.31 249.87 421.03 C 249.38 419.85 248.71 418.30 247.09 418.79 C 241.40 419.19 235.75 420.06 230.04 420.33 M 233.76 439.27 C 236.18 447.69 241.90 454.73 248.77 460.00 C 255.12 453.14 261.51 446.30 267.62 439.21 C 265.81 436.78 264.24 434.13 261.98 432.09 C 252.45 433.91 243.21 437.07 233.76 439.27 Z" />
<path fill="#6e434d" opacity="1.00" d=" M 431.33 369.26 C 432.87 369.51 434.41 369.77 435.96 370.04 C 433.93 373.49 432.01 377.01 430.04 380.50 C 428.86 381.00 427.70 381.52 426.55 382.07 C 423.73 385.11 424.61 389.12 426.01 392.58 C 424.66 394.13 426.27 395.68 426.92 397.13 C 428.40 399.29 428.31 402.51 426.58 404.51 C 424.11 406.40 421.10 404.23 418.63 403.38 C 419.78 400.32 420.93 397.25 422.07 394.18 C 419.06 394.08 416.05 393.98 413.04 393.87 C 412.96 392.15 412.87 390.43 412.83 388.72 C 414.69 389.11 416.56 389.52 418.43 389.92 C 418.91 386.95 419.74 384.00 419.62 380.97 C 418.96 379.43 417.86 378.14 416.92 376.79 C 417.53 375.99 418.13 375.17 418.71 374.35 C 419.88 375.87 421.11 377.35 422.32 378.85 C 424.83 378.26 427.33 377.66 429.84 377.07 C 430.34 374.47 430.84 371.86 431.33 369.26 Z" />
<path fill="#6e434d" opacity="1.00" d=" M 379.08 379.55 C 388.42 382.35 397.79 385.07 407.15 387.81 C 407.24 389.32 407.33 390.83 407.43 392.34 C 403.52 392.84 399.64 393.50 395.75 394.09 C 396.54 400.09 397.84 407.06 403.29 410.64 C 406.76 410.13 409.90 408.41 413.09 407.03 C 414.04 407.85 415.04 408.61 416.05 409.39 C 413.82 412.67 411.37 415.78 408.98 418.94 C 413.33 420.02 417.86 419.95 422.23 418.95 C 422.62 416.31 422.98 413.68 423.29 411.04 C 424.49 411.01 425.69 410.99 426.90 410.97 C 429.25 416.19 431.16 421.66 434.42 426.42 C 433.54 427.25 432.66 428.07 431.77 428.88 C 430.12 426.04 428.27 423.33 426.28 420.72 C 422.56 422.28 418.73 423.54 414.82 424.50 C 414.74 428.18 414.72 431.85 414.77 435.53 C 411.07 435.55 407.36 435.42 403.67 435.24 C 405.96 431.61 408.35 428.04 410.83 424.54 C 404.94 422.01 399.66 418.23 395.80 413.07 C 391.37 414.81 386.97 416.66 382.61 418.58 C 381.93 416.74 381.31 414.88 380.53 413.09 C 385.08 411.72 389.63 410.37 394.17 408.95 C 393.36 407.16 392.69 405.30 391.63 403.65 C 387.64 403.07 383.60 403.41 379.59 403.38 C 379.56 402.46 379.52 400.62 379.49 399.70 C 383.67 399.67 387.84 399.65 392.02 399.66 C 392.08 395.88 392.06 392.10 391.96 388.33 C 387.59 387.77 383.22 387.21 378.84 386.74 C 378.91 384.34 378.98 381.94 379.08 379.55 Z" />
<path fill="#6e434d" opacity="1.00" d=" M 432.49 382.66 C 433.20 383.26 433.92 383.87 434.65 384.48 C 438.49 383.86 442.36 383.48 446.23 383.11 C 446.30 385.49 446.61 387.85 446.79 390.23 C 442.43 390.83 438.05 391.29 433.69 391.96 C 433.51 388.83 433.27 385.69 432.49 382.66 Z" />
<path fill="#6e434d" opacity="1.00" d=" M 434.01 400.30 C 437.64 401.22 441.33 401.94 444.91 403.08 C 444.92 403.55 444.94 404.48 444.95 404.94 C 444.70 406.31 444.44 407.69 444.28 409.08 C 440.76 407.18 437.05 405.65 433.34 404.15 C 433.56 402.86 433.78 401.58 434.01 400.30 Z" />
<path fill="#6e434d" opacity="1.00" d=" M 129.98 405.33 C 134.95 405.19 139.07 401.65 144.08 401.66 C 151.38 401.49 158.68 401.63 165.98 401.63 C 164.23 405.42 162.12 409.20 158.79 411.83 C 155.42 414.74 150.65 414.77 146.93 417.04 C 142.93 419.20 140.08 422.82 137.28 426.29 C 135.41 425.87 133.57 425.37 131.73 424.87 C 131.98 422.11 131.97 419.35 131.96 416.59 C 128.20 418.66 124.60 421.15 121.99 424.62 C 120.02 423.78 118.06 422.95 116.10 422.11 C 115.64 418.42 114.85 414.72 115.08 410.99 C 115.09 409.44 116.52 408.43 117.70 407.69 C 121.42 405.58 125.84 405.63 129.98 405.33 Z" />
<path fill="#6e434d" opacity="1.00" d=" M 326.04 401.63 C 333.34 401.63 340.66 401.49 347.96 401.66 C 353.28 401.74 357.69 405.57 363.05 405.41 C 367.77 405.76 373.80 405.69 376.75 410.06 C 377.43 414.08 376.34 418.14 375.89 422.14 C 373.94 422.97 371.98 423.79 370.02 424.61 C 367.39 421.16 363.83 418.63 360.05 416.60 C 360.03 419.29 360.04 422.00 360.24 424.69 C 358.39 425.26 356.54 425.83 354.69 426.41 C 351.81 422.34 348.34 418.48 343.74 416.35 C 340.50 414.78 336.68 414.50 333.76 412.26 C 330.14 409.62 327.85 405.64 326.04 401.63 Z" />
</g>
</svg>
