<?xml version="1.0" encoding="UTF-8" ?>
<!DOCTYPE svg PUBLIC "-//W3C//DTD SVG 1.1//EN" "http://www.w3.org/Graphics/SVG/1.1/DTD/svg11.dtd">
<svg width="539pt" height="512pt" viewBox="0 0 539 512" version="1.1" xmlns="http://www.w3.org/2000/svg">
<g id="#c4ab73ff">
<path fill="#c4ab73" opacity="1.00" d=" M 261.50 0.00 L 263.24 0.00 C 266.91 1.82 268.95 5.57 270.29 9.27 C 269.82 10.44 269.39 11.81 267.95 12.04 C 263.54 13.76 258.74 13.06 254.19 12.41 C 255.56 7.79 257.33 2.84 261.50 0.00 Z" />
<path fill="#c4ab73" opacity="1.00" d=" M 307.48 0.00 L 308.47 0.00 C 311.10 3.52 312.53 7.78 312.28 12.19 C 311.54 12.25 310.07 12.36 309.33 12.41 C 304.56 12.27 299.78 12.18 295.03 11.82 C 293.12 11.34 291.25 10.72 289.36 10.18 C 294.56 5.51 301.07 2.61 307.48 0.00 Z" />
<path fill="#c4ab73" opacity="1.00" d=" M 210.81 30.18 C 209.76 25.28 210.33 20.11 212.57 15.61 C 217.77 16.58 223.21 17.30 227.71 20.30 C 222.96 24.89 217.40 28.83 210.81 30.18 Z" />
<path fill="#c4ab73" opacity="1.00" d=" M 337.13 21.12 C 342.50 18.63 348.13 16.65 354.00 15.71 C 355.06 20.56 355.07 25.68 353.27 30.37 C 352.84 30.25 351.98 30.01 351.55 29.89 C 348.51 29.26 345.62 28.08 342.87 26.66 C 340.45 25.41 337.98 23.86 337.13 21.12 Z" />
<path fill="#c4ab73" opacity="1.00" d=" M 185.39 43.42 C 188.74 41.46 192.48 43.90 195.59 45.23 C 195.18 48.56 193.94 51.77 191.56 54.19 C 190.76 54.99 189.94 55.75 189.15 56.56 C 188.81 56.91 188.13 57.63 187.79 57.98 C 185.17 53.80 183.43 48.13 185.39 43.42 Z" />
<path fill="#c4ab73" opacity="1.00" d=" M 375.07 50.88 C 379.25 49.62 383.55 48.40 387.96 48.65 C 389.40 48.77 391.56 48.91 391.29 50.93 C 391.15 56.53 388.64 62.02 384.56 65.86 C 378.98 63.22 374.72 57.16 375.07 50.88 Z" />
<path fill="#c4ab73" opacity="1.00" d=" M 166.52 92.41 C 164.65 87.58 163.22 82.21 164.67 77.08 C 170.56 77.45 177.03 76.35 182.30 79.65 C 181.19 84.95 180.80 90.80 177.04 95.06 C 175.55 97.12 172.92 97.51 170.57 97.68 C 168.75 96.33 167.28 94.56 166.52 92.41 Z" />
<path fill="#c4ab73" opacity="1.00" d=" M 397.62 92.29 C 401.62 87.95 407.61 86.48 413.04 84.75 C 415.67 88.99 417.15 93.85 417.10 98.86 C 410.07 99.44 402.81 97.10 397.62 92.29 Z" />
<path fill="#c4ab73" opacity="1.00" d=" M 431.74 101.36 C 437.50 96.78 443.74 92.24 451.06 90.66 C 454.00 96.41 453.84 103.22 452.18 109.33 C 444.87 108.22 437.78 105.68 431.74 101.36 Z" />
<path fill="#c4ab73" opacity="1.00" d=" M 134.96 103.08 C 136.97 102.51 139.05 103.28 140.99 103.81 C 144.61 105.03 148.45 106.15 151.35 108.77 C 151.56 109.00 151.98 109.45 152.19 109.68 C 151.21 110.65 150.25 111.64 149.28 112.61 C 145.72 116.54 141.02 119.04 136.34 121.35 C 133.79 115.81 132.48 108.85 134.96 103.08 Z" />
<path fill="#c4ab73" opacity="1.00" d=" M 467.91 120.17 C 473.50 117.66 479.19 114.06 485.53 114.44 C 486.39 115.79 486.33 117.46 486.45 119.00 C 486.49 125.07 485.67 131.18 483.78 136.96 C 478.18 134.30 473.79 129.79 469.90 125.07 C 468.69 123.70 468.38 121.87 467.91 120.17 Z" />
<path fill="#c4ab73" opacity="1.00" d=" M 105.93 142.85 C 110.32 139.08 116.74 139.49 122.16 139.89 C 122.83 145.59 120.63 151.09 118.11 156.09 C 117.20 158.08 115.42 159.43 113.69 160.67 C 109.18 155.86 106.24 149.46 105.93 142.85 Z" />
<path fill="#c4ab73" opacity="1.00" d=" M 492.93 150.29 C 500.33 148.39 508.96 147.90 515.81 151.78 C 512.87 158.22 506.31 161.55 501.43 166.28 C 496.08 162.78 494.43 156.10 492.93 150.29 Z" />
<path fill="#c4ab73" opacity="1.00" d=" M 98.18 192.14 C 101.54 187.79 105.83 184.19 110.60 181.47 C 111.86 185.31 112.93 189.22 113.25 193.27 C 113.43 194.57 113.63 195.87 113.79 197.18 C 114.03 200.12 113.76 203.09 112.82 205.89 C 107.09 204.50 101.19 202.19 97.27 197.61 C 95.54 195.92 97.05 193.66 98.18 192.14 Z" />
<path fill="#c4ab73" opacity="1.00" d=" M 510.20 187.49 C 515.83 189.91 521.06 193.29 525.53 197.49 C 527.51 199.46 529.70 202.03 528.96 205.05 C 527.97 210.43 522.89 213.53 518.46 215.93 C 512.85 207.60 510.77 197.36 510.20 187.49 Z" />
<path fill="#c4ab73" opacity="1.00" d=" M 104.08 235.62 C 106.39 228.67 109.08 220.74 115.91 216.99 C 119.34 219.23 121.26 222.90 122.48 226.70 C 123.00 228.16 123.50 229.63 123.91 231.13 C 124.02 233.13 123.88 235.13 123.72 237.12 C 117.17 237.11 110.41 237.68 104.08 235.62 Z" />
<path fill="#c4ab73" opacity="1.00" d=" M 524.12 243.38 C 525.90 243.12 527.71 242.54 529.32 243.73 C 531.88 245.28 535.91 247.46 534.69 251.07 C 533.49 256.71 531.77 262.47 528.03 266.99 C 527.44 266.79 526.26 266.39 525.66 266.18 C 522.72 258.97 522.40 250.93 524.12 243.38 Z" />
<path fill="#c4ab73" opacity="1.00" d=" M 120.00 258.90 C 119.49 253.57 123.85 249.15 128.05 246.47 C 132.37 248.93 136.11 254.10 134.33 259.21 C 129.67 260.12 124.34 261.62 120.00 258.90 Z" />
<path fill="#c4ab73" opacity="1.00" d=" M 529.10 319.05 C 528.42 310.70 528.96 302.25 530.76 294.07 C 534.53 296.14 537.60 299.41 539.00 303.53 L 539.00 305.77 C 537.51 312.49 536.38 320.05 531.08 324.97 C 530.29 323.04 529.25 321.16 529.10 319.05 Z" />
<path fill="#c4ab73" opacity="1.00" d=" M 525.54 370.00 C 525.43 364.06 527.26 358.26 530.43 353.27 C 533.93 354.78 537.14 357.99 536.97 362.05 C 536.21 367.43 531.88 371.20 527.75 374.23 C 526.77 372.95 525.33 371.77 525.54 370.00 Z" />
<path fill="#c4ab73" opacity="1.00" d=" M 513.75 407.69 C 515.98 403.88 517.65 399.24 521.75 397.03 C 525.36 404.62 528.69 412.61 529.38 421.08 C 529.74 423.66 527.17 425.09 525.31 426.24 C 519.77 429.12 513.14 431.53 506.97 429.24 C 506.41 421.44 510.47 414.46 513.75 407.69 Z" />
<path fill="#c4ab73" opacity="1.00" d=" M 15.74 409.70 C 16.87 408.33 18.60 406.64 20.53 407.48 C 24.48 409.29 27.06 413.03 29.69 416.34 C 33.80 422.14 37.87 428.28 39.36 435.34 C 38.28 443.34 31.34 450.77 22.99 450.67 C 15.65 450.33 9.68 445.17 5.55 439.49 C 5.39 433.46 7.41 427.66 9.41 422.07 C 11.11 417.76 12.85 413.36 15.74 409.70 Z" />
<path fill="#c4ab73" opacity="1.00" d=" M 111.61 416.54 C 112.93 415.23 114.24 413.69 116.10 413.18 C 117.58 413.30 118.78 414.32 119.95 415.15 C 125.56 419.62 129.91 425.40 133.91 431.30 C 133.93 435.42 131.32 438.74 128.85 441.77 C 125.74 445.21 122.67 449.39 118.04 450.74 C 112.75 449.04 108.61 445.06 104.67 441.30 C 102.49 438.95 99.46 436.01 100.96 432.50 C 103.81 426.76 107.32 421.31 111.61 416.54 Z" />
<path fill="#c4ab73" opacity="1.00" d=" M 63.55 417.47 C 65.83 415.66 69.14 414.20 71.81 416.14 C 78.15 420.26 82.72 426.62 86.31 433.17 C 87.13 439.65 82.31 444.90 78.29 449.35 C 74.86 452.54 71.03 456.58 66.02 456.56 C 60.97 455.05 57.32 450.85 54.05 446.95 C 51.43 443.47 48.59 439.51 49.23 434.90 C 52.50 428.05 57.55 422.09 63.55 417.47 Z" />
<path fill="#c4ab73" opacity="1.00" d=" M 477.18 459.21 C 484.39 451.42 492.34 444.32 500.96 438.13 C 503.12 442.04 502.74 446.67 502.93 451.00 C 502.81 455.51 503.06 460.19 501.55 464.51 C 499.51 465.47 497.22 465.58 495.02 465.78 C 487.86 466.25 480.63 466.10 473.53 464.93 C 474.53 462.90 475.62 460.88 477.18 459.21 Z" />
<path fill="#c4ab73" opacity="1.00" d=" M 259.35 451.08 C 260.93 451.12 262.64 450.98 263.95 452.07 C 269.17 455.70 273.73 460.28 277.72 465.22 C 279.43 467.22 280.24 469.75 280.85 472.27 C 271.73 477.61 261.21 481.75 250.49 481.21 C 250.03 470.43 256.34 461.04 259.35 451.08 Z" />
<path fill="#c4ab73" opacity="1.00" d=" M 35.35 455.36 C 37.61 453.63 40.61 454.94 42.58 456.50 C 46.13 459.33 49.22 462.96 53.66 464.48 C 55.38 465.46 58.28 465.65 58.67 467.99 C 59.60 474.53 56.77 481.43 51.79 485.72 C 48.40 488.71 43.04 489.13 39.36 486.42 C 34.23 482.71 31.78 476.22 31.36 470.09 C 31.27 465.07 31.40 459.02 35.35 455.36 Z" />
<path fill="#c4ab73" opacity="1.00" d=" M 124.20 459.29 C 128.25 458.43 132.95 457.91 136.58 460.37 C 140.35 462.80 143.84 466.11 145.47 470.38 C 146.93 475.00 143.25 479.28 139.66 481.69 C 136.43 483.74 131.55 485.76 128.32 482.66 C 123.70 478.02 120.93 471.54 120.24 465.07 C 119.75 462.40 121.58 459.84 124.20 459.29 Z" />
<path fill="#c4ab73" opacity="1.00" d=" M 0.00 467.11 C 0.18 463.07 3.44 459.81 7.54 459.86 C 14.36 461.21 20.81 466.74 21.34 473.97 C 21.54 478.38 18.23 481.85 14.68 483.92 C 12.64 484.19 10.35 484.65 8.56 483.32 C 3.87 480.21 1.11 474.83 0.00 469.44 L 0.00 467.11 Z" />
<path fill="#c4ab73" opacity="1.00" d=" M 179.59 467.52 C 182.66 465.90 187.04 464.46 189.96 467.10 C 193.01 470.51 193.34 475.40 193.79 479.75 C 193.47 484.52 193.87 490.50 189.87 493.90 C 185.72 495.57 181.57 492.57 178.15 490.48 C 174.73 487.57 170.97 484.44 169.56 480.03 C 170.25 474.40 174.92 470.20 179.59 467.52 Z" />
<path fill="#c4ab73" opacity="1.00" d=" M 444.38 475.87 C 450.94 473.76 457.46 470.41 464.50 470.66 C 462.97 479.45 459.03 487.67 454.11 495.04 C 452.23 497.49 449.65 501.25 446.05 499.74 C 438.71 496.90 432.58 491.39 428.08 485.01 C 429.58 482.46 432.11 480.91 434.79 479.85 C 437.96 478.45 441.16 477.12 444.38 475.87 Z" />
<path fill="#c4ab73" opacity="1.00" d=" M 285.52 474.78 C 287.19 473.79 288.94 472.61 291.00 472.85 C 298.68 473.14 306.12 475.71 313.00 479.00 C 316.04 480.34 318.55 482.59 320.49 485.26 C 315.47 492.20 309.83 498.77 303.22 504.24 C 301.07 505.90 298.79 507.71 296.01 508.05 C 293.03 507.37 291.76 504.06 290.47 501.61 C 286.96 493.17 284.63 483.97 285.52 474.78 Z" />
<path fill="#c4ab73" opacity="1.00" d=" M 400.13 484.78 C 403.15 484.47 406.19 484.28 409.24 484.26 C 412.54 484.43 416.50 483.94 418.76 486.89 C 415.59 494.77 412.02 502.98 405.57 508.76 C 403.57 510.70 400.61 509.94 398.55 508.52 C 392.07 504.08 386.88 497.59 384.45 490.08 C 388.50 485.83 394.67 485.50 400.13 484.78 Z" />
<path fill="#c4ab73" opacity="1.00" d=" M 61.48 490.55 C 64.46 481.31 80.76 482.56 82.41 492.08 C 83.19 497.08 80.84 501.90 78.47 506.16 C 76.75 508.62 74.59 510.87 71.74 512.00 L 70.01 512.00 C 67.20 511.09 65.40 508.66 63.99 506.21 C 61.89 501.36 59.99 495.85 61.48 490.55 Z" />
<path fill="#c4ab73" opacity="1.00" d=" M 341.09 488.22 C 342.61 487.56 344.12 486.88 345.69 486.31 C 348.17 486.12 350.67 486.11 353.17 486.22 C 358.11 486.46 363.26 487.02 367.47 489.86 C 365.71 496.70 361.52 502.63 356.61 507.60 C 354.75 509.52 352.49 511.07 349.96 512.00 L 348.63 512.00 C 347.07 511.00 345.65 509.74 344.87 508.04 C 341.85 501.94 340.64 495.00 341.09 488.22 Z" />
</g>
<g id="#6c834dff">
<path fill="#6c834d" opacity="1.00" d=" M 270.29 9.27 C 270.40 9.50 270.60 9.96 270.70 10.19 C 276.91 10.08 283.15 9.57 289.36 10.18 C 291.25 10.72 293.12 11.34 295.03 11.82 C 293.77 13.66 291.50 15.48 292.26 17.97 C 293.71 22.46 300.68 22.97 303.18 19.12 C 304.53 17.16 302.98 14.90 302.49 12.92 C 304.54 12.76 306.60 12.60 308.66 12.47 C 317.17 13.42 325.36 16.18 333.30 19.31 C 331.50 20.03 328.80 19.96 328.02 22.10 C 326.66 24.62 329.12 27.95 331.88 27.65 C 333.64 27.55 335.00 25.99 335.41 24.36 C 335.31 22.73 334.66 21.21 334.21 19.66 C 335.19 20.12 336.16 20.61 337.13 21.12 C 337.98 23.86 340.45 25.41 342.87 26.66 C 342.38 28.42 340.97 30.23 341.71 32.12 C 342.43 34.67 345.53 36.41 348.01 35.21 C 350.42 34.55 350.73 31.84 351.55 29.89 C 351.98 30.01 352.84 30.25 353.27 30.37 C 361.70 35.74 369.08 42.87 375.07 50.88 C 374.72 57.16 378.98 63.22 384.56 65.86 C 387.23 70.39 388.48 75.53 389.69 80.59 C 390.83 85.32 393.94 89.24 397.62 92.29 C 402.81 97.10 410.07 99.44 417.10 98.86 C 422.05 99.11 426.99 99.95 431.74 101.36 C 437.78 105.68 444.87 108.22 452.18 109.33 C 457.87 112.20 463.21 115.85 467.91 120.17 C 468.38 121.87 468.69 123.70 469.90 125.07 C 473.79 129.79 478.18 134.30 483.78 136.96 C 487.39 140.97 490.38 145.55 492.93 150.29 C 494.43 156.10 496.08 162.78 501.43 166.28 C 505.03 173.03 507.73 180.25 510.20 187.49 C 510.77 197.36 512.85 207.60 518.46 215.93 C 521.00 224.90 523.03 234.11 524.12 243.38 C 522.40 250.93 522.72 258.97 525.66 266.18 C 526.26 266.39 527.44 266.79 528.03 266.99 C 529.00 276.01 530.28 285.01 530.76 294.07 C 528.96 302.25 528.42 310.70 529.10 319.05 C 529.25 321.16 530.29 323.04 531.08 324.97 C 531.30 334.39 531.39 343.89 530.43 353.27 C 527.26 358.26 525.43 364.06 525.54 370.00 C 525.33 371.77 526.77 372.95 527.75 374.23 C 526.30 381.95 524.58 389.68 521.75 397.03 C 517.65 399.24 515.98 403.88 513.75 407.69 C 510.47 414.46 506.41 421.44 506.97 429.24 C 505.14 432.31 503.16 435.31 500.96 438.13 C 492.34 444.32 484.39 451.42 477.18 459.21 C 475.62 460.88 474.53 462.90 473.53 464.93 C 470.70 467.10 467.70 469.07 464.50 470.66 C 457.46 470.41 450.94 473.76 444.38 475.87 C 443.75 473.66 443.76 470.80 441.49 469.54 C 438.40 467.35 433.69 469.04 432.63 472.64 C 431.53 475.30 433.58 477.66 434.79 479.85 C 432.11 480.91 429.58 482.46 428.08 485.01 C 425.04 485.93 421.95 486.83 418.76 486.89 C 416.50 483.94 412.54 484.43 409.24 484.26 C 410.02 481.63 411.34 478.71 409.83 476.07 C 408.54 472.62 403.67 471.23 401.00 474.01 C 397.75 476.78 398.99 481.29 400.13 484.78 C 394.67 485.50 388.50 485.83 384.45 490.08 C 381.97 490.20 379.49 490.24 377.02 490.24 C 377.90 487.93 379.81 485.27 378.26 482.83 C 376.53 479.62 371.54 479.66 369.77 482.81 C 368.27 485.22 370.08 487.85 370.96 490.13 C 369.79 490.04 368.63 489.95 367.47 489.86 C 363.26 487.02 358.11 486.46 353.17 486.22 C 352.84 483.77 353.66 480.39 351.06 478.95 C 348.95 477.44 346.09 479.41 345.66 481.68 C 345.49 483.22 345.62 484.77 345.69 486.31 C 344.12 486.88 342.61 487.56 341.09 488.22 C 334.18 487.56 327.27 486.73 320.49 485.26 C 318.55 482.59 316.04 480.34 313.00 479.00 C 306.12 475.71 298.68 473.14 291.00 472.85 C 288.94 472.61 287.19 473.79 285.52 474.78 C 283.93 473.99 282.38 473.15 280.85 472.27 C 280.24 469.75 279.43 467.22 277.72 465.22 C 273.73 460.28 269.17 455.70 263.95 452.07 C 262.64 450.98 260.93 451.12 259.35 451.08 C 255.77 443.99 254.91 435.41 257.45 427.85 C 258.70 427.02 259.99 426.17 260.90 424.96 C 270.59 411.90 283.65 401.58 298.01 394.10 C 306.55 390.15 315.66 387.31 325.01 386.12 C 332.97 384.91 341.03 385.43 349.04 385.34 C 361.66 385.42 374.27 385.11 386.89 384.99 C 384.61 387.25 382.01 389.16 379.53 391.18 C 383.93 390.83 388.31 390.23 392.68 389.55 C 393.35 387.71 394.05 385.88 394.66 384.02 C 411.41 383.22 428.45 380.73 443.92 373.97 C 455.41 368.93 466.33 359.89 469.32 347.21 C 471.16 349.29 474.29 350.90 476.79 348.85 C 482.92 343.85 483.64 333.11 477.37 327.88 C 479.21 323.58 480.43 319.05 481.31 314.47 C 490.06 313.75 494.27 302.59 490.53 295.39 C 489.36 292.85 486.29 293.14 483.99 292.71 C 483.71 286.94 483.70 281.17 483.92 275.40 C 492.18 273.23 493.47 262.11 489.24 255.84 C 488.00 253.69 485.38 253.35 483.24 252.62 C 483.04 246.91 482.47 241.23 481.80 235.56 C 483.60 235.12 485.48 234.87 487.21 234.15 C 493.14 230.24 493.02 219.82 486.73 216.32 C 484.21 214.68 481.36 216.16 478.83 216.88 C 477.40 211.34 476.33 205.69 474.23 200.36 C 476.21 199.78 478.95 200.19 480.09 198.06 C 482.75 193.19 479.21 186.38 473.87 185.37 C 472.11 185.40 470.49 186.18 468.84 186.66 C 466.21 181.34 462.89 176.37 458.87 172.00 C 461.05 170.12 463.88 168.26 464.00 165.06 C 465.08 158.82 458.19 152.11 452.09 155.17 C 448.54 156.63 448.16 160.80 447.59 164.07 C 441.62 162.40 435.13 161.06 429.11 163.23 C 416.37 167.63 406.81 180.09 406.32 193.64 C 401.22 202.48 400.45 212.98 400.83 222.95 C 401.28 230.37 403.55 238.58 409.99 243.00 C 412.89 245.15 416.71 244.70 419.91 246.08 C 422.86 248.00 422.39 251.95 422.47 255.00 C 422.23 263.33 422.75 271.66 422.76 279.99 C 422.45 284.29 422.29 288.60 422.57 292.91 C 417.27 293.74 412.09 295.14 406.90 296.49 C 412.05 298.60 417.25 300.58 422.57 302.25 C 422.47 304.26 422.44 306.29 422.43 308.31 C 416.60 309.12 410.74 309.73 404.88 310.32 C 409.19 315.80 413.97 320.89 418.50 326.18 C 412.12 341.23 396.82 350.57 381.09 353.00 C 372.49 354.10 363.84 354.83 355.22 355.81 C 355.19 341.92 355.49 328.02 355.06 314.13 C 343.75 314.90 333.05 321.92 328.22 332.24 C 324.46 340.43 320.99 348.87 319.34 357.78 C 316.96 357.82 314.57 357.80 312.19 357.80 C 317.16 344.61 322.49 331.54 327.86 318.50 C 325.80 318.38 323.75 318.02 321.69 317.95 C 325.90 308.23 337.63 306.18 346.97 304.71 C 359.27 304.10 371.62 304.69 383.94 304.44 C 385.57 304.40 387.66 304.20 388.35 302.43 C 389.19 299.71 388.78 296.80 388.88 294.01 C 388.71 286.69 389.68 278.78 385.85 272.16 C 381.57 264.48 372.41 260.95 363.96 260.93 C 350.62 260.89 337.29 260.98 323.95 260.92 C 319.03 261.10 314.33 258.50 311.57 254.49 C 304.74 244.51 303.86 231.82 303.89 220.08 C 303.94 208.39 303.83 196.69 303.94 185.00 C 304.08 176.25 305.52 167.04 310.77 159.79 C 315.11 153.71 322.47 149.81 330.01 150.25 C 338.36 150.58 347.28 149.08 355.09 152.84 C 360.91 155.61 363.53 162.12 364.30 168.17 C 365.46 177.75 365.19 187.44 364.93 197.07 C 364.50 203.25 364.28 210.12 360.13 215.13 C 356.16 219.62 349.47 219.91 343.95 219.00 C 339.28 218.39 335.17 215.05 333.67 210.57 C 331.29 203.66 331.65 196.22 331.59 189.02 C 331.85 183.23 331.86 176.59 336.03 172.06 C 339.58 168.59 345.48 169.99 348.54 173.41 C 352.69 177.43 351.95 185.02 347.36 188.39 C 345.28 189.85 342.14 189.41 340.45 191.33 C 339.10 194.98 339.11 199.16 340.03 202.92 C 340.94 205.93 344.48 205.65 346.97 205.68 C 349.71 205.50 352.92 206.07 355.24 204.24 C 357.61 202.21 357.17 198.78 357.28 195.99 C 357.12 187.00 357.44 178.01 357.14 169.03 C 357.23 164.17 352.77 160.38 348.12 160.25 C 342.44 160.07 336.71 159.88 331.05 160.40 C 326.10 161.10 323.41 166.39 323.66 171.02 C 323.61 186.34 323.70 201.67 323.62 216.99 C 323.66 220.08 323.61 223.60 325.87 226.00 C 328.14 228.55 331.69 229.36 334.98 229.34 C 343.99 229.37 353.01 229.29 362.02 229.36 C 365.18 229.29 368.75 229.51 371.36 227.37 C 374.17 225.17 375.08 221.42 375.02 218.00 C 375.01 197.33 375.04 176.67 375.01 156.00 C 375.13 151.22 373.74 146.53 370.97 142.64 C 372.63 141.07 375.12 139.66 374.93 137.03 C 375.13 128.78 370.92 121.32 367.04 114.32 C 368.46 114.34 369.90 114.02 370.90 112.92 C 373.70 110.34 376.22 107.48 379.01 104.89 C 383.00 108.77 386.84 112.81 390.86 116.65 C 395.63 114.98 400.00 112.12 404.99 111.13 C 408.82 111.74 412.36 113.48 416.07 114.57 C 412.61 110.35 408.55 106.70 404.74 102.81 C 401.40 105.32 398.13 107.91 394.86 110.50 C 390.03 105.48 385.71 100.00 380.97 94.90 C 377.60 98.07 374.38 101.39 371.06 104.61 C 368.43 103.33 365.79 102.09 363.16 100.84 C 361.73 102.03 360.29 103.19 358.87 104.38 C 357.49 103.06 356.00 101.87 354.53 100.65 C 355.52 95.16 351.98 89.51 346.37 88.54 C 343.25 87.53 340.50 89.42 338.28 91.38 C 335.58 89.46 332.60 88.02 329.44 87.04 C 330.46 84.53 332.26 81.85 331.05 79.06 C 329.14 73.26 320.78 71.17 316.31 75.29 C 314.01 77.09 314.18 80.23 313.66 82.82 C 309.11 82.07 304.53 81.51 299.96 80.88 C 299.55 78.51 299.93 75.66 298.01 73.87 C 293.15 69.10 283.76 70.81 280.90 76.99 C 280.25 78.84 280.54 80.85 280.47 82.78 C 276.97 83.61 273.53 84.65 270.17 85.92 C 269.20 83.94 268.70 81.49 266.78 80.18 C 262.12 77.12 254.63 80.23 254.16 85.96 C 253.65 88.81 255.77 90.99 257.79 92.62 C 252.68 95.53 246.42 98.08 244.16 103.98 C 244.78 100.97 244.35 97.25 241.29 95.72 C 235.94 92.90 229.30 98.31 230.04 104.05 C 230.03 106.81 232.55 108.44 234.23 110.26 C 231.10 113.38 228.09 116.65 225.89 120.51 C 224.34 119.58 222.95 117.92 220.98 118.14 C 216.08 118.59 212.65 124.01 213.42 128.68 C 214.05 130.38 215.19 131.83 216.15 133.36 C 213.72 137.56 211.39 141.83 209.74 146.40 C 207.68 146.52 205.22 145.92 203.67 147.65 C 199.81 151.38 198.21 157.66 200.33 162.67 C 201.03 164.59 203.21 164.93 204.85 165.67 C 201.50 168.48 202.55 173.65 201.73 177.54 C 192.35 177.97 190.58 191.83 197.34 196.74 C 198.81 197.36 200.41 197.58 201.97 197.90 C 202.27 203.47 203.48 208.97 205.64 214.13 C 200.30 218.40 199.49 227.52 205.12 231.87 C 207.67 234.04 211.12 233.05 213.73 231.57 C 214.76 234.58 216.10 237.46 217.50 240.32 C 219.52 245.80 223.18 250.95 222.95 257.02 C 223.00 260.21 222.89 263.40 222.85 266.60 C 220.23 264.86 217.66 263.03 215.16 261.12 C 217.09 269.76 221.54 277.96 220.98 287.01 C 220.86 294.10 221.00 301.19 220.90 308.29 C 217.62 307.05 214.35 305.80 211.08 304.56 C 209.67 319.68 208.52 334.82 207.06 349.93 C 203.53 350.82 199.69 351.37 196.81 353.81 C 194.34 355.78 191.89 357.77 189.29 359.57 C 188.60 357.12 187.93 354.67 187.25 352.23 C 180.43 358.38 174.49 365.44 167.46 371.36 C 166.18 367.60 164.96 363.81 163.74 360.02 C 159.04 360.33 154.41 361.26 149.72 361.73 C 137.91 361.73 126.10 361.59 114.28 361.77 L 114.24 361.78 C 103.73 361.68 93.22 361.59 82.71 361.81 L 82.61 361.81 C 74.07 361.65 65.53 361.61 57.00 361.82 C 60.47 355.43 61.49 348.15 62.57 341.06 C 57.80 347.07 53.54 353.47 49.22 359.80 C 49.09 360.02 48.84 360.47 48.71 360.69 C 47.58 357.87 45.34 355.80 43.19 353.76 C 38.50 349.29 34.17 344.45 29.26 340.21 C 33.33 330.47 39.78 321.55 48.34 315.28 C 55.12 310.27 63.63 307.53 72.09 308.18 C 82.78 309.11 93.33 311.33 104.04 312.21 C 107.00 312.34 110.29 312.57 112.90 310.90 C 115.37 309.27 115.68 306.09 116.48 303.51 C 117.80 297.96 121.41 293.33 125.33 289.34 C 130.26 284.46 135.94 279.93 142.81 278.22 C 140.81 271.52 137.06 265.59 134.33 259.21 C 136.11 254.10 132.37 248.93 128.05 246.47 C 126.39 243.46 124.97 240.32 123.72 237.12 C 123.88 235.13 124.02 233.13 123.91 231.13 C 123.88 230.72 123.84 229.89 123.81 229.47 C 126.62 229.93 129.47 230.05 132.32 229.96 C 132.54 225.89 130.12 222.51 126.54 220.83 C 125.21 222.80 123.85 224.75 122.48 226.70 C 121.26 222.90 119.34 219.23 115.91 216.99 C 114.58 213.38 113.49 209.68 112.82 205.89 C 113.76 203.09 114.03 200.12 113.79 197.18 C 113.77 196.59 113.71 195.41 113.69 194.82 C 115.29 195.75 116.67 197.67 118.66 197.61 C 123.50 196.65 123.11 187.83 117.94 187.85 C 115.27 188.25 114.55 191.32 113.25 193.27 C 112.93 189.22 111.86 185.31 110.60 181.47 C 110.70 174.44 111.86 167.44 113.69 160.67 C 115.42 159.43 117.20 158.08 118.11 156.09 C 120.63 151.09 122.83 145.59 122.16 139.89 C 125.83 132.99 130.79 126.83 136.34 121.35 C 141.02 119.04 145.72 116.54 149.28 112.61 C 151.01 114.83 152.45 118.66 155.97 117.82 C 158.45 117.49 162.45 115.62 161.57 112.61 C 158.76 110.80 155.33 110.54 152.19 109.68 C 151.98 109.45 151.56 109.00 151.35 108.77 C 157.76 105.08 164.36 101.71 170.57 97.68 C 172.92 97.51 175.55 97.12 177.04 95.06 C 180.80 90.80 181.19 84.95 182.30 79.65 C 185.39 72.74 184.90 64.94 187.79 57.98 C 188.13 57.63 188.81 56.91 189.15 56.56 C 189.55 58.84 189.19 62.21 192.05 62.96 C 195.29 64.39 198.45 60.14 196.57 57.32 C 195.16 55.92 193.26 55.17 191.56 54.19 C 193.94 51.77 195.18 48.56 195.59 45.23 C 199.75 39.41 204.94 34.29 210.81 30.18 C 217.40 28.83 222.96 24.89 227.71 20.30 C 236.08 16.43 245.06 13.69 254.19 12.41 C 258.74 13.06 263.54 13.76 267.95 12.04 C 269.39 11.81 269.82 10.44 270.29 9.27 M 260.33 14.51 C 257.54 16.78 257.91 22.07 261.37 23.56 C 264.58 24.52 266.81 20.72 266.26 17.93 C 266.00 15.10 263.00 12.85 260.33 14.51 M 275.25 14.28 C 271.55 15.74 271.36 21.48 275.00 23.11 C 278.70 25.35 283.64 20.92 281.76 16.99 C 280.94 14.29 277.70 13.41 275.25 14.28 M 308.38 16.53 C 306.38 17.29 305.28 19.72 306.52 21.61 C 309.47 24.58 315.40 24.49 317.62 20.68 C 318.16 15.98 311.64 14.94 308.38 16.53 M 246.40 19.77 C 242.83 23.71 238.74 27.14 235.40 31.28 C 239.73 30.61 243.80 28.84 248.10 28.05 C 251.28 28.97 253.56 31.69 256.18 33.59 C 261.38 31.40 266.44 28.87 271.33 26.04 C 266.34 26.23 261.42 27.11 256.46 27.58 C 253.11 24.97 249.96 22.10 246.40 19.77 M 229.17 24.18 C 226.38 25.34 226.20 29.83 228.99 31.08 C 231.04 32.43 234.09 31.03 234.57 28.66 C 235.56 25.73 231.86 22.56 229.17 24.18 M 284.24 24.34 C 280.87 25.31 278.99 29.71 281.22 32.61 C 284.27 37.44 293.28 36.03 293.91 30.10 C 294.37 25.20 288.28 22.44 284.24 24.34 M 301.25 24.31 C 298.71 25.13 297.28 28.17 298.46 30.61 C 300.75 34.83 308.25 34.49 309.65 29.72 C 310.68 25.27 304.82 22.45 301.25 24.31 M 318.35 26.32 C 315.08 27.92 314.96 33.21 318.27 34.84 C 321.60 37.21 326.53 33.54 325.48 29.69 C 324.91 26.58 321.11 24.69 318.35 26.32 M 213.25 32.20 C 209.77 34.35 210.57 41.06 214.96 41.50 C 217.58 41.27 219.26 38.45 218.86 35.97 C 218.86 33.31 215.81 30.46 213.25 32.20 M 330.32 32.30 C 326.19 34.88 326.98 42.50 332.04 43.42 C 335.81 43.79 338.22 39.35 337.25 36.05 C 336.82 32.98 333.19 30.45 330.32 32.30 M 235.30 34.42 C 231.31 36.99 232.23 44.37 237.05 45.41 C 241.36 45.82 243.78 40.48 242.12 36.97 C 241.19 34.32 237.75 32.56 235.30 34.42 M 355.28 36.26 C 351.77 38.71 353.24 46.27 358.09 45.24 C 363.58 43.86 360.92 32.97 355.28 36.26 M 220.20 42.24 C 216.23 43.95 215.97 50.21 219.68 52.35 C 223.13 54.90 228.55 52.18 228.74 47.95 C 229.29 43.58 224.06 39.93 220.20 42.24 M 345.33 42.26 C 342.24 44.61 342.95 50.59 347.03 51.36 C 350.64 51.54 352.19 46.78 350.76 43.98 C 350.05 41.84 347.14 40.78 345.33 42.26 M 202.22 44.28 C 198.29 46.33 198.30 52.65 202.32 54.59 C 206.14 56.90 211.52 53.40 210.95 48.98 C 210.91 44.81 205.72 42.14 202.22 44.28 M 357.40 51.45 C 355.14 51.73 352.54 53.91 353.55 56.38 C 355.04 60.45 361.88 60.06 363.12 55.97 C 363.57 52.79 360.10 51.07 357.40 51.45 M 370.48 55.43 C 367.31 56.33 366.34 60.41 367.85 63.09 C 368.81 65.36 372.37 65.86 373.78 63.75 C 376.29 61.05 374.67 54.89 370.48 55.43 M 202.31 61.42 C 197.93 62.72 198.27 70.71 203.03 71.07 C 208.75 71.01 208.07 60.37 202.31 61.42 M 372.38 69.46 C 369.13 70.57 368.04 75.11 370.48 77.53 C 373.01 80.34 378.41 78.85 378.83 74.99 C 379.62 71.46 375.75 68.20 372.38 69.46 M 191.32 71.38 C 186.05 73.38 186.03 82.42 191.03 84.77 C 194.90 85.81 197.40 81.34 197.18 78.02 C 197.20 74.92 195.09 70.41 191.32 71.38 M 380.34 79.43 C 375.67 81.37 375.98 89.50 381.01 90.75 C 384.38 91.61 386.98 88.03 386.79 84.97 C 387.05 81.64 383.81 78.01 380.34 79.43 M 195.34 89.35 C 194.34 89.86 193.24 90.76 193.29 92.00 C 193.74 95.71 200.68 95.84 200.95 92.11 C 201.23 89.25 197.42 88.57 195.34 89.35 M 183.36 95.51 C 180.50 97.82 180.83 103.07 184.33 104.61 C 187.98 105.64 190.17 100.94 188.97 98.01 C 188.38 95.61 185.57 94.12 183.36 95.51 M 170.28 107.34 C 167.24 108.79 166.65 113.50 169.42 115.53 C 171.94 117.74 176.50 116.38 177.20 113.04 C 178.61 109.14 173.86 105.29 170.28 107.34 M 440.25 109.30 C 437.79 110.60 437.62 114.43 439.98 115.91 C 442.22 117.66 445.90 115.87 446.08 113.08 C 446.37 110.14 442.84 107.64 440.25 109.30 M 452.18 117.30 C 448.81 119.50 449.68 126.02 453.99 126.54 C 456.64 126.30 458.30 123.43 457.90 120.95 C 457.98 118.21 454.68 115.43 452.18 117.30 M 400.29 118.47 C 396.06 118.43 392.24 122.76 393.93 126.94 C 395.64 132.88 404.91 134.75 408.23 129.22 C 411.00 124.06 405.66 118.05 400.29 118.47 M 144.29 119.35 C 140.91 121.17 141.36 126.94 145.07 128.11 C 148.55 129.70 152.68 125.99 151.57 122.36 C 150.97 119.22 146.93 117.62 144.29 119.35 M 440.18 123.23 C 437.61 124.54 437.70 128.54 440.24 129.83 C 442.79 131.64 446.78 128.99 445.97 125.91 C 445.89 123.21 442.28 121.66 440.18 123.23 M 169.54 124.83 C 167.53 129.15 165.40 133.44 163.90 137.97 C 164.00 145.76 168.73 153.24 166.85 161.12 C 165.82 168.44 164.55 175.73 163.79 183.08 C 164.23 190.09 166.64 196.82 167.36 203.82 C 165.56 205.12 162.97 205.89 161.95 207.95 C 165.26 215.80 169.80 223.12 173.10 230.98 C 172.75 236.48 170.51 241.70 169.54 247.13 C 173.75 253.53 177.44 260.31 182.12 266.39 C 181.28 261.73 178.78 257.61 177.76 253.02 C 179.61 244.90 182.69 237.09 184.86 229.04 C 185.72 226.83 184.11 224.85 183.27 222.93 C 180.83 217.93 178.02 213.10 175.91 207.97 C 176.06 204.12 179.02 200.95 179.26 197.11 C 178.50 189.34 176.35 181.74 175.78 173.95 C 177.92 168.89 180.94 164.25 183.41 159.35 C 186.15 154.80 187.86 149.50 191.81 145.80 C 194.17 143.55 196.52 141.29 198.57 138.74 C 194.13 139.79 189.61 140.74 185.39 142.50 C 182.46 144.73 180.19 147.69 177.36 150.03 C 175.48 146.55 172.94 143.39 171.57 139.65 C 170.65 134.75 170.44 129.74 169.54 124.83 M 461.40 129.47 C 459.37 131.13 459.72 134.69 462.11 135.85 C 464.58 137.51 468.21 134.89 467.79 132.05 C 467.59 129.13 463.59 127.37 461.40 129.47 M 132.24 131.19 C 128.91 134.04 129.30 141.25 134.03 142.38 C 137.97 141.44 138.66 136.19 137.17 133.01 C 136.48 131.13 133.92 129.57 132.24 131.19 M 430.40 131.50 C 425.43 132.77 423.58 139.41 426.81 143.26 C 430.15 148.29 439.11 148.85 441.84 142.96 C 444.94 136.34 436.87 129.21 430.40 131.50 M 474.32 134.45 C 470.42 134.76 468.46 140.04 471.28 142.75 C 473.69 145.57 478.77 144.14 479.56 140.59 C 480.48 137.45 477.54 134.04 474.32 134.45 M 128.58 150.58 C 126.09 153.32 127.32 157.39 128.98 160.22 C 134.29 160.02 137.34 154.86 138.09 150.14 C 135.06 149.41 131.05 147.83 128.58 150.58 M 479.36 150.47 C 475.26 152.15 474.63 158.35 477.98 161.06 C 480.06 162.72 483.41 162.07 484.63 159.67 C 487.33 156.02 484.37 149.02 479.36 150.47 M 120.32 158.30 C 117.54 159.80 117.59 164.15 120.15 165.84 C 125.18 167.18 125.27 157.34 120.32 158.30 M 490.32 162.41 C 486.68 164.76 486.74 171.24 490.33 173.63 C 493.68 174.87 495.62 170.76 495.54 168.02 C 495.63 165.27 493.64 161.17 490.32 162.41 M 120.36 172.51 C 117.26 174.60 117.50 180.43 121.25 181.69 C 124.05 182.47 126.27 179.54 125.97 176.95 C 126.44 174.00 123.25 170.78 120.36 172.51 M 488.18 180.27 C 485.71 181.02 484.86 184.56 486.71 186.37 C 488.45 188.78 492.48 187.78 493.26 185.02 C 494.59 182.12 491.02 178.89 488.18 180.27 M 499.27 190.30 C 497.08 192.30 497.10 196.04 498.63 198.44 C 499.29 199.13 500.36 200.20 501.33 199.30 C 503.75 197.54 503.86 193.87 502.57 191.39 C 502.17 190.16 500.23 189.17 499.27 190.30 M 123.13 200.20 C 118.96 202.48 119.23 209.90 123.98 211.33 C 128.04 212.37 130.83 207.53 129.80 204.02 C 129.40 201.01 125.98 198.65 123.13 200.20 M 498.28 208.36 C 495.74 209.51 494.60 213.20 496.70 215.31 C 499.71 219.21 507.57 217.41 507.35 212.04 C 506.68 208.08 501.53 206.55 498.28 208.36 M 134.19 214.11 C 130.75 216.29 131.57 222.96 135.97 223.39 C 138.59 223.13 140.22 220.37 139.82 217.90 C 139.88 215.21 136.76 212.27 134.19 214.11 M 508.43 223.48 C 506.30 224.18 504.52 226.87 505.86 229.00 C 507.07 231.89 511.75 231.93 512.90 228.95 C 514.39 226.17 511.35 222.73 508.43 223.48 M 142.37 227.38 C 139.32 228.59 139.22 233.55 142.01 235.12 C 146.83 236.06 147.10 226.98 142.37 227.38 M 135.30 235.37 C 130.71 236.44 131.04 244.92 135.99 244.97 C 141.45 244.86 140.97 234.51 135.30 235.37 M 508.32 241.38 C 505.68 241.97 504.43 245.62 506.38 247.59 C 507.99 249.81 511.72 249.25 512.83 246.81 C 514.52 244.04 511.32 240.32 508.32 241.38 M 142.13 249.17 C 139.63 251.47 136.05 256.54 139.78 259.25 C 142.66 260.27 146.59 260.20 148.84 257.89 C 149.61 254.06 146.40 248.45 142.13 249.17 M 516.20 257.25 C 511.63 258.74 512.84 267.41 517.91 266.73 C 523.07 265.62 521.72 255.78 516.20 257.25 M 407.49 282.33 C 412.33 282.49 417.17 280.50 421.95 281.77 C 421.94 277.64 422.62 273.53 422.37 269.39 C 417.04 273.24 412.13 277.68 407.49 282.33 M 510.13 273.30 C 508.23 273.87 506.63 276.32 507.74 278.17 C 509.69 281.84 516.47 281.42 517.19 277.04 C 517.32 273.55 512.89 271.99 510.13 273.30 M 513.29 297.26 C 510.16 299.63 510.93 305.66 515.04 306.42 C 518.81 306.36 520.18 301.39 518.45 298.58 C 517.59 296.70 514.93 295.90 513.29 297.26 M 164.24 306.39 C 162.81 313.08 159.54 319.44 154.25 323.89 C 168.28 323.82 181.06 315.68 189.94 305.28 C 181.34 304.69 172.83 306.44 164.24 306.39 M 129.87 314.36 C 132.04 320.48 139.46 323.98 145.48 321.43 C 150.52 318.56 151.21 312.15 151.96 306.96 C 145.51 311.62 137.57 313.16 129.87 314.36 M 522.39 314.41 C 518.67 315.78 518.23 321.39 521.35 323.60 C 523.26 324.59 525.87 323.77 526.59 321.66 C 528.11 318.71 526.19 313.74 522.39 314.41 M 101.18 329.66 C 107.18 330.09 113.07 328.55 119.06 328.64 C 121.78 328.69 124.48 328.31 127.10 327.57 C 124.58 324.24 121.95 320.93 120.40 317.01 C 113.44 320.25 107.73 325.67 101.18 329.66 M 134.27 330.42 C 137.42 335.27 140.35 340.26 143.52 345.10 C 146.11 339.43 147.74 333.27 148.87 327.15 C 144.21 329.03 139.29 330.15 134.27 330.42 M 503.69 344.06 C 504.06 345.68 504.67 348.15 506.84 347.84 C 510.53 344.94 509.81 338.90 506.88 335.67 C 503.56 336.90 503.11 341.02 503.69 344.06 M 513.48 342.03 C 513.54 347.34 514.91 352.56 515.06 357.88 C 508.52 360.45 502.00 363.05 495.50 365.69 C 494.93 371.11 494.55 376.56 493.96 381.98 C 493.72 384.58 493.32 387.30 494.36 389.80 C 496.01 394.05 497.28 398.48 499.57 402.45 C 501.04 392.22 502.12 381.94 503.52 371.70 C 510.04 368.40 516.58 365.12 523.15 361.91 C 521.38 353.38 519.53 344.86 517.21 336.47 C 515.83 338.22 514.24 339.89 513.48 342.03 M 459.18 366.28 C 453.52 368.07 452.36 376.40 457.13 379.81 C 461.73 383.82 469.76 380.10 469.76 374.05 C 470.40 368.63 464.16 364.13 459.18 366.28 M 511.31 378.43 C 508.38 381.36 508.64 387.89 512.92 389.47 C 516.82 389.12 517.95 384.15 516.85 381.01 C 516.37 378.65 513.41 376.39 511.31 378.43 M 441.36 394.43 C 434.59 396.18 431.55 407.15 438.04 411.02 C 443.49 413.47 448.75 407.19 448.71 402.05 C 449.24 397.96 445.76 393.34 441.36 394.43 M 485.91 407.22 C 487.92 404.28 488.69 398.95 484.75 397.25 C 480.35 398.64 480.63 407.47 485.91 407.22 M 505.35 397.48 C 501.91 398.09 500.18 402.79 502.65 405.39 C 504.79 408.34 509.90 407.40 510.98 403.95 C 512.45 400.57 508.93 396.46 505.35 397.48 M 416.37 415.49 C 412.36 416.68 408.00 420.35 409.14 425.00 C 410.68 429.20 416.23 429.88 420.01 428.77 C 424.25 427.67 429.06 423.91 427.81 418.99 C 426.08 414.60 420.28 414.21 416.37 415.49 M 484.38 417.37 C 482.09 418.26 480.77 421.41 482.59 423.38 C 484.01 425.59 487.90 425.46 488.99 422.99 C 491.05 420.14 487.56 416.04 484.38 417.37 M 353.27 421.33 C 348.69 424.28 343.99 427.32 339.99 431.02 C 342.97 433.82 346.57 435.82 349.77 438.34 C 351.14 439.20 352.39 440.54 354.07 440.71 C 359.05 440.51 363.56 436.15 363.11 431.00 C 363.64 425.63 358.59 420.67 353.27 421.33 M 484.09 437.11 C 483.24 437.74 482.42 438.67 481.30 438.71 C 477.89 437.38 475.04 434.99 471.96 433.06 C 473.71 438.35 475.67 443.57 477.78 448.72 C 481.89 446.49 485.99 444.21 490.02 441.83 C 492.12 440.82 492.59 438.35 493.46 436.41 C 495.26 431.52 497.46 426.78 499.06 421.82 C 493.85 426.70 489.41 432.35 484.09 437.11 M 380.26 423.42 C 377.19 424.14 374.04 427.25 375.38 430.62 C 378.12 436.53 388.67 436.30 390.68 429.94 C 391.51 424.50 384.57 422.06 380.26 423.42 M 312.02 438.80 C 317.05 441.44 322.07 444.13 327.32 446.32 C 326.35 439.87 324.94 433.50 323.60 427.13 C 319.70 430.98 315.77 434.81 312.02 438.80 M 284.80 440.56 C 289.99 443.99 296.04 445.78 301.59 448.53 C 301.52 443.32 300.55 438.19 299.87 433.05 C 294.82 435.50 289.84 438.09 284.80 440.56 M 262.85 438.97 C 267.12 442.27 271.48 445.49 276.08 448.34 C 277.05 443.96 277.60 439.50 278.00 435.03 C 272.94 436.30 267.83 437.41 262.85 438.97 M 458.26 435.40 C 454.51 436.40 452.63 441.60 455.56 444.44 C 459.06 448.61 467.50 446.77 467.79 440.98 C 467.98 436.22 462.20 433.91 458.26 435.40 M 398.71 451.23 C 397.90 456.36 397.16 461.52 396.92 466.72 C 401.38 467.32 405.93 467.56 410.30 468.67 C 415.18 470.70 419.43 473.98 424.23 476.19 C 422.50 471.14 420.82 466.04 418.62 461.18 C 415.56 460.38 412.02 462.20 408.80 462.50 C 405.23 458.92 402.62 454.47 398.71 451.23 M 426.40 455.35 C 422.93 457.72 424.21 464.49 428.68 464.54 C 434.69 463.67 432.40 452.02 426.40 455.35 M 452.33 457.50 C 450.78 458.23 449.81 459.93 450.29 461.64 C 452.64 465.49 459.20 465.54 461.65 461.77 C 462.84 456.84 455.60 455.63 452.33 457.50 M 317.33 465.38 C 314.09 466.70 312.63 471.19 315.13 473.88 C 318.48 478.27 327.12 476.59 327.55 470.74 C 327.69 465.77 321.32 463.15 317.33 465.38 M 358.24 467.14 C 353.67 469.47 354.65 477.73 359.96 478.34 C 363.30 478.57 365.32 474.96 364.98 472.00 C 365.18 468.66 361.46 465.20 358.24 467.14 M 338.17 469.14 C 335.09 470.64 334.63 475.48 337.58 477.37 C 340.42 479.76 345.05 477.47 345.34 473.92 C 345.77 470.30 341.38 467.16 338.17 469.14 M 379.39 469.35 C 377.44 470.08 376.37 472.46 377.65 474.26 C 380.42 477.27 386.30 477.17 388.58 473.61 C 389.67 468.80 382.64 467.44 379.39 469.35 M 333.20 478.42 C 330.37 478.64 328.48 482.35 330.40 484.62 C 331.84 487.22 336.05 486.53 337.07 483.92 C 338.46 481.37 335.93 478.20 333.20 478.42 Z" />
<path fill="#6c834d" opacity="1.00" d=" M 276.56 118.63 C 279.44 117.73 282.40 118.44 284.73 120.30 C 286.49 121.51 288.19 122.80 289.86 124.12 C 296.18 129.56 302.59 135.34 310.72 137.89 C 309.79 143.05 309.92 148.58 307.15 153.22 C 303.53 159.61 298.59 165.64 291.94 169.00 C 289.18 170.49 285.26 170.39 283.39 167.56 C 279.72 162.11 280.76 155.23 279.91 149.06 C 279.78 147.24 277.30 147.28 276.19 148.14 C 271.91 150.83 270.57 156.31 270.33 161.05 C 269.94 166.95 272.36 173.20 277.44 176.50 C 281.07 179.17 285.65 179.56 289.94 180.28 C 292.58 180.64 293.98 183.48 293.95 185.92 C 294.17 193.18 293.95 200.45 294.00 207.71 C 289.39 210.95 284.65 214.02 280.38 217.71 C 284.83 220.45 289.36 223.06 294.03 225.41 C 294.03 226.57 294.03 227.73 294.04 228.89 C 289.69 228.45 285.37 227.34 280.98 227.54 C 280.61 228.02 279.86 228.98 279.48 229.46 C 276.65 225.52 274.42 220.98 274.35 216.04 C 273.98 210.74 274.63 204.48 270.57 200.38 C 266.89 196.49 260.35 199.23 256.89 195.05 C 252.08 189.45 250.46 181.83 249.63 174.68 C 249.75 173.22 249.94 171.78 250.16 170.34 C 250.44 168.80 250.77 167.26 251.19 165.74 C 252.06 162.91 253.08 160.13 253.99 157.31 C 254.60 155.44 255.19 153.55 255.86 151.70 C 257.10 148.48 258.53 145.34 259.98 142.20 C 260.83 140.39 261.66 138.58 262.55 136.79 C 263.60 134.70 264.69 132.63 265.90 130.62 C 267.50 128.10 269.16 125.61 270.97 123.22 C 272.70 121.54 274.59 120.03 276.56 118.63 Z" />
<path fill="#6c834d" opacity="1.00" d=" M 261.10 285.30 C 264.65 287.04 268.19 288.79 271.76 290.50 C 270.02 292.38 268.20 294.18 266.30 295.90 C 264.39 292.46 262.62 288.93 261.10 285.30 Z" />
<path fill="#6c834d" opacity="1.00" d=" M 243.09 305.16 C 246.82 307.28 250.37 309.71 253.86 312.22 C 252.17 314.18 250.38 316.05 248.49 317.81 C 246.97 313.48 244.85 309.39 243.09 305.16 Z" />
<path fill="#6c834d" opacity="1.00" d=" M 264.50 335.74 C 262.63 331.61 260.73 327.49 259.25 323.19 C 262.92 325.35 266.48 327.71 269.86 330.30 C 268.15 332.18 266.35 333.99 264.50 335.74 Z" />
<path fill="#6c834d" opacity="1.00" d=" M 272.48 338.18 C 276.30 339.43 280.12 340.69 283.88 342.13 C 281.51 344.80 279.00 347.35 276.39 349.80 C 275.01 345.95 273.77 342.06 272.48 338.18 Z" />
<path fill="#6c834d" opacity="1.00" d=" M 237.19 343.07 C 240.21 345.76 243.04 348.65 245.90 351.52 C 243.72 353.18 241.27 354.40 238.58 354.92 C 238.17 350.96 237.59 347.03 237.19 343.07 Z" />
<path fill="#6c834d" opacity="1.00" d=" M 218.53 345.56 C 222.83 354.85 224.79 365.03 229.13 374.32 C 232.36 386.19 237.01 397.62 240.64 409.37 C 232.37 417.55 224.60 426.40 215.04 433.13 C 212.13 435.39 206.98 434.39 205.60 438.46 C 204.44 444.24 205.57 450.21 204.95 456.05 C 204.42 465.03 200.15 473.48 193.79 479.75 C 193.34 475.40 193.01 470.51 189.96 467.10 C 187.04 464.46 182.66 465.90 179.59 467.52 C 174.92 470.20 170.25 474.40 169.56 480.03 C 170.97 484.44 174.73 487.57 178.15 490.48 C 172.79 493.06 167.22 495.17 161.50 496.81 C 162.36 493.59 164.54 490.03 163.32 486.70 C 159.31 481.87 150.96 480.76 146.22 485.20 C 141.77 489.25 140.43 495.73 141.70 501.46 C 135.65 502.44 129.59 503.32 123.49 503.91 C 125.23 499.41 127.94 493.24 123.84 489.22 C 118.30 483.79 108.55 486.77 105.09 493.10 C 103.59 497.06 104.82 501.39 105.81 505.34 C 96.71 505.84 87.59 506.13 78.47 506.16 C 80.84 501.90 83.19 497.08 82.41 492.08 C 80.76 482.56 64.46 481.31 61.48 490.55 C 59.99 495.85 61.89 501.36 63.99 506.21 C 53.53 505.65 42.58 507.55 32.62 503.47 C 34.09 501.00 35.74 498.20 34.71 495.23 C 33.38 490.66 30.55 485.86 25.94 484.06 C 22.48 483.78 19.74 486.66 17.14 488.59 C 16.32 487.03 15.49 485.47 14.68 483.92 C 18.23 481.85 21.54 478.38 21.34 473.97 C 20.81 466.74 14.36 461.21 7.54 459.86 C 6.44 453.12 5.86 446.31 5.55 439.49 C 9.68 445.17 15.65 450.33 22.99 450.67 C 31.34 450.77 38.28 443.34 39.36 435.34 C 42.65 435.16 45.94 435.00 49.23 434.90 C 48.59 439.51 51.43 443.47 54.05 446.95 C 57.32 450.85 60.97 455.05 66.02 456.56 C 71.03 456.58 74.86 452.54 78.29 449.35 C 82.31 444.90 87.13 439.65 86.31 433.17 C 91.19 432.91 96.07 432.69 100.96 432.50 C 99.46 436.01 102.49 438.95 104.67 441.30 C 108.61 445.06 112.75 449.04 118.04 450.74 C 122.67 449.39 125.74 445.21 128.85 441.77 C 131.32 438.74 133.93 435.42 133.91 431.30 C 135.36 432.51 136.82 433.72 138.25 434.97 C 144.68 435.04 151.40 432.66 155.29 427.31 C 160.10 421.40 159.10 412.86 163.93 406.98 C 165.81 404.50 168.97 403.72 171.75 402.70 C 176.41 395.13 180.68 387.32 185.26 379.70 C 187.98 382.13 190.62 384.66 193.16 387.29 C 197.38 380.95 201.00 374.24 205.06 367.79 C 207.05 368.34 209.05 368.87 211.04 369.43 C 213.61 361.49 215.91 353.47 218.53 345.56 M 195.45 401.46 C 198.06 404.60 200.46 407.92 203.36 410.81 C 206.52 404.56 209.68 398.30 212.72 391.98 C 206.83 394.89 201.17 398.24 195.45 401.46 M 168.14 427.12 C 170.95 430.57 173.69 434.08 176.87 437.21 C 179.15 439.40 180.64 442.43 183.48 444.01 C 187.35 433.82 191.41 423.69 194.86 413.34 C 186.22 418.44 176.93 422.31 168.14 427.12 M 156.34 451.45 C 154.14 452.19 151.17 453.20 150.86 455.89 C 151.46 458.72 153.26 461.10 154.29 463.79 C 155.61 466.58 156.43 469.97 159.11 471.82 C 161.83 473.26 164.96 471.91 167.40 470.51 C 170.94 468.29 174.31 465.15 175.46 461.01 C 175.34 457.53 172.21 455.21 169.60 453.39 C 165.76 450.73 160.78 450.09 156.34 451.45 M 35.35 455.36 C 31.40 459.02 31.27 465.07 31.36 470.09 C 31.78 476.22 34.23 482.71 39.36 486.42 C 43.04 489.13 48.40 488.71 51.79 485.72 C 56.77 481.43 59.60 474.53 58.67 467.99 C 58.28 465.65 55.38 465.46 53.66 464.48 C 49.22 462.96 46.13 459.33 42.58 456.50 C 40.61 454.94 37.61 453.63 35.35 455.36 M 124.20 459.29 C 121.58 459.84 119.75 462.40 120.24 465.07 C 120.93 471.54 123.70 478.02 128.32 482.66 C 131.55 485.76 136.43 483.74 139.66 481.69 C 143.25 479.28 146.93 475.00 145.47 470.38 C 143.84 466.11 140.35 462.80 136.58 460.37 C 132.95 457.91 128.25 458.43 124.20 459.29 M 82.29 466.47 C 78.94 469.45 81.10 474.33 82.04 477.96 C 84.17 483.61 86.90 490.49 93.02 492.71 C 97.49 490.67 102.25 487.05 103.28 481.98 C 103.21 476.25 98.60 471.75 94.09 468.82 C 90.64 466.81 86.25 464.67 82.29 466.47 Z" />
<path fill="#6c834d" opacity="1.00" d=" M 245.18 360.19 C 248.65 363.41 252.56 366.14 255.84 369.58 C 252.89 371.01 249.80 372.12 246.62 372.90 C 246.16 368.66 245.47 364.45 245.18 360.19 Z" />
<path fill="#6c834d" opacity="1.00" d=" M 255.27 376.18 C 258.12 377.24 260.95 378.32 263.79 379.41 C 261.44 381.94 259.09 384.46 256.68 386.94 C 255.82 383.41 255.35 379.81 255.27 376.18 Z" />
</g>
<g id="#a1a76dff">
<path fill="#a1a76d" opacity="1.00" d=" M 295.03 11.82 C 299.78 12.18 304.56 12.27 309.33 12.41 L 308.66 12.47 C 306.60 12.60 304.54 12.76 302.49 12.92 C 302.98 14.90 304.53 17.16 303.18 19.12 C 300.68 22.97 293.71 22.46 292.26 17.97 C 291.50 15.48 293.77 13.66 295.03 11.82 Z" />
<path fill="#a1a76d" opacity="1.00" d=" M 260.33 14.51 C 263.00 12.85 266.00 15.10 266.26 17.93 C 266.81 20.72 264.58 24.52 261.37 23.56 C 257.91 22.07 257.54 16.78 260.33 14.51 Z" />
<path fill="#a1a76d" opacity="1.00" d=" M 275.25 14.28 C 277.70 13.41 280.94 14.29 281.76 16.99 C 283.64 20.92 278.70 25.35 275.00 23.11 C 271.36 21.48 271.55 15.74 275.25 14.28 Z" />
<path fill="#a1a76d" opacity="1.00" d=" M 308.38 16.53 C 311.64 14.94 318.16 15.98 317.62 20.68 C 315.40 24.49 309.47 24.58 306.52 21.61 C 305.28 19.72 306.38 17.29 308.38 16.53 Z" />
<path fill="#a1a76d" opacity="1.00" d=" M 328.02 22.10 C 328.80 19.96 331.50 20.03 333.30 19.31 L 334.21 19.66 C 334.66 21.21 335.31 22.73 335.41 24.36 C 335.00 25.99 333.64 27.55 331.88 27.65 C 329.12 27.95 326.66 24.62 328.02 22.10 Z" />
<path fill="#a1a76d" opacity="1.00" d=" M 229.17 24.18 C 231.86 22.56 235.56 25.73 234.57 28.66 C 234.09 31.03 231.04 32.43 228.99 31.08 C 226.20 29.83 226.38 25.34 229.17 24.18 Z" />
<path fill="#a1a76d" opacity="1.00" d=" M 284.24 24.34 C 288.28 22.44 294.37 25.20 293.91 30.10 C 293.28 36.03 284.27 37.44 281.22 32.61 C 278.99 29.71 280.87 25.31 284.24 24.34 Z" />
<path fill="#a1a76d" opacity="1.00" d=" M 301.25 24.31 C 304.82 22.45 310.68 25.27 309.65 29.72 C 308.25 34.49 300.75 34.83 298.46 30.61 C 297.28 28.17 298.71 25.13 301.25 24.31 Z" />
<path fill="#a1a76d" opacity="1.00" d=" M 318.35 26.32 C 321.11 24.69 324.91 26.58 325.48 29.69 C 326.53 33.54 321.60 37.21 318.27 34.84 C 314.96 33.21 315.08 27.92 318.35 26.32 Z" />
<path fill="#a1a76d" opacity="1.00" d=" M 342.87 26.66 C 345.62 28.08 348.51 29.26 351.55 29.89 C 350.73 31.84 350.42 34.55 348.01 35.21 C 345.53 36.41 342.43 34.67 341.71 32.12 C 340.97 30.23 342.38 28.42 342.87 26.66 Z" />
<path fill="#a1a76d" opacity="1.00" d=" M 213.25 32.20 C 215.81 30.46 218.86 33.31 218.86 35.97 C 219.26 38.45 217.58 41.27 214.96 41.50 C 210.57 41.06 209.77 34.35 213.25 32.20 Z" />
<path fill="#a1a76d" opacity="1.00" d=" M 330.32 32.30 C 333.19 30.45 336.82 32.98 337.25 36.05 C 338.22 39.35 335.81 43.79 332.04 43.42 C 326.98 42.50 326.19 34.88 330.32 32.30 Z" />
<path fill="#a1a76d" opacity="1.00" d=" M 235.30 34.42 C 237.75 32.56 241.19 34.32 242.12 36.97 C 243.78 40.48 241.36 45.82 237.05 45.41 C 232.23 44.37 231.31 36.99 235.30 34.42 Z" />
<path fill="#a1a76d" opacity="1.00" d=" M 355.28 36.26 C 360.92 32.97 363.58 43.86 358.09 45.24 C 353.24 46.27 351.77 38.71 355.28 36.26 Z" />
<path fill="#a1a76d" opacity="1.00" d=" M 220.20 42.24 C 224.06 39.93 229.29 43.58 228.74 47.95 C 228.55 52.18 223.13 54.90 219.68 52.35 C 215.97 50.21 216.23 43.95 220.20 42.24 Z" />
<path fill="#a1a76d" opacity="1.00" d=" M 345.33 42.26 C 347.14 40.78 350.05 41.84 350.76 43.98 C 352.19 46.78 350.64 51.54 347.03 51.36 C 342.95 50.59 342.24 44.61 345.33 42.26 Z" />
<path fill="#a1a76d" opacity="1.00" d=" M 202.22 44.28 C 205.72 42.14 210.91 44.81 210.95 48.98 C 211.52 53.40 206.14 56.90 202.32 54.59 C 198.30 52.65 198.29 46.33 202.22 44.28 Z" />
<path fill="#a1a76d" opacity="1.00" d=" M 357.40 51.45 C 360.10 51.07 363.57 52.79 363.12 55.97 C 361.88 60.06 355.04 60.45 353.55 56.38 C 352.54 53.91 355.14 51.73 357.40 51.45 Z" />
<path fill="#a1a76d" opacity="1.00" d=" M 189.15 56.56 C 189.94 55.75 190.76 54.99 191.56 54.19 C 193.26 55.17 195.16 55.92 196.57 57.32 C 198.45 60.14 195.29 64.39 192.05 62.96 C 189.19 62.21 189.55 58.84 189.15 56.56 Z" />
<path fill="#a1a76d" opacity="1.00" d=" M 370.48 55.43 C 374.67 54.89 376.29 61.05 373.78 63.75 C 372.37 65.86 368.81 65.36 367.85 63.09 C 366.34 60.41 367.31 56.33 370.48 55.43 Z" />
<path fill="#a1a76d" opacity="1.00" d=" M 202.31 61.42 C 208.07 60.37 208.75 71.01 203.03 71.07 C 198.27 70.71 197.93 62.72 202.31 61.42 Z" />
<path fill="#a1a76d" opacity="1.00" d=" M 372.38 69.46 C 375.75 68.20 379.62 71.46 378.83 74.99 C 378.41 78.85 373.01 80.34 370.48 77.53 C 368.04 75.11 369.13 70.57 372.38 69.46 Z" />
<path fill="#a1a76d" opacity="1.00" d=" M 191.32 71.38 C 195.09 70.41 197.20 74.92 197.18 78.02 C 197.40 81.34 194.90 85.81 191.03 84.77 C 186.03 82.42 186.05 73.38 191.32 71.38 Z" />
<path fill="#a1a76d" opacity="1.00" d=" M 280.90 76.99 C 283.76 70.81 293.15 69.10 298.01 73.87 C 299.93 75.66 299.55 78.51 299.96 80.88 C 297.43 83.92 294.26 87.01 290.01 86.98 C 286.22 87.57 283.06 85.20 280.47 82.78 C 280.54 80.85 280.25 78.84 280.90 76.99 Z" />
<path fill="#a1a76d" opacity="1.00" d=" M 316.31 75.29 C 320.78 71.17 329.14 73.26 331.05 79.06 C 332.26 81.85 330.46 84.53 329.44 87.04 C 326.61 88.25 323.49 89.64 320.38 88.60 C 317.30 87.89 315.51 85.12 313.66 82.82 C 314.18 80.23 314.01 77.09 316.31 75.29 Z" />
<path fill="#a1a76d" opacity="1.00" d=" M 254.16 85.96 C 254.63 80.23 262.12 77.12 266.78 80.18 C 268.70 81.49 269.20 83.94 270.17 85.92 C 268.77 88.17 267.63 90.91 265.07 92.09 C 262.83 93.30 260.20 92.85 257.79 92.62 C 255.77 90.99 253.65 88.81 254.16 85.96 Z" />
<path fill="#a1a76d" opacity="1.00" d=" M 380.34 79.43 C 383.81 78.01 387.05 81.64 386.79 84.97 C 386.98 88.03 384.38 91.61 381.01 90.75 C 375.98 89.50 375.67 81.37 380.34 79.43 Z" />
<path fill="#a1a76d" opacity="1.00" d=" M 338.28 91.38 C 340.50 89.42 343.25 87.53 346.37 88.54 C 351.98 89.51 355.52 95.16 354.53 100.65 C 352.28 102.08 349.87 104.01 347.01 103.33 C 341.34 102.67 336.99 97.08 338.28 91.38 Z" />
<path fill="#a1a76d" opacity="1.00" d=" M 195.34 89.35 C 197.42 88.57 201.23 89.25 200.95 92.11 C 200.68 95.84 193.74 95.71 193.29 92.00 C 193.24 90.76 194.34 89.86 195.34 89.35 Z" />
<path fill="#a1a76d" opacity="1.00" d=" M 183.36 95.51 C 185.57 94.12 188.38 95.61 188.97 98.01 C 190.17 100.94 187.98 105.64 184.33 104.61 C 180.83 103.07 180.50 97.82 183.36 95.51 Z" />
<path fill="#a1a76d" opacity="1.00" d=" M 230.04 104.05 C 229.30 98.31 235.94 92.90 241.29 95.72 C 244.35 97.25 244.78 100.97 244.16 103.98 C 242.77 108.29 238.41 110.06 234.23 110.26 C 232.55 108.44 230.03 106.81 230.04 104.05 Z" />
<path fill="#a1a76d" opacity="1.00" d=" M 170.28 107.34 C 173.86 105.29 178.61 109.14 177.20 113.04 C 176.50 116.38 171.94 117.74 169.42 115.53 C 166.65 113.50 167.24 108.79 170.28 107.34 Z" />
<path fill="#a1a76d" opacity="1.00" d=" M 440.25 109.30 C 442.84 107.64 446.37 110.14 446.08 113.08 C 445.90 115.87 442.22 117.66 439.98 115.91 C 437.62 114.43 437.79 110.60 440.25 109.30 Z" />
<path fill="#a1a76d" opacity="1.00" d=" M 149.28 112.61 C 150.25 111.64 151.21 110.65 152.19 109.68 C 155.33 110.54 158.76 110.80 161.57 112.61 C 162.45 115.62 158.45 117.49 155.97 117.82 C 152.45 118.66 151.01 114.83 149.28 112.61 Z" />
<path fill="#a1a76d" opacity="1.00" d=" M 304.17 132.39 C 307.11 127.05 310.43 121.94 313.77 116.85 C 316.46 121.95 319.11 127.08 321.46 132.34 C 315.70 132.55 309.93 132.49 304.17 132.39 Z" />
<path fill="#a1a76d" opacity="1.00" d=" M 327.80 132.36 C 330.22 127.10 332.78 121.90 335.58 116.82 C 338.15 121.99 340.81 127.10 343.23 132.34 C 338.09 132.55 332.94 132.52 327.80 132.36 Z" />
<path fill="#a1a76d" opacity="1.00" d=" M 452.18 117.30 C 454.68 115.43 457.98 118.21 457.90 120.95 C 458.30 123.43 456.64 126.30 453.99 126.54 C 449.68 126.02 448.81 119.50 452.18 117.30 Z" />
<path fill="#a1a76d" opacity="1.00" d=" M 213.42 128.68 C 212.65 124.01 216.08 118.59 220.98 118.14 C 222.95 117.92 224.34 119.58 225.89 120.51 C 226.15 123.74 226.26 127.37 223.86 129.90 C 222.11 132.41 218.90 132.77 216.15 133.36 C 215.19 131.83 214.05 130.38 213.42 128.68 Z" />
<path fill="#a1a76d" opacity="1.00" d=" M 400.29 118.47 C 405.66 118.05 411.00 124.06 408.23 129.22 C 404.91 134.75 395.64 132.88 393.93 126.94 C 392.24 122.76 396.06 118.43 400.29 118.47 Z" />
<path fill="#a1a76d" opacity="1.00" d=" M 144.29 119.35 C 146.93 117.62 150.97 119.22 151.57 122.36 C 152.68 125.99 148.55 129.70 145.07 128.11 C 141.36 126.94 140.91 121.17 144.29 119.35 Z" />
<path fill="#a1a76d" opacity="1.00" d=" M 357.20 118.82 C 359.94 123.23 362.66 127.68 364.80 132.42 C 359.74 132.50 354.67 132.53 349.61 132.35 C 351.89 127.70 354.58 123.28 357.20 118.82 Z" />
<path fill="#a1a76d" opacity="1.00" d=" M 440.18 123.23 C 442.28 121.66 445.89 123.21 445.97 125.91 C 446.78 128.99 442.79 131.64 440.24 129.83 C 437.70 128.54 437.61 124.54 440.18 123.23 Z" />
<path fill="#a1a76d" opacity="1.00" d=" M 461.40 129.47 C 463.59 127.37 467.59 129.13 467.79 132.05 C 468.21 134.89 464.58 137.51 462.11 135.85 C 459.72 134.69 459.37 131.13 461.40 129.47 Z" />
<path fill="#a1a76d" opacity="1.00" d=" M 132.24 131.19 C 133.92 129.57 136.48 131.13 137.17 133.01 C 138.66 136.19 137.97 141.44 134.03 142.38 C 129.30 141.25 128.91 134.04 132.24 131.19 Z" />
<path fill="#a1a76d" opacity="1.00" d=" M 430.40 131.50 C 436.87 129.21 444.94 136.34 441.84 142.96 C 439.11 148.85 430.15 148.29 426.81 143.26 C 423.58 139.41 425.43 132.77 430.40 131.50 Z" />
<path fill="#a1a76d" opacity="1.00" d=" M 474.32 134.45 C 477.54 134.04 480.48 137.45 479.56 140.59 C 478.77 144.14 473.69 145.57 471.28 142.75 C 468.46 140.04 470.42 134.76 474.32 134.45 Z" />
<path fill="#a1a76d" opacity="1.00" d=" M 203.67 147.65 C 205.22 145.92 207.68 146.52 209.74 146.40 C 213.73 152.79 211.70 162.15 204.85 165.67 C 203.21 164.93 201.03 164.59 200.33 162.67 C 198.21 157.66 199.81 151.38 203.67 147.65 Z" />
<path fill="#a1a76d" opacity="1.00" d=" M 128.58 150.58 C 131.05 147.83 135.06 149.41 138.09 150.14 C 137.34 154.86 134.29 160.02 128.98 160.22 C 127.32 157.39 126.09 153.32 128.58 150.58 Z" />
<path fill="#a1a76d" opacity="1.00" d=" M 479.36 150.47 C 484.37 149.02 487.33 156.02 484.63 159.67 C 483.41 162.07 480.06 162.72 477.98 161.06 C 474.63 158.35 475.26 152.15 479.36 150.47 Z" />
<path fill="#a1a76d" opacity="1.00" d=" M 452.09 155.17 C 458.19 152.11 465.08 158.82 464.00 165.06 C 463.88 168.26 461.05 170.12 458.87 172.00 C 456.31 171.58 453.38 171.57 451.37 169.69 C 449.73 168.10 448.74 166.00 447.59 164.07 C 448.16 160.80 448.54 156.63 452.09 155.17 Z" />
<path fill="#a1a76d" opacity="1.00" d=" M 120.32 158.30 C 125.27 157.34 125.18 167.18 120.15 165.84 C 117.59 164.15 117.54 159.80 120.32 158.30 Z" />
<path fill="#a1a76d" opacity="1.00" d=" M 490.32 162.41 C 493.64 161.17 495.63 165.27 495.54 168.02 C 495.62 170.76 493.68 174.87 490.33 173.63 C 486.74 171.24 486.68 164.76 490.32 162.41 Z" />
<path fill="#a1a76d" opacity="1.00" d=" M 120.36 172.51 C 123.25 170.78 126.44 174.00 125.97 176.95 C 126.27 179.54 124.05 182.47 121.25 181.69 C 117.50 180.43 117.26 174.60 120.36 172.51 Z" />
<path fill="#a1a76d" opacity="1.00" d=" M 197.34 196.74 C 190.58 191.83 192.35 177.97 201.73 177.54 C 204.49 179.99 207.14 183.07 207.03 187.01 C 207.56 191.35 205.17 195.21 201.97 197.90 C 200.41 197.58 198.81 197.36 197.34 196.74 Z" />
<path fill="#a1a76d" opacity="1.00" d=" M 488.18 180.27 C 491.02 178.89 494.59 182.12 493.26 185.02 C 492.48 187.78 488.45 188.78 486.71 186.37 C 484.86 184.56 485.71 181.02 488.18 180.27 Z" />
<path fill="#a1a76d" opacity="1.00" d=" M 468.84 186.66 C 470.49 186.18 472.11 185.40 473.87 185.37 C 479.21 186.38 482.75 193.19 480.09 198.06 C 478.95 200.19 476.21 199.78 474.23 200.36 C 472.16 198.55 469.69 196.87 468.74 194.16 C 467.76 191.75 468.55 189.12 468.84 186.66 Z" />
<path fill="#a1a76d" opacity="1.00" d=" M 113.25 193.27 C 114.55 191.32 115.27 188.25 117.94 187.85 C 123.11 187.83 123.50 196.65 118.66 197.61 C 116.67 197.67 115.29 195.75 113.69 194.82 C 113.71 195.41 113.77 196.59 113.79 197.18 C 113.63 195.87 113.43 194.57 113.25 193.27 Z" />
<path fill="#a1a76d" opacity="1.00" d=" M 499.27 190.30 C 500.23 189.17 502.17 190.16 502.57 191.39 C 503.86 193.87 503.75 197.54 501.33 199.30 C 500.36 200.20 499.29 199.13 498.63 198.44 C 497.10 196.04 497.08 192.30 499.27 190.30 Z" />
<path fill="#a1a76d" opacity="1.00" d=" M 123.13 200.20 C 125.98 198.65 129.40 201.01 129.80 204.02 C 130.83 207.53 128.04 212.37 123.98 211.33 C 119.23 209.90 118.96 202.48 123.13 200.20 Z" />
<path fill="#a1a76d" opacity="1.00" d=" M 498.28 208.36 C 501.53 206.55 506.68 208.08 507.35 212.04 C 507.57 217.41 499.71 219.21 496.70 215.31 C 494.60 213.20 495.74 209.51 498.28 208.36 Z" />
<path fill="#a1a76d" opacity="1.00" d=" M 134.19 214.11 C 136.76 212.27 139.88 215.21 139.82 217.90 C 140.22 220.37 138.59 223.13 135.97 223.39 C 131.57 222.96 130.75 216.29 134.19 214.11 Z" />
<path fill="#a1a76d" opacity="1.00" d=" M 205.64 214.13 C 208.09 213.65 210.94 213.10 213.04 214.88 C 218.20 218.83 217.95 227.00 213.73 231.57 C 211.12 233.05 207.67 234.04 205.12 231.87 C 199.49 227.52 200.30 218.40 205.64 214.13 Z" />
<path fill="#a1a76d" opacity="1.00" d=" M 478.83 216.88 C 481.36 216.16 484.21 214.68 486.73 216.32 C 493.02 219.82 493.14 230.24 487.21 234.15 C 485.48 234.87 483.60 235.12 481.80 235.56 C 479.38 233.51 476.58 231.35 476.09 227.99 C 474.97 224.02 476.90 220.22 478.83 216.88 Z" />
<path fill="#a1a76d" opacity="1.00" d=" M 126.54 220.83 C 130.12 222.51 132.54 225.89 132.32 229.96 C 129.47 230.05 126.62 229.93 123.81 229.47 C 123.84 229.89 123.88 230.72 123.91 231.13 C 123.50 229.63 123.00 228.16 122.48 226.70 C 123.85 224.75 125.21 222.80 126.54 220.83 Z" />
<path fill="#a1a76d" opacity="1.00" d=" M 508.43 223.48 C 511.35 222.73 514.39 226.17 512.90 228.95 C 511.75 231.93 507.07 231.89 505.86 229.00 C 504.52 226.87 506.30 224.18 508.43 223.48 Z" />
<path fill="#a1a76d" opacity="1.00" d=" M 142.37 227.38 C 147.10 226.98 146.83 236.06 142.01 235.12 C 139.22 233.55 139.32 228.59 142.37 227.38 Z" />
<path fill="#a1a76d" opacity="1.00" d=" M 135.30 235.37 C 140.97 234.51 141.45 244.86 135.99 244.97 C 131.04 244.92 130.71 236.44 135.30 235.37 Z" />
<path fill="#a1a76d" opacity="1.00" d=" M 508.32 241.38 C 511.32 240.32 514.52 244.04 512.83 246.81 C 511.72 249.25 507.99 249.81 506.38 247.59 C 504.43 245.62 505.68 241.97 508.32 241.38 Z" />
<path fill="#a1a76d" opacity="1.00" d=" M 142.13 249.17 C 146.40 248.45 149.61 254.06 148.84 257.89 C 146.59 260.20 142.66 260.27 139.78 259.25 C 136.05 256.54 139.63 251.47 142.13 249.17 Z" />
<path fill="#a1a76d" opacity="1.00" d=" M 483.24 252.62 C 485.38 253.35 488.00 253.69 489.24 255.84 C 493.47 262.11 492.18 273.23 483.92 275.40 C 475.83 270.69 475.81 257.96 483.24 252.62 Z" />
<path fill="#a1a76d" opacity="1.00" d=" M 516.20 257.25 C 521.72 255.78 523.07 265.62 517.91 266.73 C 512.84 267.41 511.63 258.74 516.20 257.25 Z" />
<path fill="#a1a76d" opacity="1.00" d=" M 510.13 273.30 C 512.89 271.99 517.32 273.55 517.19 277.04 C 516.47 281.42 509.69 281.84 507.74 278.17 C 506.63 276.32 508.23 273.87 510.13 273.30 Z" />
<path fill="#a1a76d" opacity="1.00" d=" M 483.99 292.71 C 486.29 293.14 489.36 292.85 490.53 295.39 C 494.27 302.59 490.06 313.75 481.31 314.47 C 479.22 312.10 477.10 309.38 477.40 306.02 C 477.18 300.70 480.30 296.19 483.99 292.71 Z" />
<path fill="#a1a76d" opacity="1.00" d=" M 513.29 297.26 C 514.93 295.90 517.59 296.70 518.45 298.58 C 520.18 301.39 518.81 306.36 515.04 306.42 C 510.93 305.66 510.16 299.63 513.29 297.26 Z" />
<path fill="#a1a76d" opacity="1.00" d=" M 522.39 314.41 C 526.19 313.74 528.11 318.71 526.59 321.66 C 525.87 323.77 523.26 324.59 521.35 323.60 C 518.23 321.39 518.67 315.78 522.39 314.41 Z" />
<path fill="#a1a76d" opacity="1.00" d=" M 469.32 347.21 C 465.95 340.29 468.25 328.44 477.37 327.88 C 483.64 333.11 482.92 343.85 476.79 348.85 C 474.29 350.90 471.16 349.29 469.32 347.21 Z" />
<path fill="#a1a76d" opacity="1.00" d=" M 503.69 344.06 C 503.11 341.02 503.56 336.90 506.88 335.67 C 509.81 338.90 510.53 344.94 506.84 347.84 C 504.67 348.15 504.06 345.68 503.69 344.06 Z" />
<path fill="#a1a76d" opacity="1.00" d=" M 29.26 340.21 C 34.17 344.45 38.50 349.29 43.19 353.76 C 45.34 355.80 47.58 357.87 48.71 360.69 C 44.81 368.84 39.94 377.16 31.96 381.90 C 28.80 383.67 24.51 385.18 21.17 383.04 C 18.55 381.22 19.56 377.66 19.92 375.04 C 22.25 363.24 25.72 351.69 29.26 340.21 Z" />
<path fill="#a1a76d" opacity="1.00" d=" M 50.96 361.89 C 52.46 361.86 53.97 361.84 55.47 361.82 C 55.85 361.82 56.62 361.82 57.00 361.82 C 65.53 361.61 74.07 361.65 82.61 361.81 C 78.92 370.13 74.89 378.83 67.72 384.74 C 64.30 387.71 58.34 388.78 55.30 384.72 C 50.55 378.20 50.97 369.57 50.96 361.89 Z" />
<path fill="#a1a76d" opacity="1.00" d=" M 82.71 361.81 C 93.22 361.59 103.73 361.68 114.24 361.78 C 111.83 368.80 109.25 375.87 105.17 382.12 C 103.60 384.34 101.75 386.75 98.96 387.42 C 95.70 387.56 93.50 384.65 91.78 382.28 C 87.70 375.99 84.94 368.93 82.71 361.81 Z" />
<path fill="#a1a76d" opacity="1.00" d=" M 114.28 361.77 C 126.10 361.59 137.91 361.73 149.72 361.73 C 146.48 366.76 142.78 371.49 138.87 376.02 C 135.37 379.59 131.97 383.85 127.01 385.36 C 123.87 385.99 121.65 383.10 120.26 380.72 C 117.07 374.87 115.49 368.29 114.28 361.77 Z" />
<path fill="#a1a76d" opacity="1.00" d=" M 459.18 366.28 C 464.16 364.13 470.40 368.63 469.76 374.05 C 469.76 380.10 461.73 383.82 457.13 379.81 C 452.36 376.40 453.52 368.07 459.18 366.28 Z" />
<path fill="#a1a76d" opacity="1.00" d=" M 511.31 378.43 C 513.41 376.39 516.37 378.65 516.85 381.01 C 517.95 384.15 516.82 389.12 512.92 389.47 C 508.64 387.89 508.38 381.36 511.31 378.43 Z" />
<path fill="#a1a76d" opacity="1.00" d=" M 441.36 394.43 C 445.76 393.34 449.24 397.96 448.71 402.05 C 448.75 407.19 443.49 413.47 438.04 411.02 C 431.55 407.15 434.59 396.18 441.36 394.43 Z" />
<path fill="#a1a76d" opacity="1.00" d=" M 485.91 407.22 C 480.63 407.47 480.35 398.64 484.75 397.25 C 488.69 398.95 487.92 404.28 485.91 407.22 Z" />
<path fill="#a1a76d" opacity="1.00" d=" M 505.35 397.48 C 508.93 396.46 512.45 400.57 510.98 403.95 C 509.90 407.40 504.79 408.34 502.65 405.39 C 500.18 402.79 501.91 398.09 505.35 397.48 Z" />
<path fill="#a1a76d" opacity="1.00" d=" M 416.37 415.49 C 420.28 414.21 426.08 414.60 427.81 418.99 C 429.06 423.91 424.25 427.67 420.01 428.77 C 416.23 429.88 410.68 429.20 409.14 425.00 C 408.00 420.35 412.36 416.68 416.37 415.49 Z" />
<path fill="#a1a76d" opacity="1.00" d=" M 484.38 417.37 C 487.56 416.04 491.05 420.14 488.99 422.99 C 487.90 425.46 484.01 425.59 482.59 423.38 C 480.77 421.41 482.09 418.26 484.38 417.37 Z" />
<path fill="#a1a76d" opacity="1.00" d=" M 353.27 421.33 C 358.59 420.67 363.64 425.63 363.11 431.00 C 363.56 436.15 359.05 440.51 354.07 440.71 C 352.39 440.54 351.14 439.20 349.77 438.34 C 346.57 435.82 342.97 433.82 339.99 431.02 C 343.99 427.32 348.69 424.28 353.27 421.33 Z" />
<path fill="#a1a76d" opacity="1.00" d=" M 380.26 423.42 C 384.57 422.06 391.51 424.50 390.68 429.94 C 388.67 436.30 378.12 436.53 375.38 430.62 C 374.04 427.25 377.19 424.14 380.26 423.42 Z" />
<path fill="#a1a76d" opacity="1.00" d=" M 312.02 438.80 C 315.77 434.81 319.70 430.98 323.60 427.13 C 324.94 433.50 326.35 439.87 327.32 446.32 C 322.07 444.13 317.05 441.44 312.02 438.80 Z" />
<path fill="#a1a76d" opacity="1.00" d=" M 284.80 440.56 C 289.84 438.09 294.82 435.50 299.87 433.05 C 300.55 438.19 301.52 443.32 301.59 448.53 C 296.04 445.78 289.99 443.99 284.80 440.56 Z" />
<path fill="#a1a76d" opacity="1.00" d=" M 262.85 438.97 C 267.83 437.41 272.94 436.30 278.00 435.03 C 277.60 439.50 277.05 443.96 276.08 448.34 C 271.48 445.49 267.12 442.27 262.85 438.97 Z" />
<path fill="#a1a76d" opacity="1.00" d=" M 458.26 435.40 C 462.20 433.91 467.98 436.22 467.79 440.98 C 467.50 446.77 459.06 448.61 455.56 444.44 C 452.63 441.60 454.51 436.40 458.26 435.40 Z" />
<path fill="#a1a76d" opacity="1.00" d=" M 156.34 451.45 C 160.78 450.09 165.76 450.73 169.60 453.39 C 172.21 455.21 175.34 457.53 175.46 461.01 C 174.31 465.15 170.94 468.29 167.40 470.51 C 164.96 471.91 161.83 473.26 159.11 471.82 C 156.43 469.97 155.61 466.58 154.29 463.79 C 153.26 461.10 151.46 458.72 150.86 455.89 C 151.17 453.20 154.14 452.19 156.34 451.45 Z" />
<path fill="#a1a76d" opacity="1.00" d=" M 426.40 455.35 C 432.40 452.02 434.69 463.67 428.68 464.54 C 424.21 464.49 422.93 457.72 426.40 455.35 Z" />
<path fill="#a1a76d" opacity="1.00" d=" M 452.33 457.50 C 455.60 455.63 462.84 456.84 461.65 461.77 C 459.20 465.54 452.64 465.49 450.29 461.64 C 449.81 459.93 450.78 458.23 452.33 457.50 Z" />
<path fill="#a1a76d" opacity="1.00" d=" M 317.33 465.38 C 321.32 463.15 327.69 465.77 327.55 470.74 C 327.12 476.59 318.48 478.27 315.13 473.88 C 312.63 471.19 314.09 466.70 317.33 465.38 Z" />
<path fill="#a1a76d" opacity="1.00" d=" M 82.29 466.47 C 86.25 464.67 90.64 466.81 94.09 468.82 C 98.60 471.75 103.21 476.25 103.28 481.98 C 102.25 487.05 97.49 490.67 93.02 492.71 C 86.90 490.49 84.17 483.61 82.04 477.96 C 81.10 474.33 78.94 469.45 82.29 466.47 Z" />
<path fill="#a1a76d" opacity="1.00" d=" M 358.24 467.14 C 361.46 465.20 365.18 468.66 364.98 472.00 C 365.32 474.96 363.30 478.57 359.96 478.34 C 354.65 477.73 353.67 469.47 358.24 467.14 Z" />
<path fill="#a1a76d" opacity="1.00" d=" M 338.17 469.14 C 341.38 467.16 345.77 470.30 345.34 473.92 C 345.05 477.47 340.42 479.76 337.58 477.37 C 334.63 475.48 335.09 470.64 338.17 469.14 Z" />
<path fill="#a1a76d" opacity="1.00" d=" M 379.39 469.35 C 382.64 467.44 389.67 468.80 388.58 473.61 C 386.30 477.17 380.42 477.27 377.65 474.26 C 376.37 472.46 377.44 470.08 379.39 469.35 Z" />
<path fill="#a1a76d" opacity="1.00" d=" M 432.63 472.64 C 433.69 469.04 438.40 467.35 441.49 469.54 C 443.76 470.80 443.75 473.66 444.38 475.87 C 441.16 477.12 437.96 478.45 434.79 479.85 C 433.58 477.66 431.53 475.30 432.63 472.64 Z" />
<path fill="#a1a76d" opacity="1.00" d=" M 401.00 474.01 C 403.67 471.23 408.54 472.62 409.83 476.07 C 411.34 478.71 410.02 481.63 409.24 484.26 C 406.19 484.28 403.15 484.47 400.13 484.78 C 398.99 481.29 397.75 476.78 401.00 474.01 Z" />
<path fill="#a1a76d" opacity="1.00" d=" M 333.20 478.42 C 335.93 478.20 338.46 481.37 337.07 483.92 C 336.05 486.53 331.84 487.22 330.40 484.62 C 328.48 482.35 330.37 478.64 333.20 478.42 Z" />
<path fill="#a1a76d" opacity="1.00" d=" M 345.66 481.68 C 346.09 479.41 348.95 477.44 351.06 478.95 C 353.66 480.39 352.84 483.77 353.17 486.22 C 350.67 486.11 348.17 486.12 345.69 486.31 C 345.62 484.77 345.49 483.22 345.66 481.68 Z" />
<path fill="#a1a76d" opacity="1.00" d=" M 369.77 482.81 C 371.54 479.66 376.53 479.62 378.26 482.83 C 379.81 485.27 377.90 487.93 377.02 490.24 C 375.00 490.25 372.97 490.20 370.96 490.13 C 370.08 487.85 368.27 485.22 369.77 482.81 Z" />
<path fill="#a1a76d" opacity="1.00" d=" M 146.22 485.20 C 150.96 480.76 159.31 481.87 163.32 486.70 C 164.54 490.03 162.36 493.59 161.50 496.81 C 158.92 501.11 156.59 506.80 151.11 507.91 C 146.67 508.92 143.02 505.37 141.70 501.46 C 140.43 495.73 141.77 489.25 146.22 485.20 Z" />
<path fill="#a1a76d" opacity="1.00" d=" M 17.14 488.59 C 19.74 486.66 22.48 483.78 25.94 484.06 C 30.55 485.86 33.38 490.66 34.71 495.23 C 35.74 498.20 34.09 501.00 32.62 503.47 C 26.82 504.03 20.82 504.70 15.12 503.12 C 12.83 502.62 11.28 500.36 11.50 498.06 C 11.75 494.19 14.48 491.14 17.14 488.59 Z" />
<path fill="#a1a76d" opacity="1.00" d=" M 105.09 493.10 C 108.55 486.77 118.30 483.79 123.84 489.22 C 127.94 493.24 125.23 499.41 123.49 503.91 C 121.79 507.37 119.35 510.76 115.51 512.00 L 112.92 512.00 C 109.46 511.25 107.17 508.43 105.81 505.34 C 104.82 501.39 103.59 497.06 105.09 493.10 Z" />
</g>
<g id="#76342fff">
<path fill="#76342f" opacity="1.00" d=" M 246.40 19.77 C 249.96 22.10 253.11 24.97 256.46 27.58 C 261.42 27.11 266.34 26.23 271.33 26.04 C 266.44 28.87 261.38 31.40 256.18 33.59 C 253.56 31.69 251.28 28.97 248.10 28.05 C 243.80 28.84 239.73 30.61 235.40 31.28 C 238.74 27.14 242.83 23.71 246.40 19.77 Z" />
<path fill="#76342f" opacity="1.00" d=" M 371.06 104.61 C 374.38 101.39 377.60 98.07 380.97 94.90 C 385.71 100.00 390.03 105.48 394.86 110.50 C 398.13 107.91 401.40 105.32 404.74 102.81 C 408.55 106.70 412.61 110.35 416.07 114.57 C 412.36 113.48 408.82 111.74 404.99 111.13 C 400.00 112.12 395.63 114.98 390.86 116.65 C 386.84 112.81 383.00 108.77 379.01 104.89 C 376.22 107.48 373.70 110.34 370.90 112.92 C 369.90 114.02 368.46 114.34 367.04 114.32 C 364.40 110.94 361.75 107.56 358.87 104.38 C 360.29 103.19 361.73 102.03 363.16 100.84 C 365.79 102.09 368.43 103.33 371.06 104.61 Z" />
<path fill="#76342f" opacity="1.00" d=" M 169.54 124.83 C 170.44 129.74 170.65 134.75 171.57 139.65 C 172.94 143.39 175.48 146.55 177.36 150.03 C 180.19 147.69 182.46 144.73 185.39 142.50 C 189.61 140.74 194.13 139.79 198.57 138.74 C 196.52 141.29 194.17 143.55 191.81 145.80 C 187.86 149.50 186.15 154.80 183.41 159.35 C 180.94 164.25 177.92 168.89 175.78 173.95 C 176.35 181.74 178.50 189.34 179.26 197.11 C 179.02 200.95 176.06 204.12 175.91 207.97 C 178.02 213.10 180.83 217.93 183.27 222.93 C 184.11 224.85 185.72 226.83 184.86 229.04 C 182.69 237.09 179.61 244.90 177.76 253.02 C 178.78 257.61 181.28 261.73 182.12 266.39 C 177.44 260.31 173.75 253.53 169.54 247.13 C 170.51 241.70 172.75 236.48 173.10 230.98 C 169.80 223.12 165.26 215.80 161.95 207.95 C 162.97 205.89 165.56 205.12 167.36 203.82 C 166.64 196.82 164.23 190.09 163.79 183.08 C 164.55 175.73 165.82 168.44 166.85 161.12 C 168.73 153.24 164.00 145.76 163.90 137.97 C 165.40 133.44 167.53 129.15 169.54 124.83 Z" />
<path fill="#76342f" opacity="1.00" d=" M 439.80 190.92 C 439.37 194.51 438.84 198.09 438.26 201.66 C 442.74 207.58 447.35 213.40 451.96 219.23 C 449.13 223.20 445.82 226.77 442.74 230.54 C 442.84 229.87 443.05 228.53 443.15 227.86 C 443.39 224.94 444.51 221.76 443.03 219.00 C 440.59 213.82 437.74 208.83 435.32 203.64 C 435.00 202.74 434.33 201.78 434.85 200.83 C 436.13 197.35 438.09 194.19 439.80 190.92 Z" />
<path fill="#76342f" opacity="1.00" d=" M 280.38 217.71 C 284.65 214.02 289.39 210.95 294.00 207.71 C 294.01 213.61 294.02 219.51 294.03 225.41 C 289.36 223.06 284.83 220.45 280.38 217.71 Z" />
<path fill="#76342f" opacity="1.00" d=" M 279.48 229.46 C 279.86 228.98 280.61 228.02 280.98 227.54 C 285.37 227.34 289.69 228.45 294.04 228.89 C 294.02 233.69 294.04 238.48 293.97 243.28 C 290.80 241.85 287.57 240.35 285.00 237.94 C 282.46 235.63 281.22 232.34 279.48 229.46 Z" />
<path fill="#76342f" opacity="1.00" d=" M 217.50 240.32 C 221.47 242.79 226.69 245.26 227.52 250.37 C 229.01 258.52 231.35 266.63 230.77 275.00 C 230.68 291.99 230.77 308.98 230.73 325.97 C 226.53 323.37 222.73 320.21 218.99 317.00 C 218.57 326.51 219.39 336.06 218.53 345.56 C 215.91 353.47 213.61 361.49 211.04 369.43 C 209.05 368.87 207.05 368.34 205.06 367.79 C 201.00 374.24 197.38 380.95 193.16 387.29 C 190.62 384.66 187.98 382.13 185.26 379.70 C 180.68 387.32 176.41 395.13 171.75 402.70 C 168.97 403.72 165.81 404.50 163.93 406.98 C 159.10 412.86 160.10 421.40 155.29 427.31 C 151.40 432.66 144.68 435.04 138.25 434.97 C 136.82 433.72 135.36 432.51 133.91 431.30 C 135.67 425.82 137.47 420.34 138.78 414.73 C 141.70 402.16 144.04 388.32 138.87 376.02 C 142.78 371.49 146.48 366.76 149.72 361.73 C 154.41 361.26 159.04 360.33 163.74 360.02 C 164.96 363.81 166.18 367.60 167.46 371.36 C 174.49 365.44 180.43 358.38 187.25 352.23 C 187.93 354.67 188.60 357.12 189.29 359.57 C 191.89 357.77 194.34 355.78 196.81 353.81 C 199.69 351.37 203.53 350.82 207.06 349.93 C 208.52 334.82 209.67 319.68 211.08 304.56 C 214.35 305.80 217.62 307.05 220.90 308.29 C 221.00 301.19 220.86 294.10 220.98 287.01 C 221.54 277.96 217.09 269.76 215.16 261.12 C 217.66 263.03 220.23 264.86 222.85 266.60 C 222.89 263.40 223.00 260.21 222.95 257.02 C 223.18 250.95 219.52 245.80 217.50 240.32 Z" />
<path fill="#76342f" opacity="1.00" d=" M 129.87 314.36 C 137.57 313.16 145.51 311.62 151.96 306.96 C 151.21 312.15 150.52 318.56 145.48 321.43 C 139.46 323.98 132.04 320.48 129.87 314.36 Z" />
<path fill="#76342f" opacity="1.00" d=" M 328.22 332.24 C 333.05 321.92 343.75 314.90 355.06 314.13 C 355.49 328.02 355.19 341.92 355.22 355.81 C 343.26 356.50 331.30 357.21 319.34 357.78 C 320.99 348.87 324.46 340.43 328.22 332.24 Z" />
<path fill="#76342f" opacity="1.00" d=" M 303.13 323.13 C 308.57 319.46 315.23 318.21 321.69 317.95 C 323.75 318.02 325.80 318.38 327.86 318.50 C 322.49 331.54 317.16 344.61 312.19 357.80 C 304.16 357.79 296.13 357.81 288.09 357.79 C 290.17 350.36 292.09 342.88 294.21 335.47 C 295.59 330.46 298.80 326.00 303.13 323.13 Z" />
<path fill="#76342f" opacity="1.00" d=" M 513.48 342.03 C 514.24 339.89 515.83 338.22 517.21 336.47 C 519.53 344.86 521.38 353.38 523.15 361.91 C 516.58 365.12 510.04 368.40 503.52 371.70 C 502.12 381.94 501.04 392.22 499.57 402.45 C 497.28 398.48 496.01 394.05 494.36 389.80 C 493.32 387.30 493.72 384.58 493.96 381.98 C 494.55 376.56 494.93 371.11 495.50 365.69 C 502.00 363.05 508.52 360.45 515.06 357.88 C 514.91 352.56 513.54 347.34 513.48 342.03 Z" />
<path fill="#76342f" opacity="1.00" d=" M 392.83 355.88 C 394.27 356.71 395.72 357.53 397.18 358.35 C 399.45 359.64 401.89 360.91 403.29 363.23 C 403.81 365.38 404.19 367.56 404.66 369.73 C 400.49 373.87 395.63 377.85 394.66 384.02 C 394.05 385.88 393.35 387.71 392.68 389.55 C 388.31 390.23 383.93 390.83 379.53 391.18 C 382.01 389.16 384.61 387.25 386.89 384.99 C 387.04 381.80 386.37 378.48 387.31 375.38 C 390.00 371.79 393.62 369.03 396.62 365.71 C 395.84 363.64 395.05 361.57 394.26 359.50 C 393.78 358.29 393.30 357.08 392.83 355.88 Z" />
<path fill="#76342f" opacity="1.00" d=" M 484.09 437.11 C 489.41 432.35 493.85 426.70 499.06 421.82 C 497.46 426.78 495.26 431.52 493.46 436.41 C 492.59 438.35 492.12 440.82 490.02 441.83 C 485.99 444.21 481.89 446.49 477.78 448.72 C 475.67 443.57 473.71 438.35 471.96 433.06 C 475.04 434.99 477.89 437.38 481.30 438.71 C 482.42 438.67 483.24 437.74 484.09 437.11 Z" />
<path fill="#76342f" opacity="1.00" d=" M 398.71 451.23 C 402.62 454.47 405.23 458.92 408.80 462.50 C 412.02 462.20 415.56 460.38 418.62 461.18 C 420.82 466.04 422.50 471.14 424.23 476.19 C 419.43 473.98 415.18 470.70 410.30 468.67 C 405.93 467.56 401.38 467.32 396.92 466.72 C 397.16 461.52 397.90 456.36 398.71 451.23 Z" />
</g>
<g id="#5a6f5bff">
<path fill="#5a6f5b" opacity="1.00" d=" M 290.01 86.98 C 294.26 87.01 297.43 83.92 299.96 80.88 C 304.53 81.51 309.11 82.07 313.66 82.82 C 315.51 85.12 317.30 87.89 320.38 88.60 C 323.49 89.64 326.61 88.25 329.44 87.04 C 332.60 88.02 335.58 89.46 338.28 91.38 C 336.99 97.08 341.34 102.67 347.01 103.33 C 349.87 104.01 352.28 102.08 354.53 100.65 C 356.00 101.87 357.49 103.06 358.87 104.38 C 361.75 107.56 364.40 110.94 367.04 114.32 C 370.92 121.32 375.13 128.78 374.93 137.03 C 375.12 139.66 372.63 141.07 370.97 142.64 C 360.95 143.52 351.02 141.57 341.05 140.93 C 330.94 139.93 320.50 141.22 310.72 137.89 C 302.59 135.34 296.18 129.56 289.86 124.12 C 291.03 119.88 292.54 115.74 294.17 111.65 C 290.23 113.57 287.02 116.59 284.73 120.30 C 282.40 118.44 279.44 117.73 276.56 118.63 C 274.31 115.01 273.87 110.75 273.46 106.62 C 271.10 111.80 269.43 117.55 270.97 123.22 C 269.16 125.61 267.50 128.10 265.90 130.62 C 263.04 126.85 261.42 122.38 260.40 117.80 C 258.76 123.97 257.09 132.03 262.55 136.79 C 261.66 138.58 260.83 140.39 259.98 142.20 C 257.83 140.70 255.42 139.33 253.97 137.06 C 252.17 134.17 251.36 130.82 250.32 127.62 C 249.64 135.75 248.46 146.14 255.86 151.70 C 255.19 153.55 254.60 155.44 253.99 157.31 C 246.69 153.95 241.97 147.16 239.05 139.90 C 239.86 149.45 241.92 160.77 251.19 165.74 C 250.77 167.26 250.44 168.80 250.16 170.34 C 242.95 169.38 238.03 163.77 232.64 159.51 C 235.82 167.85 240.45 176.93 249.24 180.42 C 249.22 182.79 249.40 185.17 249.63 187.53 C 239.60 185.56 231.01 179.78 222.77 174.07 C 226.46 180.51 231.07 186.45 236.44 191.58 C 240.66 195.50 245.96 199.39 252.07 198.38 C 253.46 201.18 255.20 204.45 258.55 205.15 C 260.81 205.90 263.56 205.80 265.29 207.67 C 267.35 209.79 268.51 212.57 269.69 215.24 C 255.00 215.35 241.72 207.34 230.51 198.56 C 228.02 196.44 225.50 194.35 222.79 192.53 C 227.70 203.90 235.67 213.92 245.14 221.85 C 254.07 229.12 265.48 233.98 277.17 233.06 C 278.26 235.44 279.42 237.80 280.79 240.04 C 277.26 240.53 273.65 240.97 270.11 240.28 C 259.93 238.47 250.51 233.71 242.04 227.90 C 240.19 226.65 238.24 225.55 236.27 224.51 C 239.43 229.34 243.93 233.02 248.06 236.97 C 260.20 248.67 273.20 259.67 287.80 268.21 C 290.75 269.98 293.96 271.23 297.23 272.26 C 298.11 276.12 298.72 280.04 299.08 283.99 C 299.01 284.71 298.87 286.14 298.80 286.86 C 282.83 284.44 269.78 274.31 256.80 265.51 C 261.22 272.76 266.73 279.27 272.17 285.77 C 279.76 294.37 288.07 303.12 299.00 307.34 C 299.04 308.57 299.07 309.81 299.10 311.05 C 298.86 313.44 298.52 315.82 298.11 318.19 C 285.70 315.67 274.92 308.55 264.99 301.02 C 260.34 297.62 256.33 293.41 251.49 290.28 C 253.76 296.03 257.50 300.99 260.75 306.20 C 269.42 319.05 278.56 332.21 291.69 340.90 C 289.24 347.20 286.33 353.32 283.11 359.25 C 273.45 356.93 265.15 350.77 259.13 343.00 C 255.47 338.56 252.97 333.36 249.79 328.60 C 250.01 332.08 250.41 335.55 251.26 338.93 C 253.75 349.64 256.91 360.54 263.43 369.56 C 265.56 372.68 268.71 374.83 271.99 376.60 C 266.46 384.07 260.30 391.04 253.68 397.56 C 246.72 392.96 242.42 385.54 238.50 378.38 C 233.44 369.18 230.06 359.22 226.19 349.49 C 226.14 357.87 228.64 365.98 229.13 374.32 C 224.79 365.03 222.83 354.85 218.53 345.56 C 219.39 336.06 218.57 326.51 218.99 317.00 C 222.73 320.21 226.53 323.37 230.73 325.97 C 230.77 308.98 230.68 291.99 230.77 275.00 C 231.35 266.63 229.01 258.52 227.52 250.37 C 226.69 245.26 221.47 242.79 217.50 240.32 C 216.10 237.46 214.76 234.58 213.73 231.57 C 217.95 227.00 218.20 218.83 213.04 214.88 C 210.94 213.10 208.09 213.65 205.64 214.13 C 203.48 208.97 202.27 203.47 201.97 197.90 C 205.17 195.21 207.56 191.35 207.03 187.01 C 207.14 183.07 204.49 179.99 201.73 177.54 C 202.55 173.65 201.50 168.48 204.85 165.67 C 211.70 162.15 213.73 152.79 209.74 146.40 C 211.39 141.83 213.72 137.56 216.15 133.36 C 218.90 132.77 222.11 132.41 223.86 129.90 C 226.26 127.37 226.15 123.74 225.89 120.51 C 228.09 116.65 231.10 113.38 234.23 110.26 C 238.41 110.06 242.77 108.29 244.16 103.98 C 246.42 98.08 252.68 95.53 257.79 92.62 C 260.20 92.85 262.83 93.30 265.07 92.09 C 267.63 90.91 268.77 88.17 270.17 85.92 C 273.53 84.65 276.97 83.61 280.47 82.78 C 283.06 85.20 286.22 87.57 290.01 86.98 M 304.17 132.39 C 309.93 132.49 315.70 132.55 321.46 132.34 C 319.11 127.08 316.46 121.95 313.77 116.85 C 310.43 121.94 307.11 127.05 304.17 132.39 M 327.80 132.36 C 332.94 132.52 338.09 132.55 343.23 132.34 C 340.81 127.10 338.15 121.99 335.58 116.82 C 332.78 121.90 330.22 127.10 327.80 132.36 M 357.20 118.82 C 354.58 123.28 351.89 127.70 349.61 132.35 C 354.67 132.53 359.74 132.50 364.80 132.42 C 362.66 127.68 359.94 123.23 357.20 118.82 M 261.10 285.30 C 262.62 288.93 264.39 292.46 266.30 295.90 C 268.20 294.18 270.02 292.38 271.76 290.50 C 268.19 288.79 264.65 287.04 261.10 285.30 M 243.09 305.16 C 244.85 309.39 246.97 313.48 248.49 317.81 C 250.38 316.05 252.17 314.18 253.86 312.22 C 250.37 309.71 246.82 307.28 243.09 305.16 M 264.50 335.74 C 266.35 333.99 268.15 332.18 269.86 330.30 C 266.48 327.71 262.92 325.35 259.25 323.19 C 260.73 327.49 262.63 331.61 264.50 335.74 M 272.48 338.18 C 273.77 342.06 275.01 345.95 276.39 349.80 C 279.00 347.35 281.51 344.80 283.88 342.13 C 280.12 340.69 276.30 339.43 272.48 338.18 M 237.19 343.07 C 237.59 347.03 238.17 350.96 238.58 354.92 C 241.27 354.40 243.72 353.18 245.90 351.52 C 243.04 348.65 240.21 345.76 237.19 343.07 M 245.18 360.19 C 245.47 364.45 246.16 368.66 246.62 372.90 C 249.80 372.12 252.89 371.01 255.84 369.58 C 252.56 366.14 248.65 363.41 245.18 360.19 M 255.27 376.18 C 255.35 379.81 255.82 383.41 256.68 386.94 C 259.09 384.46 261.44 381.94 263.79 379.41 C 260.95 378.32 258.12 377.24 255.27 376.18 Z" />
<path fill="#5a6f5b" opacity="1.00" d=" M 429.11 163.23 C 435.13 161.06 441.62 162.40 447.59 164.07 C 448.74 166.00 449.73 168.10 451.37 169.69 C 453.38 171.57 456.31 171.58 458.87 172.00 C 462.89 176.37 466.21 181.34 468.84 186.66 C 468.55 189.12 467.76 191.75 468.74 194.16 C 469.69 196.87 472.16 198.55 474.23 200.36 C 476.33 205.69 477.40 211.34 478.83 216.88 C 476.90 220.22 474.97 224.02 476.09 227.99 C 476.58 231.35 479.38 233.51 481.80 235.56 C 482.47 241.23 483.04 246.91 483.24 252.62 C 475.81 257.96 475.83 270.69 483.92 275.40 C 483.70 281.17 483.71 286.94 483.99 292.71 C 480.30 296.19 477.18 300.70 477.40 306.02 C 477.10 309.38 479.22 312.10 481.31 314.47 C 480.43 319.05 479.21 323.58 477.37 327.88 C 468.25 328.44 465.95 340.29 469.32 347.21 C 466.33 359.89 455.41 368.93 443.92 373.97 C 428.45 380.73 411.41 383.22 394.66 384.02 C 395.63 377.85 400.49 373.87 404.66 369.73 C 404.19 367.56 403.81 365.38 403.29 363.23 C 411.16 361.70 418.85 359.43 426.64 357.57 C 431.23 356.47 435.84 355.40 440.25 353.68 C 431.69 351.34 422.96 349.73 414.43 347.27 C 419.04 343.22 422.81 338.37 426.20 333.29 C 428.62 332.13 431.00 330.85 433.02 329.05 C 442.33 321.20 452.22 314.04 461.34 305.97 C 451.97 308.78 443.18 313.19 433.83 316.06 C 434.33 313.61 434.35 311.09 434.40 308.60 C 438.66 304.36 441.92 299.29 445.65 294.62 C 449.29 289.77 453.22 285.13 456.45 280.00 C 448.97 283.04 442.07 287.30 434.63 290.43 C 434.73 286.13 434.84 281.83 434.75 277.53 C 441.28 268.59 446.40 258.73 452.31 249.39 C 455.94 243.10 460.11 237.11 463.31 230.58 C 452.68 238.40 443.66 248.21 433.34 256.43 C 433.09 253.81 432.83 251.19 432.41 248.59 C 436.12 242.73 439.64 236.74 442.74 230.54 C 445.82 226.77 449.13 223.20 451.96 219.23 C 447.35 213.40 442.74 207.58 438.26 201.66 C 438.84 198.09 439.37 194.51 439.80 190.92 C 438.09 194.19 436.13 197.35 434.85 200.83 C 434.33 201.78 435.00 202.74 435.32 203.64 C 437.74 208.83 440.59 213.82 443.03 219.00 C 444.51 221.76 443.39 224.94 443.15 227.86 C 438.02 231.45 432.96 235.15 427.89 238.84 C 426.62 237.93 425.31 237.08 424.05 236.17 C 424.20 226.40 424.34 216.62 423.94 206.86 C 420.25 212.24 416.96 217.87 413.27 223.24 C 412.61 221.85 411.99 220.44 411.50 218.99 C 413.80 205.29 418.74 192.15 421.17 178.46 C 415.73 183.45 412.09 190.05 406.47 194.87 L 406.32 193.64 C 406.81 180.09 416.37 167.63 429.11 163.23 Z" />
<path fill="#5a6f5b" opacity="1.00" d=" M 164.24 306.39 C 172.83 306.44 181.34 304.69 189.94 305.28 C 181.06 315.68 168.28 323.82 154.25 323.89 C 159.54 319.44 162.81 313.08 164.24 306.39 Z" />
<path fill="#5a6f5b" opacity="1.00" d=" M 101.18 329.66 C 107.73 325.67 113.44 320.25 120.40 317.01 C 121.95 320.93 124.58 324.24 127.10 327.57 C 124.48 328.31 121.78 328.69 119.06 328.64 C 113.07 328.55 107.18 330.09 101.18 329.66 Z" />
<path fill="#5a6f5b" opacity="1.00" d=" M 134.27 330.42 C 139.29 330.15 144.21 329.03 148.87 327.15 C 147.74 333.27 146.11 339.43 143.52 345.10 C 140.35 340.26 137.42 335.27 134.27 330.42 Z" />
<path fill="#5a6f5b" opacity="1.00" d=" M 49.22 359.80 C 53.54 353.47 57.80 347.07 62.57 341.06 C 61.49 348.15 60.47 355.43 57.00 361.82 C 56.62 361.82 55.85 361.82 55.47 361.82 C 53.91 361.75 52.35 361.65 50.78 361.57 C 50.39 361.13 49.61 360.24 49.22 359.80 Z" />
<path fill="#5a6f5b" opacity="1.00" d=" M 368.63 363.76 C 377.33 363.69 386.04 362.42 394.26 359.50 C 395.05 361.57 395.84 363.64 396.62 365.71 C 393.62 369.03 390.00 371.79 387.31 375.38 C 386.37 378.48 387.04 381.80 386.89 384.99 C 374.27 385.11 361.66 385.42 349.04 385.34 C 341.03 385.43 332.97 384.91 325.01 386.12 C 315.66 387.31 306.55 390.15 298.01 394.10 C 283.65 401.58 270.59 411.90 260.90 424.96 C 259.99 426.17 258.70 427.02 257.45 427.85 C 261.97 413.54 270.47 400.48 281.61 390.43 C 284.17 391.84 286.76 393.18 289.40 394.43 C 288.76 391.59 287.98 388.79 287.10 386.02 C 290.59 383.44 294.16 380.96 297.96 378.87 C 298.76 381.01 299.36 383.29 300.68 385.20 C 303.42 386.27 306.40 386.55 309.28 387.07 C 307.89 383.16 306.57 379.22 305.44 375.23 C 308.18 374.04 310.95 372.93 313.78 371.98 C 316.23 374.88 318.16 378.69 321.94 380.06 C 324.88 381.22 327.95 382.05 330.97 383.01 C 328.50 378.36 325.87 373.80 323.56 369.07 C 326.01 368.43 328.46 367.78 330.95 367.26 C 331.86 369.30 332.80 371.33 333.69 373.37 C 340.52 375.41 347.40 377.29 354.34 378.92 C 351.70 374.14 348.37 369.79 345.61 365.08 L 346.82 364.95 C 347.62 364.94 349.23 364.91 350.03 364.89 C 352.38 367.42 354.08 371.45 357.92 371.86 C 365.77 372.91 373.59 374.21 381.47 375.01 C 377.44 370.97 372.68 367.76 368.63 363.76 Z" />
<path fill="#5a6f5b" opacity="1.00" d=" M 195.45 401.46 C 201.17 398.24 206.83 394.89 212.72 391.98 C 209.68 398.30 206.52 404.56 203.36 410.81 C 200.46 407.92 198.06 404.60 195.45 401.46 Z" />
<path fill="#5a6f5b" opacity="1.00" d=" M 168.14 427.12 C 176.93 422.31 186.22 418.44 194.86 413.34 C 191.41 423.69 187.35 433.82 183.48 444.01 C 180.64 442.43 179.15 439.40 176.87 437.21 C 173.69 434.08 170.95 430.57 168.14 427.12 Z" />
</g>
<g id="#30533dff">
<path fill="#30533d" opacity="1.00" d=" M 273.46 106.62 C 273.87 110.75 274.31 115.01 276.56 118.63 C 274.59 120.03 272.70 121.54 270.97 123.22 C 269.43 117.55 271.10 111.80 273.46 106.62 Z" />
<path fill="#30533d" opacity="1.00" d=" M 284.73 120.30 C 287.02 116.59 290.23 113.57 294.17 111.65 C 292.54 115.74 291.03 119.88 289.86 124.12 C 288.19 122.80 286.49 121.51 284.73 120.30 Z" />
<path fill="#30533d" opacity="1.00" d=" M 262.55 136.79 C 257.09 132.03 258.76 123.97 260.40 117.80 C 261.42 122.38 263.04 126.85 265.90 130.62 C 264.69 132.63 263.60 134.70 262.55 136.79 Z" />
<path fill="#30533d" opacity="1.00" d=" M 255.86 151.70 C 248.46 146.14 249.64 135.75 250.32 127.62 C 251.36 130.82 252.17 134.17 253.97 137.06 C 255.42 139.33 257.83 140.70 259.98 142.20 C 258.53 145.34 257.10 148.48 255.86 151.70 Z" />
<path fill="#30533d" opacity="1.00" d=" M 239.05 139.90 C 241.97 147.16 246.69 153.95 253.99 157.31 C 253.08 160.13 252.06 162.91 251.19 165.74 C 241.92 160.77 239.86 149.45 239.05 139.90 Z" />
<path fill="#30533d" opacity="1.00" d=" M 232.64 159.51 C 238.03 163.77 242.95 169.38 250.16 170.34 C 249.94 171.78 249.75 173.22 249.63 174.68 C 249.47 176.59 249.31 178.50 249.24 180.42 C 240.45 176.93 235.82 167.85 232.64 159.51 Z" />
<path fill="#30533d" opacity="1.00" d=" M 222.77 174.07 C 231.01 179.78 239.60 185.56 249.63 187.53 C 250.00 191.23 250.69 194.92 252.07 198.38 C 245.96 199.39 240.66 195.50 236.44 191.58 C 231.07 186.45 226.46 180.51 222.77 174.07 Z" />
<path fill="#30533d" opacity="1.00" d=" M 406.47 194.87 C 412.09 190.05 415.73 183.45 421.17 178.46 C 418.74 192.15 413.80 205.29 411.50 218.99 C 408.82 211.20 407.64 203.00 406.47 194.87 Z" />
<path fill="#30533d" opacity="1.00" d=" M 222.79 192.53 C 225.50 194.35 228.02 196.44 230.51 198.56 C 241.72 207.34 255.00 215.35 269.69 215.24 C 272.07 221.22 274.41 227.23 277.17 233.06 C 265.48 233.98 254.07 229.12 245.14 221.85 C 235.67 213.92 227.70 203.90 222.79 192.53 Z" />
<path fill="#30533d" opacity="1.00" d=" M 413.27 223.24 C 416.96 217.87 420.25 212.24 423.94 206.86 C 424.34 216.62 424.20 226.40 424.05 236.17 C 419.43 232.85 415.68 228.39 413.27 223.24 Z" />
<path fill="#30533d" opacity="1.00" d=" M 236.27 224.51 C 238.24 225.55 240.19 226.65 242.04 227.90 C 250.51 233.71 259.93 238.47 270.11 240.28 C 273.65 240.97 277.26 240.53 280.79 240.04 C 287.43 250.11 294.66 260.23 297.23 272.26 C 293.96 271.23 290.75 269.98 287.80 268.21 C 273.20 259.67 260.20 248.67 248.06 236.97 C 243.93 233.02 239.43 229.34 236.27 224.51 Z" />
<path fill="#30533d" opacity="1.00" d=" M 427.89 238.84 C 432.96 235.15 438.02 231.45 443.15 227.86 C 443.05 228.53 442.84 229.87 442.74 230.54 C 439.64 236.74 436.12 242.73 432.41 248.59 C 431.61 245.10 430.86 241.19 427.89 238.84 Z" />
<path fill="#30533d" opacity="1.00" d=" M 433.34 256.43 C 443.66 248.21 452.68 238.40 463.31 230.58 C 460.11 237.11 455.94 243.10 452.31 249.39 C 446.40 258.73 441.28 268.59 434.75 277.53 C 434.58 270.48 434.07 263.45 433.34 256.43 Z" />
<path fill="#30533d" opacity="1.00" d=" M 256.80 265.51 C 269.78 274.31 282.83 284.44 298.80 286.86 C 298.87 286.14 299.01 284.71 299.08 283.99 C 300.11 292.97 300.23 302.07 299.10 311.05 C 299.07 309.81 299.04 308.57 299.00 307.34 C 288.07 303.12 279.76 294.37 272.17 285.77 C 266.73 279.27 261.22 272.76 256.80 265.51 Z" />
<path fill="#30533d" opacity="1.00" d=" M 407.49 282.33 C 412.13 277.68 417.04 273.24 422.37 269.39 C 422.62 273.53 421.94 277.64 421.95 281.77 C 417.17 280.50 412.33 282.49 407.49 282.33 Z" />
<path fill="#30533d" opacity="1.00" d=" M 434.63 290.43 C 442.07 287.30 448.97 283.04 456.45 280.00 C 453.22 285.13 449.29 289.77 445.65 294.62 C 441.92 299.29 438.66 304.36 434.40 308.60 C 434.43 302.54 434.52 296.48 434.63 290.43 Z" />
<path fill="#30533d" opacity="1.00" d=" M 251.49 290.28 C 256.33 293.41 260.34 297.62 264.99 301.02 C 274.92 308.55 285.70 315.67 298.11 318.19 C 296.77 325.96 294.36 333.50 291.69 340.90 C 278.56 332.21 269.42 319.05 260.75 306.20 C 257.50 300.99 253.76 296.03 251.49 290.28 Z" />
<path fill="#30533d" opacity="1.00" d=" M 406.90 296.49 C 412.09 295.14 417.27 293.74 422.57 292.91 C 422.75 296.02 422.73 299.13 422.57 302.25 C 417.25 300.58 412.05 298.60 406.90 296.49 Z" />
<path fill="#30533d" opacity="1.00" d=" M 433.83 316.06 C 443.18 313.19 451.97 308.78 461.34 305.97 C 452.22 314.04 442.33 321.20 433.02 329.05 C 431.00 330.85 428.62 332.13 426.20 333.29 C 429.40 327.87 432.06 322.11 433.83 316.06 Z" />
<path fill="#30533d" opacity="1.00" d=" M 404.88 310.32 C 410.74 309.73 416.60 309.12 422.43 308.31 C 422.39 314.45 421.19 320.63 418.50 326.18 C 413.97 320.89 409.19 315.80 404.88 310.32 Z" />
<path fill="#30533d" opacity="1.00" d=" M 249.79 328.60 C 252.97 333.36 255.47 338.56 259.13 343.00 C 265.15 350.77 273.45 356.93 283.11 359.25 C 279.75 365.25 276.06 371.06 271.99 376.60 C 268.71 374.83 265.56 372.68 263.43 369.56 C 256.91 360.54 253.75 349.64 251.26 338.93 C 250.41 335.55 250.01 332.08 249.79 328.60 Z" />
<path fill="#30533d" opacity="1.00" d=" M 397.18 358.35 C 403.53 355.72 409.39 351.95 414.43 347.27 C 422.96 349.73 431.69 351.34 440.25 353.68 C 435.84 355.40 431.23 356.47 426.64 357.57 C 418.85 359.43 411.16 361.70 403.29 363.23 C 401.89 360.91 399.45 359.64 397.18 358.35 Z" />
<path fill="#30533d" opacity="1.00" d=" M 229.13 374.32 C 228.64 365.98 226.14 357.87 226.19 349.49 C 230.06 359.22 233.44 369.18 238.50 378.38 C 242.42 385.54 246.72 392.96 253.68 397.56 C 249.52 401.70 245.03 405.49 240.64 409.37 C 237.01 397.62 232.36 386.19 229.13 374.32 Z" />
<path fill="#30533d" opacity="1.00" d=" M 346.82 364.95 C 354.04 363.99 361.35 363.92 368.63 363.76 C 372.68 367.76 377.44 370.97 381.47 375.01 C 373.59 374.21 365.77 372.91 357.92 371.86 C 354.08 371.45 352.38 367.42 350.03 364.89 C 349.23 364.91 347.62 364.94 346.82 364.95 Z" />
<path fill="#30533d" opacity="1.00" d=" M 330.95 367.26 C 335.81 366.36 340.71 365.68 345.61 365.08 C 348.37 369.79 351.70 374.14 354.34 378.92 C 347.40 377.29 340.52 375.41 333.69 373.37 C 332.80 371.33 331.86 369.30 330.95 367.26 Z" />
<path fill="#30533d" opacity="1.00" d=" M 313.78 371.98 C 317.00 370.88 320.27 369.95 323.56 369.07 C 325.87 373.80 328.50 378.36 330.97 383.01 C 327.95 382.05 324.88 381.22 321.94 380.06 C 318.16 378.69 316.23 374.88 313.78 371.98 Z" />
<path fill="#30533d" opacity="1.00" d=" M 297.96 378.87 C 300.41 377.57 302.91 376.37 305.44 375.23 C 306.57 379.22 307.89 383.16 309.28 387.07 C 306.40 386.55 303.42 386.27 300.68 385.20 C 299.36 383.29 298.76 381.01 297.96 378.87 Z" />
<path fill="#30533d" opacity="1.00" d=" M 281.61 390.43 C 283.37 388.87 285.23 387.43 287.10 386.02 C 287.98 388.79 288.76 391.59 289.40 394.43 C 286.76 393.18 284.17 391.84 281.61 390.43 Z" />
</g>
</svg>
