<?xml version="1.0" encoding="UTF-8" ?>
<!DOCTYPE svg PUBLIC "-//W3C//DTD SVG 1.1//EN" "http://www.w3.org/Graphics/SVG/1.1/DTD/svg11.dtd">
<svg width="502pt" height="504pt" viewBox="0 0 502 504" version="1.1" xmlns="http://www.w3.org/2000/svg">
<g id="#312f30ff">
<path fill="#312f30" opacity="1.00" d=" M 241.57 0.09 C 252.03 17.85 267.68 32.02 284.80 43.23 C 298.29 51.80 312.02 60.31 327.14 65.74 C 339.21 70.10 352.14 72.00 364.96 71.53 C 374.99 71.14 385.09 67.39 392.19 60.16 C 398.20 54.20 401.72 45.99 402.13 37.56 C 408.25 40.90 411.58 47.49 413.20 54.02 C 415.32 62.18 415.32 70.69 415.03 79.06 C 414.17 99.39 411.31 119.57 407.67 139.58 C 413.80 135.78 418.65 130.31 422.75 124.45 C 423.34 145.36 421.21 166.48 415.24 186.58 C 425.94 171.55 434.16 153.77 434.13 135.01 C 433.73 124.58 432.82 114.18 432.16 103.76 C 428.97 106.80 425.90 109.96 422.77 113.06 C 425.26 103.55 428.23 93.97 428.33 84.07 C 427.38 72.13 423.83 60.60 420.89 49.05 C 432.35 61.26 443.02 74.76 449.17 90.50 C 447.28 92.42 445.12 94.13 443.59 96.37 C 443.29 109.90 443.70 123.45 443.38 136.98 C 442.19 166.61 433.32 195.83 418.27 221.35 C 403.08 247.18 381.69 269.11 357.12 286.13 C 366.40 277.08 375.28 267.58 383.34 257.42 C 388.46 250.80 393.36 243.84 396.26 235.93 C 393.08 239.61 389.34 242.79 385.04 245.09 C 391.46 234.83 397.56 223.67 398.24 211.32 C 390.12 234.75 374.29 254.67 356.01 271.06 C 333.00 291.60 306.28 307.70 278.15 320.18 C 261.97 327.21 245.24 333.34 227.82 336.39 C 215.30 338.71 202.11 336.90 190.62 331.46 C 187.08 329.59 183.27 327.35 181.55 323.55 C 180.36 319.22 180.02 313.27 184.51 310.70 C 185.77 317.81 192.24 322.44 199.07 323.44 C 214.04 325.87 229.28 321.82 242.98 315.89 C 271.11 303.37 293.11 280.23 309.45 254.60 C 305.35 256.96 300.99 258.81 296.46 260.18 C 302.52 254.10 305.98 245.61 305.71 237.01 C 305.27 219.00 303.55 201.06 301.94 183.13 C 303.85 183.88 305.79 184.91 307.92 184.71 C 309.74 183.92 310.64 181.99 311.58 180.37 C 314.46 174.67 316.30 168.45 317.16 162.12 C 325.29 163.39 333.42 164.63 341.55 165.88 C 342.23 151.88 347.23 137.28 358.42 128.22 C 364.75 128.18 371.07 128.21 377.40 128.21 C 378.32 124.06 379.18 119.86 380.78 115.91 C 382.09 112.63 384.16 109.73 385.46 106.44 C 387.02 102.52 387.90 98.37 388.80 94.26 C 392.18 94.23 395.58 94.49 398.95 94.06 C 401.19 92.35 402.03 89.49 402.66 86.87 C 404.12 80.07 403.78 73.06 403.88 66.14 C 402.13 72.26 400.27 79.00 395.16 83.21 C 390.16 87.16 382.76 82.19 377.95 85.98 C 376.83 94.22 377.48 103.28 372.55 110.52 C 367.69 118.34 357.86 120.72 349.22 120.62 C 346.18 126.97 344.22 133.75 341.18 140.09 C 338.57 145.44 336.36 150.98 334.03 156.45 C 326.52 155.12 318.98 153.96 311.45 152.69 C 310.93 162.09 308.22 173.73 298.26 177.29 C 296.88 173.84 295.85 170.20 293.88 167.03 C 291.12 163.69 286.56 162.51 283.74 159.24 C 281.65 155.82 280.51 151.93 278.64 148.41 C 274.52 140.12 269.23 131.78 261.01 127.06 C 255.15 123.37 247.07 125.23 242.04 119.95 C 236.20 113.82 237.69 104.66 237.58 96.94 C 238.38 88.24 236.33 79.66 236.00 71.01 C 238.47 65.76 243.52 61.88 244.94 56.07 C 246.21 50.48 244.38 44.87 242.05 39.84 C 239.76 34.04 248.19 30.76 247.03 25.07 C 245.91 20.25 243.62 15.81 241.56 11.34 C 241.47 14.88 241.85 18.46 241.30 21.97 C 239.59 26.41 234.80 29.23 234.05 34.06 C 235.01 39.64 240.20 44.00 239.57 49.98 C 238.08 56.09 234.04 61.08 230.53 66.14 C 231.49 72.79 234.29 79.29 233.90 86.13 C 233.27 90.15 230.49 93.69 230.74 97.87 C 232.40 100.91 234.19 103.97 234.14 107.58 C 230.33 107.20 226.71 105.80 223.91 103.15 C 216.38 96.85 205.93 97.72 196.83 98.85 C 185.28 100.47 173.09 103.17 164.14 111.14 C 158.71 103.53 153.29 95.89 147.29 88.72 C 138.76 80.84 130.58 71.98 119.62 67.48 C 103.68 58.10 86.55 50.93 69.07 44.96 C 53.35 39.56 39.16 29.20 30.16 15.13 C 43.14 22.92 56.22 31.62 71.40 34.34 C 85.76 37.01 100.47 38.33 115.06 37.34 C 135.33 35.47 155.64 33.99 176.00 33.95 C 192.19 33.94 209.00 31.48 223.07 23.00 C 231.68 17.87 238.78 9.84 241.57 0.09 Z" />
<path fill="#312f30" opacity="1.00" d=" M 173.30 111.29 C 183.05 106.26 194.06 103.21 205.08 103.86 C 210.57 105.30 214.74 109.45 218.93 113.04 C 221.97 112.17 225.07 111.56 228.20 111.14 C 228.69 115.53 230.22 119.70 232.60 123.40 C 234.83 126.95 235.47 131.40 238.35 134.54 C 241.09 136.88 244.97 135.33 247.61 133.62 C 250.33 131.72 254.04 131.38 256.90 133.18 C 264.06 137.25 268.94 144.34 272.22 151.73 C 274.37 156.59 279.85 158.12 283.68 161.28 C 286.96 163.84 289.08 167.56 290.56 171.40 C 294.15 181.01 297.63 190.76 298.98 200.98 C 300.88 215.29 300.31 230.00 296.83 244.03 C 295.11 251.22 293.95 258.69 290.19 265.19 C 286.21 273.18 280.04 279.71 274.88 286.90 C 266.34 294.57 255.28 298.99 247.27 307.29 C 237.99 315.38 225.08 318.26 213.03 317.17 C 208.18 316.79 203.01 314.30 201.68 309.24 C 206.39 311.38 212.45 314.89 217.35 311.30 C 223.49 306.86 228.89 300.94 231.80 293.89 C 232.71 288.12 230.06 282.51 228.39 277.10 C 235.46 275.50 242.60 273.98 249.35 271.29 C 253.48 269.70 256.70 266.48 260.76 264.78 C 263.80 263.58 267.56 264.54 270.18 262.30 C 273.85 259.27 275.94 254.81 277.48 250.42 C 279.37 245.06 279.46 239.16 282.11 234.06 C 283.53 231.23 285.43 228.34 284.89 225.01 C 284.69 221.06 280.96 218.12 281.27 214.12 C 282.59 210.78 286.06 207.89 284.73 203.90 C 282.37 195.57 277.63 188.20 273.50 180.67 C 272.37 181.32 270.51 182.21 271.47 183.83 C 273.49 188.78 276.14 193.57 276.96 198.93 C 278.24 205.66 276.42 212.38 275.66 219.05 C 275.02 223.47 278.13 227.53 277.23 231.96 C 276.00 239.21 273.65 246.99 267.80 251.86 C 263.39 255.55 257.35 254.17 252.10 254.79 C 246.00 255.46 239.15 256.02 234.40 260.35 C 230.85 263.36 233.33 268.93 230.12 272.08 C 227.60 273.90 224.03 272.71 221.43 274.46 C 218.08 276.61 215.00 279.59 213.53 283.35 C 212.59 287.25 214.72 290.99 216.87 294.09 C 208.20 294.02 199.54 294.12 190.87 294.03 C 186.60 288.54 178.51 289.83 173.68 293.82 C 172.15 292.20 170.47 290.17 167.99 290.33 C 164.47 290.50 162.34 293.76 160.11 296.07 C 154.81 291.77 156.01 282.91 161.96 279.82 C 163.88 278.21 166.12 279.58 167.95 280.56 C 169.26 279.99 170.50 279.11 171.96 278.97 C 173.69 279.65 174.56 281.46 175.72 282.79 C 180.02 282.73 184.04 281.24 188.02 279.78 C 192.43 278.24 198.06 280.39 201.54 276.52 C 204.18 274.10 203.69 270.25 204.40 267.05 C 205.25 262.17 207.80 257.76 211.36 254.36 C 214.09 252.19 212.40 248.12 214.64 245.69 C 218.13 241.61 223.56 239.41 228.88 239.42 C 235.00 239.28 241.22 239.53 247.23 238.18 C 249.82 237.78 251.18 235.37 252.41 233.33 C 255.68 227.57 258.17 221.40 260.23 215.11 C 261.52 210.91 262.93 206.47 261.92 202.06 C 260.29 194.28 257.07 186.92 255.48 179.13 C 254.34 173.52 254.92 167.78 254.74 162.11 C 251.19 168.36 247.48 174.69 245.73 181.73 C 245.18 184.54 245.00 187.83 246.77 190.26 C 248.81 192.06 251.17 189.75 252.95 188.71 C 252.29 195.89 254.48 203.93 250.40 210.39 C 248.12 214.09 242.84 212.05 240.06 215.06 C 237.07 218.17 235.70 222.77 236.05 227.02 C 237.29 230.77 240.71 233.12 243.41 235.78 C 238.98 235.91 234.42 235.70 230.33 233.84 C 224.59 231.52 221.40 225.62 215.90 222.95 C 213.38 221.61 210.79 223.31 208.62 224.52 C 205.16 226.64 201.73 229.07 199.33 232.40 C 197.63 234.87 198.61 238.99 195.37 240.33 C 192.52 241.98 188.01 239.88 186.26 243.29 C 183.57 246.97 182.70 252.69 178.01 254.41 C 172.67 254.54 166.31 252.05 164.41 246.65 C 163.45 240.90 167.01 234.79 172.33 232.47 C 180.93 228.92 184.88 218.48 194.39 216.53 C 194.39 213.47 194.39 210.42 194.39 207.36 C 198.14 208.61 201.89 209.85 205.64 211.11 C 205.31 205.30 205.57 199.29 207.85 193.87 C 209.78 189.13 214.18 186.12 216.97 181.96 C 220.59 176.86 223.99 170.44 222.05 164.03 C 219.84 155.65 216.45 147.65 213.33 139.58 C 208.69 144.25 203.52 149.03 196.91 150.53 C 192.84 151.64 189.18 147.94 185.12 149.18 C 181.82 150.15 179.52 152.93 177.80 155.75 C 175.83 159.04 172.80 161.57 171.12 165.04 C 167.30 172.71 166.46 181.41 163.25 189.29 C 161.94 192.58 157.21 192.71 156.28 196.23 C 154.36 202.11 153.55 208.57 149.69 213.61 C 147.56 216.78 144.00 219.05 142.98 222.89 C 141.57 228.31 142.32 234.00 143.41 239.41 C 148.45 241.88 153.46 244.42 158.49 246.92 C 153.34 249.51 147.95 251.83 143.47 255.53 C 142.60 256.43 141.15 257.43 141.60 258.89 C 142.24 263.13 144.76 266.82 145.21 271.11 C 145.59 272.81 145.52 274.85 146.92 276.12 C 148.88 277.58 151.19 275.92 153.17 275.38 C 152.96 278.35 152.75 282.10 149.70 283.65 C 145.32 285.55 140.31 284.51 135.91 283.16 C 133.17 282.07 130.33 283.55 128.20 285.23 C 124.07 288.46 120.84 293.00 115.72 294.82 C 110.02 296.67 107.75 302.86 106.36 308.13 C 105.32 311.48 106.48 315.95 103.37 318.35 C 99.38 320.93 94.72 316.73 90.59 318.69 C 88.81 319.47 87.65 321.69 88.51 323.55 C 90.17 327.67 92.47 331.50 94.34 335.53 C 85.60 334.15 76.87 332.64 68.08 331.57 C 62.26 330.82 56.18 331.38 50.63 329.21 C 45.79 327.23 42.55 322.92 39.66 318.77 C 45.86 320.24 52.51 321.30 58.77 319.61 C 61.61 318.82 62.53 315.65 62.26 313.01 C 61.96 306.06 61.12 299.15 60.37 292.24 C 63.55 295.60 66.73 299.27 71.12 301.06 C 74.46 302.36 78.03 301.11 81.23 299.99 C 83.57 301.56 85.99 303.60 88.99 303.46 C 92.89 303.07 96.43 301.26 99.99 299.77 C 96.77 290.02 94.48 279.88 94.35 269.57 C 100.00 272.68 105.64 275.80 111.26 278.97 C 109.57 272.85 109.00 266.31 111.03 260.21 C 114.60 263.83 119.46 265.72 124.51 265.90 C 121.75 261.39 118.51 256.60 118.96 251.06 C 119.48 241.46 120.57 231.90 120.84 222.29 C 124.92 224.38 128.02 227.81 130.31 231.73 C 129.58 224.91 127.10 217.91 129.29 211.12 C 131.61 203.55 135.87 196.76 140.34 190.28 C 141.99 188.21 141.57 185.40 142.15 182.97 C 142.94 177.95 146.49 174.07 148.52 169.55 C 153.28 159.34 154.49 147.92 154.76 136.79 C 152.41 148.60 147.32 160.14 138.70 168.72 C 133.93 172.57 134.24 179.31 132.17 184.63 C 132.04 178.93 132.20 173.23 132.03 167.54 C 129.86 169.43 128.45 171.98 128.35 174.89 C 127.99 180.93 123.84 185.58 120.91 190.55 C 119.88 199.29 119.71 208.13 118.82 216.90 C 115.62 212.30 114.19 206.84 113.11 201.42 C 111.80 202.14 109.85 202.61 109.73 204.41 C 109.01 209.06 106.44 213.01 103.85 216.82 C 104.98 222.34 105.53 227.96 105.79 233.58 C 103.24 229.93 99.66 226.39 94.93 226.22 C 91.35 226.11 88.76 229.07 86.63 231.56 C 82.91 236.24 79.98 241.50 77.41 246.88 C 76.46 241.59 75.78 235.87 72.50 231.42 C 70.74 229.04 67.47 230.15 65.35 231.36 C 57.17 236.03 52.96 245.55 52.68 254.70 C 47.23 252.86 43.99 247.85 41.41 243.04 C 35.15 243.75 30.28 248.50 28.24 254.28 C 19.81 254.24 12.84 259.77 7.47 265.72 C 8.98 260.38 11.04 255.05 14.90 250.94 C 17.06 248.87 17.57 245.87 18.28 243.11 C 19.09 239.93 22.32 238.32 25.03 237.00 C 34.17 233.08 43.98 230.68 52.64 225.67 C 56.79 223.25 60.53 219.76 62.16 215.14 C 66.53 203.80 75.94 195.65 83.54 186.53 C 87.00 182.41 87.97 176.95 88.89 171.82 C 90.79 159.35 90.80 146.67 90.31 134.09 C 90.15 127.03 86.83 120.64 83.07 114.86 C 94.83 119.29 103.85 129.67 107.17 141.71 C 110.25 151.40 109.25 161.66 109.52 171.66 C 117.74 162.24 119.00 149.01 118.85 137.02 C 118.72 130.88 117.97 124.77 117.08 118.70 C 124.85 122.07 131.93 128.76 132.35 137.71 C 136.10 134.79 138.87 130.56 139.42 125.78 C 140.20 118.27 138.65 110.70 136.04 103.68 C 142.15 108.26 147.81 113.73 151.15 120.70 C 153.24 119.19 155.08 117.38 156.61 115.30 C 158.80 116.07 161.24 117.54 163.61 116.49 C 166.97 115.02 170.00 112.89 173.30 111.29 Z" />
<path fill="#312f30" opacity="1.00" d=" M 458.69 135.63 C 459.89 125.17 458.14 114.74 457.05 104.36 C 462.24 116.46 466.67 128.99 468.94 142.00 C 470.83 152.54 469.53 163.30 467.86 173.77 C 463.52 199.16 454.56 223.66 442.35 246.30 C 432.91 263.54 421.67 279.88 408.27 294.29 C 389.54 313.99 366.59 329.24 342.43 341.48 C 324.76 350.36 306.32 357.77 287.28 363.17 C 279.65 365.19 271.92 367.30 263.98 367.53 C 254.42 367.48 244.64 366.17 235.93 362.00 C 265.60 362.45 294.26 351.91 319.96 337.82 C 343.90 324.52 366.02 307.79 384.78 287.81 C 391.06 281.01 396.82 273.77 402.72 266.66 C 412.89 254.33 423.01 241.77 430.50 227.57 C 446.56 197.80 448.87 163.15 449.19 129.99 C 452.61 131.41 455.82 133.29 458.69 135.63 Z" />
<path fill="#312f30" opacity="1.00" d=" M 479.45 113.43 C 488.97 135.86 496.33 159.58 498.00 184.01 C 498.53 199.95 498.23 216.10 494.75 231.73 C 490.47 250.48 484.21 268.70 477.86 286.83 C 464.25 324.81 441.30 359.36 411.50 386.56 C 403.19 394.00 394.91 401.74 384.95 406.96 C 370.79 414.57 355.47 419.67 340.14 424.35 C 316.28 431.40 291.95 436.78 267.47 441.24 C 246.79 444.92 225.99 448.09 205.05 449.87 C 189.51 451.32 173.83 450.06 158.50 447.32 C 145.11 444.74 131.77 441.30 119.30 435.68 C 110.74 431.77 103.23 425.51 98.30 417.45 C 100.78 419.76 103.95 420.97 107.34 420.69 C 105.34 417.12 102.49 414.13 100.46 410.58 C 92.95 398.47 89.27 383.55 92.40 369.46 C 94.03 373.22 95.50 377.13 98.14 380.32 C 98.32 364.73 106.17 350.19 116.92 339.28 C 112.21 352.62 109.59 367.30 112.84 381.28 C 116.57 396.57 127.66 409.17 140.99 417.08 C 157.84 427.17 177.53 431.27 196.90 432.85 C 225.28 434.85 254.01 432.43 281.60 425.44 C 305.42 419.33 328.05 409.28 349.77 397.88 C 376.93 383.08 402.83 364.24 420.65 338.56 C 433.87 319.69 441.39 296.54 439.83 273.40 C 444.52 282.73 447.05 293.08 447.35 303.51 C 466.58 276.15 473.35 241.99 473.79 209.06 C 476.43 211.14 478.27 213.96 479.69 216.98 C 485.71 213.21 487.08 205.59 486.88 199.02 C 486.43 186.42 482.96 174.20 479.42 162.18 C 484.82 146.45 482.67 129.38 479.45 113.43 Z" />
<path fill="#312f30" opacity="1.00" d=" M 32.12 201.69 C 39.18 205.44 47.28 208.23 52.73 214.31 C 53.25 218.72 48.38 223.43 44.04 222.06 C 42.43 220.08 41.82 217.52 40.74 215.25 C 38.67 210.27 35.46 205.88 32.12 201.69 Z" />
<path fill="#312f30" opacity="1.00" d=" M 147.07 233.82 C 147.66 228.91 150.10 224.55 152.82 220.53 C 156.18 222.83 159.41 225.34 162.37 228.14 C 158.14 231.84 152.60 233.49 147.07 233.82 Z" />
<path fill="#312f30" opacity="1.00" d=" M 86.93 239.03 C 85.91 234.25 90.67 230.50 94.95 229.99 C 99.37 230.31 100.13 235.59 99.72 239.08 C 99.48 246.45 95.58 252.98 90.70 258.27 C 90.62 251.64 88.05 245.47 86.93 239.03 Z" />
<path fill="#312f30" opacity="1.00" d=" M 199.81 240.04 C 201.61 236.02 205.89 234.10 209.38 231.82 C 207.90 234.74 205.99 237.64 205.76 241.00 C 205.72 244.34 206.72 247.55 207.54 250.75 C 204.54 247.62 200.16 244.72 199.81 240.04 Z" />
<path fill="#312f30" opacity="1.00" d=" M 58.53 247.03 C 58.26 242.35 62.39 237.74 67.03 237.60 C 70.80 238.74 71.28 243.25 71.79 246.55 C 65.74 251.27 68.37 259.58 69.72 265.86 C 63.83 261.32 58.72 254.75 58.53 247.03 Z" />
<path fill="#312f30" opacity="1.00" d=" M 188.62 247.68 C 191.27 245.75 195.57 247.68 195.90 250.98 C 196.68 256.49 196.10 262.09 196.26 267.64 C 193.07 264.25 188.87 261.35 187.53 256.66 C 186.66 253.75 186.31 250.02 188.62 247.68 Z" />
<path fill="#312f30" opacity="1.00" d=" M 37.59 250.74 C 40.43 253.53 43.49 256.32 45.24 259.96 C 45.78 263.90 42.16 266.34 40.41 269.39 C 38.54 273.57 39.34 278.31 39.48 282.73 C 36.33 277.94 32.91 272.95 32.18 267.12 C 31.67 261.15 34.60 255.66 37.59 250.74 Z" />
<path fill="#312f30" opacity="1.00" d=" M 18.75 260.06 C 21.49 257.83 24.82 256.66 28.29 256.21 C 27.09 260.71 25.81 265.18 24.47 269.64 C 22.05 266.77 20.20 263.50 18.75 260.06 Z" />
<path fill="#312f30" opacity="1.00" d=" M 151.00 256.37 C 156.67 260.11 162.33 263.86 167.94 267.69 C 162.92 268.97 157.90 270.23 152.87 271.43 C 152.23 266.41 151.59 261.40 151.00 256.37 Z" />
<path fill="#312f30" opacity="1.00" d=" M 175.53 264.02 C 174.82 259.96 180.51 258.34 182.68 261.37 C 186.82 266.27 184.22 273.10 183.32 278.70 C 182.87 272.68 176.37 269.71 175.53 264.02 Z" />
<path fill="#312f30" opacity="1.00" d=" M 7.55 275.99 C 7.08 271.03 10.45 265.96 14.96 263.98 C 16.37 263.91 16.58 265.77 17.14 266.72 C 19.59 273.73 18.32 281.39 20.70 288.44 C 15.60 285.30 9.53 282.03 7.55 275.99 Z" />
<path fill="#312f30" opacity="1.00" d=" M 64.02 279.14 C 67.36 281.50 70.89 283.92 75.06 284.42 C 81.07 285.20 86.97 283.17 92.47 280.96 C 92.62 286.64 93.11 292.32 94.31 297.88 C 87.17 297.46 79.73 297.06 73.22 293.82 C 67.86 290.86 65.65 284.68 64.02 279.14 Z" />
<path fill="#312f30" opacity="1.00" d=" M 344.63 356.63 C 377.13 339.02 405.75 314.40 428.15 285.00 C 415.74 308.86 401.90 332.62 382.04 351.12 C 371.17 361.25 358.29 369.18 344.41 374.46 C 328.81 380.44 312.31 383.59 295.86 386.20 C 288.29 387.44 280.82 384.89 273.67 382.71 C 298.54 377.96 322.40 368.64 344.63 356.63 Z" />
<path fill="#312f30" opacity="1.00" d=" M 120.78 296.08 C 124.28 293.32 127.55 290.25 130.20 286.65 C 135.52 293.50 144.22 296.91 152.79 296.19 C 147.66 299.07 141.94 301.30 135.96 300.93 C 130.54 300.83 125.40 298.78 120.78 296.08 Z" />
<path fill="#312f30" opacity="1.00" d=" M 456.91 365.93 C 472.06 342.06 483.20 315.01 485.09 286.57 C 489.51 299.89 488.28 314.23 486.94 327.97 C 491.36 321.01 495.18 313.66 498.10 305.94 C 494.59 325.59 488.99 344.88 481.39 363.34 C 474.23 380.43 465.26 397.02 452.81 410.86 C 444.08 420.73 433.09 428.30 421.58 434.56 C 403.40 444.41 383.81 451.36 364.01 457.14 C 319.49 469.70 273.28 476.46 227.02 476.89 C 198.94 476.85 170.80 476.03 142.93 472.43 C 125.52 470.06 108.07 466.75 91.71 460.18 C 79.06 455.06 67.12 447.35 58.65 436.50 C 54.33 430.88 51.36 423.76 52.64 416.56 C 54.77 424.23 59.92 431.43 67.88 433.71 C 62.96 422.95 61.33 410.58 64.48 399.07 C 68.36 384.58 77.45 371.93 88.54 362.02 C 81.48 373.98 75.89 387.79 77.74 401.94 C 79.21 415.84 87.03 428.45 97.58 437.36 C 111.62 449.34 129.31 456.09 147.09 460.26 C 175.22 466.87 204.34 465.88 233.02 464.96 C 254.38 463.95 276.42 462.21 296.00 452.86 C 304.13 449.06 311.64 444.13 319.08 439.15 C 319.85 443.72 318.96 448.31 317.14 452.53 C 331.45 451.31 344.90 443.96 354.08 432.99 C 356.47 430.20 358.46 427.11 360.58 424.11 C 361.30 430.66 359.90 437.29 356.74 443.06 C 371.30 438.47 384.04 429.43 394.98 418.96 C 405.07 409.34 413.44 398.10 420.94 386.39 C 423.27 394.40 422.72 402.90 420.88 410.94 C 434.53 397.35 446.60 382.20 456.91 365.93 Z" />
<path fill="#312f30" opacity="1.00" d=" M 167.36 293.40 C 169.89 293.16 171.36 295.93 171.60 298.10 C 172.35 304.69 167.92 310.47 167.99 316.99 C 168.14 321.52 170.03 325.71 171.59 329.89 C 164.31 323.77 160.17 314.44 160.41 304.95 C 160.01 300.12 163.13 295.49 167.36 293.40 Z" />
<path fill="#312f30" opacity="1.00" d=" M 34.22 311.74 C 29.88 306.97 28.56 300.37 28.25 294.12 C 31.72 298.49 35.52 303.19 41.01 305.00 C 45.65 305.98 50.40 304.77 54.90 303.63 C 54.86 307.83 54.49 313.01 50.44 315.39 C 45.08 318.21 38.08 316.17 34.22 311.74 Z" />
<path fill="#312f30" opacity="1.00" d=" M 175.86 299.03 C 176.91 295.05 183.29 292.07 186.13 295.86 C 188.03 298.86 185.85 302.42 183.70 304.64 C 180.88 307.53 178.90 311.08 177.25 314.74 C 176.23 309.59 174.90 304.28 175.86 299.03 Z" />
<path fill="#312f30" opacity="1.00" d=" M 323.03 314.93 C 328.91 310.18 333.18 303.88 337.79 297.99 C 335.17 304.83 331.53 311.32 326.55 316.73 C 329.03 315.72 331.47 314.60 333.86 313.37 C 327.22 321.01 319.19 327.39 310.33 332.27 C 283.26 346.32 252.58 353.97 222.00 352.20 C 207.93 351.16 193.56 345.32 184.90 333.79 C 198.93 344.10 216.89 348.12 234.09 346.51 C 256.25 344.58 278.27 335.92 294.49 320.44 C 294.25 323.67 293.65 326.87 292.65 329.95 C 303.78 327.44 314.16 322.06 323.03 314.93 Z" />
<path fill="#312f30" opacity="1.00" d=" M 155.16 350.17 C 155.89 343.93 158.55 336.10 165.83 335.32 C 164.48 345.17 168.71 354.73 174.50 362.46 C 184.83 376.68 202.44 385.01 219.95 384.50 C 238.66 383.90 257.08 380.26 275.48 377.10 C 254.17 388.18 229.80 392.15 205.98 392.05 C 191.00 391.94 175.25 387.39 164.80 376.15 C 158.47 369.22 153.19 359.87 155.16 350.17 Z" />
<path fill="#312f30" opacity="1.00" d=" M 39.68 378.93 C 38.97 369.95 44.69 362.13 50.87 356.24 C 49.12 362.84 47.59 369.88 49.48 376.63 C 50.43 380.28 52.89 383.22 55.16 386.13 C 52.23 388.64 48.33 391.39 44.31 389.66 C 40.38 387.76 39.96 382.76 39.68 378.93 Z" />
<path fill="#312f30" opacity="1.00" d=" M 126.64 380.11 C 127.78 371.38 133.49 364.12 139.59 358.13 C 138.52 364.03 137.31 370.06 138.05 376.07 C 139.47 384.09 145.08 390.72 151.52 395.39 C 161.86 402.75 174.47 406.07 186.89 407.74 C 199.25 409.28 211.83 409.59 224.16 407.67 C 246.11 404.43 267.55 398.49 288.78 392.12 C 283.26 397.00 276.46 400.06 269.67 402.70 C 260.53 406.01 251.21 408.92 241.66 410.75 C 258.52 411.08 275.03 407.11 291.48 403.99 C 279.20 409.87 265.91 413.29 252.56 415.73 C 232.25 419.39 211.54 420.53 190.93 420.30 C 177.57 419.94 164.02 418.89 151.25 414.70 C 143.48 412.05 135.67 407.98 131.04 400.94 C 126.95 394.88 126.00 387.24 126.64 380.11 Z" />
<path fill="#312f30" opacity="1.00" d=" M 439.68 437.70 C 465.14 419.34 487.23 395.76 502.00 367.93 L 502.00 368.28 C 495.18 391.35 485.12 413.46 471.85 433.54 C 482.80 426.57 493.40 418.77 502.00 408.98 L 502.00 409.07 C 496.24 422.30 487.28 434.09 476.04 443.16 C 460.92 455.51 443.05 463.90 425.00 471.03 C 407.88 477.61 390.37 483.18 372.63 487.79 C 327.28 498.88 280.50 502.52 233.96 504.00 L 203.43 504.00 C 171.84 502.95 140.15 501.16 109.04 495.28 C 84.52 490.50 60.17 483.61 37.88 472.14 C 27.95 466.89 18.19 460.84 10.53 452.52 C 6.71 448.29 2.98 442.93 3.93 436.91 C 5.18 426.79 12.74 419.03 20.36 412.96 C 16.12 418.48 12.04 425.34 13.59 432.58 C 14.88 437.56 20.00 439.78 24.42 441.29 C 21.27 435.21 19.49 427.52 23.40 421.35 C 28.99 412.40 39.39 408.22 49.03 405.18 C 43.73 409.13 38.39 413.54 35.49 419.63 C 33.21 424.28 33.79 429.79 35.65 434.47 C 39.15 443.21 46.41 449.77 54.05 454.94 C 66.69 463.27 81.09 468.49 95.59 472.54 C 121.50 479.55 148.26 482.80 174.98 484.65 C 199.27 486.24 223.65 486.67 247.99 486.02 C 293.51 484.51 339.25 478.74 382.71 464.68 C 402.68 458.02 422.30 449.71 439.68 437.70 Z" />
<path fill="#312f30" opacity="1.00" d=" M 21.41 400.89 C 20.05 394.11 20.61 386.68 24.28 380.68 C 24.62 384.30 25.72 387.93 28.55 390.40 C 30.41 392.82 34.12 394.72 34.00 398.07 C 31.66 400.22 28.71 401.62 25.87 403.03 C 24.06 404.11 21.68 402.99 21.41 400.89 Z" />
<path fill="#312f30" opacity="1.00" d=" M 0.00 408.37 C 0.46 404.74 2.96 402.01 5.40 399.52 C 5.10 402.44 4.20 405.61 5.60 408.40 C 6.67 410.78 9.22 411.83 11.27 413.17 C 8.97 415.46 6.64 418.72 2.98 418.45 C 0.63 418.01 0.44 415.38 0.00 413.51 L 0.00 408.37 Z" />
</g>
</svg>
