<?xml version="1.0" encoding="UTF-8" ?>
<!DOCTYPE svg PUBLIC "-//W3C//DTD SVG 1.1//EN" "http://www.w3.org/Graphics/SVG/1.1/DTD/svg11.dtd">
<svg width="496pt" height="490pt" viewBox="0 0 496 490" version="1.1" xmlns="http://www.w3.org/2000/svg">
<g id="#7d673eff">
<path fill="#7d673e" opacity="1.00" d=" M 29.56 0.00 L 33.27 0.00 C 37.88 1.22 42.60 1.99 47.16 3.40 C 48.15 9.63 49.32 15.83 50.53 22.02 C 54.08 17.95 56.51 13.09 59.53 8.65 C 59.46 8.23 59.32 7.40 59.25 6.98 C 63.14 8.06 66.93 9.49 70.60 11.17 C 69.08 15.65 69.69 20.41 69.64 25.04 C 69.60 29.49 69.56 33.94 69.93 38.37 C 75.97 32.23 80.93 25.12 86.52 18.58 C 87.80 19.22 89.07 19.89 90.34 20.57 C 84.91 36.53 78.18 52.38 67.59 65.65 C 61.39 46.18 52.28 27.47 39.84 11.21 C 36.66 7.27 33.61 3.11 29.56 0.00 Z" />
<path fill="#7d673e" opacity="1.00" d=" M 463.50 0.00 L 466.13 0.00 C 455.03 10.77 446.65 24.02 439.69 37.73 C 435.30 46.77 431.29 56.04 428.41 65.67 C 417.82 52.39 411.10 36.54 405.65 20.58 C 406.92 19.91 408.20 19.24 409.49 18.60 C 415.01 25.17 420.06 32.18 426.06 38.32 C 426.41 34.21 426.44 30.09 426.36 25.97 C 426.21 21.04 426.99 15.98 425.40 11.20 C 428.72 9.67 432.14 8.33 435.66 7.31 C 438.97 12.20 441.69 17.48 445.32 22.15 C 446.60 15.93 447.86 9.70 448.85 3.43 C 453.66 2.00 458.59 1.05 463.50 0.00 Z" />
<path fill="#7d673e" opacity="1.00" d=" M 174.45 26.17 C 177.25 27.51 180.04 28.86 182.81 30.26 C 181.43 33.36 180.42 36.60 179.72 39.91 C 178.30 46.33 176.39 52.63 175.12 59.09 C 181.50 53.83 186.72 47.35 192.97 41.95 C 192.13 52.38 189.34 62.52 188.07 72.88 C 193.28 69.73 197.62 65.38 202.80 62.19 C 203.72 72.72 204.08 83.30 204.78 93.85 C 192.65 86.01 180.44 78.28 167.98 70.96 C 161.14 67.02 154.28 63.00 146.91 60.11 C 148.64 51.38 150.42 42.66 152.13 33.92 C 155.28 33.16 158.46 32.54 161.67 32.07 C 161.84 38.45 161.32 44.84 162.07 51.19 C 166.55 43.04 170.87 34.75 174.45 26.17 Z" />
<path fill="#7d673e" opacity="1.00" d=" M 313.26 30.25 C 316.03 28.89 318.81 27.52 321.60 26.18 C 325.03 34.76 329.58 42.86 333.74 51.10 C 334.87 44.81 334.14 38.42 334.33 32.07 C 337.54 32.54 340.74 33.16 343.90 33.91 C 345.52 42.66 347.39 51.36 349.08 60.10 C 343.99 62.10 339.17 64.70 334.39 67.34 C 319.66 75.61 305.46 84.78 291.22 93.85 C 291.87 83.40 292.32 72.93 293.14 62.49 C 298.37 65.50 302.97 69.43 307.91 72.87 C 306.71 62.48 303.79 52.36 302.99 41.93 C 309.20 47.40 314.54 53.78 320.86 59.12 C 320.00 54.49 318.77 49.93 317.57 45.38 C 316.21 40.32 315.40 35.08 313.26 30.25 Z" />
</g>
<g id="#997c45ff">
<path fill="#997c45" opacity="1.00" d=" M 47.16 3.40 C 51.18 4.61 55.21 5.83 59.25 6.98 C 59.32 7.40 59.46 8.23 59.53 8.65 C 56.51 13.09 54.08 17.95 50.53 22.02 C 49.32 15.83 48.15 9.63 47.16 3.40 Z" />
<path fill="#997c45" opacity="1.00" d=" M 435.66 7.31 C 440.06 6.03 444.46 4.76 448.85 3.43 C 447.86 9.70 446.60 15.93 445.32 22.15 C 441.69 17.48 438.97 12.20 435.66 7.31 Z" />
<path fill="#997c45" opacity="1.00" d=" M 69.64 25.04 C 69.69 20.41 69.08 15.65 70.60 11.17 C 75.97 13.50 81.29 15.95 86.52 18.58 C 80.93 25.12 75.97 32.23 69.93 38.37 C 69.56 33.94 69.60 29.49 69.64 25.04 Z" />
<path fill="#997c45" opacity="1.00" d=" M 409.49 18.60 C 414.72 15.99 420.02 13.51 425.40 11.20 C 426.99 15.98 426.21 21.04 426.36 25.97 C 426.44 30.09 426.41 34.21 426.06 38.32 C 420.06 32.18 415.01 25.17 409.49 18.60 Z" />
<path fill="#997c45" opacity="1.00" d=" M 157.85 18.78 C 163.41 21.19 168.93 23.68 174.45 26.17 C 170.87 34.75 166.55 43.04 162.07 51.19 C 161.32 44.84 161.84 38.45 161.67 32.07 C 158.46 32.54 155.28 33.16 152.13 33.92 C 154.04 28.88 155.91 23.82 157.85 18.78 Z" />
<path fill="#997c45" opacity="1.00" d=" M 321.60 26.18 C 327.11 23.71 332.63 21.26 338.15 18.80 C 340.09 23.83 341.92 28.89 343.90 33.91 C 340.74 33.16 337.54 32.54 334.33 32.07 C 334.14 38.42 334.87 44.81 333.74 51.10 C 329.58 42.86 325.03 34.76 321.60 26.18 Z" />
<path fill="#997c45" opacity="1.00" d=" M 179.72 39.91 C 180.42 36.60 181.43 33.36 182.81 30.26 C 188.08 33.01 193.01 37.20 195.03 42.96 C 197.52 49.41 200.56 55.64 202.80 62.19 C 197.62 65.38 193.28 69.73 188.07 72.88 C 189.34 62.52 192.13 52.38 192.97 41.95 C 186.72 47.35 181.50 53.83 175.12 59.09 C 176.39 52.63 178.30 46.33 179.72 39.91 Z" />
<path fill="#997c45" opacity="1.00" d=" M 304.72 36.71 C 307.12 34.04 310.04 31.86 313.26 30.25 C 315.40 35.08 316.21 40.32 317.57 45.38 C 318.77 49.93 320.00 54.49 320.86 59.12 C 314.54 53.78 309.20 47.40 302.99 41.93 C 303.79 52.36 306.71 62.48 307.91 72.87 C 302.97 69.43 298.37 65.50 293.14 62.49 C 294.61 57.47 297.05 52.81 298.93 47.94 C 300.64 44.11 301.72 39.81 304.72 36.71 Z" />
<path fill="#997c45" opacity="1.00" d=" M 231.16 275.02 C 237.68 278.09 245.06 277.90 252.11 277.73 C 256.47 277.62 260.85 276.88 264.84 275.01 C 264.38 280.21 262.17 285.63 257.58 288.49 C 252.26 291.67 245.30 291.81 239.72 289.22 C 234.37 286.64 231.61 280.71 231.16 275.02 Z" />
</g>
<g id="#6788a8ff">
<path fill="#6788a8" opacity="1.00" d=" M 90.34 20.57 C 107.23 19.47 124.08 17.80 140.99 17.01 C 146.65 16.78 152.45 16.89 157.85 18.78 C 155.91 23.82 154.04 28.88 152.13 33.92 C 138.59 42.04 126.75 52.55 114.88 62.86 C 104.24 72.53 93.59 82.26 83.98 92.97 C 101.29 85.84 119.64 81.17 138.24 79.11 C 129.84 88.38 120.42 96.68 111.70 105.64 C 100.67 115.61 90.38 126.35 79.67 136.67 C 77.55 138.68 75.55 140.83 73.66 143.08 C 76.02 142.65 78.36 142.17 80.68 141.56 C 91.62 138.53 102.86 136.75 114.03 134.78 C 120.80 133.84 127.48 132.14 134.34 131.87 C 130.46 136.79 125.61 140.81 121.30 145.33 C 107.99 158.85 94.32 172.02 81.18 185.69 C 102.08 181.94 122.87 177.59 143.73 173.64 C 143.88 172.94 144.18 171.55 144.32 170.85 C 144.54 172.13 144.81 173.40 145.07 174.68 C 150.13 175.41 155.17 176.24 160.22 177.01 C 166.98 187.61 173.55 198.33 180.26 208.96 C 179.70 209.96 179.14 210.95 178.59 211.95 C 165.91 207.49 153.65 201.95 141.06 197.26 C 142.15 205.43 143.28 213.61 144.87 221.70 C 146.32 227.64 148.84 233.23 151.14 238.87 C 154.63 246.81 158.34 254.80 163.94 261.51 C 161.05 266.81 158.25 272.16 155.38 277.48 C 144.62 269.73 132.11 261.60 128.26 248.11 C 127.05 237.46 128.33 226.64 129.57 216.03 C 124.12 225.11 118.14 234.98 118.47 245.92 C 118.49 252.65 125.52 256.56 126.09 262.98 C 124.83 270.70 119.42 276.84 115.06 283.05 C 117.94 270.29 115.39 256.26 106.86 246.14 C 96.62 234.13 82.24 225.46 75.07 210.98 C 70.74 202.52 71.76 192.80 72.99 183.73 C 71.02 185.51 69.00 187.38 67.95 189.89 C 64.36 197.92 64.16 206.88 63.79 215.52 C 55.48 203.21 47.46 190.70 39.45 178.19 C 45.81 159.85 51.46 141.26 58.40 123.12 C 59.58 119.76 61.52 116.63 62.07 113.07 C 61.59 112.03 60.97 111.06 60.31 110.13 C 65.92 96.06 68.22 80.75 67.59 65.65 C 78.18 52.38 84.91 36.53 90.34 20.57 Z" />
<path fill="#6788a8" opacity="1.00" d=" M 338.15 18.80 C 344.45 16.54 351.27 16.82 357.85 17.14 C 373.80 18.06 389.72 19.38 405.65 20.58 C 411.10 36.54 417.82 52.39 428.41 65.67 C 427.76 80.76 430.06 96.08 435.70 110.14 C 434.77 111.55 433.24 113.07 434.29 114.85 C 442.85 135.54 449.20 157.05 456.56 178.17 C 448.57 190.74 440.44 203.22 432.20 215.62 C 431.83 206.95 431.64 197.95 428.04 189.89 C 427.00 187.38 424.98 185.52 423.00 183.75 C 423.50 189.16 424.56 194.58 423.94 200.04 C 423.33 207.00 420.22 213.54 415.91 218.97 C 409.18 227.50 400.67 234.37 392.91 241.93 C 385.86 248.83 380.94 258.08 379.99 267.97 C 379.38 273.02 380.19 278.08 380.95 283.06 C 376.58 276.87 371.19 270.73 369.91 263.03 C 370.41 256.58 377.52 252.66 377.53 245.90 C 377.84 234.97 371.87 225.12 366.43 216.06 C 367.70 225.29 368.29 234.62 368.21 243.94 C 368.16 251.56 363.39 258.07 358.34 263.36 C 353.13 268.91 346.66 272.97 340.65 277.54 C 337.78 272.19 334.95 266.82 332.06 261.48 C 341.16 249.79 346.74 235.73 351.16 221.71 C 352.69 213.58 353.92 205.38 354.97 197.17 C 342.44 202.10 330.07 207.47 317.38 211.98 C 316.83 210.97 316.28 209.97 315.73 208.97 C 322.44 198.36 328.99 187.66 335.75 177.09 C 340.73 176.24 345.81 175.83 350.71 174.53 C 351.28 173.04 351.54 171.45 351.77 169.88 C 351.90 171.13 352.04 172.37 352.21 173.62 C 373.11 177.57 393.97 181.73 414.85 185.74 C 401.57 171.84 387.67 158.52 374.20 144.80 C 370.02 140.47 365.40 136.56 361.66 131.84 C 374.20 133.07 386.59 135.59 399.00 137.81 C 406.86 139.15 414.48 141.56 422.30 143.09 C 412.63 132.32 401.74 122.71 391.65 112.33 C 382.19 103.81 373.32 94.67 364.16 85.83 C 361.90 83.70 359.77 81.45 357.78 79.07 C 376.38 81.20 394.77 85.72 412.05 92.99 C 406.58 86.49 400.13 80.90 394.19 74.84 C 378.21 60.31 362.46 45.18 343.90 33.91 C 341.92 28.89 340.09 23.83 338.15 18.80 Z" />
<path fill="#6788a8" opacity="1.00" d=" M 218.22 99.42 C 222.69 101.91 227.52 104.18 230.65 108.40 C 234.12 113.13 239.17 116.80 244.99 117.93 C 250.30 119.04 255.72 116.94 260.00 113.89 C 263.51 111.41 265.54 107.44 268.89 104.80 C 271.60 102.60 274.81 101.18 277.80 99.41 C 277.53 107.65 276.40 115.83 275.87 124.05 C 273.78 147.33 274.41 170.71 274.33 194.06 C 274.61 197.63 272.01 200.34 270.06 203.01 C 262.56 212.75 255.65 222.92 248.03 232.56 C 240.25 222.75 233.19 212.39 225.55 202.47 C 223.67 199.97 221.36 197.35 221.64 193.99 C 221.67 182.34 221.67 170.69 221.69 159.04 C 221.83 139.11 219.45 119.28 218.22 99.42 Z" />
<path fill="#6788a8" opacity="1.00" d=" M 50.79 260.96 C 66.83 275.78 81.96 292.18 92.09 311.70 C 88.95 319.78 85.80 327.86 82.75 335.97 C 89.06 340.00 94.59 345.09 99.36 350.83 C 101.63 354.37 103.60 358.09 105.10 362.03 C 100.00 357.74 94.91 353.19 88.68 350.60 C 85.04 349.18 81.25 348.24 77.49 347.19 C 74.30 345.06 70.28 342.95 69.34 338.89 C 69.32 335.16 70.95 331.64 71.13 327.91 C 71.55 321.84 71.93 315.38 69.29 309.71 C 66.32 303.24 60.73 298.31 54.57 294.93 C 52.00 283.81 50.76 272.38 50.79 260.96 Z" />
<path fill="#6788a8" opacity="1.00" d=" M 402.04 311.73 C 412.38 291.81 428.46 275.59 445.21 260.97 C 445.23 272.40 443.21 283.77 439.75 294.65 C 439.21 295.01 438.14 295.75 437.61 296.12 C 430.72 300.29 424.70 306.81 423.18 314.93 C 422.15 321.98 422.75 329.21 424.53 336.10 C 426.08 341.46 420.49 344.81 416.64 347.15 C 413.19 348.16 409.70 349.04 406.32 350.25 C 399.80 352.68 394.64 357.49 389.22 361.67 C 390.38 358.68 391.66 355.73 393.32 352.98 C 398.20 346.22 404.35 340.44 411.39 335.98 C 408.32 327.88 405.23 319.78 402.04 311.73 Z" />
<path fill="#6788a8" opacity="1.00" d=" M 323.53 279.88 C 328.92 279.20 334.34 278.00 339.79 278.44 C 337.26 284.35 335.36 290.54 332.36 296.23 C 329.45 290.76 326.08 285.53 323.53 279.88 Z" />
<path fill="#6788a8" opacity="1.00" d=" M 235.02 296.78 C 239.29 295.88 243.58 294.88 247.97 294.88 C 251.84 294.90 255.60 295.93 259.40 296.58 C 261.28 303.35 262.72 310.24 263.25 317.26 C 266.81 312.93 269.58 307.91 270.60 302.34 C 271.03 302.71 271.90 303.46 272.33 303.83 C 276.13 309.07 281.64 312.61 287.35 315.47 C 284.63 320.60 281.44 325.49 279.25 330.90 C 278.90 331.12 278.18 331.57 277.82 331.79 C 274.92 330.73 272.49 328.74 269.87 327.17 C 262.57 322.65 255.34 318.03 248.00 313.58 C 237.97 319.70 228.15 326.18 218.02 332.13 C 217.74 331.72 217.16 330.89 216.88 330.48 C 214.40 324.73 211.50 319.18 208.66 313.60 C 214.37 310.94 219.32 307.06 223.70 302.57 C 224.03 302.27 224.69 301.67 225.02 301.37 C 226.32 307.16 228.84 312.62 232.63 317.21 C 233.36 310.25 234.72 303.39 236.52 296.63 L 235.02 296.78 Z" />
<path fill="#6788a8" opacity="1.00" d=" M 150.64 306.10 C 155.46 305.97 160.29 305.92 165.11 306.10 C 162.72 311.51 160.98 317.33 157.50 322.18 C 155.27 316.80 152.46 311.65 150.64 306.10 Z" />
<path fill="#6788a8" opacity="1.00" d=" M 304.85 315.38 C 310.86 314.88 316.84 314.00 322.87 313.83 C 320.59 319.98 318.34 326.16 315.47 332.06 C 311.95 326.48 307.72 321.32 304.85 315.38 Z" />
<path fill="#6788a8" opacity="1.00" d=" M 190.09 317.31 C 194.90 317.37 199.73 316.96 204.52 317.64 C 202.22 323.09 199.77 328.47 197.41 333.89 C 194.59 328.54 192.08 323.01 190.09 317.31 Z" />
<path fill="#6788a8" opacity="1.00" d=" M 236.77 334.09 C 240.59 330.51 244.03 326.54 247.98 323.11 C 252.02 326.44 255.39 330.51 259.23 334.06 C 255.81 343.78 252.02 353.37 248.47 363.04 C 248.24 364.75 247.19 362.36 247.14 362.04 C 243.74 352.70 240.08 343.46 236.77 334.09 Z" />
<path fill="#6788a8" opacity="1.00" d=" M 158.07 347.37 C 162.81 346.74 167.55 346.03 172.32 345.72 C 171.21 349.88 169.38 353.79 167.51 357.65 C 167.26 357.64 166.74 357.61 166.48 357.60 C 163.52 354.33 160.74 350.89 158.07 347.37 Z" />
<path fill="#6788a8" opacity="1.00" d=" M 325.18 345.85 C 330.14 345.70 335.02 346.70 339.92 347.37 C 336.91 351.69 334.15 356.24 330.48 360.05 C 328.69 355.32 327.06 350.54 325.18 345.85 Z" />
</g>
<g id="#5c738bff">
<path fill="#5c738b" opacity="1.00" d=" M 114.88 62.86 C 126.75 52.55 138.59 42.04 152.13 33.92 C 150.42 42.66 148.64 51.38 146.91 60.11 C 145.44 68.31 143.20 76.39 142.56 84.72 C 140.76 84.64 138.97 84.65 137.17 84.64 C 137.87 92.78 138.41 100.94 139.29 109.06 C 139.50 117.11 137.58 125.03 137.33 133.06 C 138.38 136.84 140.52 140.21 142.07 143.80 C 142.83 152.81 143.65 161.83 144.32 170.85 C 144.18 171.55 143.88 172.94 143.73 173.64 C 122.87 177.59 102.08 181.94 81.18 185.69 C 94.32 172.02 107.99 158.85 121.30 145.33 C 125.61 140.81 130.46 136.79 134.34 131.87 C 127.48 132.14 120.80 133.84 114.03 134.78 C 102.86 136.75 91.62 138.53 80.68 141.56 C 78.36 142.17 76.02 142.65 73.66 143.08 C 75.55 140.83 77.55 138.68 79.67 136.67 C 90.38 126.35 100.67 115.61 111.70 105.64 C 120.42 96.68 129.84 88.38 138.24 79.11 C 119.64 81.17 101.29 85.84 83.98 92.97 C 93.59 82.26 104.24 72.53 114.88 62.86 Z" />
<path fill="#5c738b" opacity="1.00" d=" M 343.90 33.91 C 362.46 45.18 378.21 60.31 394.19 74.84 C 400.13 80.90 406.58 86.49 412.05 92.99 C 394.77 85.72 376.38 81.20 357.78 79.07 C 359.77 81.45 361.90 83.70 364.16 85.83 C 373.32 94.67 382.19 103.81 391.65 112.33 C 401.74 122.71 412.63 132.32 422.30 143.09 C 414.48 141.56 406.86 139.15 399.00 137.81 C 386.59 135.59 374.20 133.07 361.66 131.84 C 365.40 136.56 370.02 140.47 374.20 144.80 C 387.67 158.52 401.57 171.84 414.85 185.74 C 393.97 181.73 373.11 177.57 352.21 173.62 C 352.04 172.37 351.90 171.13 351.77 169.88 C 352.46 161.18 353.19 152.48 353.92 143.78 C 355.49 140.18 357.67 136.80 358.67 132.98 C 358.40 124.97 356.49 117.06 356.72 109.02 C 357.60 100.91 358.13 92.77 358.82 84.65 C 357.02 84.65 355.23 84.64 353.44 84.72 C 352.79 76.39 350.56 68.30 349.08 60.10 C 347.39 51.36 345.52 42.66 343.90 33.91 Z" />
<path fill="#5c738b" opacity="1.00" d=" M 189.81 219.74 C 194.89 222.29 199.86 225.05 204.82 227.85 C 206.77 236.30 210.65 245.02 218.25 249.82 C 222.03 252.40 226.61 253.20 231.08 253.59 C 231.19 260.73 231.01 267.88 231.16 275.02 C 231.61 280.71 234.37 286.64 239.72 289.22 C 245.30 291.81 252.26 291.67 257.58 288.49 C 262.17 285.63 264.38 280.21 264.84 275.01 C 264.99 267.87 264.81 260.73 264.91 253.59 C 271.09 253.28 277.37 251.27 281.70 246.68 C 286.82 241.63 289.51 234.75 291.18 227.89 C 296.17 225.16 301.08 222.29 306.18 219.77 C 306.09 229.78 305.36 239.90 302.58 249.56 C 295.95 252.04 288.82 254.61 284.21 260.27 C 281.86 262.92 281.84 266.62 281.84 269.96 C 281.89 276.04 281.83 282.11 281.97 288.19 C 278.20 293.04 275.29 298.46 272.33 303.83 C 271.90 303.46 271.03 302.71 270.60 302.34 C 270.57 301.84 270.53 300.84 270.51 300.34 C 267.11 298.32 263.34 297.01 259.40 296.58 C 255.60 295.93 251.84 294.90 247.97 294.88 C 243.58 294.88 239.29 295.88 235.02 296.78 C 231.40 297.45 227.52 298.47 225.02 301.37 C 224.69 301.67 224.03 302.27 223.70 302.57 C 221.05 296.79 217.82 291.29 213.97 286.23 C 213.94 278.62 214.81 270.88 213.51 263.35 C 209.93 255.44 200.96 252.39 193.40 249.56 C 190.63 239.89 189.90 229.76 189.81 219.74 Z" />
<path fill="#5c738b" opacity="1.00" d=" M 144.87 221.70 C 156.13 225.84 167.34 230.14 178.41 234.76 C 173.67 243.73 168.85 252.64 163.94 261.51 C 158.34 254.80 154.63 246.81 151.14 238.87 C 148.84 233.23 146.32 227.64 144.87 221.70 Z" />
<path fill="#5c738b" opacity="1.00" d=" M 317.55 234.83 C 328.62 230.12 339.91 225.95 351.16 221.71 C 346.74 235.73 341.16 249.79 332.06 261.48 C 327.09 252.67 322.41 243.70 317.55 234.83 Z" />
<path fill="#5c738b" opacity="1.00" d=" M 82.77 416.07 C 93.60 402.45 105.71 389.83 119.03 378.63 C 113.25 389.23 109.21 400.77 107.27 412.69 C 113.07 408.61 118.91 404.54 125.17 401.18 C 129.08 399.01 133.05 396.95 137.07 395.00 C 140.02 393.55 143.02 392.19 146.02 390.85 C 149.15 389.40 152.37 388.15 155.67 387.14 C 153.57 391.25 151.17 395.19 148.68 399.07 C 146.81 402.03 144.87 404.95 142.86 407.82 C 138.69 413.78 134.32 419.61 129.69 425.22 C 121.56 434.98 113.72 445.02 107.21 455.95 C 106.07 446.84 98.60 439.90 90.05 437.44 C 87.57 445.81 86.47 454.54 86.42 463.27 C 82.71 462.36 79.01 461.46 75.28 460.69 C 77.05 459.08 78.91 457.57 80.77 456.06 C 78.89 446.40 75.92 436.88 71.29 428.18 C 65.04 437.04 58.81 445.96 53.66 455.52 C 52.98 455.26 51.61 454.73 50.93 454.47 C 51.72 445.93 52.14 436.02 45.50 429.50 C 51.44 427.39 57.21 424.78 62.68 421.67 C 69.13 418.17 73.80 412.37 78.90 407.26 C 81.54 404.71 84.19 402.18 86.83 399.62 C 84.67 404.87 82.80 410.32 82.77 416.07 Z" />
<path fill="#5c738b" opacity="1.00" d=" M 375.03 378.56 C 388.39 389.76 400.45 402.46 411.38 416.03 C 411.18 409.75 409.40 403.60 406.13 398.24 C 410.68 402.90 415.29 407.52 419.95 412.08 C 427.30 420.88 438.09 425.50 448.56 429.47 C 442.03 436.08 442.36 445.91 443.19 454.48 C 442.51 454.74 441.14 455.25 440.46 455.51 C 435.26 445.99 429.18 436.99 422.79 428.25 C 418.18 436.94 415.19 446.42 413.36 456.06 C 415.22 457.57 417.08 459.08 418.87 460.70 C 415.14 461.54 411.42 462.41 407.70 463.28 C 407.63 454.57 406.54 445.86 404.08 437.48 C 398.86 439.11 393.88 442.05 390.64 446.54 C 388.66 449.23 387.75 452.48 386.73 455.61 C 380.62 445.60 373.63 436.16 366.03 427.23 C 361.03 421.17 356.24 414.94 351.73 408.51 C 350.15 406.24 348.58 403.96 347.07 401.65 C 344.01 396.86 340.89 392.09 338.44 386.95 C 342.05 388.24 345.60 389.69 349.09 391.27 C 352.27 392.71 355.43 394.18 358.57 395.72 C 362.18 397.50 365.74 399.39 369.26 401.34 C 375.39 404.67 381.13 408.64 386.81 412.67 C 384.91 400.72 380.83 389.16 375.03 378.56 Z" />
</g>
<g id="#b1751dff">
<path fill="#b1751d" opacity="1.00" d=" M 46.93 47.12 C 48.39 57.06 49.68 67.03 50.55 77.04 C 51.34 84.47 48.47 91.72 49.19 99.14 C 49.46 101.80 50.52 104.69 52.97 106.08 C 55.37 107.52 57.94 108.63 60.31 110.13 C 60.97 111.06 61.59 112.03 62.07 113.07 C 61.52 116.63 59.58 119.76 58.40 123.12 C 51.46 141.26 45.81 159.85 39.45 178.19 C 47.46 190.70 55.48 203.21 63.79 215.52 C 64.16 206.88 64.36 197.92 67.95 189.89 C 69.00 187.38 71.02 185.51 72.99 183.73 C 71.76 192.80 70.74 202.52 75.07 210.98 C 82.24 225.46 96.62 234.13 106.86 246.14 C 115.39 256.26 117.94 270.29 115.06 283.05 C 119.42 276.84 124.83 270.70 126.09 262.98 C 125.52 256.56 118.49 252.65 118.47 245.92 C 118.14 234.98 124.12 225.11 129.57 216.03 C 128.33 226.64 127.05 237.46 128.26 248.11 C 132.11 261.60 144.62 269.73 155.38 277.48 C 146.51 293.59 138.03 309.92 129.01 325.95 C 126.46 321.60 131.21 317.62 130.77 313.35 C 124.43 308.60 117.30 304.98 111.02 300.11 C 108.04 297.65 103.27 295.62 103.56 291.04 C 103.39 284.02 103.66 276.96 104.69 270.00 C 104.91 267.60 105.66 264.91 104.20 262.74 C 101.35 258.08 96.99 254.61 92.81 251.20 C 84.28 244.64 75.43 238.41 66.03 233.16 C 73.17 251.09 81.01 268.78 86.72 287.24 C 88.01 291.36 88.08 295.73 89.24 299.88 C 90.41 303.87 93.69 306.87 97.32 308.68 C 105.64 312.81 113.99 316.88 122.25 321.12 C 122.00 323.04 122.07 325.15 120.77 326.74 C 118.13 330.50 115.35 334.16 112.69 337.90 C 107.73 332.85 102.39 328.15 97.87 322.69 C 101.74 324.31 105.36 326.44 109.04 328.44 C 110.21 326.64 111.39 324.85 112.56 323.06 C 106.02 318.78 98.86 315.58 92.09 311.70 C 81.96 292.18 66.83 275.78 50.79 260.96 C 45.11 254.21 38.75 248.06 32.08 242.28 C 35.12 237.38 37.16 231.79 37.58 226.02 C 36.69 219.86 32.63 214.79 29.22 209.79 C 20.31 198.06 10.54 186.96 0.00 176.68 L 0.00 176.29 C 9.07 163.77 17.60 150.83 25.16 137.34 C 27.75 132.30 30.96 126.94 30.12 121.03 C 29.23 113.61 25.00 107.18 20.73 101.24 C 33.55 85.57 41.56 66.50 46.93 47.12 Z" />
<path fill="#b1751d" opacity="1.00" d=" M 445.39 78.04 C 446.19 67.70 447.55 57.40 449.09 47.14 C 454.42 66.52 462.45 85.59 475.28 101.24 C 470.14 108.39 464.62 116.74 466.02 125.98 C 468.05 133.75 472.72 140.48 476.68 147.38 C 482.80 157.22 489.13 166.95 496.00 176.29 L 496.00 176.68 C 489.11 183.22 482.83 190.38 476.60 197.53 C 470.49 204.89 464.14 212.24 459.89 220.88 C 456.33 227.97 460.56 235.79 463.73 242.20 C 457.41 248.29 450.77 254.13 445.21 260.97 C 428.46 275.59 412.38 291.81 402.04 311.73 C 395.81 315.45 389.50 319.06 383.42 323.03 C 384.60 324.83 385.78 326.63 386.97 328.43 C 390.05 326.84 392.86 324.74 396.05 323.37 C 397.80 322.80 398.37 325.15 397.09 326.03 C 392.74 330.66 388.08 335.02 383.64 339.57 C 379.83 334.44 377.15 328.61 374.06 323.06 C 383.01 316.88 392.50 311.50 401.64 305.60 C 402.85 304.83 403.96 303.80 404.32 302.36 C 407.51 291.35 410.04 280.14 413.26 269.14 C 418.07 257.12 424.75 245.91 429.36 233.81 C 425.01 236.17 420.98 239.07 416.91 241.87 C 407.65 248.34 398.17 254.46 389.01 261.06 C 389.16 272.30 390.38 283.49 390.75 294.72 C 383.33 300.65 375.87 306.52 368.36 312.31 C 367.16 313.35 365.69 314.28 365.06 315.81 C 366.50 318.34 368.36 320.60 370.03 322.97 C 369.27 324.47 368.50 325.98 367.75 327.49 C 358.61 310.90 349.74 294.15 340.65 277.54 C 346.66 272.97 353.13 268.91 358.34 263.36 C 363.39 258.07 368.16 251.56 368.21 243.94 C 368.29 234.62 367.70 225.29 366.43 216.06 C 371.87 225.12 377.84 234.97 377.53 245.90 C 377.52 252.66 370.41 256.58 369.91 263.03 C 371.19 270.73 376.58 276.87 380.95 283.06 C 380.19 278.08 379.38 273.02 379.99 267.97 C 380.94 258.08 385.86 248.83 392.91 241.93 C 400.67 234.37 409.18 227.50 415.91 218.97 C 420.22 213.54 423.33 207.00 423.94 200.04 C 424.56 194.58 423.50 189.16 423.00 183.75 C 424.98 185.52 427.00 187.38 428.04 189.89 C 431.64 197.95 431.83 206.95 432.20 215.62 C 440.44 203.22 448.57 190.74 456.56 178.17 C 449.20 157.05 442.85 135.54 434.29 114.85 C 433.24 113.07 434.77 111.55 435.70 110.14 C 439.39 107.54 445.12 106.59 446.33 101.55 C 448.25 93.74 444.75 85.91 445.39 78.04 Z" />
<path fill="#b1751d" opacity="1.00" d=" M 24.98 300.01 C 23.36 283.06 25.09 265.50 31.86 249.76 C 32.49 257.01 33.39 264.31 35.80 271.22 C 39.00 280.77 44.98 289.91 54.11 294.68 C 50.75 294.48 47.20 295.23 43.97 294.05 C 41.29 292.38 39.32 289.84 37.03 287.70 C 36.08 295.06 41.22 301.18 46.46 305.62 C 55.14 312.69 61.53 322.54 64.59 333.30 C 65.84 337.41 65.98 342.46 69.78 345.21 C 71.88 347.13 74.86 346.93 77.49 347.19 C 81.25 348.24 85.04 349.18 88.68 350.60 C 94.91 353.19 100.00 357.74 105.10 362.03 C 103.60 358.09 101.63 354.37 99.36 350.83 C 105.84 354.24 110.52 360.06 116.63 364.01 C 119.35 360.57 122.09 355.88 127.03 355.79 C 131.84 355.97 134.49 360.73 136.59 364.44 C 140.68 372.86 143.21 381.94 146.02 390.85 C 143.02 392.19 140.02 393.55 137.07 395.00 C 133.69 389.03 130.20 383.09 125.89 377.73 C 124.16 385.43 124.66 393.37 125.17 401.18 C 118.91 404.54 113.07 408.61 107.27 412.69 C 109.21 400.77 113.25 389.23 119.03 378.63 C 105.71 389.83 93.60 402.45 82.77 416.07 C 82.80 410.32 84.67 404.87 86.83 399.62 C 84.19 402.18 81.54 404.71 78.90 407.26 C 83.39 398.43 88.02 389.12 88.27 379.02 C 87.91 368.47 80.76 359.55 72.92 353.13 C 68.86 349.29 62.43 351.50 58.57 354.55 C 54.86 357.77 49.83 358.24 45.16 358.71 C 47.78 352.13 49.88 345.00 48.61 337.87 C 47.02 328.35 40.71 320.55 34.29 313.71 C 30.51 309.71 25.17 306.09 24.98 300.01 Z" />
<path fill="#b1751d" opacity="1.00" d=" M 464.14 249.89 C 470.20 263.71 472.09 279.05 471.46 294.03 C 471.27 297.40 471.22 300.87 470.05 304.08 C 468.26 308.05 464.52 310.60 461.67 313.76 C 455.28 320.59 448.97 328.35 447.38 337.84 C 446.09 344.99 448.21 352.12 450.84 358.71 C 447.89 358.31 444.86 358.16 442.03 357.19 C 438.42 355.99 435.95 352.68 432.22 351.75 C 429.39 351.03 426.00 350.41 423.67 352.67 C 414.57 359.81 406.16 370.73 407.99 382.97 C 409.74 393.40 414.55 403.09 419.95 412.08 C 415.29 407.52 410.68 402.90 406.13 398.24 C 409.40 403.60 411.18 409.75 411.38 416.03 C 400.45 402.46 388.39 389.76 375.03 378.56 C 380.83 389.16 384.91 400.72 386.81 412.67 C 381.13 408.64 375.39 404.67 369.26 401.34 C 370.02 392.90 370.24 384.41 369.87 375.95 C 365.87 382.40 361.77 388.83 358.57 395.72 C 355.43 394.18 352.27 392.71 349.09 391.27 C 351.90 380.32 355.10 369.12 361.81 359.83 C 363.71 357.32 366.33 354.11 369.92 355.13 C 374.23 356.53 376.85 360.55 379.48 363.98 C 384.29 360.56 388.39 356.25 393.32 352.98 C 391.66 355.73 390.38 358.68 389.22 361.67 C 394.64 357.49 399.80 352.68 406.32 350.25 C 409.70 349.04 413.19 348.16 416.64 347.15 C 419.65 347.11 423.00 347.52 425.60 345.64 C 429.00 343.62 429.89 339.53 430.75 335.98 C 432.88 326.19 437.97 317.12 444.87 309.90 C 449.43 305.46 454.92 301.66 457.72 295.74 C 459.09 293.30 458.89 290.43 459.00 287.74 C 456.50 289.99 454.44 292.91 451.31 294.31 C 448.16 295.01 444.90 294.58 441.71 294.72 C 445.81 292.69 449.35 289.67 452.20 286.12 C 460.43 275.94 463.16 262.64 464.14 249.89 Z" />
<path fill="#b1751d" opacity="1.00" d=" M 142.86 407.82 C 144.87 404.95 146.81 402.03 148.68 399.07 C 150.42 408.67 154.11 417.82 155.48 427.48 C 149.44 422.32 146.01 414.94 142.86 407.82 Z" />
<path fill="#b1751d" opacity="1.00" d=" M 347.07 401.65 C 348.58 403.96 350.15 406.24 351.73 408.51 C 347.46 414.33 344.69 421.18 339.80 426.55 C 341.85 418.15 344.67 409.95 347.07 401.65 Z" />
<path fill="#b1751d" opacity="1.00" d=" M 107.21 455.95 C 113.72 445.02 121.56 434.98 129.69 425.22 C 131.04 436.27 136.02 447.09 144.67 454.31 C 154.88 462.65 168.16 466.92 181.26 467.23 C 175.98 462.48 171.01 456.86 169.50 449.72 C 175.48 452.76 181.04 457.25 187.95 457.87 C 196.13 458.45 204.27 457.02 212.40 456.44 C 214.65 456.10 215.83 458.52 217.30 459.79 C 226.46 470.30 240.89 477.32 254.97 474.23 C 265.88 472.12 274.63 464.68 281.82 456.63 C 291.80 458.42 302.27 458.91 312.12 456.13 C 316.66 454.89 320.85 452.71 325.16 450.86 C 324.57 457.78 319.23 462.51 314.75 467.20 C 329.53 467.81 345.56 462.94 354.95 450.92 C 360.56 444.06 363.45 435.58 366.03 427.23 C 373.63 436.16 380.62 445.60 386.73 455.61 C 388.39 458.15 390.24 460.57 392.04 463.02 C 387.28 466.38 382.47 469.66 377.75 473.08 C 372.19 468.42 366.48 462.68 358.92 461.86 C 354.43 462.49 351.64 466.67 348.12 469.13 C 335.57 479.61 318.70 482.29 302.84 482.57 C 307.32 479.86 311.71 475.71 311.84 470.10 C 312.17 466.89 311.01 462.11 307.03 462.04 C 301.12 462.26 299.04 469.04 293.94 470.94 C 286.05 474.10 277.26 474.56 268.87 473.73 C 263.32 472.39 258.31 475.94 252.88 476.42 C 245.40 477.91 238.13 475.21 231.01 473.38 C 221.37 474.50 211.18 474.65 202.04 470.94 C 197.72 469.27 195.74 464.48 191.55 462.61 C 189.63 461.70 186.98 461.82 185.65 463.67 C 183.72 466.41 183.84 470.12 184.71 473.23 C 185.98 477.46 189.60 480.28 193.17 482.57 C 176.86 482.32 159.47 479.38 146.82 468.28 C 143.28 465.69 139.96 460.74 134.96 462.13 C 128.44 463.97 123.28 468.69 118.31 473.07 C 113.12 469.42 107.91 465.80 102.72 462.15 C 104.24 460.10 105.79 458.07 107.21 455.95 Z" />
</g>
<g id="#88adcaff">
<path fill="#88adca" opacity="1.00" d=" M 137.17 84.64 C 138.97 84.65 140.76 84.64 142.56 84.72 C 145.99 84.99 149.44 85.34 152.76 86.25 C 156.21 87.18 159.31 89.21 162.91 89.59 C 173.89 91.02 184.98 91.35 195.96 92.78 C 203.64 93.81 211.68 94.93 218.22 99.42 C 219.45 119.28 221.83 139.11 221.69 159.04 C 221.67 170.69 221.67 182.34 221.64 193.99 C 221.36 197.35 223.67 199.97 225.55 202.47 C 233.19 212.39 240.25 222.75 248.03 232.56 C 255.65 222.92 262.56 212.75 270.06 203.01 C 272.01 200.34 274.61 197.63 274.33 194.06 C 274.41 170.71 273.78 147.33 275.87 124.05 C 276.40 115.83 277.53 107.65 277.80 99.41 C 281.52 96.94 285.72 95.27 290.11 94.44 C 303.93 91.54 318.12 91.43 332.10 89.73 C 334.71 89.49 337.20 88.63 339.58 87.56 C 343.92 85.59 348.73 85.09 353.44 84.72 C 355.23 84.64 357.02 84.65 358.82 84.65 C 358.13 92.77 357.60 100.91 356.72 109.02 C 355.88 120.61 354.83 132.19 353.92 143.78 C 353.19 152.48 352.46 161.18 351.77 169.88 C 351.54 171.45 351.28 173.04 350.71 174.53 C 345.81 175.83 340.73 176.24 335.75 177.09 C 328.99 178.18 322.21 179.14 315.47 180.35 C 313.31 185.37 310.41 190.05 308.34 195.10 C 310.26 199.95 313.39 204.29 315.73 208.97 C 316.28 209.97 316.83 210.97 317.38 211.98 C 330.07 207.47 342.44 202.10 354.97 197.17 C 353.92 205.38 352.69 213.58 351.16 221.71 C 339.91 225.95 328.62 230.12 317.55 234.83 C 322.41 243.70 327.09 252.67 332.06 261.48 C 334.95 266.82 337.78 272.19 340.65 277.54 C 349.74 294.15 358.61 310.90 367.75 327.49 C 368.59 330.63 368.59 334.08 366.88 336.95 C 356.14 357.27 342.80 376.30 326.65 392.70 C 321.39 385.77 322.16 376.39 319.45 368.42 C 316.70 374.62 317.88 381.55 316.98 388.09 C 316.05 395.61 314.92 403.46 310.86 410.02 C 309.46 412.51 306.93 413.92 304.46 415.13 C 301.78 404.02 299.15 392.89 296.03 381.89 C 291.34 364.61 284.60 347.98 279.25 330.90 C 281.44 325.49 284.63 320.60 287.35 315.47 C 298.26 295.21 311.21 275.95 326.87 259.05 C 309.28 263.55 293.25 273.95 281.97 288.19 C 281.83 282.11 281.89 276.04 281.84 269.96 C 281.84 266.62 281.86 262.92 284.21 260.27 C 288.82 254.61 295.95 252.04 302.58 249.56 C 305.36 239.90 306.09 229.78 306.18 219.77 C 301.08 222.29 296.17 225.16 291.18 227.89 C 282.42 232.60 273.74 237.45 264.96 242.13 C 264.90 245.95 264.91 249.77 264.91 253.59 C 264.81 260.73 264.99 267.87 264.84 275.01 C 260.85 276.88 256.47 277.62 252.11 277.73 C 245.06 277.90 237.68 278.09 231.16 275.02 C 231.01 267.88 231.19 260.73 231.08 253.59 C 231.06 249.77 231.09 245.95 231.07 242.13 C 222.31 237.38 213.57 232.60 204.82 227.85 C 199.86 225.05 194.89 222.29 189.81 219.74 C 189.90 229.76 190.63 239.89 193.40 249.56 C 200.96 252.39 209.93 255.44 213.51 263.35 C 214.81 270.88 213.94 278.62 213.97 286.23 C 202.84 272.32 187.19 261.62 169.75 257.59 C 184.92 274.61 197.92 293.49 208.66 313.60 C 211.50 319.18 214.40 324.73 216.88 330.48 C 213.00 342.55 208.75 354.48 204.62 366.47 C 199.40 382.43 195.42 398.76 191.57 415.10 C 183.10 411.86 181.32 401.79 179.81 393.92 C 177.84 385.48 179.74 376.47 176.55 368.31 C 173.87 376.33 174.56 385.68 169.39 392.70 C 153.19 376.35 139.89 357.28 129.14 336.97 C 127.18 333.61 127.22 329.37 129.01 325.95 C 138.03 309.92 146.51 293.59 155.38 277.48 C 158.25 272.16 161.05 266.81 163.94 261.51 C 168.85 252.64 173.67 243.73 178.41 234.76 C 167.34 230.14 156.13 225.84 144.87 221.70 C 143.28 213.61 142.15 205.43 141.06 197.26 C 153.65 201.95 165.91 207.49 178.59 211.95 C 179.14 210.95 179.70 209.96 180.26 208.96 C 182.62 204.29 185.74 199.95 187.65 195.10 C 185.58 190.04 182.70 185.34 180.51 180.33 C 173.78 179.03 166.98 178.14 160.22 177.01 C 155.17 176.24 150.13 175.41 145.07 174.68 C 144.81 173.40 144.54 172.13 144.32 170.85 C 143.65 161.83 142.83 152.81 142.07 143.80 C 141.17 132.21 140.12 120.65 139.29 109.06 C 138.41 100.94 137.87 92.78 137.17 84.64 M 323.53 279.88 C 326.08 285.53 329.45 290.76 332.36 296.23 C 335.36 290.54 337.26 284.35 339.79 278.44 C 334.34 278.00 328.92 279.20 323.53 279.88 M 150.64 306.10 C 152.46 311.65 155.27 316.80 157.50 322.18 C 160.98 317.33 162.72 311.51 165.11 306.10 C 160.29 305.92 155.46 305.97 150.64 306.10 M 304.85 315.38 C 307.72 321.32 311.95 326.48 315.47 332.06 C 318.34 326.16 320.59 319.98 322.87 313.83 C 316.84 314.00 310.86 314.88 304.85 315.38 M 190.09 317.31 C 192.08 323.01 194.59 328.54 197.41 333.89 C 199.77 328.47 202.22 323.09 204.52 317.64 C 199.73 316.96 194.90 317.37 190.09 317.31 M 158.07 347.37 C 160.74 350.89 163.52 354.33 166.48 357.60 C 166.74 357.61 167.26 357.64 167.51 357.65 C 169.38 353.79 171.21 349.88 172.32 345.72 C 167.55 346.03 162.81 346.74 158.07 347.37 M 325.18 345.85 C 327.06 350.54 328.69 355.32 330.48 360.05 C 334.15 356.24 336.91 351.69 339.92 347.37 C 335.02 346.70 330.14 345.70 325.18 345.85 Z" />
<path fill="#88adca" opacity="1.00" d=" M 229.23 364.24 C 235.54 369.73 241.55 375.57 247.98 380.91 C 254.49 375.66 260.45 369.72 266.78 364.24 C 263.12 381.27 258.40 398.75 247.99 413.01 C 237.62 398.72 232.82 381.28 229.23 364.24 Z" />
<path fill="#88adca" opacity="1.00" d=" M 236.70 418.74 C 240.52 420.44 244.22 422.40 247.97 424.27 C 251.75 422.47 255.44 420.51 259.25 418.77 C 258.81 427.93 255.03 437.06 248.02 443.13 C 240.92 437.10 237.22 427.90 236.70 418.74 Z" />
</g>
<g id="#b7ac1eff">
<path fill="#b7ac1e" opacity="1.00" d=" M 204.82 227.85 C 213.57 232.60 222.31 237.38 231.07 242.13 C 231.09 245.95 231.06 249.77 231.08 253.59 C 226.61 253.20 222.03 252.40 218.25 249.82 C 210.65 245.02 206.77 236.30 204.82 227.85 Z" />
<path fill="#b7ac1e" opacity="1.00" d=" M 264.96 242.13 C 273.74 237.45 282.42 232.60 291.18 227.89 C 289.51 234.75 286.82 241.63 281.70 246.68 C 277.37 251.27 271.09 253.28 264.91 253.59 C 264.91 249.77 264.90 245.95 264.96 242.13 Z" />
<path fill="#b7ac1e" opacity="1.00" d=" M 66.03 233.16 C 75.43 238.41 84.28 244.64 92.81 251.20 C 96.99 254.61 101.35 258.08 104.20 262.74 C 105.66 264.91 104.91 267.60 104.69 270.00 C 103.66 276.96 103.39 284.02 103.56 291.04 C 103.27 295.62 108.04 297.65 111.02 300.11 C 117.30 304.98 124.43 308.60 130.77 313.35 C 131.21 317.62 126.46 321.60 129.01 325.95 C 127.22 329.37 127.18 333.61 129.14 336.97 C 139.89 357.28 153.19 376.35 169.39 392.70 C 174.56 385.68 173.87 376.33 176.55 368.31 C 179.74 376.47 177.84 385.48 179.81 393.92 C 181.32 401.79 183.10 411.86 191.57 415.10 C 195.42 398.76 199.40 382.43 204.62 366.47 C 208.75 354.48 213.00 342.55 216.88 330.48 C 217.16 330.89 217.74 331.72 218.02 332.13 C 228.15 326.18 237.97 319.70 248.00 313.58 C 255.34 318.03 262.57 322.65 269.87 327.17 C 272.49 328.74 274.92 330.73 277.82 331.79 C 278.18 331.57 278.90 331.12 279.25 330.90 C 284.60 347.98 291.34 364.61 296.03 381.89 C 299.15 392.89 301.78 404.02 304.46 415.13 C 306.93 413.92 309.46 412.51 310.86 410.02 C 314.92 403.46 316.05 395.61 316.98 388.09 C 317.88 381.55 316.70 374.62 319.45 368.42 C 322.16 376.39 321.39 385.77 326.65 392.70 C 342.80 376.30 356.14 357.27 366.88 336.95 C 368.59 334.08 368.59 330.63 367.75 327.49 C 368.50 325.98 369.27 324.47 370.03 322.97 C 368.36 320.60 366.50 318.34 365.06 315.81 C 365.69 314.28 367.16 313.35 368.36 312.31 C 375.87 306.52 383.33 300.65 390.75 294.72 C 390.38 283.49 389.16 272.30 389.01 261.06 C 398.17 254.46 407.65 248.34 416.91 241.87 C 420.98 239.07 425.01 236.17 429.36 233.81 C 424.75 245.91 418.07 257.12 413.26 269.14 C 410.04 280.14 407.51 291.35 404.32 302.36 C 403.96 303.80 402.85 304.83 401.64 305.60 C 392.50 311.50 383.01 316.88 374.06 323.06 C 377.15 328.61 379.83 334.44 383.64 339.57 C 388.08 335.02 392.74 330.66 397.09 326.03 C 398.37 325.15 397.80 322.80 396.05 323.37 C 392.86 324.74 390.05 326.84 386.97 328.43 C 385.78 326.63 384.60 324.83 383.42 323.03 C 389.50 319.06 395.81 315.45 402.04 311.73 C 405.23 319.78 408.32 327.88 411.39 335.98 C 404.35 340.44 398.20 346.22 393.32 352.98 C 388.39 356.25 384.29 360.56 379.48 363.98 C 376.85 360.55 374.23 356.53 369.92 355.13 C 366.33 354.11 363.71 357.32 361.81 359.83 C 355.10 369.12 351.90 380.32 349.09 391.27 C 345.60 389.69 342.05 388.24 338.44 386.95 C 340.89 392.09 344.01 396.86 347.07 401.65 C 344.67 409.95 341.85 418.15 339.80 426.55 C 344.69 421.18 347.46 414.33 351.73 408.51 C 356.24 414.94 361.03 421.17 366.03 427.23 C 363.45 435.58 360.56 444.06 354.95 450.92 C 345.56 462.94 329.53 467.81 314.75 467.20 C 319.23 462.51 324.57 457.78 325.16 450.86 C 320.85 452.71 316.66 454.89 312.12 456.13 C 302.27 458.91 291.80 458.42 281.82 456.63 C 274.63 464.68 265.88 472.12 254.97 474.23 C 240.89 477.32 226.46 470.30 217.30 459.79 C 215.83 458.52 214.65 456.10 212.40 456.44 C 204.27 457.02 196.13 458.45 187.95 457.87 C 181.04 457.25 175.48 452.76 169.50 449.72 C 171.01 456.86 175.98 462.48 181.26 467.23 C 168.16 466.92 154.88 462.65 144.67 454.31 C 136.02 447.09 131.04 436.27 129.69 425.22 C 134.32 419.61 138.69 413.78 142.86 407.82 C 146.01 414.94 149.44 422.32 155.48 427.48 C 154.11 417.82 150.42 408.67 148.68 399.07 C 151.17 395.19 153.57 391.25 155.67 387.14 C 152.37 388.15 149.15 389.40 146.02 390.85 C 143.21 381.94 140.68 372.86 136.59 364.44 C 134.49 360.73 131.84 355.97 127.03 355.79 C 122.09 355.88 119.35 360.57 116.63 364.01 C 110.52 360.06 105.84 354.24 99.36 350.83 C 94.59 345.09 89.06 340.00 82.75 335.97 C 85.80 327.86 88.95 319.78 92.09 311.70 C 98.86 315.58 106.02 318.78 112.56 323.06 C 111.39 324.85 110.21 326.64 109.04 328.44 C 105.36 326.44 101.74 324.31 97.87 322.69 C 102.39 328.15 107.73 332.85 112.69 337.90 C 115.35 334.16 118.13 330.50 120.77 326.74 C 122.07 325.15 122.00 323.04 122.25 321.12 C 113.99 316.88 105.64 312.81 97.32 308.68 C 93.69 306.87 90.41 303.87 89.24 299.88 C 88.08 295.73 88.01 291.36 86.72 287.24 C 81.01 268.78 73.17 251.09 66.03 233.16 M 236.77 334.09 C 240.08 343.46 243.74 352.70 247.14 362.04 C 247.19 362.36 248.24 364.75 248.47 363.04 C 252.02 353.37 255.81 343.78 259.23 334.06 C 255.39 330.51 252.02 326.44 247.98 323.11 C 244.03 326.54 240.59 330.51 236.77 334.09 M 229.23 364.24 C 232.82 381.28 237.62 398.72 247.99 413.01 C 258.40 398.75 263.12 381.27 266.78 364.24 C 260.45 369.72 254.49 375.66 247.98 380.91 C 241.55 375.57 235.54 369.73 229.23 364.24 M 236.70 418.74 C 237.22 427.90 240.92 437.10 248.02 443.13 C 255.03 437.06 258.81 427.93 259.25 418.77 C 255.44 420.51 251.75 422.47 247.97 424.27 C 244.22 422.40 240.52 420.44 236.70 418.74 Z" />
<path fill="#b7ac1e" opacity="1.00" d=" M 37.03 287.70 C 39.32 289.84 41.29 292.38 43.97 294.05 C 47.20 295.23 50.75 294.48 54.11 294.68 L 54.57 294.93 C 60.73 298.31 66.32 303.24 69.29 309.71 C 71.93 315.38 71.55 321.84 71.13 327.91 C 70.95 331.64 69.32 335.16 69.34 338.89 C 70.28 342.95 74.30 345.06 77.49 347.19 C 74.86 346.93 71.88 347.13 69.78 345.21 C 65.98 342.46 65.84 337.41 64.59 333.30 C 61.53 322.54 55.14 312.69 46.46 305.62 C 41.22 301.18 36.08 295.06 37.03 287.70 Z" />
<path fill="#b7ac1e" opacity="1.00" d=" M 451.31 294.31 C 454.44 292.91 456.50 289.99 459.00 287.74 C 458.89 290.43 459.09 293.30 457.72 295.74 C 454.92 301.66 449.43 305.46 444.87 309.90 C 437.97 317.12 432.88 326.19 430.75 335.98 C 429.89 339.53 429.00 343.62 425.60 345.64 C 423.00 347.52 419.65 347.11 416.64 347.15 C 420.49 344.81 426.08 341.46 424.53 336.10 C 422.75 329.21 422.15 321.98 423.18 314.93 C 424.70 306.81 430.72 300.29 437.61 296.12 C 438.96 295.63 440.34 295.17 441.71 294.72 C 444.90 294.58 448.16 295.01 451.31 294.31 Z" />
<path fill="#b7ac1e" opacity="1.00" d=" M 358.57 395.72 C 361.77 388.83 365.87 382.40 369.87 375.95 C 370.24 384.41 370.02 392.90 369.26 401.34 C 365.74 399.39 362.18 397.50 358.57 395.72 Z" />
<path fill="#b7ac1e" opacity="1.00" d=" M 125.89 377.73 C 130.20 383.09 133.69 389.03 137.07 395.00 C 133.05 396.95 129.08 399.01 125.17 401.18 C 124.66 393.37 124.16 385.43 125.89 377.73 Z" />
</g>
<g id="#dac687ff">
<path fill="#dac687" opacity="1.00" d=" M 169.75 257.59 C 187.19 261.62 202.84 272.32 213.97 286.23 C 217.82 291.29 221.05 296.79 223.70 302.57 C 219.32 307.06 214.37 310.94 208.66 313.60 C 197.92 293.49 184.92 274.61 169.75 257.59 Z" />
<path fill="#dac687" opacity="1.00" d=" M 281.97 288.19 C 293.25 273.95 309.28 263.55 326.87 259.05 C 311.21 275.95 298.26 295.21 287.35 315.47 C 281.64 312.61 276.13 309.07 272.33 303.83 C 275.29 298.46 278.20 293.04 281.97 288.19 Z" />
<path fill="#dac687" opacity="1.00" d=" M 225.02 301.37 C 227.52 298.47 231.40 297.45 235.02 296.78 L 236.52 296.63 C 234.72 303.39 233.36 310.25 232.63 317.21 C 228.84 312.62 226.32 307.16 225.02 301.37 Z" />
<path fill="#dac687" opacity="1.00" d=" M 259.40 296.58 C 263.34 297.01 267.11 298.32 270.51 300.34 C 270.53 300.84 270.57 301.84 270.60 302.34 C 269.58 307.91 266.81 312.93 263.25 317.26 C 262.72 310.24 261.28 303.35 259.40 296.58 Z" />
</g>
<g id="#3d2f24ff">
<path fill="#3d2f24" opacity="1.00" d=" M 53.66 455.52 C 58.81 445.96 65.04 437.04 71.29 428.18 C 75.92 436.88 78.89 446.40 80.77 456.06 C 78.91 457.57 77.05 459.08 75.28 460.69 C 71.40 464.45 67.26 468.57 65.89 473.96 C 65.52 479.37 67.77 484.47 69.21 489.58 C 64.04 484.44 59.23 478.92 55.00 472.97 C 53.18 470.23 51.18 467.37 50.78 464.02 C 50.86 460.97 52.35 458.20 53.66 455.52 Z" />
<path fill="#3d2f24" opacity="1.00" d=" M 413.36 456.06 C 415.19 446.42 418.18 436.94 422.79 428.25 C 429.18 436.99 435.26 445.99 440.46 455.51 C 442.22 459.12 444.59 463.42 442.39 467.38 C 438.05 475.80 431.48 482.84 424.91 489.57 C 426.33 484.47 428.59 479.36 428.23 473.97 C 426.85 468.58 422.73 464.47 418.87 460.70 C 417.08 459.08 415.22 457.57 413.36 456.06 Z" />
<path fill="#3d2f24" opacity="1.00" d=" M 22.22 433.74 C 30.11 433.29 38.01 432.08 45.50 429.50 C 52.14 436.02 51.72 445.93 50.93 454.47 C 48.79 453.99 46.62 453.50 44.78 452.25 C 41.45 449.97 36.52 449.75 33.46 452.62 C 26.68 458.41 22.59 468.12 25.29 476.92 C 26.60 481.48 29.97 484.98 33.34 488.14 C 25.92 486.34 18.21 483.87 12.76 478.24 C 9.31 474.79 7.38 469.93 7.54 465.05 C 7.73 456.97 8.43 448.57 12.17 441.27 C 14.11 437.41 17.64 433.83 22.22 433.74 Z" />
<path fill="#3d2f24" opacity="1.00" d=" M 448.56 429.47 C 456.07 432.09 464.01 433.29 471.94 433.76 C 475.91 433.81 479.18 436.61 481.13 439.87 C 485.14 446.51 486.06 454.44 486.51 462.03 C 486.92 466.94 486.22 472.18 483.11 476.17 C 477.79 483.21 469.01 486.27 460.71 488.14 C 463.97 485.19 467.15 481.89 468.58 477.63 C 471.36 470.00 468.58 461.40 463.49 455.42 C 461.31 452.94 458.52 450.22 454.94 450.54 C 450.58 450.36 447.51 454.25 443.19 454.48 C 442.36 445.91 442.03 436.08 448.56 429.47 Z" />
<path fill="#3d2f24" opacity="1.00" d=" M 90.05 437.44 C 98.60 439.90 106.07 446.84 107.21 455.95 C 105.79 458.07 104.24 460.10 102.72 462.15 C 99.65 466.62 96.00 470.77 93.72 475.73 C 92.44 480.29 93.52 485.06 93.70 489.69 C 88.53 481.94 86.44 472.50 86.42 463.27 C 86.47 454.54 87.57 445.81 90.05 437.44 Z" />
<path fill="#3d2f24" opacity="1.00" d=" M 390.64 446.54 C 393.88 442.05 398.86 439.11 404.08 437.48 C 406.54 445.86 407.63 454.57 407.70 463.28 C 407.64 472.49 405.62 481.95 400.39 489.66 C 400.61 484.97 401.71 480.11 400.32 475.52 C 398.18 470.98 394.86 467.13 392.04 463.02 C 390.24 460.57 388.39 458.15 386.73 455.61 C 387.75 452.48 388.66 449.23 390.64 446.54 Z" />
</g>
</svg>
