<?xml version="1.0" encoding="UTF-8" ?>
<!DOCTYPE svg PUBLIC "-//W3C//DTD SVG 1.1//EN" "http://www.w3.org/Graphics/SVG/1.1/DTD/svg11.dtd">
<svg width="467pt" height="462pt" viewBox="0 0 467 462" version="1.1" xmlns="http://www.w3.org/2000/svg">
<g id="#d8d7daff">
<path fill="#d8d7da" opacity="1.00" d=" M 171.42 0.00 L 187.79 0.00 C 206.22 0.31 224.65 1.77 242.88 4.63 C 270.72 9.15 298.51 16.87 322.91 31.38 C 321.46 32.37 319.68 31.53 318.09 31.46 C 298.96 28.44 278.19 31.05 261.74 41.72 C 281.60 43.18 301.81 48.07 318.30 59.68 C 332.74 69.63 343.26 84.63 348.95 101.11 C 354.09 115.81 355.91 131.51 355.63 147.03 C 355.50 164.15 354.25 181.31 351.05 198.15 C 352.41 191.51 351.09 184.75 350.31 178.13 C 347.33 158.17 339.34 138.05 324.26 124.16 C 315.79 115.27 304.67 109.22 293.16 105.19 C 286.86 103.06 280.32 101.79 273.76 100.78 C 272.52 99.45 270.52 100.28 268.95 100.04 C 253.76 99.79 238.48 101.43 223.92 105.89 C 211.71 109.58 199.91 114.61 188.72 120.74 C 179.45 125.81 170.40 131.38 162.04 137.84 C 149.13 148.67 139.20 162.63 131.17 177.34 C 131.21 169.50 132.07 161.67 133.69 153.99 C 134.41 149.84 135.65 145.80 136.64 141.71 C 130.33 143.51 124.31 146.19 118.50 149.22 C 106.05 155.93 94.56 164.32 83.96 173.64 C 84.02 171.97 84.10 170.28 84.53 168.66 C 111.16 141.33 139.96 116.22 168.46 90.89 C 160.16 92.36 152.56 96.29 145.18 100.17 C 118.08 115.47 93.52 134.80 69.67 154.67 C 69.43 154.68 68.94 154.70 68.70 154.70 C 73.17 137.23 80.20 120.09 91.44 105.84 C 74.42 109.50 59.83 119.80 46.25 130.22 C 51.24 115.93 62.28 104.76 73.55 95.12 C 74.82 94.23 75.99 93.20 77.25 92.29 C 94.33 81.52 112.54 72.59 131.33 65.24 C 133.60 64.32 135.98 63.66 138.11 62.45 C 105.43 65.31 73.94 77.30 46.20 94.56 C 50.23 85.96 56.00 78.19 63.14 71.93 C 54.26 71.98 45.52 73.74 36.87 75.60 C 51.07 65.03 65.89 55.13 81.93 47.56 C 91.75 42.65 102.09 38.60 112.86 36.33 C 112.82 36.14 112.75 35.74 112.71 35.55 C 108.56 34.32 104.30 33.46 100.02 32.82 C 84.10 30.83 67.98 31.14 52.01 32.31 C 68.12 22.34 87.09 18.56 105.58 15.80 C 143.45 11.01 181.85 11.88 219.79 15.36 C 205.28 6.13 187.96 3.39 171.42 0.00 M 123.17 48.29 L 122.31 49.22 C 152.62 49.10 183.28 44.51 211.39 32.82 L 211.60 32.08 C 195.55 29.55 179.26 28.62 163.02 28.63 C 148.98 33.46 135.62 40.20 123.17 48.29 M 178.85 69.59 C 180.25 70.00 181.69 69.56 183.11 69.47 C 205.96 67.15 228.94 65.73 251.91 66.49 C 264.89 67.16 277.93 68.43 290.55 71.66 L 291.02 71.45 C 277.16 58.65 258.79 52.18 240.85 47.47 C 219.10 51.13 198.46 59.71 178.85 69.59 M 202.23 88.22 C 196.82 91.67 192.55 96.58 188.73 101.67 C 188.02 102.73 186.95 103.69 186.91 105.06 C 198.95 96.69 213.46 93.02 227.53 89.67 C 235.98 88.03 244.41 85.84 253.05 85.63 C 251.06 85.18 249.04 84.87 247.00 84.83 C 236.34 84.66 225.65 84.35 215.00 85.22 C 210.66 85.69 206.04 85.84 202.23 88.22 Z" />
<path fill="#d8d7da" opacity="1.00" d=" M 2.34 123.00 C 1.67 120.86 3.92 119.89 5.67 120.35 C 7.27 121.23 6.68 123.16 6.63 124.62 C 5.15 124.81 2.30 125.27 2.34 123.00 Z" />
<path fill="#d8d7da" opacity="1.00" d=" M 29.77 122.81 C 31.37 122.01 34.32 121.76 34.90 124.01 C 36.21 125.59 34.81 127.33 33.80 128.61 C 32.44 128.58 31.02 128.83 29.73 128.28 C 29.06 126.57 29.03 124.49 29.77 122.81 Z" />
<path fill="#d8d7da" opacity="1.00" d=" M 189.63 232.10 C 197.44 243.69 199.81 257.96 200.96 271.64 C 207.59 265.37 213.91 258.77 219.85 251.85 C 224.86 245.73 229.94 239.49 233.03 232.13 C 236.73 245.61 238.51 259.58 238.70 273.53 C 250.91 266.89 262.06 258.06 270.77 247.17 C 271.35 260.86 268.32 274.82 261.38 286.70 C 269.28 281.59 277.09 276.23 283.98 269.80 C 283.75 276.68 283.24 283.71 280.79 290.21 C 279.91 292.07 278.89 293.93 277.23 295.22 C 272.01 299.50 266.20 303.04 260.16 306.02 L 259.76 305.05 C 260.96 300.99 262.06 296.90 263.06 292.79 C 253.94 301.09 245.79 310.44 236.56 318.63 C 228.90 324.11 220.27 328.42 210.96 330.13 C 213.04 320.69 215.64 311.37 217.87 301.97 C 208.94 311.18 200.50 320.86 191.42 329.93 C 183.82 335.71 175.59 341.26 166.05 343.14 C 168.19 333.80 170.40 324.47 172.64 315.15 C 163.79 324.76 155.60 334.98 146.57 344.43 C 143.81 346.54 140.95 348.71 137.47 349.47 C 131.88 351.69 125.82 352.58 119.83 352.64 C 119.94 351.93 120.17 350.51 120.28 349.80 C 127.00 342.74 134.11 335.98 140.27 328.40 C 163.79 300.67 181.74 267.75 189.63 232.10 Z" />
<path fill="#d8d7da" opacity="1.00" d=" M 255.79 351.43 C 259.02 353.86 262.14 356.82 264.46 360.12 C 261.60 360.38 258.73 360.32 255.87 360.20 C 255.43 357.30 255.66 354.34 255.79 351.43 Z" />
<path fill="#d8d7da" opacity="1.00" d=" M 255.64 372.63 C 255.88 372.55 256.35 372.38 256.58 372.30 C 259.30 375.20 262.18 377.94 264.95 380.78 C 261.89 381.05 258.81 380.94 255.75 380.91 C 255.61 378.15 255.66 375.38 255.64 372.63 Z" />
<path fill="#d8d7da" opacity="1.00" d=" M 256.07 388.96 C 259.77 392.44 263.25 396.15 266.91 399.68 C 263.22 399.89 259.53 399.78 255.85 399.79 C 255.68 396.22 255.25 392.42 256.07 388.96 Z" />
</g>
<g id="#4c5b69ff">
<path fill="#4c5b69" opacity="1.00" d=" M 123.17 48.29 C 135.62 40.20 148.98 33.46 163.02 28.63 C 179.26 28.62 195.55 29.55 211.60 32.08 L 211.39 32.82 C 183.28 44.51 152.62 49.10 122.31 49.22 L 123.17 48.29 Z" />
<path fill="#4c5b69" opacity="1.00" d=" M 79.52 35.33 C 86.32 34.28 93.11 32.81 100.02 32.82 C 104.30 33.46 108.56 34.32 112.71 35.55 C 112.75 35.74 112.82 36.14 112.86 36.33 C 102.09 38.60 91.75 42.65 81.93 47.56 L 81.33 46.89 C 66.76 46.40 52.22 47.81 37.73 49.04 C 50.60 41.86 65.15 38.21 79.52 35.33 Z" />
<path fill="#4c5b69" opacity="1.00" d=" M 178.85 69.59 C 198.46 59.71 219.10 51.13 240.85 47.47 C 258.79 52.18 277.16 58.65 291.02 71.45 L 290.55 71.66 C 277.93 68.43 264.89 67.16 251.91 66.49 C 228.94 65.73 205.96 67.15 183.11 69.47 C 181.69 69.56 180.25 70.00 178.85 69.59 Z" />
<path fill="#4c5b69" opacity="1.00" d=" M 46.20 94.56 C 73.94 77.30 105.43 65.31 138.11 62.45 C 135.98 63.66 133.60 64.32 131.33 65.24 C 112.54 72.59 94.33 81.52 77.25 92.29 C 75.99 93.20 74.82 94.23 73.55 95.12 L 72.37 95.44 C 60.90 102.85 50.12 111.31 40.03 120.50 C 36.92 115.93 29.84 114.74 25.81 118.74 C 21.11 122.65 22.13 130.55 27.22 133.67 C 17.93 144.57 8.88 156.74 6.50 171.21 C 4.34 154.39 7.04 137.23 12.21 121.18 C 22.44 111.06 34.14 102.43 46.20 94.56 Z" />
<path fill="#4c5b69" opacity="1.00" d=" M 202.23 88.22 C 206.04 85.84 210.66 85.69 215.00 85.22 C 225.65 84.35 236.34 84.66 247.00 84.83 C 249.04 84.87 251.06 85.18 253.05 85.63 C 244.41 85.84 235.98 88.03 227.53 89.67 C 213.46 93.02 198.95 96.69 186.91 105.06 C 186.95 103.69 188.02 102.73 188.73 101.67 C 192.55 96.58 196.82 91.67 202.23 88.22 Z" />
<path fill="#4c5b69" opacity="1.00" d=" M 145.18 100.17 C 152.56 96.29 160.16 92.36 168.46 90.89 C 139.96 116.22 111.16 141.33 84.53 168.66 C 79.72 173.20 75.32 178.14 70.85 183.01 C 52.15 184.40 33.43 185.54 14.72 186.80 C 26.00 182.67 37.72 179.36 48.14 173.24 C 52.75 169.54 56.92 165.31 61.51 161.58 C 63.86 159.24 66.97 157.60 68.70 154.70 C 68.94 154.70 69.43 154.68 69.67 154.67 C 93.52 134.80 118.08 115.47 145.18 100.17 Z" />
<path fill="#4c5b69" opacity="1.00" d=" M 223.92 105.89 C 238.48 101.43 253.76 99.79 268.95 100.04 C 270.52 100.28 272.52 99.45 273.76 100.78 C 269.47 101.50 264.80 99.68 260.72 101.72 C 236.44 111.77 214.80 127.70 197.15 147.10 C 201.97 131.20 211.91 117.21 223.92 105.89 Z" />
<path fill="#4c5b69" opacity="1.00" d=" M 354.04 102.91 C 356.61 104.17 358.22 106.70 360.33 108.56 C 361.79 110.27 363.97 111.52 364.80 113.67 C 362.36 115.40 360.07 117.33 357.48 118.83 C 356.42 113.51 355.05 108.25 354.04 102.91 Z" />
<path fill="#4c5b69" opacity="1.00" d=" M 293.16 105.19 C 304.67 109.22 315.79 115.27 324.26 124.16 C 307.74 118.49 289.68 118.51 272.83 122.74 C 277.93 115.27 285.22 109.43 293.16 105.19 Z" />
<path fill="#4c5b69" opacity="1.00" d=" M 162.04 137.84 C 170.40 131.38 179.45 125.81 188.72 120.74 C 177.21 142.37 164.25 163.50 147.58 181.58 C 146.71 182.43 146.01 183.52 144.87 184.04 C 152.58 169.50 159.06 154.10 162.04 137.84 Z" />
<path fill="#4c5b69" opacity="1.00" d=" M 361.19 133.17 L 361.77 133.22 C 364.27 137.67 366.38 142.34 368.72 146.88 C 366.29 149.35 362.91 151.03 359.73 152.44 C 359.78 146.01 360.87 139.61 361.19 133.17 Z" />
<path fill="#4c5b69" opacity="1.00" d=" M 118.50 149.22 C 124.31 146.19 130.33 143.51 136.64 141.71 C 135.65 145.80 134.41 149.84 133.69 153.99 C 121.47 163.37 112.16 175.89 102.99 188.05 C 105.83 174.33 111.14 161.14 118.50 149.22 Z" />
<path fill="#4c5b69" opacity="1.00" d=" M 361.14 165.29 L 361.64 165.09 C 363.32 171.03 365.22 176.90 366.89 182.83 C 363.66 184.62 359.89 185.38 356.40 186.60 L 355.88 186.25 C 357.50 179.23 359.27 172.24 361.14 165.29 Z" />
<path fill="#4c5b69" opacity="1.00" d=" M 455.93 198.15 C 459.58 196.79 463.31 195.67 467.00 194.42 L 467.00 214.45 C 462.85 209.37 459.32 203.76 455.93 198.15 Z" />
<path fill="#4c5b69" opacity="1.00" d=" M 350.57 221.20 C 353.69 213.82 355.86 205.96 359.61 198.89 C 360.64 206.21 362.31 213.46 363.00 220.83 C 358.86 221.33 354.76 222.16 350.60 222.45 L 350.57 221.20 Z" />
<path fill="#4c5b69" opacity="1.00" d=" M 453.80 222.68 C 458.19 222.61 462.60 222.56 467.00 222.73 L 467.00 256.55 C 461.34 245.82 456.59 234.52 453.80 222.68 Z" />
<path fill="#4c5b69" opacity="1.00" d=" M 405.00 224.87 C 410.97 224.32 416.99 224.57 422.98 224.70 C 422.95 225.16 422.90 226.10 422.87 226.57 C 419.77 233.19 417.35 240.11 414.23 246.72 C 413.91 246.19 413.29 245.14 412.97 244.61 C 410.56 237.93 407.40 231.55 405.00 224.87 Z" />
<path fill="#4c5b69" opacity="1.00" d=" M 343.56 249.42 C 346.41 244.60 348.55 239.31 351.81 234.75 C 352.00 243.84 351.84 252.93 351.90 262.02 C 347.57 261.20 343.43 259.61 339.12 258.69 C 339.76 255.30 342.14 252.53 343.56 249.42 Z" />
<path fill="#4c5b69" opacity="1.00" d=" M 141.15 252.98 C 152.44 257.31 164.41 259.84 176.45 260.57 C 174.66 265.81 172.27 270.86 168.95 275.30 C 158.48 269.94 149.24 262.24 141.31 253.58 L 141.15 252.98 Z" />
<path fill="#4c5b69" opacity="1.00" d=" M 92.08 270.24 C 107.13 283.43 124.26 295.21 143.84 300.32 C 147.67 301.26 151.61 301.74 155.55 301.82 C 152.39 309.23 146.67 315.23 140.75 320.57 C 135.31 317.08 130.55 312.59 125.69 308.32 C 113.30 296.77 101.74 284.17 92.08 270.24 Z" />
<path fill="#4c5b69" opacity="1.00" d=" M 311.61 284.74 C 319.35 279.93 326.86 274.74 334.68 270.09 C 331.18 277.47 327.42 284.73 323.77 292.04 C 318.73 291.00 313.92 288.53 308.98 286.91 C 309.35 285.73 310.73 285.44 311.61 284.74 Z" />
<path fill="#4c5b69" opacity="1.00" d=" M 273.15 305.28 C 282.86 300.69 292.33 295.61 302.04 291.02 C 301.84 292.09 301.43 293.08 300.83 294.00 C 297.11 300.27 293.47 306.60 289.77 312.88 C 284.65 312.35 279.88 309.90 275.41 307.47 C 274.63 306.82 273.19 306.44 273.15 305.28 Z" />
<path fill="#4c5b69" opacity="1.00" d=" M 236.56 318.63 C 245.79 310.44 253.94 301.09 263.06 292.79 C 262.06 296.90 260.96 300.99 259.76 305.05 C 258.07 310.15 257.73 315.93 255.16 320.60 C 248.96 319.91 242.74 319.47 236.56 318.63 Z" />
<path fill="#4c5b69" opacity="1.00" d=" M 191.42 329.93 C 200.50 320.86 208.94 311.18 217.87 301.97 C 215.64 311.37 213.04 320.69 210.96 330.13 C 210.70 330.56 210.17 331.43 209.90 331.87 C 203.74 331.25 197.54 330.87 191.42 329.93 Z" />
<path fill="#4c5b69" opacity="1.00" d=" M 146.57 344.43 C 155.60 334.98 163.79 324.76 172.64 315.15 C 170.40 324.47 168.19 333.80 166.05 343.14 C 165.77 344.42 165.37 345.66 164.98 346.92 C 160.49 346.58 156.01 346.06 151.52 345.69 C 149.82 345.47 147.97 345.57 146.57 344.43 Z" />
<path fill="#4c5b69" opacity="1.00" d=" M 82.20 370.74 C 90.74 355.86 99.24 340.91 108.55 326.50 C 109.75 333.36 111.03 340.20 112.28 347.05 C 115.43 345.22 118.56 343.33 121.66 341.41 C 121.25 344.21 120.77 347.01 120.28 349.80 C 120.17 350.51 119.94 351.93 119.83 352.64 C 125.82 352.58 131.88 351.69 137.47 349.47 C 138.02 351.16 136.55 352.48 135.83 353.87 C 126.96 367.71 114.72 380.24 98.96 385.88 C 90.20 389.14 80.75 388.52 71.60 389.35 C 64.63 389.55 57.67 390.26 50.70 390.18 C 51.24 388.29 51.96 386.47 52.87 384.74 C 58.79 384.53 64.75 385.05 70.65 384.47 C 77.09 382.91 80.07 376.37 82.20 370.74 M 92.30 372.37 C 88.91 374.31 88.75 379.83 92.14 381.87 C 95.70 384.56 101.35 381.36 100.93 376.93 C 100.94 372.79 95.73 370.08 92.30 372.37 Z" />
<path fill="#4c5b69" opacity="1.00" d=" M 212.24 345.25 C 220.86 344.10 229.52 342.33 238.15 341.80 C 233.75 349.36 228.45 356.40 223.78 363.81 C 216.40 363.00 209.08 361.57 201.77 360.21 L 201.65 359.21 C 205.31 354.65 208.64 349.84 212.24 345.25 Z" />
<path fill="#4c5b69" opacity="1.00" d=" M 58.09 345.97 C 67.23 351.46 76.74 357.68 87.72 358.38 C 85.80 361.29 83.96 364.25 82.32 367.32 C 80.58 369.97 76.35 370.07 74.39 367.58 C 68.44 360.79 63.47 353.21 58.09 345.97 Z" />
<path fill="#4c5b69" opacity="1.00" d=" M 278.43 354.59 C 287.04 352.72 295.66 350.88 304.28 349.06 L 304.40 349.82 C 301.94 356.03 299.69 362.33 297.09 368.49 C 290.75 364.03 284.44 359.46 278.43 354.59 Z" />
<path fill="#4c5b69" opacity="1.00" d=" M 163.13 364.17 C 172.29 363.45 181.47 362.68 190.65 362.32 L 190.22 363.82 C 185.63 369.39 181.19 375.08 176.64 380.68 C 169.81 381.27 162.85 380.76 155.97 380.93 C 157.89 375.17 160.79 369.77 163.13 364.17 Z" />
<path fill="#4c5b69" opacity="1.00" d=" M 305.05 374.45 C 312.42 372.17 319.80 369.95 327.24 367.92 C 326.66 374.93 324.34 381.84 324.40 388.84 C 317.82 384.24 311.40 379.37 305.05 374.45 Z" />
<path fill="#4c5b69" opacity="1.00" d=" M 327.52 416.83 C 332.31 413.49 337.46 410.69 342.28 407.40 C 347.24 411.17 351.70 415.60 356.51 419.57 C 356.60 419.83 356.79 420.34 356.88 420.59 C 347.14 419.03 337.31 418.00 327.52 416.83 Z" />
<path fill="#4c5b69" opacity="1.00" d=" M 299.10 435.62 C 306.67 430.61 314.19 425.52 321.81 420.59 C 327.31 426.90 333.10 432.95 338.52 439.33 C 325.38 438.12 312.25 436.79 299.10 435.62 Z" />
<path fill="#4c5b69" opacity="1.00" d=" M 267.13 456.48 C 275.66 450.51 284.67 445.23 293.31 439.41 C 298.40 445.57 303.52 451.77 308.28 458.19 C 294.56 457.62 280.85 456.81 267.13 456.48 Z" />
<path fill="#4c5b69" opacity="1.00" d=" M 129.30 461.97 C 138.86 453.23 150.07 445.03 163.22 443.16 C 163.35 444.88 163.41 446.64 163.91 448.32 C 164.96 451.52 165.20 454.88 165.03 458.23 C 153.12 459.46 141.22 460.83 129.30 461.97 Z" />
<path fill="#4c5b69" opacity="1.00" d=" M 178.96 458.12 C 184.66 450.63 193.00 445.21 202.23 443.27 L 202.80 443.91 C 202.94 448.67 202.77 453.43 202.84 458.20 C 202.84 459.46 202.84 460.73 202.83 462.00 L 176.40 462.00 C 177.23 460.69 178.02 459.35 178.96 458.12 Z" />
</g>
<g id="#8698a2ff">
<path fill="#8698a2" opacity="1.00" d=" M 261.74 41.72 C 278.19 31.05 298.96 28.44 318.09 31.46 C 319.68 31.53 321.46 32.37 322.91 31.38 C 326.72 33.66 331.34 33.77 335.38 35.51 C 340.48 37.00 344.97 39.87 349.62 42.28 C 349.19 44.01 350.37 45.44 351.22 46.81 C 355.38 53.09 358.88 59.79 363.26 65.93 C 367.31 65.02 370.46 61.79 374.59 61.15 C 375.22 68.39 375.81 75.63 376.39 82.87 C 380.76 83.57 385.20 82.98 389.60 83.26 C 390.53 94.97 390.38 106.79 391.85 118.43 C 389.19 123.62 386.57 128.82 384.04 134.06 C 383.88 157.35 384.03 180.65 383.97 203.94 C 383.82 210.41 386.10 217.44 391.57 221.32 C 396.01 224.50 401.74 224.84 407.01 224.31 C 412.57 224.41 418.16 223.96 423.69 224.66 C 423.53 232.10 423.53 239.57 423.14 247.01 C 422.78 240.20 423.90 233.34 422.87 226.57 C 422.90 226.10 422.95 225.16 422.98 224.70 C 416.99 224.57 410.97 224.32 405.00 224.87 C 407.40 231.55 410.56 237.93 412.97 244.61 C 395.60 276.78 369.84 305.63 336.38 321.39 C 324.71 326.97 312.15 330.70 299.33 332.44 C 284.64 334.61 269.75 333.60 254.97 333.88 C 253.81 333.99 252.67 334.18 251.55 334.44 C 249.30 333.45 246.70 333.85 244.33 334.03 C 244.42 353.77 244.21 373.52 244.50 393.24 C 236.99 388.05 232.55 379.32 225.18 374.03 C 220.12 379.03 215.54 384.49 210.82 389.81 C 209.95 390.52 209.31 391.83 208.07 391.90 C 202.98 389.26 198.56 385.38 193.24 383.19 C 184.92 390.37 177.06 398.06 168.92 405.45 C 157.56 394.18 146.27 382.84 134.91 371.56 C 122.91 382.82 111.04 394.21 99.04 405.46 C 82.06 405.46 65.09 405.49 48.12 405.45 C 48.25 400.27 48.88 395.06 50.70 390.18 C 57.67 390.26 64.63 389.55 71.60 389.35 C 80.75 388.52 90.20 389.14 98.96 385.88 C 114.72 380.24 126.96 367.71 135.83 353.87 C 136.55 352.48 138.02 351.16 137.47 349.47 C 140.95 348.71 143.81 346.54 146.57 344.43 C 147.97 345.57 149.82 345.47 151.52 345.69 C 156.01 346.06 160.49 346.58 164.98 346.92 C 165.37 345.66 165.77 344.42 166.05 343.14 C 175.59 341.26 183.82 335.71 191.42 329.93 C 197.54 330.87 203.74 331.25 209.90 331.87 C 210.17 331.43 210.70 330.56 210.96 330.13 C 220.27 328.42 228.90 324.11 236.56 318.63 C 242.74 319.47 248.96 319.91 255.16 320.60 C 257.73 315.93 258.07 310.15 259.76 305.05 L 260.16 306.02 C 266.20 303.04 272.01 299.50 277.23 295.22 C 278.89 293.93 279.91 292.07 280.79 290.21 C 291.31 284.95 301.73 279.27 310.92 271.87 C 320.77 264.02 329.04 254.22 335.25 243.26 C 343.20 229.33 348.01 213.83 351.05 198.15 C 354.25 181.31 355.50 164.15 355.63 147.03 C 355.91 131.51 354.09 115.81 348.95 101.11 C 343.26 84.63 332.74 69.63 318.30 59.68 C 301.81 48.07 281.60 43.18 261.74 41.72 M 354.04 102.91 C 355.05 108.25 356.42 113.51 357.48 118.83 C 360.07 117.33 362.36 115.40 364.80 113.67 C 363.97 111.52 361.79 110.27 360.33 108.56 C 358.22 106.70 356.61 104.17 354.04 102.91 M 361.19 133.17 C 360.87 139.61 359.78 146.01 359.73 152.44 C 362.91 151.03 366.29 149.35 368.72 146.88 C 366.38 142.34 364.27 137.67 361.77 133.22 L 361.19 133.17 M 361.14 165.29 C 359.27 172.24 357.50 179.23 355.88 186.25 L 356.40 186.60 C 359.89 185.38 363.66 184.62 366.89 182.83 C 365.22 176.90 363.32 171.03 361.64 165.09 L 361.14 165.29 M 350.57 221.20 L 350.60 222.45 C 354.76 222.16 358.86 221.33 363.00 220.83 C 362.31 213.46 360.64 206.21 359.61 198.89 C 355.86 205.96 353.69 213.82 350.57 221.20 M 343.56 249.42 C 342.14 252.53 339.76 255.30 339.12 258.69 C 343.43 259.61 347.57 261.20 351.90 262.02 C 351.84 252.93 352.00 243.84 351.81 234.75 C 348.55 239.31 346.41 244.60 343.56 249.42 M 311.61 284.74 C 310.73 285.44 309.35 285.73 308.98 286.91 C 313.92 288.53 318.73 291.00 323.77 292.04 C 327.42 284.73 331.18 277.47 334.68 270.09 C 326.86 274.74 319.35 279.93 311.61 284.74 M 273.15 305.28 C 273.19 306.44 274.63 306.82 275.41 307.47 C 279.88 309.90 284.65 312.35 289.77 312.88 C 293.47 306.60 297.11 300.27 300.83 294.00 C 301.43 293.08 301.84 292.09 302.04 291.02 C 292.33 295.61 282.86 300.69 273.15 305.28 M 212.24 345.25 C 208.64 349.84 205.31 354.65 201.65 359.21 L 201.77 360.21 C 209.08 361.57 216.40 363.00 223.78 363.81 C 228.45 356.40 233.75 349.36 238.15 341.80 C 229.52 342.33 220.86 344.10 212.24 345.25 M 163.13 364.17 C 160.79 369.77 157.89 375.17 155.97 380.93 C 162.85 380.76 169.81 381.27 176.64 380.68 C 181.19 375.08 185.63 369.39 190.22 363.82 L 190.65 362.32 C 181.47 362.68 172.29 363.45 163.13 364.17 Z" />
<path fill="#8698a2" opacity="1.00" d=" M 410.33 92.69 C 429.36 116.43 448.12 140.41 467.00 164.27 L 467.00 194.42 C 463.31 195.67 459.58 196.79 455.93 198.15 C 459.32 203.76 462.85 209.37 467.00 214.45 L 467.00 222.49 C 462.57 222.35 458.13 222.39 453.70 222.46 C 441.85 189.96 429.94 157.47 418.05 124.98 L 417.56 125.28 C 411.38 134.49 405.16 143.69 399.11 152.98 C 399.04 168.01 399.06 183.05 399.10 198.09 C 398.87 200.93 401.12 203.46 403.92 203.73 C 407.25 203.78 410.61 204.01 413.92 203.58 C 416.82 203.02 418.20 199.79 417.95 197.08 C 417.86 187.77 418.08 178.45 417.84 169.15 C 417.14 167.21 413.89 167.88 414.19 169.99 C 414.11 177.98 414.20 185.97 414.16 193.96 C 414.29 195.50 413.58 197.28 412.00 197.77 C 408.76 199.21 404.83 196.50 404.78 193.00 C 404.75 182.65 404.55 172.29 405.02 161.95 C 405.52 156.00 406.30 149.77 409.51 144.59 C 411.43 141.47 415.21 139.09 418.96 139.95 C 421.75 141.11 422.83 144.31 423.84 146.93 C 426.31 155.02 427.60 163.52 427.37 171.98 C 427.37 184.97 427.38 197.95 427.37 210.93 C 427.51 214.14 426.23 217.62 423.29 219.21 C 419.27 221.64 414.41 220.56 409.98 220.80 C 404.85 220.53 399.39 221.63 394.56 219.40 C 389.93 217.19 387.75 211.82 387.76 206.92 C 387.80 181.99 387.65 157.05 387.83 132.13 C 395.27 118.95 402.88 105.86 410.33 92.69 Z" />
<path fill="#8698a2" opacity="1.00" d=" M 251.91 339.54 C 280.26 361.41 308.43 383.52 336.79 405.37 C 310.58 423.06 284.17 440.47 257.89 458.05 C 239.56 458.39 221.18 458.10 202.84 458.20 C 202.77 453.43 202.94 448.67 202.80 443.91 L 202.23 443.27 C 193.00 445.21 184.66 450.63 178.96 458.12 C 174.32 458.32 169.67 458.11 165.03 458.23 C 165.20 454.88 164.96 451.52 163.91 448.32 C 163.74 446.57 163.63 444.83 163.42 443.10 C 185.27 438.76 207.14 434.52 228.96 430.03 C 246.83 422.04 264.46 413.45 282.33 405.49 C 292.94 405.43 303.55 405.50 314.16 405.46 C 314.17 404.55 314.19 402.72 314.20 401.81 C 299.20 388.48 284.01 375.34 268.90 362.14 C 268.42 362.61 267.48 363.54 267.01 364.01 C 266.95 373.38 267.04 382.74 266.96 392.11 C 268.12 393.55 269.52 394.79 270.86 396.08 C 277.13 395.97 283.41 396.25 289.66 395.93 C 289.64 394.08 289.63 392.24 289.62 390.40 C 283.97 390.38 278.31 390.42 272.66 390.39 C 272.64 383.51 272.64 376.63 272.67 369.76 C 283.32 380.31 294.12 390.78 304.42 401.66 C 286.93 401.67 269.44 401.66 251.95 401.67 C 251.84 380.96 251.92 360.25 251.91 339.54 M 255.79 351.43 C 255.66 354.34 255.43 357.30 255.87 360.20 C 258.73 360.32 261.60 360.38 264.46 360.12 C 262.14 356.82 259.02 353.86 255.79 351.43 M 255.64 372.63 C 255.66 375.38 255.61 378.15 255.75 380.91 C 258.81 380.94 261.89 381.05 264.95 380.78 C 262.18 377.94 259.30 375.20 256.58 372.30 C 256.35 372.38 255.88 372.55 255.64 372.63 M 256.07 388.96 C 255.25 392.42 255.68 396.22 255.85 399.79 C 259.53 399.78 263.22 399.89 266.91 399.68 C 263.25 396.15 259.77 392.44 256.07 388.96 Z" />
<path fill="#8698a2" opacity="1.00" d=" M 59.04 376.07 C 66.40 372.66 74.92 374.47 82.20 370.74 C 80.07 376.37 77.09 382.91 70.65 384.47 C 64.75 385.05 58.79 384.53 52.87 384.74 C 53.77 383.32 53.65 381.60 53.95 380.02 C 55.02 378.06 57.10 376.98 59.04 376.07 Z" />
</g>
<g id="#b5af98ff">
<path fill="#b5af98" opacity="1.00" d=" M 351.22 46.81 C 350.37 45.44 349.19 44.01 349.62 42.28 C 373.55 51.85 395.34 68.33 408.50 90.76 C 402.94 99.98 397.43 109.22 391.85 118.43 C 390.38 106.79 390.53 94.97 389.60 83.26 C 385.20 82.98 380.76 83.57 376.39 82.87 C 375.81 75.63 375.22 68.39 374.59 61.15 C 370.46 61.79 367.31 65.02 363.26 65.93 C 358.88 59.79 355.38 53.09 351.22 46.81 Z" />
<path fill="#b5af98" opacity="1.00" d=" M 225.18 374.03 C 232.55 379.32 236.99 388.05 244.50 393.24 C 244.39 394.80 244.30 396.36 244.33 397.93 C 236.54 397.96 228.74 397.87 220.95 397.97 C 202.22 399.28 184.53 409.25 173.00 423.96 C 171.47 426.31 169.10 428.49 166.05 428.07 C 130.46 427.95 94.83 428.30 59.25 427.90 C 55.65 422.25 51.82 416.74 48.13 411.15 C 65.11 411.11 82.08 411.16 99.06 411.12 C 111.00 399.82 122.98 388.53 134.90 377.20 C 144.32 386.61 153.81 395.96 163.14 405.47 C 149.96 405.47 136.78 405.46 123.61 405.47 C 126.73 402.32 129.87 399.17 133.03 396.06 C 134.93 397.92 136.79 399.82 138.69 401.69 C 139.95 400.44 141.20 399.19 142.44 397.92 C 139.32 394.77 136.19 391.63 133.03 388.52 C 126.75 394.21 120.36 399.76 114.17 405.54 C 115.42 406.76 116.70 407.97 117.95 409.20 C 133.67 409.20 149.38 409.20 165.10 409.20 C 166.39 407.97 167.63 406.68 168.92 405.45 C 177.06 398.06 184.92 390.37 193.24 383.19 C 198.56 385.38 202.98 389.26 208.07 391.90 C 209.31 391.83 209.95 390.52 210.82 389.81 C 215.54 384.49 220.12 379.03 225.18 374.03 Z" />
</g>
<g id="#add9dfff">
<path fill="#add9df" opacity="1.00" d=" M 25.81 118.74 C 29.84 114.74 36.92 115.93 40.03 120.50 C 42.07 123.88 41.94 128.45 39.35 131.50 C 36.58 135.12 31.10 135.95 27.22 133.67 C 22.13 130.55 21.11 122.65 25.81 118.74 M 29.77 122.81 C 29.03 124.49 29.06 126.57 29.73 128.28 C 31.02 128.83 32.44 128.58 33.80 128.61 C 34.81 127.33 36.21 125.59 34.90 124.01 C 34.32 121.76 31.37 122.01 29.77 122.81 Z" />
<path fill="#add9df" opacity="1.00" d=" M 17.41 152.48 C 22.42 150.19 28.27 155.99 25.88 160.99 C 24.33 165.65 17.37 166.56 14.59 162.56 C 11.94 159.31 13.45 153.88 17.41 152.48 Z" />
<path fill="#add9df" opacity="1.00" d=" M 19.87 190.76 C 24.06 187.45 30.82 187.53 34.41 191.70 C 36.72 194.24 37.28 197.94 36.43 201.20 C 41.79 199.87 46.93 205.93 44.79 211.00 C 43.61 214.82 39.04 216.96 35.31 215.60 C 32.33 214.65 30.14 211.62 30.26 208.48 C 25.58 211.15 18.75 209.69 16.23 204.74 C 13.59 200.02 15.58 193.77 19.87 190.76 Z" />
<path fill="#add9df" opacity="1.00" d=" M 117.24 209.34 C 122.39 206.80 128.71 210.72 129.77 216.10 C 131.42 221.57 127.83 228.29 121.99 229.11 C 116.60 230.01 111.71 225.17 111.43 219.95 C 110.95 215.69 113.23 211.08 117.24 209.34 Z" />
<path fill="#add9df" opacity="1.00" d=" M 31.12 262.22 C 34.53 259.85 39.75 262.83 39.49 266.97 C 39.69 270.99 34.69 273.95 31.28 271.76 C 27.59 270.01 27.48 264.07 31.12 262.22 Z" />
<path fill="#add9df" opacity="1.00" d=" M 53.51 267.54 C 63.36 264.47 72.99 273.44 73.47 283.07 C 74.59 292.22 67.73 302.48 58.03 302.70 C 49.00 303.15 41.82 294.52 41.57 285.94 C 41.00 278.14 45.82 269.81 53.51 267.54 Z" />
</g>
<g id="#aab9c2ff">
<path fill="#aab9c2" opacity="1.00" d=" M 0.00 121.74 C 0.84 119.12 3.94 117.09 6.59 118.48 C 9.50 119.65 10.51 123.96 7.99 126.05 C 5.57 128.90 0.98 127.15 0.00 123.86 L 0.00 121.74 M 2.34 123.00 C 2.30 125.27 5.15 124.81 6.63 124.62 C 6.68 123.16 7.27 121.23 5.67 120.35 C 3.92 119.89 1.67 120.86 2.34 123.00 Z" />
<path fill="#aab9c2" opacity="1.00" d=" M 414.23 246.72 C 417.35 240.11 419.77 233.19 422.87 226.57 C 423.90 233.34 422.78 240.20 423.14 247.01 C 422.29 265.20 420.27 283.41 415.77 301.08 C 410.55 321.89 401.83 341.91 389.43 359.45 C 377.29 376.78 361.71 391.57 344.33 403.57 C 337.69 398.66 331.16 393.57 324.40 388.84 C 324.34 381.84 326.66 374.93 327.24 367.92 C 319.80 369.95 312.42 372.17 305.05 374.45 C 302.50 372.34 299.84 370.34 297.09 368.49 C 299.69 362.33 301.94 356.03 304.40 349.82 L 304.28 349.06 C 295.66 350.88 287.04 352.72 278.43 354.59 C 269.57 347.74 260.44 341.25 251.55 334.44 C 252.67 334.18 253.81 333.99 254.97 333.88 C 269.75 333.60 284.64 334.61 299.33 332.44 C 312.15 330.70 324.71 326.97 336.38 321.39 C 369.84 305.63 395.60 276.78 412.97 244.61 C 413.29 245.14 413.91 246.19 414.23 246.72 Z" />
</g>
<g id="#8c3421ff">
<path fill="#8c3421" opacity="1.00" d=" M 92.30 372.37 C 95.73 370.08 100.94 372.79 100.93 376.93 C 101.35 381.36 95.70 384.56 92.14 381.87 C 88.75 379.83 88.91 374.31 92.30 372.37 Z" />
</g>
</svg>
