<?xml version="1.0" encoding="UTF-8" ?>
<!DOCTYPE svg PUBLIC "-//W3C//DTD SVG 1.1//EN" "http://www.w3.org/Graphics/SVG/1.1/DTD/svg11.dtd">
<svg width="502pt" height="498pt" viewBox="0 0 502 498" version="1.1" xmlns="http://www.w3.org/2000/svg">
<g id="#8e876dff">
<path fill="#8e876d" opacity="1.00" d=" M 239.73 106.29 C 243.50 71.13 247.08 35.95 251.00 0.81 C 254.93 35.96 258.50 71.16 262.28 106.34 C 262.42 114.21 265.98 122.57 262.11 130.04 C 258.29 139.33 254.97 148.83 250.99 158.06 C 247.04 148.83 243.72 139.34 239.89 130.05 C 236.06 122.55 239.53 114.18 239.73 106.29 M 245.56 122.70 C 247.11 127.53 248.75 132.34 251.01 136.89 C 253.25 132.35 254.87 127.54 256.40 122.72 C 252.79 122.56 249.17 122.56 245.56 122.70 Z" />
<path fill="#8e876d" opacity="1.00" d=" M 181.25 5.91 C 193.08 36.77 204.89 67.64 216.68 98.51 C 220.83 109.36 224.99 120.21 229.17 131.05 C 230.54 134.50 230.28 138.29 230.28 141.93 C 230.13 151.71 230.42 161.50 230.12 171.28 C 223.04 164.23 216.52 156.65 209.57 149.47 C 207.84 147.56 205.72 145.68 205.29 143.00 C 203.42 132.32 201.56 121.63 199.70 110.95 C 193.51 75.94 187.34 40.93 181.25 5.91 M 213.66 145.15 C 217.47 149.62 221.62 153.84 226.17 157.55 C 225.96 151.65 225.15 145.80 224.61 139.92 C 220.81 141.33 217.23 143.25 213.66 145.15 Z" />
<path fill="#8e876d" opacity="1.00" d=" M 320.71 5.97 C 314.68 40.99 308.46 75.99 302.29 110.99 C 300.50 121.37 298.64 131.74 296.89 142.12 C 296.57 145.65 293.75 148.04 291.50 150.47 C 284.87 157.34 278.66 164.60 271.87 171.30 C 271.59 161.53 271.86 151.76 271.72 141.98 C 271.68 138.24 271.49 134.37 272.90 130.83 C 277.06 120.13 281.14 109.41 285.25 98.69 C 297.05 67.78 308.90 36.88 320.71 5.97 M 277.36 139.91 C 276.88 145.97 275.86 151.99 275.89 158.08 C 280.16 153.87 284.71 149.90 288.41 145.16 C 284.80 143.26 281.23 141.26 277.36 139.91 Z" />
<path fill="#8e876d" opacity="1.00" d=" M 131.15 108.15 C 122.83 81.68 114.10 55.33 106.00 28.79 C 124.24 57.90 142.54 86.99 160.76 116.12 C 165.14 123.08 169.51 130.04 173.92 136.97 C 175.80 139.63 175.95 142.95 176.31 146.07 C 177.76 160.20 179.67 174.27 181.05 188.41 C 170.42 179.21 160.05 169.73 149.45 160.50 C 146.56 158.23 145.94 154.44 144.85 151.16 C 140.32 136.81 135.75 122.48 131.15 108.15 M 160.74 160.21 C 164.67 164.22 168.93 167.97 173.60 171.11 C 172.98 165.06 172.41 159.01 171.72 152.98 C 167.97 155.26 164.34 157.71 160.74 160.21 Z" />
<path fill="#8e876d" opacity="1.00" d=" M 341.24 116.13 C 359.48 86.98 377.77 57.85 396.07 28.73 C 387.86 55.25 379.21 81.65 370.86 108.13 C 365.77 123.99 360.72 139.86 355.70 155.74 C 355.10 157.85 353.73 159.61 352.06 160.99 C 341.60 170.03 331.46 179.43 320.95 188.40 C 322.36 173.93 324.32 159.52 325.80 145.06 C 326.08 142.29 326.40 139.40 328.03 137.05 C 332.46 130.09 336.85 123.11 341.24 116.13 M 330.24 152.97 C 329.64 159.03 329.01 165.09 328.41 171.15 C 333.06 167.97 337.38 164.26 341.29 160.21 C 337.66 157.71 334.05 155.18 330.24 152.97 Z" />
<path fill="#8e876d" opacity="1.00" d=" M 188.32 140.45 C 187.83 137.96 187.47 135.44 187.25 132.91 C 197.19 152.59 206.92 172.37 216.89 192.03 C 217.53 193.51 218.61 194.93 218.67 196.60 C 218.01 204.42 217.36 212.25 216.83 220.09 C 211.21 215.40 206.06 210.15 200.21 205.75 C 195.98 184.03 192.37 162.20 188.32 140.45 Z" />
<path fill="#8e876d" opacity="1.00" d=" M 284.41 193.43 C 294.67 173.31 304.50 152.97 314.86 132.91 C 310.74 157.26 306.35 181.57 301.77 205.84 C 295.89 210.19 290.79 215.47 285.16 220.14 C 284.65 212.28 283.98 204.43 283.32 196.58 C 283.28 195.44 283.99 194.44 284.41 193.43 Z" />
<path fill="#8e876d" opacity="1.00" d=" M 83.18 155.17 C 78.40 148.34 73.29 141.74 68.76 134.75 C 82.61 146.31 96.19 158.20 109.93 169.90 C 126.13 183.75 142.30 197.64 158.51 211.48 C 160.60 213.07 161.22 215.70 161.93 218.10 C 164.42 227.09 167.23 236.00 169.74 244.99 C 160.42 241.86 151.30 238.16 142.07 234.82 C 138.48 233.64 136.93 229.91 134.78 227.14 C 117.60 203.13 100.38 179.16 83.18 155.17 M 152.58 218.99 C 149.71 222.19 146.22 224.85 143.85 228.48 C 149.93 230.55 155.66 233.56 161.86 235.24 C 158.91 229.75 156.18 224.09 152.58 218.99 Z" />
<path fill="#8e876d" opacity="1.00" d=" M 392.04 169.96 C 405.83 158.26 419.38 146.27 433.33 134.77 C 428.65 141.69 423.63 148.38 418.81 155.21 C 401.61 179.20 384.38 203.17 367.21 227.18 C 364.95 230.20 363.14 234.15 359.16 235.19 C 350.15 238.38 341.31 242.04 332.23 245.06 C 334.77 236.03 337.58 227.08 340.09 218.04 C 340.78 215.68 341.41 213.07 343.50 211.51 C 359.70 197.69 375.85 183.80 392.04 169.96 M 340.24 235.46 C 346.30 233.40 352.15 230.78 358.14 228.51 C 355.86 224.82 352.29 222.22 349.46 219.00 C 345.90 224.18 342.79 229.72 340.24 235.46 Z" />
<path fill="#8e876d" opacity="1.00" d=" M 249.32 176.24 C 249.90 172.79 249.87 169.19 251.15 165.90 C 254.45 187.24 256.90 208.72 260.35 230.04 C 258.93 235.38 254.21 238.82 251.02 243.08 C 247.82 238.84 243.18 235.40 241.64 230.13 C 244.55 212.22 246.69 194.19 249.32 176.24 Z" />
<path fill="#8e876d" opacity="1.00" d=" M 161.03 187.86 C 173.88 203.10 186.01 218.95 198.58 234.43 C 200.90 237.62 203.90 240.37 205.72 243.89 C 206.58 251.04 207.94 258.10 209.08 265.21 C 202.95 261.99 197.25 258.02 191.09 254.86 L 190.57 254.59 C 180.77 232.33 170.68 210.19 161.03 187.86 Z" />
<path fill="#8e876d" opacity="1.00" d=" M 298.95 239.97 C 313.08 222.70 326.62 204.94 340.98 187.87 C 331.77 209.24 322.04 230.39 312.74 251.73 C 312.18 252.78 311.84 254.02 310.93 254.83 C 304.86 258.16 299.08 262.01 292.95 265.24 C 294.01 258.11 295.42 251.03 296.29 243.87 C 296.85 242.38 298.00 241.22 298.95 239.97 Z" />
<path fill="#8e876d" opacity="1.00" d=" M 66.87 247.38 C 67.36 243.48 68.41 239.68 69.74 235.99 C 78.49 251.55 89.56 265.91 103.44 277.25 C 99.21 277.42 94.97 277.51 90.74 277.59 C 92.02 285.06 93.48 292.50 94.34 300.03 C 89.90 297.02 85.60 293.80 81.18 290.76 C 80.32 300.51 78.18 310.12 77.74 319.90 C 72.94 301.94 68.39 283.80 66.31 265.29 C 65.82 259.32 66.16 253.31 66.87 247.38 Z" />
<path fill="#8e876d" opacity="1.00" d=" M 398.53 277.27 C 412.46 265.94 423.51 251.52 432.28 235.93 C 433.56 239.66 434.62 243.48 435.12 247.40 C 435.83 253.34 436.18 259.37 435.67 265.35 C 433.58 283.87 429.03 302.02 424.23 320.00 C 423.87 310.19 421.67 300.55 420.82 290.78 C 416.40 293.83 412.10 297.05 407.65 300.05 C 408.39 292.43 410.30 284.99 411.01 277.37 C 406.85 277.51 402.69 277.51 398.53 277.27 Z" />
<path fill="#8e876d" opacity="1.00" d=" M 115.87 241.91 C 131.32 249.36 146.57 257.21 161.94 264.83 C 165.17 266.63 168.83 267.78 171.74 270.09 C 174.00 276.11 176.38 282.08 178.78 288.05 C 172.53 288.30 166.27 288.19 160.02 288.23 C 145.40 272.70 130.26 257.65 115.87 241.91 Z" />
<path fill="#8e876d" opacity="1.00" d=" M 373.29 248.26 C 377.33 246.30 381.23 244.03 385.47 242.50 C 383.09 245.72 380.14 248.44 377.40 251.34 C 365.61 263.66 353.74 275.90 341.99 288.26 C 335.73 288.12 329.45 288.48 323.20 287.86 C 325.73 282.02 328.03 276.08 330.27 270.12 C 331.04 269.22 332.21 268.81 333.23 268.24 C 346.63 261.67 359.93 254.90 373.29 248.26 Z" />
<path fill="#8e876d" opacity="1.00" d=" M 109.09 282.46 C 111.87 284.52 114.68 286.53 117.43 288.64 C 116.08 290.48 114.73 292.32 113.38 294.16 C 111.68 290.36 110.18 286.48 109.09 282.46 Z" />
<path fill="#8e876d" opacity="1.00" d=" M 384.61 288.64 C 387.33 286.54 390.13 284.54 392.90 282.49 C 391.82 286.50 390.32 290.37 388.61 294.15 C 387.27 292.31 385.94 290.48 384.61 288.64 Z" />
<path fill="#8e876d" opacity="1.00" d=" M 119.42 294.57 C 123.04 294.86 126.64 295.41 130.17 296.27 C 128.99 298.65 127.81 301.03 126.60 303.40 C 123.83 300.78 121.54 297.72 119.42 294.57 Z" />
<path fill="#8e876d" opacity="1.00" d=" M 371.79 296.20 C 375.38 295.47 379.00 294.90 382.65 294.50 C 380.48 297.66 378.25 300.80 375.39 303.37 C 374.17 300.99 372.98 298.59 371.79 296.20 Z" />
<path fill="#8e876d" opacity="1.00" d=" M 96.62 302.03 C 101.53 304.35 106.34 306.85 111.21 309.26 C 108.28 311.97 105.16 314.48 101.87 316.74 C 100.11 311.84 97.90 307.09 96.62 302.03 Z" />
<path fill="#8e876d" opacity="1.00" d=" M 130.41 301.91 C 134.09 302.36 137.74 303.02 141.36 303.77 C 139.69 306.93 137.84 310.01 135.87 313.00 C 133.95 309.35 132.04 305.69 130.41 301.91 Z" />
<path fill="#8e876d" opacity="1.00" d=" M 360.63 303.78 C 364.26 303.05 367.91 302.43 371.58 301.94 C 369.94 305.71 368.05 309.35 366.12 312.97 C 364.16 309.99 362.32 306.93 360.63 303.78 Z" />
<path fill="#8e876d" opacity="1.00" d=" M 390.83 309.27 C 395.78 307.03 400.40 304.09 405.53 302.28 C 403.80 307.14 401.98 311.97 400.07 316.77 C 396.89 314.40 393.74 311.97 390.83 309.27 Z" />
<path fill="#8e876d" opacity="1.00" d=" M 85.03 316.64 C 84.84 312.44 84.78 308.22 85.25 304.03 C 87.01 306.43 88.76 308.83 90.54 311.22 C 88.78 313.10 86.95 314.92 85.03 316.64 Z" />
<path fill="#8e876d" opacity="1.00" d=" M 416.76 304.02 C 417.21 308.22 417.15 312.45 416.97 316.67 C 415.06 314.92 413.23 313.10 411.48 311.20 C 413.26 308.82 415.00 306.42 416.76 304.02 Z" />
<path fill="#8e876d" opacity="1.00" d=" M 143.56 309.54 C 147.77 309.22 151.99 309.31 156.21 309.34 C 154.18 313.08 152.13 317.17 148.99 320.02 C 146.77 316.76 145.39 313.02 143.56 309.54 Z" />
<path fill="#8e876d" opacity="1.00" d=" M 345.78 309.34 C 349.93 309.33 354.07 309.34 358.22 309.32 C 356.90 312.88 355.33 316.36 353.36 319.60 C 353.14 319.68 352.69 319.83 352.47 319.91 C 350.02 316.53 347.61 313.09 345.78 309.34 Z" />
<path fill="#8e876d" opacity="1.00" d=" M 328.66 316.99 C 332.94 318.14 337.21 319.34 341.43 320.73 C 339.14 324.44 336.69 328.04 334.30 331.68 C 331.87 327.02 330.17 322.01 328.66 316.99 Z" />
<path fill="#8e876d" opacity="1.00" d=" M 160.85 320.48 C 165.06 319.43 169.19 318.07 173.45 317.21 C 171.72 322.08 169.92 326.93 167.98 331.73 C 165.40 328.12 162.56 324.61 160.85 320.48 Z" />
<path fill="#8e876d" opacity="1.00" d=" M 111.48 318.85 C 115.77 319.37 120.07 319.86 124.28 320.86 C 121.36 323.98 118.27 326.93 115.33 330.03 C 113.76 326.40 112.55 322.64 111.48 318.85 Z" />
<path fill="#8e876d" opacity="1.00" d=" M 377.88 320.60 C 382.09 320.01 386.30 319.45 390.51 318.87 C 389.44 322.63 388.18 326.32 386.85 330.00 C 383.81 326.92 380.44 324.12 377.88 320.60 Z" />
<path fill="#8e876d" opacity="1.00" d=" M 88.84 320.87 C 91.41 322.57 93.87 324.45 96.16 326.52 C 93.78 328.90 91.38 331.27 88.82 333.48 C 88.62 329.27 88.63 325.07 88.84 320.87 Z" />
<path fill="#8e876d" opacity="1.00" d=" M 405.86 326.25 C 408.27 324.43 410.71 322.63 413.18 320.87 C 413.37 325.04 413.38 329.22 413.16 333.39 C 410.52 331.24 408.11 328.81 405.86 326.25 Z" />
<path fill="#8e876d" opacity="1.00" d=" M 177.61 326.26 C 182.49 325.83 187.32 324.96 192.22 324.69 C 189.41 329.62 186.25 334.34 183.32 339.20 C 180.84 335.16 179.19 330.70 177.61 326.26 Z" />
<path fill="#8e876d" opacity="1.00" d=" M 309.76 324.66 C 314.72 325.01 319.69 325.52 324.57 326.53 C 322.65 330.78 320.95 335.12 318.91 339.32 C 315.73 334.52 312.66 329.63 309.76 324.66 Z" />
<path fill="#8e876d" opacity="1.00" d=" M 126.47 330.37 C 130.24 330.56 133.93 331.31 137.63 332.00 C 135.36 335.80 132.79 339.41 130.40 343.14 C 128.80 338.98 127.78 334.63 126.47 330.37 Z" />
<path fill="#8e876d" opacity="1.00" d=" M 364.40 332.06 C 368.09 331.39 371.77 330.58 375.53 330.34 C 374.26 334.62 373.06 338.92 371.76 343.19 C 369.24 339.53 366.70 335.87 364.40 332.06 Z" />
<path fill="#8e876d" opacity="1.00" d=" M 194.49 333.91 C 199.42 333.85 204.36 333.82 209.29 333.94 C 206.36 338.36 203.32 342.72 200.03 346.89 C 198.09 342.60 196.19 338.29 194.49 333.91 Z" />
<path fill="#8e876d" opacity="1.00" d=" M 292.69 333.94 C 297.63 333.82 302.57 333.84 307.51 333.91 C 305.80 338.30 303.90 342.62 301.96 346.91 C 298.71 342.71 295.65 338.35 292.69 333.94 Z" />
<path fill="#8e876d" opacity="1.00" d=" M 94.45 337.99 C 97.69 339.50 100.86 341.21 103.56 343.59 C 101.13 345.38 98.69 347.15 96.25 348.94 C 95.62 345.29 95.00 341.65 94.45 337.99 Z" />
<path fill="#8e876d" opacity="1.00" d=" M 398.43 343.25 C 401.37 341.35 404.37 339.52 407.54 338.02 C 407.00 341.66 406.37 345.29 405.76 348.92 C 403.22 347.16 400.77 345.27 398.43 343.25 Z" />
<path fill="#8e876d" opacity="1.00" d=" M 139.80 341.60 C 144.06 341.38 148.34 341.39 152.61 341.59 C 150.35 345.32 147.87 348.90 145.50 352.56 C 143.26 349.09 141.60 345.30 139.80 341.60 Z" />
<path fill="#8e876d" opacity="1.00" d=" M 349.41 341.57 C 353.68 341.40 357.95 341.40 362.22 341.56 C 360.43 345.26 358.79 349.04 356.50 352.46 C 354.09 348.86 351.62 345.29 349.41 341.57 Z" />
<path fill="#8e876d" opacity="1.00" d=" M 211.47 345.31 C 215.80 345.79 220.12 346.37 224.42 347.07 C 221.48 350.90 218.45 354.67 215.13 358.18 C 213.82 353.92 212.58 349.63 211.47 345.31 Z" />
<path fill="#8e876d" opacity="1.00" d=" M 277.54 347.11 C 281.88 346.46 286.21 345.81 290.57 345.29 C 289.40 349.62 288.18 353.93 286.85 358.21 C 283.59 354.64 280.56 350.88 277.54 347.11 Z" />
<path fill="#8e876d" opacity="1.00" d=" M 154.82 350.94 C 159.55 351.66 164.57 351.50 169.12 353.01 C 166.88 357.15 163.29 360.37 160.36 364.00 C 158.53 359.64 156.62 355.31 154.82 350.94 Z" />
<path fill="#8e876d" opacity="1.00" d=" M 332.51 352.78 C 337.38 352.02 342.28 351.51 347.19 350.96 C 345.36 355.32 343.47 359.64 341.64 364.00 C 338.50 360.34 335.23 356.77 332.51 352.78 Z" />
<path fill="#8e876d" opacity="1.00" d=" M 105.81 352.85 C 109.57 353.93 113.29 355.17 116.95 356.56 C 114.51 359.11 112.01 361.60 109.38 363.96 C 108.17 360.26 106.93 356.57 105.81 352.85 Z" />
<path fill="#8e876d" opacity="1.00" d=" M 385.09 356.45 C 388.79 355.25 392.47 354.02 396.19 352.86 C 395.08 356.61 393.85 360.31 392.51 363.98 C 389.97 361.53 387.48 359.04 385.09 356.45 Z" />
<path fill="#8e876d" opacity="1.00" d=" M 171.85 362.20 C 176.20 362.18 180.55 362.19 184.91 362.20 C 183.10 365.87 181.28 369.54 179.50 373.22 C 176.49 369.88 174.31 365.94 171.85 362.20 Z" />
<path fill="#8e876d" opacity="1.00" d=" M 317.11 362.20 C 321.45 362.19 325.79 362.18 330.14 362.22 C 327.73 365.97 325.47 369.84 322.55 373.23 C 320.71 369.56 318.90 365.89 317.11 362.20 Z" />
<path fill="#8e876d" opacity="1.00" d=" M 117.34 362.36 C 122.27 362.72 127.17 363.41 132.07 364.07 C 130.26 367.79 128.40 371.50 126.57 375.22 C 123.24 371.12 120.21 366.79 117.34 362.36 Z" />
<path fill="#8e876d" opacity="1.00" d=" M 369.93 364.11 C 374.84 363.52 379.72 362.69 384.66 362.40 C 381.84 366.81 378.68 370.99 375.64 375.25 C 373.56 371.63 371.79 367.85 369.93 364.11 Z" />
<path fill="#8e876d" opacity="1.00" d=" M 134.56 371.83 C 138.75 372.17 142.90 372.84 147.05 373.46 C 145.95 375.98 144.79 378.47 143.57 380.94 C 140.38 378.09 137.27 375.14 134.56 371.83 Z" />
<path fill="#8e876d" opacity="1.00" d=" M 189.02 371.63 C 193.87 371.57 198.73 371.54 203.59 371.70 C 201.31 375.53 198.81 379.23 196.24 382.87 C 193.81 379.14 191.13 375.56 189.02 371.63 Z" />
<path fill="#8e876d" opacity="1.00" d=" M 298.38 371.68 C 303.22 371.57 308.06 371.59 312.90 371.54 C 311.05 375.65 308.16 379.16 305.63 382.86 C 303.23 379.12 300.66 375.49 298.38 371.68 Z" />
<path fill="#8e876d" opacity="1.00" d=" M 354.96 373.43 C 359.16 372.90 363.35 372.27 367.57 371.79 C 364.73 375.05 361.67 378.11 358.42 380.96 C 357.20 378.48 356.05 375.97 354.96 373.43 Z" />
<path fill="#8e876d" opacity="1.00" d=" M 150.93 381.10 C 154.69 381.05 158.44 381.05 162.19 381.08 C 160.35 383.46 158.50 385.83 156.66 388.21 C 156.22 388.10 155.34 387.87 154.90 387.75 C 152.62 386.24 151.95 383.47 150.93 381.10 Z" />
<path fill="#8e876d" opacity="1.00" d=" M 205.84 381.10 C 210.78 381.66 215.72 382.26 220.64 382.96 C 218.40 386.77 215.79 390.34 213.44 394.09 C 210.58 389.95 208.25 385.50 205.84 381.10 Z" />
<path fill="#8e876d" opacity="1.00" d=" M 281.33 382.96 C 286.27 382.27 291.22 381.65 296.18 381.10 C 293.83 385.50 291.29 389.80 288.79 394.12 C 286.16 390.50 283.68 386.77 281.33 382.96 Z" />
<path fill="#8e876d" opacity="1.00" d=" M 339.80 381.09 C 343.53 381.06 347.26 381.06 350.99 381.08 C 350.25 382.98 349.51 384.88 348.79 386.79 C 347.82 387.19 346.86 387.59 345.89 387.99 L 345.32 388.14 C 343.48 385.79 341.64 383.44 339.80 381.09 Z" />
<path fill="#8e876d" opacity="1.00" d=" M 163.38 389.65 C 168.63 388.47 173.93 387.54 179.25 386.75 C 179.60 388.72 179.94 390.68 180.29 392.65 C 178.80 392.55 177.32 392.43 175.83 392.30 C 171.63 391.67 167.51 390.63 163.38 389.65 Z" />
<path fill="#8e876d" opacity="1.00" d=" M 322.75 386.74 C 328.09 387.49 333.42 388.35 338.66 389.67 C 333.05 391.08 327.38 392.14 321.68 393.10 C 322.03 390.97 322.39 388.86 322.75 386.74 Z" />
</g>
<g id="#433f36ff">
<path fill="#433f36" opacity="1.00" d=" M 213.30 13.64 C 222.28 44.47 230.68 75.47 239.73 106.29 C 239.53 114.18 236.06 122.55 239.89 130.05 C 243.72 139.34 247.04 148.83 250.99 158.06 C 254.97 148.83 258.29 139.33 262.11 130.04 C 265.98 122.57 262.42 114.21 262.28 106.34 C 271.28 75.50 279.73 44.50 288.70 13.65 C 287.59 42.00 286.53 70.35 285.25 98.69 C 281.14 109.41 277.06 120.13 272.90 130.83 C 271.49 134.37 271.68 138.24 271.72 141.98 C 271.86 151.76 271.59 161.53 271.87 171.30 C 278.66 164.60 284.87 157.34 291.50 150.47 C 293.75 148.04 296.57 145.65 296.89 142.12 C 298.64 131.74 300.50 121.37 302.29 110.99 C 303.34 107.22 305.75 104.08 307.75 100.79 C 324.70 73.52 341.56 46.21 358.54 18.97 C 353.53 47.59 348.49 76.21 343.48 104.84 C 342.81 108.62 342.30 112.44 341.24 116.13 C 336.85 123.11 332.46 130.09 328.03 137.05 C 326.40 139.40 326.08 142.29 325.80 145.06 C 324.32 159.52 322.36 173.93 320.95 188.40 C 331.46 179.43 341.60 170.03 352.06 160.99 C 353.73 159.61 355.10 157.85 355.70 155.74 C 360.72 139.86 365.77 123.99 370.86 108.13 C 389.93 88.46 409.04 68.82 428.27 49.30 C 417.20 86.81 405.88 124.24 394.76 161.73 C 393.94 164.50 393.15 167.29 392.04 169.96 C 375.85 183.80 359.70 197.69 343.50 211.51 C 341.41 213.07 340.78 215.68 340.09 218.04 C 337.58 227.08 334.77 236.03 332.23 245.06 C 341.31 242.04 350.15 238.38 359.16 235.19 C 363.14 234.15 364.95 230.20 367.21 227.18 C 384.38 203.17 401.61 179.20 418.81 155.21 C 438.79 140.53 458.93 126.07 479.06 111.59 C 461.14 144.29 442.72 176.71 424.69 209.34 C 446.04 201.33 467.28 193.01 488.63 185.01 C 470.84 205.84 453.01 226.64 435.12 247.40 C 434.62 243.48 433.56 239.66 432.28 235.93 C 423.51 251.52 412.46 265.94 398.53 277.27 C 396.64 278.99 394.86 280.84 392.90 282.49 C 390.13 284.54 387.33 286.54 384.61 288.64 C 368.93 299.26 349.67 303.48 330.94 303.69 C 321.24 303.65 312.23 308.05 304.37 313.37 C 291.31 322.57 280.08 335.07 274.20 350.08 C 270.86 357.96 271.89 366.66 271.76 374.99 C 271.85 380.33 271.52 385.69 271.88 391.03 C 271.97 394.03 273.99 397.08 277.03 397.72 C 280.36 398.30 283.78 397.91 287.07 397.21 C 284.32 398.40 281.74 399.94 279.37 401.75 C 276.49 404.08 273.95 406.84 271.95 409.97 C 270.53 412.55 270.02 415.47 269.60 418.36 C 276.37 419.09 284.02 418.84 289.62 414.49 C 294.91 410.12 295.74 402.84 296.50 396.48 C 306.48 397.26 316.51 397.36 326.50 398.00 C 317.05 408.06 307.59 418.12 298.10 428.15 C 295.49 430.90 293.80 435.05 295.23 438.77 C 297.50 446.54 299.73 454.33 301.93 462.12 C 296.91 458.36 291.91 454.57 286.87 450.85 C 286.20 460.26 285.62 469.69 284.95 479.10 C 280.50 474.89 276.49 470.19 271.82 466.23 C 257.99 465.53 244.06 466.11 230.19 465.96 C 225.83 470.37 221.44 474.75 217.05 479.13 C 216.37 469.71 215.80 460.29 215.13 450.88 C 210.10 454.61 205.11 458.42 200.06 462.14 C 202.27 454.34 204.50 446.55 206.77 438.77 C 208.20 435.02 206.49 430.84 203.86 428.08 C 194.39 418.09 184.99 408.04 175.54 398.05 C 185.53 397.48 195.54 397.29 205.51 396.47 C 206.23 402.87 207.10 410.16 212.42 414.53 C 218.02 418.83 225.64 419.09 232.39 418.37 C 231.98 415.48 231.46 412.56 230.05 409.97 C 228.04 406.85 225.51 404.08 222.62 401.75 C 220.50 400.15 218.27 398.71 215.93 397.48 C 219.13 397.94 222.47 398.35 225.65 397.54 C 228.74 396.45 230.28 393.07 230.21 389.96 C 230.33 380.97 230.21 371.97 230.25 362.97 C 230.30 354.28 226.65 346.09 222.16 338.83 C 214.46 326.79 203.88 316.50 191.38 309.51 C 185.40 306.29 178.83 303.83 171.96 303.73 C 152.95 303.57 133.34 299.43 117.43 288.64 C 114.68 286.53 111.87 284.52 109.09 282.46 C 107.12 280.81 105.33 278.97 103.44 277.25 C 89.56 265.91 78.49 251.55 69.74 235.99 C 68.41 239.68 67.36 243.48 66.87 247.38 C 49.04 226.60 31.12 205.90 13.45 184.99 C 34.78 192.98 56.01 201.26 77.32 209.32 C 59.27 176.69 40.84 144.28 22.96 111.57 C 43.07 126.04 63.23 140.47 83.18 155.17 C 100.38 179.16 117.60 203.13 134.78 227.14 C 136.93 229.91 138.48 233.64 142.07 234.82 C 151.30 238.16 160.42 241.86 169.74 244.99 C 167.23 236.00 164.42 227.09 161.93 218.10 C 161.22 215.70 160.60 213.07 158.51 211.48 C 142.30 197.64 126.13 183.75 109.93 169.90 C 108.73 167.01 107.91 163.99 107.03 161.00 C 95.95 123.74 84.73 86.52 73.71 49.25 C 92.94 68.80 112.12 88.41 131.15 108.15 C 135.75 122.48 140.32 136.81 144.85 151.16 C 145.94 154.44 146.56 158.23 149.45 160.50 C 160.05 169.73 170.42 179.21 181.05 188.41 C 179.67 174.27 177.76 160.20 176.31 146.07 C 175.95 142.95 175.80 139.63 173.92 136.97 C 169.51 130.04 165.14 123.08 160.76 116.12 C 159.58 112.00 159.05 107.74 158.29 103.53 C 153.33 75.33 148.41 47.12 143.42 18.92 C 161.46 47.79 179.29 76.79 197.32 105.67 C 198.33 107.32 199.17 109.08 199.70 110.95 C 201.56 121.63 203.42 132.32 205.29 143.00 C 205.72 145.68 207.84 147.56 209.57 149.47 C 216.52 156.65 223.04 164.23 230.12 171.28 C 230.42 161.50 230.13 151.71 230.28 141.93 C 230.28 138.29 230.54 134.50 229.17 131.05 C 224.99 120.21 220.83 109.36 216.68 98.51 C 215.54 70.22 214.37 41.93 213.30 13.64 M 188.32 140.45 C 192.37 162.20 195.98 184.03 200.21 205.75 C 202.21 216.26 204.83 226.64 207.01 237.12 C 207.34 240.23 210.50 241.58 212.64 243.36 C 218.30 247.27 223.51 251.81 229.26 255.56 C 230.83 256.26 230.61 253.89 230.96 253.05 C 232.33 244.78 234.06 236.58 235.51 228.33 C 236.09 225.57 234.06 223.29 232.90 220.99 C 228.05 212.93 224.09 204.30 218.67 196.60 C 218.61 194.93 217.53 193.51 216.89 192.03 C 206.92 172.37 197.19 152.59 187.25 132.91 C 187.47 135.44 187.83 137.96 188.32 140.45 M 284.41 193.43 C 283.99 194.44 283.28 195.44 283.32 196.58 C 277.42 205.18 272.98 214.68 267.63 223.62 C 265.50 226.40 266.71 229.89 267.30 232.96 C 268.98 240.68 269.88 248.57 271.92 256.21 C 278.01 252.27 283.56 247.58 289.48 243.39 C 291.64 241.63 294.65 240.14 295.02 237.05 C 297.17 226.63 299.73 216.29 301.77 205.84 C 306.35 181.57 310.74 157.26 314.86 132.91 C 304.50 152.97 294.67 173.31 284.41 193.43 M 249.32 176.24 C 246.69 194.19 244.55 212.22 241.64 230.13 C 240.02 248.85 237.64 267.51 236.09 286.23 C 241.44 282.54 245.82 277.67 250.99 273.74 C 256.23 277.56 260.54 282.50 265.90 286.17 C 264.34 267.43 261.95 248.77 260.35 230.04 C 256.90 208.72 254.45 187.24 251.15 165.90 C 249.87 169.19 249.90 172.79 249.32 176.24 M 161.03 187.86 C 170.68 210.19 180.77 232.33 190.57 254.59 L 191.09 254.86 C 192.18 258.84 194.16 262.48 195.78 266.25 C 199.19 273.55 202.05 281.14 205.79 288.26 C 212.89 292.09 220.64 294.70 228.08 297.84 C 229.15 292.30 229.17 286.64 229.81 281.05 C 229.90 278.47 230.75 275.39 228.72 273.32 C 220.90 263.64 213.88 253.29 205.72 243.89 C 203.90 240.37 200.90 237.62 198.58 234.43 C 186.01 218.95 173.88 203.10 161.03 187.86 M 298.95 239.97 C 298.00 241.22 296.85 242.38 296.29 243.87 C 294.43 245.84 292.71 247.94 291.12 250.13 C 284.90 258.51 278.16 266.54 272.18 275.08 C 271.98 282.67 272.94 290.33 273.92 297.87 C 280.79 295.16 287.58 292.27 294.38 289.39 C 296.93 288.60 297.54 285.80 298.56 283.67 C 302.53 273.99 307.40 264.68 310.93 254.83 C 311.84 254.02 312.18 252.78 312.74 251.73 C 322.04 230.39 331.77 209.24 340.98 187.87 C 326.62 204.94 313.08 222.70 298.95 239.97 M 115.87 241.91 C 130.26 257.65 145.40 272.70 160.02 288.23 C 164.51 292.60 168.67 297.34 173.40 301.45 C 180.82 303.24 188.45 304.38 196.04 305.29 C 193.66 297.27 191.45 289.17 188.58 281.32 C 183.35 277.11 177.54 273.51 171.74 270.09 C 168.83 267.78 165.17 266.63 161.94 264.83 C 146.57 257.21 131.32 249.36 115.87 241.91 M 373.29 248.26 C 359.93 254.90 346.63 261.67 333.23 268.24 C 332.21 268.81 331.04 269.22 330.27 270.12 C 324.46 273.54 318.69 277.15 313.41 281.32 C 310.47 289.12 308.37 297.24 305.99 305.23 C 311.78 304.98 317.42 303.56 323.15 302.79 C 325.58 302.33 328.36 302.18 330.14 300.22 C 334.13 296.27 338.01 292.21 341.99 288.26 C 353.74 275.90 365.61 263.66 377.40 251.34 C 380.14 248.44 383.09 245.72 385.47 242.50 C 381.23 244.03 377.33 246.30 373.29 248.26 M 242.79 311.91 C 240.78 317.11 238.08 322.06 236.63 327.47 C 241.68 325.88 245.95 322.50 251.02 321.02 C 256.09 322.47 260.34 325.87 265.38 327.46 C 264.25 323.25 262.37 319.32 260.67 315.34 C 257.35 308.00 254.81 300.30 250.99 293.20 C 247.78 299.22 245.52 305.67 242.79 311.91 M 250.53 333.39 C 246.90 342.15 243.26 350.93 240.03 359.85 C 243.78 357.68 247.28 355.10 250.99 352.86 C 254.72 355.08 258.23 357.66 261.97 359.89 C 259.12 351.64 255.52 343.68 252.46 335.52 C 251.91 334.72 251.90 332.83 250.53 333.39 M 237.15 390.20 C 233.11 394.14 228.59 397.56 224.88 401.83 C 233.48 408.24 242.25 414.41 251.04 420.55 C 259.76 414.36 268.64 408.39 277.11 401.86 C 273.54 397.74 269.32 394.28 265.33 390.60 C 260.51 386.31 256.15 381.52 251.04 377.56 C 246.17 381.50 241.66 385.86 237.15 390.20 M 209.51 418.90 C 210.77 428.05 211.80 437.23 213.27 446.34 C 215.48 440.40 217.01 434.23 218.91 428.19 C 215.79 425.08 212.72 421.92 209.51 418.90 M 283.09 428.22 C 284.94 434.34 286.75 440.47 288.61 446.60 C 290.26 437.42 291.18 428.13 292.48 418.90 C 289.30 421.95 286.21 425.10 283.09 428.22 M 232.15 420.96 C 232.78 426.44 233.13 432.21 235.77 437.18 C 239.13 442.11 245.33 444.20 250.99 445.00 C 256.67 444.21 262.78 442.08 266.26 437.25 C 268.85 432.24 269.22 426.45 269.85 420.94 C 263.38 422.77 257.50 426.26 250.99 427.92 C 244.51 426.21 238.65 422.67 232.15 420.96 M 226.47 433.90 C 227.09 442.60 227.70 451.30 228.34 460.00 C 231.03 453.86 233.41 447.59 235.89 441.36 C 232.74 438.88 229.64 436.36 226.47 433.90 M 266.11 441.40 C 268.61 447.61 270.97 453.88 273.66 460.02 C 274.29 451.31 274.90 442.61 275.52 433.91 C 272.38 436.40 269.26 438.92 266.11 441.40 M 241.47 449.09 C 239.65 453.44 237.77 457.77 235.93 462.11 C 239.06 462.13 242.19 462.14 245.32 462.13 C 244.07 457.77 242.93 453.38 241.47 449.09 M 260.39 449.05 C 259.16 453.41 257.92 457.77 256.68 462.13 C 259.81 462.13 262.95 462.13 266.09 462.13 C 264.20 457.76 262.40 453.36 260.39 449.05 Z" />
<path fill="#433f36" opacity="1.00" d=" M 13.23 247.12 C 30.94 253.13 48.62 259.21 66.31 265.29 C 68.39 283.80 72.94 301.94 77.74 319.90 C 79.83 325.92 82.31 331.81 84.90 337.64 C 65.17 325.96 44.81 315.34 24.99 303.80 C 36.79 303.64 48.59 303.79 60.38 303.72 C 44.71 284.82 28.95 265.98 13.23 247.12 Z" />
<path fill="#433f36" opacity="1.00" d=" M 435.67 265.35 C 453.37 259.27 471.09 253.22 488.78 247.12 C 473.12 266.01 457.26 284.75 441.71 303.73 C 453.49 303.79 465.27 303.63 477.05 303.81 C 457.22 315.39 436.84 326.01 417.08 337.68 C 419.65 331.86 422.12 325.99 424.23 320.00 C 429.03 302.02 433.58 283.87 435.67 265.35 Z" />
<path fill="#433f36" opacity="1.00" d=" M 35.89 324.48 C 50.86 331.83 66.15 338.63 82.07 343.69 C 84.10 344.24 86.24 345.21 88.35 344.38 C 92.21 352.39 96.93 360.35 104.11 365.83 C 112.28 372.12 121.66 376.64 131.26 380.31 C 130.92 382.44 130.57 384.57 130.23 386.70 C 120.13 383.60 110.12 380.21 99.93 377.39 C 98.81 383.69 97.43 389.94 96.28 396.23 C 94.95 396.80 93.68 397.46 92.38 398.07 C 84.97 401.25 77.50 404.26 70.08 407.39 L 69.88 407.46 C 72.29 415.02 74.87 422.52 77.36 430.05 C 68.35 441.57 59.29 453.04 50.18 464.48 C 46.66 458.07 43.15 451.67 39.71 445.23 C 36.77 448.08 33.84 450.94 30.93 453.82 C 32.31 440.85 34.25 427.95 35.85 415.00 C 30.86 408.08 25.78 401.21 20.81 394.27 C 25.81 394.26 30.82 394.28 35.83 394.24 C 28.34 386.65 20.77 379.15 13.24 371.61 C 18.88 371.59 24.52 371.60 30.16 371.60 C 23.97 361.53 17.59 351.58 11.42 341.50 C 22.72 345.84 34.00 350.22 45.28 354.62 C 42.17 344.56 38.97 334.54 35.89 324.48 M 56.97 403.96 C 58.51 406.52 60.50 408.78 62.31 411.15 C 64.55 407.03 63.84 402.45 62.27 398.25 C 60.46 400.07 58.02 401.53 56.97 403.96 M 43.49 422.75 C 45.37 424.52 47.21 426.33 49.02 428.16 C 50.99 426.34 52.90 424.44 54.71 422.47 C 52.84 420.60 50.95 418.75 49.03 416.94 C 47.07 418.76 45.25 420.72 43.49 422.75 M 47.19 441.35 C 49.67 443.91 52.20 446.43 54.73 448.94 C 57.08 446.51 59.71 444.34 61.82 441.70 C 61.79 439.59 59.89 437.82 58.64 436.19 C 56.29 435.17 53.47 435.91 50.94 435.76 C 49.70 437.63 48.45 439.49 47.19 441.35 Z" />
<path fill="#433f36" opacity="1.00" d=" M 419.93 343.72 C 435.83 338.65 451.13 331.89 466.09 324.53 C 463.02 334.57 459.81 344.58 456.73 354.62 C 468.05 350.34 479.26 345.80 490.59 341.52 C 484.39 351.58 478.05 361.54 471.84 371.60 C 477.49 371.60 483.13 371.58 488.77 371.62 C 481.26 379.17 473.67 386.67 466.18 394.25 C 471.19 394.27 476.19 394.26 481.21 394.27 C 476.22 401.21 471.15 408.09 466.14 415.02 C 467.77 427.96 469.65 440.86 471.10 453.82 C 468.19 450.92 465.25 448.04 462.27 445.22 C 458.87 451.66 455.38 458.05 451.84 464.41 C 442.65 453.04 433.67 441.52 424.63 430.04 C 427.12 422.50 429.73 415.01 432.11 407.43 L 431.97 407.39 C 424.51 404.16 416.94 401.22 409.52 397.92 C 408.25 397.35 407.00 396.75 405.72 396.24 C 404.57 389.94 403.18 383.69 402.07 377.39 C 391.90 380.29 381.89 383.69 371.77 386.70 C 371.42 384.57 371.08 382.45 370.74 380.32 C 380.11 376.75 389.25 372.35 397.29 366.31 C 404.76 360.80 409.67 352.63 413.63 344.40 C 415.76 345.14 417.90 344.33 419.93 343.72 M 439.71 398.19 C 438.20 402.42 437.43 407.04 439.70 411.17 C 441.59 408.73 443.45 406.27 445.33 403.83 C 443.60 401.81 441.72 399.92 439.71 398.19 M 447.29 422.58 C 449.15 424.48 451.06 426.33 453.00 428.16 C 454.84 426.31 456.70 424.48 458.58 422.67 C 456.76 420.70 454.89 418.78 452.97 416.92 C 451.04 418.77 449.15 420.66 447.29 422.58 M 439.80 441.59 C 442.34 443.99 444.80 446.46 447.27 448.94 C 449.77 446.47 452.26 443.97 454.80 441.53 C 453.59 439.58 452.34 437.66 451.06 435.76 C 448.62 435.74 446.19 435.71 443.77 435.63 C 442.26 437.49 440.96 439.50 439.80 441.59 Z" />
<path fill="#433f36" opacity="1.00" d=" M 90.58 456.44 C 95.68 436.97 100.61 417.45 105.73 397.98 C 126.48 398.03 147.23 397.98 167.98 398.01 C 179.75 408.67 191.76 419.07 203.40 429.86 C 181.50 426.42 159.69 422.37 137.81 418.79 C 136.48 426.30 135.24 433.82 134.02 441.35 C 140.99 438.34 147.84 435.08 154.78 432.01 C 157.91 437.65 161.04 443.30 164.18 448.93 C 169.23 445.23 174.21 441.46 179.21 437.70 C 181.85 441.38 184.35 445.17 186.82 448.97 C 184.87 451.50 182.91 454.02 180.95 456.55 C 150.82 456.46 120.70 456.66 90.58 456.44 M 118.93 428.20 C 120.80 429.47 122.68 430.73 124.58 431.96 C 126.34 430.00 128.75 428.45 129.92 426.08 C 128.98 424.21 127.74 422.51 126.59 420.77 C 123.90 423.10 121.41 425.64 118.93 428.20 M 105.35 428.53 C 104.19 429.10 103.33 430.72 104.01 431.97 C 104.67 434.49 108.66 434.37 109.34 431.90 C 110.12 429.62 107.46 427.33 105.35 428.53 M 145.33 445.09 C 145.94 446.36 146.55 447.66 147.16 448.95 C 149.70 447.77 152.19 446.50 154.65 445.15 C 152.89 443.33 151.13 441.50 149.38 439.67 C 147.90 441.38 146.50 443.15 145.33 445.09 M 113.29 442.30 C 110.51 444.14 110.80 448.80 113.81 450.25 C 116.79 452.10 121.01 449.46 120.77 446.01 C 120.85 442.38 116.14 439.98 113.29 442.30 Z" />
<path fill="#433f36" opacity="1.00" d=" M 334.09 398.01 C 354.81 397.96 375.53 398.06 396.25 397.96 C 401.40 417.44 406.33 436.98 411.42 456.48 C 381.31 456.62 351.20 456.46 321.09 456.57 C 319.12 454.03 317.15 451.50 315.19 448.97 C 317.67 445.16 320.16 441.36 322.84 437.69 C 327.77 441.45 332.80 445.10 337.69 448.93 C 341.05 443.38 344.05 437.62 347.25 431.98 C 354.18 435.04 361.03 438.30 367.98 441.33 C 366.80 433.89 365.42 426.48 364.36 419.02 C 342.35 422.16 320.53 426.62 298.53 429.93 C 310.25 419.14 322.25 408.66 334.09 398.01 M 375.43 420.75 C 374.29 422.49 373.03 424.18 372.12 426.06 C 373.17 428.45 375.71 429.98 377.43 431.96 C 379.33 430.74 381.22 429.49 383.09 428.22 C 380.62 425.64 378.12 423.10 375.43 420.75 M 394.44 428.38 C 390.65 429.52 393.34 435.52 396.72 433.51 C 399.73 432.06 397.53 427.11 394.44 428.38 M 347.30 445.16 C 349.80 446.44 352.32 447.70 354.83 448.96 C 355.44 447.64 356.04 446.32 356.65 445.01 C 355.43 443.24 354.22 441.47 353.01 439.70 C 351.02 441.43 349.09 443.23 347.30 445.16 M 383.26 442.24 C 380.37 444.05 380.65 448.84 383.75 450.30 C 386.74 452.04 390.94 449.43 390.65 445.96 C 390.70 442.38 386.10 440.04 383.26 442.24 Z" />
</g>
<g id="#615b4fff">
<path fill="#615b4f" opacity="1.00" d=" M 245.56 122.70 C 249.17 122.56 252.79 122.56 256.40 122.72 C 254.87 127.54 253.25 132.35 251.01 136.89 C 248.75 132.34 247.11 127.53 245.56 122.70 Z" />
<path fill="#615b4f" opacity="1.00" d=" M 213.66 145.15 C 217.23 143.25 220.81 141.33 224.61 139.92 C 225.15 145.80 225.96 151.65 226.17 157.55 C 221.62 153.84 217.47 149.62 213.66 145.15 Z" />
<path fill="#615b4f" opacity="1.00" d=" M 277.36 139.91 C 281.23 141.26 284.80 143.26 288.41 145.16 C 284.71 149.90 280.16 153.87 275.89 158.08 C 275.86 151.99 276.88 145.97 277.36 139.91 Z" />
<path fill="#615b4f" opacity="1.00" d=" M 160.74 160.21 C 164.34 157.71 167.97 155.26 171.72 152.98 C 172.41 159.01 172.98 165.06 173.60 171.11 C 168.93 167.97 164.67 164.22 160.74 160.21 Z" />
<path fill="#615b4f" opacity="1.00" d=" M 330.24 152.97 C 334.05 155.18 337.66 157.71 341.29 160.21 C 337.38 164.26 333.06 167.97 328.41 171.15 C 329.01 165.09 329.64 159.03 330.24 152.97 Z" />
<path fill="#615b4f" opacity="1.00" d=" M 218.67 196.60 C 224.09 204.30 228.05 212.93 232.90 220.99 C 234.06 223.29 236.09 225.57 235.51 228.33 C 234.06 236.58 232.33 244.78 230.96 253.05 C 230.61 253.89 230.83 256.26 229.26 255.56 C 223.51 251.81 218.30 247.27 212.64 243.36 C 210.50 241.58 207.34 240.23 207.01 237.12 C 204.83 226.64 202.21 216.26 200.21 205.75 C 206.06 210.15 211.21 215.40 216.83 220.09 C 217.36 212.25 218.01 204.42 218.67 196.60 Z" />
<path fill="#615b4f" opacity="1.00" d=" M 267.63 223.62 C 272.98 214.68 277.42 205.18 283.32 196.58 C 283.98 204.43 284.65 212.28 285.16 220.14 C 290.79 215.47 295.89 210.19 301.77 205.84 C 299.73 216.29 297.17 226.63 295.02 237.05 C 294.65 240.14 291.64 241.63 289.48 243.39 C 283.56 247.58 278.01 252.27 271.92 256.21 C 269.88 248.57 268.98 240.68 267.30 232.96 C 266.71 229.89 265.50 226.40 267.63 223.62 Z" />
<path fill="#615b4f" opacity="1.00" d=" M 152.58 218.99 C 156.18 224.09 158.91 229.75 161.86 235.24 C 155.66 233.56 149.93 230.55 143.85 228.48 C 146.22 224.85 149.71 222.19 152.58 218.99 Z" />
<path fill="#615b4f" opacity="1.00" d=" M 340.24 235.46 C 342.79 229.72 345.90 224.18 349.46 219.00 C 352.29 222.22 355.86 224.82 358.14 228.51 C 352.15 230.78 346.30 233.40 340.24 235.46 Z" />
<path fill="#615b4f" opacity="1.00" d=" M 236.09 286.23 C 237.64 267.51 240.02 248.85 241.64 230.13 C 243.18 235.40 247.82 238.84 251.02 243.08 C 254.21 238.82 258.93 235.38 260.35 230.04 C 261.95 248.77 264.34 267.43 265.90 286.17 C 260.54 282.50 256.23 277.56 250.99 273.74 C 245.82 277.67 241.44 282.54 236.09 286.23 Z" />
<path fill="#615b4f" opacity="1.00" d=" M 205.72 243.89 C 213.88 253.29 220.90 263.64 228.72 273.32 C 230.75 275.39 229.90 278.47 229.81 281.05 C 229.17 286.64 229.15 292.30 228.08 297.84 C 220.64 294.70 212.89 292.09 205.79 288.26 C 202.05 281.14 199.19 273.55 195.78 266.25 C 194.16 262.48 192.18 258.84 191.09 254.86 C 197.25 258.02 202.95 261.99 209.08 265.21 C 207.94 258.10 206.58 251.04 205.72 243.89 Z" />
<path fill="#615b4f" opacity="1.00" d=" M 291.12 250.13 C 292.71 247.94 294.43 245.84 296.29 243.87 C 295.42 251.03 294.01 258.11 292.95 265.24 C 299.08 262.01 304.86 258.16 310.93 254.83 C 307.40 264.68 302.53 273.99 298.56 283.67 C 297.54 285.80 296.93 288.60 294.38 289.39 C 287.58 292.27 280.79 295.16 273.92 297.87 C 272.94 290.33 271.98 282.67 272.18 275.08 C 278.16 266.54 284.90 258.51 291.12 250.13 Z" />
<path fill="#615b4f" opacity="1.00" d=" M 171.74 270.09 C 177.54 273.51 183.35 277.11 188.58 281.32 C 191.45 289.17 193.66 297.27 196.04 305.29 C 188.45 304.38 180.82 303.24 173.40 301.45 C 168.67 297.34 164.51 292.60 160.02 288.23 C 166.27 288.19 172.53 288.30 178.78 288.05 C 176.38 282.08 174.00 276.11 171.74 270.09 Z" />
<path fill="#615b4f" opacity="1.00" d=" M 313.41 281.32 C 318.69 277.15 324.46 273.54 330.27 270.12 C 328.03 276.08 325.73 282.02 323.20 287.86 C 329.45 288.48 335.73 288.12 341.99 288.26 C 338.01 292.21 334.13 296.27 330.14 300.22 C 328.36 302.18 325.58 302.33 323.15 302.79 C 317.42 303.56 311.78 304.98 305.99 305.23 C 308.37 297.24 310.47 289.12 313.41 281.32 Z" />
<path fill="#615b4f" opacity="1.00" d=" M 242.79 311.91 C 245.52 305.67 247.78 299.22 250.99 293.20 C 254.81 300.30 257.35 308.00 260.67 315.34 C 262.37 319.32 264.25 323.25 265.38 327.46 C 260.34 325.87 256.09 322.47 251.02 321.02 C 245.95 322.50 241.68 325.88 236.63 327.47 C 238.08 322.06 240.78 317.11 242.79 311.91 Z" />
<path fill="#615b4f" opacity="1.00" d=" M 250.53 333.39 C 251.90 332.83 251.91 334.72 252.46 335.52 C 255.52 343.68 259.12 351.64 261.97 359.89 C 258.23 357.66 254.72 355.08 250.99 352.86 C 247.28 355.10 243.78 357.68 240.03 359.85 C 243.26 350.93 246.90 342.15 250.53 333.39 Z" />
<path fill="#615b4f" opacity="1.00" d=" M 237.15 390.20 C 241.66 385.86 246.17 381.50 251.04 377.56 C 256.15 381.52 260.51 386.31 265.33 390.60 C 269.32 394.28 273.54 397.74 277.11 401.86 C 268.64 408.39 259.76 414.36 251.04 420.55 C 242.25 414.41 233.48 408.24 224.88 401.83 C 228.59 397.56 233.11 394.14 237.15 390.20 Z" />
<path fill="#615b4f" opacity="1.00" d=" M 232.15 420.96 C 238.65 422.67 244.51 426.21 250.99 427.92 C 257.50 426.26 263.38 422.77 269.85 420.94 C 269.22 426.45 268.85 432.24 266.26 437.25 C 262.78 442.08 256.67 444.21 250.99 445.00 C 245.33 444.20 239.13 442.11 235.77 437.18 C 233.13 432.21 232.78 426.44 232.15 420.96 Z" />
</g>
<g id="#dad4a2ff">
<path fill="#dad4a2" opacity="1.00" d=" M 90.74 277.59 C 94.97 277.51 99.21 277.42 103.44 277.25 C 105.33 278.97 107.12 280.81 109.09 282.46 C 110.18 286.48 111.68 290.36 113.38 294.16 C 114.73 292.32 116.08 290.48 117.43 288.64 C 133.34 299.43 152.95 303.57 171.96 303.73 C 178.83 303.83 185.40 306.29 191.38 309.51 C 203.88 316.50 214.46 326.79 222.16 338.83 C 226.65 346.09 230.30 354.28 230.25 362.97 C 230.21 371.97 230.33 380.97 230.21 389.96 C 230.28 393.07 228.74 396.45 225.65 397.54 C 222.47 398.35 219.13 397.94 215.93 397.48 C 212.71 396.43 209.33 396.01 205.97 396.43 C 199.70 396.36 193.55 395.02 187.34 394.40 C 183.50 393.71 179.68 392.95 175.83 392.30 C 177.32 392.43 178.80 392.55 180.29 392.65 C 179.94 390.68 179.60 388.72 179.25 386.75 C 173.93 387.54 168.63 388.47 163.38 389.65 C 161.13 389.20 158.89 388.72 156.66 388.21 C 158.50 385.83 160.35 383.46 162.19 381.08 C 158.44 381.05 154.69 381.05 150.93 381.10 C 151.95 383.47 152.62 386.24 154.90 387.75 C 146.94 385.54 139.00 383.21 131.26 380.31 C 121.66 376.64 112.28 372.12 104.11 365.83 C 96.93 360.35 92.21 352.39 88.35 344.38 C 87.14 342.16 86.01 339.91 84.90 337.64 C 82.31 331.81 79.83 325.92 77.74 319.90 C 78.18 310.12 80.32 300.51 81.18 290.76 C 85.60 293.80 89.90 297.02 94.34 300.03 C 93.48 292.50 92.02 285.06 90.74 277.59 M 119.42 294.57 C 121.54 297.72 123.83 300.78 126.60 303.40 C 127.81 301.03 128.99 298.65 130.17 296.27 C 126.64 295.41 123.04 294.86 119.42 294.57 M 96.62 302.03 C 97.90 307.09 100.11 311.84 101.87 316.74 C 105.16 314.48 108.28 311.97 111.21 309.26 C 106.34 306.85 101.53 304.35 96.62 302.03 M 130.41 301.91 C 132.04 305.69 133.95 309.35 135.87 313.00 C 137.84 310.01 139.69 306.93 141.36 303.77 C 137.74 303.02 134.09 302.36 130.41 301.91 M 85.03 316.64 C 86.95 314.92 88.78 313.10 90.54 311.22 C 88.76 308.83 87.01 306.43 85.25 304.03 C 84.78 308.22 84.84 312.44 85.03 316.64 M 143.56 309.54 C 145.39 313.02 146.77 316.76 148.99 320.02 C 152.13 317.17 154.18 313.08 156.21 309.34 C 151.99 309.31 147.77 309.22 143.56 309.54 M 160.85 320.48 C 162.56 324.61 165.40 328.12 167.98 331.73 C 169.92 326.93 171.72 322.08 173.45 317.21 C 169.19 318.07 165.06 319.43 160.85 320.48 M 111.48 318.85 C 112.55 322.64 113.76 326.40 115.33 330.03 C 118.27 326.93 121.36 323.98 124.28 320.86 C 120.07 319.86 115.77 319.37 111.48 318.85 M 88.84 320.87 C 88.63 325.07 88.62 329.27 88.82 333.48 C 91.38 331.27 93.78 328.90 96.16 326.52 C 93.87 324.45 91.41 322.57 88.84 320.87 M 177.61 326.26 C 179.19 330.70 180.84 335.16 183.32 339.20 C 186.25 334.34 189.41 329.62 192.22 324.69 C 187.32 324.96 182.49 325.83 177.61 326.26 M 126.47 330.37 C 127.78 334.63 128.80 338.98 130.40 343.14 C 132.79 339.41 135.36 335.80 137.63 332.00 C 133.93 331.31 130.24 330.56 126.47 330.37 M 194.49 333.91 C 196.19 338.29 198.09 342.60 200.03 346.89 C 203.32 342.72 206.36 338.36 209.29 333.94 C 204.36 333.82 199.42 333.85 194.49 333.91 M 94.45 337.99 C 95.00 341.65 95.62 345.29 96.25 348.94 C 98.69 347.15 101.13 345.38 103.56 343.59 C 100.86 341.21 97.69 339.50 94.45 337.99 M 139.80 341.60 C 141.60 345.30 143.26 349.09 145.50 352.56 C 147.87 348.90 150.35 345.32 152.61 341.59 C 148.34 341.39 144.06 341.38 139.80 341.60 M 211.47 345.31 C 212.58 349.63 213.82 353.92 215.13 358.18 C 218.45 354.67 221.48 350.90 224.42 347.07 C 220.12 346.37 215.80 345.79 211.47 345.31 M 154.82 350.94 C 156.62 355.31 158.53 359.64 160.36 364.00 C 163.29 360.37 166.88 357.15 169.12 353.01 C 164.57 351.50 159.55 351.66 154.82 350.94 M 105.81 352.85 C 106.93 356.57 108.17 360.26 109.38 363.96 C 112.01 361.60 114.51 359.11 116.95 356.56 C 113.29 355.17 109.57 353.93 105.81 352.85 M 171.85 362.20 C 174.31 365.94 176.49 369.88 179.50 373.22 C 181.28 369.54 183.10 365.87 184.91 362.20 C 180.55 362.19 176.20 362.18 171.85 362.20 M 117.34 362.36 C 120.21 366.79 123.24 371.12 126.57 375.22 C 128.40 371.50 130.26 367.79 132.07 364.07 C 127.17 363.41 122.27 362.72 117.34 362.36 M 134.56 371.83 C 137.27 375.14 140.38 378.09 143.57 380.94 C 144.79 378.47 145.95 375.98 147.05 373.46 C 142.90 372.84 138.75 372.17 134.56 371.83 M 189.02 371.63 C 191.13 375.56 193.81 379.14 196.24 382.87 C 198.81 379.23 201.31 375.53 203.59 371.70 C 198.73 371.54 193.87 371.57 189.02 371.63 M 205.84 381.10 C 208.25 385.50 210.58 389.95 213.44 394.09 C 215.79 390.34 218.40 386.77 220.64 382.96 C 215.72 382.26 210.78 381.66 205.84 381.10 Z" />
<path fill="#dad4a2" opacity="1.00" d=" M 392.90 282.49 C 394.86 280.84 396.64 278.99 398.53 277.27 C 402.69 277.51 406.85 277.51 411.01 277.37 C 410.30 284.99 408.39 292.43 407.65 300.05 C 412.10 297.05 416.40 293.83 420.82 290.78 C 421.67 300.55 423.87 310.19 424.23 320.00 C 422.12 325.99 419.65 331.86 417.08 337.68 C 415.97 339.94 414.83 342.19 413.63 344.40 C 409.67 352.63 404.76 360.80 397.29 366.31 C 389.25 372.35 380.11 376.75 370.74 380.32 C 362.61 383.35 354.32 385.92 345.89 387.99 C 346.86 387.59 347.82 387.19 348.79 386.79 C 349.51 384.88 350.25 382.98 350.99 381.08 C 347.26 381.06 343.53 381.06 339.80 381.09 C 341.64 383.44 343.48 385.79 345.32 388.14 C 343.11 388.72 340.89 389.22 338.66 389.67 C 333.42 388.35 328.09 387.49 322.75 386.74 C 322.39 388.86 322.03 390.97 321.68 393.10 C 318.12 393.71 314.55 394.31 310.97 394.83 C 306.03 395.46 301.11 396.39 296.12 396.45 C 293.07 396.12 289.99 396.28 287.07 397.21 C 283.78 397.91 280.36 398.30 277.03 397.72 C 273.99 397.08 271.97 394.03 271.88 391.03 C 271.52 385.69 271.85 380.33 271.76 374.99 C 271.89 366.66 270.86 357.96 274.20 350.08 C 280.08 335.07 291.31 322.57 304.37 313.37 C 312.23 308.05 321.24 303.65 330.94 303.69 C 349.67 303.48 368.93 299.26 384.61 288.64 C 385.94 290.48 387.27 292.31 388.61 294.15 C 390.32 290.37 391.82 286.50 392.90 282.49 M 371.79 296.20 C 372.98 298.59 374.17 300.99 375.39 303.37 C 378.25 300.80 380.48 297.66 382.65 294.50 C 379.00 294.90 375.38 295.47 371.79 296.20 M 360.63 303.78 C 362.32 306.93 364.16 309.99 366.12 312.97 C 368.05 309.35 369.94 305.71 371.58 301.94 C 367.91 302.43 364.26 303.05 360.63 303.78 M 390.83 309.27 C 393.74 311.97 396.89 314.40 400.07 316.77 C 401.98 311.97 403.80 307.14 405.53 302.28 C 400.40 304.09 395.78 307.03 390.83 309.27 M 416.76 304.02 C 415.00 306.42 413.26 308.82 411.48 311.20 C 413.23 313.10 415.06 314.92 416.97 316.67 C 417.15 312.45 417.21 308.22 416.76 304.02 M 345.78 309.34 C 347.61 313.09 350.02 316.53 352.47 319.91 C 352.69 319.83 353.14 319.68 353.36 319.60 C 355.33 316.36 356.90 312.88 358.22 309.32 C 354.07 309.34 349.93 309.33 345.78 309.34 M 328.66 316.99 C 330.17 322.01 331.87 327.02 334.30 331.68 C 336.69 328.04 339.14 324.44 341.43 320.73 C 337.21 319.34 332.94 318.14 328.66 316.99 M 377.88 320.60 C 380.44 324.12 383.81 326.92 386.85 330.00 C 388.18 326.32 389.44 322.63 390.51 318.87 C 386.30 319.45 382.09 320.01 377.88 320.60 M 405.86 326.25 C 408.11 328.81 410.52 331.24 413.16 333.39 C 413.38 329.22 413.37 325.04 413.18 320.87 C 410.71 322.63 408.27 324.43 405.86 326.25 M 309.76 324.66 C 312.66 329.63 315.73 334.52 318.91 339.32 C 320.95 335.12 322.65 330.78 324.57 326.53 C 319.69 325.52 314.72 325.01 309.76 324.66 M 364.40 332.06 C 366.70 335.87 369.24 339.53 371.76 343.19 C 373.06 338.92 374.26 334.62 375.53 330.34 C 371.77 330.58 368.09 331.39 364.40 332.06 M 292.69 333.94 C 295.65 338.35 298.71 342.71 301.96 346.91 C 303.90 342.62 305.80 338.30 307.51 333.91 C 302.57 333.84 297.63 333.82 292.69 333.94 M 398.43 343.25 C 400.77 345.27 403.22 347.16 405.76 348.92 C 406.37 345.29 407.00 341.66 407.54 338.02 C 404.37 339.52 401.37 341.35 398.43 343.25 M 349.41 341.57 C 351.62 345.29 354.09 348.86 356.50 352.46 C 358.79 349.04 360.43 345.26 362.22 341.56 C 357.95 341.40 353.68 341.40 349.41 341.57 M 277.54 347.11 C 280.56 350.88 283.59 354.64 286.85 358.21 C 288.18 353.93 289.40 349.62 290.57 345.29 C 286.21 345.81 281.88 346.46 277.54 347.11 M 332.51 352.78 C 335.23 356.77 338.50 360.34 341.64 364.00 C 343.47 359.64 345.36 355.32 347.19 350.96 C 342.28 351.51 337.38 352.02 332.51 352.78 M 385.09 356.45 C 387.48 359.04 389.97 361.53 392.51 363.98 C 393.85 360.31 395.08 356.61 396.19 352.86 C 392.47 354.02 388.79 355.25 385.09 356.45 M 317.11 362.20 C 318.90 365.89 320.71 369.56 322.55 373.23 C 325.47 369.84 327.73 365.97 330.14 362.22 C 325.79 362.18 321.45 362.19 317.11 362.20 M 369.93 364.11 C 371.79 367.85 373.56 371.63 375.64 375.25 C 378.68 370.99 381.84 366.81 384.66 362.40 C 379.72 362.69 374.84 363.52 369.93 364.11 M 298.38 371.68 C 300.66 375.49 303.23 379.12 305.63 382.86 C 308.16 379.16 311.05 375.65 312.90 371.54 C 308.06 371.59 303.22 371.57 298.38 371.68 M 354.96 373.43 C 356.05 375.97 357.20 378.48 358.42 380.96 C 361.67 378.11 364.73 375.05 367.57 371.79 C 363.35 372.27 359.16 372.90 354.96 373.43 M 281.33 382.96 C 283.68 386.77 286.16 390.50 288.79 394.12 C 291.29 389.80 293.83 385.50 296.18 381.10 C 291.22 381.65 286.27 382.27 281.33 382.96 Z" />
<path fill="#dad4a2" opacity="1.00" d=" M 209.51 418.90 C 212.72 421.92 215.79 425.08 218.91 428.19 C 217.01 434.23 215.48 440.40 213.27 446.34 C 211.80 437.23 210.77 428.05 209.51 418.90 Z" />
<path fill="#dad4a2" opacity="1.00" d=" M 283.09 428.22 C 286.21 425.10 289.30 421.95 292.48 418.90 C 291.18 428.13 290.26 437.42 288.61 446.60 C 286.75 440.47 284.94 434.34 283.09 428.22 Z" />
<path fill="#dad4a2" opacity="1.00" d=" M 226.47 433.90 C 229.64 436.36 232.74 438.88 235.89 441.36 C 233.41 447.59 231.03 453.86 228.34 460.00 C 227.70 451.30 227.09 442.60 226.47 433.90 Z" />
<path fill="#dad4a2" opacity="1.00" d=" M 266.11 441.40 C 269.26 438.92 272.38 436.40 275.52 433.91 C 274.90 442.61 274.29 451.31 273.66 460.02 C 270.97 453.88 268.61 447.61 266.11 441.40 Z" />
<path fill="#dad4a2" opacity="1.00" d=" M 241.47 449.09 C 242.93 453.38 244.07 457.77 245.32 462.13 C 242.19 462.14 239.06 462.13 235.93 462.11 C 237.77 457.77 239.65 453.44 241.47 449.09 Z" />
<path fill="#dad4a2" opacity="1.00" d=" M 260.39 449.05 C 262.40 453.36 264.20 457.76 266.09 462.13 C 262.95 462.13 259.81 462.13 256.68 462.13 C 257.92 457.77 259.16 453.41 260.39 449.05 Z" />
<path fill="#dad4a2" opacity="1.00" d=" M 135.33 466.31 C 140.46 462.39 147.25 464.58 152.91 465.90 C 147.78 472.62 143.34 480.50 135.78 484.79 C 131.99 486.32 128.97 489.11 126.35 492.18 C 125.68 482.95 127.26 472.08 135.33 466.31 Z" />
<path fill="#dad4a2" opacity="1.00" d=" M 349.08 465.91 C 354.73 464.57 361.50 462.40 366.63 466.29 C 374.73 472.05 376.30 482.95 375.64 492.19 C 373.04 489.11 370.03 486.32 366.24 484.79 C 358.67 480.51 354.24 472.61 349.08 465.91 Z" />
<path fill="#dad4a2" opacity="1.00" d=" M 33.91 480.99 C 38.31 474.67 44.63 470.06 50.99 465.87 C 54.58 469.71 56.93 474.43 58.75 479.31 C 54.11 483.05 48.00 483.84 43.00 486.86 C 39.20 489.19 38.66 493.95 39.23 497.99 C 32.66 495.43 30.07 486.83 33.91 480.99 Z" />
<path fill="#dad4a2" opacity="1.00" d=" M 107.44 466.13 C 113.69 465.73 120.03 465.98 126.31 465.98 C 117.02 474.88 107.52 483.57 98.13 492.36 C 101.22 483.61 104.44 474.91 107.44 466.13 Z" />
<path fill="#dad4a2" opacity="1.00" d=" M 375.63 465.95 C 381.87 465.89 388.12 465.98 394.36 465.89 C 397.62 474.67 400.68 483.52 403.86 492.33 C 394.45 483.53 385.00 474.79 375.63 465.95 Z" />
<path fill="#dad4a2" opacity="1.00" d=" M 450.96 465.87 C 457.39 469.99 463.68 474.68 468.10 481.00 C 471.93 486.84 469.32 495.42 462.77 497.99 C 463.29 493.99 462.83 489.28 459.08 486.93 C 454.08 483.83 447.89 483.09 443.24 479.29 C 445.05 474.42 447.45 469.74 450.96 465.87 Z" />
<path fill="#dad4a2" opacity="1.00" d=" M 75.48 467.82 C 78.66 472.21 81.80 476.62 84.93 481.04 C 79.26 485.42 73.64 489.86 67.95 494.22 C 70.45 485.42 72.99 476.62 75.48 467.82 Z" />
<path fill="#dad4a2" opacity="1.00" d=" M 160.22 468.27 C 164.76 466.61 168.77 470.19 171.79 473.11 C 166.76 476.07 162.13 479.69 158.16 483.98 C 155.63 486.57 153.34 489.40 151.03 492.19 C 150.30 489.62 149.91 486.94 150.18 484.26 C 150.94 477.88 154.13 471.09 160.22 468.27 Z" />
<path fill="#dad4a2" opacity="1.00" d=" M 330.20 473.11 C 333.22 470.19 337.23 466.61 341.77 468.27 C 347.86 471.09 351.04 477.88 351.81 484.26 C 351.57 486.55 352.47 490.20 350.66 491.81 C 348.38 489.17 346.25 486.39 343.78 483.93 C 339.83 479.65 335.21 476.06 330.20 473.11 Z" />
<path fill="#dad4a2" opacity="1.00" d=" M 426.47 467.85 C 429.10 476.62 431.50 485.47 434.08 494.26 C 428.44 489.81 422.75 485.42 417.08 481.02 C 420.21 476.63 423.36 472.25 426.47 467.85 Z" />
<path fill="#dad4a2" opacity="1.00" d=" M 16.67 481.00 C 19.89 476.88 24.04 473.49 28.93 471.55 C 30.04 474.76 31.02 478.64 27.79 480.99 C 22.79 485.33 17.38 489.23 12.98 494.22 C 12.89 489.54 13.90 484.84 16.67 481.00 Z" />
<path fill="#dad4a2" opacity="1.00" d=" M 474.24 481.00 C 470.86 478.58 471.73 474.39 473.66 471.35 C 478.01 473.93 482.24 476.90 485.31 481.00 C 488.10 484.82 489.08 489.53 489.00 494.19 C 484.61 489.21 479.21 485.33 474.24 481.00 Z" />
<path fill="#dad4a2" opacity="1.00" d=" M 0.00 484.44 C 3.24 480.19 7.52 476.93 11.43 473.33 C 12.57 475.73 13.42 478.30 13.40 480.99 C 10.50 486.23 5.83 490.32 3.72 496.05 C 2.40 492.52 1.04 489.01 0.00 485.39 L 0.00 484.44 Z" />
<path fill="#dad4a2" opacity="1.00" d=" M 488.58 480.99 C 488.57 478.29 489.42 475.72 490.57 473.31 C 494.50 476.85 498.60 480.23 502.00 484.31 L 502.00 485.26 C 500.99 488.94 499.60 492.49 498.27 496.06 C 496.16 490.32 491.50 486.23 488.58 480.99 Z" />
</g>
<g id="#e94880ff">
<path fill="#e94880" opacity="1.00" d=" M 99.93 377.39 C 110.12 380.21 120.13 383.60 130.23 386.70 C 130.57 384.57 130.92 382.44 131.26 380.31 C 139.00 383.21 146.94 385.54 154.90 387.75 C 155.34 387.87 156.22 388.10 156.66 388.21 C 158.89 388.72 161.13 389.20 163.38 389.65 C 167.51 390.63 171.63 391.67 175.83 392.30 C 179.68 392.95 183.50 393.71 187.34 394.40 C 156.98 394.84 126.62 395.55 96.28 396.23 C 97.43 389.94 98.81 383.69 99.93 377.39 Z" />
<path fill="#e94880" opacity="1.00" d=" M 371.77 386.70 C 381.89 383.69 391.90 380.29 402.07 377.39 C 403.18 383.69 404.57 389.94 405.72 396.24 C 380.83 395.41 355.93 395.20 331.03 394.64 C 324.35 394.61 317.63 393.99 310.97 394.83 C 314.55 394.31 318.12 393.71 321.68 393.10 C 327.38 392.14 333.05 391.08 338.66 389.67 C 340.89 389.22 343.11 388.72 345.32 388.14 L 345.89 387.99 C 354.32 385.92 362.61 383.35 370.74 380.32 C 371.08 382.45 371.42 384.57 371.77 386.70 Z" />
<path fill="#e94880" opacity="1.00" d=" M 205.97 396.43 C 209.33 396.01 212.71 396.43 215.93 397.48 C 218.27 398.71 220.50 400.15 222.62 401.75 C 221.21 403.33 219.20 404.71 218.90 406.97 C 218.73 410.24 221.68 413.26 224.96 413.14 C 227.01 412.81 228.46 411.15 230.05 409.97 C 231.46 412.56 231.98 415.48 232.39 418.37 C 225.64 419.09 218.02 418.83 212.42 414.53 C 207.10 410.16 206.23 402.87 205.51 396.47 L 205.97 396.43 Z" />
<path fill="#e94880" opacity="1.00" d=" M 287.07 397.21 C 289.99 396.28 293.07 396.12 296.12 396.45 L 296.50 396.48 C 295.74 402.84 294.91 410.12 289.62 414.49 C 284.02 418.84 276.37 419.09 269.60 418.36 C 270.02 415.47 270.53 412.55 271.95 409.97 C 273.52 411.12 274.93 412.77 276.95 413.11 C 280.24 413.36 283.37 410.22 283.07 406.93 C 282.79 404.67 280.77 403.31 279.37 401.75 C 281.74 399.94 284.32 398.40 287.07 397.21 Z" />
<path fill="#e94880" opacity="1.00" d=" M 409.52 397.92 C 416.94 401.22 424.51 404.16 431.97 407.39 C 428.93 409.19 426.20 411.59 422.85 412.81 C 420.89 412.64 419.05 411.88 417.19 411.32 C 417.15 415.37 416.96 419.41 416.82 423.45 C 414.38 414.94 411.91 406.45 409.52 397.92 Z" />
<path fill="#e94880" opacity="1.00" d=" M 70.08 407.39 C 77.50 404.26 84.97 401.25 92.38 398.07 C 90.12 406.58 87.57 415.01 85.17 423.48 C 85.00 419.43 84.85 415.39 84.89 411.34 C 83.01 411.90 81.15 412.72 79.16 412.80 C 75.83 411.55 73.11 409.17 70.08 407.39 Z" />
</g>
<g id="#d88e2bff">
<path fill="#d88e2b" opacity="1.00" d=" M 56.97 403.96 C 58.02 401.53 60.46 400.07 62.27 398.25 C 63.84 402.45 64.55 407.03 62.31 411.15 C 60.50 408.78 58.51 406.52 56.97 403.96 Z" />
<path fill="#d88e2b" opacity="1.00" d=" M 439.71 398.19 C 441.72 399.92 443.60 401.81 445.33 403.83 C 443.45 406.27 441.59 408.73 439.70 411.17 C 437.43 407.04 438.20 402.42 439.71 398.19 Z" />
<path fill="#d88e2b" opacity="1.00" d=" M 69.88 407.46 L 70.08 407.39 C 73.11 409.17 75.83 411.55 79.16 412.80 C 81.15 412.72 83.01 411.90 84.89 411.34 C 84.85 415.39 85.00 419.43 85.17 423.48 C 85.19 429.34 82.79 434.75 81.20 440.28 C 77.36 452.62 73.68 465.02 69.73 477.32 C 66.06 477.89 62.35 478.36 58.75 479.31 C 56.93 474.43 54.58 469.71 50.99 465.87 C 44.63 470.06 38.31 474.67 33.91 480.99 C 31.87 480.99 29.83 480.99 27.79 480.99 C 31.02 478.64 30.04 474.76 28.93 471.55 C 24.04 473.49 19.89 476.88 16.67 481.00 C 15.85 481.00 14.22 481.00 13.40 480.99 C 13.42 478.30 12.57 475.73 11.43 473.33 C 17.99 466.89 24.50 460.39 30.93 453.82 C 33.84 450.94 36.77 448.08 39.71 445.23 C 43.15 451.67 46.66 458.07 50.18 464.48 C 59.29 453.04 68.35 441.57 77.36 430.05 C 74.87 422.52 72.29 415.02 69.88 407.46 Z" />
<path fill="#d88e2b" opacity="1.00" d=" M 431.97 407.39 L 432.11 407.43 C 429.73 415.01 427.12 422.50 424.63 430.04 C 433.67 441.52 442.65 453.04 451.84 464.41 C 455.38 458.05 458.87 451.66 462.27 445.22 C 465.25 448.04 468.19 450.92 471.10 453.82 C 477.53 460.37 484.02 466.87 490.57 473.31 C 489.42 475.72 488.57 478.29 488.58 480.99 C 487.77 481.00 486.13 481.00 485.31 481.00 C 482.24 476.90 478.01 473.93 473.66 471.35 C 471.73 474.39 470.86 478.58 474.24 481.00 C 472.19 481.00 470.13 480.99 468.10 481.00 C 463.68 474.68 457.39 469.99 450.96 465.87 C 447.45 469.74 445.05 474.42 443.24 479.29 C 439.62 478.27 435.88 477.87 432.18 477.27 C 428.38 464.94 424.59 452.61 420.80 440.29 C 419.20 434.74 416.81 429.32 416.82 423.45 C 416.96 419.41 417.15 415.37 417.19 411.32 C 419.05 411.88 420.89 412.64 422.85 412.81 C 426.20 411.59 428.93 409.19 431.97 407.39 Z" />
<path fill="#d88e2b" opacity="1.00" d=" M 43.49 422.75 C 45.25 420.72 47.07 418.76 49.03 416.94 C 50.95 418.75 52.84 420.60 54.71 422.47 C 52.90 424.44 50.99 426.34 49.02 428.16 C 47.21 426.33 45.37 424.52 43.49 422.75 Z" />
<path fill="#d88e2b" opacity="1.00" d=" M 447.29 422.58 C 449.15 420.66 451.04 418.77 452.97 416.92 C 454.89 418.78 456.76 420.70 458.58 422.67 C 456.70 424.48 454.84 426.31 453.00 428.16 C 451.06 426.33 449.15 424.48 447.29 422.58 Z" />
<path fill="#d88e2b" opacity="1.00" d=" M 134.02 441.35 C 135.24 433.82 136.48 426.30 137.81 418.79 C 159.69 422.37 181.50 426.42 203.40 429.86 L 203.95 429.93 C 198.10 447.54 192.56 465.25 186.85 482.90 C 177.29 483.33 167.72 483.67 158.16 483.98 C 162.13 479.69 166.76 476.07 171.79 473.11 C 168.77 470.19 164.76 466.61 160.22 468.27 C 154.13 471.09 150.94 477.88 150.18 484.26 C 145.38 484.43 140.58 484.64 135.78 484.79 C 143.34 480.50 147.78 472.62 152.91 465.90 C 159.83 465.96 166.75 465.94 173.67 465.91 C 176.07 462.77 178.51 459.66 180.95 456.55 C 182.91 454.02 184.87 451.50 186.82 448.97 C 184.35 445.17 181.85 441.38 179.21 437.70 C 174.21 441.46 169.23 445.23 164.18 448.93 C 161.04 443.30 157.91 437.65 154.78 432.01 C 147.84 435.08 140.99 438.34 134.02 441.35 Z" />
<path fill="#d88e2b" opacity="1.00" d=" M 298.53 429.93 C 320.53 426.62 342.35 422.16 364.36 419.02 C 365.42 426.48 366.80 433.89 367.98 441.33 C 361.03 438.30 354.18 435.04 347.25 431.98 C 344.05 437.62 341.05 443.38 337.69 448.93 C 332.80 445.10 327.77 441.45 322.84 437.69 C 320.16 441.36 317.67 445.16 315.19 448.97 C 317.15 451.50 319.12 454.03 321.09 456.57 C 323.51 459.67 325.95 462.77 328.34 465.92 C 335.25 465.94 342.17 465.96 349.08 465.91 C 354.24 472.61 358.67 480.51 366.24 484.79 C 361.43 484.64 356.62 484.43 351.81 484.26 C 351.04 477.88 347.86 471.09 341.77 468.27 C 337.23 466.61 333.22 470.19 330.20 473.11 C 335.21 476.06 339.83 479.65 343.78 483.93 C 334.24 483.61 324.70 483.19 315.16 482.91 C 309.45 465.27 303.91 447.58 298.06 429.99 L 298.53 429.93 Z" />
<path fill="#d88e2b" opacity="1.00" d=" M 118.93 428.20 C 121.41 425.64 123.90 423.10 126.59 420.77 C 127.74 422.51 128.98 424.21 129.92 426.08 C 128.75 428.45 126.34 430.00 124.58 431.96 C 122.68 430.73 120.80 429.47 118.93 428.20 Z" />
<path fill="#d88e2b" opacity="1.00" d=" M 375.43 420.75 C 378.12 423.10 380.62 425.64 383.09 428.22 C 381.22 429.49 379.33 430.74 377.43 431.96 C 375.71 429.98 373.17 428.45 372.12 426.06 C 373.03 424.18 374.29 422.49 375.43 420.75 Z" />
<path fill="#d88e2b" opacity="1.00" d=" M 105.35 428.53 C 107.46 427.33 110.12 429.62 109.34 431.90 C 108.66 434.37 104.67 434.49 104.01 431.97 C 103.33 430.72 104.19 429.10 105.35 428.53 Z" />
<path fill="#d88e2b" opacity="1.00" d=" M 394.44 428.38 C 397.53 427.11 399.73 432.06 396.72 433.51 C 393.34 435.52 390.65 429.52 394.44 428.38 Z" />
<path fill="#d88e2b" opacity="1.00" d=" M 47.19 441.35 C 48.45 439.49 49.70 437.63 50.94 435.76 C 53.47 435.91 56.29 435.17 58.64 436.19 C 59.89 437.82 61.79 439.59 61.82 441.70 C 59.71 444.34 57.08 446.51 54.73 448.94 C 52.20 446.43 49.67 443.91 47.19 441.35 Z" />
<path fill="#d88e2b" opacity="1.00" d=" M 439.80 441.59 C 440.96 439.50 442.26 437.49 443.77 435.63 C 446.19 435.71 448.62 435.74 451.06 435.76 C 452.34 437.66 453.59 439.58 454.80 441.53 C 452.26 443.97 449.77 446.47 447.27 448.94 C 444.80 446.46 442.34 443.99 439.80 441.59 Z" />
<path fill="#d88e2b" opacity="1.00" d=" M 145.33 445.09 C 146.50 443.15 147.90 441.38 149.38 439.67 C 151.13 441.50 152.89 443.33 154.65 445.15 C 152.19 446.50 149.70 447.77 147.16 448.95 C 146.55 447.66 145.94 446.36 145.33 445.09 Z" />
<path fill="#d88e2b" opacity="1.00" d=" M 347.30 445.16 C 349.09 443.23 351.02 441.43 353.01 439.70 C 354.22 441.47 355.43 443.24 356.65 445.01 C 356.04 446.32 355.44 447.64 354.83 448.96 C 352.32 447.70 349.80 446.44 347.30 445.16 Z" />
<path fill="#d88e2b" opacity="1.00" d=" M 113.29 442.30 C 116.14 439.98 120.85 442.38 120.77 446.01 C 121.01 449.46 116.79 452.10 113.81 450.25 C 110.80 448.80 110.51 444.14 113.29 442.30 Z" />
<path fill="#d88e2b" opacity="1.00" d=" M 383.26 442.24 C 386.10 440.04 390.70 442.38 390.65 445.96 C 390.94 449.43 386.74 452.04 383.75 450.30 C 380.65 448.84 380.37 444.05 383.26 442.24 Z" />
</g>
<g id="#e7de27ff">
<path fill="#e7de27" opacity="1.00" d=" M 222.62 401.75 C 225.51 404.08 228.04 406.85 230.05 409.97 C 228.46 411.15 227.01 412.81 224.96 413.14 C 221.68 413.26 218.73 410.24 218.90 406.97 C 219.20 404.71 221.21 403.33 222.62 401.75 Z" />
<path fill="#e7de27" opacity="1.00" d=" M 271.95 409.97 C 273.95 406.84 276.49 404.08 279.37 401.75 C 280.77 403.31 282.79 404.67 283.07 406.93 C 283.37 410.22 280.24 413.36 276.95 413.11 C 274.93 412.77 273.52 411.12 271.95 409.97 Z" />
</g>
</svg>
