<?xml version="1.0" encoding="UTF-8" ?>
<!DOCTYPE svg PUBLIC "-//W3C//DTD SVG 1.1//EN" "http://www.w3.org/Graphics/SVG/1.1/DTD/svg11.dtd">
<svg width="434pt" height="471pt" viewBox="0 0 434 471" version="1.1" xmlns="http://www.w3.org/2000/svg">
<g id="#dd5b48ff">
<path fill="#dd5b48" opacity="1.00" d=" M 9.38 0.00 L 95.30 0.00 C 97.54 0.75 99.86 1.76 101.23 3.79 C 103.80 7.29 103.81 11.85 103.80 16.00 C 103.71 28.14 103.88 40.28 103.70 52.42 C 109.19 46.73 117.44 45.38 125.00 45.25 C 140.37 45.24 155.65 42.78 171.01 43.16 C 172.39 43.26 173.52 44.59 173.11 45.99 C 172.37 50.02 169.88 53.45 167.74 56.86 C 164.88 61.51 159.45 64.37 153.99 64.01 C 146.24 63.93 139.85 58.14 132.03 58.43 C 125.26 58.58 118.06 57.96 111.72 60.76 C 109.00 61.92 109.25 65.18 109.71 67.59 C 101.39 67.87 93.03 68.07 84.73 67.48 C 84.99 63.82 84.94 60.14 84.88 56.48 C 72.97 56.22 60.67 54.98 49.09 58.41 C 40.15 61.74 30.49 62.31 21.03 62.12 C 15.50 62.00 9.60 60.37 5.91 55.99 C 2.05 51.49 0.75 45.48 0.00 39.77 L 0.00 38.60 C 1.48 33.91 6.89 33.63 10.99 33.90 C 15.50 33.66 19.40 36.56 23.90 36.47 C 47.36 37.64 70.86 37.55 94.34 37.66 C 94.16 33.13 94.88 28.49 93.85 24.04 C 92.93 21.22 89.70 20.47 87.07 20.82 C 68.38 21.97 49.74 24.13 31.00 24.47 C 25.08 24.60 18.52 23.31 14.53 18.56 C 10.12 13.47 9.66 6.42 9.38 0.00 Z" />
<path fill="#dd5b48" opacity="1.00" d=" M 39.64 97.03 C 39.29 95.53 40.99 94.99 41.95 94.32 C 54.77 107.11 68.08 119.43 81.32 131.78 C 75.74 137.27 70.17 142.77 64.69 148.35 C 64.59 148.46 64.39 148.68 64.29 148.79 C 55.93 156.87 47.71 165.11 39.68 173.52 C 39.57 148.03 39.64 122.53 39.64 97.03 M 53.36 126.40 C 45.29 128.65 45.12 142.16 52.99 144.79 C 58.20 146.31 62.36 140.74 62.25 135.99 C 62.64 131.15 58.75 125.23 53.36 126.40 Z" />
<path fill="#dd5b48" opacity="1.00" d=" M 154.64 99.88 C 155.29 100.43 155.95 100.97 156.60 101.53 C 156.65 124.91 156.58 148.28 156.64 171.66 C 148.19 164.09 140.44 155.78 132.10 148.09 C 126.99 143.30 121.96 138.41 116.83 133.64 C 129.69 122.68 142.07 111.17 154.64 99.88 M 139.52 126.58 C 132.01 129.46 132.16 142.34 139.89 144.82 C 145.48 146.30 149.60 139.99 149.03 135.00 C 149.06 130.22 144.66 124.81 139.52 126.58 Z" />
<path fill="#dd5b48" opacity="1.00" d=" M 249.06 295.77 C 257.50 295.91 265.66 299.59 271.79 305.31 C 264.75 308.85 256.96 310.73 249.09 310.89 C 249.07 305.85 249.10 300.81 249.06 295.77 Z" />
<path fill="#dd5b48" opacity="1.00" d=" M 249.17 314.58 C 260.17 316.10 271.53 318.11 281.14 324.02 C 270.99 328.30 260.16 331.23 249.11 331.65 C 249.08 325.96 249.00 320.27 249.17 314.58 Z" />
<path fill="#dd5b48" opacity="1.00" d=" M 249.13 335.36 C 263.43 337.89 278.04 341.10 290.65 348.60 C 276.05 355.31 259.46 358.56 243.51 355.88 C 247.10 349.64 248.74 342.49 249.13 335.36 Z" />
</g>
<g id="#e5dac0ff">
<path fill="#e5dac0" opacity="1.00" d=" M 41.95 94.32 C 56.50 85.85 70.27 76.09 84.73 67.48 C 93.03 68.07 101.39 67.87 109.71 67.59 C 124.77 78.23 139.76 88.98 154.64 99.88 C 142.07 111.17 129.69 122.68 116.83 133.64 C 110.60 128.02 104.41 122.37 98.11 116.84 C 92.52 121.82 86.87 126.75 81.32 131.78 C 68.08 119.43 54.77 107.11 41.95 94.32 Z" />
<path fill="#e5dac0" opacity="1.00" d=" M 197.76 154.74 C 205.61 149.35 215.47 148.76 224.69 148.80 C 231.44 158.94 238.30 169.02 245.44 178.88 C 252.24 168.81 259.23 158.87 266.05 148.81 C 269.27 148.89 272.49 148.89 275.71 148.81 C 282.95 158.97 290.52 168.90 298.14 178.77 C 305.09 168.89 312.18 159.08 318.56 148.81 C 321.25 148.88 323.95 148.88 326.65 148.81 C 333.87 159.58 341.43 170.13 349.06 180.62 C 355.59 170.18 361.62 159.44 367.93 148.87 C 372.78 149.12 377.56 149.99 382.36 150.67 C 382.35 151.70 382.33 152.73 382.32 153.77 L 382.22 154.32 C 381.01 155.24 380.59 156.44 380.93 157.92 L 380.99 158.78 C 380.74 159.34 380.24 160.46 379.99 161.02 L 380.13 161.94 C 378.93 162.61 378.48 163.63 378.79 165.01 C 377.99 167.56 377.31 170.16 376.83 172.80 C 375.78 173.67 375.47 174.75 375.88 176.04 L 375.99 176.78 C 375.74 177.33 375.23 178.44 374.98 178.99 L 375.12 179.88 C 373.85 180.61 373.48 181.67 374.00 183.07 L 373.61 183.97 C 373.52 184.18 373.33 184.60 373.23 184.80 C 377.25 184.89 381.26 184.61 385.25 184.19 C 392.78 183.94 400.35 184.14 407.81 182.89 C 408.70 182.79 410.47 182.61 411.36 182.51 C 412.38 187.59 412.98 192.74 413.31 197.91 C 405.75 202.19 398.20 206.49 390.81 211.05 C 398.24 217.92 405.52 225.00 413.33 231.45 C 413.18 236.58 413.18 241.73 413.33 246.87 C 405.73 252.96 398.32 259.28 390.80 265.48 C 397.99 272.73 405.72 279.44 413.33 286.25 C 413.18 292.02 413.18 297.80 413.34 303.57 C 405.58 308.80 398.25 314.62 390.78 320.25 C 398.14 327.81 405.45 335.47 413.33 342.49 C 413.18 348.43 413.18 354.38 413.33 360.33 C 406.62 365.31 400.64 371.21 394.53 376.89 C 400.74 383.75 406.84 390.74 413.33 397.34 C 413.17 404.99 413.19 412.65 412.65 420.29 C 411.89 420.43 410.37 420.71 409.61 420.84 L 408.96 420.93 C 407.59 420.67 405.49 420.43 404.98 422.14 L 403.98 421.85 C 402.69 421.43 401.67 421.83 400.95 423.07 C 400.49 423.04 399.57 422.98 399.11 422.95 C 397.81 422.51 396.70 422.80 395.79 423.82 C 393.80 424.12 391.82 424.46 389.84 424.79 C 388.37 424.40 385.68 425.65 387.46 427.24 C 387.91 427.77 388.81 428.85 389.26 429.39 C 389.33 429.48 389.46 429.66 389.53 429.76 C 390.96 432.07 392.53 434.31 394.26 436.42 C 394.32 436.51 394.46 436.70 394.52 436.79 C 395.96 439.10 397.59 441.29 399.30 443.43 C 399.35 443.51 399.46 443.65 399.51 443.73 C 401.00 445.97 402.51 448.20 404.11 450.37 C 401.04 455.12 396.82 459.08 391.95 461.94 C 378.64 469.60 362.82 470.58 347.82 471.00 L 315.51 471.00 C 309.70 467.24 303.86 463.54 298.16 459.62 C 303.23 453.99 308.26 448.32 313.44 442.81 C 322.55 442.57 331.67 442.90 340.78 442.66 C 352.58 441.93 364.99 436.52 370.98 425.84 C 375.57 418.07 375.69 408.78 375.50 400.03 C 375.50 340.69 375.49 281.35 375.51 222.01 C 375.58 216.92 373.99 211.39 369.78 208.20 C 366.77 205.81 362.78 205.31 359.06 205.33 C 335.35 205.34 311.65 205.33 287.94 205.34 C 283.62 205.35 278.96 206.71 276.19 210.22 C 274.18 212.67 273.63 215.92 273.61 219.01 C 273.58 242.10 273.65 265.19 273.58 288.28 C 266.67 288.25 259.76 288.27 252.85 288.26 C 252.85 260.49 252.84 232.71 252.86 204.94 C 252.94 200.29 251.42 195.21 247.43 192.46 C 243.81 189.90 239.17 190.28 234.97 190.25 C 228.74 190.36 222.49 190.09 216.27 190.37 C 211.71 190.55 207.43 194.29 207.62 199.05 C 207.47 225.70 207.62 252.36 207.55 279.02 C 207.43 282.53 208.39 286.46 211.44 288.57 C 214.51 290.66 218.43 290.02 221.93 290.18 C 225.30 290.09 229.29 290.56 231.91 287.95 C 234.18 285.96 233.97 282.73 233.99 280.00 C 233.82 264.33 233.69 248.61 231.91 233.03 C 231.25 229.43 231.22 225.30 228.75 222.37 C 227.00 222.33 224.85 221.97 223.48 223.31 C 222.51 225.39 222.77 227.78 222.66 230.01 C 222.68 239.86 222.62 249.74 223.78 259.53 C 224.61 266.08 227.47 272.41 226.82 279.09 C 226.28 282.76 221.80 282.63 218.96 282.64 C 216.53 282.90 213.06 282.03 213.30 278.95 C 213.15 254.64 213.26 230.31 213.24 205.99 C 213.02 201.42 216.07 196.39 220.97 196.09 C 226.01 195.86 231.11 195.66 236.13 196.26 C 242.04 197.24 245.62 203.29 245.28 208.99 C 245.34 249.83 245.28 290.67 245.31 331.51 C 238.39 331.55 231.47 331.58 224.55 331.47 C 224.45 325.02 224.73 318.56 224.44 312.11 C 224.34 309.29 221.81 307.00 219.00 307.13 C 209.53 306.96 200.06 307.13 190.58 307.06 C 190.58 287.05 190.58 267.04 190.58 247.03 C 190.54 233.67 190.87 220.29 189.70 206.98 C 188.90 196.33 186.37 185.79 186.89 175.06 C 187.19 167.11 191.04 159.18 197.76 154.74 Z" />
<path fill="#e5dac0" opacity="1.00" d=" M 173.68 195.71 C 176.12 193.23 179.61 192.35 182.97 192.07 C 183.12 229.78 182.99 267.49 183.04 305.20 C 160.36 306.74 137.68 308.60 114.95 308.96 C 104.80 308.94 93.78 308.96 84.99 303.14 C 79.55 299.68 75.99 293.91 74.12 287.85 C 71.78 280.48 71.70 272.67 71.70 265.01 C 71.71 251.40 71.71 237.79 71.70 224.18 C 81.11 233.64 90.63 242.99 100.01 252.48 C 111.98 240.58 123.85 228.58 135.86 216.72 C 135.85 230.83 135.85 244.93 135.86 259.04 C 135.82 263.69 137.60 268.75 141.72 271.29 C 145.37 273.56 149.86 273.21 153.98 273.20 C 158.42 273.12 163.23 271.51 165.80 267.68 C 167.56 265.17 167.94 262.04 167.94 259.06 C 167.94 243.37 167.93 227.68 167.94 211.99 C 168.05 206.20 169.39 199.90 173.68 195.71 M 126.39 278.98 C 126.46 285.68 126.45 292.39 126.40 299.11 C 133.61 296.31 140.04 291.82 146.99 288.43 C 140.33 284.87 133.36 281.87 126.39 278.98 M 154.86 278.96 C 154.61 285.75 154.70 292.55 154.81 299.34 C 160.93 296.66 166.85 293.53 172.81 290.52 C 172.75 290.28 172.64 289.80 172.58 289.56 C 166.76 285.90 160.82 282.40 154.86 278.96 Z" />
<path fill="#e5dac0" opacity="1.00" d=" M 288.75 215.74 C 291.63 213.47 295.41 212.86 298.99 212.87 C 313.97 212.85 328.95 212.87 343.94 212.86 C 349.73 212.88 355.88 214.68 359.87 219.10 C 363.02 222.57 364.19 227.37 364.17 231.97 C 364.21 253.98 364.16 275.99 364.19 298.00 C 364.28 302.27 363.05 306.88 359.74 309.78 C 357.11 312.17 353.40 312.79 349.96 312.74 C 340.85 312.73 331.74 312.73 322.62 312.73 C 322.75 315.41 322.22 318.62 324.36 320.68 C 325.81 322.21 328.03 322.11 329.97 322.15 C 338.65 322.15 347.34 322.09 356.02 322.16 C 358.53 322.05 361.41 323.34 362.01 325.99 C 362.62 330.32 362.15 334.73 362.30 339.10 C 359.81 341.64 357.28 344.15 354.75 346.66 C 352.12 344.23 349.89 341.29 346.98 339.21 C 332.66 339.00 318.33 339.23 304.01 339.11 C 297.81 338.86 291.33 336.63 287.31 331.70 C 284.16 327.92 283.05 322.90 283.06 318.09 C 283.03 288.41 283.05 258.72 283.04 229.03 C 283.03 224.11 284.72 218.82 288.75 215.74 M 298.16 222.31 C 298.12 229.22 298.16 236.14 298.13 243.05 C 304.43 239.91 310.77 236.87 316.97 233.55 C 310.67 229.85 304.44 226.04 298.16 222.31 M 298.16 256.22 C 298.12 263.12 298.16 270.03 298.14 276.94 C 304.44 273.84 310.72 270.68 317.00 267.54 C 310.79 263.65 304.42 260.02 298.16 256.22 M 298.17 288.25 C 298.11 295.15 298.16 302.06 298.13 308.97 C 304.45 305.90 310.71 302.70 317.00 299.59 C 310.76 295.74 304.45 292.03 298.17 288.25 Z" />
<path fill="#e5dac0" opacity="1.00" d=" M 39.58 329.54 C 47.85 319.50 59.68 311.65 72.97 310.97 C 88.49 309.94 103.11 318.30 113.18 329.59 C 105.86 333.00 99.10 339.39 98.32 347.83 C 97.84 356.87 98.27 365.95 98.10 375.00 C 98.14 379.07 97.68 384.18 101.66 386.68 C 97.26 393.38 93.02 400.19 88.69 406.94 C 98.15 416.97 107.56 427.04 117.00 437.09 C 112.60 439.61 108.17 442.08 103.80 444.65 C 108.88 448.39 113.92 452.19 118.96 455.99 C 108.94 466.62 93.89 470.49 79.73 471.00 L 75.32 471.00 C 65.61 470.54 54.50 469.08 47.85 461.17 C 43.80 456.72 45.76 450.40 45.26 445.01 C 45.47 442.06 43.25 438.91 40.09 439.07 C 34.28 438.85 28.46 439.07 22.65 439.00 C 22.64 437.11 22.64 435.23 22.64 433.35 C 29.09 433.30 35.54 433.36 41.99 433.34 C 45.28 433.32 48.95 432.77 51.28 430.21 C 53.06 428.27 52.80 425.47 52.86 423.04 C 52.75 417.04 52.98 411.03 52.77 405.04 C 52.87 402.93 51.10 401.13 48.98 401.33 C 38.95 401.16 28.91 401.32 18.87 401.26 C 18.87 398.13 18.87 395.00 18.87 391.87 C 25.94 391.85 33.00 391.88 40.06 391.88 C 44.47 391.94 49.23 390.61 52.08 387.06 C 54.39 384.27 54.78 380.50 54.74 377.02 C 54.70 365.33 54.75 353.64 54.72 341.95 C 54.79 338.14 52.92 334.31 49.69 332.25 C 46.72 330.21 43.04 329.93 39.58 329.54 M 75.41 405.10 C 72.36 412.02 69.17 418.88 66.05 425.76 C 72.99 423.98 79.89 422.02 86.81 420.12 C 82.99 415.13 79.33 410.01 75.41 405.10 M 90.56 437.10 C 87.44 442.12 84.29 447.12 81.15 452.14 C 88.69 452.13 96.22 452.14 103.76 452.13 C 99.38 447.11 94.98 442.09 90.56 437.10 M 51.00 452.13 C 57.89 452.14 64.78 452.14 71.67 452.13 C 67.30 447.10 62.88 442.11 58.51 437.08 C 56.00 442.09 53.45 447.08 51.00 452.13 Z" />
</g>
<g id="#575138ff">
<path fill="#575138" opacity="1.00" d=" M 81.32 131.78 C 86.87 126.75 92.52 121.82 98.11 116.84 C 104.41 122.37 110.60 128.02 116.83 133.64 C 121.96 138.41 126.99 143.30 132.10 148.09 C 132.20 159.63 132.14 171.17 132.14 182.71 C 120.80 191.52 109.50 200.36 98.12 209.10 C 86.85 200.35 75.59 191.58 64.29 182.85 C 64.62 171.35 63.82 159.81 64.69 148.35 C 70.17 142.77 75.74 137.27 81.32 131.78 Z" />
<path fill="#575138" opacity="1.00" d=" M 66.09 190.31 C 77.40 199.72 88.71 209.12 100.02 218.54 C 110.69 209.16 121.35 199.77 131.99 190.37 C 132.28 197.23 132.14 204.10 132.11 210.97 C 121.43 222.30 110.72 233.62 100.01 244.92 C 88.70 233.61 77.41 222.27 66.01 211.05 C 66.06 204.13 65.91 197.22 66.09 190.31 Z" />
<path fill="#575138" opacity="1.00" d=" M 298.16 222.31 C 304.44 226.04 310.67 229.85 316.97 233.55 C 310.77 236.87 304.43 239.91 298.13 243.05 C 298.16 236.14 298.12 229.22 298.16 222.31 Z" />
<path fill="#575138" opacity="1.00" d=" M 298.16 256.22 C 304.42 260.02 310.79 263.65 317.00 267.54 C 310.72 270.68 304.44 273.84 298.14 276.94 C 298.16 270.03 298.12 263.12 298.16 256.22 Z" />
<path fill="#575138" opacity="1.00" d=" M 298.17 288.25 C 304.45 292.03 310.76 295.74 317.00 299.59 C 310.71 302.70 304.45 305.90 298.13 308.97 C 298.16 302.06 298.11 295.15 298.17 288.25 Z" />
<path fill="#575138" opacity="1.00" d=" M 103.86 388.09 C 113.87 388.19 123.88 388.10 133.90 388.14 C 127.05 394.47 120.10 400.68 113.21 406.96 C 113.20 413.79 113.27 420.62 113.17 427.45 C 106.15 420.74 99.37 413.77 92.47 406.94 C 96.27 400.66 99.98 394.32 103.86 388.09 Z" />
<path fill="#575138" opacity="1.00" d=" M 243.79 404.06 C 244.41 398.70 247.69 393.69 252.77 391.63 C 254.60 392.12 256.77 392.53 257.78 394.36 C 259.85 397.78 259.06 402.01 259.02 405.81 C 257.45 408.25 254.82 409.92 253.72 412.69 C 250.30 420.35 251.39 429.03 252.74 437.04 C 246.67 427.28 242.15 415.72 243.79 404.06 Z" />
<path fill="#575138" opacity="1.00" d=" M 266.04 413.90 C 266.07 406.05 272.23 399.98 279.21 397.40 C 279.29 402.31 279.26 407.21 279.30 412.12 C 278.23 412.95 277.15 413.77 276.11 414.65 C 271.65 418.93 271.58 425.63 271.54 431.39 C 267.02 426.81 266.09 420.05 266.04 413.90 Z" />
<path fill="#575138" opacity="1.00" d=" M 286.73 414.55 C 291.26 409.28 297.02 404.98 303.75 403.01 C 303.82 406.82 303.82 410.64 303.74 414.46 L 303.74 414.80 C 298.08 415.31 292.35 415.59 286.73 414.55 Z" />
<path fill="#575138" opacity="1.00" d=" M 126.90 435.91 C 129.08 434.78 131.61 435.29 133.96 435.17 C 133.98 442.72 133.98 450.26 133.96 457.81 C 131.41 457.80 128.86 457.79 126.31 457.76 C 120.88 453.21 114.91 449.30 109.70 444.48 C 115.48 441.70 121.17 438.76 126.90 435.91 Z" />
<path fill="#575138" opacity="1.00" d=" M 178.43 465.34 C 223.38 457.56 268.43 450.24 313.44 442.81 C 308.26 448.32 303.23 453.99 298.16 459.62 C 303.86 463.54 309.70 467.24 315.51 471.00 L 304.70 471.00 C 300.84 470.28 296.91 470.21 293.00 470.08 C 254.81 468.44 216.61 466.98 178.43 465.34 Z" />
</g>
<g id="#dea75aff">
<path fill="#dea75a" opacity="1.00" d=" M 211.34 124.26 C 214.43 130.60 217.64 136.87 220.77 143.19 C 213.23 143.20 205.69 143.21 198.15 143.19 C 202.51 136.85 207.03 130.63 211.34 124.26 Z" />
<path fill="#dea75a" opacity="1.00" d=" M 254.77 143.18 C 259.13 137.50 263.57 131.89 267.95 126.23 C 271.74 131.87 275.50 137.55 279.29 143.20 C 271.12 143.19 262.95 143.22 254.77 143.18 Z" />
<path fill="#dea75a" opacity="1.00" d=" M 226.44 143.20 C 229.58 138.17 232.72 133.15 235.87 128.12 C 239.64 133.14 243.42 138.14 247.17 143.17 C 240.26 143.24 233.35 143.18 226.44 143.20 Z" />
<path fill="#dea75a" opacity="1.00" d=" M 284.96 143.17 C 288.71 138.14 292.49 133.14 296.25 128.12 C 300.05 133.13 303.80 138.18 307.60 143.20 C 300.05 143.18 292.51 143.23 284.96 143.17 Z" />
<path fill="#dea75a" opacity="1.00" d=" M 324.49 130.02 C 327.73 134.33 330.82 138.75 333.94 143.14 C 327.04 143.26 320.13 143.17 313.23 143.20 C 316.98 138.80 320.80 134.47 324.49 130.02 Z" />
<path fill="#dea75a" opacity="1.00" d=" M 377.39 130.01 C 380.54 135.62 383.63 141.28 386.81 146.88 C 380.13 144.61 373.15 143.26 366.10 143.15 C 369.88 138.79 373.62 134.39 377.39 130.01 Z" />
<path fill="#dea75a" opacity="1.00" d=" M 339.87 143.16 C 342.74 139.26 346.01 135.68 349.05 131.91 C 352.30 135.60 355.36 139.45 358.55 143.20 C 352.32 143.18 346.10 143.25 339.87 143.16 Z" />
<path fill="#dea75a" opacity="1.00" d=" M 392.76 148.72 C 398.34 146.27 403.91 143.81 409.46 141.30 C 409.49 148.19 409.45 155.08 409.48 161.97 C 404.80 156.54 399.18 151.96 392.76 148.72 Z" />
<path fill="#dea75a" opacity="1.00" d=" M 132.10 148.09 C 140.44 155.78 148.19 164.09 156.64 171.66 C 159.28 173.97 161.70 176.51 164.17 178.99 C 153.50 180.28 142.82 181.55 132.14 182.71 C 132.14 171.17 132.20 159.63 132.10 148.09 Z" />
<path fill="#dea75a" opacity="1.00" d=" M 39.68 173.52 C 47.71 165.11 55.93 156.87 64.29 148.79 C 63.99 160.11 64.34 171.43 64.13 182.76 C 53.45 182.70 42.78 182.74 32.10 182.74 C 34.63 179.66 37.03 176.49 39.68 173.52 Z" />
<path fill="#dea75a" opacity="1.00" d=" M 411.42 165.80 C 417.65 166.32 423.85 167.06 430.08 167.65 C 425.92 173.37 421.53 178.93 417.05 184.41 C 415.78 178.04 414.00 171.76 411.42 165.80 Z" />
<path fill="#dea75a" opacity="1.00" d=" M 131.99 190.37 C 140.74 189.64 149.51 189.07 158.26 188.45 C 149.70 196.14 140.83 203.47 132.11 210.97 C 132.14 204.10 132.28 197.23 131.99 190.37 Z" />
<path fill="#dea75a" opacity="1.00" d=" M 33.94 190.25 C 44.65 190.32 55.37 190.21 66.09 190.31 C 65.91 197.22 66.06 204.13 66.01 211.05 L 65.99 212.84 C 55.31 205.30 44.63 197.77 33.94 190.25 Z" />
<path fill="#dea75a" opacity="1.00" d=" M 417.02 192.19 C 422.08 195.88 427.03 199.70 432.08 203.40 C 427.15 206.71 422.04 209.73 417.03 212.89 C 417.01 205.99 417.02 199.09 417.02 192.19 Z" />
<path fill="#dea75a" opacity="1.00" d=" M 417.03 220.43 C 422.67 224.21 428.36 227.92 433.98 231.74 C 428.33 235.51 422.67 239.28 417.02 243.04 C 417.02 235.51 417.01 227.97 417.03 220.43 Z" />
<path fill="#dea75a" opacity="1.00" d=" M 417.02 252.46 C 422.70 255.56 428.36 258.70 433.99 261.89 C 428.37 265.71 422.65 269.38 417.01 273.18 C 417.02 266.27 417.01 259.37 417.02 252.46 Z" />
<path fill="#dea75a" opacity="1.00" d=" M 126.39 278.98 C 133.36 281.87 140.33 284.87 146.99 288.43 C 140.04 291.82 133.61 296.31 126.40 299.11 C 126.45 292.39 126.46 285.68 126.39 278.98 Z" />
<path fill="#dea75a" opacity="1.00" d=" M 154.86 278.96 C 160.82 282.40 166.76 285.90 172.58 289.56 C 172.64 289.80 172.75 290.28 172.81 290.52 C 166.85 293.53 160.93 296.66 154.81 299.34 C 154.70 292.55 154.61 285.75 154.86 278.96 Z" />
<path fill="#dea75a" opacity="1.00" d=" M 417.02 278.83 C 422.68 282.59 428.34 286.36 433.99 290.14 C 428.35 293.30 422.70 296.45 417.02 299.54 C 417.01 292.64 417.02 285.73 417.02 278.83 Z" />
<path fill="#dea75a" opacity="1.00" d=" M 417.04 307.12 C 422.68 310.86 428.31 314.59 433.95 318.32 C 428.38 321.02 422.69 323.46 417.00 325.89 C 417.04 319.63 416.98 313.38 417.04 307.12 Z" />
<path fill="#dea75a" opacity="1.00" d=" M 0.00 336.32 C 0.46 334.28 1.28 331.38 3.95 331.67 C 13.31 331.47 22.67 331.67 32.04 331.59 C 37.13 331.66 42.70 330.96 47.23 333.81 C 50.77 335.84 52.71 339.91 52.77 343.91 C 52.93 354.26 52.77 364.62 52.85 374.98 C 52.99 379.87 51.40 385.33 47.03 388.05 C 42.84 390.66 37.71 389.88 33.02 390.01 C 25.30 389.85 17.57 390.29 9.86 389.80 C 4.89 389.43 0.65 385.51 0.00 380.53 L 0.00 336.32 Z" />
<path fill="#dea75a" opacity="1.00" d=" M 109.64 335.37 C 113.49 332.58 118.36 331.65 123.03 331.61 C 163.82 331.58 204.60 331.56 245.38 331.73 C 244.66 343.24 239.97 355.30 230.03 361.87 C 221.82 367.42 211.54 367.66 201.98 367.37 C 201.76 378.27 202.04 389.17 201.85 400.06 C 201.33 410.34 196.46 421.11 187.04 426.09 C 181.56 429.06 175.19 429.70 169.06 429.54 C 154.37 429.51 139.67 429.55 124.98 429.52 C 121.25 429.72 117.19 427.06 117.09 423.08 C 116.88 416.99 116.31 410.25 120.05 405.01 C 122.68 401.13 127.45 399.37 132.00 399.42 C 144.35 399.36 156.69 399.43 169.03 399.40 C 172.98 399.41 177.28 397.94 179.47 394.46 C 181.31 391.68 181.14 388.20 181.17 385.01 C 181.10 377.34 181.22 369.67 181.12 362.00 C 181.09 358.67 179.61 355.08 176.57 353.43 C 174.29 352.15 171.60 352.34 169.09 352.31 C 160.40 352.39 151.72 352.25 143.04 352.37 C 138.86 352.46 134.54 355.43 134.15 359.82 C 133.67 366.23 134.21 372.67 133.90 379.09 C 133.81 382.36 131.42 385.70 128.02 386.05 C 123.36 386.42 118.67 386.08 114.00 386.21 C 110.61 386.18 106.63 386.67 103.98 384.07 C 101.94 382.30 101.86 379.46 101.88 376.97 C 101.92 368.33 101.86 359.68 101.90 351.03 C 102.00 345.03 104.61 338.85 109.64 335.37 Z" />
<path fill="#dea75a" opacity="1.00" d=" M 417.04 333.46 C 422.70 337.21 428.37 340.96 433.99 344.79 C 428.34 348.57 422.68 352.34 417.02 356.09 C 417.03 348.55 416.99 341.01 417.04 333.46 Z" />
<path fill="#dea75a" opacity="1.00" d=" M 341.54 340.92 C 343.06 341.18 345.03 340.47 346.17 341.86 C 349.10 344.66 351.89 347.61 354.77 350.47 C 357.24 347.92 359.75 345.41 362.28 342.94 C 362.32 360.63 362.28 378.33 362.31 396.03 C 362.36 401.35 360.72 407.01 356.63 410.64 C 353.50 413.48 349.15 414.48 345.02 414.46 C 331.26 414.47 317.50 414.47 303.74 414.46 C 303.82 410.64 303.82 406.82 303.75 403.01 C 297.02 404.98 291.26 409.28 286.73 414.55 C 283.19 414.41 279.64 414.38 276.11 414.65 C 277.15 413.77 278.23 412.95 279.30 412.12 C 279.26 407.21 279.29 402.31 279.21 397.40 C 272.23 399.98 266.07 406.05 266.04 413.90 C 262.62 412.58 258.99 409.82 259.02 405.81 C 259.06 402.01 259.85 397.78 257.78 394.36 C 256.77 392.53 254.60 392.12 252.77 391.63 C 253.21 389.66 254.63 387.79 256.88 388.16 C 284.25 388.08 311.63 388.19 339.00 388.11 C 340.36 388.30 341.79 387.39 341.51 385.90 C 341.59 370.91 341.51 355.91 341.54 340.92 Z" />
<path fill="#dea75a" opacity="1.00" d=" M 417.02 361.71 C 422.07 365.47 427.09 369.29 432.17 373.03 C 427.11 376.16 422.09 379.33 417.03 382.46 C 417.00 375.54 417.02 368.62 417.02 361.71 Z" />
<path fill="#dea75a" opacity="1.00" d=" M 417.02 390.00 C 422.06 393.08 427.06 396.24 432.08 399.35 C 427.13 402.61 422.08 405.72 417.01 408.79 C 417.02 402.52 417.01 396.26 417.02 390.00 Z" />
<path fill="#dea75a" opacity="1.00" d=" M 10.26 403.31 C 21.85 403.06 33.46 403.24 45.05 403.22 C 47.76 403.06 50.68 404.98 50.82 407.85 C 51.01 413.57 51.12 419.32 50.76 425.03 C 49.50 429.61 44.18 431.14 39.97 431.34 C 30.67 431.60 21.35 431.43 12.05 431.45 C 9.31 431.62 6.13 430.01 5.83 427.03 C 5.47 421.01 5.69 414.97 5.70 408.94 C 5.59 406.29 7.46 403.48 10.26 403.31 Z" />
<path fill="#dea75a" opacity="1.00" d=" M 417.04 416.38 C 421.45 420.13 425.85 423.89 430.22 427.69 C 425.20 430.82 420.18 433.95 415.17 437.10 C 416.29 430.25 416.94 423.32 417.04 416.38 Z" />
<path fill="#dea75a" opacity="1.00" d=" M 137.72 433.40 C 154.75 433.27 171.78 433.33 188.81 433.36 C 188.18 440.77 185.27 448.66 178.63 452.68 C 172.49 456.59 164.95 455.89 158.02 455.93 C 153.37 455.83 148.71 456.14 144.08 455.78 C 140.72 455.40 137.71 452.50 137.81 449.01 C 137.62 443.81 137.83 438.60 137.72 433.40 Z" />
<path fill="#dea75a" opacity="1.00" d=" M 12.35 441.46 C 17.43 440.18 22.82 441.17 28.02 440.87 C 32.18 441.16 36.92 439.89 40.60 442.42 C 43.99 444.75 43.53 449.36 43.29 452.96 C 43.10 455.62 40.71 457.84 38.03 457.75 C 30.99 457.85 23.93 457.83 16.89 457.76 C 13.15 457.81 9.39 454.85 9.48 450.92 C 9.34 447.66 8.88 443.20 12.35 441.46 Z" />
<path fill="#dea75a" opacity="1.00" d=" M 413.29 442.82 C 417.06 447.81 420.82 452.80 424.55 457.81 C 417.66 458.44 410.76 459.05 403.86 459.69 C 407.71 454.51 411.29 449.02 413.29 442.82 Z" />
</g>
<g id="#93f1d6ff">
<path fill="#93f1d6" opacity="1.00" d=" M 53.36 126.40 C 58.75 125.23 62.64 131.15 62.25 135.99 C 62.36 140.74 58.20 146.31 52.99 144.79 C 45.12 142.16 45.29 128.65 53.36 126.40 Z" />
<path fill="#93f1d6" opacity="1.00" d=" M 139.52 126.58 C 144.66 124.81 149.06 130.22 149.03 135.00 C 149.60 139.99 145.48 146.30 139.89 144.82 C 132.16 142.34 132.01 129.46 139.52 126.58 Z" />
</g>
<g id="#e8a979ff">
<path fill="#e8a979" opacity="1.00" d=" M 224.69 148.80 C 238.48 148.71 252.27 148.69 266.05 148.81 C 259.23 158.87 252.24 168.81 245.44 178.88 C 238.30 169.02 231.44 158.94 224.69 148.80 Z" />
<path fill="#e8a979" opacity="1.00" d=" M 275.71 148.81 C 289.99 148.69 304.27 148.69 318.56 148.81 C 312.18 159.08 305.09 168.89 298.14 178.77 C 290.52 168.90 282.95 158.97 275.71 148.81 Z" />
<path fill="#e8a979" opacity="1.00" d=" M 326.65 148.81 C 340.41 148.73 354.17 148.62 367.93 148.87 C 361.62 159.44 355.59 170.18 349.06 180.62 C 341.43 170.13 333.87 159.58 326.65 148.81 Z" />
<path fill="#e8a979" opacity="1.00" d=" M 382.32 153.77 C 382.81 152.91 383.32 152.05 383.83 151.20 C 389.15 153.10 394.47 155.43 398.67 159.31 C 405.43 165.22 409.21 173.72 411.31 182.29 C 410.14 182.50 408.97 182.69 407.81 182.89 C 400.35 184.14 392.78 183.94 385.25 184.19 C 381.37 184.23 377.49 184.00 373.61 183.97 L 374.00 183.07 C 375.14 182.26 375.51 181.20 375.12 179.88 L 374.98 178.99 C 375.23 178.44 375.74 177.33 375.99 176.78 L 375.88 176.04 C 377.15 175.26 377.46 174.18 376.83 172.80 C 377.31 170.16 377.99 167.56 378.79 165.01 C 380.09 164.36 380.54 163.34 380.13 161.94 L 379.99 161.02 C 380.24 160.46 380.74 159.34 380.99 158.78 L 380.93 157.92 C 382.08 156.98 382.51 155.78 382.22 154.32 L 382.32 153.77 Z" />
<path fill="#e8a979" opacity="1.00" d=" M 390.81 211.05 C 398.20 206.49 405.75 202.19 413.31 197.91 C 413.55 209.08 413.49 220.27 413.33 231.45 C 405.52 225.00 398.24 217.92 390.81 211.05 Z" />
<path fill="#e8a979" opacity="1.00" d=" M 390.80 265.48 C 398.32 259.28 405.73 252.96 413.33 246.87 C 413.51 259.99 413.51 273.13 413.33 286.25 C 405.72 279.44 397.99 272.73 390.80 265.48 Z" />
<path fill="#e8a979" opacity="1.00" d=" M 390.78 320.25 C 398.25 314.62 405.58 308.80 413.34 303.57 C 413.51 316.54 413.51 329.52 413.33 342.49 C 405.45 335.47 398.14 327.81 390.78 320.25 Z" />
<path fill="#e8a979" opacity="1.00" d=" M 394.53 376.89 C 400.64 371.21 406.62 365.31 413.33 360.33 C 413.51 372.66 413.52 385.00 413.33 397.34 C 406.84 390.74 400.74 383.75 394.53 376.89 Z" />
<path fill="#e8a979" opacity="1.00" d=" M 408.96 420.93 L 409.61 420.84 C 410.38 420.77 411.90 420.62 412.67 420.55 C 411.74 430.88 409.82 441.50 404.11 450.37 C 402.51 448.20 401.00 445.97 399.51 443.73 C 399.46 443.65 399.35 443.51 399.30 443.43 C 397.59 441.29 395.96 439.10 394.52 436.79 L 394.40 436.59 L 394.26 436.42 C 392.53 434.31 390.96 432.07 389.53 429.76 L 389.41 429.55 L 389.26 429.39 C 388.81 428.85 387.91 427.77 387.46 427.24 C 388.47 426.65 389.26 425.83 389.84 424.79 C 391.82 424.46 393.80 424.12 395.79 423.82 C 397.17 424.47 398.27 424.18 399.11 422.95 C 399.57 422.98 400.49 423.04 400.95 423.07 C 402.39 423.51 403.40 423.10 403.98 421.85 L 404.98 422.14 C 406.41 422.82 407.93 421.92 408.96 420.93 Z" />
</g>
<g id="#bba48189">
<path fill="#bba481" opacity="0.54" d=" M 380.93 157.92 C 380.59 156.44 381.01 155.24 382.22 154.32 C 382.51 155.78 382.08 156.98 380.93 157.92 Z" />
<path fill="#bba481" opacity="0.54" d=" M 379.99 161.02 C 380.24 160.46 380.74 159.34 380.99 158.78 C 380.74 159.34 380.24 160.46 379.99 161.02 Z" />
<path fill="#bba481" opacity="0.54" d=" M 378.79 165.01 C 378.48 163.63 378.93 162.61 380.13 161.94 C 380.54 163.34 380.09 164.36 378.79 165.01 Z" />
<path fill="#bba481" opacity="0.54" d=" M 375.88 176.04 C 375.47 174.75 375.78 173.67 376.83 172.80 C 377.46 174.18 377.15 175.26 375.88 176.04 Z" />
<path fill="#bba481" opacity="0.54" d=" M 374.98 178.99 C 375.23 178.44 375.74 177.33 375.99 176.78 C 375.74 177.33 375.23 178.44 374.98 178.99 Z" />
<path fill="#bba481" opacity="0.54" d=" M 374.00 183.07 C 373.48 181.67 373.85 180.61 375.12 179.88 C 375.51 181.20 375.14 182.26 374.00 183.07 Z" />
<path fill="#bba481" opacity="0.54" d=" M 373.23 184.80 C 373.33 184.60 373.52 184.18 373.61 183.97 C 377.49 184.00 381.37 184.23 385.25 184.19 C 381.26 184.61 377.25 184.89 373.23 184.80 Z" />
<path fill="#bba481" opacity="0.54" d=" M 404.98 422.14 C 405.49 420.43 407.59 420.67 408.96 420.93 C 407.93 421.92 406.41 422.82 404.98 422.14 Z" />
<path fill="#bba481" opacity="0.54" d=" M 400.95 423.07 C 401.67 421.83 402.69 421.43 403.98 421.85 C 403.40 423.10 402.39 423.51 400.95 423.07 Z" />
<path fill="#bba481" opacity="0.54" d=" M 395.79 423.82 C 396.70 422.80 397.81 422.51 399.11 422.95 C 398.27 424.18 397.17 424.47 395.79 423.82 Z" />
<path fill="#bba481" opacity="0.54" d=" M 387.46 427.24 C 385.68 425.65 388.37 424.40 389.84 424.79 C 389.26 425.83 388.47 426.65 387.46 427.24 Z" />
<path fill="#bba481" opacity="0.54" d=" M 399.30 443.43 C 399.35 443.51 399.46 443.65 399.51 443.73 C 399.46 443.65 399.35 443.51 399.30 443.43 Z" />
</g>
</svg>
