<?xml version="1.0" encoding="UTF-8" ?>
<!DOCTYPE svg PUBLIC "-//W3C//DTD SVG 1.1//EN" "http://www.w3.org/Graphics/SVG/1.1/DTD/svg11.dtd">
<svg width="494pt" height="512pt" viewBox="0 0 494 512" version="1.1" xmlns="http://www.w3.org/2000/svg">
<g id="#a46e19ff">
<path fill="#a46e19" opacity="1.00" d=" M 106.16 0.00 L 107.39 0.00 C 107.67 8.41 108.04 16.84 109.33 25.17 C 101.86 24.47 94.39 23.92 86.91 23.32 C 91.86 14.28 99.24 6.78 107.15 0.28 L 106.16 0.00 Z" />
<path fill="#a46e19" opacity="1.00" d=" M 179.23 8.17 C 182.19 5.61 185.05 2.84 188.52 0.96 C 186.06 11.97 185.69 23.39 186.66 34.61 C 177.91 33.34 169.16 31.97 160.37 30.91 C 165.23 22.28 171.99 14.86 179.23 8.17 Z" />
<path fill="#a46e19" opacity="1.00" d=" M 197.96 36.48 C 206.77 19.99 222.81 8.73 239.31 0.80 C 234.24 14.15 229.82 27.88 228.13 42.13 C 218.08 40.23 208.03 38.33 197.96 36.48 Z" />
<path fill="#a46e19" opacity="1.00" d=" M 280.00 14.98 C 290.86 9.09 302.22 3.88 314.25 0.88 C 300.73 14.19 286.86 27.48 276.32 43.38 C 274.33 45.89 273.34 49.23 271.15 51.46 C 260.69 49.04 250.23 46.55 239.77 44.09 C 251.74 32.60 265.55 23.08 280.00 14.98 Z" />
<path fill="#a46e19" opacity="1.00" d=" M 126.38 27.07 C 130.37 16.97 138.84 9.44 147.03 2.67 C 147.30 11.45 147.57 20.26 148.93 28.95 C 141.42 28.31 133.90 27.69 126.38 27.07 Z" />
<path fill="#a46e19" opacity="1.00" d=" M 286.82 55.28 C 331.65 30.53 380.66 13.46 431.04 4.37 C 427.93 6.41 424.32 7.47 420.98 9.02 C 386.60 24.36 354.20 44.00 324.19 66.69 C 311.79 62.71 299.19 59.34 286.82 55.28 Z" />
<path fill="#a46e19" opacity="1.00" d=" M 49.03 23.21 C 52.21 14.59 59.22 7.64 67.77 4.34 C 67.10 10.63 66.58 17.01 67.79 23.28 C 61.54 23.23 55.28 23.33 49.03 23.21 Z" />
<path fill="#a46e19" opacity="1.00" d=" M 19.01 23.28 C 22.25 16.38 27.63 10.65 33.83 6.31 C 34.38 12.11 36.01 17.71 37.65 23.27 C 31.44 23.26 25.22 23.26 19.01 23.28 Z" />
<path fill="#a46e19" opacity="1.00" d=" M 434.78 32.67 C 449.71 27.23 464.74 21.88 480.16 18.00 C 448.11 43.15 416.22 68.67 386.73 96.83 C 374.05 90.07 361.46 83.12 348.95 76.06 C 375.26 57.51 404.79 44.08 434.78 32.67 Z" />
<path fill="#a46e19" opacity="1.00" d=" M 399.84 106.21 C 424.79 90.17 453.39 80.85 482.13 74.30 C 460.75 89.40 439.69 105.15 420.68 123.22 C 413.55 117.79 406.65 112.04 399.84 106.21 Z" />
<path fill="#a46e19" opacity="1.00" d=" M 429.91 132.73 C 439.14 127.91 449.75 126.86 460.00 126.44 C 466.70 126.35 473.54 125.99 480.14 127.37 C 469.53 131.37 460.69 139.06 453.81 147.93 C 451.88 150.24 450.54 152.98 448.48 155.18 C 442.44 147.57 436.07 140.23 429.91 132.73 Z" />
<path fill="#a46e19" opacity="1.00" d=" M 452.65 162.89 C 465.33 161.26 479.80 161.93 490.07 170.46 C 479.61 170.48 469.93 175.78 462.56 182.90 C 462.30 182.84 461.77 182.72 461.51 182.67 C 458.53 176.09 455.40 169.57 452.65 162.89 Z" />
<path fill="#a46e19" opacity="1.00" d=" M 0.00 207.80 C 5.37 200.04 9.89 191.74 15.05 183.85 C 17.57 191.53 20.42 199.13 24.37 206.20 C 16.27 206.95 8.15 207.92 0.00 207.90 L 0.00 207.80 Z" />
<path fill="#a46e19" opacity="1.00" d=" M 469.54 215.74 C 467.72 208.21 465.42 200.76 464.11 193.12 C 472.71 197.00 481.44 200.57 490.08 204.35 C 483.39 208.42 476.36 211.91 469.54 215.74 Z" />
<path fill="#a46e19" opacity="1.00" d=" M 17.00 242.15 C 20.80 232.76 24.34 223.26 28.40 213.98 C 33.21 223.04 40.21 230.98 48.84 236.57 C 38.22 238.41 27.63 240.38 17.00 242.15 Z" />
<path fill="#a46e19" opacity="1.00" d=" M 471.42 225.24 C 477.65 229.69 484.17 233.76 490.12 238.58 C 485.06 241.54 480.16 244.75 475.18 247.83 C 473.88 240.31 472.60 232.78 471.42 225.24 Z" />
<path fill="#a46e19" opacity="1.00" d=" M 52.81 240.40 C 60.39 246.25 68.54 251.29 77.14 255.50 C 69.00 259.15 60.99 263.09 52.80 266.61 C 52.80 257.87 52.78 249.13 52.81 240.40 Z" />
<path fill="#a46e19" opacity="1.00" d=" M 83.01 257.26 C 89.01 259.17 95.04 261.00 101.20 262.32 C 101.97 262.42 102.62 262.75 103.15 263.32 C 97.62 266.20 92.30 269.47 86.72 272.26 C 85.46 267.27 84.18 262.27 83.01 257.26 Z" />
<path fill="#a46e19" opacity="1.00" d=" M 475.16 257.36 C 480.88 261.66 486.57 266.00 492.07 270.58 C 486.48 274.27 480.85 277.91 475.39 281.77 C 474.84 273.65 475.28 265.49 475.16 257.36 Z" />
<path fill="#a46e19" opacity="1.00" d=" M 157.11 269.09 C 157.67 270.13 158.16 271.26 159.06 272.07 C 161.05 272.90 162.97 271.60 164.51 270.47 C 171.25 270.50 177.99 270.39 184.73 270.55 L 184.20 269.20 C 185.34 271.51 187.58 272.51 190.11 272.42 C 187.48 276.59 183.52 279.63 180.37 283.36 C 176.98 287.35 173.21 290.98 169.89 295.03 C 180.39 302.11 191.19 308.73 201.67 315.84 C 197.16 319.12 191.34 319.33 185.98 319.53 C 165.48 319.56 144.98 319.49 124.48 319.56 C 124.56 311.80 124.44 304.05 124.82 296.30 C 118.41 296.44 111.91 295.66 105.58 296.89 C 105.58 288.09 105.60 279.30 105.57 270.51 C 122.86 270.45 140.15 270.43 157.44 270.52 L 157.11 269.09 Z" />
<path fill="#a46e19" opacity="1.00" d=" M 475.11 313.74 C 475.23 306.25 475.01 298.76 475.26 291.27 C 481.57 294.83 487.55 298.99 494.00 302.29 L 494.00 302.74 C 487.56 306.15 481.57 310.35 475.11 313.74 Z" />
<path fill="#a46e19" opacity="1.00" d=" M 475.16 325.20 C 480.80 328.92 486.40 332.71 492.05 336.42 C 486.55 339.83 480.79 342.79 475.14 345.93 C 475.16 339.02 475.13 332.11 475.16 325.20 Z" />
<path fill="#a46e19" opacity="1.00" d=" M 475.16 353.59 C 480.23 357.14 485.03 361.05 490.10 364.61 C 485.41 368.24 480.12 371.01 475.16 374.24 C 475.14 367.35 475.13 360.47 475.16 353.59 Z" />
<path fill="#a46e19" opacity="1.00" d=" M 473.24 381.94 C 478.33 386.84 483.45 391.75 488.19 397.00 C 482.60 399.46 477.03 401.99 471.43 404.42 C 472.29 396.95 473.13 389.47 473.24 381.94 Z" />
<path fill="#a46e19" opacity="1.00" d=" M 12.31 398.06 C 13.86 393.11 15.60 387.72 19.84 384.38 C 16.83 397.30 16.56 410.79 18.52 423.89 C 21.01 439.93 27.61 456.09 40.24 466.79 C 53.02 477.88 70.42 481.92 87.00 481.77 C 180.68 481.81 274.35 481.77 368.03 481.79 C 381.34 481.36 394.60 479.12 407.37 475.35 C 419.19 471.67 431.33 466.67 439.77 457.26 C 443.62 456.93 447.50 455.95 450.58 453.52 C 456.21 449.40 458.51 442.56 461.81 436.71 C 458.73 452.18 452.86 467.44 442.78 479.74 C 433.98 490.69 421.18 498.26 407.33 500.66 C 406.03 503.79 404.75 506.93 403.48 510.07 C 400.33 507.55 397.20 505.02 394.04 502.53 C 390.97 502.55 387.90 502.53 384.83 502.47 C 382.84 504.98 380.88 507.52 378.99 510.11 C 377.11 507.51 375.16 504.98 373.16 502.47 C 368.80 502.55 364.45 502.52 360.09 502.56 C 358.87 505.06 357.65 507.56 356.42 510.06 C 355.10 507.61 353.85 505.13 352.69 502.61 C 347.04 502.44 341.40 502.60 335.75 502.49 C 333.79 505.00 331.85 507.53 329.96 510.10 C 328.07 507.52 326.13 504.99 324.17 502.49 C 319.81 502.55 315.45 502.52 311.09 502.55 C 309.25 505.09 307.34 507.59 305.42 510.08 C 303.56 507.60 301.70 505.11 299.89 502.60 C 294.88 502.47 289.87 502.57 284.86 502.49 C 282.89 505.00 280.95 507.53 279.05 510.10 C 276.97 507.68 275.53 504.55 272.98 502.64 C 267.42 502.36 261.84 502.53 256.27 502.64 C 254.50 505.17 252.66 507.65 250.78 510.10 C 248.88 507.57 246.96 505.05 245.07 502.51 C 240.73 502.55 236.39 502.71 232.06 502.91 C 229.83 505.56 228.00 508.75 226.73 512.00 L 226.35 512.00 C 224.27 509.00 222.59 505.75 220.72 502.62 C 216.22 502.49 211.71 502.43 207.22 502.67 C 205.47 505.80 203.67 508.91 201.85 512.00 L 201.37 512.00 C 199.97 508.65 197.89 505.65 196.07 502.54 C 191.05 502.53 186.04 502.52 181.02 502.54 C 179.22 505.68 177.05 508.62 175.71 512.00 L 175.60 512.00 C 173.40 509.03 171.62 505.78 169.78 502.59 C 164.76 502.48 159.74 502.57 154.72 502.49 C 152.81 505.59 150.91 508.69 148.99 511.78 L 149.87 512.00 L 149.00 512.00 C 147.01 508.88 145.20 505.65 143.23 502.51 C 138.85 502.53 134.47 502.52 130.09 502.55 C 128.18 505.69 126.38 508.90 124.40 512.00 L 124.32 512.00 C 122.59 508.81 120.69 505.73 118.86 502.60 C 115.65 502.49 112.45 502.50 109.24 502.62 C 107.44 505.74 105.64 508.87 103.86 512.00 L 103.38 512.00 C 101.93 508.67 99.85 505.67 98.03 502.54 C 91.73 502.54 85.43 502.49 79.12 502.57 C 77.35 505.15 75.43 507.62 73.45 510.03 C 72.26 507.49 70.99 504.99 69.67 502.52 C 66.09 502.49 62.52 502.28 58.96 501.89 C 55.62 504.58 52.35 507.37 49.03 510.10 C 48.53 506.57 48.01 503.04 47.48 499.52 C 36.99 496.27 27.10 490.40 20.32 481.62 C 10.24 468.83 7.19 451.97 7.60 436.05 C 8.01 423.30 8.90 410.41 12.31 398.06 Z" />
<path fill="#a46e19" opacity="1.00" d=" M 99.93 395.00 C 107.63 395.18 115.40 394.63 123.05 395.27 C 140.00 402.47 156.85 409.90 173.77 417.19 C 176.09 418.08 178.31 419.66 180.90 419.55 C 194.65 419.55 208.41 419.47 222.16 419.59 C 219.26 422.65 214.94 423.39 211.28 425.16 C 202.59 429.08 193.73 432.62 185.04 436.54 C 199.01 443.73 213.62 449.67 227.34 457.33 C 197.47 457.21 167.60 457.25 137.73 457.31 C 133.23 447.31 128.84 437.25 124.56 427.16 C 116.35 426.95 108.14 427.13 99.93 427.06 C 99.93 416.38 99.93 405.69 99.93 395.00 Z" />
<path fill="#a46e19" opacity="1.00" d=" M 471.26 414.10 C 476.00 419.42 480.16 425.25 484.52 430.89 C 478.89 432.76 473.26 434.67 467.62 436.51 C 468.80 429.03 470.18 421.59 471.26 414.10 Z" />
<path fill="#a46e19" opacity="1.00" d=" M 467.51 442.31 C 472.15 448.38 476.36 454.77 480.75 461.03 C 473.85 461.70 466.96 462.32 460.06 462.92 C 462.55 456.05 465.10 449.21 467.51 442.31 Z" />
<path fill="#a46e19" opacity="1.00" d=" M 445.00 485.60 C 449.34 479.32 453.70 473.05 458.15 466.84 C 460.77 473.68 463.21 480.58 465.69 487.47 C 458.80 486.81 451.91 486.14 445.00 485.60 Z" />
<path fill="#a46e19" opacity="1.00" d=" M 11.21 476.30 C 14.00 479.14 16.19 482.47 18.84 485.43 C 15.20 487.04 11.36 488.11 7.58 489.33 C 8.75 484.98 10.08 480.67 11.21 476.30 Z" />
<path fill="#a46e19" opacity="1.00" d=" M 24.44 489.33 C 27.94 491.68 31.53 493.91 34.96 496.37 C 34.91 496.65 34.80 497.23 34.75 497.52 C 30.78 499.87 26.75 502.13 22.70 504.35 C 23.18 499.33 23.98 494.35 24.44 489.33 Z" />
<path fill="#a46e19" opacity="1.00" d=" M 440.49 489.94 C 440.69 490.03 441.09 490.21 441.29 490.30 C 441.95 496.25 442.46 502.23 443.08 508.19 C 436.82 506.33 430.61 504.35 424.32 502.63 C 429.61 498.28 435.10 494.17 440.49 489.94 Z" />
</g>
<g id="#b2981dff">
<path fill="#b2981d" opacity="1.00" d=" M 13.10 28.95 C 38.73 28.84 64.37 29.04 90.00 29.21 C 102.01 29.91 114.06 29.95 126.06 30.85 C 123.95 30.72 121.85 30.68 119.75 30.63 C 119.69 34.46 119.67 38.30 119.71 42.13 C 116.11 42.19 112.41 41.82 108.90 42.78 C 103.22 44.43 102.04 53.08 106.39 56.69 C 110.33 59.25 115.25 58.92 119.74 59.05 C 119.75 67.71 119.79 76.36 119.80 85.02 C 109.75 82.30 99.76 78.63 91.05 72.85 C 89.50 72.18 89.71 70.45 89.72 69.06 C 90.42 55.89 90.99 42.72 91.46 29.55 C 88.88 29.43 86.31 29.39 83.73 29.46 C 82.47 42.94 81.51 56.46 80.16 69.93 C 55.97 62.18 32.63 51.80 10.39 39.53 C 11.08 35.95 12.02 32.43 13.10 28.95 Z" />
<path fill="#b2981d" opacity="1.00" d=" M 127.28 30.98 C 133.48 31.67 139.70 32.09 145.88 32.94 C 148.42 33.22 151.00 33.87 153.54 33.28 C 153.49 35.23 153.63 37.18 154.11 39.07 C 157.48 52.24 156.28 65.95 156.26 79.40 C 151.33 72.14 147.10 64.44 142.57 56.93 C 140.66 58.04 138.76 59.17 136.90 60.36 C 140.83 68.22 145.78 75.51 149.89 83.27 C 142.78 86.31 134.94 86.81 127.31 86.93 C 127.36 68.28 127.41 49.63 127.28 30.98 M 127.93 42.99 C 127.79 48.29 127.16 53.66 127.99 58.93 C 132.45 58.18 137.88 57.89 140.58 53.68 C 141.65 51.14 141.84 47.43 139.19 45.79 C 135.72 44.03 131.85 42.90 127.93 42.99 Z" />
<path fill="#b2981d" opacity="1.00" d=" M 169.43 36.42 C 173.29 36.95 177.11 37.72 180.94 38.44 C 181.39 44.64 182.91 50.74 182.87 56.98 C 182.91 64.30 182.83 71.62 182.88 78.95 C 178.52 80.23 174.16 81.51 169.72 82.50 C 169.49 67.14 170.01 51.77 169.43 36.42 Z" />
<path fill="#b2981d" opacity="1.00" d=" M 200.70 42.23 C 204.75 43.11 208.78 44.18 212.91 44.61 C 212.51 50.13 212.71 55.66 212.91 61.19 C 208.59 55.04 204.60 48.65 200.70 42.23 Z" />
<path fill="#b2981d" opacity="1.00" d=" M 9.09 48.50 C 29.79 59.17 50.90 69.10 72.72 77.27 C 91.48 84.61 110.53 91.18 129.71 97.31 C 131.43 97.85 133.22 98.38 135.03 97.96 C 142.23 96.78 149.23 94.64 156.42 93.38 C 156.47 115.61 156.30 137.85 156.49 160.09 C 146.49 167.45 136.43 174.73 126.17 181.73 C 114.25 176.03 102.35 170.26 90.36 164.68 C 88.65 163.81 86.52 163.07 85.96 161.00 C 79.99 145.93 73.86 130.92 67.98 115.81 C 86.88 114.52 105.77 112.94 124.68 112.16 C 130.05 121.59 135.85 130.77 141.32 140.15 C 134.45 145.75 127.21 150.87 120.14 156.21 C 118.68 157.86 117.37 155.61 116.37 154.64 C 111.65 149.12 106.59 143.89 101.91 138.32 C 105.63 135.82 109.35 133.32 113.12 130.89 C 114.91 133.17 116.53 135.58 118.43 137.78 C 119.02 137.64 120.19 137.37 120.77 137.24 C 118.59 132.41 115.79 127.91 113.09 123.37 C 105.58 127.60 98.23 132.08 90.74 136.33 C 91.86 137.81 93.00 139.28 94.29 140.61 C 101.93 148.56 109.26 156.80 116.94 164.72 C 127.01 156.59 137.13 148.50 147.04 140.17 C 141.33 128.30 135.82 116.34 130.08 104.48 C 109.04 106.17 88.02 108.05 66.99 109.84 C 63.37 110.48 60.28 108.17 57.12 106.83 C 40.59 99.11 24.11 91.25 7.49 83.75 C 7.61 71.98 8.07 60.22 9.09 48.50 Z" />
<path fill="#b2981d" opacity="1.00" d=" M 229.15 48.16 C 234.33 49.01 239.39 50.46 244.57 51.27 C 247.56 68.76 246.56 86.58 246.96 104.23 C 241.01 104.28 234.95 104.12 229.14 105.70 C 230.35 86.56 230.52 67.29 229.15 48.16 Z" />
<path fill="#b2981d" opacity="1.00" d=" M 199.76 50.62 C 203.93 55.13 207.91 60.09 210.14 65.87 C 207.67 69.90 202.64 71.45 198.51 73.30 C 198.71 65.72 199.67 58.20 199.76 50.62 Z" />
<path fill="#b2981d" opacity="1.00" d=" M 258.68 54.64 C 264.90 56.01 271.10 57.50 277.25 59.19 C 278.27 62.01 276.99 65.07 277.28 68.00 C 277.90 80.86 279.61 93.64 280.75 106.46 C 277.94 106.56 275.43 105.28 272.82 104.48 C 268.34 103.97 263.82 104.36 259.33 104.30 C 260.89 98.64 259.97 92.74 260.13 86.96 C 259.83 76.19 260.08 65.35 258.68 54.64 Z" />
<path fill="#b2981d" opacity="1.00" d=" M 294.67 63.90 C 301.60 65.89 308.47 68.09 315.29 70.44 C 314.69 76.02 316.74 81.41 316.67 86.97 C 316.76 93.95 316.89 100.92 317.05 107.89 C 311.03 107.21 305.00 106.62 298.95 106.58 C 298.90 108.43 298.85 110.29 298.85 112.16 C 298.14 96.03 297.59 79.83 294.67 63.90 Z" />
<path fill="#b2981d" opacity="1.00" d=" M 198.12 80.37 C 203.15 78.75 208.09 76.83 213.04 74.98 C 213.05 90.37 213.14 105.77 213.01 121.16 C 207.32 123.22 202.94 127.60 197.64 130.39 C 197.65 113.71 197.84 97.04 198.12 80.37 Z" />
<path fill="#b2981d" opacity="1.00" d=" M 333.29 90.97 C 333.49 86.42 333.05 81.83 334.05 77.35 C 339.06 79.31 343.95 81.53 348.87 83.70 C 348.81 93.91 349.16 104.11 349.20 114.32 C 343.80 112.90 338.41 111.45 332.90 110.52 C 332.92 104.00 333.07 97.48 333.29 90.97 Z" />
<path fill="#b2981d" opacity="1.00" d=" M 169.69 89.42 C 174.12 88.33 178.44 86.85 182.85 85.69 C 182.91 104.31 182.85 122.92 182.90 141.54 C 178.38 144.32 174.33 147.80 169.75 150.49 C 169.59 130.13 169.67 109.78 169.69 89.42 Z" />
<path fill="#b2981d" opacity="1.00" d=" M 365.98 92.45 C 372.06 95.71 377.75 99.65 383.74 103.06 C 382.25 104.27 380.72 105.76 380.96 107.89 C 380.97 114.60 381.78 121.30 382.03 128.02 C 377.14 125.34 372.14 122.89 366.99 120.76 C 367.19 111.31 366.63 101.87 365.98 92.45 Z" />
<path fill="#b2981d" opacity="1.00" d=" M 398.17 113.87 C 415.96 128.31 431.94 145.15 444.71 164.21 C 453.65 177.71 459.97 192.92 463.17 208.79 C 468.00 232.54 467.53 256.92 467.60 281.03 C 467.59 313.69 467.62 346.34 467.58 379.00 C 467.68 398.37 466.49 417.85 461.81 436.71 C 458.51 442.56 456.21 449.40 450.58 453.52 C 447.50 455.95 443.62 456.93 439.77 457.26 C 449.72 444.85 452.08 428.42 452.54 412.99 C 452.53 367.30 452.53 321.61 452.54 275.92 C 452.94 249.80 450.44 223.26 441.42 198.59 C 433.17 175.55 418.76 154.50 399.25 139.58 C 399.70 131.03 400.52 122.24 398.17 113.87 Z" />
<path fill="#b2981d" opacity="1.00" d=" M 299.41 125.31 C 305.42 125.29 311.42 125.68 317.40 126.22 C 317.45 134.55 317.45 142.89 317.86 151.21 C 311.86 150.52 305.83 150.01 299.80 149.80 C 299.57 141.64 299.69 133.47 299.41 125.31 Z" />
<path fill="#b2981d" opacity="1.00" d=" M 333.19 128.22 C 338.68 129.22 344.11 130.52 349.50 131.95 C 349.69 140.96 349.63 149.97 349.83 158.97 C 344.27 156.98 338.57 155.40 332.84 153.98 C 334.54 145.46 333.65 136.81 333.19 128.22 Z" />
<path fill="#b2981d" opacity="1.00" d=" M 366.66 137.90 C 372.25 140.24 377.65 143.04 382.88 146.10 C 383.25 156.40 383.66 166.70 383.90 177.00 C 378.05 172.59 371.81 168.68 365.20 165.51 C 366.31 156.37 366.38 147.10 366.66 137.90 Z" />
<path fill="#b2981d" opacity="1.00" d=" M 398.08 157.71 C 409.10 167.09 417.47 179.32 423.57 192.36 C 434.47 215.92 437.58 242.26 437.42 267.98 C 437.36 310.97 437.54 353.96 437.33 396.95 C 437.06 412.94 435.07 430.50 423.86 442.87 C 417.10 450.40 407.60 454.78 397.94 457.25 C 404.09 449.75 410.07 441.80 413.39 432.58 C 415.28 427.60 414.76 422.20 414.81 416.99 C 414.81 390.67 414.80 364.35 414.82 338.03 C 414.87 333.30 413.45 328.70 411.54 324.42 C 409.55 319.99 409.53 315.02 409.21 310.26 C 409.08 300.77 409.20 291.29 409.15 281.81 C 409.15 280.53 409.15 279.26 409.15 278.00 C 409.15 268.31 409.17 258.61 409.16 248.92 C 409.27 240.27 405.60 231.86 400.11 225.30 C 400.29 218.47 400.23 211.64 400.10 204.81 C 402.68 207.38 404.84 210.32 407.08 213.20 C 407.18 207.10 404.74 201.35 401.79 196.15 C 401.35 195.16 400.59 194.42 399.47 194.38 C 399.21 182.15 397.54 169.96 398.08 157.71 Z" />
<path fill="#b2981d" opacity="1.00" d=" M 299.99 175.95 C 306.09 175.85 312.20 175.99 318.29 176.26 C 318.37 181.21 318.33 186.16 318.41 191.11 C 312.27 191.28 306.13 191.21 299.99 191.17 C 299.97 186.09 299.97 181.02 299.99 175.95 Z" />
<path fill="#b2981d" opacity="1.00" d=" M 332.68 177.68 C 338.54 178.20 344.32 179.35 350.11 180.40 C 350.20 184.92 350.20 189.44 350.25 193.97 C 344.74 192.75 339.17 191.82 333.54 191.46 C 333.40 186.86 332.99 182.27 332.68 177.68 Z" />
<path fill="#b2981d" opacity="1.00" d=" M 364.01 184.07 C 371.01 186.23 377.72 189.17 384.25 192.48 C 384.30 190.93 384.33 189.39 384.35 187.86 C 384.82 195.24 384.65 202.65 385.04 210.05 C 379.05 205.67 372.54 202.06 365.77 199.05 C 365.74 194.01 365.20 188.96 364.01 184.07 Z" />
<path fill="#b2981d" opacity="1.00" d=" M 231.85 225.90 C 239.49 216.30 246.82 206.44 254.65 196.99 C 263.39 210.10 272.01 223.30 280.93 236.29 C 280.76 244.22 281.38 252.19 280.43 260.08 C 278.94 270.61 273.53 280.23 266.46 288.04 C 257.85 297.39 247.13 304.54 235.69 309.97 C 229.05 312.59 222.27 315.44 215.03 315.70 C 210.58 315.85 206.12 315.59 201.67 315.84 C 191.19 308.73 180.39 302.11 169.89 295.03 C 173.21 290.98 176.98 287.35 180.37 283.36 C 183.52 279.63 187.48 276.59 190.11 272.42 C 191.04 270.94 191.98 269.47 192.87 267.97 C 192.64 268.59 192.18 269.84 191.95 270.47 C 198.96 270.32 205.98 270.76 212.97 270.26 C 217.83 269.63 220.28 264.42 220.51 260.02 C 220.79 253.25 220.46 246.47 220.60 239.71 C 224.80 235.48 228.10 230.50 231.85 225.90 M 252.38 217.87 C 248.45 223.61 243.43 228.60 239.96 234.64 C 248.98 234.59 258.01 234.57 267.04 234.65 C 265.92 231.77 263.33 229.88 261.45 227.53 C 258.39 224.34 255.87 220.60 252.38 217.87 M 239.80 262.85 C 247.84 262.16 255.93 261.97 263.91 260.82 C 260.05 255.97 256.49 250.90 252.67 246.03 C 248.33 251.59 243.75 256.99 239.80 262.85 Z" />
<path fill="#b2981d" opacity="1.00" d=" M 305.30 353.76 C 308.24 358.48 310.45 363.63 312.92 368.61 C 307.30 368.60 301.68 368.63 296.05 368.59 C 299.10 363.63 302.21 358.70 305.30 353.76 Z" />
<path fill="#b2981d" opacity="1.00" d=" M 299.60 380.09 C 303.17 384.77 305.99 389.97 309.14 394.94 C 302.93 395.04 296.73 395.05 290.53 394.94 C 293.39 389.89 296.70 385.11 299.60 380.09 Z" />
<path fill="#b2981d" opacity="1.00" d=" M 284.92 416.72 C 289.40 411.52 293.47 405.98 297.95 400.77 C 303.68 406.95 309.20 413.30 314.89 419.52 C 338.59 418.77 362.29 417.91 386.01 417.62 C 392.41 417.44 400.01 416.26 403.63 410.28 C 403.33 421.57 400.86 433.48 393.11 442.12 C 383.67 452.87 368.85 456.86 355.02 457.22 C 312.46 457.37 269.90 457.15 227.34 457.33 C 213.62 449.67 199.01 443.73 185.04 436.54 C 193.73 432.62 202.59 429.08 211.28 425.16 C 214.94 423.39 219.26 422.65 222.16 419.59 L 222.42 419.36 C 242.22 419.77 262.03 419.42 281.84 419.54 C 283.48 419.65 283.92 417.65 284.92 416.72 Z" />
</g>
<g id="#475038ff">
<path fill="#475038" opacity="1.00" d=" M 83.73 29.46 C 86.31 29.39 88.88 29.43 91.46 29.55 C 90.99 42.72 90.42 55.89 89.72 69.06 C 89.71 70.45 89.50 72.18 91.05 72.85 C 99.76 78.63 109.75 82.30 119.80 85.02 C 119.79 76.36 119.75 67.71 119.74 59.05 C 119.73 53.41 119.72 47.77 119.71 42.13 C 119.67 38.30 119.69 34.46 119.75 30.63 C 121.85 30.68 123.95 30.72 126.06 30.85 L 127.28 30.98 C 127.41 49.63 127.36 68.28 127.31 86.93 C 134.94 86.81 142.78 86.31 149.89 83.27 C 145.78 75.51 140.83 68.22 136.90 60.36 C 138.76 59.17 140.66 58.04 142.57 56.93 C 147.10 64.44 151.33 72.14 156.26 79.40 C 156.67 84.05 156.51 88.72 156.42 93.38 C 149.23 94.64 142.23 96.78 135.03 97.96 C 133.22 98.38 131.43 97.85 129.71 97.31 C 110.53 91.18 91.48 84.61 72.72 77.27 C 50.90 69.10 29.79 59.17 9.09 48.50 C 9.29 45.48 9.79 42.49 10.39 39.53 C 32.63 51.80 55.97 62.18 80.16 69.93 C 81.51 56.46 82.47 42.94 83.73 29.46 Z" />
<path fill="#475038" opacity="1.00" d=" M 199.06 41.71 C 199.47 41.84 200.29 42.10 200.70 42.23 C 204.60 48.65 208.59 55.04 212.91 61.19 C 213.12 65.78 213.09 70.38 213.04 74.98 C 208.09 76.83 203.15 78.75 198.12 80.37 C 198.19 78.01 198.36 75.65 198.51 73.30 C 202.64 71.45 207.67 69.90 210.14 65.87 C 207.91 60.09 203.93 55.13 199.76 50.62 C 199.67 47.64 199.43 44.67 199.06 41.71 Z" />
<path fill="#475038" opacity="1.00" d=" M 169.72 82.50 C 174.16 81.51 178.52 80.23 182.88 78.95 C 182.88 81.20 182.85 83.44 182.85 85.69 C 178.44 86.85 174.12 88.33 169.69 89.42 C 169.69 87.11 169.72 84.81 169.72 82.50 Z" />
<path fill="#475038" opacity="1.00" d=" M 7.49 83.75 C 24.11 91.25 40.59 99.11 57.12 106.83 C 60.28 108.17 63.37 110.48 66.99 109.84 C 88.02 108.05 109.04 106.17 130.08 104.48 C 135.82 116.34 141.33 128.30 147.04 140.17 C 137.13 148.50 127.01 156.59 116.94 164.72 C 109.26 156.80 101.93 148.56 94.29 140.61 C 93.00 139.28 91.86 137.81 90.74 136.33 C 98.23 132.08 105.58 127.60 113.09 123.37 C 115.79 127.91 118.59 132.41 120.77 137.24 C 120.19 137.37 119.02 137.64 118.43 137.78 C 116.53 135.58 114.91 133.17 113.12 130.89 C 109.35 133.32 105.63 135.82 101.91 138.32 C 106.59 143.89 111.65 149.12 116.37 154.64 C 117.37 155.61 118.68 157.86 120.14 156.21 C 127.21 150.87 134.45 145.75 141.32 140.15 C 135.85 130.77 130.05 121.59 124.68 112.16 C 105.77 112.94 86.88 114.52 67.98 115.81 C 73.86 130.92 79.99 145.93 85.96 161.00 C 86.52 163.07 88.65 163.81 90.36 164.68 C 102.35 170.26 114.25 176.03 126.17 181.73 C 136.43 174.73 146.49 167.45 156.49 160.09 C 156.50 193.75 156.53 227.41 156.48 261.07 C 140.97 260.98 125.35 261.62 109.99 259.05 C 86.48 255.48 63.68 245.07 47.07 227.83 C 34.74 215.27 25.84 199.66 19.81 183.20 C 12.65 163.58 9.25 142.77 8.05 121.98 C 7.27 109.25 7.67 96.49 7.49 83.75 Z" />
<path fill="#475038" opacity="1.00" d=" M 298.95 106.58 C 305.00 106.62 311.03 107.21 317.05 107.89 C 317.18 114.00 317.34 120.11 317.40 126.22 C 311.42 125.68 305.42 125.29 299.41 125.31 C 299.18 120.93 299.09 116.54 298.85 112.16 C 298.85 110.29 298.90 108.43 298.95 106.58 Z" />
<path fill="#475038" opacity="1.00" d=" M 228.81 112.75 C 233.85 108.50 240.73 108.09 247.02 108.11 C 248.22 108.08 249.43 108.05 250.64 108.03 C 258.20 108.52 265.79 107.83 273.34 108.41 C 276.37 108.51 278.49 110.88 280.99 112.04 C 281.03 111.59 281.13 110.68 281.18 110.23 C 281.85 122.07 282.54 133.93 282.86 145.79 C 282.73 154.50 282.91 163.21 282.80 171.92 C 282.93 176.30 280.08 181.08 275.43 181.58 C 268.33 182.10 261.18 181.64 254.07 181.82 C 248.62 182.12 242.21 180.75 239.30 175.63 C 236.33 169.89 238.01 163.13 237.58 156.93 C 237.95 150.75 236.17 143.65 240.23 138.34 C 243.97 133.58 250.67 134.64 256.00 134.63 C 259.36 134.54 263.05 136.53 263.71 140.04 C 264.27 144.33 263.84 148.67 263.99 152.98 C 263.89 155.31 264.27 157.81 263.28 160.01 C 261.61 163.69 255.64 163.89 253.60 160.49 C 252.34 158.37 252.75 155.79 252.55 153.44 C 251.64 153.46 249.81 153.48 248.89 153.50 C 249.03 158.22 247.97 163.72 251.33 167.62 C 254.17 170.95 259.04 170.66 263.00 170.34 C 266.70 170.11 269.83 166.82 269.59 163.06 C 269.66 153.68 269.64 144.28 269.60 134.90 C 269.74 131.15 267.00 127.16 262.99 127.16 C 257.00 126.92 250.99 127.13 244.99 127.05 C 241.59 126.94 237.83 127.76 235.62 130.56 C 233.48 133.21 233.84 136.82 233.77 140.01 C 233.91 151.68 233.62 163.35 233.91 175.01 C 234.08 181.08 238.70 187.05 245.04 187.29 C 256.97 187.69 268.93 187.40 280.86 187.42 C 281.03 203.71 280.89 220.00 280.93 236.29 C 272.01 223.30 263.39 210.10 254.65 196.99 C 246.82 206.44 239.49 216.30 231.85 225.90 C 228.10 230.50 224.80 235.48 220.60 239.71 C 220.60 203.80 220.60 167.88 220.60 131.97 C 220.65 124.87 223.13 117.33 228.81 112.75 Z" />
<path fill="#475038" opacity="1.00" d=" M 332.90 110.52 C 338.41 111.45 343.80 112.90 349.20 114.32 C 349.32 120.20 349.34 126.08 349.50 131.95 C 344.11 130.52 338.68 129.22 333.19 128.22 C 332.96 122.32 332.88 116.42 332.90 110.52 Z" />
<path fill="#475038" opacity="1.00" d=" M 197.64 130.39 C 202.94 127.60 207.32 123.22 213.01 121.16 C 213.49 120.99 214.45 120.65 214.92 120.48 C 214.97 159.31 214.93 198.13 214.95 236.96 C 214.98 241.96 214.25 247.18 211.41 251.42 C 207.77 257.09 201.17 259.85 194.75 260.92 C 195.56 255.65 195.89 250.32 196.01 245.00 C 196.50 206.79 196.82 168.58 197.64 130.39 Z" />
<path fill="#475038" opacity="1.00" d=" M 366.99 120.76 C 372.14 122.89 377.14 125.34 382.03 128.02 C 382.48 134.04 382.69 140.07 382.88 146.10 C 377.65 143.04 372.25 140.24 366.66 137.90 C 366.72 132.18 366.93 126.47 366.99 120.76 Z" />
<path fill="#475038" opacity="1.00" d=" M 399.25 139.58 C 418.76 154.50 433.17 175.55 441.42 198.59 C 450.44 223.26 452.94 249.80 452.54 275.92 C 452.53 321.61 452.53 367.30 452.54 412.99 C 452.08 428.42 449.72 444.85 439.77 457.26 C 431.33 466.67 419.19 471.67 407.37 475.35 C 394.60 479.12 381.34 481.36 368.03 481.79 C 274.35 481.77 180.68 481.81 87.00 481.77 C 70.42 481.92 53.02 477.88 40.24 466.79 C 27.61 456.09 21.01 439.93 18.52 423.89 C 16.56 410.79 16.83 397.30 19.84 384.38 C 20.08 384.17 20.56 383.73 20.80 383.51 C 20.80 403.02 25.14 422.88 35.25 439.71 C 40.87 448.82 48.47 457.45 58.74 461.28 C 64.26 463.45 70.27 462.88 76.06 462.93 C 168.37 462.93 260.69 462.93 353.00 462.93 C 368.06 462.80 384.02 464.19 397.94 457.25 C 407.60 454.78 417.10 450.40 423.86 442.87 C 435.07 430.50 437.06 412.94 437.33 396.95 C 437.54 353.96 437.36 310.97 437.42 267.98 C 437.58 242.26 434.47 215.92 423.57 192.36 C 417.47 179.32 409.10 167.09 398.08 157.71 C 398.32 151.66 398.78 145.62 399.25 139.58 Z" />
<path fill="#475038" opacity="1.00" d=" M 169.75 150.49 C 174.33 147.80 178.38 144.32 182.90 141.54 C 182.86 181.38 182.94 221.22 182.86 261.06 C 177.91 261.07 172.96 261.07 168.01 261.06 C 169.48 251.44 169.52 241.67 169.65 231.96 C 169.78 204.80 169.59 177.64 169.75 150.49 Z" />
<path fill="#475038" opacity="1.00" d=" M 299.80 149.80 C 305.83 150.01 311.86 150.52 317.86 151.21 C 318.06 159.56 318.14 167.91 318.29 176.26 C 312.20 175.99 306.09 175.85 299.99 175.95 C 299.93 167.23 299.87 158.51 299.80 149.80 Z" />
<path fill="#475038" opacity="1.00" d=" M 332.68 177.68 C 331.83 169.80 331.41 161.82 332.84 153.98 C 338.57 155.40 344.27 156.98 349.83 158.97 C 349.93 166.12 349.99 173.26 350.11 180.40 C 344.32 179.35 338.54 178.20 332.68 177.68 Z" />
<path fill="#475038" opacity="1.00" d=" M 365.20 165.51 C 371.81 168.68 378.05 172.59 383.90 177.00 C 384.02 180.62 384.18 184.24 384.35 187.86 C 384.33 189.39 384.30 190.93 384.25 192.48 C 377.72 189.17 371.01 186.23 364.01 184.07 C 363.12 180.39 361.76 176.71 362.12 172.87 C 362.59 170.22 364.16 167.95 365.20 165.51 Z" />
<path fill="#475038" opacity="1.00" d=" M 299.99 191.17 C 306.13 191.21 312.27 191.28 318.41 191.11 C 318.67 209.06 318.66 227.01 318.79 244.97 C 319.04 255.99 319.15 267.06 320.72 278.00 C 311.60 277.99 302.48 278.02 293.37 277.98 C 298.36 262.88 299.87 246.85 299.81 231.02 C 299.87 217.73 299.95 204.45 299.99 191.17 Z" />
<path fill="#475038" opacity="1.00" d=" M 333.54 191.46 C 339.17 191.82 344.74 192.75 350.25 193.97 C 350.59 213.29 350.47 232.62 350.82 251.95 C 351.19 258.35 351.26 265.04 353.87 271.00 C 354.48 272.85 356.82 274.30 358.18 272.22 C 361.84 266.94 361.81 260.11 362.05 253.93 C 362.12 235.56 365.19 217.38 365.77 199.05 C 372.54 202.06 379.05 205.67 385.04 210.05 C 385.81 229.63 386.27 249.22 386.68 268.82 C 387.14 270.59 386.51 273.87 388.96 274.11 C 391.21 272.39 392.06 269.51 393.12 267.00 C 397.85 253.65 399.87 239.44 400.11 225.30 C 405.60 231.86 409.27 240.27 409.16 248.92 C 409.17 258.61 409.15 268.31 409.15 278.00 C 383.03 278.00 356.91 278.01 330.79 277.99 C 332.97 262.08 333.23 245.99 333.57 229.96 C 333.67 217.12 333.86 204.29 333.54 191.46 Z" />
<path fill="#475038" opacity="1.00" d=" M 399.47 194.38 C 400.59 194.42 401.35 195.16 401.79 196.15 C 404.74 201.35 407.18 207.10 407.08 213.20 C 404.84 210.32 402.68 207.38 400.10 204.81 C 399.99 201.32 399.69 197.85 399.47 194.38 Z" />
<path fill="#475038" opacity="1.00" d=" M 252.38 217.87 C 255.87 220.60 258.39 224.34 261.45 227.53 C 263.33 229.88 265.92 231.77 267.04 234.65 C 258.01 234.57 248.98 234.59 239.96 234.64 C 243.43 228.60 248.45 223.61 252.38 217.87 Z" />
<path fill="#475038" opacity="1.00" d=" M 239.80 262.85 C 243.75 256.99 248.33 251.59 252.67 246.03 C 256.49 250.90 260.05 255.97 263.91 260.82 C 255.93 261.97 247.84 262.16 239.80 262.85 Z" />
<path fill="#475038" opacity="1.00" d=" M 82.56 274.48 C 89.08 271.04 96.66 272.75 103.69 272.33 C 103.62 279.55 103.89 286.79 103.57 294.00 C 103.27 296.71 100.12 296.94 98.00 296.94 C 93.44 296.76 89.78 300.23 87.81 304.03 C 84.14 311.04 83.41 319.11 82.88 326.87 C 80.24 324.17 79.19 320.42 78.21 316.88 C 75.86 307.13 75.45 297.02 75.45 287.03 C 75.35 281.97 77.91 276.75 82.56 274.48 Z" />
<path fill="#475038" opacity="1.00" d=" M 266.46 288.04 C 274.10 285.39 281.80 282.69 289.89 281.84 L 290.12 283.82 C 290.54 283.32 291.37 282.32 291.79 281.82 C 301.67 281.79 311.54 281.78 321.42 281.82 C 322.28 284.61 322.84 288.43 326.05 289.45 C 329.08 288.32 329.22 284.48 330.08 281.83 C 356.44 281.76 382.80 281.81 409.15 281.81 C 409.20 291.29 409.08 300.77 409.21 310.26 C 406.96 309.11 404.60 307.99 402.01 308.19 C 385.67 308.20 369.32 308.20 352.98 308.20 C 344.62 307.91 336.31 308.70 328.06 309.98 C 297.28 310.12 266.48 310.13 235.69 309.97 C 247.13 304.54 257.85 297.39 266.46 288.04 Z" />
<path fill="#475038" opacity="1.00" d=" M 101.93 316.93 C 101.73 310.02 101.77 302.03 107.00 296.79 C 112.03 296.77 117.05 296.78 122.08 296.79 C 124.46 296.45 124.49 299.36 124.44 300.96 C 124.17 307.11 124.35 313.27 124.28 319.42 C 121.61 319.45 118.45 319.35 116.77 321.85 C 111.67 328.67 109.80 337.24 107.57 345.31 C 104.18 336.27 102.57 326.55 101.93 316.93 Z" />
<path fill="#475038" opacity="1.00" d=" M 218.21 334.55 C 221.55 327.16 225.54 319.99 230.86 313.84 C 259.26 313.98 287.66 313.70 316.05 313.98 C 306.92 318.43 299.14 325.56 294.23 334.47 C 268.90 334.73 243.55 334.59 218.21 334.55 Z" />
<path fill="#475038" opacity="1.00" d=" M 311.61 321.64 C 319.60 316.19 329.39 313.93 338.97 313.89 C 352.30 313.83 365.63 313.89 378.97 313.86 C 387.21 313.82 395.88 316.15 402.00 321.91 C 406.92 326.54 409.20 333.38 409.14 340.04 C 409.18 356.04 409.13 372.04 409.16 388.04 C 409.10 395.64 406.52 403.68 400.54 408.69 C 396.00 412.56 389.89 413.90 384.06 413.86 C 366.36 413.88 348.66 413.86 330.97 413.87 C 327.41 413.98 323.45 412.58 321.67 409.32 C 320.11 406.47 320.63 403.12 320.61 400.02 C 320.86 386.96 321.57 373.34 327.44 361.41 C 330.77 354.43 336.83 348.75 344.20 346.25 C 353.14 343.05 362.76 344.33 372.05 344.06 C 377.40 343.88 383.41 346.31 385.48 351.59 C 387.43 357.53 386.15 363.92 386.54 370.05 C 386.98 377.28 385.17 385.49 378.92 389.89 C 373.15 394.05 365.67 393.03 358.99 393.12 C 355.28 393.36 351.08 390.93 350.84 386.93 C 350.65 382.56 350.00 377.60 352.74 373.84 C 354.96 370.61 359.34 370.09 362.94 370.62 C 366.14 371.17 366.51 375.39 364.73 377.55 C 363.23 379.36 364.02 381.80 364.18 383.92 C 367.28 383.18 370.82 381.52 371.25 377.96 C 371.59 374.24 372.04 369.77 369.23 366.85 C 366.87 364.28 363.10 364.89 359.99 364.77 C 355.54 364.73 350.29 364.36 347.06 368.07 C 343.77 372.31 345.46 378.08 345.05 383.02 C 345.39 387.56 343.82 393.00 347.22 396.72 C 350.31 399.86 355.12 398.51 359.04 398.80 C 367.70 398.42 377.39 400.42 384.98 395.08 C 390.28 391.62 392.43 385.04 392.19 378.96 C 392.19 369.66 392.18 360.37 392.19 351.08 C 392.28 347.10 391.01 342.73 387.63 340.33 C 385.16 338.52 381.97 338.35 379.02 338.39 C 365.69 338.45 352.35 338.33 339.01 338.44 C 333.43 338.40 328.16 341.42 324.91 345.88 C 320.07 352.45 318.06 360.59 316.71 368.51 C 314.03 385.38 315.10 402.52 314.89 419.52 C 309.20 413.30 303.68 406.95 297.95 400.77 C 293.47 405.98 289.40 411.52 284.92 416.72 C 284.41 395.03 284.02 372.74 290.79 351.84 C 294.52 340.05 301.15 328.64 311.61 321.64 M 305.30 353.76 C 302.21 358.70 299.10 363.63 296.05 368.59 C 301.68 368.63 307.30 368.60 312.92 368.61 C 310.45 363.63 308.24 358.48 305.30 353.76 M 299.60 380.09 C 296.70 385.11 293.39 389.89 290.53 394.94 C 296.73 395.05 302.93 395.04 309.14 394.94 C 305.99 389.97 303.17 384.77 299.60 380.09 Z" />
<path fill="#475038" opacity="1.00" d=" M 216.64 338.43 C 241.71 338.35 266.78 338.43 291.85 338.39 C 288.48 345.58 286.44 353.29 284.88 361.06 C 259.98 361.00 235.08 361.22 210.19 360.94 C 211.89 353.32 213.85 345.74 216.64 338.43 Z" />
<path fill="#475038" opacity="1.00" d=" M 209.12 366.79 C 234.02 366.66 258.92 366.78 283.81 366.72 C 282.92 373.04 282.43 379.40 281.90 385.76 C 256.70 387.44 231.49 389.10 206.28 390.70 C 206.92 382.69 207.77 374.70 209.12 366.79 Z" />
<path fill="#475038" opacity="1.00" d=" M 98.13 376.33 C 108.35 372.93 119.30 372.45 129.99 372.40 C 135.96 372.60 142.99 373.01 147.13 377.96 C 150.77 382.83 150.75 389.29 150.77 395.10 C 150.85 397.11 149.10 398.97 147.04 398.74 C 141.95 398.71 136.12 398.45 132.20 394.77 C 129.18 392.14 131.06 387.41 128.31 384.66 C 125.21 381.51 120.64 380.67 116.51 379.69 C 110.40 378.49 104.29 377.29 98.13 376.33 Z" />
<path fill="#475038" opacity="1.00" d=" M 206.09 396.32 C 231.24 394.88 256.36 393.05 281.49 391.46 C 281.15 398.92 280.99 406.40 280.92 413.87 C 255.81 413.88 230.70 413.82 205.59 413.90 C 205.40 408.04 205.62 402.16 206.09 396.32 Z" />
<path fill="#475038" opacity="1.00" d=" M 76.19 405.19 C 81.32 399.76 88.84 397.30 96.15 396.85 C 96.17 406.92 96.16 416.99 96.15 427.06 C 91.98 427.05 87.06 426.44 83.99 429.95 C 77.85 436.70 76.52 446.31 75.50 455.03 C 73.58 453.12 72.97 450.38 72.23 447.87 C 70.18 439.74 69.86 431.30 69.78 422.95 C 69.72 416.53 71.70 409.90 76.19 405.19 Z" />
<path fill="#475038" opacity="1.00" d=" M 94.98 437.03 C 102.82 432.42 112.21 432.65 121.01 432.73 C 122.73 432.25 123.16 434.14 123.75 435.26 C 127.03 442.63 130.57 449.87 133.79 457.27 C 116.82 457.26 99.85 457.28 82.88 457.25 C 83.44 449.11 87.74 441.08 94.98 437.03 Z" />
</g>
<g id="#ded02fff">
<path fill="#ded02f" opacity="1.00" d=" M 153.54 33.28 C 158.45 32.51 163.32 34.28 168.20 34.69 C 168.50 35.12 169.12 35.99 169.43 36.42 C 170.01 51.77 169.49 67.14 169.72 82.50 C 169.72 84.81 169.69 87.11 169.69 89.42 C 169.67 109.78 169.59 130.13 169.75 150.49 C 169.59 177.64 169.78 204.80 169.65 231.96 C 169.52 241.67 169.48 251.44 168.01 261.06 C 167.42 264.37 166.46 267.68 164.51 270.47 C 162.97 271.60 161.05 272.90 159.06 272.07 C 158.16 271.26 157.67 270.13 157.11 269.09 C 156.46 266.46 156.47 263.75 156.48 261.07 C 156.53 227.41 156.50 193.75 156.49 160.09 C 156.30 137.85 156.47 115.61 156.42 93.38 C 156.51 88.72 156.67 84.05 156.26 79.40 C 156.28 65.95 157.48 52.24 154.11 39.07 C 153.63 37.18 153.49 35.23 153.54 33.28 Z" />
<path fill="#ded02f" opacity="1.00" d=" M 180.94 38.44 C 185.95 38.54 191.06 38.11 195.97 39.33 C 197.35 39.56 198.24 40.69 199.06 41.71 C 199.43 44.67 199.67 47.64 199.76 50.62 C 199.67 58.20 198.71 65.72 198.51 73.30 C 198.36 75.65 198.19 78.01 198.12 80.37 C 197.84 97.04 197.65 113.71 197.64 130.39 C 196.82 168.58 196.50 206.79 196.01 245.00 C 195.89 250.32 195.56 255.65 194.75 260.92 C 194.32 263.32 193.76 265.70 192.87 267.97 C 191.98 269.47 191.04 270.94 190.11 272.42 C 187.58 272.51 185.34 271.51 184.20 269.20 C 183.06 266.64 182.90 263.81 182.86 261.06 C 182.94 221.22 182.86 181.38 182.90 141.54 C 182.85 122.92 182.91 104.31 182.85 85.69 C 182.85 83.44 182.88 81.20 182.88 78.95 C 182.83 71.62 182.91 64.30 182.87 56.98 C 182.91 50.74 181.39 44.64 180.94 38.44 Z" />
<path fill="#ded02f" opacity="1.00" d=" M 212.91 44.61 C 217.98 43.20 223.19 44.61 228.14 45.83 C 228.48 46.60 228.82 47.38 229.15 48.16 C 230.52 67.29 230.35 86.56 229.14 105.70 C 226.35 107.61 222.71 108.97 221.33 112.32 C 219.94 115.53 218.21 118.85 214.92 120.48 C 214.45 120.65 213.49 120.99 213.01 121.16 C 213.14 105.77 213.05 90.37 213.04 74.98 C 213.09 70.38 213.12 65.78 212.91 61.19 C 212.71 55.66 212.51 50.13 212.91 44.61 Z" />
<path fill="#ded02f" opacity="1.00" d=" M 244.57 51.27 C 249.11 51.65 253.72 51.72 258.13 53.02 C 258.27 53.43 258.54 54.24 258.68 54.64 C 260.08 65.35 259.83 76.19 260.13 86.96 C 259.97 92.74 260.89 98.64 259.33 104.30 C 256.71 106.12 253.76 107.38 250.64 108.03 C 249.43 108.05 248.22 108.08 247.02 108.11 C 246.99 106.81 246.98 105.52 246.96 104.23 C 246.56 86.58 247.56 68.76 244.57 51.27 Z" />
<path fill="#ded02f" opacity="1.00" d=" M 277.25 59.19 C 283.06 59.60 291.00 58.13 294.67 63.90 C 297.59 79.83 298.14 96.03 298.85 112.16 C 299.09 116.54 299.18 120.93 299.41 125.31 C 299.69 133.47 299.57 141.64 299.80 149.80 C 299.87 158.51 299.93 167.23 299.99 175.95 C 299.97 181.02 299.97 186.09 299.99 191.17 C 299.95 204.45 299.87 217.73 299.81 231.02 C 299.87 246.85 298.36 262.88 293.37 277.98 C 292.91 279.28 292.40 280.57 291.79 281.82 C 291.37 282.32 290.54 283.32 290.12 283.82 L 289.89 281.84 C 289.71 274.20 290.75 266.54 289.84 258.93 C 289.40 255.55 288.00 252.36 287.79 248.95 C 287.02 242.33 289.25 235.68 287.50 229.14 C 284.62 201.45 284.19 173.58 282.86 145.79 C 282.54 133.93 281.85 122.07 281.18 110.23 C 281.02 108.97 280.88 107.71 280.75 106.46 C 279.61 93.64 277.90 80.86 277.28 68.00 C 276.99 65.07 278.27 62.01 277.25 59.19 Z" />
<path fill="#ded02f" opacity="1.00" d=" M 315.29 70.44 C 319.51 70.18 323.85 69.87 327.91 71.33 C 330.68 72.22 334.38 73.85 334.05 77.35 C 333.05 81.83 333.49 86.42 333.29 90.97 C 333.07 97.48 332.92 104.00 332.90 110.52 C 332.88 116.42 332.96 122.32 333.19 128.22 C 333.65 136.81 334.54 145.46 332.84 153.98 C 331.41 161.82 331.83 169.80 332.68 177.68 C 332.99 182.27 333.40 186.86 333.54 191.46 C 333.86 204.29 333.67 217.12 333.57 229.96 C 333.23 245.99 332.97 262.08 330.79 277.99 C 330.58 279.28 330.34 280.55 330.08 281.83 C 329.22 284.48 329.08 288.32 326.05 289.45 C 322.84 288.43 322.28 284.61 321.42 281.82 C 321.15 280.55 320.92 279.27 320.72 278.00 C 319.15 267.06 319.04 255.99 318.79 244.97 C 318.66 227.01 318.67 209.06 318.41 191.11 C 318.33 186.16 318.37 181.21 318.29 176.26 C 318.14 167.91 318.06 159.56 317.86 151.21 C 317.45 142.89 317.45 134.55 317.40 126.22 C 317.34 120.11 317.18 114.00 317.05 107.89 C 316.89 100.92 316.76 93.95 316.67 86.97 C 316.74 81.41 314.69 76.02 315.29 70.44 Z" />
<path fill="#ded02f" opacity="1.00" d=" M 348.87 83.70 C 351.34 82.62 354.05 83.35 356.33 84.55 C 360.01 86.52 363.94 88.62 365.98 92.45 C 366.63 101.87 367.19 111.31 366.99 120.76 C 366.93 126.47 366.72 132.18 366.66 137.90 C 366.38 147.10 366.31 156.37 365.20 165.51 C 364.16 167.95 362.59 170.22 362.12 172.87 C 361.76 176.71 363.12 180.39 364.01 184.07 C 365.20 188.96 365.74 194.01 365.77 199.05 C 365.19 217.38 362.12 235.56 362.05 253.93 C 361.81 260.11 361.84 266.94 358.18 272.22 C 356.82 274.30 354.48 272.85 353.87 271.00 C 351.26 265.04 351.19 258.35 350.82 251.95 C 350.47 232.62 350.59 213.29 350.25 193.97 C 350.20 189.44 350.20 184.92 350.11 180.40 C 349.99 173.26 349.93 166.12 349.83 158.97 C 349.63 149.97 349.69 140.96 349.50 131.95 C 349.34 126.08 349.32 120.20 349.20 114.32 C 349.16 104.11 348.81 93.91 348.87 83.70 Z" />
<path fill="#ded02f" opacity="1.00" d=" M 383.74 103.06 C 385.34 102.48 387.04 102.52 388.40 103.66 C 392.53 106.10 395.82 109.71 398.17 113.87 C 400.52 122.24 399.70 131.03 399.25 139.58 C 398.78 145.62 398.32 151.66 398.08 157.71 C 397.54 169.96 399.21 182.15 399.47 194.38 C 399.69 197.85 399.99 201.32 400.10 204.81 C 400.23 211.64 400.29 218.47 400.11 225.30 C 399.87 239.44 397.85 253.65 393.12 267.00 C 392.06 269.51 391.21 272.39 388.96 274.11 C 386.51 273.87 387.14 270.59 386.68 268.82 C 386.27 249.22 385.81 229.63 385.04 210.05 C 384.65 202.65 384.82 195.24 384.35 187.86 C 384.18 184.24 384.02 180.62 383.90 177.00 C 383.66 166.70 383.25 156.40 382.88 146.10 C 382.69 140.07 382.48 134.04 382.03 128.02 C 381.78 121.30 380.97 114.60 380.96 107.89 C 380.72 105.76 382.25 104.27 383.74 103.06 Z" />
</g>
<g id="#d37b1aff">
<path fill="#d37b1a" opacity="1.00" d=" M 108.90 42.78 C 112.41 41.82 116.11 42.19 119.71 42.13 C 119.72 47.77 119.73 53.41 119.74 59.05 C 115.25 58.92 110.33 59.25 106.39 56.69 C 102.04 53.08 103.22 44.43 108.90 42.78 Z" />
<path fill="#d37b1a" opacity="1.00" d=" M 127.93 42.99 C 131.85 42.90 135.72 44.03 139.19 45.79 C 141.84 47.43 141.65 51.14 140.58 53.68 C 137.88 57.89 132.45 58.18 127.99 58.93 C 127.16 53.66 127.79 48.29 127.93 42.99 Z" />
</g>
</svg>
