<?xml version="1.0" encoding="UTF-8" ?>
<!DOCTYPE svg PUBLIC "-//W3C//DTD SVG 1.1//EN" "http://www.w3.org/Graphics/SVG/1.1/DTD/svg11.dtd">
<svg width="511pt" height="460pt" viewBox="0 0 511 460" version="1.1" xmlns="http://www.w3.org/2000/svg">
<g id="#a46a42ff">
<path fill="#a46a42" opacity="1.00" d=" M 239.19 0.00 L 239.65 0.00 C 239.89 7.04 240.63 14.04 241.05 21.07 C 241.09 21.83 241.16 23.36 241.20 24.13 C 238.97 23.00 236.75 21.90 234.50 20.84 C 233.05 20.14 231.61 19.44 230.16 18.74 C 231.22 16.55 232.26 14.37 233.36 12.20 C 235.51 8.23 237.29 4.09 239.19 0.00 Z" />
<path fill="#a46a42" opacity="1.00" d=" M 115.08 0.72 C 118.63 6.52 121.36 12.83 124.39 18.93 C 120.43 20.22 116.88 22.41 113.16 24.24 C 113.82 16.40 114.23 8.54 115.08 0.72 Z" />
<path fill="#a46a42" opacity="1.00" d=" M 114.52 31.63 C 118.41 28.62 122.21 25.45 126.41 22.87 C 130.64 56.60 136.84 90.05 143.08 123.45 C 147.02 146.26 152.08 168.88 156.21 191.66 C 149.02 185.42 142.96 177.97 135.66 171.87 C 134.56 182.44 133.20 192.98 132.01 203.54 C 124.48 201.31 117.17 198.33 109.56 196.36 C 112.45 203.29 116.00 209.94 118.64 216.97 C 110.52 218.04 102.43 219.29 94.36 220.67 C 98.66 227.67 102.92 234.70 107.32 241.65 C 107.86 242.72 108.81 243.73 108.85 245.00 C 108.26 246.04 106.91 246.35 105.96 247.00 C 98.90 250.77 91.75 254.38 84.88 258.48 C 91.86 263.86 98.69 269.47 105.37 275.22 C 77.16 274.38 48.89 274.71 20.76 277.14 C 18.69 232.78 18.23 187.27 31.50 144.40 C 37.78 124.11 47.32 104.84 59.67 87.56 C 74.89 66.19 93.94 47.80 114.52 31.63 M 111.54 81.33 C 114.24 89.17 115.95 97.40 115.28 105.73 C 119.42 104.15 124.52 102.61 126.29 98.08 C 123.92 90.82 118.16 84.95 111.54 81.33 M 98.24 113.26 C 100.55 118.74 103.13 124.21 103.84 130.18 C 107.16 129.76 110.84 128.71 112.61 125.60 C 113.70 123.96 112.17 122.13 111.22 120.82 C 107.84 117.01 103.06 114.69 98.24 113.26 M 77.73 132.03 C 81.15 137.77 84.56 143.78 84.97 150.62 C 88.80 148.57 93.11 145.58 94.06 141.09 C 90.72 135.41 83.80 133.33 77.73 132.03 M 130.11 135.89 C 128.37 141.33 127.56 147.44 129.94 152.82 C 133.45 153.18 138.94 153.68 140.90 150.38 C 136.90 145.86 133.42 140.93 130.11 135.89 M 103.84 153.71 C 103.96 160.93 105.57 168.12 108.27 174.81 C 108.76 175.94 109.35 177.86 111.03 177.08 C 116.29 176.39 122.57 173.55 123.95 168.05 C 121.41 166.51 118.09 166.23 115.56 164.44 C 110.68 162.02 107.36 157.68 103.84 153.71 M 53.00 156.88 C 56.03 163.22 58.98 169.88 63.95 174.97 C 68.46 171.43 71.53 165.90 73.52 160.50 C 66.44 161.26 59.59 159.21 53.00 156.88 M 86.88 182.88 C 90.18 189.42 93.05 196.25 94.23 203.53 C 99.49 201.00 105.26 196.39 105.40 190.12 C 100.88 184.82 93.54 183.23 86.88 182.88 M 58.51 196.35 C 60.78 202.93 63.15 209.77 67.97 214.96 C 72.25 211.12 75.40 205.74 75.40 199.86 C 69.58 199.83 63.97 198.22 58.51 196.35 M 68.33 235.44 C 73.77 239.36 80.02 242.18 84.85 246.94 C 87.47 242.36 88.58 237.08 88.60 231.84 C 81.69 231.99 74.96 233.63 68.33 235.44 M 37.92 252.62 C 44.51 252.80 50.95 254.67 56.63 258.02 C 56.52 253.08 56.56 248.14 56.58 243.21 C 49.67 244.52 42.96 247.65 37.92 252.62 Z" />
<path fill="#a46a42" opacity="1.00" d=" M 228.16 22.83 C 232.56 25.77 236.72 29.06 240.94 32.27 C 244.25 34.99 247.53 37.75 250.84 40.48 C 263.89 51.62 276.14 63.76 286.95 77.10 C 292.24 83.85 297.34 90.76 301.84 98.07 C 304.06 101.87 306.36 105.62 308.48 109.48 C 314.39 120.91 319.47 132.79 323.19 145.11 C 336.25 187.77 335.75 232.99 333.75 277.11 C 305.68 274.69 277.46 274.40 249.31 275.21 C 255.78 269.21 263.01 264.09 269.55 258.17 C 261.40 253.87 253.34 249.40 245.18 245.12 C 250.01 236.84 255.37 228.88 260.08 220.53 C 251.99 219.29 243.90 217.98 235.79 216.83 C 238.68 209.86 242.09 203.13 245.00 196.17 C 237.47 198.57 230.01 201.15 222.51 203.63 C 221.25 192.99 219.99 182.36 218.76 171.73 C 211.68 178.34 205.07 185.44 198.08 192.15 C 198.79 188.22 199.65 184.31 200.25 180.36 C 202.88 169.01 204.87 157.54 207.20 146.13 C 210.26 130.03 213.25 113.92 216.17 97.79 C 217.38 91.14 218.54 84.49 219.67 77.82 C 221.90 64.54 224.30 51.27 226.08 37.91 L 226.17 37.39 C 227.01 32.56 227.37 27.66 228.16 22.83 M 228.26 98.04 C 229.89 102.56 235.08 104.35 239.33 105.56 C 238.28 97.27 240.55 89.18 242.75 81.30 C 236.40 85.17 230.47 90.76 228.26 98.04 M 246.73 117.74 C 244.34 119.47 241.66 121.74 241.45 124.90 C 243.10 128.43 247.06 129.83 250.70 130.12 C 251.33 124.23 253.87 118.84 256.20 113.47 C 252.72 114.00 249.65 115.87 246.73 117.74 M 261.91 138.95 C 261.24 139.91 259.75 141.01 260.60 142.29 C 262.39 146.16 266.03 148.64 269.54 150.83 C 269.93 143.89 273.17 137.59 277.03 131.97 C 271.58 133.08 265.88 134.86 261.91 138.95 M 213.13 150.55 C 216.22 153.15 220.76 153.80 224.55 152.54 C 227.18 147.36 225.79 141.31 224.55 135.93 C 220.75 140.81 217.74 146.35 213.13 150.55 M 230.23 167.79 C 232.23 173.99 239.08 176.82 245.10 177.28 C 248.73 169.71 250.43 161.35 250.76 152.99 C 246.16 160.36 238.78 165.95 230.23 167.79 M 281.01 160.38 C 282.81 166.07 286.20 171.30 290.67 175.24 C 295.12 169.66 298.73 163.42 301.41 156.80 C 294.92 159.29 288.04 161.32 281.01 160.38 M 249.10 190.16 C 249.13 196.09 254.52 200.38 259.25 203.13 C 259.53 203.03 260.08 202.82 260.36 202.72 C 261.67 195.73 264.47 189.19 267.58 182.84 C 260.95 183.28 253.57 184.82 249.10 190.16 M 278.96 199.91 C 279.30 205.75 282.13 211.32 286.70 214.97 C 291.20 209.55 293.90 202.92 295.92 196.23 C 290.51 198.40 284.79 199.74 278.96 199.91 M 265.84 231.86 C 266.01 237.06 266.91 242.40 269.66 246.90 C 274.51 242.16 280.78 239.38 286.17 235.41 C 279.53 233.59 272.76 232.00 265.84 231.86 M 298.12 243.12 C 297.73 248.10 297.98 253.11 297.95 258.11 C 303.41 254.67 309.76 252.96 316.17 252.59 C 311.69 247.26 304.68 244.83 298.12 243.12 Z" />
<path fill="#a46a42" opacity="1.00" d=" M 259.30 32.63 C 264.57 31.29 269.80 29.75 275.07 28.39 C 272.25 33.42 269.07 38.24 265.95 43.09 C 263.65 40.65 261.22 38.32 258.50 36.35 C 257.45 35.55 256.40 34.76 255.36 33.96 C 256.66 33.50 257.97 33.06 259.30 32.63 Z" />
<path fill="#a46a42" opacity="1.00" d=" M 79.29 28.38 C 86.17 30.01 92.94 32.06 99.78 33.86 C 95.54 36.39 91.69 39.47 88.42 43.18 C 85.50 38.17 82.29 33.34 79.29 28.38 Z" />
<path fill="#a46a42" opacity="1.00" d=" M 56.64 50.94 C 63.46 52.03 70.23 53.42 77.04 54.57 C 72.88 58.53 68.84 62.66 65.92 67.66 C 62.77 62.13 59.68 56.54 56.64 50.94 Z" />
<path fill="#a46a42" opacity="1.00" d=" M 277.95 54.46 C 284.60 53.56 291.12 51.91 297.79 51.11 C 294.55 56.47 292.18 62.40 288.30 67.35 C 285.80 62.29 281.13 58.94 277.95 54.46 Z" />
<path fill="#a46a42" opacity="1.00" d=" M 319.10 79.30 L 319.98 79.43 C 319.56 80.55 319.13 81.67 318.70 82.79 C 315.37 88.29 312.67 94.15 309.17 99.55 C 307.28 95.33 304.84 91.36 301.93 87.77 C 300.71 86.23 299.48 84.71 298.26 83.18 C 298.81 82.99 299.91 82.60 300.46 82.41 C 303.33 81.94 306.22 81.64 309.09 81.16 C 312.45 80.67 315.76 79.87 319.10 79.30 Z" />
<path fill="#a46a42" opacity="1.00" d=" M 33.96 79.20 C 41.44 80.37 48.91 81.61 56.36 82.95 C 52.11 88.08 47.84 93.36 45.44 99.66 C 41.14 93.14 37.86 85.98 33.96 79.20 Z" />
<path fill="#a46a42" opacity="1.00" d=" M 17.02 111.27 C 24.53 112.42 32.01 113.76 39.51 114.95 C 37.16 120.22 34.71 125.44 32.53 130.78 C 32.24 130.82 31.66 130.89 31.37 130.93 C 26.49 124.45 21.81 117.82 17.02 111.27 Z" />
<path fill="#a46a42" opacity="1.00" d=" M 315.05 115.08 C 322.21 113.85 329.35 112.41 336.57 111.57 C 335.60 114.64 333.23 116.92 331.48 119.54 C 328.40 123.63 325.57 127.91 322.37 131.92 C 320.16 126.20 317.47 120.70 315.05 115.08 Z" />
<path fill="#a46a42" opacity="1.00" d=" M 7.80 145.19 C 14.00 145.83 20.20 146.37 26.39 147.03 C 24.10 153.14 22.15 159.38 20.78 165.76 C 16.34 158.98 11.81 152.23 7.80 145.19 Z" />
<path fill="#a46a42" opacity="1.00" d=" M 328.06 147.14 C 334.34 146.41 340.64 145.80 346.93 145.18 C 342.48 152.04 338.33 159.09 333.64 165.79 C 332.39 159.41 330.45 153.18 328.06 147.14 Z" />
<path fill="#a46a42" opacity="1.00" d=" M 1.95 182.84 C 6.98 180.42 11.89 177.78 16.95 175.44 C 15.91 180.97 15.27 186.56 15.05 192.18 C 10.63 189.14 6.27 186.02 1.95 182.84 Z" />
<path fill="#a46a42" opacity="1.00" d=" M 337.56 175.38 C 342.36 177.69 347.15 180.04 351.87 182.50 C 351.83 182.76 351.73 183.26 351.69 183.52 C 347.60 186.41 343.64 189.51 339.36 192.13 C 339.29 186.50 338.51 180.92 337.56 175.38 Z" />
<path fill="#a46a42" opacity="1.00" d=" M 0.16 212.95 C 5.12 210.45 10.12 208.05 15.07 205.53 C 15.07 211.76 15.14 218.00 15.03 224.23 C 10.06 220.49 4.95 216.93 0.16 212.95 Z" />
<path fill="#a46a42" opacity="1.00" d=" M 339.35 205.90 C 344.36 207.42 348.81 210.35 353.55 212.54 C 353.64 212.78 353.81 213.27 353.90 213.51 C 349.03 217.01 344.45 220.92 339.37 224.12 C 339.43 218.04 339.47 211.97 339.35 205.90 Z" />
<path fill="#a46a42" opacity="1.00" d=" M 339.40 231.94 C 343.21 234.31 346.85 236.95 350.68 239.30 C 347.08 242.66 343.18 245.68 339.39 248.81 C 339.44 243.19 339.42 237.57 339.40 231.94 Z" />
<path fill="#a46a42" opacity="1.00" d=" M 3.85 239.32 C 7.70 237.09 11.14 234.20 15.10 232.17 C 15.06 237.71 15.11 243.25 15.06 248.79 C 11.32 245.64 7.44 242.64 3.85 239.32 Z" />
<path fill="#a46a42" opacity="1.00" d=" M 339.44 262.09 C 343.62 265.79 348.11 269.16 352.06 273.11 C 347.46 274.49 342.39 274.48 337.60 275.23 C 338.75 270.94 339.27 266.52 339.44 262.09 Z" />
<path fill="#a46a42" opacity="1.00" d=" M 2.00 273.40 C 6.24 269.55 10.61 265.83 15.04 262.21 C 15.27 266.58 15.71 270.96 16.88 275.20 C 11.92 274.60 6.97 273.94 2.00 273.40 Z" />
</g>
<g id="#48598fff">
<path fill="#48598f" opacity="1.00" d=" M 259.38 20.69 C 262.08 15.02 264.92 9.42 267.78 3.82 C 271.09 9.37 274.52 14.84 277.65 20.49 C 271.56 20.89 265.47 20.76 259.38 20.69 Z" />
<path fill="#48598f" opacity="1.00" d=" M 296.81 20.73 C 299.06 15.09 301.29 9.44 303.60 3.82 C 305.85 9.45 308.13 15.06 310.33 20.71 C 305.82 20.77 301.32 20.79 296.81 20.73 Z" />
<path fill="#48598f" opacity="1.00" d=" M 332.81 20.74 C 335.70 15.13 338.31 9.37 341.42 3.87 C 344.67 9.53 348.13 15.07 351.43 20.71 C 345.22 20.81 339.01 20.81 332.81 20.74 Z" />
<path fill="#48598f" opacity="1.00" d=" M 365.34 20.44 C 368.53 14.85 371.87 9.35 375.24 3.86 C 377.38 9.65 379.51 15.45 381.56 21.28 C 376.16 20.94 370.72 21.10 365.34 20.44 Z" />
<path fill="#48598f" opacity="1.00" d=" M 188.44 5.83 C 192.79 11.90 196.58 18.35 200.59 24.64 C 194.29 25.79 188.03 27.27 181.90 29.14 C 183.99 21.34 186.38 13.63 188.44 5.83 Z" />
<path fill="#48598f" opacity="1.00" d=" M 228.13 5.73 C 229.93 7.84 231.67 10.00 233.36 12.20 C 232.26 14.37 231.22 16.55 230.16 18.74 C 231.61 19.44 233.05 20.14 234.50 20.84 C 230.19 21.92 225.73 21.78 221.33 22.12 C 223.55 16.63 225.87 11.19 228.13 5.73 Z" />
<path fill="#48598f" opacity="1.00" d=" M 397.74 22.78 C 402.81 17.76 407.76 12.61 412.94 7.69 C 413.48 13.70 413.96 19.70 414.45 25.71 C 408.91 24.57 403.34 23.55 397.74 22.78 Z" />
<path fill="#48598f" opacity="1.00" d=" M 427.67 29.30 C 433.41 24.54 439.24 19.89 444.95 15.08 C 444.51 22.09 443.89 29.09 443.39 36.09 C 438.31 33.47 433.11 31.05 427.67 29.30 Z" />
<path fill="#48598f" opacity="1.00" d=" M 279.14 24.92 C 283.40 25.49 287.30 27.43 291.39 28.63 C 294.61 29.88 298.25 30.33 301.05 32.50 C 294.27 35.09 287.95 38.81 281.06 41.12 C 280.09 35.76 279.71 30.33 279.14 24.92 Z" />
<path fill="#48598f" opacity="1.00" d=" M 241.37 26.95 C 247.60 27.85 253.46 30.37 259.30 32.63 C 257.97 33.06 256.66 33.50 255.36 33.96 C 256.40 34.76 257.45 35.55 258.50 36.35 C 256.08 37.97 253.51 39.35 250.84 40.48 C 247.53 37.75 244.25 34.99 240.94 32.27 C 241.08 30.49 241.23 28.72 241.37 26.95 Z" />
<path fill="#48598f" opacity="1.00" d=" M 316.94 26.86 C 321.43 27.18 325.62 28.95 329.96 29.96 C 332.32 30.65 334.90 30.88 336.96 32.35 C 330.27 35.25 323.78 38.59 316.95 41.16 C 316.69 36.40 316.65 31.62 316.94 26.86 Z" />
<path fill="#48598f" opacity="1.00" d=" M 354.78 26.81 C 360.80 27.94 366.62 29.97 372.41 31.92 C 370.35 33.64 367.71 34.27 365.28 35.26 C 361.85 36.63 358.50 38.30 354.87 39.07 C 354.50 34.99 354.56 30.89 354.78 26.81 Z" />
<path fill="#48598f" opacity="1.00" d=" M 392.26 26.87 C 399.82 28.91 406.75 32.74 414.09 35.44 C 411.80 37.40 408.67 37.75 405.95 38.82 C 401.36 40.19 396.98 42.34 392.20 42.99 C 392.24 37.62 392.10 32.25 392.26 26.87 Z" />
<path fill="#48598f" opacity="1.00" d=" M 207.32 45.04 C 207.43 40.16 207.06 35.26 207.66 30.39 C 213.93 32.46 219.95 35.19 226.17 37.39 L 226.08 37.91 C 219.80 40.22 213.75 43.17 207.32 45.04 Z" />
<path fill="#48598f" opacity="1.00" d=" M 452.88 42.05 C 459.03 39.97 465.20 37.93 471.37 35.88 C 469.85 42.45 468.43 49.05 466.75 55.58 C 462.60 50.62 458.04 45.95 452.88 42.05 Z" />
<path fill="#48598f" opacity="1.00" d=" M 430.04 40.00 C 430.64 39.29 431.49 37.38 432.62 38.51 C 435.67 41.04 438.22 44.12 441.11 46.83 C 443.48 49.36 446.42 51.46 448.09 54.58 C 439.65 53.26 431.15 52.41 422.76 50.83 C 424.70 46.91 427.72 43.68 430.04 40.00 Z" />
<path fill="#48598f" opacity="1.00" d=" M 173.22 43.81 C 175.51 46.00 176.73 48.99 178.42 51.61 C 180.38 55.07 182.89 58.27 184.18 62.08 C 177.51 62.23 170.81 62.40 164.15 61.96 C 167.08 55.87 170.20 49.86 173.22 43.81 Z" />
<path fill="#48598f" opacity="1.00" d=" M 445.53 71.75 C 452.11 69.47 458.92 67.85 465.67 66.15 C 465.22 74.79 464.52 83.42 463.83 92.05 C 459.69 88.53 456.63 84.00 452.80 80.19 C 450.16 77.56 447.64 74.82 445.53 71.75 Z" />
<path fill="#48598f" opacity="1.00" d=" M 473.83 66.58 C 479.37 69.39 484.85 72.32 490.19 75.50 C 486.47 77.35 482.75 79.20 479.03 81.05 C 477.61 76.12 475.47 71.43 473.83 66.58 Z" />
<path fill="#48598f" opacity="1.00" d=" M 162.21 95.87 C 165.72 89.35 167.90 82.17 171.75 75.84 C 174.89 81.84 177.92 87.89 180.86 93.98 C 174.73 95.24 168.44 95.61 162.21 95.87 Z" />
<path fill="#48598f" opacity="1.00" d=" M 482.87 98.08 C 487.81 100.53 492.68 103.15 497.75 105.36 C 493.87 109.34 489.56 112.87 485.38 116.52 C 484.54 110.37 483.80 104.21 482.87 98.08 Z" />
<path fill="#48598f" opacity="1.00" d=" M 456.93 107.91 C 461.66 107.77 466.31 108.77 471.00 109.21 C 471.18 115.24 470.03 121.21 469.67 127.22 C 468.71 126.50 467.81 125.70 467.25 124.64 C 463.82 119.05 459.98 113.72 456.93 107.91 Z" />
<path fill="#48598f" opacity="1.00" d=" M 171.38 111.83 C 173.56 113.72 174.70 116.44 176.17 118.86 C 178.34 122.52 180.60 126.13 182.76 129.80 C 175.98 131.06 169.05 131.36 162.17 131.88 C 165.37 125.25 168.11 118.42 171.38 111.83 Z" />
<path fill="#48598f" opacity="1.00" d=" M 487.17 135.60 C 493.88 138.03 500.49 140.73 507.19 143.19 C 501.39 148.25 495.32 152.98 489.37 157.86 C 488.67 150.44 487.98 143.01 487.17 135.60 Z" />
<path fill="#48598f" opacity="1.00" d=" M 409.13 143.81 C 414.45 144.97 418.90 148.46 423.91 150.51 C 419.46 154.23 414.36 157.23 409.21 159.87 C 409.08 154.52 409.19 149.16 409.13 143.81 Z" />
<path fill="#48598f" opacity="1.00" d=" M 381.14 145.21 C 385.89 147.47 390.58 149.87 395.27 152.26 C 391.20 155.84 385.76 157.43 381.01 159.95 C 380.82 155.04 380.80 150.11 381.14 145.21 Z" />
<path fill="#48598f" opacity="1.00" d=" M 162.19 167.79 C 165.47 161.17 167.78 153.94 171.82 147.77 C 174.92 153.70 177.95 159.68 180.81 165.73 C 174.66 166.85 168.40 167.09 162.19 167.79 Z" />
<path fill="#48598f" opacity="1.00" d=" M 437.40 161.95 C 437.37 157.11 437.11 152.26 437.60 147.43 C 442.71 149.09 447.33 151.92 452.13 154.30 C 447.73 157.65 442.41 159.67 437.40 161.95 Z" />
<path fill="#48598f" opacity="1.00" d=" M 362.35 179.32 C 364.10 176.18 365.64 172.91 367.79 170.01 C 370.29 174.84 373.00 179.59 374.95 184.68 C 369.66 185.67 364.27 185.88 358.95 186.63 C 359.46 183.94 361.06 181.68 362.35 179.32 Z" />
<path fill="#48598f" opacity="1.00" d=" M 445.19 175.28 C 450.09 174.98 454.92 173.62 459.85 173.97 C 458.24 178.69 456.27 183.29 454.69 188.03 C 450.89 184.31 448.17 179.65 445.19 175.28 Z" />
<path fill="#48598f" opacity="1.00" d=" M 490.07 177.53 C 495.20 180.39 500.10 183.63 505.27 186.44 C 500.50 189.85 495.30 192.59 490.30 195.63 C 490.14 189.60 490.19 183.56 490.07 177.53 Z" />
<path fill="#48598f" opacity="1.00" d=" M 171.38 185.13 C 174.68 191.21 178.28 197.20 180.85 203.63 C 174.74 203.50 168.58 204.09 162.50 203.34 C 165.19 197.14 168.50 191.24 171.38 185.13 Z" />
<path fill="#48598f" opacity="1.00" d=" M 430.16 205.51 C 434.32 202.90 438.59 200.47 442.92 198.16 C 444.04 202.33 444.45 206.65 444.81 210.94 C 439.87 209.28 435.01 207.41 430.16 205.51 Z" />
<path fill="#48598f" opacity="1.00" d=" M 400.08 209.45 C 403.45 207.16 407.12 205.33 410.92 203.87 C 411.26 207.52 411.13 211.18 410.81 214.82 C 407.24 213.01 403.64 211.27 400.08 209.45 Z" />
<path fill="#48598f" opacity="1.00" d=" M 367.48 210.02 C 369.72 212.07 371.21 214.73 372.72 217.33 C 374.06 219.69 375.92 221.79 376.74 224.41 C 371.90 224.99 367.09 225.91 362.20 225.96 C 363.83 220.61 365.72 215.33 367.48 210.02 Z" />
<path fill="#48598f" opacity="1.00" d=" M 491.52 214.63 C 498.06 216.45 504.50 218.61 511.00 220.54 L 511.00 220.54 C 505.23 225.35 499.43 230.12 493.54 234.78 C 492.81 228.07 492.09 221.36 491.52 214.63 Z" />
<path fill="#48598f" opacity="1.00" d=" M 171.53 219.06 C 174.74 225.61 178.19 232.17 180.40 239.13 C 175.19 239.51 169.95 239.46 164.73 239.15 C 166.05 232.20 169.20 225.72 171.53 219.06 Z" />
<path fill="#48598f" opacity="1.00" d=" M 373.84 250.32 C 378.92 247.15 383.02 242.34 388.63 240.12 C 388.92 246.07 389.97 251.98 390.01 257.95 C 385.64 256.51 381.63 254.22 377.36 252.53 C 376.05 252.02 374.85 251.29 373.84 250.32 Z" />
<path fill="#48598f" opacity="1.00" d=" M 408.33 246.46 C 412.86 244.19 417.29 241.64 422.04 239.84 C 422.56 244.58 422.41 249.37 422.09 254.12 C 417.35 252.27 412.84 249.89 408.34 247.54 C 408.34 247.27 408.33 246.73 408.33 246.46 Z" />
<path fill="#48598f" opacity="1.00" d=" M 454.21 322.04 C 461.65 316.53 468.02 309.72 475.05 303.70 C 481.65 309.55 487.40 316.31 494.04 322.14 C 494.07 327.82 494.07 333.51 494.04 339.20 C 488.31 333.88 482.95 328.18 477.39 322.67 C 476.55 322.10 475.48 320.37 474.38 321.39 C 467.87 326.12 461.96 331.64 455.55 336.50 C 454.47 337.60 453.22 336.33 452.34 335.70 C 448.56 332.51 444.80 329.30 441.13 326.00 C 441.03 319.90 441.01 313.80 441.16 307.70 C 445.97 312.06 449.76 317.35 454.21 322.04 Z" />
<path fill="#48598f" opacity="1.00" d=" M 454.40 363.77 C 460.44 358.49 465.50 352.18 471.68 347.06 C 479.14 353.14 486.25 359.67 494.03 365.34 C 494.04 372.93 494.15 380.53 493.98 388.12 C 486.40 382.27 479.21 375.92 471.86 369.78 C 465.39 375.18 460.59 382.23 454.57 388.09 C 448.20 383.48 442.04 378.47 436.32 373.06 C 438.60 366.47 440.28 359.67 441.15 352.75 C 445.83 356.10 449.99 360.09 454.40 363.77 Z" />
<path fill="#48598f" opacity="1.00" d=" M 402.70 414.13 C 414.01 410.92 423.98 404.27 433.81 398.00 C 438.04 406.02 442.58 413.89 446.54 422.06 C 450.92 419.42 454.01 415.22 457.99 412.08 C 462.74 408.24 466.50 403.22 471.75 400.02 C 475.91 406.88 480.28 413.62 484.59 420.39 C 476.76 433.60 465.27 445.07 450.68 450.50 C 427.13 459.39 401.51 459.08 376.72 460.00 L 216.28 460.00 C 186.16 459.47 155.96 459.70 125.94 456.88 C 120.23 455.97 113.91 456.06 109.03 452.56 C 138.13 448.22 167.54 446.32 196.92 445.31 C 213.27 444.75 229.64 445.15 245.99 444.32 C 290.32 442.01 334.68 435.98 377.38 423.57 C 385.98 420.93 394.70 418.37 402.70 414.13 Z" />
</g>
<g id="#574269ff">
<path fill="#574269" opacity="1.00" d=" M 277.65 20.49 C 284.02 21.02 290.42 20.61 296.81 20.73 C 301.32 20.79 305.82 20.77 310.33 20.71 C 317.82 20.75 325.32 20.72 332.81 20.74 C 339.01 20.81 345.22 20.81 351.43 20.71 C 356.06 20.55 360.73 21.14 365.34 20.44 C 370.72 21.10 376.16 20.94 381.56 21.28 C 386.96 21.68 392.36 22.17 397.74 22.78 C 403.34 23.55 408.91 24.57 414.45 25.71 C 418.90 26.72 423.30 27.96 427.67 29.30 C 433.11 31.05 438.31 33.47 443.39 36.09 C 446.69 37.85 449.85 39.86 452.88 42.05 C 458.04 45.95 462.60 50.62 466.75 55.58 C 469.24 59.15 471.23 63.06 473.83 66.58 C 475.47 71.43 477.61 76.12 479.03 81.05 C 480.64 86.64 481.91 92.33 482.87 98.08 C 483.80 104.21 484.54 110.37 485.38 116.52 C 485.80 122.89 486.48 129.25 487.17 135.60 C 487.98 143.01 488.67 150.44 489.37 157.86 C 489.43 164.42 489.86 170.97 490.07 177.53 C 490.19 183.56 490.14 189.60 490.30 195.63 C 490.29 201.99 490.66 208.34 491.52 214.63 C 492.09 221.36 492.81 228.07 493.54 234.78 C 494.32 246.50 493.94 258.26 494.03 270.01 C 494.04 287.38 494.02 304.76 494.04 322.14 C 487.40 316.31 481.65 309.55 475.05 303.70 C 468.02 309.72 461.65 316.53 454.21 322.04 C 449.76 317.35 445.97 312.06 441.16 307.70 C 441.34 279.91 441.17 252.12 441.25 224.32 C 448.06 224.18 455.47 225.25 461.65 221.68 C 468.19 218.00 471.27 210.23 471.39 203.00 C 471.42 188.33 471.41 173.65 471.39 158.98 C 471.41 153.21 470.15 147.16 466.37 142.62 C 461.65 136.84 454.05 134.17 446.77 133.88 C 447.12 120.21 447.65 105.63 440.88 93.24 C 434.45 81.04 420.80 73.14 407.02 73.60 C 388.29 73.79 369.55 73.38 350.83 73.81 C 350.55 85.54 350.73 97.28 350.78 109.01 C 346.96 109.56 343.09 109.49 339.29 108.92 C 339.38 97.20 339.44 85.49 339.24 73.78 C 336.18 73.59 333.12 73.58 330.07 73.77 C 329.83 85.58 330.16 97.40 329.87 109.21 C 326.19 109.39 322.50 109.39 318.83 109.20 C 318.51 100.40 318.68 91.59 318.70 82.79 C 319.13 81.67 319.56 80.55 319.98 79.43 L 319.10 79.30 C 318.87 77.34 318.71 75.38 318.56 73.41 C 315.49 73.40 312.43 73.38 309.37 73.36 C 309.27 75.96 309.17 78.56 309.09 81.16 C 306.22 81.64 303.33 81.94 300.46 82.41 C 297.34 78.10 291.95 77.10 286.95 77.10 C 276.14 63.76 263.89 51.62 250.84 40.48 C 253.51 39.35 256.08 37.97 258.50 36.35 C 261.22 38.32 263.65 40.65 265.95 43.09 C 269.07 38.24 272.25 33.42 275.07 28.39 C 269.80 29.75 264.57 31.29 259.30 32.63 C 253.46 30.37 247.60 27.85 241.37 26.95 C 241.23 28.72 241.08 30.49 240.94 32.27 C 236.72 29.06 232.56 25.77 228.16 22.83 C 227.37 27.66 227.01 32.56 226.17 37.39 C 219.95 35.19 213.93 32.46 207.66 30.39 C 207.06 35.26 207.43 40.16 207.32 45.04 C 213.75 43.17 219.80 40.22 226.08 37.91 C 224.30 51.27 221.90 64.54 219.67 77.82 C 213.07 79.45 206.73 83.36 203.67 89.63 C 199.74 96.42 199.63 104.46 199.86 112.08 C 199.87 132.72 199.96 153.35 199.82 173.99 C 199.85 176.12 200.08 178.23 200.25 180.36 C 199.65 184.31 198.79 188.22 198.08 192.15 C 194.93 214.17 192.10 236.22 189.08 258.26 C 181.19 258.27 173.30 258.28 165.42 258.25 C 162.28 236.06 159.68 213.79 156.21 191.66 C 152.08 168.88 147.02 146.26 143.08 123.45 C 143.58 113.32 143.18 103.18 143.31 93.04 C 143.47 83.34 142.59 73.44 145.12 63.95 C 147.13 55.84 151.49 48.32 157.65 42.66 C 164.48 36.24 173.14 32.22 181.90 29.14 C 188.03 27.27 194.29 25.79 200.59 24.64 C 207.48 23.59 214.39 22.69 221.33 22.12 C 225.73 21.78 230.19 21.92 234.50 20.84 C 236.75 21.90 238.97 23.00 241.20 24.13 C 241.16 23.36 241.09 21.83 241.05 21.07 C 247.16 20.83 253.27 20.83 259.38 20.69 C 265.47 20.76 271.56 20.89 277.65 20.49 M 279.14 24.92 C 279.71 30.33 280.09 35.76 281.06 41.12 C 287.95 38.81 294.27 35.09 301.05 32.50 C 298.25 30.33 294.61 29.88 291.39 28.63 C 287.30 27.43 283.40 25.49 279.14 24.92 M 316.94 26.86 C 316.65 31.62 316.69 36.40 316.95 41.16 C 323.78 38.59 330.27 35.25 336.96 32.35 C 334.90 30.88 332.32 30.65 329.96 29.96 C 325.62 28.95 321.43 27.18 316.94 26.86 M 354.78 26.81 C 354.56 30.89 354.50 34.99 354.87 39.07 C 358.50 38.30 361.85 36.63 365.28 35.26 C 367.71 34.27 370.35 33.64 372.41 31.92 C 366.62 29.97 360.80 27.94 354.78 26.81 M 392.26 26.87 C 392.10 32.25 392.24 37.62 392.20 42.99 C 396.98 42.34 401.36 40.19 405.95 38.82 C 408.67 37.75 411.80 37.40 414.09 35.44 C 406.75 32.74 399.82 28.91 392.26 26.87 M 430.04 40.00 C 427.72 43.68 424.70 46.91 422.76 50.83 C 431.15 52.41 439.65 53.26 448.09 54.58 C 446.42 51.46 443.48 49.36 441.11 46.83 C 438.22 44.12 435.67 41.04 432.62 38.51 C 431.49 37.38 430.64 39.29 430.04 40.00 M 173.22 43.81 C 170.20 49.86 167.08 55.87 164.15 61.96 C 170.81 62.40 177.51 62.23 184.18 62.08 C 182.89 58.27 180.38 55.07 178.42 51.61 C 176.73 48.99 175.51 46.00 173.22 43.81 M 277.95 54.46 C 281.13 58.94 285.80 62.29 288.30 67.35 C 292.18 62.40 294.55 56.47 297.79 51.11 C 291.12 51.91 284.60 53.56 277.95 54.46 M 445.53 71.75 C 447.64 74.82 450.16 77.56 452.80 80.19 C 456.63 84.00 459.69 88.53 463.83 92.05 C 464.52 83.42 465.22 74.79 465.67 66.15 C 458.92 67.85 452.11 69.47 445.53 71.75 M 162.21 95.87 C 168.44 95.61 174.73 95.24 180.86 93.98 C 177.92 87.89 174.89 81.84 171.75 75.84 C 167.90 82.17 165.72 89.35 162.21 95.87 M 456.93 107.91 C 459.98 113.72 463.82 119.05 467.25 124.64 C 467.81 125.70 468.71 126.50 469.67 127.22 C 470.03 121.21 471.18 115.24 471.00 109.21 C 466.31 108.77 461.66 107.77 456.93 107.91 M 171.38 111.83 C 168.11 118.42 165.37 125.25 162.17 131.88 C 169.05 131.36 175.98 131.06 182.76 129.80 C 180.60 126.13 178.34 122.52 176.17 118.86 C 174.70 116.44 173.56 113.72 171.38 111.83 M 162.19 167.79 C 168.40 167.09 174.66 166.85 180.81 165.73 C 177.95 159.68 174.92 153.70 171.82 147.77 C 167.78 153.94 165.47 161.17 162.19 167.79 M 171.38 185.13 C 168.50 191.24 165.19 197.14 162.50 203.34 C 168.58 204.09 174.74 203.50 180.85 203.63 C 178.28 197.20 174.68 191.21 171.38 185.13 M 171.53 219.06 C 169.20 225.72 166.05 232.20 164.73 239.15 C 169.95 239.46 175.19 239.51 180.40 239.13 C 178.19 232.17 174.74 225.61 171.53 219.06 Z" />
<path fill="#574269" opacity="1.00" d=" M 301.93 87.77 C 304.84 91.36 307.28 95.33 309.17 99.55 C 309.41 102.87 309.52 106.27 308.48 109.48 C 306.36 105.62 304.06 101.87 301.84 98.07 C 301.57 94.64 301.72 91.20 301.93 87.77 Z" />
<path fill="#574269" opacity="1.00" d=" M 362.94 144.81 C 367.34 141.00 373.27 139.53 378.98 139.54 C 399.99 139.51 421.00 139.56 442.01 139.52 C 448.61 139.51 455.64 141.88 459.83 147.22 C 462.92 151.09 463.89 156.18 463.85 161.03 C 463.87 175.34 463.85 189.65 463.87 203.96 C 463.94 208.16 462.75 212.68 459.56 215.60 C 457.02 217.97 453.43 218.73 450.06 218.67 C 431.69 218.67 413.32 218.66 394.96 218.67 C 391.66 218.74 388.11 217.55 386.18 214.75 C 384.58 212.51 384.67 209.62 384.64 207.00 C 384.69 199.32 384.64 191.64 384.66 183.96 C 384.60 180.01 385.96 175.67 389.38 173.37 C 391.88 171.62 395.05 171.54 397.98 171.52 C 408.33 171.56 418.67 171.50 429.01 171.55 C 430.88 171.44 433.29 172.22 433.54 174.37 C 433.78 178.09 433.86 181.87 433.50 185.58 C 431.88 189.64 426.86 190.19 423.05 190.37 C 415.30 190.48 407.58 191.21 399.89 192.19 C 399.70 194.75 399.69 197.31 399.78 199.87 C 407.54 199.84 415.30 199.90 423.05 199.86 C 428.90 199.82 435.38 198.05 438.87 193.02 C 441.95 188.64 441.12 183.03 441.26 177.99 C 441.37 174.12 440.77 169.86 437.91 166.99 C 435.63 164.58 432.17 163.95 428.99 164.00 C 417.32 163.99 405.65 164.01 393.98 163.99 C 389.00 163.90 383.60 165.36 380.29 169.30 C 377.77 172.23 377.06 176.24 377.12 180.00 C 377.13 190.67 377.11 201.35 377.13 212.02 C 377.03 215.89 378.69 219.95 381.98 222.13 C 384.60 223.93 387.86 224.32 390.97 224.34 C 405.84 224.34 420.71 224.31 435.58 224.35 C 435.55 239.98 435.60 255.61 435.55 271.24 C 432.33 268.46 429.82 264.40 426.15 262.44 C 423.30 265.06 421.10 268.30 418.82 271.40 C 405.54 271.56 392.26 271.41 378.98 271.48 C 371.54 271.58 363.53 269.06 358.84 262.98 C 355.47 258.75 354.45 253.20 354.50 247.92 C 354.49 220.27 354.50 192.62 354.49 164.97 C 354.61 157.55 357.17 149.75 362.94 144.81 M 409.13 143.81 C 409.19 149.16 409.08 154.52 409.21 159.87 C 414.36 157.23 419.46 154.23 423.91 150.51 C 418.90 148.46 414.45 144.97 409.13 143.81 M 381.14 145.21 C 380.80 150.11 380.82 155.04 381.01 159.95 C 385.76 157.43 391.20 155.84 395.27 152.26 C 390.58 149.87 385.89 147.47 381.14 145.21 M 437.40 161.95 C 442.41 159.67 447.73 157.65 452.13 154.30 C 447.33 151.92 442.71 149.09 437.60 147.43 C 437.11 152.26 437.37 157.11 437.40 161.95 M 362.35 179.32 C 361.06 181.68 359.46 183.94 358.95 186.63 C 364.27 185.88 369.66 185.67 374.95 184.68 C 373.00 179.59 370.29 174.84 367.79 170.01 C 365.64 172.91 364.10 176.18 362.35 179.32 M 445.19 175.28 C 448.17 179.65 450.89 184.31 454.69 188.03 C 456.27 183.29 458.24 178.69 459.85 173.97 C 454.92 173.62 450.09 174.98 445.19 175.28 M 430.16 205.51 C 435.01 207.41 439.87 209.28 444.81 210.94 C 444.45 206.65 444.04 202.33 442.92 198.16 C 438.59 200.47 434.32 202.90 430.16 205.51 M 400.08 209.45 C 403.64 211.27 407.24 213.01 410.81 214.82 C 411.13 211.18 411.26 207.52 410.92 203.87 C 407.12 205.33 403.45 207.16 400.08 209.45 M 367.48 210.02 C 365.72 215.33 363.83 220.61 362.20 225.96 C 367.09 225.91 371.90 224.99 376.74 224.41 C 375.92 221.79 374.06 219.69 372.72 217.33 C 371.21 214.73 369.72 212.07 367.48 210.02 M 373.84 250.32 C 374.85 251.29 376.05 252.02 377.36 252.53 C 381.63 254.22 385.64 256.51 390.01 257.95 C 389.97 251.98 388.92 246.07 388.63 240.12 C 383.02 242.34 378.92 247.15 373.84 250.32 M 408.33 246.46 C 408.33 246.73 408.34 247.27 408.34 247.54 C 412.84 249.89 417.35 252.27 422.09 254.12 C 422.41 249.37 422.56 244.58 422.04 239.84 C 417.29 241.64 412.86 244.19 408.33 246.46 Z" />
<path fill="#574269" opacity="1.00" d=" M 147.01 275.52 C 150.64 279.42 153.72 283.78 157.01 287.96 C 162.27 295.07 168.20 301.72 173.12 309.07 C 172.95 312.70 171.45 316.09 170.52 319.57 C 168.66 325.42 167.60 331.56 164.96 337.15 C 164.57 337.26 163.78 337.48 163.39 337.59 C 162.69 337.97 161.28 338.74 160.58 339.12 C 158.95 335.93 158.25 332.39 157.18 329.00 C 152.54 313.64 147.99 298.25 143.31 282.90 C 144.49 280.41 145.64 277.91 147.01 275.52 Z" />
<path fill="#574269" opacity="1.00" d=" M 195.07 290.05 C 199.32 285.30 202.89 279.93 207.65 275.66 C 208.88 278.02 209.98 280.44 211.18 282.83 C 205.26 300.59 199.31 318.33 193.43 336.10 C 193.02 337.19 192.49 338.23 191.91 339.23 C 191.39 338.87 190.35 338.15 189.83 337.79 C 185.29 335.62 185.45 330.12 183.95 325.99 C 182.57 320.36 180.24 314.92 179.47 309.17 C 184.21 302.47 189.98 296.50 195.07 290.05 Z" />
<path fill="#574269" opacity="1.00" d=" M 474.38 321.39 C 475.48 320.37 476.55 322.10 477.39 322.67 C 482.95 328.18 488.31 333.88 494.04 339.20 C 494.02 347.91 494.03 356.63 494.03 365.34 C 486.25 359.67 479.14 353.14 471.68 347.06 C 465.50 352.18 460.44 358.49 454.40 363.77 C 449.99 360.09 445.83 356.10 441.15 352.75 C 441.31 343.84 441.29 334.91 441.13 326.00 C 444.80 329.30 448.56 332.51 452.34 335.70 C 453.22 336.33 454.47 337.60 455.55 336.50 C 461.96 331.64 467.87 326.12 474.38 321.39 Z" />
<path fill="#574269" opacity="1.00" d=" M 454.57 388.09 C 460.59 382.23 465.39 375.18 471.86 369.78 C 479.21 375.92 486.40 382.27 493.98 388.12 C 493.19 399.39 489.36 410.23 484.59 420.39 C 480.28 413.62 475.91 406.88 471.75 400.02 C 466.50 403.22 462.74 408.24 457.99 412.08 C 454.01 415.22 450.92 419.42 446.54 422.06 C 442.58 413.89 438.04 406.02 433.81 398.00 C 423.98 404.27 414.01 410.92 402.70 414.13 C 418.03 404.68 430.50 390.21 436.32 373.06 C 442.04 378.47 448.20 383.48 454.57 388.09 Z" />
</g>
<g id="#72668eff">
<path fill="#72668e" opacity="1.00" d=" M 309.37 73.36 C 312.43 73.38 315.49 73.40 318.56 73.41 C 318.71 75.38 318.87 77.34 319.10 79.30 C 315.76 79.87 312.45 80.67 309.09 81.16 C 309.17 78.56 309.27 75.96 309.37 73.36 Z" />
<path fill="#72668e" opacity="1.00" d=" M 330.07 73.77 C 333.12 73.58 336.18 73.59 339.24 73.78 C 339.44 85.49 339.38 97.20 339.29 108.92 C 343.09 109.49 346.96 109.56 350.78 109.01 C 350.73 97.28 350.55 85.54 350.83 73.81 C 369.55 73.38 388.29 73.79 407.02 73.60 C 420.80 73.14 434.45 81.04 440.88 93.24 C 447.65 105.63 447.12 120.21 446.77 133.88 C 441.15 133.81 435.52 133.91 429.91 133.84 C 429.77 129.40 430.42 124.84 429.27 120.49 C 427.36 115.16 421.23 113.10 416.02 113.14 C 401.02 113.15 386.01 113.08 371.01 113.18 C 365.67 113.42 359.59 113.55 355.48 117.45 C 351.53 121.45 351.47 127.42 350.15 132.55 C 348.54 139.05 342.53 143.86 336.06 144.97 C 331.78 145.38 327.48 145.05 323.19 145.11 C 319.47 132.79 314.39 120.91 308.48 109.48 C 309.52 106.27 309.41 102.87 309.17 99.55 C 312.67 94.15 315.37 88.29 318.70 82.79 C 318.68 91.59 318.51 100.40 318.83 109.20 C 322.50 109.39 326.19 109.39 329.87 109.21 C 330.16 97.40 329.83 85.58 330.07 73.77 M 315.05 115.08 C 317.47 120.70 320.16 126.20 322.37 131.92 C 325.57 127.91 328.40 123.63 331.48 119.54 C 333.23 116.92 335.60 114.64 336.57 111.57 C 329.35 112.41 322.21 113.85 315.05 115.08 Z" />
<path fill="#72668e" opacity="1.00" d=" M 286.95 77.10 C 291.95 77.10 297.34 78.10 300.46 82.41 C 299.91 82.60 298.81 82.99 298.26 83.18 C 299.48 84.71 300.71 86.23 301.93 87.77 C 301.72 91.20 301.57 94.64 301.84 98.07 C 297.34 90.76 292.24 83.85 286.95 77.10 Z" />
<path fill="#72668e" opacity="1.00" d=" M 203.67 89.63 C 206.73 83.36 213.07 79.45 219.67 77.82 C 218.54 84.49 217.38 91.14 216.17 97.79 C 209.96 99.08 207.88 105.90 207.52 111.44 C 207.15 123.00 207.76 134.58 207.20 146.13 C 204.87 157.54 202.88 169.01 200.25 180.36 C 200.08 178.23 199.85 176.12 199.82 173.99 C 199.96 153.35 199.87 132.72 199.86 112.08 C 199.63 104.46 199.74 96.42 203.67 89.63 Z" />
</g>
<g id="#c5ede5ff">
<path fill="#c5ede5" opacity="1.00" d=" M 111.54 81.33 C 118.16 84.95 123.92 90.82 126.29 98.08 C 124.52 102.61 119.42 104.15 115.28 105.73 C 115.95 97.40 114.24 89.17 111.54 81.33 Z" />
<path fill="#c5ede5" opacity="1.00" d=" M 228.26 98.04 C 230.47 90.76 236.40 85.17 242.75 81.30 C 240.55 89.18 238.28 97.27 239.33 105.56 C 235.08 104.35 229.89 102.56 228.26 98.04 Z" />
<path fill="#c5ede5" opacity="1.00" d=" M 98.24 113.26 C 103.06 114.69 107.84 117.01 111.22 120.82 C 112.17 122.13 113.70 123.96 112.61 125.60 C 110.84 128.71 107.16 129.76 103.84 130.18 C 103.13 124.21 100.55 118.74 98.24 113.26 Z" />
<path fill="#c5ede5" opacity="1.00" d=" M 246.73 117.74 C 249.65 115.87 252.72 114.00 256.20 113.47 C 253.87 118.84 251.33 124.23 250.70 130.12 C 247.06 129.83 243.10 128.43 241.45 124.90 C 241.66 121.74 244.34 119.47 246.73 117.74 Z" />
<path fill="#c5ede5" opacity="1.00" d=" M 77.73 132.03 C 83.80 133.33 90.72 135.41 94.06 141.09 C 93.11 145.58 88.80 148.57 84.97 150.62 C 84.56 143.78 81.15 137.77 77.73 132.03 Z" />
<path fill="#c5ede5" opacity="1.00" d=" M 261.91 138.95 C 265.88 134.86 271.58 133.08 277.03 131.97 C 273.17 137.59 269.93 143.89 269.54 150.83 C 266.03 148.64 262.39 146.16 260.60 142.29 C 259.75 141.01 261.24 139.91 261.91 138.95 Z" />
<path fill="#c5ede5" opacity="1.00" d=" M 130.11 135.89 C 133.42 140.93 136.90 145.86 140.90 150.38 C 138.94 153.68 133.45 153.18 129.94 152.82 C 127.56 147.44 128.37 141.33 130.11 135.89 Z" />
<path fill="#c5ede5" opacity="1.00" d=" M 213.13 150.55 C 217.74 146.35 220.75 140.81 224.55 135.93 C 225.79 141.31 227.18 147.36 224.55 152.54 C 220.76 153.80 216.22 153.15 213.13 150.55 Z" />
<path fill="#c5ede5" opacity="1.00" d=" M 230.23 167.79 C 238.78 165.95 246.16 160.36 250.76 152.99 C 250.43 161.35 248.73 169.71 245.10 177.28 C 239.08 176.82 232.23 173.99 230.23 167.79 Z" />
<path fill="#c5ede5" opacity="1.00" d=" M 103.84 153.71 C 107.36 157.68 110.68 162.02 115.56 164.44 C 118.09 166.23 121.41 166.51 123.95 168.05 C 122.57 173.55 116.29 176.39 111.03 177.08 C 109.35 177.86 108.76 175.94 108.27 174.81 C 105.57 168.12 103.96 160.93 103.84 153.71 Z" />
<path fill="#c5ede5" opacity="1.00" d=" M 53.00 156.88 C 59.59 159.21 66.44 161.26 73.52 160.50 C 71.53 165.90 68.46 171.43 63.95 174.97 C 58.98 169.88 56.03 163.22 53.00 156.88 Z" />
<path fill="#c5ede5" opacity="1.00" d=" M 281.01 160.38 C 288.04 161.32 294.92 159.29 301.41 156.80 C 298.73 163.42 295.12 169.66 290.67 175.24 C 286.20 171.30 282.81 166.07 281.01 160.38 Z" />
<path fill="#c5ede5" opacity="1.00" d=" M 135.66 171.87 C 142.96 177.97 149.02 185.42 156.21 191.66 C 159.68 213.79 162.28 236.06 165.42 258.25 C 165.59 259.51 165.76 260.78 165.93 262.06 C 164.02 262.05 162.10 262.08 160.19 262.10 C 155.92 266.55 151.37 270.73 147.19 275.26 C 133.25 275.23 119.31 275.33 105.37 275.22 C 98.69 269.47 91.86 263.86 84.88 258.48 C 91.75 254.38 98.90 250.77 105.96 247.00 C 106.91 246.35 108.26 246.04 108.85 245.00 C 108.81 243.73 107.86 242.72 107.32 241.65 C 102.92 234.70 98.66 227.67 94.36 220.67 C 102.43 219.29 110.52 218.04 118.64 216.97 C 116.00 209.94 112.45 203.29 109.56 196.36 C 117.17 198.33 124.48 201.31 132.01 203.54 C 133.20 192.98 134.56 182.44 135.66 171.87 Z" />
<path fill="#c5ede5" opacity="1.00" d=" M 198.08 192.15 C 205.07 185.44 211.68 178.34 218.76 171.73 C 219.99 182.36 221.25 192.99 222.51 203.63 C 230.01 201.15 237.47 198.57 245.00 196.17 C 242.09 203.13 238.68 209.86 235.79 216.83 C 243.90 217.98 251.99 219.29 260.08 220.53 C 255.37 228.88 250.01 236.84 245.18 245.12 C 253.34 249.40 261.40 253.87 269.55 258.17 C 263.01 264.09 255.78 269.21 249.31 275.21 C 235.32 275.32 221.33 275.28 207.34 275.23 C 203.49 271.21 199.49 267.33 195.58 263.38 C 193.85 261.29 190.90 262.26 188.57 262.03 C 188.74 260.77 188.90 259.51 189.08 258.26 C 192.10 236.22 194.93 214.17 198.08 192.15 Z" />
<path fill="#c5ede5" opacity="1.00" d=" M 86.88 182.88 C 93.54 183.23 100.88 184.82 105.40 190.12 C 105.26 196.39 99.49 201.00 94.23 203.53 C 93.05 196.25 90.18 189.42 86.88 182.88 Z" />
<path fill="#c5ede5" opacity="1.00" d=" M 249.10 190.16 C 253.57 184.82 260.95 183.28 267.58 182.84 C 264.47 189.19 261.67 195.73 260.36 202.72 C 260.08 202.82 259.53 203.03 259.25 203.13 C 254.52 200.38 249.13 196.09 249.10 190.16 Z" />
<path fill="#c5ede5" opacity="1.00" d=" M 58.51 196.35 C 63.97 198.22 69.58 199.83 75.40 199.86 C 75.40 205.74 72.25 211.12 67.97 214.96 C 63.15 209.77 60.78 202.93 58.51 196.35 Z" />
<path fill="#c5ede5" opacity="1.00" d=" M 278.96 199.91 C 284.79 199.74 290.51 198.40 295.92 196.23 C 293.90 202.92 291.20 209.55 286.70 214.97 C 282.13 211.32 279.30 205.75 278.96 199.91 Z" />
<path fill="#c5ede5" opacity="1.00" d=" M 68.33 235.44 C 74.96 233.63 81.69 231.99 88.60 231.84 C 88.58 237.08 87.47 242.36 84.85 246.94 C 80.02 242.18 73.77 239.36 68.33 235.44 Z" />
<path fill="#c5ede5" opacity="1.00" d=" M 265.84 231.86 C 272.76 232.00 279.53 233.59 286.17 235.41 C 280.78 239.38 274.51 242.16 269.66 246.90 C 266.91 242.40 266.01 237.06 265.84 231.86 Z" />
<path fill="#c5ede5" opacity="1.00" d=" M 37.92 252.62 C 42.96 247.65 49.67 244.52 56.58 243.21 C 56.56 248.14 56.52 253.08 56.63 258.02 C 50.95 254.67 44.51 252.80 37.92 252.62 Z" />
<path fill="#c5ede5" opacity="1.00" d=" M 298.12 243.12 C 304.68 244.83 311.69 247.26 316.17 252.59 C 309.76 252.96 303.41 254.67 297.95 258.11 C 297.98 253.11 297.73 248.10 298.12 243.12 Z" />
</g>
<g id="#31302eff">
<path fill="#31302e" opacity="1.00" d=" M 160.19 262.10 C 162.10 262.08 164.02 262.05 165.93 262.06 C 173.48 262.06 181.02 262.11 188.57 262.03 C 190.90 262.26 193.85 261.29 195.58 263.38 C 199.49 267.33 203.49 271.21 207.34 275.23 L 207.65 275.66 C 202.89 279.93 199.32 285.30 195.07 290.05 C 189.98 296.50 184.21 302.47 179.47 309.17 C 180.24 314.92 182.57 320.36 183.95 325.99 C 185.45 330.12 185.29 335.62 189.83 337.79 C 188.13 337.57 186.42 337.45 184.72 337.32 L 183.72 337.23 C 183.28 338.07 182.81 338.90 182.33 339.72 C 182.24 339.17 182.08 338.07 182.00 337.52 C 180.86 337.49 178.57 337.43 177.43 337.40 C 173.28 337.11 169.12 337.21 164.96 337.15 C 167.60 331.56 168.66 325.42 170.52 319.57 C 171.45 316.09 172.95 312.70 173.12 309.07 C 168.20 301.72 162.27 295.07 157.01 287.96 C 153.72 283.78 150.64 279.42 147.01 275.52 L 147.19 275.26 C 151.37 270.73 155.92 266.55 160.19 262.10 Z" />
<path fill="#31302e" opacity="1.00" d=" M 426.15 262.44 C 429.82 264.40 432.33 268.46 435.55 271.24 C 435.58 292.49 435.58 313.73 435.56 334.98 C 435.74 339.42 432.86 344.32 428.14 344.80 C 419.07 345.35 409.97 344.70 400.90 345.11 C 398.43 345.26 396.10 347.32 396.09 349.88 C 395.81 353.91 396.04 357.96 395.97 362.00 C 390.94 362.59 385.92 363.31 380.87 363.77 C 380.86 358.82 380.99 353.87 380.85 348.93 C 380.99 346.21 378.99 343.30 376.10 343.24 C 371.73 343.09 367.32 342.92 362.97 343.34 C 360.18 344.71 359.21 348.02 358.70 350.85 C 358.06 355.16 358.33 359.53 358.24 363.87 C 353.82 364.41 349.44 365.27 344.99 365.61 C 345.04 360.38 345.24 355.13 344.95 349.91 C 344.81 346.92 341.96 344.72 339.05 345.01 C 336.03 345.00 331.37 344.06 330.36 347.96 C 329.20 354.05 331.87 360.01 333.73 365.70 C 328.13 365.79 322.53 365.65 316.94 365.80 C 316.58 358.89 316.88 351.97 316.76 345.06 C 316.61 340.29 318.04 334.97 322.16 332.13 C 325.29 329.82 329.34 329.91 333.05 329.88 C 349.38 329.87 365.71 329.62 382.03 328.81 C 392.66 328.09 403.43 327.82 413.83 325.29 C 415.50 324.64 418.56 324.31 418.56 321.99 C 418.81 305.14 418.28 288.23 418.82 271.40 C 421.10 268.30 423.30 265.06 426.15 262.44 Z" />
<path fill="#31302e" opacity="1.00" d=" M 381.01 369.41 C 385.33 368.93 389.63 368.22 393.96 367.67 C 393.74 371.60 393.38 376.44 396.77 379.23 C 400.47 381.98 405.24 380.16 409.20 379.06 C 405.79 387.16 393.27 389.13 387.48 382.54 C 384.15 378.89 382.02 374.22 381.01 369.41 Z" />
<path fill="#31302e" opacity="1.00" d=" M 350.84 380.16 C 347.93 377.31 345.55 373.55 345.27 369.41 C 348.92 369.58 352.59 369.54 356.25 369.56 C 356.24 373.63 357.15 377.91 359.96 381.00 C 362.28 383.81 365.75 385.14 369.00 386.57 C 362.53 386.22 355.65 384.82 350.84 380.16 Z" />
<path fill="#31302e" opacity="1.00" d=" M 318.57 371.68 C 323.54 371.02 328.59 371.60 333.59 371.37 C 333.00 378.94 338.18 385.46 344.83 388.42 C 338.10 388.19 331.08 386.70 325.83 382.22 C 322.40 379.51 320.21 375.65 318.57 371.68 Z" />
<path fill="#31302e" opacity="1.00" d=" M 128.38 379.52 C 130.52 379.12 132.70 378.97 134.88 378.93 C 135.09 379.49 135.52 380.62 135.73 381.18 C 137.32 387.95 140.93 393.91 144.83 399.58 C 135.70 397.26 129.72 388.48 128.38 379.52 Z" />
<path fill="#31302e" opacity="1.00" d=" M 211.24 378.99 C 215.00 378.89 218.76 378.91 222.52 379.07 C 219.11 387.75 212.54 395.44 203.95 399.28 C 206.71 392.65 210.24 386.19 211.24 378.99 Z" />
<path fill="#31302e" opacity="1.00" d=" M 109.42 381.15 C 112.53 380.93 115.65 380.83 118.77 380.87 C 121.31 388.37 125.60 395.03 129.84 401.64 C 121.22 396.99 113.69 390.08 109.42 381.15 Z" />
<path fill="#31302e" opacity="1.00" d=" M 230.11 380.87 C 233.86 380.76 237.62 380.79 241.38 380.99 C 237.31 390.45 228.81 397.89 219.08 401.08 C 223.34 394.69 227.62 388.20 230.11 380.87 Z" />
<path fill="#31302e" opacity="1.00" d=" M 94.51 383.09 C 96.98 382.91 99.46 382.82 101.94 382.81 C 104.14 389.85 108.78 395.67 112.97 401.61 C 104.70 398.22 97.45 391.67 94.51 383.09 Z" />
<path fill="#31302e" opacity="1.00" d=" M 247.02 382.91 C 250.19 382.83 253.37 382.84 256.54 382.91 C 251.91 390.90 245.09 398.39 236.01 401.12 C 239.97 395.24 244.08 389.39 247.02 382.91 Z" />
</g>
<g id="#453a4aff">
<path fill="#453a4a" opacity="1.00" d=" M 94.39 297.65 C 104.35 289.94 115.83 282.17 129.00 282.77 C 131.59 282.61 134.67 283.68 135.44 286.42 C 135.92 288.58 135.74 290.82 135.78 293.01 C 135.72 322.40 135.82 351.79 135.73 381.18 C 135.52 380.62 135.09 379.49 134.88 378.93 C 132.70 378.97 130.52 379.12 128.38 379.52 L 128.19 379.55 C 128.28 358.35 128.19 337.14 128.23 315.93 C 128.12 313.16 128.11 309.97 126.04 307.85 C 124.58 306.87 122.57 307.29 121.14 308.11 C 118.94 309.61 118.89 312.56 118.80 314.95 C 118.77 336.92 118.83 358.90 118.77 380.87 C 115.65 380.83 112.53 380.93 109.42 381.15 C 109.27 358.47 109.47 335.77 109.32 313.09 C 109.66 310.11 106.21 308.25 103.73 309.58 C 101.72 310.58 101.82 313.06 101.80 314.98 C 101.93 337.59 101.65 360.20 101.94 382.81 C 99.46 382.82 96.98 382.91 94.51 383.09 L 94.11 383.12 C 94.58 354.63 94.03 326.13 94.39 297.65 Z" />
<path fill="#453a4a" opacity="1.00" d=" M 211.21 289.03 C 210.74 285.67 213.58 282.60 216.97 282.82 C 231.59 282.10 244.75 290.09 256.46 297.91 C 256.48 326.24 256.33 354.58 256.54 382.91 C 253.37 382.84 250.19 382.83 247.02 382.91 C 247.01 359.93 247.03 336.94 247.01 313.95 C 247.48 311.33 245.21 308.37 242.41 309.37 C 241.19 310.97 241.40 313.06 241.34 314.96 C 241.40 336.97 241.32 358.98 241.38 380.99 C 237.62 380.79 233.86 380.76 230.11 380.87 C 229.92 357.92 230.16 334.96 229.99 312.01 C 230.14 309.99 229.46 307.14 226.88 307.32 C 223.44 306.99 222.73 311.32 222.58 313.91 C 222.41 335.63 222.52 357.35 222.52 379.07 C 218.76 378.91 215.00 378.89 211.24 378.99 C 211.14 349.00 211.19 319.02 211.21 289.03 Z" />
</g>
<g id="#bfbbadf9">
<path fill="#bfbbad" opacity="0.98" d=" M 160.58 339.12 C 161.28 338.74 162.69 337.97 163.39 337.59 C 164.90 337.62 167.25 337.61 167.33 339.67 C 167.41 343.85 166.45 348.04 165.77 352.17 C 164.02 347.83 162.76 343.28 160.58 339.12 Z" />
<path fill="#bfbbad" opacity="0.98" d=" M 169.38 337.65 C 171.45 337.70 173.52 337.71 175.60 337.72 C 174.48 341.79 174.27 346.03 173.59 350.19 C 171.71 346.17 171.40 341.61 169.38 337.65 Z" />
<path fill="#bfbbad" opacity="0.98" d=" M 177.43 337.40 C 178.57 337.43 180.86 337.49 182.00 337.52 C 182.08 338.07 182.24 339.17 182.33 339.72 C 181.29 343.23 180.25 346.74 179.26 350.27 C 178.32 346.04 177.73 341.73 177.43 337.40 Z" />
<path fill="#bfbbad" opacity="0.98" d=" M 184.72 337.32 C 186.42 337.45 188.13 337.57 189.83 337.79 C 190.35 338.15 191.39 338.87 191.91 339.23 C 189.75 342.73 188.64 346.73 186.62 350.30 C 185.92 345.98 185.45 341.63 184.72 337.32 Z" />
</g>
</svg>
