<?xml version="1.0" encoding="UTF-8" ?>
<!DOCTYPE svg PUBLIC "-//W3C//DTD SVG 1.1//EN" "http://www.w3.org/Graphics/SVG/1.1/DTD/svg11.dtd">
<svg width="513pt" height="502pt" viewBox="0 0 513 502" version="1.1" xmlns="http://www.w3.org/2000/svg">
<g id="#c8bfb3ff">
<path fill="#c8bfb3" opacity="1.00" d=" M 165.85 0.00 L 166.07 0.00 C 168.78 2.30 171.44 5.27 171.57 9.03 C 171.63 12.51 170.41 15.84 169.59 19.17 C 167.80 25.96 167.13 33.22 168.95 40.08 C 172.46 53.58 179.21 65.95 186.55 77.71 C 188.98 81.45 191.71 84.99 194.15 88.73 C 187.41 90.67 180.65 92.57 173.91 94.50 C 171.18 95.33 168.03 95.70 166.05 97.98 C 159.78 104.34 153.45 110.63 147.14 116.94 C 145.78 113.87 144.45 110.79 143.26 107.66 C 138.44 94.59 134.29 80.99 133.95 66.96 C 133.93 54.83 138.39 43.22 143.53 32.41 C 149.39 20.66 156.33 9.17 165.85 0.00 Z" />
<path fill="#c8bfb3" opacity="1.00" d=" M 300.10 2.51 C 306.37 1.65 313.62 1.06 318.86 5.33 C 306.92 8.72 299.28 19.70 294.75 30.62 C 291.00 40.05 287.94 50.01 288.06 60.27 C 288.11 62.82 288.27 65.37 288.43 67.92 C 282.68 67.44 276.95 66.18 271.19 66.31 C 261.20 69.69 251.45 73.80 241.48 77.26 C 242.82 71.64 244.63 66.15 246.54 60.70 C 251.15 48.41 256.96 36.44 264.89 25.93 C 273.49 14.50 285.60 4.73 300.10 2.51 Z" />
<path fill="#c8bfb3" opacity="1.00" d=" M 387.22 42.20 C 397.74 37.51 409.78 36.58 420.99 39.09 C 426.89 40.40 431.69 44.35 435.59 48.80 C 425.17 48.71 416.41 55.49 410.43 63.46 C 403.36 71.87 396.74 80.70 391.12 90.16 C 387.32 96.47 384.16 103.14 381.48 109.99 C 381.19 111.54 379.92 110.06 379.59 109.41 C 373.80 101.20 367.98 93.01 362.08 84.87 C 354.58 84.28 347.09 83.65 339.60 83.00 C 342.48 79.05 345.60 75.28 348.86 71.64 C 359.73 59.67 372.29 48.75 387.22 42.20 Z" />
<path fill="#c8bfb3" opacity="1.00" d=" M 56.49 71.64 C 62.41 85.62 71.38 98.13 81.72 109.17 C 91.59 119.56 102.88 128.79 115.78 135.14 C 116.91 135.70 118.04 136.24 119.18 136.77 C 128.28 140.70 138.06 143.28 148.01 143.36 C 154.04 143.41 159.83 141.44 165.49 139.58 C 180.30 134.49 194.97 128.87 210.22 125.20 C 228.12 120.81 246.58 118.38 265.02 119.04 C 287.52 120.62 309.18 132.19 323.01 150.00 C 331.03 160.39 335.66 173.89 333.24 187.04 C 331.15 203.29 320.55 218.16 305.51 224.86 C 299.95 227.53 293.97 229.23 287.93 230.44 C 281.36 231.60 274.69 232.13 268.02 232.13 C 256.64 232.15 245.25 232.15 233.87 232.12 C 233.59 225.54 234.97 218.39 231.46 212.41 C 229.06 207.97 223.94 205.65 219.01 205.79 C 201.53 205.68 184.05 205.91 166.57 205.67 C 139.88 205.14 113.35 196.01 92.37 179.44 C 68.60 160.73 51.36 132.59 49.24 102.06 C 48.56 91.60 49.23 79.90 56.49 71.64 M 184.44 164.50 C 183.60 165.09 181.93 165.21 182.21 166.58 C 188.04 170.14 193.93 173.63 199.80 177.14 C 199.80 170.39 199.79 163.65 199.81 156.91 C 194.65 159.36 189.61 162.07 184.44 164.50 M 145.90 166.39 C 151.32 169.17 156.54 172.31 161.93 175.14 C 162.07 169.72 162.05 164.28 161.84 158.86 C 156.57 161.43 150.79 163.15 145.90 166.39 M 225.79 169.51 C 226.48 170.41 227.42 171.05 228.49 171.43 C 234.66 173.90 240.75 176.54 246.89 179.06 C 246.85 173.50 246.92 167.94 246.82 162.38 C 239.88 164.97 232.79 167.11 225.79 169.51 Z" />
<path fill="#c8bfb3" opacity="1.00" d=" M 241.45 86.84 C 251.59 81.84 261.63 76.64 271.81 71.73 C 277.37 73.07 282.98 74.17 288.53 75.54 C 289.08 79.78 289.84 83.99 290.32 88.23 C 288.56 91.35 285.30 93.43 283.01 96.19 C 269.77 96.31 256.53 96.29 243.30 96.19 C 242.69 93.07 242.07 89.95 241.45 86.84 Z" />
<path fill="#c8bfb3" opacity="1.00" d=" M 328.32 102.06 C 329.83 98.09 332.06 94.43 333.88 90.61 C 342.04 91.25 350.21 91.78 358.36 92.54 C 365.25 100.71 372.19 108.83 379.04 117.03 C 377.78 121.43 376.60 125.85 375.22 130.22 C 370.18 131.46 365.17 132.85 360.08 133.91 C 350.20 127.43 339.89 121.55 330.15 114.90 C 329.38 110.65 328.72 106.36 328.32 102.06 Z" />
<path fill="#c8bfb3" opacity="1.00" d=" M 175.00 99.48 C 181.44 98.51 187.83 97.27 194.28 96.35 C 195.37 102.08 197.05 107.69 197.84 113.47 C 185.79 120.06 174.11 127.29 162.10 133.94 C 157.81 131.43 153.55 128.84 149.11 126.59 C 156.00 118.03 163.40 109.89 170.42 101.43 C 171.40 99.85 173.36 99.80 175.00 99.48 Z" />
<path fill="#c8bfb3" opacity="1.00" d=" M 247.01 103.00 C 250.51 101.57 253.87 104.27 255.29 107.32 C 255.54 109.68 255.30 112.05 254.12 114.15 C 252.56 114.12 251.39 115.02 250.74 116.36 C 247.28 116.78 244.10 114.88 242.70 111.73 C 241.91 108.19 243.42 104.27 247.01 103.00 Z" />
<path fill="#c8bfb3" opacity="1.00" d=" M 463.02 116.06 C 476.77 114.11 491.69 114.92 503.88 122.16 C 507.34 124.04 509.93 127.05 513.00 129.45 L 513.00 129.77 C 508.01 129.75 502.96 129.54 498.07 130.68 C 490.08 132.30 482.77 136.39 476.59 141.62 C 469.88 147.28 463.71 153.56 457.86 160.10 C 453.39 164.97 449.33 170.18 445.12 175.27 C 443.77 167.78 442.68 160.25 441.29 152.77 C 433.13 149.12 425.13 145.12 416.89 141.66 C 421.30 135.66 427.22 130.93 433.43 126.91 C 442.37 121.24 452.55 117.57 463.02 116.06 Z" />
<path fill="#c8bfb3" opacity="1.00" d=" M 136.71 131.19 C 137.89 130.07 138.99 128.88 140.18 127.78 C 141.71 127.51 143.28 127.55 144.82 127.74 C 146.36 129.16 147.55 131.02 148.33 132.96 C 147.80 135.01 146.20 136.56 145.08 138.30 C 143.36 138.32 141.65 138.32 139.94 138.27 C 138.96 137.02 137.87 135.87 136.69 134.81 C 136.69 133.60 136.70 132.39 136.71 131.19 Z" />
<path fill="#c8bfb3" opacity="1.00" d=" M 378.28 140.44 C 380.06 140.45 381.83 140.44 383.62 140.41 C 385.26 142.18 387.34 144.60 386.00 147.15 C 384.67 151.77 377.25 151.65 375.92 147.10 C 374.67 144.57 376.69 142.22 378.28 140.44 Z" />
<path fill="#c8bfb3" opacity="1.00" d=" M 413.16 149.12 C 420.59 151.63 428.02 154.16 435.50 156.54 C 437.04 164.69 438.04 172.92 439.42 181.09 C 436.32 184.82 433.36 188.68 430.06 192.24 C 425.79 193.47 421.26 193.55 416.89 194.36 C 411.80 186.92 406.91 179.34 401.83 171.89 C 405.40 164.20 409.26 156.64 413.16 149.12 Z" />
<path fill="#c8bfb3" opacity="1.00" d=" M 31.87 165.95 C 32.99 164.11 36.01 163.47 37.23 165.54 C 45.47 176.69 55.74 187.14 68.96 192.09 C 75.88 194.87 83.43 194.41 90.73 194.68 C 96.78 195.57 103.49 196.49 107.97 201.10 C 112.23 205.58 113.00 212.11 113.12 218.01 C 113.37 229.87 107.43 241.84 97.49 248.42 C 94.64 250.39 91.09 251.47 87.66 250.53 C 83.62 248.76 80.38 245.71 76.90 243.11 C 71.27 238.80 65.13 235.21 58.71 232.22 C 51.46 228.88 46.50 222.20 42.73 215.41 C 36.41 203.64 32.88 190.58 30.76 177.45 C 30.32 173.66 29.43 169.28 31.87 165.95 Z" />
<path fill="#c8bfb3" opacity="1.00" d=" M 120.98 205.78 C 129.96 207.97 139.55 211.03 145.79 218.26 C 151.53 224.85 148.85 235.33 142.77 240.75 C 134.98 247.65 123.92 249.14 113.89 248.96 C 111.20 249.16 109.96 246.11 111.02 243.93 C 113.74 235.76 120.04 229.23 122.33 220.89 C 123.11 215.83 122.08 210.71 120.98 205.78 Z" />
<path fill="#c8bfb3" opacity="1.00" d=" M 353.22 212.21 C 358.05 209.12 363.94 207.19 369.70 208.02 C 369.54 211.58 369.59 215.14 369.69 218.69 C 365.90 218.44 362.29 219.66 358.95 221.35 C 356.24 219.26 353.64 217.02 351.22 214.60 C 351.04 213.30 352.36 212.83 353.22 212.21 Z" />
<path fill="#c8bfb3" opacity="1.00" d=" M 371.95 208.01 C 377.11 209.17 382.62 211.19 386.00 215.47 C 383.23 217.51 380.87 220.10 377.93 221.90 C 375.87 221.16 373.70 220.34 372.03 218.92 C 371.36 215.34 371.75 211.63 371.95 208.01 Z" />
<path fill="#c8bfb3" opacity="1.00" d=" M 448.98 215.15 C 460.07 218.26 470.90 222.40 480.99 227.99 C 493.96 235.29 507.03 245.84 510.37 261.11 C 511.87 270.97 511.09 281.86 505.70 290.50 C 505.31 275.61 494.04 260.96 479.09 258.35 C 468.54 256.33 457.66 256.96 447.10 258.51 C 449.20 251.80 451.50 245.15 453.74 238.49 C 454.23 237.05 454.60 235.53 454.06 234.05 C 452.43 227.73 450.51 221.49 448.98 215.15 Z" />
<path fill="#c8bfb3" opacity="1.00" d=" M 341.57 233.84 C 341.73 227.38 344.19 221.04 348.54 216.26 C 351.14 218.76 353.96 221.01 356.69 223.37 C 354.38 226.40 352.69 229.92 352.57 233.81 C 348.90 233.81 345.23 233.80 341.57 233.84 Z" />
<path fill="#c8bfb3" opacity="1.00" d=" M 424.43 224.56 C 430.07 221.47 435.70 218.36 441.29 215.19 C 444.48 222.08 447.61 229.01 450.72 235.94 C 446.82 244.06 443.36 252.40 439.24 260.41 C 435.61 259.04 431.91 257.87 428.22 256.68 C 426.30 250.88 421.60 245.47 422.91 239.08 C 423.47 234.24 423.82 229.39 424.43 224.56 Z" />
<path fill="#c8bfb3" opacity="1.00" d=" M 380.05 224.36 C 382.72 222.03 385.35 219.66 388.15 217.50 C 391.54 221.53 393.50 226.62 394.00 231.85 C 390.39 231.80 386.77 231.80 383.16 231.81 C 382.34 229.24 381.27 226.76 380.05 224.36 Z" />
<path fill="#c8bfb3" opacity="1.00" d=" M 365.25 227.41 C 370.36 224.64 377.48 229.20 376.85 235.03 C 377.40 241.07 369.81 245.40 364.75 242.25 C 358.77 239.47 359.10 229.78 365.25 227.41 Z" />
<path fill="#c8bfb3" opacity="1.00" d=" M 383.28 234.16 C 386.84 234.20 390.40 234.20 393.96 234.17 C 393.87 238.73 393.06 243.58 390.16 247.26 C 387.22 245.22 384.27 243.20 381.47 240.97 C 382.38 238.79 382.90 236.48 383.28 234.16 Z" />
<path fill="#c8bfb3" opacity="1.00" d=" M 341.98 236.19 C 345.54 236.20 349.10 236.19 352.66 236.16 C 353.27 238.97 354.76 241.43 355.88 244.04 C 353.61 246.80 350.31 248.62 347.47 250.79 C 344.53 246.44 341.96 241.58 341.98 236.19 Z" />
<path fill="#c8bfb3" opacity="1.00" d=" M 368.15 249.40 C 372.70 249.11 376.68 246.83 380.01 243.84 C 383.01 245.70 385.84 247.81 388.63 249.97 C 383.92 256.38 376.07 260.09 368.18 260.28 C 368.20 256.65 368.19 253.02 368.15 249.40 Z" />
<path fill="#c8bfb3" opacity="1.00" d=" M 358.26 246.42 C 360.78 247.05 363.10 248.78 365.79 249.20 C 365.80 252.81 365.80 256.42 365.80 260.02 C 360.10 259.83 354.69 257.30 350.41 253.63 C 350.39 253.34 350.34 252.77 350.31 252.49 C 352.95 250.45 355.50 248.28 358.26 246.42 Z" />
<path fill="#c8bfb3" opacity="1.00" d=" M 1.95 279.89 C 2.43 277.51 3.55 275.33 5.14 273.51 C 6.01 274.51 6.94 275.53 7.35 276.83 C 13.53 294.84 22.95 312.06 36.56 325.54 C 47.79 336.56 60.28 346.26 73.54 354.73 C 73.65 361.82 73.52 368.91 73.61 376.00 C 73.58 378.48 73.90 381.17 72.46 383.37 C 68.41 390.75 64.48 398.19 60.45 405.57 C 54.40 405.81 48.32 405.89 42.27 405.61 C 36.69 404.52 32.81 399.85 29.27 395.76 C 20.89 385.25 15.11 372.92 10.45 360.39 C 4.19 343.22 0.56 325.06 0.00 306.79 L 0.00 300.22 C 0.26 293.42 0.47 286.56 1.95 279.89 Z" />
<path fill="#c8bfb3" opacity="1.00" d=" M 417.37 276.49 C 419.45 276.45 421.54 276.44 423.63 276.47 C 425.89 278.20 425.68 281.02 425.58 283.57 C 423.77 286.15 420.11 287.78 417.43 285.42 C 414.21 283.47 415.11 278.85 417.37 276.49 Z" />
<path fill="#c8bfb3" opacity="1.00" d=" M 387.27 295.22 C 391.27 292.40 397.19 296.41 396.09 301.16 C 395.43 305.38 389.73 307.29 386.63 304.42 C 383.77 302.07 384.08 297.13 387.27 295.22 Z" />
<path fill="#c8bfb3" opacity="1.00" d=" M 426.19 303.99 C 429.93 304.34 433.59 305.19 437.33 305.63 C 438.42 313.75 438.59 321.97 439.45 330.13 C 433.76 335.18 428.30 340.55 422.25 345.16 C 418.67 340.73 414.87 336.48 411.20 332.14 C 416.18 322.75 421.21 313.38 426.19 303.99 Z" />
<path fill="#c8bfb3" opacity="1.00" d=" M 445.18 305.73 C 454.11 308.01 462.56 312.13 469.85 317.76 C 474.41 321.28 478.47 325.46 481.75 330.19 C 491.40 343.91 493.80 361.60 491.33 377.91 C 490.00 386.40 486.54 395.14 479.27 400.25 C 481.49 393.53 481.60 385.96 478.40 379.53 C 473.73 369.82 464.54 363.38 455.49 358.09 C 447.46 353.57 438.90 350.04 430.14 347.21 C 435.56 341.34 441.85 336.17 446.84 329.98 C 446.65 321.88 445.56 313.83 445.18 305.73 Z" />
<path fill="#c8bfb3" opacity="1.00" d=" M 379.31 313.43 C 383.21 312.13 387.54 315.88 386.61 319.94 C 386.13 324.34 379.91 326.33 376.96 323.01 C 373.80 320.24 375.29 314.47 379.31 313.43 Z" />
<path fill="#c8bfb3" opacity="1.00" d=" M 79.19 332.91 C 79.54 330.15 79.50 326.64 81.99 324.85 C 83.70 324.53 84.63 326.28 85.51 327.41 C 96.06 343.23 107.56 358.51 120.83 372.18 C 130.12 381.70 140.28 390.34 150.97 398.24 C 150.42 405.55 147.86 413.20 141.91 417.88 C 135.55 422.84 126.72 423.71 119.07 421.81 C 110.75 419.61 104.55 412.90 100.35 405.69 C 94.21 395.22 90.70 383.52 86.81 372.09 C 82.53 359.49 78.64 346.37 79.19 332.91 Z" />
<path fill="#c8bfb3" opacity="1.00" d=" M 361.67 337.06 C 362.30 334.54 364.10 331.73 367.09 332.11 C 371.45 331.96 373.28 338.32 369.75 340.71 C 366.58 343.19 362.42 340.60 361.67 337.06 Z" />
<path fill="#c8bfb3" opacity="1.00" d=" M 141.53 337.01 C 142.09 333.95 145.52 335.57 146.66 337.33 C 156.02 348.53 165.90 359.68 178.42 367.45 C 184.25 371.31 190.74 374.33 195.81 379.24 C 203.18 386.23 200.21 400.27 190.96 404.14 C 185.42 406.52 179.23 405.65 173.37 405.68 C 162.44 392.03 152.24 377.50 145.67 361.20 C 142.82 353.55 140.25 345.23 141.53 337.01 Z" />
<path fill="#c8bfb3" opacity="1.00" d=" M 239.55 341.66 C 246.43 339.70 253.33 337.85 260.25 336.03 C 260.00 347.86 254.28 358.82 247.12 367.95 C 244.53 359.21 242.12 350.41 239.55 341.66 Z" />
<path fill="#c8bfb3" opacity="1.00" d=" M 343.27 346.15 C 345.85 344.20 350.26 345.69 350.74 349.02 C 351.64 352.31 348.34 355.63 345.04 354.73 C 341.05 354.25 339.93 348.23 343.27 346.15 Z" />
<path fill="#c8bfb3" opacity="1.00" d=" M 387.56 351.37 C 389.14 349.31 392.46 348.68 394.36 350.68 C 395.92 351.86 395.46 353.95 395.62 355.64 C 393.97 357.27 391.46 359.52 389.15 357.65 C 386.51 356.77 387.50 353.48 387.56 351.37 Z" />
<path fill="#c8bfb3" opacity="1.00" d=" M 321.18 355.25 C 324.37 353.30 328.80 356.37 328.25 360.02 C 328.03 363.53 323.40 365.68 320.64 363.41 C 317.71 361.54 318.09 356.75 321.18 355.25 Z" />
<path fill="#c8bfb3" opacity="1.00" d=" M 271.04 357.13 C 273.84 355.68 277.69 357.15 278.80 360.12 C 280.20 363.16 278.25 367.02 275.06 367.87 C 271.83 369.04 268.09 366.34 267.74 363.03 C 267.41 360.61 268.86 358.16 271.04 357.13 Z" />
<path fill="#c8bfb3" opacity="1.00" d=" M 297.13 359.17 C 300.60 357.06 305.74 359.88 305.58 364.02 C 305.99 368.13 301.20 371.20 297.55 369.48 C 293.27 367.86 293.03 361.15 297.13 359.17 Z" />
<path fill="#c8bfb3" opacity="1.00" d=" M 207.50 364.29 C 219.32 366.62 231.06 369.29 242.86 371.64 C 241.71 374.62 239.21 376.76 237.04 379.00 C 230.94 384.85 224.13 389.95 216.91 394.32 C 213.74 384.32 210.65 374.30 207.50 364.29 Z" />
<path fill="#c8bfb3" opacity="1.00" d=" M 384.28 370.21 C 387.08 369.05 389.62 367.01 392.58 366.38 C 396.33 368.00 399.91 369.99 403.56 371.84 C 400.58 377.10 397.71 382.42 394.74 387.69 C 393.85 389.37 391.68 389.45 390.13 390.14 C 383.85 392.00 377.80 394.62 371.40 396.05 C 370.28 393.04 369.11 390.04 367.86 387.09 C 370.25 383.15 373.16 379.57 375.73 375.75 C 377.55 372.63 381.36 371.91 384.28 370.21 Z" />
<path fill="#c8bfb3" opacity="1.00" d=" M 349.35 370.39 C 351.98 369.48 355.60 372.17 353.89 374.89 C 353.15 377.39 350.35 376.42 348.42 376.59 C 347.75 375.29 347.39 373.90 347.37 372.45 C 348.03 371.77 348.69 371.08 349.35 370.39 Z" />
<path fill="#c8bfb3" opacity="1.00" d=" M 411.18 373.73 C 417.46 377.06 422.70 382.04 427.00 387.65 C 439.60 404.58 441.80 427.34 437.28 447.48 C 434.56 459.51 427.07 471.34 415.04 475.70 C 419.05 465.62 420.97 453.84 416.54 443.57 C 411.89 432.69 404.01 423.52 395.38 415.58 C 389.94 410.45 383.73 406.26 377.63 401.99 C 386.21 398.67 394.95 395.77 403.59 392.60 C 406.18 386.33 408.61 380.01 411.18 373.73 Z" />
<path fill="#c8bfb3" opacity="1.00" d=" M 83.11 384.67 C 85.51 385.57 87.35 387.47 88.08 389.94 C 90.77 397.72 90.90 406.06 92.26 414.11 C 93.23 418.41 90.59 422.32 87.99 425.46 C 73.41 440.94 50.77 447.98 29.90 444.51 C 21.35 443.18 12.34 439.78 7.39 432.25 C 13.21 432.00 19.25 431.48 24.40 428.50 C 29.31 425.91 32.81 421.49 37.15 418.14 C 42.21 414.27 48.79 413.47 54.97 413.39 C 59.14 413.21 63.57 413.88 67.42 411.87 C 76.24 405.48 79.80 394.56 83.11 384.67 Z" />
<path fill="#c8bfb3" opacity="1.00" d=" M 267.57 396.07 C 267.27 393.68 269.18 391.94 270.78 390.52 C 271.63 390.51 273.33 390.49 274.18 390.49 C 275.77 391.97 278.03 393.57 277.45 396.10 C 276.79 398.45 274.45 400.50 271.94 400.40 C 269.88 399.79 268.21 398.11 267.57 396.07 Z" />
<path fill="#c8bfb3" opacity="1.00" d=" M 209.52 396.30 C 210.27 393.94 213.95 392.84 215.38 395.20 C 218.35 403.63 221.29 412.17 222.35 421.09 C 223.02 426.15 221.84 431.24 220.15 435.99 C 216.37 446.23 209.75 455.36 201.29 462.25 C 189.80 471.72 175.00 476.33 160.31 477.48 C 166.77 470.04 172.84 462.13 177.26 453.28 C 179.54 448.53 181.53 443.33 181.00 437.96 C 180.56 433.46 179.46 429.07 178.80 424.61 C 178.38 421.35 177.46 417.56 179.59 414.68 C 181.55 412.16 184.92 411.72 187.85 411.20 C 193.63 410.23 199.96 409.54 204.65 405.68 C 207.56 403.37 208.41 399.64 209.52 396.30 Z" />
<path fill="#c8bfb3" opacity="1.00" d=" M 304.02 405.86 C 311.81 401.69 320.16 398.43 328.11 394.46 C 333.80 400.12 339.63 405.66 345.06 411.58 C 340.45 415.71 336.47 420.56 331.71 424.51 C 323.72 425.53 315.63 425.64 307.62 426.56 C 306.24 419.70 304.64 412.83 304.02 405.86 Z" />
<path fill="#c8bfb3" opacity="1.00" d=" M 241.41 409.65 C 246.46 407.03 251.53 404.44 256.69 402.04 C 262.69 406.50 269.00 410.55 274.98 415.05 C 276.85 417.98 277.74 421.48 279.01 424.72 C 273.34 426.49 267.77 428.59 262.04 430.22 C 255.83 427.00 249.53 423.97 243.31 420.78 C 242.70 417.07 242.09 413.35 241.41 409.65 Z" />
<path fill="#c8bfb3" opacity="1.00" d=" M 148.57 421.64 C 152.97 417.00 155.30 410.90 159.07 405.79 C 161.54 409.47 163.76 413.31 166.00 417.13 C 165.25 419.18 164.53 421.24 163.86 423.32 C 157.65 438.00 148.76 452.24 135.38 461.36 C 125.68 468.02 113.59 470.91 101.92 469.64 C 94.00 468.83 85.53 467.64 79.14 462.47 C 85.98 459.97 93.04 457.45 98.76 452.79 C 101.48 450.65 102.70 447.31 104.14 444.29 C 106.95 438.36 109.82 432.21 114.75 427.72 C 119.58 425.45 124.94 427.24 130.03 427.05 C 136.54 427.43 143.67 426.28 148.57 421.64 Z" />
<path fill="#c8bfb3" opacity="1.00" d=" M 335.30 430.23 C 340.25 427.13 344.26 422.66 348.87 419.05 C 348.77 424.55 348.55 430.06 347.86 435.52 C 345.51 454.06 339.23 473.18 325.31 486.31 C 314.56 496.65 299.59 501.51 284.89 501.99 C 295.05 492.38 304.55 481.33 309.20 467.93 C 312.03 460.19 311.17 451.84 310.82 443.78 C 310.59 439.86 310.04 435.96 309.55 432.06 C 318.14 431.59 326.75 431.10 335.30 430.23 Z" />
<path fill="#c8bfb3" opacity="1.00" d=" M 243.32 428.51 C 250.85 431.10 257.62 436.39 265.84 436.48 C 270.84 436.86 275.82 437.48 280.83 437.77 C 280.81 439.63 280.79 441.50 280.67 443.37 C 278.70 459.39 270.14 474.61 257.02 484.12 C 242.91 494.55 224.95 498.17 207.69 498.21 C 218.41 491.33 228.62 482.41 233.49 470.34 C 237.62 459.81 239.94 448.69 241.91 437.58 C 242.43 434.56 242.88 431.53 243.32 428.51 Z" />
</g>
<g id="#445f58ff">
<path fill="#445f58" opacity="1.00" d=" M 237.72 62.28 C 240.65 61.68 243.60 61.22 246.54 60.70 C 244.63 66.15 242.82 71.64 241.48 77.26 C 251.45 73.80 261.20 69.69 271.19 66.31 C 276.95 66.18 282.68 67.44 288.43 67.92 C 288.27 65.37 288.11 62.82 288.06 60.27 C 291.88 60.92 295.70 61.55 299.53 62.17 C 298.47 64.07 297.41 65.97 296.34 67.87 C 300.57 69.29 304.87 70.49 309.18 71.62 C 311.20 69.17 313.17 66.69 315.11 64.18 C 318.75 64.76 322.39 65.39 326.03 66.00 C 325.59 67.93 325.16 69.86 324.76 71.80 C 328.29 72.36 331.83 72.93 335.34 73.62 C 336.22 71.80 336.89 69.89 337.40 67.93 C 341.27 69.00 345.00 70.52 348.86 71.64 C 345.60 75.28 342.48 79.05 339.60 83.00 C 347.09 83.65 354.58 84.28 362.08 84.87 C 367.98 93.01 373.80 101.20 379.59 109.41 C 379.92 110.06 381.19 111.54 381.48 109.99 C 384.16 103.14 387.32 96.47 391.12 90.16 C 394.58 92.82 398.17 95.32 401.58 98.06 C 398.64 100.69 395.39 102.94 392.67 105.81 C 396.95 108.34 401.16 111.05 405.73 113.05 C 407.54 111.19 409.36 109.34 411.19 107.50 C 414.18 110.10 417.41 112.41 420.40 115.02 C 418.04 116.34 415.69 117.67 413.35 119.02 C 416.17 122.86 419.35 126.42 422.35 130.12 C 425.03 128.38 427.58 126.46 430.09 124.48 C 431.18 125.32 432.30 126.11 433.43 126.91 C 427.22 130.93 421.30 135.66 416.89 141.66 C 425.13 145.12 433.13 149.12 441.29 152.77 C 442.68 160.25 443.77 167.78 445.12 175.27 C 449.33 170.18 453.39 164.97 457.86 160.10 C 459.78 163.21 461.79 166.27 463.71 169.38 C 461.37 169.64 459.04 169.88 456.71 170.10 C 457.00 173.79 457.61 177.45 458.30 181.09 C 460.81 181.18 463.32 181.15 465.84 181.01 C 467.50 184.23 469.60 187.21 471.37 190.37 C 468.32 191.24 465.23 191.95 462.12 192.54 C 463.99 196.81 465.49 201.26 467.70 205.37 C 469.57 205.94 471.57 205.64 473.50 205.73 C 475.85 213.20 481.65 219.82 480.99 227.99 C 470.90 222.40 460.07 218.26 448.98 215.15 C 450.51 221.49 452.43 227.73 454.06 234.05 C 454.60 235.53 454.23 237.05 453.74 238.49 C 451.50 245.15 449.20 251.80 447.10 258.51 C 457.66 256.96 468.54 256.33 479.09 258.35 C 477.79 268.52 476.52 278.70 475.29 288.88 C 472.90 288.81 470.47 288.52 468.11 288.96 C 465.34 292.08 464.16 296.31 462.18 299.95 C 465.88 300.75 469.61 301.37 473.37 301.90 C 472.29 307.21 471.03 312.48 469.85 317.76 C 462.56 312.13 454.11 308.01 445.18 305.73 C 445.56 313.83 446.65 321.88 446.84 329.98 C 441.85 336.17 435.56 341.34 430.14 347.21 C 438.90 350.04 447.46 353.57 455.49 358.09 C 454.53 359.53 453.59 360.99 452.55 362.37 C 450.20 360.34 447.71 358.47 445.04 356.89 C 441.87 360.43 438.79 364.06 435.95 367.88 C 438.34 369.27 440.76 370.62 443.19 371.96 C 442.49 373.74 441.93 375.58 441.36 377.41 C 438.94 376.12 436.49 374.91 434.01 373.75 C 431.28 375.95 428.85 378.48 426.54 381.11 C 427.73 382.44 428.91 383.76 430.10 385.09 C 429.05 385.92 428.02 386.79 427.00 387.65 C 422.70 382.04 417.46 377.06 411.18 373.73 C 408.61 380.01 406.18 386.33 403.59 392.60 C 394.95 395.77 386.21 398.67 377.63 401.99 C 383.73 406.26 389.94 410.45 395.38 415.58 C 393.24 416.61 391.09 417.65 388.99 418.77 C 388.14 417.62 387.30 416.48 386.47 415.34 C 383.25 417.07 380.14 418.98 377.15 421.07 C 377.83 422.22 378.50 423.37 379.19 424.54 C 376.66 425.92 374.07 427.19 371.46 428.41 C 370.27 426.56 369.07 424.72 367.85 422.89 C 364.65 423.92 361.52 425.14 358.47 426.55 C 358.36 429.07 358.27 431.58 358.18 434.10 C 354.77 434.78 351.30 435.10 347.86 435.52 C 348.55 430.06 348.77 424.55 348.87 419.05 C 344.26 422.66 340.25 427.13 335.30 430.23 C 326.75 431.10 318.14 431.59 309.55 432.06 C 310.04 435.96 310.59 439.86 310.82 443.78 C 306.57 444.29 302.33 444.98 298.06 445.33 C 297.02 443.17 296.91 439.68 293.99 439.25 C 291.52 438.53 288.95 438.31 286.40 438.10 C 285.91 439.93 285.43 441.77 284.94 443.61 C 283.51 443.51 282.09 443.43 280.67 443.37 C 280.79 441.50 280.81 439.63 280.83 437.77 C 275.82 437.48 270.84 436.86 265.84 436.48 C 257.62 436.39 250.85 431.10 243.32 428.51 C 242.88 431.53 242.43 434.56 241.91 437.58 C 234.65 437.11 227.40 436.52 220.15 435.99 C 221.84 431.24 223.02 426.15 222.35 421.09 C 221.29 412.17 218.35 403.63 215.38 395.20 C 215.76 394.98 216.52 394.54 216.91 394.32 C 224.13 389.95 230.94 384.85 237.04 379.00 C 239.21 376.76 241.71 374.62 242.86 371.64 C 244.36 370.50 245.88 369.38 247.12 367.95 C 254.28 358.82 260.00 347.86 260.25 336.03 C 259.11 325.52 256.80 314.82 251.49 305.57 C 245.82 296.39 236.21 290.47 226.35 286.67 C 226.27 278.46 226.36 270.25 226.33 262.03 C 226.37 258.23 225.46 254.11 222.40 251.57 C 219.00 248.58 214.17 249.20 209.99 249.12 C 204.78 249.35 199.52 248.68 194.35 249.46 C 185.43 252.04 182.63 263.04 173.71 265.67 C 173.39 253.46 173.71 241.24 173.55 229.02 C 173.44 224.96 173.98 220.92 174.87 216.97 C 172.63 216.99 170.39 217.02 168.16 217.07 C 165.18 220.57 161.82 223.72 158.45 226.83 C 158.61 227.61 158.93 229.16 159.09 229.93 C 161.37 230.11 163.65 230.27 165.94 230.41 C 165.34 241.16 161.74 252.26 153.85 259.90 C 145.98 268.00 133.99 271.19 122.96 269.73 C 117.37 269.36 111.05 266.95 109.19 261.13 C 103.50 264.95 97.18 267.98 90.19 268.13 C 85.02 263.59 87.26 256.42 87.66 250.53 C 91.09 251.47 94.64 250.39 97.49 248.42 C 107.43 241.84 113.37 229.87 113.12 218.01 C 113.00 212.11 112.23 205.58 107.97 201.10 C 103.49 196.49 96.78 195.57 90.73 194.68 C 89.60 194.21 88.47 193.72 87.37 193.21 C 89.65 188.86 90.66 184.01 92.37 179.44 C 113.35 196.01 139.88 205.14 166.57 205.67 C 184.05 205.91 201.53 205.68 219.01 205.79 C 223.94 205.65 229.06 207.97 231.46 212.41 C 234.97 218.39 233.59 225.54 233.87 232.12 C 245.25 232.15 256.64 232.15 268.02 232.13 C 274.69 232.13 281.36 231.60 287.93 230.44 C 286.89 232.74 286.03 235.39 283.80 236.84 C 281.43 238.00 278.63 237.94 276.32 239.25 C 274.65 243.47 275.37 248.60 277.42 252.60 C 280.75 258.64 289.08 258.62 292.76 264.32 C 294.58 266.80 294.15 270.05 294.26 272.95 C 294.10 276.89 294.62 280.89 293.88 284.79 C 292.30 286.29 290.49 287.53 288.78 288.87 C 290.45 290.53 291.80 292.81 294.06 293.71 C 296.99 293.52 300.76 291.20 302.99 294.16 C 304.24 297.19 303.69 300.69 303.58 303.90 C 303.66 305.92 301.97 307.67 299.93 307.57 C 290.67 307.74 281.40 307.61 272.14 307.61 C 270.65 300.20 272.51 292.74 273.07 285.34 C 265.53 286.81 256.98 288.28 250.03 284.04 C 242.93 279.46 239.68 271.00 238.26 263.01 C 237.07 254.74 237.85 246.36 237.68 238.04 C 235.81 237.94 233.94 237.82 232.07 237.74 C 232.05 248.96 231.11 260.53 234.74 271.34 C 237.47 279.61 242.24 287.57 249.58 292.49 C 253.76 295.36 259.08 294.15 263.82 294.34 C 264.29 299.60 263.80 305.09 265.80 310.08 C 267.14 313.54 270.66 315.33 272.78 318.21 C 273.79 320.01 273.23 322.17 273.31 324.13 C 270.95 324.50 268.59 324.86 266.23 325.21 C 265.67 331.80 265.99 338.41 265.90 345.01 C 266.09 346.63 265.68 348.67 267.05 349.90 C 268.12 350.98 269.78 350.81 271.17 351.11 C 269.04 354.28 266.32 357.01 264.33 360.27 C 264.16 362.89 264.97 365.53 266.12 367.86 C 268.03 370.27 270.83 371.74 273.27 373.53 C 276.89 370.14 279.74 366.05 282.97 362.31 C 279.24 358.66 275.70 354.83 271.96 351.20 C 275.36 350.99 278.93 351.38 282.22 350.30 C 283.72 348.96 284.45 347.01 285.44 345.30 C 286.35 345.37 287.26 345.42 288.18 345.48 C 288.89 347.27 288.65 350.26 291.04 350.72 C 296.57 351.35 302.16 351.06 307.70 350.72 C 308.34 349.61 308.98 348.49 309.63 347.39 C 319.20 347.19 328.95 345.96 337.63 341.66 C 349.90 335.90 359.31 325.29 365.36 313.34 C 370.62 303.26 374.06 292.33 376.39 281.23 C 377.49 276.07 378.49 270.69 381.51 266.25 C 389.47 263.88 395.01 256.77 398.52 249.58 C 405.52 234.76 400.49 215.35 386.82 206.16 C 377.04 199.18 363.44 198.18 352.76 203.70 C 346.32 207.11 340.86 212.51 337.71 219.12 C 331.29 220.33 324.71 221.14 318.60 223.58 C 314.13 225.23 310.01 227.67 305.82 229.93 C 305.76 228.23 305.56 226.55 305.51 224.86 C 320.55 218.16 331.15 203.29 333.24 187.04 C 335.66 173.89 331.03 160.39 323.01 150.00 C 309.18 132.19 287.52 120.62 265.02 119.04 C 246.58 118.38 228.12 120.81 210.22 125.20 C 194.97 128.87 180.30 134.49 165.49 139.58 C 159.83 141.44 154.04 143.41 148.01 143.36 C 138.06 143.28 128.28 140.70 119.18 136.77 C 120.79 135.55 122.61 134.48 123.72 132.74 C 123.99 130.85 121.48 131.21 120.33 130.55 C 122.52 128.06 124.29 125.23 126.44 122.70 C 127.66 123.91 128.87 125.13 130.09 126.35 C 133.63 124.15 137.28 122.05 140.50 119.40 C 140.89 117.06 136.98 116.61 135.59 115.20 C 138.24 112.78 140.71 110.18 143.26 107.66 C 144.45 110.79 145.78 113.87 147.14 116.94 C 153.45 110.63 159.78 104.34 166.05 97.98 C 168.03 95.70 171.18 95.33 173.91 94.50 C 180.65 92.57 187.41 90.67 194.15 88.73 C 191.71 84.99 188.98 81.45 186.55 77.71 C 190.48 76.68 194.16 74.95 198.00 73.64 C 199.18 76.78 200.48 79.88 202.00 82.88 C 205.05 81.66 208.41 80.96 211.08 78.96 C 211.44 75.94 211.19 72.89 211.11 69.87 C 215.24 68.71 219.36 67.51 223.47 66.27 C 224.73 69.15 224.37 72.36 224.62 75.41 C 228.99 74.28 233.34 73.06 237.63 71.63 C 237.65 68.52 237.68 65.40 237.72 62.28 M 241.45 86.84 C 242.07 89.95 242.69 93.07 243.30 96.19 C 256.53 96.29 269.77 96.31 283.01 96.19 C 285.30 93.43 288.56 91.35 290.32 88.23 C 289.84 83.99 289.08 79.78 288.53 75.54 C 282.98 74.17 277.37 73.07 271.81 71.73 C 261.63 76.64 251.59 81.84 241.45 86.84 M 304.31 90.32 C 305.30 93.94 309.01 96.69 311.25 99.81 C 314.91 97.93 319.04 96.63 322.20 93.97 C 322.12 87.30 321.10 80.67 320.57 74.03 C 315.01 79.31 309.53 84.71 304.31 90.32 M 220.48 76.11 C 218.90 82.34 216.48 88.33 215.20 94.63 C 218.95 97.93 222.09 101.88 226.00 104.98 L 226.68 104.79 C 228.97 101.29 230.90 97.55 233.02 93.94 C 234.44 92.30 232.33 90.76 231.52 89.42 C 227.73 85.08 224.83 79.95 220.48 76.11 M 328.32 102.06 C 328.72 106.36 329.38 110.65 330.15 114.90 C 339.89 121.55 350.20 127.43 360.08 133.91 C 365.17 132.85 370.18 131.46 375.22 130.22 C 376.60 125.85 377.78 121.43 379.04 117.03 C 372.19 108.83 365.25 100.71 358.36 92.54 C 350.21 91.78 342.04 91.25 333.88 90.61 C 332.06 94.43 329.83 98.09 328.32 102.06 M 175.00 99.48 C 173.36 99.80 171.40 99.85 170.42 101.43 C 163.40 109.89 156.00 118.03 149.11 126.59 C 153.55 128.84 157.81 131.43 162.10 133.94 C 174.11 127.29 185.79 120.06 197.84 113.47 C 197.05 107.69 195.37 102.08 194.28 96.35 C 187.83 97.27 181.44 98.51 175.00 99.48 M 247.01 103.00 C 243.42 104.27 241.91 108.19 242.70 111.73 C 244.10 114.88 247.28 116.78 250.74 116.36 C 251.39 115.02 252.56 114.12 254.12 114.15 C 255.30 112.05 255.54 109.68 255.29 107.32 C 253.87 104.27 250.51 101.57 247.01 103.00 M 207.37 104.39 C 202.63 106.40 202.37 113.95 207.03 116.18 C 211.25 118.98 217.52 114.89 216.93 109.96 C 216.87 105.38 211.38 102.28 207.37 104.39 M 288.90 118.80 C 298.30 120.56 307.06 124.58 314.91 129.98 C 313.79 121.28 312.78 112.53 311.07 103.92 C 303.56 108.68 296.05 113.51 288.90 118.80 M 392.07 123.14 C 390.98 123.69 389.56 123.91 388.85 125.01 C 388.97 128.62 389.83 132.15 390.43 135.70 C 394.85 135.25 399.26 134.68 403.62 133.81 C 404.59 128.25 406.46 122.85 406.91 117.20 C 402.01 119.29 397.05 121.25 392.07 123.14 M 136.71 131.19 C 136.70 132.39 136.69 133.60 136.69 134.81 C 137.87 135.87 138.96 137.02 139.94 138.27 C 141.65 138.32 143.36 138.32 145.08 138.30 C 146.20 136.56 147.80 135.01 148.33 132.96 C 147.55 131.02 146.36 129.16 144.82 127.74 C 143.28 127.55 141.71 127.51 140.18 127.78 C 138.99 128.88 137.89 130.07 136.71 131.19 M 322.88 137.90 C 326.33 143.22 329.07 148.92 331.92 154.57 C 337.30 148.75 341.97 142.28 346.94 136.11 C 338.92 136.29 330.87 136.98 322.88 137.90 M 378.20 136.26 C 371.56 137.94 369.36 147.19 374.17 151.91 C 378.96 157.47 389.45 154.41 390.25 147.01 C 391.88 140.36 384.57 134.01 378.20 136.26 M 413.16 149.12 C 409.26 156.64 405.40 164.20 401.83 171.89 C 406.91 179.34 411.80 186.92 416.89 194.36 C 421.26 193.55 425.79 193.47 430.06 192.24 C 433.36 188.68 436.32 184.82 439.42 181.09 C 438.04 172.92 437.04 164.69 435.50 156.54 C 428.02 154.16 420.59 151.63 413.16 149.12 M 335.90 162.24 C 338.88 168.76 341.12 175.64 341.26 182.88 C 346.82 179.33 351.76 174.91 357.02 170.95 C 360.33 167.98 364.40 165.84 367.14 162.28 C 356.73 162.03 346.31 162.18 335.90 162.24 M 389.27 162.39 C 385.89 162.69 383.18 165.64 382.85 168.95 C 382.31 173.06 385.76 177.41 390.01 177.38 C 394.93 177.98 399.08 172.60 397.79 167.97 C 396.94 164.28 392.98 161.74 389.27 162.39 M 358.36 181.49 C 355.64 183.57 353.44 186.23 351.10 188.70 C 355.32 189.33 359.56 189.88 363.77 190.60 C 366.37 187.01 368.98 183.39 370.95 179.41 C 366.76 180.14 362.47 180.37 358.36 181.49 M 375.87 190.74 C 379.31 193.10 382.66 195.63 386.31 197.66 C 388.75 196.68 390.37 194.27 391.98 192.25 C 388.27 189.91 384.69 187.39 380.95 185.11 C 379.02 186.75 376.92 188.36 375.87 190.74 M 341.31 190.84 C 339.34 197.76 334.99 203.49 330.75 209.15 C 338.08 207.13 345.28 204.61 352.41 201.97 C 349.10 197.92 345.34 194.17 341.31 190.84 M 439.63 194.52 C 437.58 197.46 435.67 200.51 434.07 203.73 C 437.96 204.35 441.85 204.96 445.76 205.47 C 447.36 205.92 448.27 204.14 449.35 203.29 C 452.54 199.77 456.31 196.78 459.15 192.94 C 452.62 192.96 446.13 193.93 439.63 194.52 M 396.29 201.96 C 398.29 205.71 400.89 209.16 403.33 212.64 C 406.24 212.23 408.43 209.24 410.95 207.68 C 408.14 203.80 404.95 200.22 401.85 196.59 C 399.70 198.03 397.62 199.71 396.29 201.96 M 421.36 198.37 C 417.08 199.58 415.30 205.41 418.11 208.85 C 421.04 212.95 428.44 211.86 429.71 206.84 C 431.76 201.96 426.11 196.75 421.36 198.37 M 120.98 205.78 C 122.08 210.71 123.11 215.83 122.33 220.89 C 120.04 229.23 113.74 235.76 111.02 243.93 C 109.96 246.11 111.20 249.16 113.89 248.96 C 123.92 249.14 134.98 247.65 142.77 240.75 C 148.85 235.33 151.53 224.85 145.79 218.26 C 139.55 211.03 129.96 207.97 120.98 205.78 M 424.43 224.56 C 423.82 229.39 423.47 234.24 422.91 239.08 C 421.60 245.47 426.30 250.88 428.22 256.68 C 431.91 257.87 435.61 259.04 439.24 260.41 C 443.36 252.40 446.82 244.06 450.72 235.94 C 447.61 229.01 444.48 222.08 441.29 215.19 C 435.70 218.36 430.07 221.47 424.43 224.56 M 405.94 220.99 C 405.66 225.91 407.00 230.81 407.40 235.71 C 410.59 234.60 413.77 233.45 416.76 231.87 C 416.02 227.00 415.65 222.08 414.73 217.24 C 411.82 218.49 408.55 219.15 405.94 220.99 M 407.22 241.97 C 405.40 244.95 403.48 247.89 401.97 251.05 C 403.65 252.95 405.25 255.06 407.64 256.13 C 410.00 252.60 412.31 249.03 414.76 245.56 C 412.42 244.03 409.95 242.65 407.22 241.97 M 247.19 249.35 C 251.40 253.53 255.53 257.79 259.83 261.87 C 260.56 255.92 260.21 249.89 260.07 243.91 C 255.60 245.28 251.39 247.32 247.19 249.35 M 399.30 259.22 C 396.24 261.18 393.55 263.66 390.76 265.98 C 392.24 268.03 394.10 269.76 396.06 271.36 C 398.69 268.44 401.39 265.50 403.37 262.08 C 402.07 261.14 401.12 258.98 399.30 259.22 M 258.92 269.42 C 263.01 272.82 268.30 274.46 272.97 276.96 C 272.36 272.16 270.84 267.55 269.72 262.86 C 265.76 264.39 262.57 267.31 258.92 269.42 M 386.39 270.12 C 384.14 272.69 381.30 274.78 379.36 277.60 C 380.53 278.67 381.63 281.09 383.50 280.52 C 385.94 278.37 388.47 276.15 390.10 273.28 C 388.89 272.19 387.66 271.13 386.39 270.12 M 434.12 272.03 C 437.06 277.01 440.08 281.95 443.30 286.75 C 448.91 285.84 454.48 284.72 460.09 283.81 C 461.23 283.71 462.28 283.25 463.10 282.44 C 457.75 278.29 452.47 274.06 447.03 270.02 C 442.70 270.56 438.35 270.97 434.12 272.03 M 417.20 272.31 C 411.12 274.28 409.07 282.92 413.56 287.44 C 417.92 293.09 428.18 290.83 429.67 283.80 C 432.19 276.69 424.08 269.28 417.20 272.31 M 390.49 283.01 C 392.25 284.37 393.91 286.00 396.05 286.75 C 398.70 286.61 401.23 285.71 403.76 284.94 C 404.47 282.41 405.13 279.84 405.24 277.20 C 402.17 276.53 399.08 275.90 395.95 275.62 C 394.03 278.01 392.19 280.46 390.49 283.01 M 380.40 294.49 C 378.36 296.46 378.98 299.43 378.98 301.96 C 382.64 304.38 386.14 307.08 389.99 309.20 C 392.65 309.65 395.28 308.31 397.86 307.75 C 399.09 302.58 401.23 297.49 401.28 292.13 C 396.43 290.71 391.90 288.32 386.99 287.11 C 384.18 288.66 382.67 292.15 380.40 294.49 M 426.19 303.99 C 421.21 313.38 416.18 322.75 411.20 332.14 C 414.87 336.48 418.67 340.73 422.25 345.16 C 428.30 340.55 433.76 335.18 439.45 330.13 C 438.59 321.97 438.42 313.75 437.33 305.63 C 433.59 305.19 429.93 304.34 426.19 303.99 M 369.90 318.97 C 371.93 322.25 374.46 325.24 377.08 328.07 C 380.28 328.84 383.62 328.39 386.87 328.19 C 388.30 325.79 389.85 323.46 391.20 321.01 C 391.74 320.03 392.59 318.56 391.20 317.82 C 387.11 314.49 383.25 310.87 379.07 307.65 C 375.96 311.36 372.39 314.83 369.90 318.97 M 356.51 337.90 C 359.64 341.54 362.29 345.68 365.94 348.84 C 369.45 346.93 372.23 343.81 375.42 341.39 C 377.93 339.85 377.55 336.58 377.02 334.10 C 373.68 331.11 369.65 329.02 365.94 326.52 C 362.61 330.15 359.38 333.89 356.51 337.90 M 336.33 348.42 C 335.21 349.61 335.54 351.48 335.81 352.95 C 338.42 356.04 341.35 358.90 344.37 361.60 C 345.49 362.80 346.50 360.83 347.23 360.17 C 350.24 356.41 353.64 352.97 356.44 349.03 C 353.99 346.53 351.74 343.78 348.90 341.72 C 346.96 341.39 344.96 341.39 343.05 341.83 C 340.58 343.77 338.40 346.07 336.33 348.42 M 390.31 345.43 C 384.18 345.84 380.59 353.70 384.28 358.62 C 387.64 364.18 397.18 363.26 399.20 357.01 C 401.83 351.38 396.52 344.22 390.31 345.43 M 322.28 349.19 C 319.26 353.08 315.78 356.59 313.05 360.70 C 316.18 363.73 319.23 366.83 322.32 369.90 C 326.36 367.12 329.96 363.78 333.76 360.68 C 332.71 358.04 331.73 355.30 329.98 353.03 C 327.70 351.25 324.95 350.23 322.28 349.19 M 407.61 349.64 C 408.30 353.81 408.24 358.25 409.70 362.23 C 414.88 365.18 420.61 367.02 425.91 369.76 C 424.57 363.48 422.35 357.43 420.65 351.25 C 416.35 350.50 412.01 349.28 407.61 349.64 M 298.83 353.78 C 295.34 357.12 291.94 360.55 288.61 364.06 C 291.33 368.20 294.74 371.84 298.00 375.56 C 302.55 372.59 307.01 369.46 311.25 366.06 C 309.36 362.05 309.02 356.32 304.11 354.81 C 302.46 354.29 300.42 352.18 298.83 353.78 M 349.18 366.30 C 342.94 367.25 341.16 376.43 346.32 379.85 C 350.58 383.16 357.53 380.38 358.26 375.03 C 359.48 369.96 354.18 364.83 349.18 366.30 M 384.28 370.21 C 381.36 371.91 377.55 372.63 375.73 375.75 C 373.16 379.57 370.25 383.15 367.86 387.09 C 369.11 390.04 370.28 393.04 371.40 396.05 C 377.80 394.62 383.85 392.00 390.13 390.14 C 391.68 389.45 393.85 389.37 394.74 387.69 C 397.71 382.42 400.58 377.10 403.56 371.84 C 399.91 369.99 396.33 368.00 392.58 366.38 C 389.62 367.01 387.08 369.05 384.28 370.21 M 303.26 381.31 C 299.02 382.08 296.44 387.25 298.76 391.01 C 301.06 396.02 309.40 395.29 310.91 390.02 C 312.77 385.33 308.02 380.21 303.26 381.31 M 226.36 398.27 C 228.49 403.75 229.56 409.68 232.38 414.86 C 236.19 409.01 241.37 404.01 244.82 398.00 C 243.50 393.58 241.18 389.52 239.60 385.19 C 235.07 389.43 230.78 393.92 226.36 398.27 M 349.06 387.07 C 347.79 390.16 345.72 393.23 345.50 396.57 C 350.81 402.15 356.35 407.51 361.81 412.95 C 362.22 406.71 362.21 400.44 361.83 394.21 C 357.51 391.93 353.39 389.32 349.06 387.07 M 267.57 396.07 C 268.21 398.11 269.88 399.79 271.94 400.40 C 274.45 400.50 276.79 398.45 277.45 396.10 C 278.03 393.57 275.77 391.97 274.18 390.49 C 273.33 390.49 271.63 390.51 270.78 390.52 C 269.18 391.94 267.27 393.68 267.57 396.07 M 304.02 405.86 C 304.64 412.83 306.24 419.70 307.62 426.56 C 315.63 425.64 323.72 425.53 331.71 424.51 C 336.47 420.56 340.45 415.71 345.06 411.58 C 339.63 405.66 333.80 400.12 328.11 394.46 C 320.16 398.43 311.81 401.69 304.02 405.86 M 279.29 411.38 C 282.78 418.96 286.75 426.32 290.43 433.81 C 293.61 426.34 296.89 418.90 299.76 411.30 C 296.49 407.12 294.05 402.24 290.09 398.65 C 286.49 402.89 282.80 407.05 279.29 411.38 M 241.41 409.65 C 242.09 413.35 242.70 417.07 243.31 420.78 C 249.53 423.97 255.83 427.00 262.04 430.22 C 267.77 428.59 273.34 426.49 279.01 424.72 C 277.74 421.48 276.85 417.98 274.98 415.05 C 269.00 410.55 262.69 406.50 256.69 402.04 C 251.53 404.44 246.46 407.03 241.41 409.65 Z" />
<path fill="#445f58" opacity="1.00" d=" M 312.08 236.05 C 317.72 230.34 326.34 228.60 334.05 229.96 C 332.95 240.99 336.29 252.72 344.65 260.31 C 350.58 266.44 358.99 269.36 367.35 270.05 C 366.83 273.06 366.50 276.10 365.94 279.11 C 358.23 279.62 350.04 279.33 343.02 283.07 C 339.43 284.96 337.46 288.98 337.64 292.97 C 337.67 303.32 340.53 313.62 339.08 323.98 C 338.43 327.68 335.67 330.64 332.65 332.65 C 327.15 336.18 320.50 337.25 314.10 337.73 C 312.59 337.57 310.42 338.30 309.48 336.72 C 309.12 333.39 309.30 330.03 309.20 326.69 C 303.17 326.59 297.10 326.16 291.11 326.81 C 287.34 327.97 289.02 332.84 288.59 335.79 C 287.39 335.85 286.19 335.90 284.99 335.97 C 284.71 332.65 285.20 329.16 284.09 325.98 C 282.73 324.76 280.67 324.83 279.00 324.26 C 279.77 318.22 285.63 314.02 291.43 313.53 C 297.06 313.01 302.89 312.75 308.08 310.23 C 310.57 309.12 313.84 307.28 312.91 304.00 C 312.91 297.75 306.99 293.38 307.39 287.09 C 307.32 274.05 307.43 261.00 307.36 247.96 C 307.19 243.54 308.91 239.14 312.08 236.05 Z" />
<path fill="#445f58" opacity="1.00" d=" M 293.33 235.48 C 296.57 234.40 302.12 233.84 303.36 237.96 C 303.86 242.71 298.93 245.71 294.98 246.93 C 291.62 248.00 285.59 247.83 285.67 243.02 C 286.36 239.21 289.96 236.80 293.33 235.48 Z" />
<path fill="#445f58" opacity="1.00" d=" M 295.39 248.47 C 299.19 247.19 304.67 250.21 303.59 254.68 C 302.39 260.03 294.15 261.37 291.29 256.72 C 289.27 253.42 291.93 249.27 295.39 248.47 Z" />
<path fill="#445f58" opacity="1.00" d=" M 189.75 261.79 C 191.03 259.04 192.57 255.80 195.95 255.32 C 201.67 254.45 207.87 254.33 213.26 256.71 C 215.37 257.52 216.75 259.68 216.80 261.92 C 217.06 265.61 216.92 269.32 216.80 273.02 C 213.50 269.52 210.42 264.20 205.02 264.28 C 197.98 266.07 193.65 272.87 187.00 275.42 C 183.89 275.60 182.31 272.54 181.08 270.21 C 184.22 267.70 188.01 265.61 189.75 261.79 Z" />
<path fill="#445f58" opacity="1.00" d=" M 192.40 281.23 C 196.17 278.70 199.81 275.93 203.86 273.83 C 206.97 276.20 210.08 278.58 213.01 281.17 C 211.98 284.36 210.67 287.44 209.34 290.50 C 203.17 291.31 196.98 292.16 190.76 292.26 C 191.03 288.54 191.67 284.87 192.40 281.23 Z" />
<path fill="#445f58" opacity="1.00" d=" M 355.18 287.32 C 358.81 286.10 364.99 286.34 365.87 291.02 C 366.09 294.77 362.37 297.28 359.07 297.96 C 355.68 298.80 350.81 298.34 349.41 294.58 C 348.58 290.95 352.18 288.34 355.18 287.32 Z" />
<path fill="#445f58" opacity="1.00" d=" M 190.83 302.01 C 197.49 300.57 204.24 299.57 210.91 298.21 C 211.53 309.19 211.30 320.23 211.05 331.23 C 209.75 330.05 208.68 328.66 207.76 327.18 C 202.28 318.68 196.00 310.70 190.83 302.01 Z" />
<path fill="#445f58" opacity="1.00" d=" M 356.37 303.44 C 358.28 303.18 360.67 303.49 361.84 305.21 C 362.55 307.09 361.08 308.81 359.59 309.72 C 356.87 311.41 353.21 312.42 350.28 310.62 C 348.98 309.90 349.07 308.12 349.82 307.04 C 351.28 304.89 353.88 303.84 356.37 303.44 Z" />
<path fill="#445f58" opacity="1.00" d=" M 348.15 317.33 C 350.82 316.32 354.96 317.98 354.50 321.28 C 353.59 325.86 345.65 325.53 345.22 320.91 C 344.79 319.03 346.68 317.93 348.15 317.33 Z" />
</g>
<g id="#2e332fff">
<path fill="#2e332f" opacity="1.00" d=" M 223.47 66.27 C 228.25 65.06 232.96 63.56 237.72 62.28 C 237.68 65.40 237.65 68.52 237.63 71.63 C 233.34 73.06 228.99 74.28 224.62 75.41 C 224.37 72.36 224.73 69.15 223.47 66.27 Z" />
<path fill="#2e332f" opacity="1.00" d=" M 299.53 62.17 C 304.70 62.98 309.92 63.41 315.11 64.18 C 313.17 66.69 311.20 69.17 309.18 71.62 C 304.87 70.49 300.57 69.29 296.34 67.87 C 297.41 65.97 298.47 64.07 299.53 62.17 Z" />
<path fill="#2e332f" opacity="1.00" d=" M 326.03 66.00 C 329.82 66.68 333.62 67.21 337.40 67.93 C 336.89 69.89 336.22 71.80 335.34 73.62 C 331.83 72.93 328.29 72.36 324.76 71.80 C 325.16 69.86 325.59 67.93 326.03 66.00 Z" />
<path fill="#2e332f" opacity="1.00" d=" M 198.00 73.64 C 202.36 72.34 206.75 71.15 211.11 69.87 C 211.19 72.89 211.44 75.94 211.08 78.96 C 208.41 80.96 205.05 81.66 202.00 82.88 C 200.48 79.88 199.18 76.78 198.00 73.64 Z" />
<path fill="#2e332f" opacity="1.00" d=" M 401.58 98.06 C 404.90 101.09 407.85 104.49 411.19 107.50 C 409.36 109.34 407.54 111.19 405.73 113.05 C 401.16 111.05 396.95 108.34 392.67 105.81 C 395.39 102.94 398.64 100.69 401.58 98.06 Z" />
<path fill="#2e332f" opacity="1.00" d=" M 420.40 115.02 C 423.75 118.05 426.69 121.51 430.09 124.48 C 427.58 126.46 425.03 128.38 422.35 130.12 C 419.35 126.42 416.17 122.86 413.35 119.02 C 415.69 117.67 418.04 116.34 420.40 115.02 Z" />
<path fill="#2e332f" opacity="1.00" d=" M 126.44 122.70 C 129.39 120.08 132.66 117.85 135.59 115.20 C 136.98 116.61 140.89 117.06 140.50 119.40 C 137.28 122.05 133.63 124.15 130.09 126.35 C 128.87 125.13 127.66 123.91 126.44 122.70 Z" />
<path fill="#2e332f" opacity="1.00" d=" M 120.33 130.55 C 121.48 131.21 123.99 130.85 123.72 132.74 C 122.61 134.48 120.79 135.55 119.18 136.77 C 118.04 136.24 116.91 135.70 115.78 135.14 C 117.32 133.63 118.86 132.13 120.33 130.55 Z" />
<path fill="#2e332f" opacity="1.00" d=" M 463.71 169.38 C 464.75 173.19 465.02 177.15 465.84 181.01 C 463.32 181.15 460.81 181.18 458.30 181.09 C 457.61 177.45 457.00 173.79 456.71 170.10 C 459.04 169.88 461.37 169.64 463.71 169.38 Z" />
<path fill="#2e332f" opacity="1.00" d=" M 471.37 190.37 C 472.33 195.45 472.54 200.65 473.50 205.73 C 471.57 205.64 469.57 205.94 467.70 205.37 C 465.49 201.26 463.99 196.81 462.12 192.54 C 465.23 191.95 468.32 191.24 471.37 190.37 Z" />
<path fill="#2e332f" opacity="1.00" d=" M 168.16 217.07 C 170.39 217.02 172.63 216.99 174.87 216.97 C 173.98 220.92 173.44 224.96 173.55 229.02 C 173.71 241.24 173.39 253.46 173.71 265.67 C 182.63 263.04 185.43 252.04 194.35 249.46 C 199.52 248.68 204.78 249.35 209.99 249.12 C 214.17 249.20 219.00 248.58 222.40 251.57 C 225.46 254.11 226.37 258.23 226.33 262.03 C 226.36 270.25 226.27 278.46 226.35 286.67 C 236.21 290.47 245.82 296.39 251.49 305.57 C 256.80 314.82 259.11 325.52 260.25 336.03 C 253.33 337.85 246.43 339.70 239.55 341.66 C 242.12 350.41 244.53 359.21 247.12 367.95 C 245.88 369.38 244.36 370.50 242.86 371.64 C 231.06 369.29 219.32 366.62 207.50 364.29 C 210.65 374.30 213.74 384.32 216.91 394.32 C 216.52 394.54 215.76 394.98 215.38 395.20 C 213.95 392.84 210.27 393.94 209.52 396.30 C 208.41 399.64 207.56 403.37 204.65 405.68 C 199.96 409.54 193.63 410.23 187.85 411.20 C 184.92 411.72 181.55 412.16 179.59 414.68 C 177.46 417.56 178.38 421.35 178.80 424.61 C 174.10 422.86 169.05 424.71 164.20 424.60 C 164.12 424.28 163.95 423.64 163.86 423.32 C 164.53 421.24 165.25 419.18 166.00 417.13 C 163.76 413.31 161.54 409.47 159.07 405.79 C 155.30 410.90 152.97 417.00 148.57 421.64 C 143.67 426.28 136.54 427.43 130.03 427.05 C 124.94 427.24 119.58 425.45 114.75 427.72 C 105.79 428.84 96.47 428.98 87.99 425.46 C 90.59 422.32 93.23 418.41 92.26 414.11 C 90.90 406.06 90.77 397.72 88.08 389.94 C 87.35 387.47 85.51 385.57 83.11 384.67 C 79.80 394.56 76.24 405.48 67.42 411.87 C 65.39 409.74 63.41 407.57 61.27 405.55 L 60.45 405.57 C 64.48 398.19 68.41 390.75 72.46 383.37 C 73.90 381.17 73.58 378.48 73.61 376.00 C 73.52 368.91 73.65 361.82 73.54 354.73 C 60.28 346.26 47.79 336.56 36.56 325.54 C 38.06 323.07 39.67 320.67 41.59 318.51 C 49.14 309.88 56.61 301.17 64.14 292.53 C 71.07 295.63 77.97 298.79 84.88 301.94 C 91.20 300.12 97.49 298.16 103.81 296.31 C 108.57 301.19 113.45 305.95 118.23 310.80 C 119.75 312.15 120.97 314.12 122.88 314.88 C 129.79 310.77 136.49 306.28 143.28 301.97 C 146.50 304.41 149.61 307.00 152.79 309.48 C 159.52 300.74 166.59 292.27 173.08 283.35 C 165.67 287.64 158.31 292.00 150.91 296.29 C 147.64 295.20 144.57 293.23 141.15 292.82 C 134.81 295.59 128.82 299.10 122.49 301.92 C 117.65 296.86 112.56 292.05 107.72 286.98 C 100.18 288.03 92.57 288.64 84.95 288.79 C 87.30 282.07 88.98 275.14 90.19 268.13 C 97.18 267.98 103.50 264.95 109.19 261.13 C 111.05 266.95 117.37 269.36 122.96 269.73 C 133.99 271.19 145.98 268.00 153.85 259.90 C 161.74 252.26 165.34 241.16 165.94 230.41 C 163.65 230.27 161.37 230.11 159.09 229.93 C 158.93 229.16 158.61 227.61 158.45 226.83 C 161.82 223.72 165.18 220.57 168.16 217.07 M 189.75 261.79 C 188.01 265.61 184.22 267.70 181.08 270.21 C 182.31 272.54 183.89 275.60 187.00 275.42 C 193.65 272.87 197.98 266.07 205.02 264.28 C 210.42 264.20 213.50 269.52 216.80 273.02 C 216.92 269.32 217.06 265.61 216.80 261.92 C 216.75 259.68 215.37 257.52 213.26 256.71 C 207.87 254.33 201.67 254.45 195.95 255.32 C 192.57 255.80 191.03 259.04 189.75 261.79 M 192.40 281.23 C 191.67 284.87 191.03 288.54 190.76 292.26 C 196.98 292.16 203.17 291.31 209.34 290.50 C 210.67 287.44 211.98 284.36 213.01 281.17 C 210.08 278.58 206.97 276.20 203.86 273.83 C 199.81 275.93 196.17 278.70 192.40 281.23 M 222.53 289.01 C 222.04 296.39 221.17 303.74 220.88 311.13 C 225.79 308.72 230.44 305.84 235.28 303.30 C 236.27 302.94 237.78 301.68 236.27 300.81 C 231.71 296.86 227.32 292.68 222.53 289.01 M 190.83 302.01 C 196.00 310.70 202.28 318.68 207.76 327.18 C 208.68 328.66 209.75 330.05 211.05 331.23 C 211.30 320.23 211.53 309.19 210.91 298.21 C 204.24 299.57 197.49 300.57 190.83 302.01 M 234.06 313.34 C 232.60 319.41 231.28 325.54 230.43 331.73 C 237.82 327.74 245.14 323.53 252.21 318.99 C 246.27 316.76 240.09 315.27 234.06 313.34 M 79.19 332.91 C 78.64 346.37 82.53 359.49 86.81 372.09 C 90.70 383.52 94.21 395.22 100.35 405.69 C 104.55 412.90 110.75 419.61 119.07 421.81 C 126.72 423.71 135.55 422.84 141.91 417.88 C 147.86 413.20 150.42 405.55 150.97 398.24 C 140.28 390.34 130.12 381.70 120.83 372.18 C 107.56 358.51 96.06 343.23 85.51 327.41 C 84.63 326.28 83.70 324.53 81.99 324.85 C 79.50 326.64 79.54 330.15 79.19 332.91 M 141.53 337.01 C 140.25 345.23 142.82 353.55 145.67 361.20 C 152.24 377.50 162.44 392.03 173.37 405.68 C 179.23 405.65 185.42 406.52 190.96 404.14 C 200.21 400.27 203.18 386.23 195.81 379.24 C 190.74 374.33 184.25 371.31 178.42 367.45 C 165.90 359.68 156.02 348.53 146.66 337.33 C 145.52 335.57 142.09 333.95 141.53 337.01 Z" />
<path fill="#2e332f" opacity="1.00" d=" M 318.60 223.58 C 324.71 221.14 331.29 220.33 337.71 219.12 L 339.37 219.03 C 338.30 222.67 337.21 226.30 335.84 229.84 C 335.39 229.87 334.50 229.93 334.05 229.96 C 326.34 228.60 317.72 230.34 312.08 236.05 C 308.91 239.14 307.19 243.54 307.36 247.96 C 307.43 261.00 307.32 274.05 307.39 287.09 C 306.99 293.38 312.91 297.75 312.91 304.00 C 313.84 307.28 310.57 309.12 308.08 310.23 C 302.89 312.75 297.06 313.01 291.43 313.53 C 285.63 314.02 279.77 318.22 279.00 324.26 C 280.67 324.83 282.73 324.76 284.09 325.98 C 285.20 329.16 284.71 332.65 284.99 335.97 C 286.19 335.90 287.39 335.85 288.59 335.79 C 289.02 332.84 287.34 327.97 291.11 326.81 C 297.10 326.16 303.17 326.59 309.20 326.69 C 309.30 330.03 309.12 333.39 309.48 336.72 C 310.42 338.30 312.59 337.57 314.10 337.73 C 320.50 337.25 327.15 336.18 332.65 332.65 C 335.67 330.64 338.43 327.68 339.08 323.98 C 340.53 313.62 337.67 303.32 337.64 292.97 C 337.46 288.98 339.43 284.96 343.02 283.07 C 350.04 279.33 358.23 279.62 365.94 279.11 C 366.50 276.10 366.83 273.06 367.35 270.05 C 367.48 269.52 367.73 268.47 367.86 267.95 C 373.26 266.10 378.69 264.32 384.08 262.43 C 383.21 263.69 382.34 264.96 381.51 266.25 C 378.49 270.69 377.49 276.07 376.39 281.23 C 374.06 292.33 370.62 303.26 365.36 313.34 C 359.31 325.29 349.90 335.90 337.63 341.66 C 328.95 345.96 319.20 347.19 309.63 347.39 C 308.98 348.49 308.34 349.61 307.70 350.72 C 302.16 351.06 296.57 351.35 291.04 350.72 C 288.65 350.26 288.89 347.27 288.18 345.48 C 287.26 345.42 286.35 345.37 285.44 345.30 C 284.45 347.01 283.72 348.96 282.22 350.30 C 278.93 351.38 275.36 350.99 271.96 351.20 L 271.17 351.11 C 269.78 350.81 268.12 350.98 267.05 349.90 C 265.68 348.67 266.09 346.63 265.90 345.01 C 265.99 338.41 265.67 331.80 266.23 325.21 C 268.59 324.86 270.95 324.50 273.31 324.13 C 273.23 322.17 273.79 320.01 272.78 318.21 C 270.66 315.33 267.14 313.54 265.80 310.08 C 263.80 305.09 264.29 299.60 263.82 294.34 C 259.08 294.15 253.76 295.36 249.58 292.49 C 242.24 287.57 237.47 279.61 234.74 271.34 C 231.11 260.53 232.05 248.96 232.07 237.74 C 233.94 237.82 235.81 237.94 237.68 238.04 C 237.85 246.36 237.07 254.74 238.26 263.01 C 239.68 271.00 242.93 279.46 250.03 284.04 C 256.98 288.28 265.53 286.81 273.07 285.34 C 272.51 292.74 270.65 300.20 272.14 307.61 C 281.40 307.61 290.67 307.74 299.93 307.57 C 301.97 307.67 303.66 305.92 303.58 303.90 C 303.69 300.69 304.24 297.19 302.99 294.16 C 300.76 291.20 296.99 293.52 294.06 293.71 C 291.80 292.81 290.45 290.53 288.78 288.87 C 290.49 287.53 292.30 286.29 293.88 284.79 C 294.62 280.89 294.10 276.89 294.26 272.95 C 294.15 270.05 294.58 266.80 292.76 264.32 C 289.08 258.62 280.75 258.64 277.42 252.60 C 275.37 248.60 274.65 243.47 276.32 239.25 C 278.63 237.94 281.43 238.00 283.80 236.84 C 286.03 235.39 286.89 232.74 287.93 230.44 C 293.97 229.23 299.95 227.53 305.51 224.86 C 305.56 226.55 305.76 228.23 305.82 229.93 C 310.01 227.67 314.13 225.23 318.60 223.58 M 293.33 235.48 C 289.96 236.80 286.36 239.21 285.67 243.02 C 285.59 247.83 291.62 248.00 294.98 246.93 C 298.93 245.71 303.86 242.71 303.36 237.96 C 302.12 233.84 296.57 234.40 293.33 235.48 M 295.39 248.47 C 291.93 249.27 289.27 253.42 291.29 256.72 C 294.15 261.37 302.39 260.03 303.59 254.68 C 304.67 250.21 299.19 247.19 295.39 248.47 M 355.18 287.32 C 352.18 288.34 348.58 290.95 349.41 294.58 C 350.81 298.34 355.68 298.80 359.07 297.96 C 362.37 297.28 366.09 294.77 365.87 291.02 C 364.99 286.34 358.81 286.10 355.18 287.32 M 356.37 303.44 C 353.88 303.84 351.28 304.89 349.82 307.04 C 349.07 308.12 348.98 309.90 350.28 310.62 C 353.21 312.42 356.87 311.41 359.59 309.72 C 361.08 308.81 362.55 307.09 361.84 305.21 C 360.67 303.49 358.28 303.18 356.37 303.44 M 348.15 317.33 C 346.68 317.93 344.79 319.03 345.22 320.91 C 345.65 325.53 353.59 325.86 354.50 321.28 C 354.96 317.98 350.82 316.32 348.15 317.33 Z" />
<path fill="#2e332f" opacity="1.00" d=" M 462.18 299.95 C 464.16 296.31 465.34 292.08 468.11 288.96 C 470.47 288.52 472.90 288.81 475.29 288.88 C 474.60 293.21 474.09 297.57 473.37 301.90 C 469.61 301.37 465.88 300.75 462.18 299.95 Z" />
<path fill="#2e332f" opacity="1.00" d=" M 435.95 367.88 C 438.79 364.06 441.87 360.43 445.04 356.89 C 447.71 358.47 450.20 360.34 452.55 362.37 C 449.55 365.68 446.12 368.58 443.19 371.96 C 440.76 370.62 438.34 369.27 435.95 367.88 Z" />
<path fill="#2e332f" opacity="1.00" d=" M 426.54 381.11 C 428.85 378.48 431.28 375.95 434.01 373.75 C 436.49 374.91 438.94 376.12 441.36 377.41 C 437.62 379.99 433.75 382.39 430.10 385.09 C 428.91 383.76 427.73 382.44 426.54 381.11 Z" />
<path fill="#2e332f" opacity="1.00" d=" M 377.15 421.07 C 380.14 418.98 383.25 417.07 386.47 415.34 C 387.30 416.48 388.14 417.62 388.99 418.77 C 385.67 420.60 382.50 422.69 379.19 424.54 C 378.50 423.37 377.83 422.22 377.15 421.07 Z" />
<path fill="#2e332f" opacity="1.00" d=" M 358.47 426.55 C 361.52 425.14 364.65 423.92 367.85 422.89 C 369.07 424.72 370.27 426.56 371.46 428.41 C 367.06 430.36 362.65 432.30 358.18 434.10 C 358.27 431.58 358.36 429.07 358.47 426.55 Z" />
<path fill="#2e332f" opacity="1.00" d=" M 286.40 438.10 C 288.95 438.31 291.52 438.53 293.99 439.25 C 296.91 439.68 297.02 443.17 298.06 445.33 C 293.67 444.88 289.34 443.94 284.94 443.61 C 285.43 441.77 285.91 439.93 286.40 438.10 Z" />
</g>
<g id="#6e7b71ff">
<path fill="#6e7b71" opacity="1.00" d=" M 304.31 90.32 C 309.53 84.71 315.01 79.31 320.57 74.03 C 321.10 80.67 322.12 87.30 322.20 93.97 C 319.04 96.63 314.91 97.93 311.25 99.81 C 309.01 96.69 305.30 93.94 304.31 90.32 Z" />
<path fill="#6e7b71" opacity="1.00" d=" M 220.48 76.11 C 224.83 79.95 227.73 85.08 231.52 89.42 C 232.33 90.76 234.44 92.30 233.02 93.94 C 230.90 97.55 228.97 101.29 226.68 104.79 L 226.00 104.98 C 222.09 101.88 218.95 97.93 215.20 94.63 C 216.48 88.33 218.90 82.34 220.48 76.11 Z" />
<path fill="#6e7b71" opacity="1.00" d=" M 207.37 104.39 C 211.38 102.28 216.87 105.38 216.93 109.96 C 217.52 114.89 211.25 118.98 207.03 116.18 C 202.37 113.95 202.63 106.40 207.37 104.39 Z" />
<path fill="#6e7b71" opacity="1.00" d=" M 288.90 118.80 C 296.05 113.51 303.56 108.68 311.07 103.92 C 312.78 112.53 313.79 121.28 314.91 129.98 C 307.06 124.58 298.30 120.56 288.90 118.80 Z" />
<path fill="#6e7b71" opacity="1.00" d=" M 392.07 123.14 C 397.05 121.25 402.01 119.29 406.91 117.20 C 406.46 122.85 404.59 128.25 403.62 133.81 C 399.26 134.68 394.85 135.25 390.43 135.70 C 389.83 132.15 388.97 128.62 388.85 125.01 C 389.56 123.91 390.98 123.69 392.07 123.14 Z" />
<path fill="#6e7b71" opacity="1.00" d=" M 322.88 137.90 C 330.87 136.98 338.92 136.29 346.94 136.11 C 341.97 142.28 337.30 148.75 331.92 154.57 C 329.07 148.92 326.33 143.22 322.88 137.90 Z" />
<path fill="#6e7b71" opacity="1.00" d=" M 378.20 136.26 C 384.57 134.01 391.88 140.36 390.25 147.01 C 389.45 154.41 378.96 157.47 374.17 151.91 C 369.36 147.19 371.56 137.94 378.20 136.26 M 378.28 140.44 C 376.69 142.22 374.67 144.57 375.92 147.10 C 377.25 151.65 384.67 151.77 386.00 147.15 C 387.34 144.60 385.26 142.18 383.62 140.41 C 381.83 140.44 380.06 140.45 378.28 140.44 Z" />
<path fill="#6e7b71" opacity="1.00" d=" M 184.44 164.50 C 189.61 162.07 194.65 159.36 199.81 156.91 C 199.79 163.65 199.80 170.39 199.80 177.14 C 193.93 173.63 188.04 170.14 182.21 166.58 C 181.93 165.21 183.60 165.09 184.44 164.50 Z" />
<path fill="#6e7b71" opacity="1.00" d=" M 145.90 166.39 C 150.79 163.15 156.57 161.43 161.84 158.86 C 162.05 164.28 162.07 169.72 161.93 175.14 C 156.54 172.31 151.32 169.17 145.90 166.39 Z" />
<path fill="#6e7b71" opacity="1.00" d=" M 225.79 169.51 C 232.79 167.11 239.88 164.97 246.82 162.38 C 246.92 167.94 246.85 173.50 246.89 179.06 C 240.75 176.54 234.66 173.90 228.49 171.43 C 227.42 171.05 226.48 170.41 225.79 169.51 Z" />
<path fill="#6e7b71" opacity="1.00" d=" M 335.90 162.24 C 346.31 162.18 356.73 162.03 367.14 162.28 C 364.40 165.84 360.33 167.98 357.02 170.95 C 351.76 174.91 346.82 179.33 341.26 182.88 C 341.12 175.64 338.88 168.76 335.90 162.24 Z" />
<path fill="#6e7b71" opacity="1.00" d=" M 389.27 162.39 C 392.98 161.74 396.94 164.28 397.79 167.97 C 399.08 172.60 394.93 177.98 390.01 177.38 C 385.76 177.41 382.31 173.06 382.85 168.95 C 383.18 165.64 385.89 162.69 389.27 162.39 Z" />
<path fill="#6e7b71" opacity="1.00" d=" M 358.36 181.49 C 362.47 180.37 366.76 180.14 370.95 179.41 C 368.98 183.39 366.37 187.01 363.77 190.60 C 359.56 189.88 355.32 189.33 351.10 188.70 C 353.44 186.23 355.64 183.57 358.36 181.49 Z" />
<path fill="#6e7b71" opacity="1.00" d=" M 375.87 190.74 C 376.92 188.36 379.02 186.75 380.95 185.11 C 384.69 187.39 388.27 189.91 391.98 192.25 C 390.37 194.27 388.75 196.68 386.31 197.66 C 382.66 195.63 379.31 193.10 375.87 190.74 Z" />
<path fill="#6e7b71" opacity="1.00" d=" M 341.31 190.84 C 345.34 194.17 349.10 197.92 352.41 201.97 C 345.28 204.61 338.08 207.13 330.75 209.15 C 334.99 203.49 339.34 197.76 341.31 190.84 Z" />
<path fill="#6e7b71" opacity="1.00" d=" M 439.63 194.52 C 446.13 193.93 452.62 192.96 459.15 192.94 C 456.31 196.78 452.54 199.77 449.35 203.29 C 448.27 204.14 447.36 205.92 445.76 205.47 C 441.85 204.96 437.96 204.35 434.07 203.73 C 435.67 200.51 437.58 197.46 439.63 194.52 Z" />
<path fill="#6e7b71" opacity="1.00" d=" M 396.29 201.96 C 397.62 199.71 399.70 198.03 401.85 196.59 C 404.95 200.22 408.14 203.80 410.95 207.68 C 408.43 209.24 406.24 212.23 403.33 212.64 C 400.89 209.16 398.29 205.71 396.29 201.96 Z" />
<path fill="#6e7b71" opacity="1.00" d=" M 421.36 198.37 C 426.11 196.75 431.76 201.96 429.71 206.84 C 428.44 211.86 421.04 212.95 418.11 208.85 C 415.30 205.41 417.08 199.58 421.36 198.37 Z" />
<path fill="#6e7b71" opacity="1.00" d=" M 352.76 203.70 C 363.44 198.18 377.04 199.18 386.82 206.16 C 400.49 215.35 405.52 234.76 398.52 249.58 C 395.01 256.77 389.47 263.88 381.51 266.25 C 382.34 264.96 383.21 263.69 384.08 262.43 C 378.69 264.32 373.26 266.10 367.86 267.95 C 367.73 268.47 367.48 269.52 367.35 270.05 C 358.99 269.36 350.58 266.44 344.65 260.31 C 336.29 252.72 332.95 240.99 334.05 229.96 C 334.50 229.93 335.39 229.87 335.84 229.84 C 337.21 226.30 338.30 222.67 339.37 219.03 L 337.71 219.12 C 340.86 212.51 346.32 207.11 352.76 203.70 M 353.22 212.21 C 352.36 212.83 351.04 213.30 351.22 214.60 C 353.64 217.02 356.24 219.26 358.95 221.35 C 362.29 219.66 365.90 218.44 369.69 218.69 C 369.59 215.14 369.54 211.58 369.70 208.02 C 363.94 207.19 358.05 209.12 353.22 212.21 M 371.95 208.01 C 371.75 211.63 371.36 215.34 372.03 218.92 C 373.70 220.34 375.87 221.16 377.93 221.90 C 380.87 220.10 383.23 217.51 386.00 215.47 C 382.62 211.19 377.11 209.17 371.95 208.01 M 341.57 233.84 C 345.23 233.80 348.90 233.81 352.57 233.81 C 352.69 229.92 354.38 226.40 356.69 223.37 C 353.96 221.01 351.14 218.76 348.54 216.26 C 344.19 221.04 341.73 227.38 341.57 233.84 M 380.05 224.36 C 381.27 226.76 382.34 229.24 383.16 231.81 C 386.77 231.80 390.39 231.80 394.00 231.85 C 393.50 226.62 391.54 221.53 388.15 217.50 C 385.35 219.66 382.72 222.03 380.05 224.36 M 365.25 227.41 C 359.10 229.78 358.77 239.47 364.75 242.25 C 369.81 245.40 377.40 241.07 376.85 235.03 C 377.48 229.20 370.36 224.64 365.25 227.41 M 383.28 234.16 C 382.90 236.48 382.38 238.79 381.47 240.97 C 384.27 243.20 387.22 245.22 390.16 247.26 C 393.06 243.58 393.87 238.73 393.96 234.17 C 390.40 234.20 386.84 234.20 383.28 234.16 M 341.98 236.19 C 341.96 241.58 344.53 246.44 347.47 250.79 C 350.31 248.62 353.61 246.80 355.88 244.04 C 354.76 241.43 353.27 238.97 352.66 236.16 C 349.10 236.19 345.54 236.20 341.98 236.19 M 368.15 249.40 C 368.19 253.02 368.20 256.65 368.18 260.28 C 376.07 260.09 383.92 256.38 388.63 249.97 C 385.84 247.81 383.01 245.70 380.01 243.84 C 376.68 246.83 372.70 249.11 368.15 249.40 M 358.26 246.42 C 355.50 248.28 352.95 250.45 350.31 252.49 C 350.34 252.77 350.39 253.34 350.41 253.63 C 354.69 257.30 360.10 259.83 365.80 260.02 C 365.80 256.42 365.80 252.81 365.79 249.20 C 363.10 248.78 360.78 247.05 358.26 246.42 Z" />
<path fill="#6e7b71" opacity="1.00" d=" M 405.94 220.99 C 408.55 219.15 411.82 218.49 414.73 217.24 C 415.65 222.08 416.02 227.00 416.76 231.87 C 413.77 233.45 410.59 234.60 407.40 235.71 C 407.00 230.81 405.66 225.91 405.94 220.99 Z" />
<path fill="#6e7b71" opacity="1.00" d=" M 407.22 241.97 C 409.95 242.65 412.42 244.03 414.76 245.56 C 412.31 249.03 410.00 252.60 407.64 256.13 C 405.25 255.06 403.65 252.95 401.97 251.05 C 403.48 247.89 405.40 244.95 407.22 241.97 Z" />
<path fill="#6e7b71" opacity="1.00" d=" M 247.19 249.35 C 251.39 247.32 255.60 245.28 260.07 243.91 C 260.21 249.89 260.56 255.92 259.83 261.87 C 255.53 257.79 251.40 253.53 247.19 249.35 Z" />
<path fill="#6e7b71" opacity="1.00" d=" M 399.30 259.22 C 401.12 258.98 402.07 261.14 403.37 262.08 C 401.39 265.50 398.69 268.44 396.06 271.36 C 394.10 269.76 392.24 268.03 390.76 265.98 C 393.55 263.66 396.24 261.18 399.30 259.22 Z" />
<path fill="#6e7b71" opacity="1.00" d=" M 258.92 269.42 C 262.57 267.31 265.76 264.39 269.72 262.86 C 270.84 267.55 272.36 272.16 272.97 276.96 C 268.30 274.46 263.01 272.82 258.92 269.42 Z" />
<path fill="#6e7b71" opacity="1.00" d=" M 386.39 270.12 C 387.66 271.13 388.89 272.19 390.10 273.28 C 388.47 276.15 385.94 278.37 383.50 280.52 C 381.63 281.09 380.53 278.67 379.36 277.60 C 381.30 274.78 384.14 272.69 386.39 270.12 Z" />
<path fill="#6e7b71" opacity="1.00" d=" M 434.12 272.03 C 438.35 270.97 442.70 270.56 447.03 270.02 C 452.47 274.06 457.75 278.29 463.10 282.44 C 462.28 283.25 461.23 283.71 460.09 283.81 C 454.48 284.72 448.91 285.84 443.30 286.75 C 440.08 281.95 437.06 277.01 434.12 272.03 Z" />
<path fill="#6e7b71" opacity="1.00" d=" M 417.20 272.31 C 424.08 269.28 432.19 276.69 429.67 283.80 C 428.18 290.83 417.92 293.09 413.56 287.44 C 409.07 282.92 411.12 274.28 417.20 272.31 M 417.37 276.49 C 415.11 278.85 414.21 283.47 417.43 285.42 C 420.11 287.78 423.77 286.15 425.58 283.57 C 425.68 281.02 425.89 278.20 423.63 276.47 C 421.54 276.44 419.45 276.45 417.37 276.49 Z" />
<path fill="#6e7b71" opacity="1.00" d=" M 390.49 283.01 C 392.19 280.46 394.03 278.01 395.95 275.62 C 399.08 275.90 402.17 276.53 405.24 277.20 C 405.13 279.84 404.47 282.41 403.76 284.94 C 401.23 285.71 398.70 286.61 396.05 286.75 C 393.91 286.00 392.25 284.37 390.49 283.01 Z" />
<path fill="#6e7b71" opacity="1.00" d=" M 380.40 294.49 C 382.67 292.15 384.18 288.66 386.99 287.11 C 391.90 288.32 396.43 290.71 401.28 292.13 C 401.23 297.49 399.09 302.58 397.86 307.75 C 395.28 308.31 392.65 309.65 389.99 309.20 C 386.14 307.08 382.64 304.38 378.98 301.96 C 378.98 299.43 378.36 296.46 380.40 294.49 M 387.27 295.22 C 384.08 297.13 383.77 302.07 386.63 304.42 C 389.73 307.29 395.43 305.38 396.09 301.16 C 397.19 296.41 391.27 292.40 387.27 295.22 Z" />
<path fill="#6e7b71" opacity="1.00" d=" M 222.53 289.01 C 227.32 292.68 231.71 296.86 236.27 300.81 C 237.78 301.68 236.27 302.94 235.28 303.30 C 230.44 305.84 225.79 308.72 220.88 311.13 C 221.17 303.74 222.04 296.39 222.53 289.01 Z" />
<path fill="#6e7b71" opacity="1.00" d=" M 369.90 318.97 C 372.39 314.83 375.96 311.36 379.07 307.65 C 383.25 310.87 387.11 314.49 391.20 317.82 C 392.59 318.56 391.74 320.03 391.20 321.01 C 389.85 323.46 388.30 325.79 386.87 328.19 C 383.62 328.39 380.28 328.84 377.08 328.07 C 374.46 325.24 371.93 322.25 369.90 318.97 M 379.31 313.43 C 375.29 314.47 373.80 320.24 376.96 323.01 C 379.91 326.33 386.13 324.34 386.61 319.94 C 387.54 315.88 383.21 312.13 379.31 313.43 Z" />
<path fill="#6e7b71" opacity="1.00" d=" M 234.06 313.34 C 240.09 315.27 246.27 316.76 252.21 318.99 C 245.14 323.53 237.82 327.74 230.43 331.73 C 231.28 325.54 232.60 319.41 234.06 313.34 Z" />
<path fill="#6e7b71" opacity="1.00" d=" M 356.51 337.90 C 359.38 333.89 362.61 330.15 365.94 326.52 C 369.65 329.02 373.68 331.11 377.02 334.10 C 377.55 336.58 377.93 339.85 375.42 341.39 C 372.23 343.81 369.45 346.93 365.94 348.84 C 362.29 345.68 359.64 341.54 356.51 337.90 M 361.67 337.06 C 362.42 340.60 366.58 343.19 369.75 340.71 C 373.28 338.32 371.45 331.96 367.09 332.11 C 364.10 331.73 362.30 334.54 361.67 337.06 Z" />
<path fill="#6e7b71" opacity="1.00" d=" M 336.33 348.42 C 338.40 346.07 340.58 343.77 343.05 341.83 C 344.96 341.39 346.96 341.39 348.90 341.72 C 351.74 343.78 353.99 346.53 356.44 349.03 C 353.64 352.97 350.24 356.41 347.23 360.17 C 346.50 360.83 345.49 362.80 344.37 361.60 C 341.35 358.90 338.42 356.04 335.81 352.95 C 335.54 351.48 335.21 349.61 336.33 348.42 M 343.27 346.15 C 339.93 348.23 341.05 354.25 345.04 354.73 C 348.34 355.63 351.64 352.31 350.74 349.02 C 350.26 345.69 345.85 344.20 343.27 346.15 Z" />
<path fill="#6e7b71" opacity="1.00" d=" M 390.31 345.43 C 396.52 344.22 401.83 351.38 399.20 357.01 C 397.18 363.26 387.64 364.18 384.28 358.62 C 380.59 353.70 384.18 345.84 390.31 345.43 M 387.56 351.37 C 387.50 353.48 386.51 356.77 389.15 357.65 C 391.46 359.52 393.97 357.27 395.62 355.64 C 395.46 353.95 395.92 351.86 394.36 350.68 C 392.46 348.68 389.14 349.31 387.56 351.37 Z" />
<path fill="#6e7b71" opacity="1.00" d=" M 322.28 349.19 C 324.95 350.23 327.70 351.25 329.98 353.03 C 331.73 355.30 332.71 358.04 333.76 360.68 C 329.96 363.78 326.36 367.12 322.32 369.90 C 319.23 366.83 316.18 363.73 313.05 360.70 C 315.78 356.59 319.26 353.08 322.28 349.19 M 321.18 355.25 C 318.09 356.75 317.71 361.54 320.64 363.41 C 323.40 365.68 328.03 363.53 328.25 360.02 C 328.80 356.37 324.37 353.30 321.18 355.25 Z" />
<path fill="#6e7b71" opacity="1.00" d=" M 407.61 349.64 C 412.01 349.28 416.35 350.50 420.65 351.25 C 422.35 357.43 424.57 363.48 425.91 369.76 C 420.61 367.02 414.88 365.18 409.70 362.23 C 408.24 358.25 408.30 353.81 407.61 349.64 Z" />
<path fill="#6e7b71" opacity="1.00" d=" M 271.17 351.11 L 271.96 351.20 C 275.70 354.83 279.24 358.66 282.97 362.31 C 279.74 366.05 276.89 370.14 273.27 373.53 C 270.83 371.74 268.03 370.27 266.12 367.86 C 264.97 365.53 264.16 362.89 264.33 360.27 C 266.32 357.01 269.04 354.28 271.17 351.11 M 271.04 357.13 C 268.86 358.16 267.41 360.61 267.74 363.03 C 268.09 366.34 271.83 369.04 275.06 367.87 C 278.25 367.02 280.20 363.16 278.80 360.12 C 277.69 357.15 273.84 355.68 271.04 357.13 Z" />
<path fill="#6e7b71" opacity="1.00" d=" M 298.83 353.78 C 300.42 352.18 302.46 354.29 304.11 354.81 C 309.02 356.32 309.36 362.05 311.25 366.06 C 307.01 369.46 302.55 372.59 298.00 375.56 C 294.74 371.84 291.33 368.20 288.61 364.06 C 291.94 360.55 295.34 357.12 298.83 353.78 M 297.13 359.17 C 293.03 361.15 293.27 367.86 297.55 369.48 C 301.20 371.20 305.99 368.13 305.58 364.02 C 305.74 359.88 300.60 357.06 297.13 359.17 Z" />
<path fill="#6e7b71" opacity="1.00" d=" M 349.18 366.30 C 354.18 364.83 359.48 369.96 358.26 375.03 C 357.53 380.38 350.58 383.16 346.32 379.85 C 341.16 376.43 342.94 367.25 349.18 366.30 M 349.35 370.39 C 348.69 371.08 348.03 371.77 347.37 372.45 C 347.39 373.90 347.75 375.29 348.42 376.59 C 350.35 376.42 353.15 377.39 353.89 374.89 C 355.60 372.17 351.98 369.48 349.35 370.39 Z" />
<path fill="#6e7b71" opacity="1.00" d=" M 303.26 381.31 C 308.02 380.21 312.77 385.33 310.91 390.02 C 309.40 395.29 301.06 396.02 298.76 391.01 C 296.44 387.25 299.02 382.08 303.26 381.31 Z" />
<path fill="#6e7b71" opacity="1.00" d=" M 226.36 398.27 C 230.78 393.92 235.07 389.43 239.60 385.19 C 241.18 389.52 243.50 393.58 244.82 398.00 C 241.37 404.01 236.19 409.01 232.38 414.86 C 229.56 409.68 228.49 403.75 226.36 398.27 Z" />
<path fill="#6e7b71" opacity="1.00" d=" M 349.06 387.07 C 353.39 389.32 357.51 391.93 361.83 394.21 C 362.21 400.44 362.22 406.71 361.81 412.95 C 356.35 407.51 350.81 402.15 345.50 396.57 C 345.72 393.23 347.79 390.16 349.06 387.07 Z" />
<path fill="#6e7b71" opacity="1.00" d=" M 279.29 411.38 C 282.80 407.05 286.49 402.89 290.09 398.65 C 294.05 402.24 296.49 407.12 299.76 411.30 C 296.89 418.90 293.61 426.34 290.43 433.81 C 286.75 426.32 282.78 418.96 279.29 411.38 Z" />
</g>
</svg>
