<?xml version="1.0" encoding="UTF-8" ?>
<!DOCTYPE svg PUBLIC "-//W3C//DTD SVG 1.1//EN" "http://www.w3.org/Graphics/SVG/1.1/DTD/svg11.dtd">
<svg width="475pt" height="477pt" viewBox="0 0 475 477" version="1.1" xmlns="http://www.w3.org/2000/svg">
<g id="#262939ff">
<path fill="#262939" opacity="1.00" d=" M 199.31 0.00 L 205.00 0.00 C 216.08 1.18 226.44 7.58 231.82 17.43 C 223.30 13.19 214.08 10.16 204.49 9.96 C 204.35 15.42 204.26 20.89 203.98 26.35 C 198.61 16.54 188.95 10.09 178.89 5.80 C 177.06 5.45 178.63 3.79 179.65 3.70 C 185.81 0.97 192.64 0.30 199.31 0.00 Z" />
<path fill="#262939" opacity="1.00" d=" M 134.06 11.12 C 144.12 9.90 154.93 10.08 164.01 15.11 C 172.14 19.46 177.96 27.35 180.71 36.06 C 168.69 31.35 155.83 27.70 142.80 28.82 C 144.95 34.88 145.98 41.40 144.75 47.78 C 136.37 33.64 119.63 27.70 104.14 25.58 C 111.45 16.69 122.96 12.58 134.06 11.12 Z" />
<path fill="#262939" opacity="1.00" d=" M 213.83 19.77 C 216.72 20.52 219.72 21.24 222.17 23.05 C 222.22 26.95 216.59 26.99 213.72 27.42 C 213.26 24.88 213.26 22.29 213.83 19.77 Z" />
<path fill="#262939" opacity="1.00" d=" M 27.81 38.77 C 40.06 31.26 54.69 27.24 69.07 28.45 C 84.46 30.64 98.03 39.41 109.58 49.39 C 113.11 52.62 116.72 55.93 118.91 60.26 C 104.08 57.05 88.98 54.66 73.76 54.85 C 76.56 68.48 79.19 82.15 80.94 95.95 C 71.66 85.46 61.24 75.29 48.09 69.89 C 32.37 63.46 14.42 67.97 0.01 75.71 C 4.26 60.49 14.29 46.99 27.81 38.77 Z" />
<path fill="#262939" opacity="1.00" d=" M 155.90 40.80 C 161.30 42.67 167.42 43.33 171.97 47.01 C 167.10 49.81 161.38 51.57 155.74 51.39 C 155.46 47.86 155.50 44.31 155.90 40.80 Z" />
<path fill="#262939" opacity="1.00" d=" M 89.99 70.22 C 95.48 70.96 100.92 72.06 106.35 73.15 C 103.19 78.44 97.67 81.81 92.06 84.02 C 90.91 79.51 90.31 74.87 89.99 70.22 Z" />
<path fill="#262939" opacity="1.00" d=" M 54.68 92.64 C 60.42 95.16 64.08 100.49 67.75 105.31 C 71.72 111.12 77.37 115.43 82.75 119.84 C 78.65 120.52 72.99 120.61 70.91 124.92 C 69.51 131.73 69.86 138.93 71.57 145.67 C 62.94 142.33 56.26 134.47 55.20 125.17 C 54.01 114.38 54.76 103.47 54.68 92.64 Z" />
<path fill="#262939" opacity="1.00" d=" M 45.42 139.70 C 52.38 143.92 59.13 148.47 65.63 153.35 C 73.15 159.09 80.47 165.57 84.97 174.04 C 86.42 176.68 87.20 179.70 89.13 182.05 C 89.46 181.95 90.10 181.73 90.42 181.62 C 92.07 175.80 95.62 170.48 100.80 167.25 C 101.35 178.44 103.83 189.41 106.38 200.29 C 102.22 205.46 98.40 210.88 94.24 216.04 C 89.90 205.87 85.15 195.25 76.60 187.89 C 74.62 191.87 74.95 196.75 72.39 200.41 C 72.08 200.52 71.48 200.74 71.18 200.85 C 65.99 197.66 61.90 192.84 56.24 190.36 L 57.60 190.82 C 55.59 183.55 51.98 176.69 51.34 169.08 C 50.40 159.11 48.14 149.33 45.42 139.70 Z" />
<path fill="#262939" opacity="1.00" d=" M 145.34 149.29 C 148.25 147.20 151.96 144.92 155.64 146.46 C 160.57 148.41 164.15 152.59 167.33 156.67 C 169.61 159.78 171.83 163.13 172.33 167.04 C 156.69 167.69 141.40 171.91 127.10 178.14 C 127.20 174.00 128.43 169.98 130.50 166.41 C 134.24 159.81 139.26 153.86 145.34 149.29 Z" />
<path fill="#262939" opacity="1.00" d=" M 30.90 164.08 C 38.33 172.16 44.52 181.37 50.04 190.83 C 46.14 190.75 41.68 191.44 39.43 195.05 C 40.49 200.42 43.31 205.24 45.11 210.39 C 41.45 207.92 38.20 204.80 35.88 201.03 C 32.61 195.99 31.82 189.87 31.09 184.03 C 30.46 177.41 29.87 170.69 30.90 164.08 Z" />
<path fill="#262939" opacity="1.00" d=" M 4.34 189.61 C 14.42 193.84 23.66 199.94 31.71 207.32 C 44.03 218.51 53.76 232.14 63.10 245.81 C 63.05 246.84 62.98 247.86 62.92 248.89 C 53.72 244.14 43.63 241.51 33.52 239.58 C 35.75 247.10 38.37 254.58 39.28 262.42 C 40.31 271.55 42.95 280.37 45.08 289.29 C 40.08 287.84 35.21 285.95 30.68 283.37 C 27.71 279.03 24.26 275.03 21.23 270.73 C 20.00 269.11 19.37 267.13 19.24 265.11 C 16.86 239.54 12.71 213.96 4.34 189.61 Z" />
<path fill="#262939" opacity="1.00" d=" M 224.83 217.83 C 238.84 211.07 254.98 211.39 270.04 213.49 C 261.18 222.97 254.85 235.14 253.87 248.22 C 243.20 249.25 232.53 245.56 221.89 247.33 C 212.92 249.62 205.19 255.11 197.94 260.66 C 199.08 243.21 208.68 225.55 224.83 217.83 Z" />
<path fill="#262939" opacity="1.00" d=" M 218.01 265.05 C 228.80 258.50 241.92 257.73 254.20 258.69 C 259.01 266.27 264.25 273.61 270.63 279.96 C 256.49 280.58 242.18 282.52 229.01 287.93 C 223.49 290.31 217.89 293.31 214.26 298.26 C 210.23 303.87 208.57 310.76 207.76 317.52 C 204.87 311.83 201.82 306.15 200.04 300.00 C 198.66 296.00 200.16 291.83 201.16 287.93 C 203.77 278.61 209.54 269.97 218.01 265.05 Z" />
<path fill="#262939" opacity="1.00" d=" M 274.17 283.01 C 280.59 287.02 286.67 291.61 292.05 296.93 C 293.73 298.75 295.68 300.59 296.31 303.07 C 293.74 304.84 290.00 303.32 287.01 303.42 C 279.31 302.29 272.18 306.58 264.52 306.11 C 264.59 303.97 265.05 301.88 266.02 299.98 C 268.71 294.31 271.82 288.84 274.17 283.01 Z" />
<path fill="#262939" opacity="1.00" d=" M 65.82 297.08 C 73.64 299.67 80.61 304.07 87.43 308.59 C 87.90 315.28 90.33 321.59 91.71 328.11 C 92.83 335.27 96.16 341.78 98.72 348.49 C 96.52 352.69 93.62 356.55 90.33 359.97 C 87.20 351.11 78.95 345.71 74.05 337.98 C 70.80 332.94 66.74 328.50 62.96 323.87 C 70.34 324.70 77.06 327.93 83.85 330.70 C 80.86 326.17 76.68 322.40 74.70 317.25 C 71.96 310.43 67.61 304.28 65.82 297.08 Z" />
<path fill="#262939" opacity="1.00" d=" M 445.17 300.73 C 453.64 303.29 460.23 309.97 464.35 317.61 C 468.40 325.13 470.98 333.51 471.55 342.04 C 471.42 348.04 469.66 353.89 467.68 359.52 C 465.26 352.07 461.12 345.00 454.85 340.15 C 450.30 336.40 444.66 334.34 438.98 333.05 C 443.69 329.04 449.72 327.19 454.74 323.69 C 456.66 322.55 455.89 320.11 455.34 318.42 C 452.89 312.04 448.75 306.51 445.17 300.73 Z" />
<path fill="#262939" opacity="1.00" d=" M 167.90 328.94 C 171.63 329.63 174.92 331.78 177.24 334.76 C 182.89 341.77 186.06 350.36 188.89 358.80 C 182.62 354.93 175.64 351.90 168.19 351.47 C 168.11 343.96 167.87 336.45 167.90 328.94 Z" />
<path fill="#262939" opacity="1.00" d=" M 207.69 347.43 C 208.78 344.94 210.10 341.87 213.02 341.21 C 220.98 348.23 229.22 355.21 238.64 360.26 C 240.98 361.48 245.07 361.34 245.05 364.90 C 245.93 373.33 245.87 382.02 248.63 390.14 C 249.77 393.82 253.55 395.52 256.65 397.27 C 265.41 401.64 275.19 405.07 285.12 403.87 C 289.65 403.53 294.02 402.28 298.33 400.96 C 287.14 412.33 272.03 420.21 256.03 421.60 C 244.26 422.66 231.97 419.66 222.58 412.34 C 210.80 403.43 204.19 388.69 204.14 374.05 C 204.16 365.10 204.57 355.91 207.69 347.43 Z" />
<path fill="#262939" opacity="1.00" d=" M 259.31 347.04 C 263.77 352.72 268.56 358.17 273.97 362.97 C 279.06 367.73 286.32 368.70 292.91 369.88 C 299.91 370.68 307.41 371.92 314.03 368.77 C 316.54 367.47 317.06 371.39 316.07 372.89 C 312.69 379.23 307.23 384.30 301.30 388.26 C 294.65 392.67 286.43 395.11 278.46 393.66 C 267.46 391.63 257.80 384.37 251.83 375.04 C 253.85 365.58 256.83 356.38 259.31 347.04 Z" />
<path fill="#262939" opacity="1.00" d=" M 443.35 349.85 C 453.92 354.69 458.65 366.49 461.76 376.95 C 465.05 386.88 461.29 397.21 457.34 406.34 C 453.98 394.98 447.32 383.49 435.68 379.14 C 439.84 376.15 444.87 374.99 449.68 373.49 C 450.74 372.31 450.56 370.54 450.54 369.09 C 449.84 362.16 446.51 355.91 443.35 349.85 Z" />
<path fill="#262939" opacity="1.00" d=" M 170.12 369.97 C 175.98 371.86 179.74 377.08 182.94 382.02 C 187.20 389.03 190.83 396.65 191.84 404.88 C 185.54 400.43 178.10 397.58 170.33 397.39 C 170.27 388.25 169.82 379.11 170.12 369.97 Z" />
<path fill="#262939" opacity="1.00" d=" M 97.17 373.17 C 106.28 373.28 115.43 373.55 124.43 375.09 C 123.23 383.40 123.31 392.25 126.93 399.99 C 130.53 406.38 138.54 407.77 143.41 412.76 C 136.74 414.42 129.79 414.26 122.97 414.53 C 118.40 415.16 115.36 411.20 111.61 409.40 C 104.85 405.61 96.77 405.60 89.86 402.21 C 86.97 393.99 82.24 386.58 77.52 379.32 C 80.62 380.64 83.44 383.18 86.97 383.12 C 91.57 381.35 94.22 376.85 97.17 373.17 Z" />
<path fill="#262939" opacity="1.00" d=" M 336.33 385.24 C 342.77 380.68 351.60 378.94 359.01 382.15 C 357.46 390.91 352.30 398.99 345.09 404.16 C 337.97 409.27 328.31 409.62 320.24 406.80 C 315.56 405.27 313.57 400.51 311.40 396.55 C 315.81 397.49 320.40 399.04 324.93 398.14 C 330.81 396.05 332.32 389.31 336.33 385.24 Z" />
<path fill="#262939" opacity="1.00" d=" M 437.31 396.82 C 441.57 403.76 444.09 411.62 445.72 419.56 C 446.54 424.11 447.30 428.84 446.26 433.42 C 444.75 439.38 441.62 444.84 437.66 449.50 C 435.07 437.17 429.09 425.19 418.87 417.46 C 424.66 416.71 430.61 417.60 436.32 416.34 C 438.63 410.12 438.52 403.27 437.31 396.82 Z" />
<path fill="#262939" opacity="1.00" d=" M 33.93 427.21 C 44.87 419.18 58.30 413.86 72.01 414.21 C 77.93 414.24 83.47 417.25 87.27 421.69 C 92.29 430.38 95.22 441.42 91.80 451.16 C 90.31 451.87 88.62 451.71 87.29 450.74 C 81.11 447.09 76.15 441.80 70.81 437.08 C 68.27 434.89 65.02 433.82 61.87 432.81 C 52.75 430.08 43.32 428.61 33.93 427.21 Z" />
<path fill="#262939" opacity="1.00" d=" M 127.46 431.76 C 130.04 438.53 131.32 445.80 131.38 453.04 C 131.48 455.65 129.27 457.40 127.57 459.03 C 124.61 459.99 121.22 459.74 118.69 461.79 C 113.06 465.87 107.30 469.76 101.42 473.46 C 99.71 474.63 97.69 475.13 95.66 475.37 C 94.79 468.50 99.33 462.53 102.71 456.97 C 104.98 453.59 107.68 450.46 111.04 448.11 C 117.43 443.64 122.06 437.28 127.46 431.76 Z" />
<path fill="#262939" opacity="1.00" d=" M 401.12 435.73 C 405.35 443.11 410.11 450.50 411.96 458.91 C 412.41 466.05 406.99 471.71 402.88 476.95 C 401.55 468.28 395.66 460.15 386.80 458.12 C 391.70 457.45 396.72 457.64 401.51 456.27 C 402.27 449.43 401.46 442.57 401.12 435.73 Z" />
<path fill="#262939" opacity="1.00" d=" M 158.94 440.25 C 162.99 439.23 166.89 437.71 170.97 436.84 C 175.21 440.05 175.21 446.13 175.77 450.98 C 176.68 456.40 171.92 460.24 168.08 463.14 C 161.01 468.09 153.23 472.12 144.95 474.58 C 141.75 475.60 138.36 474.70 135.67 472.85 C 140.23 467.90 145.07 462.72 147.15 456.17 C 148.89 449.84 151.69 441.79 158.94 440.25 Z" />
</g>
<g id="#2649a3ff">
<path fill="#2649a3" opacity="1.00" d=" M 249.14 15.21 C 271.34 8.22 294.66 3.93 318.00 5.08 C 345.47 6.66 372.84 11.51 399.04 19.95 C 409.88 23.79 421.34 27.75 429.66 36.05 C 428.00 37.74 425.60 38.78 423.22 38.27 C 410.77 34.90 397.75 34.75 384.94 34.25 C 360.06 33.25 335.28 36.89 310.92 41.58 C 273.82 49.09 237.10 60.44 204.05 79.19 C 190.85 86.86 177.99 95.48 167.22 106.38 C 163.72 109.87 160.15 113.48 157.82 117.89 C 155.30 122.65 158.13 129.20 163.34 130.57 C 165.96 131.22 168.26 129.36 170.45 128.24 C 184.45 121.19 199.39 116.11 214.71 112.85 C 239.74 107.43 265.45 105.84 291.02 106.06 C 317.10 106.28 343.21 107.72 369.09 111.08 C 389.17 113.71 409.19 117.44 428.38 124.03 C 431.25 125.28 434.43 126.13 436.87 128.17 C 440.61 132.25 443.18 137.22 445.98 141.96 C 443.99 141.22 442.03 140.45 440.05 139.73 C 422.68 133.63 405.13 127.77 386.96 124.60 C 345.43 117.36 303.11 113.62 260.96 116.08 C 243.48 116.99 225.99 118.80 208.88 122.56 C 199.79 124.66 190.66 127.23 182.49 131.86 C 179.78 133.27 177.40 135.22 175.07 137.17 C 177.96 139.99 181.42 142.37 185.45 143.15 C 190.88 144.36 196.47 143.40 201.97 143.80 C 224.36 144.93 246.71 146.59 269.06 148.29 C 302.28 150.37 335.21 156.53 367.10 166.04 C 383.22 170.89 399.00 176.86 414.19 184.10 C 418.92 186.59 423.75 188.90 428.29 191.72 C 431.74 193.95 432.06 198.41 431.76 202.11 C 429.17 200.68 426.56 199.29 423.95 197.92 C 409.26 189.75 393.47 183.79 377.64 178.24 C 341.72 166.20 304.63 157.59 267.03 152.89 C 248.80 150.74 230.38 149.49 212.04 150.86 C 204.66 151.59 196.97 152.28 190.32 155.86 C 188.22 157.47 187.32 160.53 189.49 162.52 C 195.81 168.43 205.10 169.02 213.31 169.45 C 233.56 172.78 253.77 176.33 273.87 180.46 C 284.98 182.67 295.83 185.96 306.65 189.25 C 323.21 194.46 339.67 200.16 355.37 207.61 C 363.23 211.43 371.00 215.62 377.77 221.20 C 385.16 227.90 394.07 234.16 397.25 244.08 C 392.42 242.67 388.21 239.84 384.04 237.13 C 373.43 230.11 362.71 223.13 351.11 217.85 C 335.00 210.38 317.52 206.53 300.12 203.47 C 271.67 198.72 242.85 196.12 214.01 195.92 C 205.99 195.71 197.46 195.76 190.21 191.82 C 185.21 189.12 183.20 183.49 179.53 179.46 C 177.61 177.02 175.05 174.98 173.80 172.08 C 173.45 168.78 176.78 165.85 175.40 162.49 C 173.31 156.38 167.08 153.37 164.05 147.91 C 161.54 144.26 157.58 141.34 153.06 140.98 C 149.41 140.69 145.76 140.06 142.39 138.58 C 129.45 133.17 117.79 125.26 105.68 118.29 C 102.68 116.54 98.65 115.56 95.59 117.70 C 93.65 118.88 92.89 121.10 92.09 123.09 C 86.76 116.51 83.57 108.40 82.13 100.10 C 103.73 101.15 123.94 84.17 127.45 62.98 C 144.95 66.27 163.74 66.36 180.31 59.16 C 184.21 57.22 188.71 55.11 190.64 50.95 C 191.29 45.78 188.84 40.93 187.11 36.21 C 190.62 35.00 194.32 34.52 197.99 34.10 C 205.51 40.41 216.22 39.31 225.03 36.83 C 229.84 35.23 235.29 33.72 238.57 29.61 C 239.38 26.23 236.36 23.50 234.81 20.78 C 239.35 18.36 244.28 16.82 249.14 15.21 M 321.62 16.70 C 322.16 20.84 322.92 24.96 323.93 29.02 C 327.87 26.82 331.79 24.57 335.46 21.93 C 331.07 19.65 326.33 18.15 321.62 16.70 M 293.84 22.94 C 294.75 26.36 295.90 29.70 297.16 33.00 C 301.07 31.54 305.07 30.28 308.86 28.49 C 308.82 28.26 308.76 27.79 308.72 27.55 C 303.83 25.82 298.83 24.39 293.84 22.94 M 261.10 29.95 C 262.53 34.15 263.76 38.44 265.70 42.44 C 270.25 39.22 275.18 36.46 279.24 32.61 C 273.22 31.58 267.22 30.27 261.10 29.95 M 233.72 40.75 C 235.38 44.91 237.27 48.98 239.15 53.05 C 243.46 49.32 247.71 45.47 251.56 41.26 C 245.62 40.93 239.67 40.67 233.72 40.75 M 202.63 51.19 C 206.25 56.02 210.76 60.09 214.52 64.82 C 218.45 60.96 221.38 56.26 224.90 52.05 C 217.49 51.46 210.05 51.41 202.63 51.19 M 173.93 67.43 C 177.01 72.96 180.84 78.03 184.23 83.37 C 189.29 78.24 193.79 72.54 198.23 66.87 C 190.13 66.66 182.03 67.28 173.93 67.43 M 137.58 84.26 C 142.44 92.05 147.14 100.02 152.71 107.33 C 158.58 98.21 164.51 89.12 170.12 79.83 C 159.25 81.08 148.42 82.71 137.58 84.26 Z" />
<path fill="#2649a3" opacity="1.00" d=" M 431.04 29.80 C 436.48 26.28 443.25 29.97 448.05 33.06 C 459.66 41.66 468.63 55.38 468.75 70.15 C 464.11 66.92 460.74 62.10 455.71 59.38 C 445.67 54.31 433.98 53.42 424.14 47.95 C 427.77 43.94 434.48 43.76 437.20 38.94 C 436.40 35.21 433.25 32.70 431.04 29.80 Z" />
<path fill="#2649a3" opacity="1.00" d=" M 84.00 152.24 C 87.21 141.94 91.19 131.25 98.80 123.35 C 113.46 131.01 127.10 140.94 142.92 146.20 C 133.36 149.73 126.43 157.99 122.06 166.93 C 109.65 161.40 97.41 154.93 84.00 152.24 Z" />
<path fill="#2649a3" opacity="1.00" d=" M 449.71 142.97 C 448.29 137.62 444.23 133.03 444.44 127.29 C 461.68 131.12 472.37 148.23 475.00 164.72 L 475.00 171.07 C 474.60 173.20 473.86 175.23 473.00 177.21 C 471.86 175.92 470.72 174.60 470.09 172.98 C 465.08 160.56 452.84 153.32 441.36 147.71 C 443.97 145.84 446.84 144.39 449.71 142.97 Z" />
<path fill="#2649a3" opacity="1.00" d=" M 83.53 157.53 C 88.45 158.87 94.30 159.55 97.60 163.90 C 95.02 167.26 92.79 171.24 88.90 173.24 C 87.44 173.34 87.10 171.61 86.52 170.64 C 84.88 166.45 84.32 161.94 83.53 157.53 Z" />
<path fill="#2649a3" opacity="1.00" d=" M 107.92 166.66 C 113.10 167.72 119.30 169.11 122.14 174.03 C 122.53 177.99 121.94 182.00 121.25 185.90 C 119.30 193.99 117.31 202.08 116.46 210.38 C 111.19 196.44 108.53 181.53 107.92 166.66 Z" />
<path fill="#2649a3" opacity="1.00" d=" M 157.05 201.97 C 162.78 196.95 168.48 191.89 174.06 186.70 C 180.72 191.90 185.12 199.30 189.58 206.33 C 193.44 213.10 197.55 219.97 199.18 227.68 C 192.03 230.71 185.17 234.38 177.97 237.29 C 173.50 237.60 168.24 235.00 164.54 238.57 C 153.34 248.14 145.47 260.88 135.02 271.17 C 132.48 270.57 129.07 270.63 127.68 267.98 C 128.27 262.90 134.22 258.18 130.89 253.07 C 125.81 244.76 118.90 237.41 110.61 232.26 C 114.29 231.94 117.90 230.91 121.10 229.04 C 123.48 227.74 125.76 226.27 128.02 224.77 C 129.11 224.04 130.18 223.30 131.24 222.55 C 140.20 216.16 148.71 209.15 157.05 201.97 M 162.86 211.29 C 170.14 214.82 177.20 218.85 183.16 224.39 C 182.70 216.70 180.28 209.32 177.62 202.16 C 172.54 204.93 167.73 208.17 162.86 211.29 M 145.87 224.37 C 148.30 228.63 151.02 232.73 153.53 236.94 C 156.63 232.89 159.21 228.46 161.38 223.85 C 156.20 223.79 151.04 224.14 145.87 224.37 M 128.67 237.10 C 131.18 241.17 134.05 245.01 136.82 248.91 C 138.99 244.90 141.17 240.87 142.74 236.58 C 138.04 236.57 133.35 236.75 128.67 237.10 Z" />
<path fill="#2649a3" opacity="1.00" d=" M 72.39 200.41 C 74.95 196.75 74.62 191.87 76.60 187.89 C 85.15 195.25 89.90 205.87 94.24 216.04 C 98.40 210.88 102.22 205.46 106.38 200.29 C 109.13 207.36 111.77 214.51 113.55 221.89 C 114.18 224.17 114.28 227.26 111.89 228.58 C 109.20 229.11 106.44 228.83 103.71 228.84 C 100.17 224.72 96.95 220.35 93.84 215.90 C 92.93 216.29 92.03 216.68 91.12 217.07 C 92.69 228.32 94.19 239.60 94.81 250.95 C 95.17 256.46 93.77 261.83 92.60 267.16 C 102.77 270.00 113.42 269.96 123.85 271.12 C 121.02 277.74 115.63 283.46 115.25 290.96 C 114.67 294.21 118.54 295.83 118.72 298.92 C 119.55 303.65 117.59 308.19 115.20 312.15 C 118.92 317.82 124.40 322.08 127.98 327.85 C 125.59 330.24 122.15 331.78 120.66 334.94 C 121.34 339.77 126.24 342.96 126.67 347.86 C 125.57 351.06 121.41 351.88 120.14 354.98 C 120.29 360.18 121.73 365.22 122.71 370.30 C 113.99 368.75 104.89 366.67 96.09 368.71 C 91.82 369.78 88.00 372.11 84.62 374.88 C 77.89 372.05 70.53 368.97 66.42 362.57 C 63.28 357.87 64.85 351.82 62.44 346.85 C 58.63 338.13 52.90 330.40 46.75 323.19 C 43.99 319.99 40.47 317.40 38.51 313.57 C 32.38 302.65 28.05 290.67 20.27 280.73 C 23.93 280.55 27.40 281.91 30.68 283.37 C 35.21 285.95 40.08 287.84 45.08 289.29 C 42.95 280.37 40.31 271.55 39.28 262.42 C 38.37 254.58 35.75 247.10 33.52 239.58 C 43.63 241.51 53.72 244.14 62.92 248.89 C 62.98 247.86 63.05 246.84 63.10 245.81 C 63.76 226.63 60.20 207.36 53.47 189.41 C 54.17 189.65 55.55 190.13 56.24 190.36 C 61.90 192.84 65.99 197.66 71.18 200.85 C 71.48 200.74 72.08 200.52 72.39 200.41 M 73.12 210.85 C 71.70 220.60 70.85 230.43 70.02 240.24 C 76.02 237.85 81.89 235.14 87.84 232.61 C 83.14 225.22 78.13 218.03 73.12 210.85 M 81.07 248.52 C 79.39 253.84 77.60 259.18 76.98 264.75 C 81.39 264.08 85.82 263.47 90.22 262.71 C 87.62 257.72 84.54 252.95 81.07 248.52 M 45.83 252.49 C 46.64 259.82 47.80 267.12 49.16 274.38 C 53.95 270.96 58.32 266.98 62.65 263.00 C 57.15 259.35 51.67 255.58 45.83 252.49 M 84.50 273.13 C 82.28 277.65 80.50 282.37 78.24 286.87 C 83.29 287.29 88.35 287.55 93.42 287.35 C 90.97 282.60 88.37 277.91 85.45 273.45 C 85.22 273.37 84.74 273.21 84.50 273.13 M 58.30 274.81 C 58.22 281.16 58.38 287.51 58.33 293.86 C 63.25 291.26 68.26 288.79 72.87 285.65 C 67.94 282.13 63.33 278.19 58.30 274.81 M 65.82 297.08 C 67.61 304.28 71.96 310.43 74.70 317.25 C 76.68 322.40 80.86 326.17 83.85 330.70 C 77.06 327.93 70.34 324.70 62.96 323.87 C 66.74 328.50 70.80 332.94 74.05 337.98 C 78.95 345.71 87.20 351.11 90.33 359.97 C 93.62 356.55 96.52 352.69 98.72 348.49 C 99.87 347.43 101.54 346.62 101.83 344.93 C 102.69 340.37 102.96 335.36 101.10 331.00 C 99.43 327.17 95.03 326.18 91.30 325.76 C 91.40 326.35 91.61 327.52 91.71 328.11 C 90.33 321.59 87.90 315.28 87.43 308.59 C 80.61 304.07 73.64 299.67 65.82 297.08 M 91.17 306.99 C 92.95 310.84 95.51 314.27 97.59 317.96 C 98.92 311.05 100.10 304.09 100.91 297.10 C 97.72 300.45 93.95 303.28 91.17 306.99 M 100.54 320.90 C 102.51 324.04 104.73 327.00 107.17 329.79 C 108.96 325.71 110.41 321.48 111.92 317.29 C 108.10 318.43 104.28 319.54 100.54 320.90 M 108.36 334.00 C 107.78 337.88 107.34 341.79 107.07 345.71 C 110.80 344.46 114.57 343.28 118.12 341.56 C 114.90 339.00 111.71 336.38 108.36 334.00 M 101.30 351.92 C 98.74 356.32 96.08 360.68 93.82 365.26 C 99.26 365.46 104.71 365.49 110.14 365.15 C 107.46 360.57 104.50 356.15 101.30 351.92 Z" />
<path fill="#2649a3" opacity="1.00" d=" M 436.00 193.55 C 439.44 192.93 441.81 195.88 443.71 198.26 C 448.78 204.94 452.65 212.46 455.74 220.24 C 457.66 225.25 459.55 231.03 457.32 236.26 C 456.76 238.21 453.94 238.93 453.06 236.86 C 448.29 224.98 439.63 213.93 427.64 208.77 C 430.75 206.80 434.46 206.15 437.62 204.26 C 436.85 200.73 436.00 197.19 436.00 193.55 Z" />
<path fill="#2649a3" opacity="1.00" d=" M 272.50 221.36 C 279.55 214.54 289.24 210.83 298.97 210.35 C 308.56 209.68 317.97 212.28 326.96 215.32 C 342.77 221.00 357.66 228.86 372.57 236.53 C 377.65 239.15 382.17 243.43 383.70 249.09 C 385.67 256.19 385.32 263.67 385.36 270.98 C 385.04 284.04 385.20 297.39 381.47 310.04 C 380.04 315.13 376.19 321.24 370.07 320.29 C 364.00 318.14 359.07 313.77 354.00 309.95 C 336.60 295.81 320.36 280.34 304.30 264.72 C 299.52 260.75 299.85 253.35 302.18 248.15 C 304.68 242.74 312.21 240.29 317.19 243.72 C 319.67 246.73 320.10 253.03 315.89 254.79 C 313.34 255.84 311.08 253.97 308.87 253.02 C 307.49 252.04 305.38 253.24 305.59 254.95 C 305.70 257.37 307.96 258.92 309.73 260.24 C 312.06 261.72 315.14 263.66 317.81 261.80 C 320.52 260.26 323.32 258.73 325.60 256.59 C 327.85 253.26 327.30 248.89 326.83 245.13 C 325.91 240.63 321.13 238.53 317.03 237.90 C 311.36 237.08 305.34 237.01 299.88 238.88 C 293.10 241.95 292.19 250.58 292.99 257.10 C 293.95 261.42 297.45 264.58 300.21 267.85 C 310.78 279.28 322.38 289.72 334.31 299.70 C 338.18 303.00 343.26 305.78 344.64 311.05 C 345.91 316.76 344.81 322.75 346.37 328.43 C 347.97 334.34 351.22 340.21 356.54 343.50 C 360.94 346.16 366.72 344.24 371.01 346.98 C 373.22 350.29 375.13 354.05 375.48 358.08 C 375.42 362.48 370.66 364.36 368.88 367.94 C 367.63 370.09 366.80 373.33 363.88 373.67 C 361.10 373.51 358.81 371.36 356.03 371.28 C 350.06 372.83 344.66 376.26 338.47 377.03 C 341.10 372.87 342.92 367.57 341.31 362.72 C 339.37 360.58 336.19 359.92 334.02 357.97 C 326.36 351.64 318.83 345.15 311.13 338.87 C 305.87 334.62 300.64 329.92 294.00 327.98 C 284.93 325.29 275.37 325.06 265.99 324.96 C 260.21 324.95 253.88 325.36 249.21 329.15 C 245.96 331.76 244.67 336.00 244.55 340.03 C 244.35 346.14 244.90 352.29 246.01 358.31 C 239.36 353.03 232.36 348.18 224.94 344.02 C 222.08 342.25 218.87 340.81 216.64 338.22 C 215.35 336.41 217.00 334.33 217.75 332.66 C 222.20 325.08 227.93 318.26 234.46 312.38 C 236.60 310.62 238.92 308.46 241.88 308.49 C 253.24 308.42 264.60 308.52 275.95 308.44 C 283.43 307.76 288.03 314.92 292.51 319.74 C 301.60 319.72 310.72 320.05 319.80 319.60 C 321.79 317.83 320.94 314.45 320.82 312.06 C 317.87 306.29 311.81 302.74 305.95 300.47 C 300.48 298.70 295.89 295.12 291.38 291.68 C 281.75 284.05 272.64 275.57 265.43 265.57 C 262.52 261.22 259.48 256.44 259.59 251.01 C 259.87 239.97 264.50 229.02 272.50 221.36 M 295.30 220.55 C 299.11 225.22 302.85 229.98 306.96 234.39 C 310.18 229.02 313.30 223.57 316.13 217.98 C 309.19 218.83 302.20 219.36 295.30 220.55 M 280.91 225.78 C 279.57 230.21 278.44 234.72 277.73 239.30 C 281.53 237.82 285.24 236.09 288.84 234.15 C 286.38 231.19 283.79 228.33 280.91 225.78 M 330.11 225.92 C 334.29 235.79 337.91 245.92 340.16 256.42 C 346.92 250.75 353.09 244.38 359.28 238.10 C 350.66 231.85 340.27 228.66 330.11 225.92 M 270.65 244.85 C 272.61 248.30 275.00 251.50 277.83 254.29 C 279.16 251.10 280.29 247.84 281.27 244.54 C 277.72 244.39 274.18 244.48 270.65 244.85 M 351.72 248.65 C 352.21 258.62 353.89 268.57 356.99 278.08 C 365.02 274.78 372.48 269.76 378.09 263.08 C 378.88 261.96 380.89 260.11 378.84 259.15 C 370.83 253.56 361.31 250.27 351.72 248.65 M 276.35 263.60 C 276.33 263.83 276.31 264.28 276.30 264.50 C 278.70 266.02 281.39 267.01 284.00 268.11 C 284.66 265.05 285.22 261.97 285.69 258.87 C 282.44 260.16 279.22 261.60 276.35 263.60 M 285.98 275.94 C 289.00 276.98 292.04 277.94 295.12 278.78 C 294.49 275.56 293.55 272.41 292.22 269.40 C 290.07 271.51 287.99 273.69 285.98 275.94 M 338.96 271.97 C 339.52 281.06 342.30 289.83 343.20 298.89 C 350.37 294.16 357.71 289.68 365.36 285.75 C 356.27 281.72 347.44 277.16 338.96 271.97 M 297.10 286.47 C 300.63 287.36 304.18 288.22 307.74 288.99 C 306.71 285.83 305.59 282.69 304.17 279.69 C 301.68 281.81 299.33 284.08 297.10 286.47 M 310.94 296.51 C 314.20 297.73 317.49 298.89 320.81 299.95 C 319.48 296.44 318.27 292.85 316.22 289.68 C 314.34 291.86 312.58 294.14 310.94 296.51 M 322.85 308.20 C 326.07 310.58 329.50 312.68 333.14 314.37 C 332.32 310.72 331.50 307.05 330.13 303.56 C 327.34 304.19 325.26 306.71 322.85 308.20 Z" />
<path fill="#2649a3" opacity="1.00" d=" M 399.52 233.87 C 402.39 232.32 405.95 232.22 408.48 234.51 C 415.96 240.52 421.54 248.68 425.81 257.21 C 427.14 260.41 429.08 264.68 426.49 267.75 C 423.63 265.14 421.41 261.93 418.56 259.33 C 412.93 254.68 405.60 252.45 400.40 247.24 C 401.55 245.97 403.72 245.03 403.49 242.99 C 403.21 239.59 401.14 236.74 399.52 233.87 Z" />
<path fill="#2649a3" opacity="1.00" d=" M 409.48 260.96 C 415.88 262.98 420.55 268.17 424.99 272.95 C 428.02 276.73 432.04 280.72 431.70 285.96 C 431.47 296.33 431.48 306.73 430.74 317.08 C 430.62 321.89 426.87 325.70 422.83 327.80 C 415.83 331.39 407.71 331.53 400.03 331.08 C 401.84 312.83 401.02 294.41 403.27 276.21 C 404.11 270.77 404.85 264.63 409.48 260.96 M 408.64 299.15 C 410.19 306.19 411.87 313.24 414.25 320.05 C 418.13 312.60 422.50 305.41 426.18 297.87 C 420.32 298.18 414.49 298.75 408.64 299.15 Z" />
<path fill="#2649a3" opacity="1.00" d=" M 399.40 336.88 C 408.28 336.47 417.17 335.94 426.06 335.71 C 428.96 335.26 429.51 338.84 429.85 340.97 C 430.47 347.98 430.74 355.20 429.04 362.08 C 427.78 367.03 424.36 371.80 419.20 373.12 C 411.17 375.19 402.39 372.22 396.70 366.32 C 397.62 356.51 398.60 346.70 399.40 336.88 M 404.93 344.29 C 406.16 351.07 408.20 357.68 410.08 364.31 C 414.41 358.09 418.84 351.84 422.28 345.07 C 416.69 343.06 410.70 343.47 404.93 344.29 Z" />
<path fill="#2649a3" opacity="1.00" d=" M 399.41 373.63 C 406.41 378.55 415.01 380.43 423.43 380.91 C 423.31 391.26 419.50 401.71 412.02 409.01 C 407.01 413.90 400.06 417.56 392.87 416.55 C 385.33 415.55 379.11 410.35 374.62 404.49 C 382.90 394.22 391.17 383.94 399.41 373.63 M 400.22 385.88 C 397.45 392.84 394.73 399.82 392.03 406.80 C 398.94 402.98 405.94 399.31 412.66 395.15 C 409.62 390.83 405.16 387.67 400.22 385.88 Z" />
<path fill="#2649a3" opacity="1.00" d=" M 374.48 411.90 C 378.10 413.67 381.99 415.17 385.03 417.92 C 386.56 419.15 386.17 421.32 386.35 423.07 C 386.25 434.66 382.84 447.02 374.09 455.11 C 367.55 461.21 358.38 463.39 349.65 463.53 C 347.30 455.28 346.45 446.70 345.04 438.27 C 355.86 430.69 365.95 422.00 374.48 411.90 M 357.07 440.55 C 362.57 441.11 368.05 441.82 373.53 442.56 C 373.56 437.08 372.86 431.64 372.19 426.22 C 366.83 430.64 362.04 435.71 357.07 440.55 Z" />
<path fill="#2649a3" opacity="1.00" d=" M 105.48 422.33 C 120.79 419.37 136.68 418.15 152.09 421.09 C 157.88 422.32 164.01 424.29 167.99 428.94 C 169.93 431.11 170.57 434.03 170.97 436.84 C 166.89 437.71 162.99 439.23 158.94 440.25 C 151.69 441.79 148.89 449.84 147.15 456.17 C 140.76 457.90 134.15 458.60 127.57 459.03 C 129.27 457.40 131.48 455.65 131.38 453.04 C 131.32 445.80 130.04 438.53 127.46 431.76 C 122.06 437.28 117.43 443.64 111.04 448.11 C 107.68 450.46 104.98 453.59 102.71 456.97 C 98.84 455.52 95.11 453.66 91.80 451.16 C 95.22 441.42 92.29 430.38 87.27 421.69 C 93.27 422.74 99.43 423.60 105.48 422.33 Z" />
<path fill="#2649a3" opacity="1.00" d=" M 180.14 426.22 L 180.44 426.66 C 180.52 426.79 180.69 427.05 180.78 427.18 C 183.86 426.76 186.39 428.68 188.96 430.00 C 196.49 434.15 204.54 437.24 212.73 439.76 C 213.58 446.68 216.73 453.04 217.92 459.87 C 216.27 462.39 212.61 461.88 209.98 462.30 C 201.71 462.63 191.93 462.71 185.81 456.20 C 181.28 450.50 179.64 443.12 178.46 436.09 C 178.10 432.76 177.04 428.65 180.14 426.22 M 192.93 445.49 C 196.54 447.00 200.24 448.26 204.04 449.22 C 204.13 446.77 204.17 444.32 204.16 441.87 C 200.39 442.98 196.66 444.24 192.93 445.49 Z" />
<path fill="#2649a3" opacity="1.00" d=" M 295.96 442.05 C 309.49 440.67 323.05 439.70 336.55 438.09 C 339.17 442.60 338.66 447.99 338.83 453.00 C 338.75 456.92 339.12 461.32 336.56 464.61 C 334.54 467.17 331.05 467.63 328.00 467.61 C 324.54 467.51 320.81 468.20 317.66 466.39 C 310.67 462.74 304.05 457.93 299.46 451.43 C 297.44 448.69 296.38 445.39 295.96 442.05 M 312.96 450.38 C 318.24 453.70 323.71 456.73 329.24 459.62 C 330.04 455.20 330.41 450.72 330.76 446.25 C 324.61 446.46 318.67 448.23 312.96 450.38 Z" />
<path fill="#2649a3" opacity="1.00" d=" M 258.44 438.81 C 266.74 441.59 275.66 444.30 284.44 442.17 C 287.98 450.49 292.83 458.67 300.38 463.94 C 290.02 466.51 279.20 467.48 268.58 466.22 C 264.03 465.54 258.72 464.07 256.32 459.80 C 254.61 452.90 255.41 445.25 258.44 438.81 M 271.02 452.36 C 273.88 454.15 276.81 455.82 279.83 457.32 C 280.24 454.17 280.58 451.02 280.80 447.86 C 277.37 448.97 274.03 450.37 271.02 452.36 Z" />
<path fill="#2649a3" opacity="1.00" d=" M 224.82 439.97 C 231.59 440.91 238.43 441.09 245.22 441.78 C 245.35 442.34 245.61 443.46 245.73 444.02 C 246.96 449.46 249.31 454.59 250.37 460.07 C 250.93 462.27 249.09 464.27 246.95 464.39 C 241.96 464.93 236.88 464.73 231.93 463.99 C 229.90 463.56 227.01 463.06 226.62 460.58 C 225.28 453.80 225.23 446.85 224.82 439.97 M 232.08 450.56 C 235.35 452.37 238.63 454.16 241.93 455.91 C 241.67 452.52 241.31 449.14 240.85 445.78 C 237.80 447.13 234.85 448.71 232.08 450.56 Z" />
</g>
<g id="#162b61ff">
<path fill="#162b61" opacity="1.00" d=" M 208.61 13.37 C 216.74 14.43 226.07 15.79 231.65 22.45 C 234.13 24.95 230.45 27.32 228.46 28.49 C 223.12 31.26 217.17 34.21 211.10 34.05 C 208.11 27.65 209.01 20.25 208.61 13.37 M 213.83 19.77 C 213.26 22.29 213.26 24.88 213.72 27.42 C 216.59 26.99 222.22 26.95 222.17 23.05 C 219.72 21.24 216.72 20.52 213.83 19.77 Z" />
<path fill="#162b61" opacity="1.00" d=" M 321.62 16.70 C 326.33 18.15 331.07 19.65 335.46 21.93 C 331.79 24.57 327.87 26.82 323.93 29.02 C 322.92 24.96 322.16 20.84 321.62 16.70 Z" />
<path fill="#162b61" opacity="1.00" d=" M 293.84 22.94 C 298.83 24.39 303.83 25.82 308.72 27.55 C 308.76 27.79 308.82 28.26 308.86 28.49 C 305.07 30.28 301.07 31.54 297.16 33.00 C 295.90 29.70 294.75 26.36 293.84 22.94 Z" />
<path fill="#162b61" opacity="1.00" d=" M 261.10 29.95 C 267.22 30.27 273.22 31.58 279.24 32.61 C 275.18 36.46 270.25 39.22 265.70 42.44 C 263.76 38.44 262.53 34.15 261.10 29.95 Z" />
<path fill="#162b61" opacity="1.00" d=" M 148.72 47.90 C 148.30 42.81 148.22 37.68 148.58 32.58 C 158.21 35.15 167.85 37.92 176.92 42.10 C 179.64 43.30 182.06 45.05 184.23 47.06 C 179.56 50.12 174.30 52.07 169.13 54.11 C 163.45 56.21 157.75 58.40 151.79 59.59 C 149.51 56.13 149.11 51.92 148.72 47.90 M 155.90 40.80 C 155.50 44.31 155.46 47.86 155.74 51.39 C 161.38 51.57 167.10 49.81 171.97 47.01 C 167.42 43.33 161.30 42.67 155.90 40.80 Z" />
<path fill="#162b61" opacity="1.00" d=" M 233.72 40.75 C 239.67 40.67 245.62 40.93 251.56 41.26 C 247.71 45.47 243.46 49.32 239.15 53.05 C 237.27 48.98 235.38 44.91 233.72 40.75 Z" />
<path fill="#162b61" opacity="1.00" d=" M 202.63 51.19 C 210.05 51.41 217.49 51.46 224.90 52.05 C 221.38 56.26 218.45 60.96 214.52 64.82 C 210.76 60.09 206.25 56.02 202.63 51.19 Z" />
<path fill="#162b61" opacity="1.00" d=" M 79.87 58.55 C 92.57 62.20 105.26 65.84 117.91 69.64 C 110.06 81.23 98.42 89.82 85.88 95.78 C 83.90 83.37 81.85 70.96 79.87 58.55 M 89.99 70.22 C 90.31 74.87 90.91 79.51 92.06 84.02 C 97.67 81.81 103.19 78.44 106.35 73.15 C 100.92 72.06 95.48 70.96 89.99 70.22 Z" />
<path fill="#162b61" opacity="1.00" d=" M 173.93 67.43 C 182.03 67.28 190.13 66.66 198.23 66.87 C 193.79 72.54 189.29 78.24 184.23 83.37 C 180.84 78.03 177.01 72.96 173.93 67.43 Z" />
<path fill="#162b61" opacity="1.00" d=" M 137.58 84.26 C 148.42 82.71 159.25 81.08 170.12 79.83 C 164.51 89.12 158.58 98.21 152.71 107.33 C 147.14 100.02 142.44 92.05 137.58 84.26 Z" />
<path fill="#162b61" opacity="1.00" d=" M 72.98 126.04 C 76.68 122.00 82.87 121.21 88.10 121.52 C 86.39 128.15 83.60 134.45 80.65 140.61 C 78.87 144.07 77.29 147.84 74.10 150.26 C 72.66 142.36 70.99 133.93 72.98 126.04 M 78.29 127.84 C 77.69 128.84 77.18 129.88 76.75 130.97 C 76.37 132.85 78.06 135.65 80.14 134.24 C 81.70 132.00 81.10 128.63 78.29 127.84 Z" />
<path fill="#162b61" opacity="1.00" d=" M 42.41 196.97 C 43.71 194.69 46.40 193.39 48.96 193.26 C 50.52 192.87 51.65 194.51 51.31 195.94 C 50.92 201.38 49.48 206.67 47.91 211.87 C 46.02 206.93 43.66 202.13 42.41 196.97 M 45.40 199.62 C 45.98 201.16 47.94 200.77 49.20 201.21 C 49.28 199.80 50.64 197.83 48.95 196.89 C 47.30 195.42 44.40 197.64 45.40 199.62 Z" />
<path fill="#162b61" opacity="1.00" d=" M 162.86 211.29 C 167.73 208.17 172.54 204.93 177.62 202.16 C 180.28 209.32 182.70 216.70 183.16 224.39 C 177.20 218.85 170.14 214.82 162.86 211.29 Z" />
<path fill="#162b61" opacity="1.00" d=" M 50.19 218.96 C 49.84 214.11 52.43 209.45 55.30 205.70 C 56.96 213.63 58.54 221.58 60.07 229.54 C 56.30 226.57 51.90 223.66 50.19 218.96 Z" />
<path fill="#162b61" opacity="1.00" d=" M 73.12 210.85 C 78.13 218.03 83.14 225.22 87.84 232.61 C 81.89 235.14 76.02 237.85 70.02 240.24 C 70.85 230.43 71.70 220.60 73.12 210.85 Z" />
<path fill="#162b61" opacity="1.00" d=" M 295.30 220.55 C 302.20 219.36 309.19 218.83 316.13 217.98 C 313.30 223.57 310.18 229.02 306.96 234.39 C 302.85 229.98 299.11 225.22 295.30 220.55 M 304.33 221.52 C 301.01 223.80 304.51 229.55 308.02 227.15 C 311.69 224.91 307.92 219.30 304.33 221.52 Z" />
<path fill="#162b61" opacity="1.00" d=" M 145.87 224.37 C 151.04 224.14 156.20 223.79 161.38 223.85 C 159.21 228.46 156.63 232.89 153.53 236.94 C 151.02 232.73 148.30 228.63 145.87 224.37 Z" />
<path fill="#162b61" opacity="1.00" d=" M 280.91 225.78 C 283.79 228.33 286.38 231.19 288.84 234.15 C 285.24 236.09 281.53 237.82 277.73 239.30 C 278.44 234.72 279.57 230.21 280.91 225.78 Z" />
<path fill="#162b61" opacity="1.00" d=" M 330.11 225.92 C 340.27 228.66 350.66 231.85 359.28 238.10 C 353.09 244.38 346.92 250.75 340.16 256.42 C 337.91 245.92 334.29 235.79 330.11 225.92 M 342.29 235.40 C 339.67 236.56 339.36 240.79 341.89 242.23 C 344.24 243.89 348.03 241.96 347.81 239.00 C 348.04 236.15 344.78 234.29 342.29 235.40 Z" />
<path fill="#162b61" opacity="1.00" d=" M 177.97 237.29 C 185.17 234.38 192.03 230.71 199.18 227.68 C 201.28 235.48 197.55 243.23 194.03 250.00 C 191.36 255.04 187.97 259.67 184.14 263.88 C 184.62 254.62 181.85 245.59 177.97 237.29 Z" />
<path fill="#162b61" opacity="1.00" d=" M 128.67 237.10 C 133.35 236.75 138.04 236.57 142.74 236.58 C 141.17 240.87 138.99 244.90 136.82 248.91 C 134.05 245.01 131.18 241.17 128.67 237.10 Z" />
<path fill="#162b61" opacity="1.00" d=" M 270.65 244.85 C 274.18 244.48 277.72 244.39 281.27 244.54 C 280.29 247.84 279.16 251.10 277.83 254.29 C 275.00 251.50 272.61 248.30 270.65 244.85 Z" />
<path fill="#162b61" opacity="1.00" d=" M 81.07 248.52 C 84.54 252.95 87.62 257.72 90.22 262.71 C 85.82 263.47 81.39 264.08 76.98 264.75 C 77.60 259.18 79.39 253.84 81.07 248.52 Z" />
<path fill="#162b61" opacity="1.00" d=" M 351.72 248.65 C 361.31 250.27 370.83 253.56 378.84 259.15 C 380.89 260.11 378.88 261.96 378.09 263.08 C 372.48 269.76 365.02 274.78 356.99 278.08 C 353.89 268.57 352.21 258.62 351.72 248.65 M 361.21 257.36 C 356.99 258.38 356.33 264.91 360.24 266.80 C 363.48 269.10 368.56 265.93 367.89 262.01 C 368.01 258.69 364.25 256.35 361.21 257.36 Z" />
<path fill="#162b61" opacity="1.00" d=" M 45.83 252.49 C 51.67 255.58 57.15 259.35 62.65 263.00 C 58.32 266.98 53.95 270.96 49.16 274.38 C 47.80 267.12 46.64 259.82 45.83 252.49 Z" />
<path fill="#162b61" opacity="1.00" d=" M 276.35 263.60 C 279.22 261.60 282.44 260.16 285.69 258.87 C 285.22 261.97 284.66 265.05 284.00 268.11 C 281.39 267.01 278.70 266.02 276.30 264.50 C 276.31 264.28 276.33 263.83 276.35 263.60 Z" />
<path fill="#162b61" opacity="1.00" d=" M 285.98 275.94 C 287.99 273.69 290.07 271.51 292.22 269.40 C 293.55 272.41 294.49 275.56 295.12 278.78 C 292.04 277.94 289.00 276.98 285.98 275.94 Z" />
<path fill="#162b61" opacity="1.00" d=" M 338.96 271.97 C 347.44 277.16 356.27 281.72 365.36 285.75 C 357.71 289.68 350.37 294.16 343.20 298.89 C 342.30 289.83 339.52 281.06 338.96 271.97 M 345.34 283.52 C 343.47 284.71 343.70 288.43 346.00 289.19 C 348.56 290.66 351.75 287.38 350.33 284.85 C 349.52 282.86 347.04 282.74 345.34 283.52 Z" />
<path fill="#162b61" opacity="1.00" d=" M 84.50 273.13 C 84.74 273.21 85.22 273.37 85.45 273.45 C 88.37 277.91 90.97 282.60 93.42 287.35 C 88.35 287.55 83.29 287.29 78.24 286.87 C 80.50 282.37 82.28 277.65 84.50 273.13 Z" />
<path fill="#162b61" opacity="1.00" d=" M 58.30 274.81 C 63.33 278.19 67.94 282.13 72.87 285.65 C 68.26 288.79 63.25 291.26 58.33 293.86 C 58.38 287.51 58.22 281.16 58.30 274.81 Z" />
<path fill="#162b61" opacity="1.00" d=" M 297.10 286.47 C 299.33 284.08 301.68 281.81 304.17 279.69 C 305.59 282.69 306.71 285.83 307.74 288.99 C 304.18 288.22 300.63 287.36 297.10 286.47 Z" />
<path fill="#162b61" opacity="1.00" d=" M 310.94 296.51 C 312.58 294.14 314.34 291.86 316.22 289.68 C 318.27 292.85 319.48 296.44 320.81 299.95 C 317.49 298.89 314.20 297.73 310.94 296.51 Z" />
<path fill="#162b61" opacity="1.00" d=" M 91.17 306.99 C 93.95 303.28 97.72 300.45 100.91 297.10 C 100.10 304.09 98.92 311.05 97.59 317.96 C 95.51 314.27 92.95 310.84 91.17 306.99 Z" />
<path fill="#162b61" opacity="1.00" d=" M 408.64 299.15 C 414.49 298.75 420.32 298.18 426.18 297.87 C 422.50 305.41 418.13 312.60 414.25 320.05 C 411.87 313.24 410.19 306.19 408.64 299.15 Z" />
<path fill="#162b61" opacity="1.00" d=" M 437.53 300.65 C 442.00 307.14 445.63 314.16 449.81 320.84 C 445.13 322.04 440.40 323.66 436.93 327.19 C 437.22 318.34 437.19 309.49 437.53 300.65 M 440.42 314.44 C 438.94 314.99 439.29 316.80 438.91 318.01 C 441.09 319.20 443.04 318.35 444.07 316.17 C 442.96 315.47 441.92 313.77 440.42 314.44 Z" />
<path fill="#162b61" opacity="1.00" d=" M 322.85 308.20 C 325.26 306.71 327.34 304.19 330.13 303.56 C 331.50 307.05 332.32 310.72 333.14 314.37 C 329.50 312.68 326.07 310.58 322.85 308.20 Z" />
<path fill="#162b61" opacity="1.00" d=" M 100.54 320.90 C 104.28 319.54 108.10 318.43 111.92 317.29 C 110.41 321.48 108.96 325.71 107.17 329.79 C 104.73 327.00 102.51 324.04 100.54 320.90 Z" />
<path fill="#162b61" opacity="1.00" d=" M 108.36 334.00 C 111.71 336.38 114.90 339.00 118.12 341.56 C 114.57 343.28 110.80 344.46 107.07 345.71 C 107.34 341.79 107.78 337.88 108.36 334.00 Z" />
<path fill="#162b61" opacity="1.00" d=" M 404.93 344.29 C 410.70 343.47 416.69 343.06 422.28 345.07 C 418.84 351.84 414.41 358.09 410.08 364.31 C 408.20 357.68 406.16 351.07 404.93 344.29 Z" />
<path fill="#162b61" opacity="1.00" d=" M 101.30 351.92 C 104.50 356.15 107.46 360.57 110.14 365.15 C 104.71 365.49 99.26 365.46 93.82 365.26 C 96.08 360.68 98.74 356.32 101.30 351.92 Z" />
<path fill="#162b61" opacity="1.00" d=" M 436.49 352.75 C 439.72 357.84 442.28 363.33 445.45 368.47 C 440.92 371.11 436.16 373.32 431.51 375.72 C 433.15 368.06 434.85 360.41 436.49 352.75 M 437.04 363.14 C 436.45 364.98 436.46 366.90 437.07 368.74 C 437.77 368.74 439.18 368.73 439.89 368.72 C 440.10 366.89 440.09 365.04 439.92 363.21 C 439.20 363.19 437.76 363.15 437.04 363.14 Z" />
<path fill="#162b61" opacity="1.00" d=" M 400.22 385.88 C 405.16 387.67 409.62 390.83 412.66 395.15 C 405.94 399.31 398.94 402.98 392.03 406.80 C 394.73 399.82 397.45 392.84 400.22 385.88 Z" />
<path fill="#162b61" opacity="1.00" d=" M 416.25 413.40 C 420.54 405.21 424.72 396.95 429.11 388.81 C 430.83 396.13 432.42 403.49 434.05 410.83 C 428.12 411.74 422.19 412.59 416.25 413.40 M 425.19 402.13 C 423.51 403.13 423.49 406.88 425.67 407.34 C 427.67 408.35 430.28 406.26 429.70 404.09 C 429.53 402.08 426.79 400.81 425.19 402.13 Z" />
<path fill="#162b61" opacity="1.00" d=" M 357.07 440.55 C 362.04 435.71 366.83 430.64 372.19 426.22 C 372.86 431.64 373.56 437.08 373.53 442.56 C 368.05 441.82 362.57 441.11 357.07 440.55 Z" />
<path fill="#162b61" opacity="1.00" d=" M 380.15 454.58 C 385.40 446.17 390.56 437.71 395.89 429.35 C 396.09 437.28 396.27 445.21 396.39 453.15 C 390.98 453.61 385.57 454.11 380.15 454.58 M 389.42 443.44 C 385.89 444.78 388.38 450.84 391.91 449.09 C 395.71 447.76 393.04 441.72 389.42 443.44 Z" />
<path fill="#162b61" opacity="1.00" d=" M 192.93 445.49 C 196.66 444.24 200.39 442.98 204.16 441.87 C 204.17 444.32 204.13 446.77 204.04 449.22 C 200.24 448.26 196.54 447.00 192.93 445.49 Z" />
<path fill="#162b61" opacity="1.00" d=" M 232.08 450.56 C 234.85 448.71 237.80 447.13 240.85 445.78 C 241.31 449.14 241.67 452.52 241.93 455.91 C 238.63 454.16 235.35 452.37 232.08 450.56 Z" />
<path fill="#162b61" opacity="1.00" d=" M 312.96 450.38 C 318.67 448.23 324.61 446.46 330.76 446.25 C 330.41 450.72 330.04 455.20 329.24 459.62 C 323.71 456.73 318.24 453.70 312.96 450.38 Z" />
<path fill="#162b61" opacity="1.00" d=" M 271.02 452.36 C 274.03 450.37 277.37 448.97 280.80 447.86 C 280.58 451.02 280.24 454.17 279.83 457.32 C 276.81 455.82 273.88 454.15 271.02 452.36 Z" />
</g>
<g id="#979974ff">
<path fill="#979974" opacity="1.00" d=" M 310.92 41.58 C 335.28 36.89 360.06 33.25 384.94 34.25 C 397.75 34.75 410.77 34.90 423.22 38.27 L 423.87 38.42 C 413.05 46.08 401.05 53.96 395.75 66.66 C 392.14 76.06 391.02 87.50 396.72 96.32 C 404.24 108.54 416.84 116.11 428.38 124.03 C 409.19 117.44 389.17 113.71 369.09 111.08 C 343.21 107.72 317.10 106.28 291.02 106.06 C 265.45 105.84 239.74 107.43 214.71 112.85 C 199.39 116.11 184.45 121.19 170.45 128.24 C 178.40 120.28 188.92 115.67 199.01 111.06 C 211.56 105.65 224.53 101.19 237.80 97.86 C 240.67 97.27 243.78 96.32 246.63 97.51 C 250.34 99.00 253.72 101.29 257.66 102.21 C 264.89 103.96 272.43 104.00 279.82 103.52 C 286.46 102.91 293.59 101.39 298.49 96.52 C 302.27 92.98 302.82 87.27 306.82 83.91 C 313.09 89.45 318.77 95.83 326.24 99.82 C 337.86 106.49 352.91 107.21 364.81 100.84 C 370.86 97.69 375.78 92.70 379.39 86.95 C 369.44 92.44 358.10 96.81 346.55 95.29 C 337.96 93.38 330.06 88.30 324.66 81.37 C 320.50 76.22 321.17 68.95 323.03 63.02 C 325.17 56.52 331.53 52.39 338.06 51.32 C 350.23 49.25 363.21 51.71 373.65 58.35 C 377.27 60.60 380.30 63.61 383.51 66.39 C 381.23 58.13 375.27 51.14 367.70 47.23 C 358.29 42.29 347.28 41.45 336.86 42.38 C 326.48 43.39 315.79 47.95 309.96 56.97 C 306.56 61.78 305.58 67.68 304.67 73.36 C 301.55 69.77 298.66 65.77 294.41 63.44 C 286.84 58.90 277.54 59.01 269.12 60.51 C 258.77 62.42 248.66 67.79 242.61 76.59 C 240.44 79.46 241.36 83.53 239.38 86.43 C 236.95 87.89 233.97 87.79 231.27 88.33 C 209.33 91.93 187.84 98.09 167.22 106.38 C 177.99 95.48 190.85 86.86 204.05 79.19 C 237.10 60.44 273.82 49.09 310.92 41.58 Z" />
<path fill="#979974" opacity="1.00" d=" M 272.31 69.47 C 276.21 68.53 280.43 68.34 284.24 69.73 C 289.61 71.69 293.25 77.34 293.27 82.98 C 292.41 87.41 289.16 91.09 285.38 93.38 C 280.52 96.25 274.54 96.00 269.22 94.76 C 264.74 93.62 260.17 91.46 257.55 87.49 C 255.93 85.17 256.45 82.11 257.83 79.82 C 260.98 74.58 266.46 70.99 272.31 69.47 Z" />
<path fill="#979974" opacity="1.00" d=" M 260.96 116.08 C 303.11 113.62 345.43 117.36 386.96 124.60 C 405.13 127.77 422.68 133.63 440.05 139.73 C 435.64 139.22 431.75 141.96 428.28 144.30 C 420.62 150.13 414.31 158.05 411.14 167.20 C 409.13 172.93 410.81 179.25 414.19 184.10 C 399.00 176.86 383.22 170.89 367.10 166.04 C 335.21 156.53 302.28 150.37 269.06 148.29 C 246.71 146.59 224.36 144.93 201.97 143.80 C 196.47 143.40 190.88 144.36 185.45 143.15 C 206.22 140.64 227.06 138.57 247.94 137.31 C 252.60 137.16 257.34 136.58 261.96 137.49 C 264.60 139.40 266.61 142.14 269.61 143.58 C 278.10 148.04 288.32 148.78 297.54 146.40 C 302.98 145.04 307.00 140.32 312.73 139.82 C 317.30 148.51 326.99 152.61 335.87 155.43 C 345.64 158.52 357.24 156.75 364.39 149.00 C 357.74 152.12 350.31 154.00 342.95 152.82 C 336.67 151.79 330.67 148.09 327.41 142.56 C 324.87 138.30 327.56 132.70 331.61 130.48 C 336.04 128.08 341.39 127.89 346.26 128.79 C 354.48 130.52 361.22 135.83 367.75 140.80 C 364.88 130.67 355.50 123.35 345.16 122.17 C 335.67 121.09 324.55 121.28 317.20 128.29 C 315.03 130.16 312.51 133.17 309.31 131.63 C 304.99 128.58 303.75 122.62 299.13 119.81 C 292.72 115.82 284.59 116.84 277.55 118.34 C 271.25 119.65 266.26 123.96 262.18 128.72 C 246.54 126.69 230.75 125.72 214.98 126.19 C 203.95 126.58 193.09 128.88 182.49 131.86 C 190.66 127.23 199.79 124.66 208.88 122.56 C 225.99 118.80 243.48 116.99 260.96 116.08 Z" />
<path fill="#979974" opacity="1.00" d=" M 283.45 123.65 C 289.95 122.19 298.68 124.84 300.30 132.05 C 300.69 137.62 294.56 140.71 289.87 141.53 C 283.41 142.71 274.90 139.96 273.15 132.97 C 272.53 127.39 278.92 124.61 283.45 123.65 Z" />
<path fill="#979974" opacity="1.00" d=" M 212.04 150.86 C 230.38 149.49 248.80 150.74 267.03 152.89 C 304.63 157.59 341.72 166.20 377.64 178.24 C 393.47 183.79 409.26 189.75 423.95 197.92 C 414.07 196.19 403.46 194.72 393.88 198.58 C 387.38 201.18 380.99 205.23 377.40 211.42 C 375.52 214.47 376.47 218.14 377.77 221.20 C 371.00 215.62 363.23 211.43 355.37 207.61 C 339.67 200.16 323.21 194.46 306.65 189.25 C 295.83 185.96 284.98 182.67 273.87 180.46 C 253.77 176.33 233.56 172.78 213.31 169.45 C 227.40 167.32 241.78 167.78 255.94 168.97 C 259.84 169.56 264.57 169.27 267.32 172.63 C 270.79 176.44 274.92 179.97 280.11 181.04 C 287.66 182.61 295.67 181.73 302.81 178.83 C 306.01 177.50 310.41 178.50 312.08 181.73 C 315.40 187.65 320.87 192.45 327.34 194.61 C 333.78 196.57 340.43 193.48 345.09 189.09 C 338.71 190.13 331.57 192.14 325.62 188.54 C 321.85 186.28 317.90 181.73 320.00 177.10 C 322.27 174.01 326.68 174.22 330.11 174.17 C 335.65 174.07 340.27 177.44 344.58 180.50 C 341.94 175.72 338.32 170.93 332.90 169.22 C 326.93 167.55 320.40 168.96 315.18 172.15 C 312.69 173.46 309.31 175.69 306.77 173.25 C 303.25 169.67 301.70 164.48 297.63 161.37 C 292.13 157.11 284.42 157.01 277.99 158.92 C 273.77 160.12 270.51 163.15 266.81 165.33 C 264.92 165.10 263.18 164.30 261.44 163.60 C 249.89 158.62 237.51 155.45 224.93 154.80 C 213.38 154.30 201.83 155.06 190.32 155.86 C 196.97 152.28 204.66 151.59 212.04 150.86 Z" />
<path fill="#979974" opacity="1.00" d=" M 281.45 163.64 C 287.53 160.94 297.48 164.31 296.86 172.02 C 293.74 178.50 283.85 180.79 278.74 175.22 C 274.75 171.91 276.78 165.15 281.45 163.64 Z" />
<path fill="#979974" opacity="1.00" d=" M 140.53 179.51 C 149.55 175.68 159.38 173.89 169.17 173.89 C 170.81 176.14 172.54 178.34 174.75 180.07 C 171.87 182.04 168.79 183.70 166.04 185.84 C 162.58 188.70 160.04 192.47 157.65 196.22 C 151.94 190.31 145.41 185.19 138.12 181.36 C 138.15 180.11 139.71 180.06 140.53 179.51 Z" />
<path fill="#979974" opacity="1.00" d=" M 121.25 185.90 C 124.51 184.68 127.64 182.98 131.07 182.26 C 133.44 182.77 135.45 184.23 137.48 185.47 C 144.59 190.20 151.50 195.42 157.05 201.97 C 148.71 209.15 140.20 216.16 131.24 222.55 C 128.41 219.45 125.91 215.66 121.85 214.07 C 119.89 213.29 118.08 212.21 116.38 210.97 L 116.46 210.38 C 117.31 202.08 119.30 193.99 121.25 185.90 Z" />
<path fill="#979974" opacity="1.00" d=" M 91.12 217.07 C 92.03 216.68 92.93 216.29 93.84 215.90 C 96.95 220.35 100.17 224.72 103.71 228.84 C 110.56 237.08 118.30 244.53 125.47 252.46 C 127.18 258.40 127.40 265.74 123.85 271.12 C 113.42 269.96 102.77 270.00 92.60 267.16 C 93.77 261.83 95.17 256.46 94.81 250.95 C 94.19 239.60 92.69 228.32 91.12 217.07 M 101.80 236.29 C 101.83 242.25 101.52 248.32 102.78 254.19 C 103.68 259.40 110.58 260.40 114.71 258.69 C 116.05 257.43 115.10 255.91 114.43 254.59 C 110.71 248.18 106.44 242.07 101.80 236.29 Z" />
<path fill="#979974" opacity="1.00" d=" M 117.94 216.26 C 121.49 218.86 124.80 221.78 128.02 224.77 C 125.76 226.27 123.48 227.74 121.10 229.04 C 121.33 224.53 119.90 220.24 117.94 216.26 Z" />
<path fill="#979974" opacity="1.00" d=" M 389.87 325.02 C 390.49 300.89 390.98 276.76 391.77 252.65 C 397.66 255.43 403.55 258.24 409.48 260.96 C 404.85 264.63 404.11 270.77 403.27 276.21 C 401.02 294.41 401.84 312.83 400.03 331.08 C 397.40 331.04 394.75 331.26 392.15 330.78 C 389.79 329.95 389.81 327.08 389.87 325.02 Z" />
<path fill="#979974" opacity="1.00" d=" M 126.86 282.75 C 126.89 278.67 130.96 275.60 134.84 275.67 C 140.63 276.73 146.25 278.57 152.10 279.31 C 158.41 279.75 162.96 285.25 165.74 290.46 C 167.43 293.25 166.41 296.48 165.24 299.24 C 161.54 307.98 162.16 317.67 162.15 326.94 C 162.17 346.01 163.03 365.06 164.44 384.06 C 165.02 388.70 162.60 395.04 157.09 394.83 C 151.36 394.45 144.46 396.52 139.82 392.12 C 136.29 389.06 137.64 384.00 137.43 379.93 C 139.55 379.20 142.44 378.59 142.93 375.99 C 143.43 371.00 143.10 365.96 143.14 360.95 C 143.37 357.24 140.12 354.91 137.70 352.68 C 140.55 349.09 144.41 344.50 142.48 339.63 C 138.32 329.66 131.33 319.94 132.87 308.58 C 137.29 310.06 142.24 311.50 146.82 309.81 C 148.80 309.07 150.01 307.05 150.09 304.98 C 150.48 300.69 150.53 296.35 150.12 292.06 C 149.85 288.36 145.55 286.28 142.24 287.33 C 138.72 288.21 136.60 291.38 134.64 294.17 C 137.86 293.49 141.06 291.94 144.40 292.40 C 146.69 296.69 145.18 301.70 144.04 306.10 C 137.99 305.43 132.10 303.88 126.16 302.61 C 126.32 295.99 126.40 289.36 126.86 282.75 Z" />
<path fill="#979974" opacity="1.00" d=" M 121.01 312.95 C 121.97 309.42 128.00 309.48 130.00 312.10 C 130.80 315.35 129.23 318.57 127.91 321.46 C 124.47 319.94 121.77 316.63 121.01 312.95 Z" />
<path fill="#979974" opacity="1.00" d=" M 249.21 329.15 C 253.88 325.36 260.21 324.95 265.99 324.96 C 275.37 325.06 284.93 325.29 294.00 327.98 C 300.64 329.92 305.87 334.62 311.13 338.87 C 318.83 345.15 326.36 351.64 334.02 357.97 C 336.19 359.92 339.37 360.58 341.31 362.72 C 342.92 367.57 341.10 372.87 338.47 377.03 C 336.09 378.17 333.60 379.06 331.20 380.15 C 331.59 377.29 332.45 374.22 331.46 371.39 C 329.04 367.05 325.02 363.93 321.44 360.59 C 313.17 353.44 304.47 346.77 295.33 340.77 C 292.21 338.64 288.66 337.17 284.93 336.59 C 276.72 335.23 268.23 334.99 260.06 336.67 C 256.71 337.31 253.82 339.69 252.61 342.88 C 250.06 349.02 249.93 355.79 248.87 362.27 C 247.88 360.98 246.82 359.72 246.01 358.31 C 244.90 352.29 244.35 346.14 244.55 340.03 C 244.67 336.00 245.96 331.76 249.21 329.15 Z" />
<path fill="#979974" opacity="1.00" d=" M 130.44 332.42 C 133.85 331.14 136.19 334.75 137.49 337.33 C 139.54 340.61 138.63 345.76 134.93 347.39 C 130.90 345.76 128.11 341.73 126.19 337.94 C 124.93 335.10 128.03 332.95 130.44 332.42 Z" />
<path fill="#979974" opacity="1.00" d=" M 385.96 343.00 C 386.02 340.79 386.52 337.83 389.01 337.11 C 392.44 336.61 395.93 336.93 399.40 336.88 C 398.60 346.70 397.62 356.51 396.70 366.32 C 391.86 364.12 388.06 359.83 386.12 354.93 C 385.63 350.98 385.88 346.97 385.96 343.00 Z" />
<path fill="#979974" opacity="1.00" d=" M 125.97 353.93 C 130.77 355.09 135.73 357.60 138.15 362.09 C 139.81 365.01 136.21 366.95 133.94 367.76 C 131.95 368.25 128.69 370.20 127.54 367.50 C 125.58 363.33 124.80 358.44 125.97 353.93 Z" />
<path fill="#979974" opacity="1.00" d=" M 382.41 364.56 C 384.61 363.96 387.35 363.11 389.34 364.69 C 393.03 367.26 396.28 370.41 399.41 373.63 C 391.17 383.94 382.90 394.22 374.62 404.49 C 369.86 400.71 364.83 397.22 360.50 392.93 C 363.71 386.60 367.86 380.81 371.78 374.91 C 374.59 370.84 377.43 366.16 382.41 364.56 Z" />
<path fill="#979974" opacity="1.00" d=" M 332.97 417.15 C 342.19 413.26 351.33 408.92 361.12 406.63 C 366.18 405.41 371.27 408.07 374.48 411.90 C 365.95 422.00 355.86 430.69 345.04 438.27 C 341.80 430.81 337.41 423.93 332.97 417.15 Z" />
<path fill="#979974" opacity="1.00" d=" M 298.60 427.64 C 300.87 425.47 304.21 425.19 307.15 424.63 C 313.36 423.93 319.69 423.50 325.92 424.11 C 331.42 426.79 333.84 432.97 336.55 438.09 C 323.05 439.70 309.49 440.67 295.96 442.05 C 296.28 437.22 295.90 431.89 298.60 427.64 Z" />
<path fill="#979974" opacity="1.00" d=" M 180.44 426.66 C 180.47 426.45 180.53 426.02 180.56 425.81 C 189.29 427.00 198.15 424.80 206.91 425.58 C 212.90 427.23 212.96 434.73 212.73 439.76 C 204.54 437.24 196.49 434.15 188.96 430.00 C 186.39 428.68 183.86 426.76 180.78 427.18 C 180.69 427.05 180.52 426.79 180.44 426.66 Z" />
<path fill="#979974" opacity="1.00" d=" M 222.62 432.86 C 222.34 430.55 222.50 427.48 225.06 426.51 C 230.04 426.41 235.06 426.78 240.01 427.40 C 242.16 427.64 243.65 429.47 244.45 431.34 C 246.38 435.32 245.48 439.78 245.73 444.02 C 245.61 443.46 245.35 442.34 245.22 441.78 C 238.43 441.09 231.59 440.91 224.82 439.97 C 222.79 438.28 222.94 435.26 222.62 432.86 Z" />
<path fill="#979974" opacity="1.00" d=" M 259.67 427.69 C 260.99 426.12 263.21 426.65 265.00 426.50 C 269.62 426.62 274.26 426.31 278.87 426.69 C 281.01 426.79 282.96 428.24 283.58 430.30 C 284.76 434.14 284.30 438.21 284.44 442.17 C 275.66 444.30 266.74 441.59 258.44 438.81 C 258.54 435.15 256.93 430.74 259.67 427.69 Z" />
</g>
<g id="#3f432dff">
<path fill="#3f432d" opacity="1.00" d=" M 309.96 56.97 C 315.79 47.95 326.48 43.39 336.86 42.38 C 347.28 41.45 358.29 42.29 367.70 47.23 C 375.27 51.14 381.23 58.13 383.51 66.39 C 380.30 63.61 377.27 60.60 373.65 58.35 C 363.21 51.71 350.23 49.25 338.06 51.32 C 331.53 52.39 325.17 56.52 323.03 63.02 C 321.17 68.95 320.50 76.22 324.66 81.37 C 330.06 88.30 337.96 93.38 346.55 95.29 C 358.10 96.81 369.44 92.44 379.39 86.95 C 375.78 92.70 370.86 97.69 364.81 100.84 C 352.91 107.21 337.86 106.49 326.24 99.82 C 318.77 95.83 313.09 89.45 306.82 83.91 C 302.82 87.27 302.27 92.98 298.49 96.52 C 293.59 101.39 286.46 102.91 279.82 103.52 C 272.43 104.00 264.89 103.96 257.66 102.21 C 253.72 101.29 250.34 99.00 246.63 97.51 C 243.78 96.32 240.67 97.27 237.80 97.86 C 224.53 101.19 211.56 105.65 199.01 111.06 C 188.92 115.67 178.40 120.28 170.45 128.24 C 168.26 129.36 165.96 131.22 163.34 130.57 C 158.13 129.20 155.30 122.65 157.82 117.89 C 160.15 113.48 163.72 109.87 167.22 106.38 C 187.84 98.09 209.33 91.93 231.27 88.33 C 233.97 87.79 236.95 87.89 239.38 86.43 C 241.36 83.53 240.44 79.46 242.61 76.59 C 248.66 67.79 258.77 62.42 269.12 60.51 C 277.54 59.01 286.84 58.90 294.41 63.44 C 298.66 65.77 301.55 69.77 304.67 73.36 C 305.58 67.68 306.56 61.78 309.96 56.97 M 272.31 69.47 C 266.46 70.99 260.98 74.58 257.83 79.82 C 256.45 82.11 255.93 85.17 257.55 87.49 C 260.17 91.46 264.74 93.62 269.22 94.76 C 274.54 96.00 280.52 96.25 285.38 93.38 C 289.16 91.09 292.41 87.41 293.27 82.98 C 293.25 77.34 289.61 71.69 284.24 69.73 C 280.43 68.34 276.21 68.53 272.31 69.47 Z" />
<path fill="#3f432d" opacity="1.00" d=" M 277.55 118.34 C 284.59 116.84 292.72 115.82 299.13 119.81 C 303.75 122.62 304.99 128.58 309.31 131.63 C 312.51 133.17 315.03 130.16 317.20 128.29 C 324.55 121.28 335.67 121.09 345.16 122.17 C 355.50 123.35 364.88 130.67 367.75 140.80 C 361.22 135.83 354.48 130.52 346.26 128.79 C 341.39 127.89 336.04 128.08 331.61 130.48 C 327.56 132.70 324.87 138.30 327.41 142.56 C 330.67 148.09 336.67 151.79 342.95 152.82 C 350.31 154.00 357.74 152.12 364.39 149.00 C 357.24 156.75 345.64 158.52 335.87 155.43 C 326.99 152.61 317.30 148.51 312.73 139.82 C 307.00 140.32 302.98 145.04 297.54 146.40 C 288.32 148.78 278.10 148.04 269.61 143.58 C 266.61 142.14 264.60 139.40 261.96 137.49 C 257.34 136.58 252.60 137.16 247.94 137.31 C 227.06 138.57 206.22 140.64 185.45 143.15 C 181.42 142.37 177.96 139.99 175.07 137.17 C 177.40 135.22 179.78 133.27 182.49 131.86 C 193.09 128.88 203.95 126.58 214.98 126.19 C 230.75 125.72 246.54 126.69 262.18 128.72 C 266.26 123.96 271.25 119.65 277.55 118.34 M 283.45 123.65 C 278.92 124.61 272.53 127.39 273.15 132.97 C 274.90 139.96 283.41 142.71 289.87 141.53 C 294.56 140.71 300.69 137.62 300.30 132.05 C 298.68 124.84 289.95 122.19 283.45 123.65 Z" />
<path fill="#3f432d" opacity="1.00" d=" M 78.29 127.84 C 81.10 128.63 81.70 132.00 80.14 134.24 C 78.06 135.65 76.37 132.85 76.75 130.97 C 77.18 129.88 77.69 128.84 78.29 127.84 Z" />
<path fill="#3f432d" opacity="1.00" d=" M 190.32 155.86 C 201.83 155.06 213.38 154.30 224.93 154.80 C 237.51 155.45 249.89 158.62 261.44 163.60 C 263.18 164.30 264.92 165.10 266.81 165.33 C 270.51 163.15 273.77 160.12 277.99 158.92 C 284.42 157.01 292.13 157.11 297.63 161.37 C 301.70 164.48 303.25 169.67 306.77 173.25 C 309.31 175.69 312.69 173.46 315.18 172.15 C 320.40 168.96 326.93 167.55 332.90 169.22 C 338.32 170.93 341.94 175.72 344.58 180.50 C 340.27 177.44 335.65 174.07 330.11 174.17 C 326.68 174.22 322.27 174.01 320.00 177.10 C 317.90 181.73 321.85 186.28 325.62 188.54 C 331.57 192.14 338.71 190.13 345.09 189.09 C 340.43 193.48 333.78 196.57 327.34 194.61 C 320.87 192.45 315.40 187.65 312.08 181.73 C 310.41 178.50 306.01 177.50 302.81 178.83 C 295.67 181.73 287.66 182.61 280.11 181.04 C 274.92 179.97 270.79 176.44 267.32 172.63 C 264.57 169.27 259.84 169.56 255.94 168.97 C 241.78 167.78 227.40 167.32 213.31 169.45 C 205.10 169.02 195.81 168.43 189.49 162.52 C 187.32 160.53 188.22 157.47 190.32 155.86 M 281.45 163.64 C 276.78 165.15 274.75 171.91 278.74 175.22 C 283.85 180.79 293.74 178.50 296.86 172.02 C 297.48 164.31 287.53 160.94 281.45 163.64 Z" />
<path fill="#3f432d" opacity="1.00" d=" M 45.40 199.62 C 44.40 197.64 47.30 195.42 48.95 196.89 C 50.64 197.83 49.28 199.80 49.20 201.21 C 47.94 200.77 45.98 201.16 45.40 199.62 Z" />
<path fill="#3f432d" opacity="1.00" d=" M 304.33 221.52 C 307.92 219.30 311.69 224.91 308.02 227.15 C 304.51 229.55 301.01 223.80 304.33 221.52 Z" />
<path fill="#3f432d" opacity="1.00" d=" M 342.29 235.40 C 344.78 234.29 348.04 236.15 347.81 239.00 C 348.03 241.96 344.24 243.89 341.89 242.23 C 339.36 240.79 339.67 236.56 342.29 235.40 Z" />
<path fill="#3f432d" opacity="1.00" d=" M 101.80 236.29 C 106.44 242.07 110.71 248.18 114.43 254.59 C 115.10 255.91 116.05 257.43 114.71 258.69 C 110.58 260.40 103.68 259.40 102.78 254.19 C 101.52 248.32 101.83 242.25 101.80 236.29 Z" />
<path fill="#3f432d" opacity="1.00" d=" M 361.21 257.36 C 364.25 256.35 368.01 258.69 367.89 262.01 C 368.56 265.93 363.48 269.10 360.24 266.80 C 356.33 264.91 356.99 258.38 361.21 257.36 Z" />
<path fill="#3f432d" opacity="1.00" d=" M 123.88 274.68 C 127.53 274.96 131.20 275.17 134.84 275.67 C 130.96 275.60 126.89 278.67 126.86 282.75 C 126.40 289.36 126.32 295.99 126.16 302.61 C 132.10 303.88 137.99 305.43 144.04 306.10 C 145.18 301.70 146.69 296.69 144.40 292.40 C 141.06 291.94 137.86 293.49 134.64 294.17 C 136.60 291.38 138.72 288.21 142.24 287.33 C 145.55 286.28 149.85 288.36 150.12 292.06 C 150.53 296.35 150.48 300.69 150.09 304.98 C 150.01 307.05 148.80 309.07 146.82 309.81 C 142.24 311.50 137.29 310.06 132.87 308.58 C 129.69 307.36 126.48 306.24 123.15 305.53 C 123.39 295.25 123.62 284.97 123.88 274.68 Z" />
<path fill="#3f432d" opacity="1.00" d=" M 345.34 283.52 C 347.04 282.74 349.52 282.86 350.33 284.85 C 351.75 287.38 348.56 290.66 346.00 289.19 C 343.70 288.43 343.47 284.71 345.34 283.52 Z" />
<path fill="#3f432d" opacity="1.00" d=" M 440.42 314.44 C 441.92 313.77 442.96 315.47 444.07 316.17 C 443.04 318.35 441.09 319.20 438.91 318.01 C 439.29 316.80 438.94 314.99 440.42 314.44 Z" />
<path fill="#3f432d" opacity="1.00" d=" M 437.04 363.14 C 437.76 363.15 439.20 363.19 439.92 363.21 C 440.09 365.04 440.10 366.89 439.89 368.72 C 439.18 368.73 437.77 368.74 437.07 368.74 C 436.46 366.90 436.45 364.98 437.04 363.14 Z" />
<path fill="#3f432d" opacity="1.00" d=" M 425.19 402.13 C 426.79 400.81 429.53 402.08 429.70 404.09 C 430.28 406.26 427.67 408.35 425.67 407.34 C 423.49 406.88 423.51 403.13 425.19 402.13 Z" />
<path fill="#3f432d" opacity="1.00" d=" M 389.42 443.44 C 393.04 441.72 395.71 447.76 391.91 449.09 C 388.38 450.84 385.89 444.78 389.42 443.44 Z" />
</g>
<g id="#09b6d4ff">
<path fill="#09b6d4" opacity="1.00" d=" M 91.30 325.76 C 95.03 326.18 99.43 327.17 101.10 331.00 C 102.96 335.36 102.69 340.37 101.83 344.93 C 101.54 346.62 99.87 347.43 98.72 348.49 C 96.16 341.78 92.83 335.27 91.71 328.11 C 91.61 327.52 91.40 326.35 91.30 325.76 Z" />
</g>
</svg>
