<?xml version="1.0" encoding="UTF-8" ?>
<!DOCTYPE svg PUBLIC "-//W3C//DTD SVG 1.1//EN" "http://www.w3.org/Graphics/SVG/1.1/DTD/svg11.dtd">
<svg width="476pt" height="480pt" viewBox="0 0 476 480" version="1.1" xmlns="http://www.w3.org/2000/svg">
<g id="#585353ff">
<path fill="#585353" opacity="1.00" d=" M 256.56 0.00 L 257.79 0.00 C 264.76 6.46 271.58 13.09 278.52 19.58 C 280.19 20.97 280.80 23.10 281.51 25.06 C 286.75 39.90 292.24 54.66 297.50 69.49 C 299.45 74.93 301.53 80.32 303.39 85.80 C 308.02 98.31 312.48 110.89 317.07 123.42 C 318.58 127.66 320.13 131.87 321.66 136.10 C 325.56 147.19 329.77 158.18 333.55 169.31 C 329.26 169.38 324.97 169.29 320.69 169.35 C 316.39 160.23 311.97 151.17 307.23 142.28 C 304.88 136.69 302.01 131.35 299.29 125.94 C 291.37 109.99 283.68 93.92 275.45 78.13 C 272.37 71.15 268.74 64.43 265.43 57.56 C 259.78 46.16 254.21 34.73 248.47 23.38 C 251.18 15.59 254.04 7.85 256.56 0.00 Z" />
<path fill="#585353" opacity="1.00" d=" M 371.20 9.19 C 371.74 9.25 372.83 9.36 373.38 9.42 C 377.63 18.36 381.91 27.28 386.17 36.22 C 384.72 47.61 383.37 59.01 381.91 70.40 C 381.13 76.12 380.51 81.86 379.88 87.60 C 378.31 99.15 376.95 110.74 375.55 122.31 C 374.91 127.34 374.27 132.38 373.74 137.43 C 372.25 147.66 371.13 157.94 369.86 168.20 C 365.56 168.22 361.27 168.17 356.98 168.22 C 357.12 159.60 357.40 150.97 357.35 142.35 C 357.45 137.02 357.44 131.69 357.67 126.37 C 357.98 113.96 358.21 101.55 358.32 89.15 C 358.43 83.64 358.40 78.13 358.59 72.63 C 358.96 61.09 359.01 49.54 359.31 38.00 C 359.41 36.64 359.10 35.32 358.47 34.12 L 359.34 34.94 C 363.38 26.40 367.03 17.67 371.20 9.19 Z" />
<path fill="#585353" opacity="1.00" d=" M 121.00 27.05 C 133.92 29.07 146.66 32.21 159.52 34.66 C 162.67 35.49 166.38 35.36 168.78 37.93 C 169.54 38.93 170.31 39.91 171.14 40.85 C 184.25 55.06 197.44 69.19 210.47 83.46 C 215.19 88.56 220.00 93.57 224.63 98.74 C 236.90 111.92 249.09 125.16 261.31 138.38 C 265.17 142.52 268.95 146.72 272.92 150.75 C 280.88 159.91 289.53 168.45 297.42 177.66 C 293.52 181.74 289.94 186.12 285.95 190.11 C 284.46 191.01 283.03 190.00 282.04 188.92 C 229.90 137.05 177.72 85.23 125.56 33.38 C 123.78 31.47 121.18 29.93 121.00 27.05 Z" />
<path fill="#585353" opacity="1.00" d=" M 438.63 54.90 C 443.34 52.27 447.90 49.37 452.69 46.87 C 452.25 52.75 453.74 58.94 451.38 64.53 C 446.27 79.18 441.23 93.86 436.44 108.62 C 435.60 111.30 434.47 114.36 436.09 117.00 C 439.07 122.67 446.22 123.62 451.98 123.78 C 457.03 123.67 461.92 125.91 465.29 129.65 C 472.31 137.42 474.92 148.09 476.00 158.26 L 476.00 418.72 C 475.19 432.95 474.90 448.32 466.69 460.60 C 459.64 471.12 447.02 475.94 435.00 477.98 C 428.31 479.22 421.51 479.56 414.74 480.00 L 10.28 480.00 C 6.79 479.61 2.62 479.97 0.00 477.20 L 0.00 476.20 C 5.37 473.26 11.12 471.14 16.80 468.90 C 28.91 464.31 41.08 459.88 53.31 455.63 C 52.76 454.88 52.19 454.16 51.58 453.47 C 42.02 444.35 32.47 435.21 23.14 425.85 C 18.74 421.43 14.15 417.15 10.32 412.21 C 21.78 416.75 32.73 422.49 43.42 428.60 C 56.21 435.89 69.61 442.45 83.93 446.06 C 73.15 431.96 61.69 418.29 52.31 403.18 C 55.73 403.73 58.60 405.82 61.66 407.31 C 84.29 419.48 106.52 432.40 128.82 445.19 C 131.64 446.74 134.27 448.71 137.40 449.63 C 137.44 447.21 135.50 445.50 134.33 443.58 C 126.11 431.47 117.84 419.39 110.02 407.01 C 107.80 403.35 105.37 399.78 103.74 395.80 C 109.38 397.42 114.29 400.77 119.28 403.74 C 139.28 416.35 158.44 430.21 177.73 443.85 C 183.71 448.37 189.83 452.69 195.83 457.18 C 197.04 458.02 198.30 459.11 199.90 458.99 C 264.60 458.92 329.31 459.67 394.01 460.15 C 403.19 460.09 412.80 459.53 421.07 455.12 C 429.17 450.92 435.05 443.76 441.40 437.41 C 447.95 430.58 454.78 424.00 462.04 417.93 C 463.91 416.79 463.15 414.38 462.03 412.99 C 456.31 404.57 450.33 396.34 444.67 387.89 C 451.04 379.22 458.27 371.23 464.87 362.74 C 466.32 361.50 464.62 360.04 463.86 359.04 C 457.00 351.56 450.25 343.99 443.36 336.54 C 442.75 335.78 441.48 334.53 442.64 333.63 C 448.89 326.25 455.62 319.28 461.97 312.00 C 463.85 310.13 463.01 307.27 463.19 304.92 C 452.85 297.02 442.34 289.34 431.86 281.64 C 442.09 273.17 452.96 265.49 463.47 257.36 C 464.10 256.76 464.68 256.10 465.20 255.40 C 456.95 248.46 448.83 241.36 440.67 234.32 C 437.72 231.68 434.49 229.33 431.86 226.36 C 441.97 219.02 451.98 211.54 461.98 204.06 C 464.02 203.03 463.23 200.47 461.52 199.60 C 446.30 188.43 431.14 177.20 415.98 165.96 C 414.36 164.52 411.12 163.72 409.89 166.01 C 407.72 169.37 405.85 172.92 403.65 176.27 C 400.92 173.98 398.20 171.68 395.53 169.33 C 398.41 163.81 401.39 158.34 404.32 152.85 C 406.49 147.58 408.10 142.10 410.03 136.75 C 413.50 127.03 416.96 117.30 420.21 107.51 C 422.45 101.45 424.49 95.32 426.69 89.24 C 430.65 77.79 434.69 66.36 438.63 54.90 Z" />
<path fill="#585353" opacity="1.00" d=" M 131.68 70.44 L 131.65 69.95 C 132.09 78.54 131.71 87.16 131.83 95.76 C 118.23 97.23 104.61 98.56 90.99 99.82 C 85.34 100.16 79.07 99.90 74.87 104.41 C 77.06 106.31 80.26 107.82 80.38 111.13 C 80.97 124.41 81.21 137.71 81.63 151.00 C 81.92 154.16 80.65 158.34 76.97 158.68 C 71.63 158.96 66.28 158.80 60.94 158.77 C 58.38 158.92 56.02 156.63 56.05 154.08 C 55.49 143.07 55.22 132.05 54.87 121.03 C 54.68 118.88 55.42 115.86 58.05 115.73 C 62.00 115.48 65.99 115.41 69.94 115.81 C 71.87 116.11 72.38 118.35 72.32 120.00 C 72.36 129.42 72.34 138.85 72.31 148.27 C 70.39 148.30 68.48 148.33 66.56 148.34 C 66.34 139.68 66.71 131.00 66.40 122.35 C 66.48 119.89 63.63 120.33 62.08 120.77 C 61.52 129.51 62.00 138.27 61.81 147.02 C 61.90 149.37 61.49 152.71 64.13 153.85 C 67.37 154.38 70.72 154.31 73.97 153.89 C 76.46 153.19 77.09 150.27 76.95 148.02 C 76.63 137.34 76.04 126.66 75.77 115.98 C 75.70 113.24 74.88 109.73 71.93 108.78 C 68.29 108.38 64.62 108.64 60.97 108.59 C 57.84 108.69 54.29 108.64 51.80 110.84 C 49.13 113.46 49.10 117.51 49.02 120.99 C 49.34 149.67 49.72 178.35 50.16 207.02 C 49.95 209.29 51.07 211.88 53.50 212.35 C 56.95 212.77 60.44 212.44 63.90 212.55 C 80.94 212.64 97.99 212.55 115.03 212.59 C 117.23 212.59 119.81 212.82 121.14 214.83 C 123.32 217.78 121.67 221.74 122.95 224.97 C 124.01 227.21 126.72 227.72 128.96 227.68 C 133.31 227.69 137.66 227.83 142.01 227.61 C 143.73 227.52 144.77 225.77 145.29 224.32 C 146.75 219.72 146.47 214.47 149.40 210.41 C 151.19 207.99 153.65 205.36 156.91 205.46 C 167.86 205.30 178.80 204.22 189.75 204.67 C 192.89 207.25 195.94 210.62 195.94 214.94 C 196.05 224.65 196.04 234.37 195.95 244.09 C 196.16 246.89 194.19 250.12 191.08 249.88 C 186.29 249.86 181.38 250.39 176.65 249.45 C 173.05 248.32 173.95 243.93 173.78 241.03 C 174.18 235.50 173.04 229.74 174.47 224.37 C 177.60 221.96 182.01 223.32 185.66 223.29 C 185.64 224.72 185.63 226.15 185.61 227.59 C 183.67 227.69 181.74 227.82 179.81 227.92 C 179.66 232.93 179.41 237.97 179.88 242.97 C 180.60 245.57 183.85 245.30 185.97 245.34 C 187.85 245.27 190.61 245.29 191.08 242.93 C 191.71 236.01 191.11 229.03 191.36 222.08 C 191.28 219.06 191.65 215.13 188.66 213.31 C 185.31 211.98 181.58 212.79 178.08 212.90 C 172.73 213.57 167.32 213.43 161.97 213.90 C 158.89 214.20 157.00 217.21 156.35 219.96 C 155.01 225.49 154.36 231.82 149.91 235.89 C 147.57 238.19 144.11 238.31 141.03 238.31 C 124.36 238.26 107.70 238.30 91.03 238.28 C 89.20 238.37 86.81 237.81 86.49 235.67 C 85.98 230.84 86.75 225.95 85.98 221.13 C 78.38 220.28 70.69 220.87 63.05 220.74 C 59.66 220.53 58.07 224.04 56.46 226.41 C 52.49 233.59 48.64 241.06 46.69 249.07 C 46.82 251.33 49.35 250.96 50.95 251.07 C 56.99 251.03 63.04 251.18 69.08 251.00 C 70.59 251.19 71.52 249.97 72.51 249.08 C 70.78 244.75 68.33 240.77 65.66 236.96 C 61.80 238.79 61.81 245.55 57.01 245.25 C 57.63 239.39 59.55 233.04 64.26 229.19 C 64.67 229.17 65.49 229.14 65.90 229.12 C 69.68 232.26 71.57 237.00 73.79 241.26 C 75.42 245.05 77.73 248.74 78.07 252.94 C 77.63 255.18 75.01 255.82 73.05 255.71 C 63.67 255.70 54.28 255.79 44.91 255.67 C 42.03 255.90 40.19 252.58 41.14 250.06 C 43.26 243.56 46.78 237.56 48.51 230.92 C 49.05 228.50 49.38 225.48 47.40 223.60 C 45.74 221.78 43.11 222.02 40.88 221.81 C 40.52 187.89 39.95 153.97 39.70 120.05 C 39.66 114.44 42.21 109.01 46.29 105.23 C 54.08 98.06 64.68 95.12 74.83 93.17 C 93.66 90.14 112.71 88.82 131.72 87.53 C 131.84 81.83 131.91 76.13 131.68 70.44 M 101.39 217.63 C 96.51 219.28 95.23 226.46 99.37 229.61 C 103.28 233.22 110.41 230.35 110.77 225.06 C 111.57 220.08 106.07 215.76 101.39 217.63 Z" />
<path fill="#585353" opacity="1.00" d=" M 184.88 116.99 C 185.29 113.79 184.90 110.22 186.67 107.38 C 218.24 139.13 249.97 170.73 281.56 202.46 C 282.69 203.29 282.30 204.75 282.42 205.94 C 282.72 221.35 283.14 236.75 283.50 252.15 C 277.08 260.53 270.06 268.44 263.79 276.93 C 267.39 282.93 271.96 288.35 275.10 294.62 C 268.12 300.27 261.17 305.96 254.45 311.91 C 260.49 319.37 266.98 326.45 272.83 334.05 C 265.54 340.12 257.93 345.78 250.60 351.80 C 250.72 337.33 249.94 322.84 249.59 308.36 C 248.93 282.90 248.01 257.44 247.46 231.97 C 247.70 229.65 245.45 228.34 244.08 226.86 C 237.77 221.23 231.85 214.88 224.16 211.10 C 223.74 232.39 224.19 253.69 223.95 274.97 C 224.00 276.70 223.17 279.09 221.06 279.01 C 210.08 279.34 199.08 279.04 188.09 279.17 C 171.04 279.09 153.96 279.03 136.95 280.42 C 128.84 281.20 120.57 282.05 112.94 285.07 C 108.71 286.69 104.76 290.10 104.16 294.83 C 103.40 302.21 104.12 309.65 103.76 317.05 C 103.63 321.08 100.26 324.84 96.07 324.63 C 84.37 324.71 72.67 324.67 60.97 324.65 C 57.67 324.77 54.09 322.52 53.79 319.02 C 53.38 314.34 53.99 309.63 53.49 304.97 C 53.17 303.38 51.61 302.36 50.03 302.50 C 45.51 302.49 40.98 302.30 36.47 302.61 C 33.29 303.85 34.26 307.92 33.37 310.56 C 31.52 316.03 28.77 321.42 24.52 325.41 C 22.89 327.13 18.95 328.00 18.15 325.05 C 17.91 320.65 19.64 316.44 19.74 312.05 C 19.97 306.24 19.97 300.11 22.77 294.84 C 24.38 291.80 27.59 289.60 31.09 289.69 C 41.72 289.65 52.36 289.65 62.99 289.69 C 65.15 289.54 67.14 290.99 67.92 292.96 C 69.62 297.07 68.26 301.65 69.10 305.90 C 69.35 306.16 69.83 306.69 70.08 306.96 C 74.98 307.22 79.98 307.35 84.87 306.89 C 88.75 301.11 86.71 293.60 87.94 287.09 C 88.77 281.94 90.39 275.31 96.02 273.56 C 108.27 272.61 120.56 271.31 132.52 268.43 C 135.78 267.54 139.27 266.90 142.00 264.79 C 142.77 257.96 142.15 250.95 142.30 244.05 C 149.72 243.81 157.13 243.09 164.57 243.13 C 164.86 247.72 164.35 254.42 169.72 256.28 C 175.37 257.58 181.25 256.66 187.00 256.94 C 191.53 256.73 196.40 257.66 200.64 255.62 C 204.16 253.87 205.40 249.69 205.33 246.03 C 205.36 233.35 205.31 220.67 205.34 207.99 C 205.32 204.76 205.69 201.42 204.59 198.30 C 202.82 194.25 198.17 192.60 194.04 192.49 C 188.07 191.85 185.68 185.29 185.45 180.08 C 184.19 159.08 183.99 138.01 184.88 116.99 Z" />
<path fill="#585353" opacity="1.00" d=" M 301.15 183.18 C 305.68 178.33 312.45 176.22 318.96 176.34 C 341.98 176.36 365.02 176.26 388.04 176.39 C 393.11 176.25 396.78 181.13 396.65 185.92 C 397.47 222.62 399.16 259.31 400.12 296.01 C 400.18 300.00 400.14 304.33 397.79 307.75 C 395.25 311.49 390.83 313.31 386.61 314.42 C 375.93 317.05 364.84 316.37 353.94 316.47 C 347.30 316.39 340.66 316.61 334.02 316.36 C 330.86 316.25 327.47 315.02 325.80 312.16 C 323.10 307.61 323.22 302.09 323.16 296.97 C 323.22 271.63 323.08 246.27 323.23 220.93 C 323.23 216.27 327.77 213.42 331.93 212.87 C 340.18 211.58 348.58 211.29 356.91 211.49 C 363.08 211.93 366.25 218.54 366.26 224.06 C 366.43 236.03 366.30 248.01 366.32 259.99 C 366.51 262.85 364.84 265.77 362.08 266.74 C 358.88 267.80 355.42 267.49 352.11 267.40 C 348.79 267.30 346.59 263.91 346.55 260.85 C 346.50 257.61 346.27 254.34 346.72 251.13 C 347.50 249.78 348.34 248.46 349.07 247.08 C 347.85 245.79 346.14 244.81 344.32 245.41 C 341.75 246.46 341.20 249.59 340.88 252.04 C 340.52 256.33 340.66 260.65 340.69 264.96 C 340.63 269.35 344.71 273.21 349.04 273.25 C 353.34 273.31 357.66 273.26 361.97 273.27 C 367.49 273.56 372.24 268.38 372.12 262.98 C 371.86 246.98 371.38 230.97 370.99 214.97 C 371.02 212.40 370.14 209.61 367.88 208.15 C 364.40 205.79 359.99 205.69 355.93 205.55 C 346.63 205.51 337.32 205.54 328.02 205.54 C 324.72 205.56 320.96 205.90 318.62 208.53 C 316.16 211.40 316.21 215.40 316.17 218.97 C 316.28 243.31 316.21 267.65 316.81 291.99 C 317.02 298.51 317.28 305.08 318.58 311.50 C 319.30 315.09 320.93 318.68 323.93 320.93 C 327.94 323.96 333.15 324.58 338.02 324.65 C 349.01 324.70 360.01 324.64 371.00 324.68 C 371.52 331.56 369.37 339.33 373.61 345.40 C 376.05 349.24 380.59 351.33 385.06 351.48 C 395.67 351.68 406.29 351.36 416.89 351.63 C 419.78 351.48 421.30 354.50 421.13 357.02 C 421.20 372.34 421.18 387.66 421.13 402.99 C 409.44 410.24 397.87 417.72 386.63 425.67 C 384.00 427.37 381.96 430.47 378.46 430.21 C 344.31 432.93 310.09 434.79 275.88 436.78 C 274.64 434.14 276.34 431.50 277.17 429.02 C 280.85 420.04 284.74 411.10 289.73 402.76 C 290.79 401.29 291.83 399.00 294.03 399.41 C 322.35 399.38 350.67 399.44 378.99 399.38 C 381.77 399.48 384.13 396.73 383.83 394.00 C 383.83 389.64 383.89 385.28 383.80 380.93 C 383.98 378.86 382.20 376.97 380.10 377.24 C 358.39 377.15 336.67 377.22 314.96 377.21 C 308.79 377.22 301.68 376.67 297.34 371.69 C 292.90 366.61 292.79 359.44 292.80 353.05 C 292.46 305.36 292.07 257.66 291.68 209.96 C 291.87 200.41 294.36 190.24 301.15 183.18 Z" />
<path fill="#585353" opacity="1.00" d=" M 200.15 357.40 C 204.64 355.22 209.89 356.52 214.70 356.11 C 214.65 360.77 214.60 365.43 214.74 370.09 C 218.64 371.29 221.20 367.36 224.95 367.81 C 227.22 367.79 229.53 367.74 231.75 368.26 C 234.72 369.38 235.47 373.94 232.87 375.84 C 231.04 377.08 228.65 376.89 226.68 377.82 C 226.26 379.52 226.30 381.28 226.34 383.03 C 226.25 386.57 230.55 387.04 231.88 389.54 C 228.94 389.81 224.92 391.17 223.04 388.03 C 219.91 382.70 219.50 376.26 219.38 370.22 C 217.02 370.31 214.33 369.72 212.35 371.38 C 207.66 374.71 206.74 381.49 208.49 386.64 C 209.47 389.41 212.57 390.04 215.15 390.19 C 216.36 389.92 217.73 391.63 216.17 392.28 C 209.52 395.54 199.52 392.65 197.45 384.99 C 196.84 380.49 197.32 375.91 197.16 371.38 C 196.99 366.55 197.36 361.52 200.15 357.40 Z" />
<path fill="#585353" opacity="1.00" d=" M 175.43 359.46 C 179.12 357.22 183.67 357.57 187.82 357.36 C 189.00 362.02 190.24 366.67 191.25 371.38 C 186.33 373.48 183.21 378.65 183.18 383.94 C 183.21 385.78 183.10 388.01 184.64 389.34 C 186.42 390.41 189.07 389.59 190.45 391.42 C 191.64 392.71 190.86 394.76 189.28 395.27 C 184.76 396.91 179.41 395.28 176.49 391.49 C 171.72 385.46 171.34 377.31 171.60 369.95 C 171.85 366.26 172.04 361.76 175.43 359.46 Z" />
</g>
<g id="#e0c066ff">
<path fill="#e0c066" opacity="1.00" d=" M 291.63 2.36 C 301.85 12.76 311.81 23.40 322.01 33.80 C 325.09 25.30 328.28 16.83 331.22 8.27 C 340.52 16.64 349.28 25.63 358.47 34.12 C 359.10 35.32 359.41 36.64 359.31 38.00 C 359.01 49.54 358.96 61.09 358.59 72.63 C 347.87 64.26 338.18 54.46 326.43 47.49 C 323.98 45.78 321.43 47.97 319.50 49.40 C 311.51 55.37 305.09 63.09 297.50 69.49 C 292.24 54.66 286.75 39.90 281.51 25.06 C 284.63 17.38 288.33 9.96 291.63 2.36 Z" />
<path fill="#e0c066" opacity="1.00" d=" M 212.32 29.17 C 212.01 20.60 211.44 12.05 211.25 3.49 C 223.61 10.21 236.13 16.62 248.47 23.38 C 254.21 34.73 259.78 46.16 265.43 57.56 C 252.16 53.99 239.44 48.21 225.87 45.65 C 223.35 44.80 222.09 47.40 221.22 49.24 C 216.29 60.19 214.11 72.08 210.47 83.46 C 197.44 69.19 184.25 55.06 171.14 40.85 C 170.31 39.91 169.54 38.93 168.78 37.93 C 168.05 28.41 167.49 18.89 166.84 9.36 C 182.04 15.88 197.15 22.59 212.32 29.17 Z" />
<path fill="#e0c066" opacity="1.00" d=" M 386.17 36.22 C 392.01 30.78 397.81 25.29 403.70 19.90 C 406.93 28.77 409.55 37.89 413.25 46.57 C 418.12 40.70 423.15 34.97 428.20 29.26 C 431.65 37.81 435.22 46.32 438.63 54.90 C 434.69 66.36 430.65 77.79 426.69 89.24 C 422.63 79.84 419.12 70.12 413.64 61.42 C 412.57 59.86 411.44 58.19 409.73 57.28 C 407.61 57.04 405.57 57.84 403.63 58.56 C 395.95 61.66 389.13 66.43 381.91 70.40 C 383.37 59.01 384.72 47.61 386.17 36.22 Z" />
<path fill="#e0c066" opacity="1.00" d=" M 71.11 42.31 C 77.18 40.32 83.65 40.98 89.93 40.86 C 93.31 40.92 96.95 40.41 100.02 42.20 C 105.57 44.98 110.81 50.49 109.68 57.20 C 103.18 57.26 96.67 57.09 90.16 57.28 C 86.14 57.43 82.01 59.42 80.06 63.06 C 78.41 65.55 79.71 69.69 82.92 69.98 C 98.99 70.04 115.09 68.83 131.16 69.15 L 131.68 70.44 C 131.91 76.13 131.84 81.83 131.72 87.53 C 112.71 88.82 93.66 90.14 74.83 93.17 C 64.68 95.12 54.08 98.06 46.29 105.23 C 42.21 109.01 39.66 114.44 39.70 120.05 C 39.95 153.97 40.52 187.89 40.88 221.81 C 39.42 227.11 35.97 231.59 33.23 236.28 C 28.33 243.49 23.78 251.07 17.49 257.19 C 16.59 207.79 15.40 158.40 15.20 109.00 C 15.46 97.78 16.11 85.83 22.11 75.99 C 26.47 68.81 33.87 64.44 40.58 59.74 C 50.31 53.24 59.79 45.86 71.11 42.31 Z" />
<path fill="#e0c066" opacity="1.00" d=" M 235.07 61.84 C 248.98 66.06 261.73 73.42 275.45 78.13 C 283.68 93.92 291.37 109.99 299.29 125.94 C 290.13 122.35 281.38 117.69 271.97 114.77 C 270.36 113.89 269.19 115.34 268.57 116.63 C 265.06 123.47 263.65 131.11 261.31 138.38 C 249.09 125.16 236.90 111.92 224.63 98.74 C 225.50 90.65 227.73 82.79 229.72 74.92 C 231.01 70.39 232.17 65.67 235.07 61.84 Z" />
<path fill="#e0c066" opacity="1.00" d=" M 315.52 73.51 C 319.23 70.42 322.35 66.42 326.73 64.28 C 330.81 66.34 334.16 69.52 337.75 72.29 C 344.75 77.74 351.38 83.63 358.32 89.15 C 358.21 101.55 357.98 113.96 357.67 126.37 C 351.40 120.28 345.66 113.59 338.70 108.25 C 337.12 107.14 335.08 105.65 333.13 106.84 C 326.63 111.13 322.35 117.85 317.07 123.42 C 312.48 110.89 308.02 98.31 303.39 85.80 C 306.83 81.15 311.43 77.55 315.52 73.51 Z" />
<path fill="#e0c066" opacity="1.00" d=" M 379.88 87.60 C 386.95 83.50 393.15 77.72 400.99 75.04 C 403.27 74.04 405.02 76.23 406.20 77.84 C 412.34 86.98 415.62 97.60 420.21 107.51 C 416.96 117.30 413.50 127.03 410.03 136.75 C 405.82 129.30 402.81 121.17 397.81 114.18 C 396.98 113.08 395.80 111.65 394.28 112.41 C 387.60 114.81 381.78 119.00 375.55 122.31 C 376.95 110.74 378.31 99.15 379.88 87.60 Z" />
<path fill="#e0c066" opacity="1.00" d=" M 74.87 104.41 C 79.07 99.90 85.34 100.16 90.99 99.82 C 91.62 103.97 89.61 109.05 92.30 112.60 C 98.28 114.33 104.91 112.43 111.06 113.59 C 112.47 114.02 113.27 115.52 113.14 116.95 C 113.21 121.29 113.16 125.63 113.16 129.97 C 113.41 131.93 112.01 133.90 110.01 134.13 C 104.65 134.64 99.24 134.11 93.86 134.39 C 91.55 134.53 89.63 136.68 89.86 139.02 C 89.70 152.68 90.01 166.35 89.72 180.00 C 88.37 186.90 81.58 190.54 77.40 195.62 C 72.91 201.27 68.36 206.88 63.90 212.55 C 60.44 212.44 56.95 212.77 53.50 212.35 C 51.07 211.88 49.95 209.29 50.16 207.02 C 49.72 178.35 49.34 149.67 49.02 120.99 C 49.10 117.51 49.13 113.46 51.80 110.84 C 54.29 108.64 57.84 108.69 60.97 108.59 C 64.62 108.64 68.29 108.38 71.93 108.78 C 74.88 109.73 75.70 113.24 75.77 115.98 C 76.04 126.66 76.63 137.34 76.95 148.02 C 77.09 150.27 76.46 153.19 73.97 153.89 C 70.72 154.31 67.37 154.38 64.13 153.85 C 61.49 152.71 61.90 149.37 61.81 147.02 C 62.00 138.27 61.52 129.51 62.08 120.77 C 63.63 120.33 66.48 119.89 66.40 122.35 C 66.71 131.00 66.34 139.68 66.56 148.34 C 68.48 148.33 70.39 148.30 72.31 148.27 C 72.34 138.85 72.36 129.42 72.32 120.00 C 72.38 118.35 71.87 116.11 69.94 115.81 C 65.99 115.41 62.00 115.48 58.05 115.73 C 55.42 115.86 54.68 118.88 54.87 121.03 C 55.22 132.05 55.49 143.07 56.05 154.08 C 56.02 156.63 58.38 158.92 60.94 158.77 C 66.28 158.80 71.63 158.96 76.97 158.68 C 80.65 158.34 81.92 154.16 81.63 151.00 C 81.21 137.71 80.97 124.41 80.38 111.13 C 80.26 107.82 77.06 106.31 74.87 104.41 Z" />
<path fill="#e0c066" opacity="1.00" d=" M 333.16 123.20 C 334.74 122.04 336.53 123.17 337.90 124.08 C 345.23 129.22 350.86 136.28 357.35 142.35 C 357.40 150.97 357.12 159.60 356.98 168.22 C 349.17 168.48 341.36 169.04 333.55 169.31 C 329.77 158.18 325.56 147.19 321.66 136.10 C 325.07 131.49 328.25 126.37 333.16 123.20 Z" />
<path fill="#e0c066" opacity="1.00" d=" M 373.74 137.43 C 379.62 133.99 384.47 128.80 390.81 126.19 C 392.19 127.19 393.00 128.74 393.88 130.16 C 397.17 136.04 399.95 142.19 402.85 148.27 C 403.56 149.71 404.08 151.25 404.32 152.85 C 401.39 158.34 398.41 163.81 395.53 169.33 C 387.01 168.36 378.42 168.27 369.86 168.20 C 371.13 157.94 372.25 147.66 373.74 137.43 Z" />
<path fill="#e0c066" opacity="1.00" d=" M 272.92 150.75 C 275.13 144.21 274.98 136.60 278.93 130.81 C 288.97 132.87 297.64 138.88 307.23 142.28 C 311.97 151.17 316.39 160.23 320.69 169.35 C 312.33 169.40 303.70 172.00 297.42 177.66 C 289.53 168.45 280.88 159.91 272.92 150.75 Z" />
<path fill="#e0c066" opacity="1.00" d=" M 101.39 217.63 C 106.07 215.76 111.57 220.08 110.77 225.06 C 110.41 230.35 103.28 233.22 99.37 229.61 C 95.23 226.46 96.51 219.28 101.39 217.63 Z" />
<path fill="#e0c066" opacity="1.00" d=" M 121.37 246.27 C 123.97 244.04 127.41 243.87 130.67 244.04 C 130.58 248.57 130.83 253.12 130.56 257.65 C 130.09 259.66 127.59 259.21 126.06 259.30 C 124.49 259.19 121.88 259.74 121.46 257.63 C 121.14 253.85 121.40 250.05 121.37 246.27 Z" />
<path fill="#e0c066" opacity="1.00" d=" M 102.92 262.12 C 107.11 258.63 110.99 254.77 115.36 251.48 C 115.27 256.54 116.20 261.95 114.90 266.80 C 111.88 268.13 108.30 267.27 105.05 267.41 C 102.24 267.58 102.37 263.98 102.92 262.12 Z" />
<path fill="#e0c066" opacity="1.00" d=" M 18.62 266.23 C 23.86 268.23 29.53 267.10 34.99 267.26 C 34.91 271.20 35.21 275.16 34.84 279.09 C 33.78 282.35 29.65 281.29 27.04 281.48 C 24.30 281.21 19.77 282.57 18.82 278.92 C 18.43 274.70 18.82 270.45 18.62 266.23 Z" />
<path fill="#e0c066" opacity="1.00" d=" M 49.00 267.04 C 54.05 266.96 59.11 266.84 64.16 266.78 C 64.09 271.17 64.34 275.58 64.04 279.96 C 62.79 282.50 59.28 281.11 57.03 281.48 C 54.41 281.25 50.21 282.45 49.20 279.08 C 48.74 275.09 49.12 271.05 49.00 267.04 Z" />
<path fill="#e0c066" opacity="1.00" d=" M 75.86 266.62 C 79.71 266.61 83.57 266.65 87.42 266.49 C 87.16 270.46 88.34 274.90 86.78 278.59 C 83.56 279.45 79.69 279.55 76.51 278.55 C 75.03 274.85 76.19 270.55 75.86 266.62 Z" />
<path fill="#e0c066" opacity="1.00" d=" M 109.76 314.81 C 110.18 312.29 113.22 313.13 115.00 312.97 C 117.11 312.67 119.63 313.63 119.96 315.98 C 120.42 320.43 120.05 324.93 120.17 329.40 C 114.15 329.65 108.13 329.36 102.12 329.67 C 104.62 329.32 107.14 329.30 109.66 329.35 C 109.76 324.51 109.50 319.65 109.76 314.81 Z" />
<path fill="#e0c066" opacity="1.00" d=" M 35.12 344.92 C 35.77 342.81 38.33 343.44 39.99 343.30 C 41.80 343.50 44.53 342.69 45.41 344.88 C 45.61 349.02 45.47 353.17 45.46 357.32 C 41.45 357.23 37.19 358.48 34.98 362.08 C 35.11 356.36 34.82 350.63 35.12 344.92 Z" />
<path fill="#e0c066" opacity="1.00" d=" M 52.59 344.97 C 53.34 342.61 56.22 343.52 58.05 343.30 C 59.68 343.43 62.23 342.87 62.89 344.92 C 63.15 348.90 62.93 352.90 63.00 356.88 C 59.50 356.98 56.01 357.06 52.52 357.16 C 52.55 353.09 52.37 349.03 52.59 344.97 Z" />
<path fill="#e0c066" opacity="1.00" d=" M 74.77 343.97 C 76.11 342.71 78.30 343.57 79.98 343.30 C 81.67 343.47 84.63 342.76 85.06 345.11 C 85.35 348.83 85.06 352.58 85.19 356.32 C 86.81 356.26 88.43 356.23 90.06 356.21 C 84.97 356.74 79.84 356.49 74.73 356.58 C 74.68 352.38 74.54 348.16 74.77 343.97 Z" />
</g>
<g id="#b0544fff">
<path fill="#b0544f" opacity="1.00" d=" M 221.22 49.24 C 222.09 47.40 223.35 44.80 225.87 45.65 C 239.44 48.21 252.16 53.99 265.43 57.56 C 268.74 64.43 272.37 71.15 275.45 78.13 C 261.73 73.42 248.98 66.06 235.07 61.84 C 232.17 65.67 231.01 70.39 229.72 74.92 C 227.73 82.79 225.50 90.65 224.63 98.74 C 220.00 93.57 215.19 88.56 210.47 83.46 C 214.11 72.08 216.29 60.19 221.22 49.24 Z" />
<path fill="#b0544f" opacity="1.00" d=" M 319.50 49.40 C 321.43 47.97 323.98 45.78 326.43 47.49 C 338.18 54.46 347.87 64.26 358.59 72.63 C 358.40 78.13 358.43 83.64 358.32 89.15 C 351.38 83.63 344.75 77.74 337.75 72.29 C 334.16 69.52 330.81 66.34 326.73 64.28 C 322.35 66.42 319.23 70.42 315.52 73.51 C 311.43 77.55 306.83 81.15 303.39 85.80 C 301.53 80.32 299.45 74.93 297.50 69.49 C 305.09 63.09 311.51 55.37 319.50 49.40 Z" />
<path fill="#b0544f" opacity="1.00" d=" M 403.63 58.56 C 405.57 57.84 407.61 57.04 409.73 57.28 C 411.44 58.19 412.57 59.86 413.64 61.42 C 419.12 70.12 422.63 79.84 426.69 89.24 C 424.49 95.32 422.45 101.45 420.21 107.51 C 415.62 97.60 412.34 86.98 406.20 77.84 C 405.02 76.23 403.27 74.04 400.99 75.04 C 393.15 77.72 386.95 83.50 379.88 87.60 C 380.51 81.86 381.13 76.12 381.91 70.40 C 389.13 66.43 395.95 61.66 403.63 58.56 Z" />
<path fill="#b0544f" opacity="1.00" d=" M 317.07 123.42 C 322.35 117.85 326.63 111.13 333.13 106.84 C 335.08 105.65 337.12 107.14 338.70 108.25 C 345.66 113.59 351.40 120.28 357.67 126.37 C 357.44 131.69 357.45 137.02 357.35 142.35 C 350.86 136.28 345.23 129.22 337.90 124.08 C 336.53 123.17 334.74 122.04 333.16 123.20 C 328.25 126.37 325.07 131.49 321.66 136.10 C 320.13 131.87 318.58 127.66 317.07 123.42 Z" />
<path fill="#b0544f" opacity="1.00" d=" M 394.28 112.41 C 395.80 111.65 396.98 113.08 397.81 114.18 C 402.81 121.17 405.82 129.30 410.03 136.75 C 408.10 142.10 406.49 147.58 404.32 152.85 C 404.08 151.25 403.56 149.71 402.85 148.27 C 399.95 142.19 397.17 136.04 393.88 130.16 C 393.00 128.74 392.19 127.19 390.81 126.19 C 384.47 128.80 379.62 133.99 373.74 137.43 C 374.27 132.38 374.91 127.34 375.55 122.31 C 381.78 119.00 387.60 114.81 394.28 112.41 Z" />
<path fill="#b0544f" opacity="1.00" d=" M 268.57 116.63 C 269.19 115.34 270.36 113.89 271.97 114.77 C 281.38 117.69 290.13 122.35 299.29 125.94 C 302.01 131.35 304.88 136.69 307.23 142.28 C 297.64 138.88 288.97 132.87 278.93 130.81 C 274.98 136.60 275.13 144.21 272.92 150.75 C 268.95 146.72 265.17 142.52 261.31 138.38 C 263.65 131.11 265.06 123.47 268.57 116.63 Z" />
<path fill="#b0544f" opacity="1.00" d=" M 131.30 176.41 C 143.22 176.24 155.15 176.37 167.08 176.34 C 169.91 176.17 171.61 178.90 173.19 180.82 C 178.27 187.98 182.54 195.85 185.14 204.26 C 189.77 204.21 194.41 204.60 199.03 204.23 C 195.97 204.73 192.85 204.68 189.75 204.67 C 178.80 204.22 167.86 205.30 156.91 205.46 C 153.65 205.36 151.19 207.99 149.40 210.41 C 146.47 214.47 146.75 219.72 145.29 224.32 C 144.77 225.77 143.73 227.52 142.01 227.61 C 137.66 227.83 133.31 227.69 128.96 227.68 C 126.72 227.72 124.01 227.21 122.95 224.97 C 121.67 221.74 123.32 217.78 121.14 214.83 C 119.81 212.82 117.23 212.59 115.03 212.59 C 97.99 212.55 80.94 212.64 63.90 212.55 C 68.36 206.88 72.91 201.27 77.40 195.62 C 78.60 196.72 80.46 196.01 81.93 196.22 C 91.62 196.13 101.31 196.31 111.00 196.14 C 114.46 195.39 115.92 191.57 117.86 188.99 C 121.26 183.96 124.57 177.19 131.30 176.41 Z" />
</g>
<g id="#c17c7dff">
<path fill="#c17c7d" opacity="1.00" d=" M 409.89 166.01 C 411.12 163.72 414.36 164.52 415.98 165.96 C 431.14 177.20 446.30 188.43 461.52 199.60 C 463.23 200.47 464.02 203.03 461.98 204.06 C 451.98 211.54 441.97 219.02 431.86 226.36 C 434.49 229.33 437.72 231.68 440.67 234.32 C 448.83 241.36 456.95 248.46 465.20 255.40 C 464.68 256.10 464.10 256.76 463.47 257.36 C 452.96 265.49 442.09 273.17 431.86 281.64 C 442.34 289.34 452.85 297.02 463.19 304.92 C 463.01 307.27 463.85 310.13 461.97 312.00 C 455.62 319.28 448.89 326.25 442.64 333.63 C 441.48 334.53 442.75 335.78 443.36 336.54 C 450.25 343.99 457.00 351.56 463.86 359.04 C 464.62 360.04 466.32 361.50 464.87 362.74 C 458.27 371.23 451.04 379.22 444.67 387.89 C 450.33 396.34 456.31 404.57 462.03 412.99 C 463.15 414.38 463.91 416.79 462.04 417.93 C 454.78 424.00 447.95 430.58 441.40 437.41 C 435.05 443.76 429.17 450.92 421.07 455.12 C 412.80 459.53 403.19 460.09 394.01 460.15 C 329.31 459.67 264.60 458.92 199.90 458.99 C 198.30 459.11 197.04 458.02 195.83 457.18 C 189.83 452.69 183.71 448.37 177.73 443.85 C 187.57 443.94 197.44 444.30 207.23 445.38 C 208.76 445.76 210.34 445.94 211.92 446.10 C 212.77 449.32 213.42 452.61 214.45 455.79 C 214.78 455.82 215.43 455.88 215.75 455.91 C 219.16 453.15 221.72 449.52 224.34 446.04 C 231.89 446.22 239.44 446.10 246.99 446.14 C 248.06 448.83 249.32 451.45 250.55 454.08 C 253.45 451.94 255.43 448.84 257.74 446.13 C 288.92 447.11 319.89 442.13 351.06 442.60 C 368.80 442.76 386.56 442.28 404.28 442.84 C 405.72 443.33 407.56 444.29 408.56 442.54 C 414.30 441.59 419.99 439.34 424.07 435.07 C 430.81 428.25 432.97 418.25 432.82 408.95 C 432.63 388.60 432.19 368.25 431.55 347.91 C 431.53 343.40 427.45 339.75 423.00 339.91 C 410.68 339.74 398.34 340.00 386.02 339.80 C 383.83 339.91 381.78 338.20 381.63 335.99 C 381.37 332.32 381.34 328.61 381.81 324.96 C 382.03 322.41 384.73 321.47 386.93 321.38 C 391.48 321.00 396.71 321.70 400.40 318.39 C 405.49 313.81 405.89 306.37 405.98 299.99 C 405.12 258.75 403.97 217.52 403.65 176.27 C 405.85 172.92 407.72 169.37 409.89 166.01 Z" />
<path fill="#c17c7d" opacity="1.00" d=" M 204.59 198.30 C 205.69 201.42 205.32 204.76 205.34 207.99 C 205.31 220.67 205.36 233.35 205.33 246.03 C 205.40 249.69 204.16 253.87 200.64 255.62 C 196.40 257.66 191.53 256.73 187.00 256.94 C 181.25 256.66 175.37 257.58 169.72 256.28 C 164.35 254.42 164.86 247.72 164.57 243.13 C 157.13 243.09 149.72 243.81 142.30 244.05 C 138.42 244.09 134.54 244.07 130.67 244.04 C 127.41 243.87 123.97 244.04 121.37 246.27 C 119.18 247.78 117.18 249.54 115.36 251.48 C 110.99 254.77 107.11 258.63 102.92 262.12 C 100.78 263.71 98.67 265.64 95.99 266.19 C 93.14 266.41 90.27 266.31 87.42 266.49 C 83.57 266.65 79.71 266.61 75.86 266.62 C 71.96 266.63 68.06 266.73 64.16 266.78 C 59.11 266.84 54.05 266.96 49.00 267.04 C 44.33 267.10 39.66 267.19 34.99 267.26 C 29.53 267.10 23.86 268.23 18.62 266.23 C 17.11 263.43 17.52 260.23 17.49 257.19 C 23.78 251.07 28.33 243.49 33.23 236.28 C 35.97 231.59 39.42 227.11 40.88 221.81 C 43.11 222.02 45.74 221.78 47.40 223.60 C 49.38 225.48 49.05 228.50 48.51 230.92 C 46.78 237.56 43.26 243.56 41.14 250.06 C 40.19 252.58 42.03 255.90 44.91 255.67 C 54.28 255.79 63.67 255.70 73.05 255.71 C 75.01 255.82 77.63 255.18 78.07 252.94 C 77.73 248.74 75.42 245.05 73.79 241.26 C 71.57 237.00 69.68 232.26 65.90 229.12 C 65.49 229.14 64.67 229.17 64.26 229.19 C 59.55 233.04 57.63 239.39 57.01 245.25 C 61.81 245.55 61.80 238.79 65.66 236.96 C 68.33 240.77 70.78 244.75 72.51 249.08 C 71.52 249.97 70.59 251.19 69.08 251.00 C 63.04 251.18 56.99 251.03 50.95 251.07 C 49.35 250.96 46.82 251.33 46.69 249.07 C 48.64 241.06 52.49 233.59 56.46 226.41 C 58.07 224.04 59.66 220.53 63.05 220.74 C 70.69 220.87 78.38 220.28 85.98 221.13 C 86.75 225.95 85.98 230.84 86.49 235.67 C 86.81 237.81 89.20 238.37 91.03 238.28 C 107.70 238.30 124.36 238.26 141.03 238.31 C 144.11 238.31 147.57 238.19 149.91 235.89 C 154.36 231.82 155.01 225.49 156.35 219.96 C 157.00 217.21 158.89 214.20 161.97 213.90 C 167.32 213.43 172.73 213.57 178.08 212.90 C 181.58 212.79 185.31 211.98 188.66 213.31 C 191.65 215.13 191.28 219.06 191.36 222.08 C 191.11 229.03 191.71 236.01 191.08 242.93 C 190.61 245.29 187.85 245.27 185.97 245.34 C 183.85 245.30 180.60 245.57 179.88 242.97 C 179.41 237.97 179.66 232.93 179.81 227.92 C 181.74 227.82 183.67 227.69 185.61 227.59 C 185.63 226.15 185.64 224.72 185.66 223.29 C 182.01 223.32 177.60 221.96 174.47 224.37 C 173.04 229.74 174.18 235.50 173.78 241.03 C 173.95 243.93 173.05 248.32 176.65 249.45 C 181.38 250.39 186.29 249.86 191.08 249.88 C 194.19 250.12 196.16 246.89 195.95 244.09 C 196.04 234.37 196.05 224.65 195.94 214.94 C 195.94 210.62 192.89 207.25 189.75 204.67 C 192.85 204.68 195.97 204.73 199.03 204.23 C 201.58 203.02 203.33 200.75 204.59 198.30 Z" />
<path fill="#c17c7d" opacity="1.00" d=" M 224.16 211.10 C 231.85 214.88 237.77 221.23 244.08 226.86 C 245.45 228.34 247.70 229.65 247.46 231.97 C 248.01 257.44 248.93 282.90 249.59 308.36 C 239.09 309.02 228.55 309.07 218.04 309.59 C 214.98 309.60 212.38 312.17 212.41 315.25 C 212.17 322.79 212.49 330.35 212.27 337.89 C 212.10 341.87 210.75 346.10 207.53 348.66 C 204.87 350.77 201.40 351.50 198.07 351.52 C 174.07 351.57 150.07 351.48 126.07 351.56 C 120.41 351.58 113.74 353.70 111.58 359.48 C 109.88 365.56 111.47 372.02 110.61 378.22 C 110.27 380.96 107.82 383.25 104.99 383.04 C 87.66 383.48 70.33 384.01 52.99 384.20 C 47.13 384.36 42.91 379.42 40.04 374.89 C 37.78 370.92 35.26 366.73 34.98 362.08 C 37.19 358.48 41.45 357.23 45.46 357.32 C 47.81 357.24 50.16 357.23 52.52 357.16 C 56.01 357.06 59.50 356.98 63.00 356.88 C 66.91 356.79 70.82 356.64 74.73 356.58 C 79.84 356.49 84.97 356.74 90.06 356.21 C 92.76 355.87 96.55 355.89 97.77 352.89 C 98.44 346.91 97.57 340.84 98.24 334.85 C 98.52 332.60 99.89 330.41 102.12 329.67 C 108.13 329.36 114.15 329.65 120.17 329.40 C 123.40 329.80 127.96 329.01 128.27 324.98 C 128.46 315.01 128.22 305.02 128.38 295.04 C 128.50 292.76 128.75 290.18 130.50 288.51 C 131.98 287.13 134.11 287.37 135.97 287.32 C 152.00 287.38 168.04 287.27 184.07 287.37 C 185.88 287.41 188.65 287.64 188.89 289.94 C 189.48 299.61 189.91 309.31 190.15 319.01 C 190.30 321.67 189.66 324.67 187.37 326.31 C 185.00 328.21 181.82 328.26 178.93 328.22 C 170.96 328.13 162.99 328.30 155.02 328.14 C 152.14 328.29 149.63 325.92 149.43 323.10 C 149.24 318.05 149.29 312.98 149.40 307.93 C 149.31 305.45 151.71 303.52 154.09 303.69 C 159.40 303.68 164.72 303.56 170.03 303.76 C 174.82 305.25 171.31 311.45 173.29 314.72 C 174.73 316.16 177.05 314.96 177.17 313.08 C 177.45 309.72 177.46 306.31 177.14 302.95 C 176.54 299.66 173.07 297.68 169.90 297.81 C 162.62 297.81 155.33 297.74 148.04 297.85 C 144.72 297.60 142.14 300.74 142.35 303.91 C 142.36 311.28 142.22 318.65 142.42 326.01 C 142.58 330.86 147.42 334.15 151.99 333.99 C 163.00 333.96 174.01 334.11 185.01 333.91 C 189.71 333.93 193.97 330.62 195.11 326.06 C 197.47 317.62 196.94 308.72 197.16 300.04 C 196.98 294.27 197.82 288.11 195.31 282.71 C 194.06 279.92 190.81 279.40 188.09 279.17 C 199.08 279.04 210.08 279.34 221.06 279.01 C 223.17 279.09 224.00 276.70 223.95 274.97 C 224.19 253.69 223.74 232.39 224.16 211.10 Z" />
<path fill="#c17c7d" opacity="1.00" d=" M 283.50 252.15 C 283.87 291.09 284.29 330.03 284.65 368.97 C 284.65 372.37 284.20 376.21 281.56 378.66 C 278.47 381.52 274.00 381.85 269.99 381.92 C 255.44 382.04 240.89 382.55 226.34 383.03 C 226.30 381.28 226.26 379.52 226.68 377.82 C 228.65 376.89 231.04 377.08 232.87 375.84 C 235.47 373.94 234.72 369.38 231.75 368.26 C 229.53 367.74 227.22 367.79 224.95 367.81 C 221.20 367.36 218.64 371.29 214.74 370.09 C 214.60 365.43 214.65 360.77 214.70 356.11 C 222.79 355.36 230.83 353.96 238.98 353.87 C 242.93 353.84 246.93 353.34 250.60 351.80 C 257.93 345.78 265.54 340.12 272.83 334.05 C 266.98 326.45 260.49 319.37 254.45 311.91 C 261.17 305.96 268.12 300.27 275.10 294.62 C 271.96 288.35 267.39 282.93 263.79 276.93 C 270.06 268.44 277.08 260.53 283.50 252.15 Z" />
<path fill="#c17c7d" opacity="1.00" d=" M 187.82 357.36 C 191.93 357.44 196.04 357.39 200.15 357.40 C 197.36 361.52 196.99 366.55 197.16 371.38 C 195.19 371.40 193.22 371.41 191.25 371.38 C 190.24 366.67 189.00 362.02 187.82 357.36 Z" />
</g>
<g id="#231f1dff">
<path fill="#231f1d" opacity="1.00" d=" M 257.71 399.49 C 265.13 399.28 272.56 399.48 279.99 399.37 C 279.30 402.34 278.30 405.22 277.18 408.04 C 272.07 421.35 266.93 435.01 257.74 446.13 C 255.43 448.84 253.45 451.94 250.55 454.08 C 249.32 451.45 248.06 448.83 246.99 446.14 C 244.61 439.46 242.69 432.07 244.74 425.06 C 247.45 415.82 252.53 407.52 257.71 399.49 Z" />
<path fill="#231f1d" opacity="1.00" d=" M 203.14 401.67 C 217.08 401.06 231.01 400.22 244.94 399.41 C 239.82 415.60 234.42 432.16 224.34 446.04 C 221.72 449.52 219.16 453.15 215.75 455.91 C 215.43 455.88 214.78 455.82 214.45 455.79 C 213.42 452.61 212.77 449.32 211.92 446.10 C 210.34 445.94 208.76 445.76 207.23 445.38 C 208.71 445.16 210.17 444.82 211.62 444.45 C 208.87 435.05 206.79 425.47 204.88 415.88 C 204.07 411.18 202.98 406.47 203.14 401.67 Z" />
<path fill="#231f1d" opacity="1.00" d=" M 385.04 432.11 C 396.06 423.44 407.34 414.82 420.08 408.84 C 417.86 420.53 413.52 431.75 408.56 442.54 C 407.56 444.29 405.72 443.33 404.28 442.84 C 397.82 439.34 391.36 435.84 385.04 432.11 Z" />
</g>
</svg>
