<?xml version="1.0" encoding="UTF-8" ?>
<!DOCTYPE svg PUBLIC "-//W3C//DTD SVG 1.1//EN" "http://www.w3.org/Graphics/SVG/1.1/DTD/svg11.dtd">
<svg width="475pt" height="466pt" viewBox="0 0 475 466" version="1.1" xmlns="http://www.w3.org/2000/svg">
<g id="#62554bff">
<path fill="#62554b" opacity="1.00" d=" M 171.47 0.00 L 212.65 0.00 C 218.54 0.39 222.18 5.84 222.58 11.33 C 228.07 11.43 233.57 11.14 239.06 11.46 C 243.03 11.66 246.11 15.13 246.68 18.92 C 247.05 22.11 247.19 25.42 246.55 28.59 C 245.90 30.93 243.37 31.54 241.41 32.36 C 241.31 32.81 241.12 33.72 241.03 34.17 C 235.91 37.43 231.29 41.36 226.32 44.81 C 226.22 39.97 227.61 35.31 229.17 30.79 C 221.22 35.16 214.23 41.05 207.52 47.10 C 195.52 47.11 183.52 47.23 171.52 47.04 C 171.37 35.05 169.42 21.62 160.17 13.04 C 160.37 6.69 164.84 0.56 171.47 0.00 Z" />
<path fill="#62554b" opacity="1.00" d=" M 70.35 9.53 C 89.58 9.41 108.82 9.47 128.05 9.50 C 138.27 9.71 149.23 10.98 157.60 17.39 C 164.31 22.50 167.48 31.02 167.69 39.26 C 167.82 47.52 167.76 55.78 167.73 64.04 C 167.52 72.55 163.20 81.69 154.90 84.96 C 147.42 88.25 139.02 85.73 131.30 87.36 C 126.99 88.82 129.41 94.80 125.62 96.74 C 118.54 101.05 109.84 99.75 101.94 100.02 C 93.95 100.34 85.31 98.36 79.61 92.40 C 75.10 87.83 73.47 81.23 73.52 74.98 C 73.62 67.83 72.56 60.06 76.46 53.64 C 79.45 48.11 85.80 45.24 91.91 45.31 C 101.94 45.23 111.98 45.26 122.01 45.29 C 127.96 45.18 134.40 48.90 135.37 55.15 C 136.01 61.43 136.58 68.89 131.86 73.84 C 128.31 77.64 122.77 77.43 118.00 77.35 C 113.21 77.17 107.84 78.12 103.65 75.24 C 100.13 72.90 102.04 66.70 106.06 66.21 C 110.35 65.73 114.69 66.17 119.00 65.90 C 118.31 63.66 117.30 60.93 114.62 60.58 C 110.43 60.19 106.20 60.43 101.99 60.42 C 99.36 60.27 96.52 62.07 96.29 64.85 C 96.00 68.57 96.04 72.32 96.23 76.04 C 96.29 79.01 99.03 81.37 101.97 81.09 C 109.66 81.20 117.34 81.11 125.03 81.14 C 130.41 81.18 136.35 79.17 139.24 74.34 C 142.23 69.44 141.17 63.47 141.39 58.03 C 141.60 52.81 140.60 47.08 136.67 43.32 C 133.59 40.29 129.10 39.52 124.94 39.59 C 111.97 39.60 99.00 39.60 86.03 39.60 C 80.51 39.60 74.58 41.46 71.10 45.98 C 68.63 49.09 67.85 53.17 67.86 57.06 C 67.85 66.73 67.85 76.40 67.86 86.07 C 67.85 92.47 70.83 99.42 76.94 102.16 C 82.94 104.80 89.69 103.38 96.02 103.72 C 90.21 111.98 91.03 122.46 90.51 132.03 C 90.23 136.49 90.72 141.62 94.36 144.70 C 98.24 148.33 104.46 145.93 108.36 149.59 C 112.23 152.91 111.02 158.49 111.21 162.99 C 110.86 169.19 112.04 175.59 110.35 181.64 C 109.02 186.04 104.55 188.82 100.04 188.64 C 85.70 188.73 71.36 188.61 57.02 188.68 C 53.61 188.67 49.89 190.14 48.22 193.27 C 46.54 196.26 47.94 200.63 44.77 202.81 C 41.62 204.62 37.66 202.97 34.39 204.50 C 31.82 205.51 30.10 208.16 30.21 210.92 C 30.13 215.66 30.06 220.42 30.25 225.16 C 30.41 229.33 33.54 233.51 37.92 233.79 C 44.11 234.14 50.33 233.82 56.53 233.94 C 56.43 255.14 56.79 276.36 56.34 297.56 C 53.35 308.55 50.50 319.60 47.13 330.49 C 47.12 306.32 47.12 282.15 47.12 257.98 C 42.41 254.95 36.06 258.15 31.32 254.75 C 25.90 251.83 26.21 245.00 26.38 239.73 C 20.52 239.31 14.26 235.74 13.48 229.42 C 12.73 219.99 13.58 210.48 13.05 201.04 C 12.16 199.62 10.27 200.19 8.89 199.84 C 5.26 199.84 1.82 196.76 1.95 193.02 C 1.87 184.77 0.97 175.82 5.47 168.44 C 8.98 162.09 16.21 158.58 23.32 158.53 C 42.54 158.34 61.78 158.59 81.00 158.42 C 83.22 158.61 84.61 156.73 84.96 154.75 C 78.91 154.47 71.61 156.02 66.88 151.18 C 61.45 145.73 66.62 136.89 61.70 131.21 C 58.59 127.28 53.04 128.96 48.96 127.02 C 44.46 125.35 41.52 120.74 41.53 116.00 C 41.39 106.98 41.50 97.97 41.49 88.95 C 41.30 87.65 41.96 85.18 40.00 85.00 C 33.37 84.36 26.26 86.04 20.05 82.89 C 14.71 80.53 11.41 74.84 11.38 69.09 C 11.24 61.04 11.31 52.99 11.34 44.95 C 11.59 35.08 18.07 26.44 26.01 21.09 C 38.99 12.40 55.03 9.99 70.35 9.53 Z" />
<path fill="#62554b" opacity="1.00" d=" M 49.34 200.06 C 49.79 196.91 52.69 194.31 55.91 194.39 C 66.23 194.31 76.56 194.25 86.88 194.42 C 97.77 195.40 109.16 200.24 115.19 209.76 C 120.20 217.61 118.50 227.30 118.68 236.10 C 118.75 241.24 114.40 245.42 109.31 245.44 C 108.86 266.23 108.37 287.03 107.90 307.83 C 107.85 311.35 107.61 314.86 107.42 318.38 C 105.50 320.25 103.66 322.22 101.85 324.21 C 98.89 320.66 96.47 316.71 93.96 312.84 C 94.64 292.93 94.03 272.97 94.27 253.03 C 94.23 250.02 94.73 246.11 91.77 244.23 C 88.01 242.26 83.30 244.60 79.61 242.36 C 77.94 241.40 77.61 239.41 77.06 237.76 C 70.85 237.69 64.65 237.76 58.44 237.72 C 58.43 236.47 58.43 235.22 58.43 233.98 C 63.76 233.53 70.00 235.26 74.47 231.46 C 78.24 228.10 77.25 222.52 77.18 218.02 C 76.99 212.61 72.60 207.50 66.96 207.60 C 62.18 207.76 57.05 206.66 52.54 208.61 C 48.42 210.73 48.70 216.04 49.20 219.95 C 50.02 223.38 54.25 222.67 56.88 222.53 C 59.06 222.24 58.28 219.44 58.38 217.92 C 57.07 217.49 55.75 217.05 54.44 216.61 C 55.16 215.17 55.93 213.19 57.89 213.30 C 62.40 213.37 67.86 212.04 71.51 215.44 C 76.21 220.42 72.05 230.19 65.09 230.09 C 58.07 230.33 51.04 230.17 44.02 230.18 C 39.33 230.40 34.19 227.15 34.05 222.11 C 33.98 217.87 32.96 212.68 36.34 209.37 C 39.21 206.31 44.05 208.71 47.16 206.17 C 49.03 204.72 48.79 202.13 49.34 200.06 Z" />
</g>
<g id="#28241dff">
<path fill="#28241d" opacity="1.00" d=" M 388.27 56.58 C 401.54 40.30 414.62 23.88 427.88 7.61 C 428.50 27.70 429.14 47.78 429.75 67.87 C 437.40 54.22 444.53 40.27 452.41 26.76 C 455.59 59.91 458.57 93.09 461.85 126.24 C 459.45 128.36 456.76 130.12 454.26 132.12 C 453.66 138.35 452.95 144.57 452.45 150.81 C 446.26 152.98 439.91 154.63 433.64 156.57 C 433.14 156.26 432.12 155.64 431.61 155.33 C 435.49 145.20 438.90 134.88 443.03 124.85 C 446.64 126.85 449.90 129.44 453.60 131.30 C 452.64 127.63 450.63 124.39 449.10 120.95 C 447.09 116.57 445.30 112.08 442.84 107.93 C 435.83 121.47 428.82 135.04 422.36 148.86 C 419.91 146.97 417.33 145.27 414.85 143.43 C 403.48 144.59 392.12 145.94 380.75 147.19 C 381.65 133.93 382.59 120.67 383.48 107.41 C 383.76 102.94 384.49 98.44 383.73 93.98 C 377.18 107.50 370.67 121.07 363.58 134.31 C 361.78 132.89 359.95 131.51 358.08 130.18 C 359.42 106.47 360.72 82.75 361.78 59.03 C 359.50 62.09 357.53 65.36 355.55 68.61 C 344.62 86.01 333.62 103.36 322.75 120.79 C 320.87 123.91 318.41 126.76 317.40 130.33 L 317.36 130.44 C 310.18 131.35 303.09 132.80 295.95 133.94 C 319.87 94.37 343.57 54.66 367.63 15.17 C 374.48 28.99 381.41 42.77 388.27 56.58 M 392.35 111.21 C 401.51 115.31 410.96 118.78 420.28 122.54 C 421.63 110.68 422.90 98.80 424.00 86.92 C 413.43 94.98 402.82 103.00 392.35 111.21 Z" />
<path fill="#28241d" opacity="1.00" d=" M 241.03 34.17 C 250.29 28.51 260.41 23.75 271.32 22.55 C 269.94 25.23 268.17 27.91 268.08 31.02 C 267.95 33.19 269.54 35.70 271.87 35.73 C 279.90 35.79 287.40 39.03 294.44 42.58 C 307.03 49.12 318.70 57.30 329.84 66.05 C 316.03 88.05 302.24 110.07 288.38 132.05 C 278.34 119.48 268.31 106.90 258.23 94.35 C 250.05 113.20 241.91 132.07 233.73 150.91 C 231.92 148.53 230.16 146.11 228.31 143.77 C 228.60 147.45 229.40 151.07 229.95 154.72 C 226.10 157.28 225.14 161.74 224.32 165.98 C 222.43 163.52 220.57 161.04 218.68 158.58 C 220.51 156.60 222.39 154.68 224.33 152.81 C 223.66 151.56 222.99 150.32 222.31 149.08 C 219.85 150.98 217.35 152.85 214.88 154.75 C 215.40 160.69 216.04 166.63 216.41 172.59 C 209.13 164.54 204.74 154.36 198.02 145.88 C 196.42 150.36 195.74 155.12 194.09 159.59 C 190.45 155.36 188.48 149.95 184.51 145.98 C 181.46 155.63 178.45 165.31 175.49 174.99 C 170.69 173.43 166.72 170.19 162.18 168.07 C 159.94 175.33 158.67 182.85 156.35 190.08 C 153.11 185.68 150.63 180.77 147.49 176.31 C 146.23 176.16 145.94 177.56 145.35 178.37 C 142.83 182.97 140.36 187.61 137.71 192.14 C 134.91 189.42 132.67 186.20 129.94 183.42 C 129.66 174.49 128.70 165.59 128.19 156.67 C 132.06 161.53 135.49 166.73 139.53 171.46 C 142.09 162.79 144.41 154.06 147.05 145.42 C 150.91 150.94 154.53 156.64 158.33 162.21 C 161.51 150.95 164.55 139.65 167.77 128.39 C 170.98 134.60 174.00 140.90 177.20 147.12 C 178.48 145.24 179.74 143.34 180.95 141.41 C 176.50 133.31 172.19 125.12 167.76 117.00 C 163.98 127.03 160.23 137.06 156.48 147.10 C 152.60 141.57 149.06 135.81 145.13 130.31 C 141.93 140.29 138.89 150.32 135.72 160.31 C 124.39 142.77 113.11 125.20 101.87 107.61 C 112.56 111.87 123.14 116.38 133.81 120.71 C 135.23 110.15 138.98 99.83 144.96 90.99 C 145.65 95.42 147.03 99.70 148.87 103.78 C 156.65 97.97 163.34 90.68 168.15 82.23 C 173.72 72.49 177.74 61.81 184.66 52.88 C 184.81 58.71 185.77 64.57 188.37 69.85 C 193.92 61.61 200.25 53.89 207.52 47.10 C 214.23 41.05 221.22 35.16 229.17 30.79 C 227.61 35.31 226.22 39.97 226.32 44.81 C 231.29 41.36 235.91 37.43 241.03 34.17 M 150.95 118.91 C 153.30 120.77 155.72 122.55 158.14 124.34 C 160.44 120.26 162.06 115.82 163.76 111.48 C 159.50 113.97 155.11 116.25 150.95 118.91 M 169.39 153.14 C 167.69 156.10 165.72 158.91 164.29 162.01 C 165.36 164.46 167.85 165.99 169.74 167.81 C 171.47 164.86 173.47 162.05 174.92 158.93 C 174.09 156.41 171.45 154.74 169.39 153.14 M 154.29 172.04 C 153.71 173.56 152.09 175.73 154.14 176.87 C 156.03 176.61 156.95 174.55 158.08 173.22 C 156.84 172.75 155.58 172.33 154.29 172.04 M 135.17 178.00 C 132.86 181.45 135.52 185.21 137.62 188.04 C 138.43 185.75 138.94 183.37 139.35 180.98 C 138.13 179.78 137.07 178.06 135.17 178.00 Z" />
<path fill="#28241d" opacity="1.00" d=" M 335.77 127.04 C 341.64 115.23 347.62 103.45 353.89 91.84 C 353.54 102.82 351.41 113.65 350.67 124.61 C 345.68 125.31 340.74 126.29 335.77 127.04 Z" />
<path fill="#28241d" opacity="1.00" d=" M 208.05 210.10 C 228.03 176.05 245.70 140.60 260.22 103.89 C 269.65 116.42 278.97 129.05 288.49 141.51 C 308.55 137.09 328.62 132.76 348.67 128.29 C 358.83 136.39 368.80 144.72 378.95 152.83 C 390.25 151.59 401.54 150.29 412.84 149.06 C 419.85 154.08 426.69 159.32 433.80 164.17 C 442.48 162.15 451.22 160.42 459.92 158.48 C 460.64 169.73 461.00 181.01 461.90 192.23 C 463.93 196.35 467.16 199.77 469.23 203.87 C 469.50 219.55 469.27 235.25 469.33 250.93 C 467.50 253.26 465.65 255.57 463.77 257.85 C 462.84 259.06 461.56 260.25 461.81 261.94 C 461.77 270.81 461.83 279.68 461.79 288.55 C 460.47 286.51 459.14 284.49 457.78 282.49 C 457.99 272.96 457.05 263.46 456.87 253.94 C 456.53 248.86 457.09 243.65 455.57 238.72 C 452.92 248.10 451.50 257.81 448.46 267.08 C 445.80 252.93 443.13 238.77 440.48 224.62 C 439.46 219.36 438.79 214.02 437.33 208.85 C 432.94 228.42 429.94 248.30 425.92 267.96 C 422.27 267.92 418.63 267.93 414.99 267.93 C 415.49 250.95 415.90 233.97 416.43 216.99 C 416.45 214.43 416.87 211.72 415.74 209.32 C 410.35 196.83 405.02 184.31 399.66 171.82 C 387.60 183.59 375.69 195.53 363.91 207.57 C 376.43 211.30 388.97 215.00 401.43 218.90 C 401.04 233.84 400.48 248.78 399.97 263.72 C 396.15 260.80 392.31 257.91 388.62 254.84 C 385.47 246.68 384.10 237.95 380.92 229.81 C 378.82 237.75 378.61 246.14 376.95 254.21 C 374.39 254.57 371.81 254.56 369.27 254.09 C 367.12 245.42 364.94 236.76 362.79 228.10 C 361.91 224.67 361.38 221.10 359.70 217.94 C 355.12 228.69 351.39 239.80 346.65 250.49 C 344.22 248.57 341.70 246.74 339.15 244.99 C 336.89 217.61 334.39 190.24 331.67 162.90 C 319.49 186.43 307.83 210.24 296.00 233.96 C 292.16 233.88 288.31 234.03 284.47 233.87 L 284.03 233.55 C 283.89 231.81 283.78 230.08 283.48 228.37 C 280.13 212.20 276.75 196.04 273.48 179.86 C 270.17 181.17 267.84 183.99 265.06 186.08 C 253.50 195.79 241.63 205.13 230.29 215.08 C 222.62 215.02 214.94 215.13 207.27 215.02 C 207.40 213.37 207.07 211.55 208.05 210.10 M 259.60 122.39 C 255.04 132.31 251.20 142.59 247.09 152.72 C 255.62 156.08 264.32 159.04 273.01 161.96 C 269.29 148.52 264.56 135.36 260.56 121.99 C 260.32 122.09 259.84 122.29 259.60 122.39 Z" />
<path fill="#28241d" opacity="1.00" d=" M 182.98 160.09 C 183.47 159.73 184.46 159.01 184.96 158.65 C 186.01 159.16 187.06 159.66 188.12 160.16 C 187.59 162.18 186.25 163.78 184.89 165.30 C 183.67 163.82 183.21 161.95 182.98 160.09 Z" />
<path fill="#28241d" opacity="1.00" d=" M 182.49 172.21 C 185.78 172.83 190.42 175.87 189.65 179.63 C 187.44 181.61 185.08 183.49 182.35 184.69 C 181.32 183.48 179.76 182.55 179.29 180.98 C 180.05 177.96 181.46 175.14 182.49 172.21 Z" />
<path fill="#28241d" opacity="1.00" d=" M 162.26 184.87 C 163.33 181.78 164.38 178.65 165.92 175.75 C 168.78 177.17 174.06 177.77 173.46 182.03 C 174.06 186.27 168.75 186.90 165.94 188.44 C 164.64 187.32 163.41 186.14 162.26 184.87 Z" />
<path fill="#28241d" opacity="1.00" d=" M 145.16 189.01 C 146.72 189.88 147.84 191.28 148.83 192.74 C 148.19 193.84 147.56 194.94 146.93 196.05 C 145.68 195.55 144.50 194.90 143.43 194.09 C 143.92 192.37 144.48 190.67 145.16 189.01 Z" />
<path fill="#28241d" opacity="1.00" d=" M 122.36 203.79 C 123.43 201.07 124.48 198.34 125.48 195.59 C 128.83 198.34 132.49 200.74 135.44 203.95 C 133.84 207.69 132.09 211.38 129.94 214.85 C 128.69 214.97 127.45 215.10 126.22 215.23 C 124.85 211.44 123.61 207.61 122.36 203.79 Z" />
<path fill="#28241d" opacity="1.00" d=" M 149.31 200.68 C 148.90 199.11 149.98 197.74 150.95 196.65 C 151.97 197.82 154.60 198.67 153.67 200.60 C 152.32 201.41 150.47 202.33 149.31 200.68 Z" />
<path fill="#28241d" opacity="1.00" d=" M 305.12 233.97 C 311.09 224.48 315.97 214.36 321.91 204.85 C 322.22 214.56 320.53 224.21 320.72 233.93 C 315.52 233.94 310.32 233.90 305.12 233.97 Z" />
<path fill="#28241d" opacity="1.00" d=" M 145.12 210.01 C 147.12 209.66 148.98 210.59 150.78 211.32 C 150.35 213.63 149.78 215.92 148.99 218.14 C 145.51 216.97 144.56 213.30 145.12 210.01 Z" />
<path fill="#28241d" opacity="1.00" d=" M 179.09 215.09 C 189.04 216.81 199.00 218.52 208.94 220.37 C 212.27 220.94 215.66 220.71 219.03 220.73 C 230.39 220.74 241.76 220.72 253.13 220.74 C 254.58 220.48 255.46 221.83 256.42 222.65 C 261.98 228.32 267.68 233.88 273.23 239.57 C 289.54 239.00 305.85 238.46 322.14 237.67 C 331.19 245.69 339.82 254.16 348.81 262.25 C 359.49 261.03 370.16 259.74 380.84 258.48 C 387.11 263.53 393.33 268.65 399.70 273.55 C 404.70 274.83 409.70 276.13 414.74 277.25 C 425.45 276.25 436.10 274.75 446.79 273.60 C 448.53 276.80 450.72 279.76 452.26 283.07 C 452.57 289.28 452.32 295.52 452.34 301.74 C 454.11 303.92 456.74 305.53 457.98 308.04 C 458.84 314.76 459.27 321.55 459.88 328.30 C 453.57 330.05 447.39 332.33 441.02 333.79 C 435.97 332.86 431.08 331.21 426.05 330.23 C 424.96 320.15 423.79 310.07 422.88 299.96 C 422.76 298.51 422.27 297.14 421.72 295.81 C 417.99 305.92 414.64 316.17 410.87 326.27 C 407.68 322.61 404.65 318.81 401.53 315.09 C 399.05 315.95 396.58 316.85 394.16 317.84 C 389.86 310.43 387.10 302.26 382.69 294.91 C 381.28 304.36 380.03 313.85 378.98 323.35 C 377.08 323.97 375.21 324.66 373.37 325.41 C 371.80 310.29 370.84 295.12 369.52 279.98 C 366.29 283.43 364.20 287.71 361.62 291.62 C 356.78 299.20 352.17 306.91 347.08 314.32 C 334.54 298.89 321.84 283.60 309.41 268.09 C 300.65 279.85 293.59 292.82 284.96 304.68 C 284.44 304.72 283.39 304.78 282.87 304.82 C 281.88 287.12 281.64 269.39 280.73 251.69 C 277.13 256.97 274.74 262.95 271.47 268.43 C 265.30 280.31 258.73 291.98 252.72 303.94 C 250.18 303.85 247.62 304.00 245.11 303.60 C 243.43 302.79 241.95 301.63 240.40 300.62 C 241.33 298.89 241.82 296.98 241.86 295.02 C 242.68 282.33 244.13 269.69 244.88 257.00 C 235.84 266.16 227.49 276.00 218.53 285.26 C 214.86 282.52 211.09 279.91 207.30 277.35 C 203.60 279.99 199.77 282.45 196.13 285.19 C 195.32 269.07 194.89 252.92 193.96 236.81 C 183.15 252.59 174.43 269.74 163.77 285.62 C 158.92 280.88 153.85 276.35 148.93 271.68 C 158.96 252.80 169.00 233.93 179.09 215.09 Z" />
<path fill="#28241d" opacity="1.00" d=" M 56.34 297.56 C 59.11 288.39 61.31 279.06 64.19 269.92 C 73.60 283.50 82.85 297.19 92.36 310.69 C 92.31 330.14 92.49 349.59 92.28 369.02 C 90.87 373.15 86.58 375.70 84.87 379.74 C 83.83 385.75 83.88 391.92 82.81 397.93 C 80.06 401.55 76.29 404.24 73.49 407.82 C 74.81 413.37 74.05 419.64 77.45 424.53 C 80.04 428.51 83.45 432.53 88.29 433.67 C 92.75 434.72 96.95 432.03 100.07 429.11 C 105.00 424.36 108.76 418.30 110.60 411.69 C 111.72 406.22 111.05 400.59 111.24 395.05 C 111.76 389.76 104.87 387.34 105.39 382.03 C 104.92 368.98 104.25 355.92 103.74 342.87 C 103.66 340.03 107.77 339.01 107.42 336.04 C 107.54 330.15 107.37 324.26 107.42 318.38 C 107.61 314.86 107.85 311.35 107.90 307.83 C 107.82 311.03 107.76 314.23 107.70 317.44 C 118.94 304.09 130.15 290.73 141.34 277.35 C 152.78 288.58 163.93 300.11 175.43 311.26 C 186.01 303.05 196.71 294.98 207.31 286.79 C 217.96 293.41 228.54 300.13 239.12 306.86 C 240.95 307.92 242.69 309.58 244.96 309.50 C 258.15 310.05 271.35 310.47 284.53 311.16 C 283.99 358.81 283.28 406.47 282.77 454.13 C 280.92 454.53 279.10 455.04 277.29 455.56 C 271.96 434.60 267.48 413.42 262.48 392.38 C 258.41 375.58 255.00 358.60 250.52 341.91 C 241.27 377.46 231.72 412.93 222.44 448.47 C 221.24 448.04 220.05 447.61 218.85 447.20 C 219.25 430.35 221.77 413.58 221.79 396.74 C 214.83 415.44 208.19 434.29 201.87 453.22 C 199.97 453.80 198.09 454.47 196.26 455.23 C 189.65 435.92 183.70 416.39 177.47 396.96 C 176.48 400.12 175.92 403.40 175.48 406.68 C 172.38 426.46 168.91 446.19 165.98 466.00 L 165.84 466.00 C 160.37 448.29 155.02 430.53 149.30 412.89 C 149.05 427.72 150.63 442.53 150.61 457.37 C 150.16 457.11 149.27 456.59 148.83 456.33 C 143.79 424.19 138.28 392.13 133.18 360.00 C 132.88 357.92 132.33 355.89 131.61 353.92 C 124.06 380.26 116.56 406.61 108.98 432.94 C 107.30 439.14 105.27 445.25 103.89 451.53 C 95.60 454.31 87.44 457.47 79.17 460.33 C 72.30 455.34 65.46 450.28 58.53 445.37 C 53.42 425.55 48.76 405.62 43.51 385.84 C 41.50 390.48 40.76 395.52 39.45 400.37 C 35.23 417.77 30.50 435.06 26.58 452.53 C 17.69 454.37 8.87 456.53 0.00 458.47 L 0.00 457.74 C 3.34 437.28 6.26 416.75 9.40 396.26 C 13.14 394.35 16.91 392.49 20.67 390.62 C 23.98 374.30 26.84 357.89 30.24 341.59 C 33.41 347.10 36.18 352.85 39.65 358.18 C 42.11 348.94 44.96 339.80 47.13 330.49 C 50.50 319.60 53.35 308.55 56.34 297.56 M 197.59 342.00 C 190.37 357.59 182.64 372.94 175.46 388.54 C 189.84 387.55 204.19 386.11 218.56 384.92 C 212.49 371.60 205.94 358.51 199.75 345.25 C 199.18 344.07 198.68 342.78 197.59 342.00 Z" />
<path fill="#28241d" opacity="1.00" d=" M 263.94 304.29 C 267.59 297.09 270.64 289.55 274.90 282.68 C 275.54 289.98 275.10 297.31 275.10 304.62 C 271.39 304.32 267.66 304.26 263.94 304.29 Z" />
<path fill="#28241d" opacity="1.00" d=" M 354.38 323.23 C 357.29 317.65 359.88 311.83 363.70 306.78 C 364.40 314.07 362.78 321.54 364.58 328.69 C 362.94 329.25 361.28 329.75 359.57 330.02 C 357.99 327.64 356.23 325.39 354.38 323.23 Z" />
<path fill="#28241d" opacity="1.00" d=" M 302.99 314.16 C 303.09 312.18 302.53 309.99 303.62 308.21 C 303.88 311.31 303.75 314.43 304.03 317.54 C 307.60 317.82 310.76 319.70 314.12 320.77 C 318.16 322.42 322.53 323.36 326.22 325.76 C 326.79 324.28 327.22 322.76 327.73 321.26 C 328.42 327.17 326.64 333.05 326.79 338.99 C 325.37 351.74 327.20 364.50 328.03 377.22 C 334.96 371.66 341.89 366.08 348.64 360.29 C 345.55 357.06 342.31 353.98 339.16 350.82 C 338.45 349.95 337.33 349.15 337.43 347.91 C 337.35 339.48 337.41 331.05 337.41 322.62 C 337.40 324.84 337.40 327.05 337.40 329.27 C 344.87 332.25 352.49 334.80 359.99 337.70 C 373.92 332.19 387.66 326.20 401.65 320.82 C 404.12 323.91 406.38 327.18 409.12 330.05 C 419.68 333.37 430.35 336.47 441.02 339.46 C 448.66 337.31 456.14 334.53 463.68 332.05 C 464.46 336.43 464.68 340.91 465.73 345.24 C 467.85 348.68 471.02 351.37 473.01 354.89 C 473.93 372.70 474.10 390.56 475.00 408.37 L 475.00 411.27 C 471.25 418.20 467.46 425.10 463.69 432.02 C 462.93 425.11 462.67 418.13 461.64 411.25 C 460.05 408.60 457.97 406.29 456.16 403.79 C 457.39 420.75 458.69 437.71 459.91 454.68 C 455.09 453.61 450.27 452.53 445.41 451.70 C 446.80 448.63 445.16 445.37 444.65 442.29 C 439.85 420.49 435.05 398.68 430.29 376.87 C 429.62 373.50 428.85 370.15 427.62 366.94 C 420.67 392.44 414.15 418.07 406.92 443.49 C 399.99 446.53 393.20 449.90 386.20 452.78 C 373.16 447.70 360.09 442.61 346.93 437.84 C 343.67 438.33 340.52 439.36 337.35 440.24 C 333.81 422.41 330.21 404.58 326.43 386.80 C 325.58 388.03 324.99 389.41 324.74 390.89 C 320.91 409.44 316.76 427.92 312.90 446.45 C 309.11 447.27 305.36 448.26 301.64 449.36 C 301.97 414.22 302.56 379.08 302.99 343.94 C 303.02 334.02 303.54 324.08 302.99 314.16 M 353.60 422.50 C 352.63 423.72 351.51 424.91 351.12 426.47 C 368.49 426.85 385.86 427.75 403.23 428.14 C 397.18 413.05 390.72 398.11 384.58 383.05 C 374.12 396.10 363.99 409.40 353.60 422.50 Z" />
<path fill="#28241d" opacity="1.00" d=" M 250.51 400.83 C 251.70 406.15 252.14 411.60 252.83 417.00 C 254.61 431.45 256.44 445.89 258.21 460.34 C 251.38 458.04 244.58 455.64 237.68 453.54 C 241.53 435.87 246.26 418.40 250.51 400.83 Z" />
<path fill="#28241d" opacity="1.00" d=" M 127.49 407.82 C 128.61 410.74 128.10 413.95 128.20 417.01 C 127.96 426.10 128.54 435.22 127.79 444.30 C 127.40 444.08 126.63 443.64 126.24 443.42 C 122.54 444.68 118.86 446.01 115.23 447.44 C 118.87 434.10 123.42 421.03 127.49 407.82 Z" />
<path fill="#28241d" opacity="1.00" d=" M 425.62 411.79 C 427.46 415.20 427.24 419.21 427.93 422.93 C 428.98 431.48 430.82 439.95 431.22 448.57 C 427.05 447.61 422.90 446.61 418.69 445.92 C 420.60 434.47 423.09 423.11 425.62 411.79 Z" />
<path fill="#28241d" opacity="1.00" d=" M 41.44 430.86 C 43.75 436.40 45.17 442.26 47.17 447.92 C 43.44 448.63 39.73 449.44 36.07 450.41 C 37.46 443.80 39.35 437.28 41.44 430.86 Z" />
<path fill="#28241d" opacity="1.00" d=" M 180.65 431.82 C 182.29 434.95 182.62 438.52 183.30 441.94 C 184.31 447.55 185.77 453.09 186.35 458.78 C 182.14 460.13 177.98 461.64 173.86 463.25 C 175.38 452.64 178.36 442.28 180.65 431.82 Z" />
<path fill="#28241d" opacity="1.00" d=" M 265.99 442.69 C 268.95 447.03 270.92 451.93 273.26 456.61 C 270.22 457.30 267.17 457.97 264.18 458.89 C 264.41 453.46 264.71 447.99 265.99 442.69 Z" />
</g>
<g id="#403d3bff">
<path fill="#403d3b" opacity="1.00" d=" M 355.55 68.61 C 357.53 65.36 359.50 62.09 361.78 59.03 C 360.72 82.75 359.42 106.47 358.08 130.18 C 355.51 128.46 353.03 126.61 350.67 124.61 C 351.41 113.65 353.54 102.82 353.89 91.84 C 347.62 103.45 341.64 115.23 335.77 127.04 C 329.88 128.66 323.51 129.37 317.40 130.33 C 318.41 126.76 320.87 123.91 322.75 120.79 C 333.62 103.36 344.62 86.01 355.55 68.61 Z" />
<path fill="#403d3b" opacity="1.00" d=" M 383.73 93.98 C 384.49 98.44 383.76 102.94 383.48 107.41 C 382.59 120.67 381.65 133.93 380.75 147.19 C 374.92 143.05 369.18 138.75 363.58 134.31 C 370.67 121.07 377.18 107.50 383.73 93.98 Z" />
<path fill="#403d3b" opacity="1.00" d=" M 422.36 148.86 C 428.82 135.04 435.83 121.47 442.84 107.93 C 445.30 112.08 447.09 116.57 449.10 120.95 C 450.63 124.39 452.64 127.63 453.60 131.30 C 449.90 129.44 446.64 126.85 443.03 124.85 C 438.90 134.88 435.49 145.20 431.61 155.33 C 428.46 153.27 425.38 151.10 422.36 148.86 Z" />
<path fill="#403d3b" opacity="1.00" d=" M 259.60 122.39 C 259.84 122.29 260.32 122.09 260.56 121.99 C 264.56 135.36 269.29 148.52 273.01 161.96 C 264.32 159.04 255.62 156.08 247.09 152.72 C 251.20 142.59 255.04 132.31 259.60 122.39 Z" />
<path fill="#403d3b" opacity="1.00" d=" M 184.51 145.98 C 188.48 149.95 190.45 155.36 194.09 159.59 C 195.74 155.12 196.42 150.36 198.02 145.88 C 204.74 154.36 209.13 164.54 216.41 172.59 C 216.81 174.32 217.69 175.87 218.55 177.40 C 215.47 179.91 212.36 182.39 209.26 184.88 C 211.15 186.76 213.02 188.66 214.88 190.57 C 210.50 195.63 206.01 200.58 201.72 205.71 C 202.95 207.52 204.14 209.35 205.33 211.19 C 201.58 209.38 197.85 207.50 194.14 205.59 C 195.43 203.10 196.68 200.60 197.91 198.08 C 196.01 195.55 194.06 193.04 192.28 190.42 C 194.86 186.74 197.30 182.97 199.80 179.23 C 197.30 176.08 194.79 172.94 192.26 169.81 C 192.17 173.56 192.47 177.32 192.13 181.06 C 190.60 184.96 188.43 188.58 186.61 192.34 C 188.45 194.92 190.36 197.45 192.26 199.99 C 187.87 203.73 183.56 207.53 179.12 211.21 C 180.34 208.09 181.59 204.99 182.82 201.88 C 179.70 201.23 176.58 200.58 173.46 199.97 C 174.04 196.89 174.64 193.81 175.21 190.73 C 172.04 194.40 168.98 198.15 165.89 201.88 C 167.80 204.45 169.81 206.95 171.52 209.66 C 169.00 213.80 166.52 217.97 164.28 222.26 C 163.61 225.45 164.13 228.79 163.98 232.04 C 161.46 229.52 158.92 227.01 156.46 224.43 C 158.37 221.97 160.24 219.48 162.09 216.97 C 159.63 214.46 157.16 211.96 154.63 209.53 C 155.22 212.02 155.83 214.51 156.43 217.00 C 154.58 220.07 152.76 223.17 150.84 226.21 C 153.13 231.33 155.73 236.32 158.33 241.30 C 155.99 244.04 153.31 246.46 150.80 249.05 C 151.42 252.12 152.03 255.20 152.61 258.28 C 149.43 254.63 146.37 250.87 143.27 247.15 C 145.15 244.63 147.03 242.13 148.91 239.62 C 145.81 235.79 142.59 232.06 139.48 228.24 C 140.75 224.49 142.01 220.74 143.24 216.98 C 140.79 215.71 138.33 214.47 135.84 213.28 C 137.03 215.15 138.24 217.01 139.46 218.85 C 137.02 222.09 134.28 225.10 131.99 228.46 C 135.83 232.04 139.44 235.86 143.22 239.52 C 140.22 244.06 136.90 248.37 133.83 252.86 C 134.44 259.10 135.10 265.33 135.69 271.57 C 131.26 266.56 126.80 261.58 122.52 256.44 C 125.10 251.46 127.65 246.46 130.03 241.38 C 126.86 237.68 123.74 233.92 120.65 230.14 C 122.50 225.17 124.39 220.21 126.22 215.23 C 127.45 215.10 128.69 214.97 129.94 214.85 C 132.09 211.38 133.84 207.69 135.44 203.95 C 132.49 200.74 128.83 198.34 125.48 195.59 C 126.95 191.53 128.45 187.48 129.94 183.42 C 132.67 186.20 134.91 189.42 137.71 192.14 C 140.36 187.61 142.83 182.97 145.35 178.37 C 145.94 177.56 146.23 176.16 147.49 176.31 C 150.63 180.77 153.11 185.68 156.35 190.08 C 158.67 182.85 159.94 175.33 162.18 168.07 C 166.72 170.19 170.69 173.43 175.49 174.99 C 178.45 165.31 181.46 155.63 184.51 145.98 M 182.98 160.09 C 183.21 161.95 183.67 163.82 184.89 165.30 C 186.25 163.78 187.59 162.18 188.12 160.16 C 187.06 159.66 186.01 159.16 184.96 158.65 C 184.46 159.01 183.47 159.73 182.98 160.09 M 182.49 172.21 C 181.46 175.14 180.05 177.96 179.29 180.98 C 179.76 182.55 181.32 183.48 182.35 184.69 C 185.08 183.49 187.44 181.61 189.65 179.63 C 190.42 175.87 185.78 172.83 182.49 172.21 M 162.26 184.87 C 163.41 186.14 164.64 187.32 165.94 188.44 C 168.75 186.90 174.06 186.27 173.46 182.03 C 174.06 177.77 168.78 177.17 165.92 175.75 C 164.38 178.65 163.33 181.78 162.26 184.87 M 145.16 189.01 C 144.48 190.67 143.92 192.37 143.43 194.09 C 144.50 194.90 145.68 195.55 146.93 196.05 C 147.56 194.94 148.19 193.84 148.83 192.74 C 147.84 191.28 146.72 189.88 145.16 189.01 M 149.31 200.68 C 150.47 202.33 152.32 201.41 153.67 200.60 C 154.60 198.67 151.97 197.82 150.95 196.65 C 149.98 197.74 148.90 199.11 149.31 200.68 M 145.12 210.01 C 144.56 213.30 145.51 216.97 148.99 218.14 C 149.78 215.92 150.35 213.63 150.78 211.32 C 148.98 210.59 147.12 209.66 145.12 210.01 Z" />
<path fill="#403d3b" opacity="1.00" d=" M 169.39 153.14 C 171.45 154.74 174.09 156.41 174.92 158.93 C 173.47 162.05 171.47 164.86 169.74 167.81 C 167.85 165.99 165.36 164.46 164.29 162.01 C 165.72 158.91 167.69 156.10 169.39 153.14 Z" />
<path fill="#403d3b" opacity="1.00" d=" M 296.00 233.96 C 307.83 210.24 319.49 186.43 331.67 162.90 C 334.39 190.24 336.89 217.61 339.15 244.99 C 333.99 241.51 329.22 237.47 324.00 234.12 C 323.18 234.07 321.54 233.98 320.72 233.93 C 320.53 224.21 322.22 214.56 321.91 204.85 C 315.97 214.36 311.09 224.48 305.12 233.97 C 302.08 234.00 299.04 234.00 296.00 233.96 Z" />
<path fill="#403d3b" opacity="1.00" d=" M 154.29 172.04 C 155.58 172.33 156.84 172.75 158.08 173.22 C 156.95 174.55 156.03 176.61 154.14 176.87 C 152.09 175.73 153.71 173.56 154.29 172.04 Z" />
<path fill="#403d3b" opacity="1.00" d=" M 135.17 178.00 C 137.07 178.06 138.13 179.78 139.35 180.98 C 138.94 183.37 138.43 185.75 137.62 188.04 C 135.52 185.21 132.86 181.45 135.17 178.00 Z" />
<path fill="#403d3b" opacity="1.00" d=" M 437.33 208.85 C 438.79 214.02 439.46 219.36 440.48 224.62 C 443.13 238.77 445.80 252.93 448.46 267.08 C 451.50 257.81 452.92 248.10 455.57 238.72 C 457.09 243.65 456.53 248.86 456.87 253.94 C 457.05 263.46 457.99 272.96 457.78 282.49 C 454.64 277.75 451.56 272.97 448.65 268.08 C 441.08 267.85 433.49 268.08 425.92 267.96 C 429.94 248.30 432.94 228.42 437.33 208.85 Z" />
<path fill="#403d3b" opacity="1.00" d=" M 359.70 217.94 C 361.38 221.10 361.91 224.67 362.79 228.10 C 364.94 236.76 367.12 245.42 369.27 254.09 C 371.81 254.56 374.39 254.57 376.95 254.21 C 378.61 246.14 378.82 237.75 380.92 229.81 C 384.10 237.95 385.47 246.68 388.62 254.84 C 385.41 254.87 382.20 254.94 379.00 254.83 C 370.16 254.34 361.28 255.33 352.45 254.72 C 350.35 253.56 348.55 251.95 346.65 250.49 C 351.39 239.80 355.12 228.69 359.70 217.94 Z" />
<path fill="#403d3b" opacity="1.00" d=" M 163.77 285.62 C 174.43 269.74 183.15 252.59 193.96 236.81 C 194.89 252.92 195.32 269.07 196.13 285.19 C 189.89 289.67 183.55 294.01 177.13 298.23 C 172.65 294.05 168.15 289.90 163.77 285.62 Z" />
<path fill="#403d3b" opacity="1.00" d=" M 271.47 268.43 C 274.74 262.95 277.13 256.97 280.73 251.69 C 281.64 269.39 281.88 287.12 282.87 304.82 C 280.28 304.91 277.68 304.82 275.10 304.62 C 275.10 297.31 275.54 289.98 274.90 282.68 C 270.64 289.55 267.59 297.09 263.94 304.29 C 260.19 304.30 256.46 304.03 252.72 303.94 C 258.73 291.98 265.30 280.31 271.47 268.43 Z" />
<path fill="#403d3b" opacity="1.00" d=" M 218.53 285.26 C 227.49 276.00 235.84 266.16 244.88 257.00 C 244.13 269.69 242.68 282.33 241.86 295.02 C 241.82 296.98 241.33 298.89 240.40 300.62 C 233.08 295.54 225.73 290.50 218.53 285.26 Z" />
<path fill="#403d3b" opacity="1.00" d=" M 361.62 291.62 C 364.20 287.71 366.29 283.43 369.52 279.98 C 370.84 295.12 371.80 310.29 373.37 325.41 C 370.47 326.59 367.53 327.65 364.58 328.69 C 362.78 321.54 364.40 314.07 363.70 306.78 C 359.88 311.83 357.29 317.65 354.38 323.23 C 351.93 320.27 349.50 317.30 347.08 314.32 C 352.17 306.91 356.78 299.20 361.62 291.62 Z" />
<path fill="#403d3b" opacity="1.00" d=" M 378.98 323.35 C 380.03 313.85 381.28 304.36 382.69 294.91 C 387.10 302.26 389.86 310.43 394.16 317.84 C 389.16 319.84 384.09 321.68 378.98 323.35 Z" />
<path fill="#403d3b" opacity="1.00" d=" M 421.72 295.81 C 422.27 297.14 422.76 298.51 422.88 299.96 C 423.79 310.07 424.96 320.15 426.05 330.23 C 421.10 329.16 416.21 327.83 411.29 326.64 L 410.87 326.27 C 414.64 316.17 417.99 305.92 421.72 295.81 Z" />
<path fill="#403d3b" opacity="1.00" d=" M 250.52 341.91 C 255.00 358.60 258.41 375.58 262.48 392.38 C 267.48 413.42 271.96 434.60 277.29 455.56 C 275.95 455.93 274.61 456.28 273.26 456.61 C 270.92 451.93 268.95 447.03 265.99 442.69 C 264.71 447.99 264.41 453.46 264.18 458.89 C 262.23 459.51 260.24 460.06 258.21 460.34 C 256.44 445.89 254.61 431.45 252.83 417.00 C 252.14 411.60 251.70 406.15 250.51 400.83 C 246.26 418.40 241.53 435.87 237.68 453.54 C 232.54 452.03 227.50 450.21 222.44 448.47 C 231.72 412.93 241.27 377.46 250.52 341.91 Z" />
<path fill="#403d3b" opacity="1.00" d=" M 131.61 353.92 C 132.33 355.89 132.88 357.92 133.18 360.00 C 138.28 392.13 143.79 424.19 148.83 456.33 C 141.76 452.43 134.73 448.44 127.79 444.30 C 128.54 435.22 127.96 426.10 128.20 417.01 C 128.10 413.95 128.61 410.74 127.49 407.82 C 123.42 421.03 118.87 434.10 115.23 447.44 C 111.50 448.95 107.72 450.30 103.89 451.53 C 105.27 445.25 107.30 439.14 108.98 432.94 C 116.56 406.61 124.06 380.26 131.61 353.92 Z" />
<path fill="#403d3b" opacity="1.00" d=" M 427.62 366.94 C 428.85 370.15 429.62 373.50 430.29 376.87 C 435.05 398.68 439.85 420.49 444.65 442.29 C 445.16 445.37 446.80 448.63 445.41 451.70 C 440.68 450.62 435.91 449.78 431.22 448.57 C 430.82 439.95 428.98 431.48 427.93 422.93 C 427.24 419.21 427.46 415.20 425.62 411.79 C 423.09 423.11 420.60 434.47 418.69 445.92 C 414.74 445.25 410.86 444.22 406.92 443.49 C 414.15 418.07 420.67 392.44 427.62 366.94 Z" />
<path fill="#403d3b" opacity="1.00" d=" M 39.45 400.37 C 40.76 395.52 41.50 390.48 43.51 385.84 C 48.76 405.62 53.42 425.55 58.53 445.37 C 54.76 446.30 50.98 447.17 47.17 447.92 C 45.17 442.26 43.75 436.40 41.44 430.86 C 39.35 437.28 37.46 443.80 36.07 450.41 C 32.94 451.26 29.77 451.94 26.58 452.53 C 30.50 435.06 35.23 417.77 39.45 400.37 Z" />
<path fill="#403d3b" opacity="1.00" d=" M 324.74 390.89 C 324.99 389.41 325.58 388.03 326.43 386.80 C 330.21 404.58 333.81 422.41 337.35 440.24 C 329.23 442.44 321.08 444.53 312.90 446.45 C 316.76 427.92 320.91 409.44 324.74 390.89 Z" />
<path fill="#403d3b" opacity="1.00" d=" M 175.48 406.68 C 175.92 403.40 176.48 400.12 177.47 396.96 C 183.70 416.39 189.65 435.92 196.26 455.23 C 193.01 456.56 189.70 457.72 186.35 458.78 C 185.77 453.09 184.31 447.55 183.30 441.94 C 182.62 438.52 182.29 434.95 180.65 431.82 C 178.36 442.28 175.38 452.64 173.86 463.25 C 171.52 464.13 169.20 465.05 166.89 466.00 L 165.98 466.00 C 168.91 446.19 172.38 426.46 175.48 406.68 Z" />
<path fill="#403d3b" opacity="1.00" d=" M 201.87 453.22 C 208.19 434.29 214.83 415.44 221.79 396.74 C 221.77 413.58 219.25 430.35 218.85 447.20 C 213.22 449.29 207.58 451.37 201.87 453.22 Z" />
<path fill="#403d3b" opacity="1.00" d=" M 149.30 412.89 C 155.02 430.53 160.37 448.29 165.84 466.00 L 165.53 466.00 C 160.58 463.08 155.52 460.36 150.61 457.37 C 150.63 442.53 149.05 427.72 149.30 412.89 Z" />
</g>
<g id="#9a3525ff">
<path fill="#9a3525" opacity="1.00" d=" M 392.35 111.21 C 402.82 103.00 413.43 94.98 424.00 86.92 C 422.90 98.80 421.63 110.68 420.28 122.54 C 410.96 118.78 401.51 115.31 392.35 111.21 Z" />
<path fill="#9a3525" opacity="1.00" d=" M 363.91 207.57 C 375.69 195.53 387.60 183.59 399.66 171.82 C 405.02 184.31 410.35 196.83 415.74 209.32 C 416.87 211.72 416.45 214.43 416.43 216.99 C 415.90 233.97 415.49 250.95 414.99 267.93 C 414.91 271.04 414.82 274.14 414.74 277.25 C 409.70 276.13 404.70 274.83 399.70 273.55 C 399.77 270.27 399.87 266.99 399.97 263.72 C 400.48 248.78 401.04 233.84 401.43 218.90 C 388.97 215.00 376.43 211.30 363.91 207.57 Z" />
<path fill="#9a3525" opacity="1.00" d=" M 265.06 186.08 C 267.84 183.99 270.17 181.17 273.48 179.86 C 276.75 196.04 280.13 212.20 283.48 228.37 C 283.78 230.08 283.89 231.81 284.03 233.55 C 276.56 227.48 269.26 221.19 261.79 215.11 C 251.29 215.10 240.79 215.16 230.29 215.08 C 241.63 205.13 253.50 195.79 265.06 186.08 Z" />
<path fill="#9a3525" opacity="1.00" d=" M 284.96 304.68 C 293.59 292.82 300.65 279.85 309.41 268.09 C 321.84 283.60 334.54 298.89 347.08 314.32 C 349.50 317.30 351.93 320.27 354.38 323.23 C 356.23 325.39 357.99 327.64 359.57 330.02 C 352.19 327.54 344.81 325.04 337.41 322.62 C 337.41 331.05 337.35 339.48 337.43 347.91 C 337.33 349.15 338.45 349.95 339.16 350.82 C 342.31 353.98 345.55 357.06 348.64 360.29 C 341.89 366.08 334.96 371.66 328.03 377.22 C 327.20 364.50 325.37 351.74 326.79 338.99 C 326.64 333.05 328.42 327.17 327.73 321.26 C 327.82 320.71 328.02 319.59 328.11 319.04 C 320.09 315.06 311.93 311.34 303.74 307.74 L 303.62 308.21 C 302.53 309.99 303.09 312.18 302.99 314.16 C 303.54 324.08 303.02 334.02 302.99 343.94 C 302.56 379.08 301.97 414.22 301.64 449.36 C 295.37 451.02 289.10 452.71 282.77 454.13 C 283.28 406.47 283.99 358.81 284.53 311.16 C 284.54 308.99 284.54 306.81 284.96 304.68 Z" />
<path fill="#9a3525" opacity="1.00" d=" M 92.36 310.69 C 92.76 311.23 93.56 312.31 93.96 312.84 C 96.47 316.71 98.89 320.66 101.85 324.21 C 103.66 322.22 105.50 320.25 107.42 318.38 C 107.37 324.26 107.54 330.15 107.42 336.04 C 107.77 339.01 103.66 340.03 103.74 342.87 C 104.25 355.92 104.92 368.98 105.39 382.03 C 104.87 387.34 111.76 389.76 111.24 395.05 C 111.05 400.59 111.72 406.22 110.60 411.69 C 108.76 418.30 105.00 424.36 100.07 429.11 C 96.95 432.03 92.75 434.72 88.29 433.67 C 83.45 432.53 80.04 428.51 77.45 424.53 C 74.05 419.64 74.81 413.37 73.49 407.82 C 76.29 404.24 80.06 401.55 82.81 397.93 C 83.88 391.92 83.83 385.75 84.87 379.74 C 86.58 375.70 90.87 373.15 92.28 369.02 C 92.49 349.59 92.31 330.14 92.36 310.69 Z" />
<path fill="#9a3525" opacity="1.00" d=" M 197.59 342.00 C 198.68 342.78 199.18 344.07 199.75 345.25 C 205.94 358.51 212.49 371.60 218.56 384.92 C 204.19 386.11 189.84 387.55 175.46 388.54 C 182.64 372.94 190.37 357.59 197.59 342.00 Z" />
<path fill="#9a3525" opacity="1.00" d=" M 353.60 422.50 C 363.99 409.40 374.12 396.10 384.58 383.05 C 390.72 398.11 397.18 413.05 403.23 428.14 C 385.86 427.75 368.49 426.85 351.12 426.47 C 351.51 424.91 352.63 423.72 353.60 422.50 Z" />
</g>
<g id="#5d7b99ff">
<path fill="#5d7b99" opacity="1.00" d=" M 150.95 118.91 C 155.11 116.25 159.50 113.97 163.76 111.48 C 162.06 115.82 160.44 120.26 158.14 124.34 C 155.72 122.55 153.30 120.77 150.95 118.91 Z" />
</g>
</svg>
