<?xml version="1.0" encoding="UTF-8" ?>
<!DOCTYPE svg PUBLIC "-//W3C//DTD SVG 1.1//EN" "http://www.w3.org/Graphics/SVG/1.1/DTD/svg11.dtd">
<svg width="492pt" height="481pt" viewBox="0 0 492 481" version="1.1" xmlns="http://www.w3.org/2000/svg">
<g id="#393c36ff">
<path fill="#393c36" opacity="1.00" d=" M 22.94 0.00 L 27.36 0.00 C 32.82 1.07 37.87 3.56 42.69 6.28 C 48.41 9.54 53.92 13.54 57.59 19.11 C 52.48 19.99 47.62 22.16 43.70 25.57 C 39.13 20.68 34.24 15.41 27.56 13.61 C 22.83 12.55 16.60 13.43 14.22 18.22 C 11.59 23.78 12.81 30.12 13.11 36.01 C 8.28 32.17 6.12 25.98 5.77 19.99 C 5.35 14.97 5.97 9.36 9.65 5.58 C 13.03 1.86 18.18 0.76 22.94 0.00 Z" />
<path fill="#393c36" opacity="1.00" d=" M 94.43 0.00 L 98.68 0.00 C 103.50 0.71 108.32 2.65 111.50 6.49 C 114.96 10.41 116.39 15.62 117.04 20.70 C 112.62 16.33 108.12 11.43 101.94 9.69 C 99.42 8.92 96.47 9.83 95.15 12.18 C 92.80 16.22 92.71 21.06 92.36 25.60 C 88.57 24.52 84.76 23.54 80.98 22.46 C 81.41 16.20 82.26 9.46 86.39 4.44 C 88.36 1.96 91.36 0.57 94.43 0.00 Z" />
<path fill="#393c36" opacity="1.00" d=" M 398.85 0.00 L 403.24 0.00 C 412.92 1.38 416.11 12.25 416.54 20.61 C 412.76 21.65 408.98 22.70 405.21 23.79 C 404.76 19.73 404.60 15.34 402.25 11.83 C 400.71 9.43 397.49 8.95 394.97 9.90 C 389.17 11.86 384.87 16.48 380.65 20.69 C 381.23 15.31 382.90 9.79 386.76 5.83 C 389.86 2.38 394.38 0.74 398.85 0.00 Z" />
<path fill="#393c36" opacity="1.00" d=" M 464.59 3.50 C 470.68 0.90 477.79 1.72 483.73 4.34 C 488.59 6.51 491.42 11.55 492.00 16.69 L 492.00 21.44 C 491.51 27.56 489.54 33.93 484.58 37.91 C 484.78 31.89 486.15 25.34 483.22 19.73 C 480.84 15.48 475.30 14.60 470.89 15.33 C 464.68 16.59 459.94 21.19 455.67 25.57 C 452.11 21.77 447.51 18.98 442.47 17.66 C 448.63 11.32 456.45 6.81 464.59 3.50 Z" />
<path fill="#393c36" opacity="1.00" d=" M 144.67 19.64 C 151.49 12.30 164.72 10.50 172.21 17.73 C 178.46 24.58 178.19 34.65 177.31 43.30 C 175.44 37.32 173.12 30.95 167.90 27.08 C 163.57 23.78 156.50 23.40 152.70 27.71 C 149.30 31.59 148.98 37.02 148.77 41.92 C 144.50 40.87 140.28 39.65 136.04 38.49 C 137.45 31.69 139.74 24.74 144.67 19.64 Z" />
<path fill="#393c36" opacity="1.00" d=" M 329.12 14.20 C 336.52 11.81 345.24 13.69 350.73 19.29 C 355.59 24.08 357.99 30.72 359.46 37.25 C 355.35 38.43 351.21 39.50 347.06 40.54 C 346.57 35.95 346.13 30.81 342.71 27.34 C 338.65 23.27 331.63 23.93 327.41 27.42 C 322.46 31.35 320.26 37.54 318.42 43.37 C 317.85 36.84 317.46 30.01 319.84 23.77 C 321.42 19.48 324.66 15.61 329.12 14.20 Z" />
<path fill="#393c36" opacity="1.00" d=" M 42.04 51.00 C 49.10 45.80 56.56 41.16 63.84 36.28 C 65.36 47.16 66.28 58.11 67.64 69.00 C 58.70 63.63 50.48 57.11 42.04 51.00 Z" />
<path fill="#393c36" opacity="1.00" d=" M 435.53 38.22 C 441.83 42.78 447.76 47.85 453.85 52.68 C 450.22 56.15 446.05 58.99 442.08 62.06 C 438.10 65.01 434.46 68.41 430.17 70.92 C 431.71 59.99 433.75 49.12 435.53 38.22 Z" />
<path fill="#393c36" opacity="1.00" d=" M 89.11 42.03 C 97.07 43.36 104.93 45.35 112.75 47.37 C 106.65 55.26 100.76 63.33 94.36 70.99 C 92.49 61.36 90.48 51.74 89.11 42.03 Z" />
<path fill="#393c36" opacity="1.00" d=" M 385.14 47.24 C 392.35 45.43 399.50 43.24 406.86 42.06 C 405.88 52.37 404.28 62.61 403.42 72.93 C 399.86 68.95 397.08 64.38 393.94 60.08 C 391.08 55.74 387.68 51.78 385.14 47.24 Z" />
<path fill="#393c36" opacity="1.00" d=" M 318.04 48.34 C 323.59 46.80 329.04 44.91 334.65 43.59 C 333.17 48.94 330.01 53.56 327.49 58.45 C 325.92 61.46 324.28 64.44 322.40 67.27 C 320.60 61.04 320.05 54.52 318.04 48.34 Z" />
<path fill="#393c36" opacity="1.00" d=" M 162.77 45.27 C 172.48 46.15 182.16 47.42 191.72 49.33 C 187.49 53.98 186.31 60.42 183.87 66.04 C 183.15 66.06 181.71 66.09 181.00 66.10 C 175.19 58.92 168.13 52.81 162.77 45.27 Z" />
<path fill="#393c36" opacity="1.00" d=" M 126.41 51.16 C 134.94 52.79 143.42 54.75 151.92 56.54 C 151.29 59.91 149.25 62.71 147.64 65.65 C 144.22 71.72 141.61 78.26 137.63 84.01 C 133.48 73.21 130.29 62.06 126.41 51.16 Z" />
<path fill="#393c36" opacity="1.00" d=" M 199.26 51.07 C 207.05 53.54 215.05 56.02 221.63 61.06 C 216.43 63.62 211.52 66.75 206.61 69.81 C 201.97 68.26 197.15 67.29 192.28 66.80 C 193.70 61.20 196.42 56.07 199.26 51.07 Z" />
<path fill="#393c36" opacity="1.00" d=" M 278.68 70.76 C 285.81 61.68 296.81 57.01 307.03 52.32 C 308.54 59.36 309.32 66.54 309.57 73.73 C 308.68 74.11 307.80 74.47 306.91 74.83 C 300.64 76.06 293.74 77.35 289.12 82.16 C 285.46 85.94 286.08 92.09 288.83 96.20 C 292.61 102.06 299.20 105.05 305.38 107.71 C 301.52 108.81 297.41 109.43 293.48 108.36 C 284.73 106.28 277.98 98.65 276.01 90.00 C 274.58 83.61 274.32 76.14 278.68 70.76 Z" />
<path fill="#393c36" opacity="1.00" d=" M 345.25 60.33 C 352.06 58.12 358.67 55.36 365.49 53.19 C 363.45 63.41 362.18 73.77 359.83 83.92 C 354.70 76.24 349.89 68.32 345.25 60.33 Z" />
<path fill="#393c36" opacity="1.00" d=" M 11.01 64.09 C 17.10 59.80 24.97 60.06 32.04 60.84 C 32.07 65.38 32.02 69.92 32.04 74.46 C 27.61 73.41 22.52 72.91 18.53 75.54 C 15.33 77.70 14.56 82.08 15.44 85.62 C 16.94 91.25 20.83 95.76 24.46 100.15 C 15.57 99.38 7.42 93.06 4.62 84.57 C 2.40 77.35 4.56 68.46 11.01 64.09 Z" />
<path fill="#393c36" opacity="1.00" d=" M 465.61 60.59 C 472.13 60.10 479.30 60.16 484.84 64.15 C 489.22 67.11 491.50 72.28 492.00 77.41 L 492.00 80.98 C 490.54 91.13 481.45 99.30 471.31 100.14 C 474.95 95.74 478.85 91.21 480.34 85.56 C 481.17 82.09 480.45 77.84 477.40 75.66 C 474.00 73.23 469.57 73.51 465.63 73.88 C 465.67 69.45 465.61 65.02 465.61 60.59 Z" />
<path fill="#393c36" opacity="1.00" d=" M 215.03 75.50 C 219.19 73.19 223.50 71.17 227.75 69.01 C 228.83 75.96 227.91 83.20 224.65 89.48 C 224.25 90.11 223.85 90.74 223.46 91.37 C 218.00 99.09 207.44 103.90 198.31 100.01 C 204.36 97.40 210.79 94.38 214.48 88.63 C 217.07 84.77 217.58 79.50 215.03 75.50 Z" />
<path fill="#393c36" opacity="1.00" d=" M 258.55 110.55 C 261.61 108.12 264.51 105.40 268.05 103.67 C 263.55 112.75 257.77 121.16 252.73 129.96 C 249.37 127.76 246.27 125.22 243.30 122.52 C 248.31 118.44 253.54 114.63 258.55 110.55 Z" />
<path fill="#393c36" opacity="1.00" d=" M 261.97 128.99 C 264.49 125.51 266.01 121.17 269.57 118.56 C 269.53 130.51 269.61 142.47 269.53 154.42 C 266.73 152.90 265.37 149.91 263.53 147.48 C 261.34 144.25 258.61 141.38 256.79 137.90 C 257.68 134.55 260.24 131.94 261.97 128.99 Z" />
<path fill="#393c36" opacity="1.00" d=" M 13.21 129.19 C 17.49 123.21 25.60 122.45 32.37 122.56 C 32.45 125.74 32.51 128.93 32.60 132.12 C 28.56 132.81 24.25 133.38 20.87 135.92 C 19.29 137.02 18.43 139.09 19.04 140.97 C 20.50 145.95 24.73 149.34 28.19 152.95 C 24.78 152.40 21.27 151.70 18.36 149.72 C 11.79 145.58 9.18 135.89 13.21 129.19 Z" />
<path fill="#393c36" opacity="1.00" d=" M 465.11 122.52 C 470.78 122.65 477.07 123.44 481.28 127.64 C 485.75 132.24 485.08 139.83 482.02 145.02 C 479.02 150.07 473.14 152.29 467.58 152.97 C 471.31 148.92 476.68 145.03 476.87 139.04 C 475.36 133.96 469.04 133.36 464.65 132.28 C 464.82 129.03 464.98 125.77 465.11 122.52 Z" />
<path fill="#393c36" opacity="1.00" d=" M 241.27 136.04 C 248.57 143.57 254.98 151.91 262.42 159.30 C 263.19 171.64 262.60 184.00 261.93 196.32 C 265.15 193.90 268.27 191.36 271.42 188.84 C 271.18 181.95 270.11 175.12 268.76 168.36 C 273.05 164.16 276.58 159.28 280.78 154.99 C 281.51 158.50 282.64 162.02 282.45 165.64 C 280.97 171.64 274.73 176.03 275.46 182.63 C 277.42 208.08 279.30 233.55 281.25 259.00 C 281.74 264.87 281.83 270.78 282.90 276.59 C 283.51 274.62 284.10 272.65 284.55 270.65 C 287.52 256.02 290.48 241.39 293.68 226.81 C 294.95 234.83 294.78 242.97 295.12 251.06 C 296.07 271.03 296.76 291.00 297.59 310.98 C 297.72 314.31 298.05 317.67 299.07 320.87 C 302.44 331.38 305.35 342.05 309.31 352.37 C 303.03 370.68 296.61 388.95 290.34 407.27 C 284.00 387.72 276.92 368.42 269.57 349.23 C 266.17 367.75 260.57 385.78 254.60 403.61 C 253.40 407.32 252.21 411.05 250.58 414.61 C 246.56 405.11 244.21 395.04 241.69 385.08 C 241.82 384.60 242.08 383.65 242.21 383.17 C 249.42 382.27 256.88 378.39 258.99 370.93 C 260.67 363.91 260.44 355.94 256.72 349.58 C 255.92 355.39 255.68 361.91 251.47 366.49 C 249.03 369.42 245.01 369.73 241.52 370.39 C 241.46 373.00 241.06 375.60 240.21 378.08 C 235.32 350.62 232.31 322.86 230.57 295.03 C 230.39 290.60 230.07 286.17 229.50 281.77 C 230.81 277.94 231.32 273.92 231.61 269.90 C 233.45 253.60 235.21 237.29 237.07 221.00 C 238.06 212.92 237.78 204.75 238.64 196.67 C 239.79 203.64 240.96 210.94 244.99 216.93 C 243.61 198.70 242.58 180.27 245.16 162.08 C 243.43 162.49 241.70 162.90 240.00 163.38 C 240.37 154.27 240.86 145.15 241.27 136.04 M 250.70 162.11 C 252.43 175.34 252.27 188.72 251.88 202.04 C 251.59 206.88 250.72 211.70 250.87 216.57 C 255.89 209.12 256.63 199.80 257.69 191.12 C 258.34 182.10 258.81 173.04 258.29 164.00 C 255.78 163.29 253.24 162.68 250.70 162.11 M 258.16 214.18 C 256.63 216.94 254.39 219.69 254.67 223.04 C 254.97 232.71 255.82 242.36 256.29 252.03 C 256.82 261.91 258.38 271.78 257.87 281.69 C 257.53 281.24 256.84 280.35 256.50 279.90 C 256.15 285.92 255.04 292.94 249.62 296.55 C 246.07 299.07 241.61 298.47 237.53 298.54 C 237.56 302.78 237.45 307.02 237.71 311.25 C 243.19 310.97 248.98 310.66 253.81 307.76 C 256.87 306.03 258.62 302.78 259.77 299.58 C 260.00 303.39 260.65 307.16 260.83 310.97 C 261.12 313.74 260.75 316.80 262.46 319.19 C 265.51 285.19 266.99 251.08 268.78 217.00 C 268.93 211.58 269.47 206.17 269.10 200.76 C 264.33 204.16 261.24 209.32 258.16 214.18 M 256.62 313.77 C 256.05 319.44 255.19 325.68 250.87 329.85 C 247.91 333.00 243.45 333.62 239.42 334.35 C 239.47 338.51 239.47 342.68 239.41 346.85 C 247.23 347.38 256.74 344.36 259.21 336.09 C 260.70 328.67 260.01 320.60 256.62 313.77 Z" />
<path fill="#393c36" opacity="1.00" d=" M 88.29 197.86 C 81.73 184.20 86.30 167.72 96.06 156.85 C 98.95 160.72 101.36 164.93 104.28 168.79 C 106.89 172.46 110.18 175.56 112.87 179.16 C 107.05 184.32 100.51 188.58 94.54 193.56 C 92.61 195.20 90.52 196.65 88.29 197.86 Z" />
<path fill="#393c36" opacity="1.00" d=" M 382.54 210.27 C 389.29 197.95 393.41 184.34 399.82 171.83 C 405.20 175.46 410.19 179.65 414.92 184.10 C 406.67 200.03 400.08 216.81 395.08 234.03 C 392.20 243.98 388.86 253.83 384.27 263.15 C 378.10 276.11 370.59 288.45 361.94 299.91 C 352.15 289.22 341.93 278.71 329.92 270.50 C 336.47 264.15 343.54 258.37 350.36 252.31 C 352.71 250.11 355.92 248.30 356.75 244.95 C 362.48 222.02 367.26 198.83 373.37 176.00 C 376.56 187.39 379.21 198.92 382.54 210.27 Z" />
<path fill="#393c36" opacity="1.00" d=" M 94.29 209.21 C 102.65 202.68 110.25 195.21 118.81 188.95 C 122.37 206.77 124.73 224.83 126.01 242.96 C 126.85 259.93 129.84 276.78 134.76 293.04 C 135.37 294.88 135.58 296.81 135.61 298.75 C 130.57 292.34 125.15 286.20 120.48 279.52 C 118.53 265.19 113.20 251.61 107.66 238.34 C 103.69 228.40 98.82 218.88 94.29 209.21 Z" />
<path fill="#393c36" opacity="1.00" d=" M 310.94 223.99 C 311.51 223.13 312.18 222.35 312.95 221.64 C 321.43 225.81 329.82 230.17 338.34 234.27 C 332.02 235.95 325.44 236.24 319.02 237.34 C 317.80 237.55 317.13 238.75 316.23 239.48 C 314.57 234.28 312.16 229.32 310.94 223.99 Z" />
<path fill="#393c36" opacity="1.00" d=" M 151.13 236.46 C 157.13 234.58 163.16 232.74 169.17 230.88 C 171.65 234.06 174.29 237.11 176.59 240.42 C 177.84 241.83 176.53 243.58 176.10 245.04 C 172.12 253.99 168.52 263.12 164.31 271.95 C 161.84 273.95 159.18 275.70 156.64 277.60 C 153.86 279.66 151.08 281.73 148.23 283.69 C 147.23 284.38 146.24 285.07 145.27 285.81 C 145.08 281.14 146.34 276.62 146.94 272.03 C 148.71 260.22 150.00 248.34 151.13 236.46 Z" />
<path fill="#393c36" opacity="1.00" d=" M 201.47 234.92 C 203.12 235.49 202.88 237.55 203.38 238.92 C 204.44 244.65 206.32 250.22 207.03 256.01 C 205.60 259.10 202.59 261.05 200.11 263.25 C 200.07 253.79 201.10 244.36 201.47 234.92 Z" />
<path fill="#393c36" opacity="1.00" d=" M 321.28 250.23 C 325.63 248.31 330.22 246.80 334.92 245.95 C 331.48 250.34 327.86 254.58 324.40 258.96 C 322.68 256.50 320.55 253.13 321.28 250.23 Z" />
<path fill="#393c36" opacity="1.00" d=" M 205.72 281.91 C 206.88 280.06 208.04 278.22 209.22 276.39 C 212.85 290.23 215.29 304.36 218.69 318.27 C 216.81 343.18 215.21 368.12 212.87 392.99 C 206.18 367.36 200.20 341.55 193.86 315.83 C 197.98 303.57 200.09 290.75 203.29 278.23 C 204.10 279.45 204.91 280.68 205.72 281.91 Z" />
<path fill="#393c36" opacity="1.00" d=" M 123.56 309.18 C 121.39 303.02 122.80 296.03 125.97 290.47 C 126.10 294.46 126.56 298.69 129.10 301.96 C 133.15 307.64 140.25 309.73 146.80 310.89 C 145.34 314.42 143.66 317.85 142.06 321.32 C 135.06 319.08 126.77 316.49 123.56 309.18 Z" />
<path fill="#393c36" opacity="1.00" d=" M 345.48 312.75 C 357.37 311.19 369.77 305.63 375.31 294.37 C 376.79 299.69 378.17 306.42 373.90 310.85 C 367.44 317.46 358.41 320.61 349.78 323.28 C 348.32 319.78 346.93 316.25 345.48 312.75 Z" />
<path fill="#393c36" opacity="1.00" d=" M 384.78 305.93 C 386.99 312.79 388.51 320.05 387.25 327.26 C 384.98 325.67 382.73 324.06 380.48 322.45 C 383.95 317.70 385.06 311.71 384.78 305.93 Z" />
<path fill="#393c36" opacity="1.00" d=" M 114.62 305.87 C 115.10 309.33 115.41 312.86 116.57 316.19 C 119.57 325.17 126.76 332.42 135.27 336.35 C 137.17 337.02 139.14 337.53 141.08 338.08 C 141.43 342.89 138.71 347.17 135.87 350.80 C 133.87 350.08 131.88 349.33 130.04 348.26 C 121.81 343.62 114.55 336.15 112.59 326.65 C 110.99 319.68 112.61 312.56 114.62 305.87 Z" />
<path fill="#393c36" opacity="1.00" d=" M 366.90 334.10 C 370.87 332.29 374.42 329.58 377.35 326.36 C 379.76 328.86 382.50 331.00 385.45 332.83 C 384.78 333.94 384.08 335.03 383.34 336.10 C 380.76 339.43 377.46 342.17 373.75 344.17 C 369.28 346.47 364.38 347.81 359.42 348.60 C 357.88 344.30 356.46 339.97 354.78 335.72 C 358.83 335.37 363.03 335.48 366.90 334.10 Z" />
<path fill="#393c36" opacity="1.00" d=" M 179.11 418.91 C 181.71 420.93 184.35 422.93 186.73 425.23 C 190.45 429.22 194.08 433.31 197.70 437.41 C 195.62 440.37 193.94 443.65 193.32 447.24 C 191.50 457.05 191.76 467.61 196.24 476.70 C 196.94 478.17 197.74 479.59 198.58 481.00 L 190.49 481.00 C 187.92 479.19 185.46 477.23 182.91 475.42 C 181.12 471.08 179.45 466.64 178.88 461.96 C 177.15 447.67 177.60 433.20 179.11 418.91 Z" />
<path fill="#393c36" opacity="1.00" d=" M 296.04 435.60 C 302.67 430.25 309.12 424.70 315.71 419.31 C 316.03 432.89 316.28 446.48 315.74 460.06 C 315.55 463.31 315.54 466.81 313.72 469.66 C 311.01 473.99 307.35 477.64 303.54 481.00 L 295.75 481.00 C 300.84 477.82 302.62 471.65 303.55 466.07 C 305.49 455.26 299.43 445.44 296.04 435.60 Z" />
<path fill="#393c36" opacity="1.00" d=" M 150.84 420.73 C 153.66 422.34 156.46 423.99 159.22 425.69 C 161.44 427.05 163.58 428.54 165.69 430.06 C 162.06 438.56 161.81 447.97 162.29 457.06 C 163.31 465.65 167.29 473.54 171.46 481.00 L 165.36 481.00 C 154.80 474.06 152.18 460.50 150.86 448.82 C 150.74 439.46 150.80 430.09 150.84 420.73 Z" />
<path fill="#393c36" opacity="1.00" d=" M 328.18 430.05 C 333.60 427.23 339.10 424.56 344.55 421.80 C 344.84 432.32 344.86 442.85 344.94 453.37 C 344.53 461.00 342.78 468.89 338.21 475.15 C 336.22 477.98 333.23 479.89 330.00 481.00 L 322.82 481.00 C 325.42 477.24 327.50 473.09 328.71 468.67 C 332.07 456.18 333.73 442.17 328.18 430.05 Z" />
<path fill="#393c36" opacity="1.00" d=" M 124.42 426.51 C 129.13 430.49 133.99 434.35 139.36 437.41 C 139.12 444.26 139.47 451.12 139.22 457.98 C 138.89 465.79 139.78 473.84 143.07 481.00 L 140.53 481.00 C 137.14 479.56 133.69 477.80 131.57 474.66 C 124.55 459.72 124.11 442.72 124.42 426.51 Z" />
<path fill="#393c36" opacity="1.00" d=" M 358.15 433.58 C 362.59 431.26 366.91 428.73 371.34 426.39 C 371.46 433.91 370.83 441.44 369.66 448.87 C 368.44 458.01 366.90 467.44 361.98 475.43 C 360.61 477.50 358.93 479.37 357.05 481.00 L 348.97 481.00 C 351.90 478.03 353.51 474.07 354.33 470.03 C 356.19 457.95 356.86 445.73 358.15 433.58 Z" />
</g>
<g id="#583730ff">
<path fill="#583730" opacity="1.00" d=" M 416.54 20.61 C 424.95 18.39 433.72 15.81 442.47 17.66 C 447.51 18.98 452.11 21.77 455.67 25.57 C 463.80 35.19 466.01 48.35 465.61 60.59 C 465.61 65.02 465.67 69.45 465.63 73.88 C 465.54 90.09 465.79 106.31 465.11 122.52 C 464.98 125.77 464.82 129.03 464.65 132.28 C 462.81 168.10 456.13 203.56 456.16 239.49 C 443.83 220.07 432.03 199.82 414.92 184.10 C 410.19 179.65 405.20 175.46 399.82 171.83 C 393.41 184.34 389.29 197.95 382.54 210.27 C 379.21 198.92 376.56 187.39 373.37 176.00 C 367.26 198.83 362.48 222.02 356.75 244.95 C 355.92 248.30 352.71 250.11 350.36 252.31 C 343.54 258.37 336.47 264.15 329.92 270.50 C 329.59 270.64 328.95 270.93 328.63 271.07 C 333.96 285.07 339.77 298.90 345.48 312.75 C 346.93 316.25 348.32 319.78 349.78 323.28 C 351.48 327.41 353.10 331.58 354.78 335.72 C 356.46 339.97 357.88 344.30 359.42 348.60 C 361.22 353.57 362.75 358.62 364.42 363.63 C 371.06 361.97 377.55 359.30 382.73 354.74 C 379.77 351.19 376.72 347.71 373.75 344.17 C 377.46 342.17 380.76 339.43 383.34 336.10 C 387.51 339.74 391.66 343.41 395.86 347.03 C 393.71 318.89 391.24 290.57 384.27 263.15 C 388.86 253.83 392.20 243.98 395.08 234.03 C 402.09 238.61 411.02 238.19 418.88 236.47 C 426.87 234.56 434.37 230.95 441.17 226.38 C 447.62 234.75 454.07 244.91 452.00 255.98 C 448.80 276.99 443.25 297.62 441.29 318.82 C 439.35 340.89 435.71 362.77 431.69 384.54 C 430.37 361.38 429.19 338.21 427.90 315.04 C 422.03 325.16 417.05 335.81 410.36 345.43 C 400.31 360.31 385.43 371.42 369.03 378.47 C 373.43 392.70 377.62 407.00 382.77 420.97 C 385.11 428.04 388.34 434.75 391.76 441.34 C 388.89 439.52 386.23 437.36 383.95 434.84 C 381.09 429.62 378.05 424.44 376.38 418.68 C 370.20 398.80 363.73 379.02 357.70 359.10 C 356.84 355.83 355.67 352.67 354.32 349.58 C 350.30 362.88 347.29 376.47 343.01 389.69 C 336.57 359.98 330.69 330.15 324.25 300.44 C 323.74 301.89 323.25 303.35 322.83 304.84 C 319.31 317.04 315.90 329.28 312.24 341.45 C 311.29 345.09 310.38 348.75 309.31 352.37 C 305.35 342.05 302.44 331.38 299.07 320.87 C 298.05 317.67 297.72 314.31 297.59 310.98 C 296.76 291.00 296.07 271.03 295.12 251.06 C 294.78 242.97 294.95 234.83 293.68 226.81 C 290.48 241.39 287.52 256.02 284.55 270.65 C 284.10 272.65 283.51 274.62 282.90 276.59 C 281.83 270.78 281.74 264.87 281.25 259.00 C 279.30 233.55 277.42 208.08 275.46 182.63 C 274.73 176.03 280.97 171.64 282.45 165.64 C 282.64 162.02 281.51 158.50 280.78 154.99 C 276.58 159.28 273.05 164.16 268.76 168.36 C 267.17 161.22 265.38 154.04 262.20 147.42 C 261.92 151.38 262.17 155.35 262.42 159.30 C 254.98 151.91 248.57 143.57 241.27 136.04 C 240.86 145.15 240.37 154.27 240.00 163.38 C 239.10 163.65 238.21 163.93 237.32 164.22 C 236.84 175.05 237.52 185.89 238.64 196.67 C 237.78 204.75 238.06 212.92 237.07 221.00 C 235.21 237.29 233.45 253.60 231.61 269.90 C 231.32 273.92 230.81 277.94 229.50 281.77 C 227.07 268.21 225.14 254.56 222.54 241.03 C 220.89 266.75 220.06 292.53 218.69 318.27 C 215.29 304.36 212.85 290.23 209.22 276.39 C 208.04 278.22 206.88 280.06 205.72 281.91 C 204.91 280.68 204.10 279.45 203.29 278.23 C 200.09 290.75 197.98 303.57 193.86 315.83 C 190.16 301.83 186.72 287.76 182.82 273.82 C 174.55 308.74 166.71 343.76 158.35 378.66 C 156.96 366.97 155.92 355.23 154.57 343.54 C 141.86 371.89 129.61 400.44 116.62 428.66 C 112.78 436.79 105.37 442.65 97.31 446.27 C 90.32 449.48 82.76 451.18 75.17 452.21 C 73.22 452.26 71.28 452.23 69.34 452.21 C 80.68 443.49 90.47 432.61 97.10 419.89 C 98.24 415.48 97.12 410.84 97.04 406.35 C 96.21 393.82 94.88 381.31 92.56 368.97 C 88.93 350.00 87.67 330.59 88.62 311.31 C 82.38 303.71 76.06 296.17 69.75 288.63 C 66.77 308.21 63.12 327.69 58.78 347.02 C 55.13 362.94 50.98 378.79 45.27 394.12 C 44.99 368.07 43.60 342.05 42.21 316.05 C 38.93 254.74 34.67 193.48 32.60 132.12 C 32.51 128.93 32.45 125.74 32.37 122.56 C 31.93 106.53 32.08 90.49 32.04 74.46 C 32.02 69.92 32.07 65.38 32.04 60.84 C 31.74 48.30 34.64 34.78 43.70 25.57 C 47.62 22.16 52.48 19.99 57.59 19.11 C 65.55 18.19 73.37 20.46 80.98 22.46 C 84.76 23.54 88.57 24.52 92.36 25.60 C 106.91 29.93 121.41 34.41 136.04 38.49 C 140.28 39.65 144.50 40.87 148.77 41.92 C 153.44 43.00 158.04 44.44 162.77 45.27 C 168.13 52.81 175.19 58.92 181.00 66.10 C 181.36 67.04 182.00 67.69 182.90 68.06 C 183.14 67.56 183.63 66.55 183.87 66.04 C 186.31 60.42 187.49 53.98 191.72 49.33 C 194.25 49.84 196.79 50.33 199.26 51.07 C 196.42 56.07 193.70 61.20 192.28 66.80 C 190.99 71.47 190.49 76.30 190.34 81.13 C 195.72 77.29 201.15 73.53 206.61 69.81 C 211.52 66.75 216.43 63.62 221.63 61.06 C 222.27 60.85 223.56 60.44 224.21 60.24 C 226.14 62.78 228.06 65.32 229.96 67.88 C 229.40 68.16 228.30 68.73 227.75 69.01 C 223.50 71.17 219.19 73.19 215.03 75.50 C 207.36 79.77 199.65 84.20 193.22 90.24 C 190.87 92.59 188.22 95.41 188.55 99.01 C 189.11 110.55 191.37 122.02 195.09 132.96 C 197.79 140.68 201.54 148.30 207.76 153.80 C 210.57 143.32 212.91 132.71 214.88 122.05 C 216.81 111.62 217.90 100.66 223.46 91.37 C 223.85 90.74 224.25 90.11 224.65 89.48 C 229.55 81.86 237.82 75.92 247.06 75.49 C 254.61 75.90 261.81 79.55 267.06 84.93 C 273.87 91.91 277.38 101.45 278.93 110.94 C 281.99 130.20 286.80 149.15 292.24 167.87 C 297.20 157.87 302.03 147.70 304.66 136.80 C 309.68 116.42 309.06 95.28 309.59 74.46 C 308.92 74.55 307.58 74.74 306.91 74.83 C 307.80 74.47 308.68 74.11 309.57 73.73 C 309.32 66.54 308.54 59.36 307.03 52.32 C 310.18 49.73 313.98 48.46 318.04 48.34 C 320.05 54.52 320.60 61.04 322.40 67.27 C 324.28 64.44 325.92 61.46 327.49 58.45 C 330.01 53.56 333.17 48.94 334.65 43.59 C 338.78 42.55 342.93 41.59 347.06 40.54 C 351.21 39.50 355.35 38.43 359.46 37.25 C 374.79 33.02 389.96 28.27 405.21 23.79 C 408.98 22.70 412.76 21.65 416.54 20.61 M 42.04 51.00 C 50.48 57.11 58.70 63.63 67.64 69.00 C 66.28 58.11 65.36 47.16 63.84 36.28 C 56.56 41.16 49.10 45.80 42.04 51.00 M 435.53 38.22 C 433.75 49.12 431.71 59.99 430.17 70.92 C 434.46 68.41 438.10 65.01 442.08 62.06 C 446.05 58.99 450.22 56.15 453.85 52.68 C 447.76 47.85 441.83 42.78 435.53 38.22 M 89.11 42.03 C 90.48 51.74 92.49 61.36 94.36 70.99 C 100.76 63.33 106.65 55.26 112.75 47.37 C 104.93 45.35 97.07 43.36 89.11 42.03 M 385.14 47.24 C 387.68 51.78 391.08 55.74 393.94 60.08 C 397.08 64.38 399.86 68.95 403.42 72.93 C 404.28 62.61 405.88 52.37 406.86 42.06 C 399.50 43.24 392.35 45.43 385.14 47.24 M 126.41 51.16 C 130.29 62.06 133.48 73.21 137.63 84.01 C 141.61 78.26 144.22 71.72 147.64 65.65 C 149.25 62.71 151.29 59.91 151.92 56.54 C 143.42 54.75 134.94 52.79 126.41 51.16 M 345.25 60.33 C 349.89 68.32 354.70 76.24 359.83 83.92 C 362.18 73.77 363.45 63.41 365.49 53.19 C 358.67 55.36 352.06 58.12 345.25 60.33 M 156.48 133.87 C 162.78 129.55 169.01 125.14 175.27 120.76 C 169.81 113.00 166.35 104.02 164.09 94.85 C 159.85 107.42 157.86 120.70 156.48 133.87 M 258.55 110.55 C 253.54 114.63 248.31 118.44 243.30 122.52 C 246.27 125.22 249.37 127.76 252.73 129.96 C 257.77 121.16 263.55 112.75 268.05 103.67 C 264.51 105.40 261.61 108.12 258.55 110.55 M 269.60 113.07 C 269.59 114.90 269.57 116.73 269.57 118.56 C 266.01 121.17 264.49 125.51 261.97 128.99 C 260.24 131.94 257.68 134.55 256.79 137.90 C 258.61 141.38 261.34 144.25 263.53 147.48 C 265.37 149.91 266.73 152.90 269.53 154.42 C 276.97 149.34 279.11 139.52 278.96 131.03 C 278.95 124.07 276.66 115.92 269.60 113.07 M 217.13 126.85 C 215.87 136.70 217.87 148.17 226.10 154.62 C 226.32 140.82 226.19 127.03 226.17 113.23 C 220.43 115.07 217.80 121.31 217.13 126.85 M 156.45 145.48 C 156.11 153.30 155.23 161.25 157.03 168.96 C 158.70 177.11 162.75 184.63 168.11 190.94 C 174.57 198.47 182.26 204.79 189.28 211.77 C 194.58 197.41 199.52 182.92 203.83 168.23 C 193.24 157.29 184.62 144.37 179.07 130.16 C 171.54 135.28 163.81 140.11 156.45 145.48 M 322.35 149.00 C 326.11 150.90 329.89 152.75 333.65 154.66 C 332.40 147.13 331.16 139.60 329.88 132.08 C 327.35 137.71 324.85 143.36 322.35 149.00 M 233.43 145.78 C 227.37 159.15 226.27 174.20 226.05 188.70 C 228.61 191.24 231.08 193.89 233.88 196.19 C 232.34 182.83 232.85 169.35 233.10 155.93 C 233.08 152.55 234.25 149.12 233.43 145.78 M 88.29 197.86 C 90.52 196.65 92.61 195.20 94.54 193.56 C 100.51 188.58 107.05 184.32 112.87 179.16 C 110.18 175.56 106.89 172.46 104.28 168.79 C 101.36 164.93 98.95 160.72 96.06 156.85 C 86.30 167.72 81.73 184.20 88.29 197.86 M 426.04 175.46 C 432.95 182.96 439.85 190.49 446.71 198.05 C 448.07 184.86 449.25 171.66 450.52 158.46 C 442.36 164.13 434.17 169.75 426.04 175.46 M 315.06 162.20 C 309.39 171.27 304.46 180.88 299.11 190.17 C 301.01 196.34 303.19 202.43 305.23 208.57 C 305.88 206.98 306.53 205.40 307.16 203.81 C 311.24 202.73 315.38 201.82 319.34 200.31 C 326.36 197.81 332.47 193.39 339.31 190.47 C 338.26 182.27 337.90 173.60 333.72 166.24 C 328.32 162.76 321.45 161.14 315.06 162.20 M 94.29 209.21 C 98.82 218.88 103.69 228.40 107.66 238.34 C 113.20 251.61 118.53 265.19 120.48 279.52 C 120.56 289.51 120.98 300.03 117.00 309.40 C 115.49 301.58 113.87 293.55 109.49 286.76 C 107.13 299.70 107.43 313.00 108.32 326.08 C 110.31 345.70 113.21 365.23 114.42 384.93 C 119.42 372.62 124.71 360.42 130.04 348.26 C 131.88 349.33 133.87 350.08 135.87 350.80 C 138.71 347.17 141.43 342.89 141.08 338.08 C 139.14 337.53 137.17 337.02 135.27 336.35 C 137.55 331.35 139.86 326.36 142.06 321.32 C 143.66 317.85 145.34 314.42 146.80 310.89 C 149.15 305.91 151.34 300.86 153.67 295.88 C 152.00 291.75 150.05 287.75 148.23 283.69 C 151.08 281.73 153.86 279.66 156.64 277.60 C 157.55 279.48 158.50 281.35 159.46 283.21 C 161.00 279.42 162.74 275.73 164.31 271.95 C 168.52 263.12 172.12 253.99 176.10 245.04 C 176.53 243.58 177.84 241.83 176.59 240.42 C 174.29 237.11 171.65 234.06 169.17 230.88 C 164.33 225.66 159.92 218.79 152.66 216.91 C 152.26 223.43 151.73 229.95 151.13 236.46 C 150.00 248.34 148.71 260.22 146.94 272.03 C 146.34 276.62 145.08 281.14 145.27 285.81 C 144.36 286.56 144.44 287.93 144.09 288.98 C 142.89 295.21 141.44 301.39 139.48 307.43 C 138.33 304.49 137.62 301.26 135.61 298.75 C 135.58 296.81 135.37 294.88 134.76 293.04 C 129.84 276.78 126.85 259.93 126.01 242.96 C 124.73 224.83 122.37 206.77 118.81 188.95 C 110.25 195.21 102.65 202.68 94.29 209.21 M 156.45 198.08 C 155.84 200.56 155.21 203.04 154.56 205.51 C 163.75 213.66 173.13 221.61 182.38 229.71 C 182.90 228.31 183.42 226.91 183.94 225.51 C 174.72 216.43 165.67 207.16 156.45 198.08 M 312.95 221.64 C 312.18 222.35 311.51 223.13 310.94 223.99 C 312.16 229.32 314.57 234.28 316.23 239.48 C 317.13 238.75 317.80 237.55 319.02 237.34 C 325.44 236.24 332.02 235.95 338.34 234.27 C 339.91 234.60 341.51 234.06 343.09 233.94 C 344.18 221.86 342.06 209.81 339.31 198.08 C 331.16 206.61 322.22 214.37 312.95 221.64 M 201.47 234.92 C 201.10 244.36 200.07 253.79 200.11 263.25 C 202.59 261.05 205.60 259.10 207.03 256.01 C 206.32 250.22 204.44 244.65 203.38 238.92 C 202.88 237.55 203.12 235.49 201.47 234.92 M 75.41 239.59 C 74.10 250.86 72.94 262.15 71.61 273.42 C 75.96 277.90 80.41 282.28 84.83 286.69 C 83.35 270.73 80.68 254.77 75.41 239.59 M 321.28 250.23 C 320.55 253.13 322.68 256.50 324.40 258.96 C 327.86 254.58 331.48 250.34 334.92 245.95 C 330.22 246.80 325.63 248.31 321.28 250.23 M 417.69 263.76 C 414.81 271.03 413.42 278.78 412.20 286.47 C 410.57 297.78 409.54 309.17 409.09 320.58 C 413.78 310.08 418.39 299.56 423.12 289.08 C 423.69 287.80 424.25 286.47 424.04 285.04 C 423.43 275.64 422.89 266.23 422.24 256.83 C 419.89 258.46 418.79 261.23 417.69 263.76 Z" />
<path fill="#583730" opacity="1.00" d=" M 258.16 214.18 C 261.24 209.32 264.33 204.16 269.10 200.76 C 269.47 206.17 268.93 211.58 268.78 217.00 C 266.99 251.08 265.51 285.19 262.46 319.19 C 260.75 316.80 261.12 313.74 260.83 310.97 C 260.65 307.16 260.00 303.39 259.77 299.58 C 260.27 293.55 259.85 287.44 257.87 281.69 C 258.38 271.78 256.82 261.91 256.29 252.03 C 255.82 242.36 254.97 232.71 254.67 223.04 C 254.39 219.69 256.63 216.94 258.16 214.18 Z" />
<path fill="#583730" opacity="1.00" d=" M 377.35 326.36 C 378.43 325.08 379.49 323.79 380.48 322.45 C 382.73 324.06 384.98 325.67 387.25 327.26 C 386.89 329.18 386.28 331.06 385.45 332.83 C 382.50 331.00 379.76 328.86 377.35 326.36 Z" />
</g>
<g id="#3b2d287a">
<path fill="#3b2d28" opacity="0.48" d=" M 181.00 66.10 C 181.71 66.09 183.15 66.06 183.87 66.04 C 183.63 66.55 183.14 67.56 182.90 68.06 C 182.00 67.69 181.36 67.04 181.00 66.10 Z" />
</g>
<g id="#bd3c26ff">
<path fill="#bd3c26" opacity="1.00" d=" M 269.60 113.07 C 276.66 115.92 278.95 124.07 278.96 131.03 C 279.11 139.52 276.97 149.34 269.53 154.42 C 269.61 142.47 269.53 130.51 269.57 118.56 C 269.57 116.73 269.59 114.90 269.60 113.07 Z" />
<path fill="#bd3c26" opacity="1.00" d=" M 217.13 126.85 C 217.80 121.31 220.43 115.07 226.17 113.23 C 226.19 127.03 226.32 140.82 226.10 154.62 C 217.87 148.17 215.87 136.70 217.13 126.85 Z" />
</g>
<g id="#85807aff">
<path fill="#85807a" opacity="1.00" d=" M 233.43 145.78 C 234.25 149.12 233.08 152.55 233.10 155.93 C 232.85 169.35 232.34 182.83 233.88 196.19 C 231.08 193.89 228.61 191.24 226.05 188.70 C 226.27 174.20 227.37 159.15 233.43 145.78 Z" />
<path fill="#85807a" opacity="1.00" d=" M 262.42 159.30 C 262.17 155.35 261.92 151.38 262.20 147.42 C 265.38 154.04 267.17 161.22 268.76 168.36 C 270.11 175.12 271.18 181.95 271.42 188.84 C 268.27 191.36 265.15 193.90 261.93 196.32 C 262.60 184.00 263.19 171.64 262.42 159.30 Z" />
<path fill="#85807a" opacity="1.00" d=" M 237.32 164.22 C 238.21 163.93 239.10 163.65 240.00 163.38 C 241.70 162.90 243.43 162.49 245.16 162.08 C 242.58 180.27 243.61 198.70 244.99 216.93 C 240.96 210.94 239.79 203.64 238.64 196.67 C 237.52 185.89 236.84 175.05 237.32 164.22 Z" />
<path fill="#85807a" opacity="1.00" d=" M 250.70 162.11 C 253.24 162.68 255.78 163.29 258.29 164.00 C 258.81 173.04 258.34 182.10 257.69 191.12 C 256.63 199.80 255.89 209.12 250.87 216.57 C 250.72 211.70 251.59 206.88 251.88 202.04 C 252.27 188.72 252.43 175.34 250.70 162.11 Z" />
<path fill="#85807a" opacity="1.00" d=" M 218.69 318.27 C 220.06 292.53 220.89 266.75 222.54 241.03 C 225.14 254.56 227.07 268.21 229.50 281.77 C 230.07 286.17 230.39 290.60 230.57 295.03 C 232.31 322.86 235.32 350.62 240.21 378.08 C 240.47 380.45 241.08 382.77 241.69 385.08 C 244.21 395.04 246.56 405.11 250.58 414.61 C 252.21 411.05 253.40 407.32 254.60 403.61 C 260.57 385.78 266.17 367.75 269.57 349.23 C 276.92 368.42 284.00 387.72 290.34 407.27 C 296.61 388.95 303.03 370.68 309.31 352.37 C 310.38 348.75 311.29 345.09 312.24 341.45 C 312.58 341.51 313.25 341.64 313.59 341.70 C 314.25 367.57 315.53 393.43 315.71 419.31 C 309.12 424.70 302.67 430.25 296.04 435.60 C 299.43 445.44 305.49 455.26 303.55 466.07 C 302.62 471.65 300.84 477.82 295.75 481.00 L 279.16 481.00 C 278.75 473.62 275.59 465.98 268.99 462.11 C 262.48 457.88 254.47 458.37 247.07 458.27 C 242.82 458.12 237.81 457.68 235.13 453.88 C 230.10 446.57 228.11 437.67 226.96 429.00 C 224.35 409.04 223.44 388.91 222.46 368.82 C 219.70 383.10 218.61 397.66 216.80 412.09 C 215.07 425.04 215.50 438.44 210.93 450.87 C 207.52 460.20 202.59 469.05 196.24 476.70 C 191.76 467.61 191.50 457.05 193.32 447.24 C 193.94 443.65 195.62 440.37 197.70 437.41 C 194.08 433.31 190.45 429.22 186.73 425.23 C 184.65 395.49 183.60 365.69 181.93 335.93 C 181.61 330.20 181.56 324.44 180.69 318.75 C 173.28 354.34 167.05 390.18 159.22 425.69 C 156.46 423.99 153.66 422.34 150.84 420.73 C 150.80 430.09 150.74 439.46 150.86 448.82 C 146.86 453.02 143.49 457.75 140.02 462.39 C 139.21 454.08 140.37 445.70 139.36 437.41 C 133.99 434.35 129.13 430.49 124.42 426.51 C 124.11 442.72 124.55 459.72 131.57 474.66 C 127.52 475.43 123.38 475.60 119.28 475.14 C 116.88 464.66 105.81 459.50 95.99 458.59 C 88.27 458.04 79.34 458.82 73.67 464.72 C 70.35 467.97 71.14 474.76 75.97 476.09 C 82.70 478.03 91.35 478.16 96.19 472.23 C 90.87 473.30 84.67 474.45 80.01 470.87 C 77.92 469.06 80.07 465.77 82.31 465.21 C 90.50 462.52 101.25 464.02 106.23 471.76 C 108.25 474.54 106.90 477.97 106.34 481.00 L 10.71 481.00 C 4.32 480.31 0.39 474.23 0.00 468.22 L 0.00 463.30 C 0.61 452.97 7.31 443.04 17.53 440.22 C 23.67 439.22 30.07 439.21 36.11 440.77 C 39.96 441.74 43.45 444.55 44.47 448.50 C 46.09 454.31 45.48 461.49 40.58 465.59 C 36.03 469.26 29.61 470.49 23.97 469.11 C 19.11 468.22 16.93 460.94 20.72 457.75 C 25.50 455.18 30.99 457.15 35.98 457.90 C 34.41 455.33 32.77 452.38 29.70 451.39 C 24.15 449.70 16.88 451.85 14.67 457.63 C 13.01 462.26 12.34 467.82 14.74 472.31 C 17.25 476.45 22.60 477.01 26.99 477.20 C 34.80 477.54 43.66 476.32 49.11 470.12 C 53.46 465.45 54.23 458.89 54.90 452.84 C 61.65 452.29 68.47 453.53 75.17 452.21 C 82.76 451.18 90.32 449.48 97.31 446.27 C 105.37 442.65 112.78 436.79 116.62 428.66 C 129.61 400.44 141.86 371.89 154.57 343.54 C 155.92 355.23 156.96 366.97 158.35 378.66 C 166.71 343.76 174.55 308.74 182.82 273.82 C 186.72 287.76 190.16 301.83 193.86 315.83 C 200.20 341.55 206.18 367.36 212.87 392.99 C 215.21 368.12 216.81 343.18 218.69 318.27 Z" />
<path fill="#85807a" opacity="1.00" d=" M 322.83 304.84 C 323.25 303.35 323.74 301.89 324.25 300.44 C 330.69 330.15 336.57 359.98 343.01 389.69 C 344.28 400.34 344.32 411.09 344.55 421.80 C 339.10 424.56 333.60 427.23 328.18 430.05 C 333.73 442.17 332.07 456.18 328.71 468.67 C 326.75 444.65 326.08 420.55 325.30 396.47 C 324.20 370.31 323.74 344.13 322.85 317.96 C 322.72 313.59 322.46 309.20 322.83 304.84 Z" />
<path fill="#85807a" opacity="1.00" d=" M 356.97 371.97 C 356.87 367.68 356.09 363.22 357.70 359.10 C 363.73 379.02 370.20 398.80 376.38 418.68 C 378.05 424.44 381.09 429.62 383.95 434.84 C 385.20 439.34 387.31 443.92 391.40 446.52 C 395.06 449.08 399.70 448.95 403.98 448.93 C 412.22 448.78 420.64 448.91 428.63 446.54 C 435.13 444.69 439.77 439.13 446.33 437.38 C 455.94 434.68 466.56 435.16 475.69 439.33 C 480.45 441.49 485.08 444.52 487.93 449.01 C 490.78 453.48 490.56 459.20 489.11 464.11 C 487.94 468.29 484.10 471.11 480.02 472.05 C 473.16 473.72 466.01 473.54 459.01 473.23 C 455.22 472.83 450.90 472.76 447.88 470.12 C 444.89 465.72 448.10 459.63 452.58 457.68 C 457.56 455.52 465.28 455.84 467.59 461.65 C 464.08 461.14 460.40 459.56 456.89 460.79 C 454.83 461.39 453.38 464.09 455.12 465.81 C 458.46 469.54 463.97 469.90 468.64 469.56 C 472.12 469.19 476.31 468.43 478.12 465.03 C 479.81 461.17 477.84 456.72 475.04 453.93 C 469.32 448.26 460.00 447.67 452.89 450.87 C 444.22 454.74 439.92 464.35 431.27 468.24 C 424.80 470.74 417.72 469.30 411.05 468.66 C 398.83 466.85 386.28 464.68 375.32 458.67 C 371.67 456.83 368.50 453.25 369.66 448.87 C 370.83 441.44 371.46 433.91 371.34 426.39 C 366.91 428.73 362.59 431.26 358.15 433.58 C 358.17 413.04 357.64 392.50 356.97 371.97 Z" />
<path fill="#85807a" opacity="1.00" d=" M 431.40 416.62 C 433.70 412.35 437.94 409.57 442.71 408.85 C 447.33 409.77 452.55 410.39 455.97 414.00 C 457.86 415.83 458.79 418.94 457.32 421.31 C 455.60 424.09 452.29 425.05 449.44 426.23 C 449.96 423.09 451.70 418.88 448.43 416.64 C 445.27 414.35 438.89 413.90 437.38 418.28 C 436.75 421.68 441.14 421.03 443.24 421.61 C 442.05 424.96 438.69 427.28 435.10 426.02 C 431.00 424.92 431.97 419.82 431.40 416.62 Z" />
<path fill="#85807a" opacity="1.00" d=" M 344.94 453.37 C 348.61 458.60 351.34 464.40 354.33 470.03 C 353.51 474.07 351.90 478.03 348.97 481.00 L 330.00 481.00 C 333.23 479.89 336.22 477.98 338.21 475.15 C 342.78 468.89 344.53 461.00 344.94 453.37 Z" />
<path fill="#85807a" opacity="1.00" d=" M 177.20 481.00 C 179.16 479.20 181.02 477.29 182.91 475.42 C 185.46 477.23 187.92 479.19 190.49 481.00 L 177.20 481.00 Z" />
<path fill="#85807a" opacity="1.00" d=" M 357.05 481.00 C 358.93 479.37 360.61 477.50 361.98 475.43 C 364.50 477.25 366.99 479.11 369.45 481.00 L 357.05 481.00 Z" />
</g>
<g id="#665f5cff">
<path fill="#665f5c" opacity="1.00" d=" M 256.50 279.90 C 256.84 280.35 257.53 281.24 257.87 281.69 C 259.85 287.44 260.27 293.55 259.77 299.58 C 258.62 302.78 256.87 306.03 253.81 307.76 C 248.98 310.66 243.19 310.97 237.71 311.25 C 237.45 307.02 237.56 302.78 237.53 298.54 C 241.61 298.47 246.07 299.07 249.62 296.55 C 255.04 292.94 256.15 285.92 256.50 279.90 Z" />
<path fill="#665f5c" opacity="1.00" d=" M 312.24 341.45 C 315.90 329.28 319.31 317.04 322.83 304.84 C 322.46 309.20 322.72 313.59 322.85 317.96 C 323.74 344.13 324.20 370.31 325.30 396.47 C 326.08 420.55 326.75 444.65 328.71 468.67 C 327.50 473.09 325.42 477.24 322.82 481.00 L 303.54 481.00 C 307.35 477.64 311.01 473.99 313.72 469.66 C 315.54 466.81 315.55 463.31 315.74 460.06 C 316.28 446.48 316.03 432.89 315.71 419.31 C 315.53 393.43 314.25 367.57 313.59 341.70 C 313.25 341.64 312.58 341.51 312.24 341.45 Z" />
<path fill="#665f5c" opacity="1.00" d=" M 256.62 313.77 C 260.01 320.60 260.70 328.67 259.21 336.09 C 256.74 344.36 247.23 347.38 239.41 346.85 C 239.47 342.68 239.47 338.51 239.42 334.35 C 243.45 333.62 247.91 333.00 250.87 329.85 C 255.19 325.68 256.05 319.44 256.62 313.77 Z" />
<path fill="#665f5c" opacity="1.00" d=" M 180.69 318.75 C 181.56 324.44 181.61 330.20 181.93 335.93 C 183.60 365.69 184.65 395.49 186.73 425.23 C 184.35 422.93 181.71 420.93 179.11 418.91 C 177.60 433.20 177.15 447.67 178.88 461.96 C 179.45 466.64 181.12 471.08 182.91 475.42 C 181.02 477.29 179.16 479.20 177.20 481.00 L 171.46 481.00 C 167.29 473.54 163.31 465.65 162.29 457.06 C 161.81 447.97 162.06 438.56 165.69 430.06 C 163.58 428.54 161.44 427.05 159.22 425.69 C 167.05 390.18 173.28 354.34 180.69 318.75 Z" />
<path fill="#665f5c" opacity="1.00" d=" M 256.72 349.58 C 260.44 355.94 260.67 363.91 258.99 370.93 C 256.88 378.39 249.42 382.27 242.21 383.17 C 242.08 383.65 241.82 384.60 241.69 385.08 C 241.08 382.77 240.47 380.45 240.21 378.08 C 241.06 375.60 241.46 373.00 241.52 370.39 C 245.01 369.73 249.03 369.42 251.47 366.49 C 255.68 361.91 255.92 355.39 256.72 349.58 Z" />
<path fill="#665f5c" opacity="1.00" d=" M 354.32 349.58 C 355.67 352.67 356.84 355.83 357.70 359.10 C 356.09 363.22 356.87 367.68 356.97 371.97 C 357.64 392.50 358.17 413.04 358.15 433.58 C 356.86 445.73 356.19 457.95 354.33 470.03 C 351.34 464.40 348.61 458.60 344.94 453.37 C 344.86 442.85 344.84 432.32 344.55 421.80 C 344.32 411.09 344.28 400.34 343.01 389.69 C 347.29 376.47 350.30 362.88 354.32 349.58 Z" />
<path fill="#665f5c" opacity="1.00" d=" M 222.46 368.82 C 223.44 388.91 224.35 409.04 226.96 429.00 C 228.11 437.67 230.10 446.57 235.13 453.88 C 237.81 457.68 242.82 458.12 247.07 458.27 C 254.47 458.37 262.48 457.88 268.99 462.11 C 275.59 465.98 278.75 473.62 279.16 481.00 L 198.58 481.00 C 197.74 479.59 196.94 478.17 196.24 476.70 C 202.59 469.05 207.52 460.20 210.93 450.87 C 215.50 438.44 215.07 425.04 216.80 412.09 C 218.61 397.66 219.70 383.10 222.46 368.82 Z" />
<path fill="#665f5c" opacity="1.00" d=" M 69.42 407.52 C 78.19 404.06 87.89 405.95 97.04 406.35 C 97.12 410.84 98.24 415.48 97.10 419.89 C 90.47 432.61 80.68 443.49 69.34 452.21 C 71.28 452.23 73.22 452.26 75.17 452.21 C 68.47 453.53 61.65 452.29 54.90 452.84 C 54.23 458.89 53.46 465.45 49.11 470.12 C 43.66 476.32 34.80 477.54 26.99 477.20 C 22.60 477.01 17.25 476.45 14.74 472.31 C 12.34 467.82 13.01 462.26 14.67 457.63 C 16.88 451.85 24.15 449.70 29.70 451.39 C 32.77 452.38 34.41 455.33 35.98 457.90 C 30.99 457.15 25.50 455.18 20.72 457.75 C 16.93 460.94 19.11 468.22 23.97 469.11 C 29.61 470.49 36.03 469.26 40.58 465.59 C 45.48 461.49 46.09 454.31 44.47 448.50 C 43.45 444.55 39.96 441.74 36.11 440.77 C 30.07 439.21 23.67 439.22 17.53 440.22 C 21.04 434.30 26.11 429.07 32.60 426.52 C 39.52 423.52 47.21 424.58 54.52 424.42 C 57.35 417.32 62.20 410.59 69.42 407.52 Z" />
<path fill="#665f5c" opacity="1.00" d=" M 442.71 408.85 C 447.81 407.59 453.36 406.62 458.42 408.55 C 464.27 410.83 468.94 415.96 470.84 421.92 C 472.16 426.18 470.07 430.45 467.67 433.87 C 473.47 435.34 479.44 437.16 484.06 441.15 C 488.83 445.07 491.18 451.09 492.00 457.07 L 492.00 462.77 C 491.36 467.63 489.74 472.66 485.94 475.99 C 482.88 478.86 478.77 480.18 474.75 481.00 L 369.45 481.00 C 366.99 479.11 364.50 477.25 361.98 475.43 C 366.90 467.44 368.44 458.01 369.66 448.87 C 368.50 453.25 371.67 456.83 375.32 458.67 C 386.28 464.68 398.83 466.85 411.05 468.66 C 417.72 469.30 424.80 470.74 431.27 468.24 C 439.92 464.35 444.22 454.74 452.89 450.87 C 460.00 447.67 469.32 448.26 475.04 453.93 C 477.84 456.72 479.81 461.17 478.12 465.03 C 476.31 468.43 472.12 469.19 468.64 469.56 C 463.97 469.90 458.46 469.54 455.12 465.81 C 453.38 464.09 454.83 461.39 456.89 460.79 C 460.40 459.56 464.08 461.14 467.59 461.65 C 465.28 455.84 457.56 455.52 452.58 457.68 C 448.10 459.63 444.89 465.72 447.88 470.12 C 450.90 472.76 455.22 472.83 459.01 473.23 C 466.01 473.54 473.16 473.72 480.02 472.05 C 484.10 471.11 487.94 468.29 489.11 464.11 C 490.56 459.20 490.78 453.48 487.93 449.01 C 485.08 444.52 480.45 441.49 475.69 439.33 C 466.56 435.16 455.94 434.68 446.33 437.38 C 439.77 439.13 435.13 444.69 428.63 446.54 C 420.64 448.91 412.22 448.78 403.98 448.93 C 399.70 448.95 395.06 449.08 391.40 446.52 C 387.31 443.92 385.20 439.34 383.95 434.84 C 386.23 437.36 388.89 439.52 391.76 441.34 C 388.34 434.75 385.11 428.04 382.77 420.97 C 389.90 422.95 397.47 421.64 404.57 423.62 C 410.78 425.42 413.77 431.62 418.63 435.27 C 423.55 436.58 428.46 433.82 433.05 432.29 C 429.05 428.24 428.93 421.50 431.40 416.62 C 431.97 419.82 431.00 424.92 435.10 426.02 C 438.69 427.28 442.05 424.96 443.24 421.61 C 441.14 421.03 436.75 421.68 437.38 418.28 C 438.89 413.90 445.27 414.35 448.43 416.64 C 451.70 418.88 449.96 423.09 449.44 426.23 C 452.29 425.05 455.60 424.09 457.32 421.31 C 458.79 418.94 457.86 415.83 455.97 414.00 C 452.55 410.39 447.33 409.77 442.71 408.85 Z" />
<path fill="#665f5c" opacity="1.00" d=" M 139.36 437.41 C 140.37 445.70 139.21 454.08 140.02 462.39 C 143.49 457.75 146.86 453.02 150.86 448.82 C 152.18 460.50 154.80 474.06 165.36 481.00 L 143.07 481.00 C 139.78 473.84 138.89 465.79 139.22 457.98 C 139.47 451.12 139.12 444.26 139.36 437.41 Z" />
<path fill="#665f5c" opacity="1.00" d=" M 73.67 464.72 C 79.34 458.82 88.27 458.04 95.99 458.59 C 105.81 459.50 116.88 464.66 119.28 475.14 C 123.38 475.60 127.52 475.43 131.57 474.66 C 133.69 477.80 137.14 479.56 140.53 481.00 L 106.34 481.00 C 106.90 477.97 108.25 474.54 106.23 471.76 C 101.25 464.02 90.50 462.52 82.31 465.21 C 80.07 465.77 77.92 469.06 80.01 470.87 C 84.67 474.45 90.87 473.30 96.19 472.23 C 91.35 478.16 82.70 478.03 75.97 476.09 C 71.14 474.76 70.35 467.97 73.67 464.72 Z" />
</g>
</svg>
