<?xml version="1.0" encoding="UTF-8" ?>
<!DOCTYPE svg PUBLIC "-//W3C//DTD SVG 1.1//EN" "http://www.w3.org/Graphics/SVG/1.1/DTD/svg11.dtd">
<svg width="552pt" height="525pt" viewBox="0 0 552 525" version="1.1" xmlns="http://www.w3.org/2000/svg">
<g id="#4c3722ff">
<path fill="#4c3722" opacity="1.00" d=" M 364.60 0.00 L 369.47 0.00 C 371.11 0.43 372.72 0.98 374.33 1.54 C 365.40 4.23 357.03 8.80 349.99 14.91 C 346.83 17.60 344.24 20.96 342.87 24.90 C 335.58 13.01 323.22 4.13 309.57 1.17 C 320.74 -0.61 333.19 2.69 341.01 11.12 C 347.35 4.89 356.00 1.63 364.60 0.00 Z" />
<path fill="#4c3722" opacity="1.00" d=" M 219.71 28.16 C 223.39 16.73 239.46 10.67 249.10 18.36 C 239.33 18.26 231.38 25.26 226.17 32.90 C 223.17 37.01 221.16 41.69 218.68 46.10 C 218.00 38.04 212.35 31.62 206.46 26.60 C 201.33 22.38 195.49 18.81 188.93 17.38 C 200.24 14.84 212.47 19.13 219.71 28.16 Z" />
<path fill="#4c3722" opacity="1.00" d=" M 97.00 23.99 C 105.23 22.29 113.45 20.56 121.66 18.76 C 121.55 23.18 121.43 27.61 121.23 32.02 C 120.51 46.92 120.61 61.87 119.42 76.74 C 129.52 67.11 141.02 59.07 151.67 50.05 C 157.69 52.05 163.74 53.92 169.75 55.93 C 166.64 60.30 163.45 64.62 160.33 68.99 C 156.80 73.58 153.44 78.31 150.04 83.00 C 148.64 84.69 148.89 86.96 148.78 89.00 C 148.63 99.33 148.20 109.68 148.97 119.99 C 149.19 124.64 152.40 128.36 155.63 131.40 C 161.33 136.51 167.82 140.68 174.62 144.18 C 175.35 141.18 176.36 138.15 176.08 135.02 C 175.55 128.11 175.05 121.19 174.44 114.29 C 174.72 114.20 175.28 114.02 175.55 113.93 C 181.04 113.24 186.49 112.27 191.94 111.36 C 191.26 113.18 190.56 114.99 189.95 116.84 C 190.22 123.56 190.66 130.29 191.24 136.99 C 191.61 140.84 195.79 142.37 198.99 143.27 C 207.03 144.62 215.25 144.52 223.37 144.02 C 221.95 141.52 220.44 139.07 218.87 136.66 L 218.73 136.61 C 217.30 133.87 215.48 131.18 215.09 128.05 C 215.38 125.76 216.69 123.78 217.87 121.85 C 223.52 113.27 230.34 105.53 235.87 96.87 C 237.07 94.78 238.67 92.41 237.71 89.90 C 234.58 79.32 228.52 69.72 226.45 58.80 C 234.84 69.71 242.92 80.89 250.76 92.21 C 251.92 94.44 254.89 96.99 252.62 99.47 C 245.99 109.44 238.12 118.60 232.22 129.04 C 234.00 131.52 235.91 133.92 238.03 136.13 C 242.50 140.86 247.02 145.55 252.14 149.61 C 252.21 149.86 252.35 150.37 252.43 150.62 C 252.72 150.56 253.30 150.44 253.59 150.38 C 256.37 153.56 259.01 156.98 262.64 159.26 C 257.05 162.26 252.35 166.68 248.49 171.67 C 244.49 168.83 239.79 167.35 235.18 165.85 C 235.82 163.96 236.47 162.08 237.13 160.20 C 239.45 159.47 241.75 158.69 244.03 157.85 C 240.29 157.12 236.54 156.46 232.78 155.84 C 233.54 159.15 234.16 162.49 234.98 165.79 C 224.53 164.03 213.58 161.68 203.09 164.41 C 187.85 175.18 172.22 185.40 156.71 195.78 C 154.79 197.31 152.25 196.87 149.98 196.89 C 132.05 196.27 114.11 196.38 96.20 195.31 C 92.22 194.13 88.31 192.72 84.30 191.61 C 84.14 191.43 83.81 191.06 83.65 190.88 C 85.00 188.82 86.27 186.72 87.40 184.54 C 90.44 183.32 93.70 182.76 96.68 181.40 C 97.71 180.24 98.29 178.77 99.03 177.43 C 93.64 175.04 88.48 172.09 82.97 170.01 C 78.45 169.67 73.91 170.03 69.38 169.93 C 70.52 165.25 71.33 160.50 72.16 155.76 C 81.54 158.72 90.76 162.18 100.19 165.00 C 92.40 160.01 84.51 155.16 76.75 150.11 C 83.11 143.68 89.56 137.35 95.91 130.90 C 88.70 134.90 81.85 139.53 74.62 143.51 C 75.85 135.55 77.99 127.76 78.88 119.76 C 70.76 132.65 64.15 146.42 56.54 159.61 C 54.68 163.01 53.02 166.51 51.19 169.92 C 47.68 169.89 44.16 169.90 40.65 169.99 C 40.51 169.74 40.23 169.24 40.09 168.99 C 34.97 157.08 29.28 145.44 24.07 133.57 C 28.70 133.35 33.33 133.04 37.96 132.84 C 47.26 132.60 56.54 131.89 65.84 131.44 C 52.67 113.56 39.22 95.88 25.94 78.08 C 25.04 77.23 25.19 76.01 25.77 75.03 C 33.32 62.87 40.19 50.29 47.43 37.94 C 50.68 41.36 53.81 44.92 57.01 48.40 C 63.62 56.00 70.51 63.37 77.22 70.89 C 78.84 73.04 81.73 72.93 84.10 73.50 C 88.13 57.01 92.52 40.61 96.57 24.12 L 97.00 23.99 M 94.02 85.09 C 97.72 81.03 100.95 76.55 104.34 72.22 C 108.37 76.93 111.85 82.07 115.73 86.91 C 111.95 76.94 108.08 67.01 104.31 57.05 C 100.66 66.31 97.34 75.71 94.02 85.09 M 120.09 95.82 C 125.60 93.96 130.69 91.07 136.05 88.84 C 136.81 95.59 137.22 102.38 138.42 109.07 C 139.35 98.39 141.08 87.79 142.25 77.14 C 134.80 83.29 127.50 89.62 120.09 95.82 M 60.82 84.68 C 65.53 95.91 70.74 106.94 75.78 118.03 C 74.37 110.64 72.61 103.32 71.40 95.89 C 78.93 97.14 86.44 98.45 93.96 99.73 C 82.95 94.64 72.00 89.38 60.82 84.68 M 99.14 113.52 C 103.40 124.82 108.33 135.85 112.80 147.06 C 113.56 149.03 114.44 150.97 115.49 152.82 C 113.75 143.80 112.54 134.68 111.07 125.61 C 119.41 125.86 127.75 126.34 136.09 126.62 C 123.84 122.08 111.43 117.95 99.14 113.52 M 127.39 137.47 C 129.38 145.33 130.98 153.30 133.35 161.05 C 133.34 154.73 133.42 148.42 133.56 142.11 C 138.50 140.15 143.49 138.30 148.36 136.17 C 141.35 136.06 134.38 137.11 127.39 137.47 M 147.62 150.78 C 151.32 157.56 155.40 164.13 158.90 171.02 C 157.89 165.45 156.01 160.08 154.40 154.67 C 158.85 151.38 163.65 148.63 168.07 145.30 C 161.28 147.23 154.38 148.75 147.62 150.78 M 194.35 154.79 C 198.62 156.66 202.86 158.60 207.08 160.58 C 205.61 158.00 203.87 155.58 202.22 153.12 C 203.49 150.33 204.73 147.53 205.85 144.68 C 201.85 147.85 198.13 151.36 194.35 154.79 M 216.46 146.53 C 218.16 150.78 219.51 155.19 221.46 159.35 C 222.12 156.98 222.75 154.60 223.38 152.22 C 226.98 150.94 230.60 149.73 234.22 148.50 C 228.35 147.46 222.38 147.22 216.46 146.53 M 169.85 157.68 C 174.79 160.58 179.58 163.72 184.62 166.44 C 182.58 163.35 180.11 160.59 177.74 157.76 C 179.56 154.38 181.70 151.19 183.69 147.92 C 178.95 150.98 174.36 154.28 169.85 157.68 M 102.90 189.07 C 114.67 189.31 126.45 190.08 138.21 189.75 C 130.83 187.44 123.54 184.84 116.21 182.37 C 118.50 176.51 121.14 170.77 123.11 164.80 C 116.19 172.72 109.62 180.97 102.90 189.07 Z" />
<path fill="#4c3722" opacity="1.00" d=" M 426.45 18.74 C 434.68 20.52 442.94 22.15 451.16 24.00 L 451.57 24.18 C 455.57 40.63 460.06 56.95 463.93 73.42 C 466.34 72.96 469.25 73.07 470.90 70.91 C 477.62 63.40 484.51 56.03 491.11 48.42 C 494.27 44.93 497.49 41.50 500.58 37.95 C 508.00 49.96 514.43 62.57 522.09 74.43 C 524.01 76.89 521.39 79.09 520.04 81.03 C 507.42 97.80 494.77 114.54 482.30 131.42 C 491.62 132.00 500.96 132.31 510.28 132.92 L 510.83 132.63 C 515.20 133.21 519.61 133.36 524.02 133.55 C 518.89 145.53 513.03 157.18 507.98 169.19 L 507.66 169.85 C 498.05 170.03 488.44 169.81 478.83 169.96 L 478.86 170.60 C 476.54 166.29 473.91 162.16 471.45 157.94 C 474.30 156.94 477.27 156.19 479.94 154.72 C 480.37 153.13 479.34 151.58 478.98 150.06 C 478.01 147.84 477.73 144.93 475.32 143.75 C 468.17 139.52 461.13 135.11 453.91 131.01 C 460.17 137.46 466.63 143.73 472.96 150.12 C 471.50 151.17 470.08 152.27 468.66 153.36 C 465.83 148.89 463.77 143.94 460.35 139.85 C 460.90 145.53 462.00 151.14 462.64 156.81 C 458.40 159.58 454.08 162.22 449.83 164.97 C 454.36 163.82 458.73 162.15 463.18 160.72 C 463.65 163.84 464.13 166.97 464.54 170.11 C 459.39 172.55 454.24 174.98 449.12 177.47 C 449.81 178.80 450.53 180.15 451.24 181.49 C 454.37 182.42 457.54 183.29 460.61 184.47 C 461.85 186.79 463.26 189.01 464.73 191.20 C 460.56 192.60 456.40 194.02 452.20 195.33 C 434.14 196.33 416.04 196.29 397.96 196.89 C 395.94 196.81 393.64 197.34 391.89 196.05 C 377.02 186.08 361.96 176.38 347.38 166.00 C 342.66 162.45 336.44 163.22 330.92 163.35 C 323.49 163.60 316.28 165.43 309.10 167.16 C 305.68 168.03 302.57 169.73 299.67 171.69 C 295.91 166.80 291.32 162.53 285.97 159.43 C 290.10 155.49 293.78 151.09 298.29 147.56 C 300.05 149.02 301.85 150.43 303.66 151.84 C 303.84 149.12 304.06 146.40 304.27 143.69 C 308.05 141.63 311.02 138.48 314.28 135.73 C 316.07 134.20 317.87 132.66 319.65 131.11 C 314.65 116.53 309.22 102.08 302.97 87.99 C 299.43 80.24 295.68 72.43 289.94 66.03 C 298.37 67.71 304.25 74.54 309.95 80.43 C 316.50 67.48 322.76 54.17 331.98 42.85 C 326.15 57.58 322.96 73.23 321.14 88.93 C 320.57 91.74 322.25 94.21 323.49 96.57 C 329.15 106.50 335.55 115.99 341.19 125.94 C 341.86 127.44 343.01 128.96 342.79 130.69 C 340.96 133.01 338.29 134.44 335.84 136.00 C 331.40 138.64 326.65 140.78 322.50 143.89 C 331.94 144.55 341.59 144.86 350.88 142.80 C 353.88 141.73 357.21 139.59 357.01 135.97 C 357.29 129.53 358.27 123.06 357.97 116.63 C 357.45 114.85 356.82 113.11 356.22 111.37 C 361.67 112.18 367.09 113.18 372.56 113.85 C 372.83 113.95 373.39 114.13 373.67 114.22 C 373.09 121.15 372.56 128.08 372.04 135.01 C 371.76 138.15 372.75 141.17 373.50 144.17 C 380.07 140.78 386.39 136.80 391.95 131.91 C 395.69 128.56 399.31 124.27 399.25 118.95 C 399.79 107.64 399.65 96.27 399.08 84.97 C 395.80 79.14 391.43 73.85 387.31 68.55 C 384.54 64.22 381.37 60.17 378.41 55.97 C 384.40 53.98 390.44 52.15 396.39 50.04 C 407.14 58.84 418.33 67.11 428.61 76.47 C 427.59 61.63 427.58 46.75 426.88 31.90 C 426.68 27.51 426.57 23.13 426.45 18.74 M 442.84 63.91 C 439.98 71.60 436.84 79.19 434.13 86.94 C 437.80 82.03 441.56 77.17 445.22 72.25 C 448.83 76.50 451.98 81.15 455.83 85.20 C 452.45 76.03 449.13 66.84 445.75 57.67 C 444.24 59.47 443.69 61.78 442.84 63.91 M 407.49 77.23 C 408.76 87.57 409.99 97.91 411.46 108.21 C 412.58 101.90 412.97 95.47 413.63 89.09 C 418.99 90.90 423.92 93.74 429.15 95.89 C 422.34 89.24 414.75 83.39 407.49 77.23 M 455.85 99.74 C 463.44 98.82 470.90 96.93 478.52 96.27 C 476.98 103.48 475.17 110.67 474.26 117.99 C 478.68 107.15 484.27 96.76 487.28 85.38 C 476.80 90.14 466.33 94.96 455.85 99.74 M 413.83 126.60 C 422.11 126.50 430.38 125.97 438.66 125.65 C 437.29 134.80 435.78 143.92 434.37 153.06 C 439.94 139.98 445.34 126.83 450.68 113.66 C 438.40 117.98 426.11 122.28 413.83 126.60 M 401.27 136.12 C 406.11 138.34 411.14 140.15 416.12 142.08 C 416.45 148.45 416.28 154.84 416.48 161.22 C 418.40 153.34 420.86 145.54 421.98 137.50 C 415.06 137.16 408.19 136.08 401.27 136.12 M 343.95 144.64 C 345.00 147.56 346.21 150.42 347.53 153.23 C 345.91 155.60 344.26 157.96 342.76 160.40 C 347.10 158.87 351.18 156.74 355.39 154.90 C 351.67 151.37 347.82 147.99 343.95 144.64 M 382.67 145.88 C 386.62 149.20 391.22 151.60 395.33 154.71 C 393.80 159.87 392.05 164.99 391.01 170.29 C 394.89 163.90 398.41 157.30 402.16 150.84 C 395.72 148.99 389.25 147.14 382.67 145.88 M 315.65 148.40 C 319.11 149.84 322.69 150.97 326.25 152.18 C 326.93 154.53 327.58 156.90 328.29 159.26 C 330.33 155.22 331.59 150.85 333.21 146.63 C 327.36 147.26 321.49 147.77 315.65 148.40 M 366.16 147.95 C 367.94 151.35 370.24 154.44 372.00 157.86 C 369.61 160.81 366.93 163.56 364.98 166.84 C 369.94 163.69 375.14 160.92 379.96 157.55 C 375.27 154.47 370.83 151.04 366.16 147.95 M 305.99 158.05 C 308.20 158.84 310.45 159.52 312.67 160.30 C 313.22 162.14 313.70 164.09 315.00 165.58 C 315.45 162.34 316.21 159.16 316.99 155.98 C 313.32 156.69 309.57 156.99 305.99 158.05 M 433.54 182.39 C 426.37 185.04 419.11 187.50 411.81 189.77 C 423.45 190.32 435.15 189.26 446.82 189.19 C 440.07 180.76 433.07 172.52 426.22 164.17 C 428.53 170.29 431.02 176.34 433.54 182.39 Z" />
<path fill="#4c3722" opacity="1.00" d=" M 188.01 202.02 C 193.93 201.65 199.77 202.83 205.55 203.96 C 209.06 204.74 212.53 205.70 216.01 206.66 C 222.66 208.39 229.01 211.06 235.22 213.98 C 235.23 213.21 235.25 211.68 235.25 210.92 C 236.81 219.30 237.01 227.85 236.94 236.35 C 228.14 231.26 219.48 225.85 210.09 221.88 C 205.50 219.94 200.92 217.70 195.95 216.93 C 192.61 216.38 189.47 218.07 186.61 219.57 C 179.21 223.76 172.58 229.14 166.03 234.53 C 161.18 238.53 156.74 243.05 151.46 246.51 C 146.94 249.50 142.36 252.39 137.91 255.47 C 141.43 246.96 147.53 239.95 152.86 232.56 C 140.20 221.45 126.54 211.23 111.27 203.97 C 124.42 206.14 136.80 211.29 149.29 215.74 C 154.43 217.47 159.52 219.82 165.02 220.00 C 169.57 219.94 172.63 216.05 175.58 213.11 C 179.48 209.16 183.07 204.72 188.01 202.02 Z" />
<path fill="#4c3722" opacity="1.00" d=" M 332.47 213.27 C 337.19 212.09 340.32 207.75 345.03 206.72 C 353.24 206.14 360.82 210.35 367.27 215.01 C 368.56 215.63 369.90 216.18 371.26 216.68 C 383.48 221.32 397.04 221.17 409.74 218.76 C 419.60 217.12 428.77 212.95 437.62 208.46 C 436.48 214.19 431.45 217.78 426.98 220.93 C 417.01 227.50 406.02 232.36 394.88 236.56 C 390.89 237.89 386.82 239.90 382.51 239.13 C 371.34 233.82 362.01 225.38 350.91 219.96 C 348.09 218.36 345.18 220.44 342.64 221.59 C 332.90 226.76 322.68 231.29 313.91 238.06 C 312.32 239.32 314.30 240.89 315.34 241.72 C 325.24 249.25 336.95 254.32 345.96 263.04 C 347.97 265.36 351.28 264.56 353.95 264.25 C 361.05 262.98 368.00 260.97 374.94 258.98 C 380.95 257.35 386.96 255.62 393.13 254.68 C 389.28 257.58 384.80 260.07 382.35 264.39 C 380.97 266.74 381.31 269.60 381.95 272.12 C 384.43 281.61 388.70 290.72 395.08 298.23 C 381.55 293.58 372.78 281.07 360.11 274.87 C 355.50 273.10 350.49 274.67 345.77 275.04 C 341.64 275.44 337.01 276.16 333.38 273.64 C 327.44 269.86 321.81 265.55 315.43 262.50 C 314.71 256.57 312.53 250.93 311.86 244.99 C 310.69 236.02 311.00 226.90 311.89 217.92 C 317.77 218.20 323.70 217.34 329.11 214.96 C 330.24 214.42 331.35 213.84 332.47 213.27 Z" />
<path fill="#4c3722" opacity="1.00" d=" M 218.22 246.80 C 221.00 244.93 223.70 242.67 227.00 241.82 C 230.23 242.15 233.43 242.92 236.70 242.52 C 235.59 251.75 231.65 260.61 232.63 270.07 C 232.29 267.32 232.27 264.56 232.20 261.81 C 229.10 260.98 225.85 260.73 222.73 261.52 C 214.09 263.52 205.94 267.14 198.01 271.02 C 189.11 275.28 180.45 280.02 171.66 284.49 C 168.11 286.41 163.95 286.59 160.31 288.29 C 157.85 289.41 155.52 290.78 153.12 292.01 C 155.53 289.06 158.39 286.47 160.38 283.19 C 161.93 282.52 163.47 281.82 165.01 281.14 C 169.51 278.91 174.83 278.84 179.02 275.88 C 192.59 267.23 204.81 256.68 217.76 247.15 L 218.22 246.80 Z" />
<path fill="#4c3722" opacity="1.00" d=" M 290.85 306.77 C 294.89 302.07 298.75 297.21 302.51 292.29 C 306.28 294.61 310.29 296.56 313.86 299.19 C 316.98 301.44 319.25 304.58 321.88 307.34 C 329.29 314.36 338.02 319.76 346.24 325.76 C 336.18 322.65 326.20 319.30 316.30 315.72 C 312.97 314.50 309.84 312.81 306.65 311.28 C 301.67 308.92 296.18 307.99 290.85 306.77 Z" />
<path fill="#4c3722" opacity="1.00" d=" M 246.40 293.32 C 249.45 297.32 252.59 301.26 255.87 305.08 C 249.50 310.72 242.18 315.11 235.61 320.49 C 232.28 321.94 228.60 322.55 225.41 324.31 C 219.84 328.46 215.54 335.27 207.97 335.82 C 211.80 330.86 215.01 324.87 214.60 318.42 C 208.24 316.15 201.37 318.11 194.84 318.55 C 200.76 316.43 206.79 314.60 212.94 313.27 C 217.17 312.29 221.57 312.39 225.78 311.30 C 233.99 307.19 241.24 300.94 246.40 293.32 Z" />
</g>
<g id="#d7c296ff">
<path fill="#d7c296" opacity="1.00" d=" M 97.00 23.99 C 110.36 18.51 123.72 13.02 137.05 7.47 C 131.83 15.69 126.19 23.65 121.23 32.02 C 121.43 27.61 121.55 23.18 121.66 18.76 C 113.45 20.56 105.23 22.29 97.00 23.99 Z" />
<path fill="#d7c296" opacity="1.00" d=" M 411.08 7.47 C 424.44 12.97 437.82 18.43 451.16 24.00 C 442.94 22.15 434.68 20.52 426.45 18.74 C 426.57 23.13 426.68 27.51 426.88 31.90 C 421.84 23.62 416.31 15.63 411.08 7.47 Z" />
<path fill="#d7c296" opacity="1.00" d=" M 55.78 7.62 C 55.76 17.75 54.80 27.86 54.49 37.99 C 54.60 41.58 56.01 44.98 57.01 48.40 C 53.81 44.92 50.68 41.36 47.43 37.94 C 40.19 50.29 33.32 62.87 25.77 75.03 C 35.88 52.61 45.87 30.13 55.78 7.62 Z" />
<path fill="#d7c296" opacity="1.00" d=" M 493.63 38.04 C 493.31 27.91 492.41 17.79 492.29 7.64 C 502.24 29.90 512.04 52.22 522.09 74.43 C 514.43 62.57 508.00 49.96 500.58 37.95 C 497.49 41.50 494.27 44.93 491.11 48.42 C 492.10 45.01 493.50 41.63 493.63 38.04 Z" />
<path fill="#d7c296" opacity="1.00" d=" M 151.67 50.05 C 163.49 51.02 175.33 51.53 187.15 52.44 C 178.23 57.98 169.23 63.41 160.33 68.99 C 163.45 64.62 166.64 60.30 169.75 55.93 C 163.74 53.92 157.69 52.05 151.67 50.05 Z" />
<path fill="#d7c296" opacity="1.00" d=" M 360.94 52.42 C 372.76 51.67 384.59 51.01 396.39 50.04 C 390.44 52.15 384.40 53.98 378.41 55.97 C 381.37 60.17 384.54 64.22 387.31 68.55 C 378.48 63.24 369.76 57.75 360.94 52.42 Z" />
<path fill="#d7c296" opacity="1.00" d=" M 94.02 85.09 C 97.34 75.71 100.66 66.31 104.31 57.05 C 108.08 67.01 111.95 76.94 115.73 86.91 C 111.85 82.07 108.37 76.93 104.34 72.22 C 100.95 76.55 97.72 81.03 94.02 85.09 Z" />
<path fill="#d7c296" opacity="1.00" d=" M 442.84 63.91 C 443.69 61.78 444.24 59.47 445.75 57.67 C 449.13 66.84 452.45 76.03 455.83 85.20 C 451.98 81.15 448.83 76.50 445.22 72.25 C 441.56 77.17 437.80 82.03 434.13 86.94 C 436.84 79.19 439.98 71.60 442.84 63.91 Z" />
<path fill="#d7c296" opacity="1.00" d=" M 120.09 95.82 C 127.50 89.62 134.80 83.29 142.25 77.14 C 141.08 87.79 139.35 98.39 138.42 109.07 C 137.22 102.38 136.81 95.59 136.05 88.84 C 130.69 91.07 125.60 93.96 120.09 95.82 Z" />
<path fill="#d7c296" opacity="1.00" d=" M 407.49 77.23 C 414.75 83.39 422.34 89.24 429.15 95.89 C 423.92 93.74 418.99 90.90 413.63 89.09 C 412.97 95.47 412.58 101.90 411.46 108.21 C 409.99 97.91 408.76 87.57 407.49 77.23 Z" />
<path fill="#d7c296" opacity="1.00" d=" M 60.82 84.68 C 72.00 89.38 82.95 94.64 93.96 99.73 C 86.44 98.45 78.93 97.14 71.40 95.89 C 72.61 103.32 74.37 110.64 75.78 118.03 C 70.74 106.94 65.53 95.91 60.82 84.68 Z" />
<path fill="#d7c296" opacity="1.00" d=" M 455.85 99.74 C 466.33 94.96 476.80 90.14 487.28 85.38 C 484.27 96.76 478.68 107.15 474.26 117.99 C 475.17 110.67 476.98 103.48 478.52 96.27 C 470.90 96.93 463.44 98.82 455.85 99.74 Z" />
<path fill="#d7c296" opacity="1.00" d=" M 175.55 113.93 C 185.43 110.19 195.34 106.51 205.25 102.86 C 200.14 107.51 194.97 112.09 189.95 116.84 C 190.56 114.99 191.26 113.18 191.94 111.36 C 186.49 112.27 181.04 113.24 175.55 113.93 Z" />
<path fill="#d7c296" opacity="1.00" d=" M 342.91 102.84 C 352.82 106.43 362.69 110.16 372.56 113.85 C 367.09 113.18 361.67 112.18 356.22 111.37 C 356.82 113.11 357.45 114.85 357.97 116.63 C 353.06 111.92 347.91 107.46 342.91 102.84 Z" />
<path fill="#d7c296" opacity="1.00" d=" M 99.14 113.52 C 111.43 117.95 123.84 122.08 136.09 126.62 C 127.75 126.34 119.41 125.86 111.07 125.61 C 112.54 134.68 113.75 143.80 115.49 152.82 C 114.44 150.97 113.56 149.03 112.80 147.06 C 108.33 135.85 103.40 124.82 99.14 113.52 Z" />
<path fill="#d7c296" opacity="1.00" d=" M 413.83 126.60 C 426.11 122.28 438.40 117.98 450.68 113.66 C 445.34 126.83 439.94 139.98 434.37 153.06 C 435.78 143.92 437.29 134.80 438.66 125.65 C 430.38 125.97 422.11 126.50 413.83 126.60 Z" />
<path fill="#d7c296" opacity="1.00" d=" M 510.83 132.63 C 521.16 127.44 531.62 122.50 541.96 117.33 C 530.63 134.62 519.18 151.82 507.98 169.19 C 513.03 157.18 518.89 145.53 524.02 133.55 C 519.61 133.36 515.20 133.21 510.83 132.63 Z" />
<path fill="#d7c296" opacity="1.00" d=" M 6.22 117.35 C 16.83 122.46 27.36 127.73 37.96 132.84 C 33.33 133.04 28.70 133.35 24.07 133.57 C 29.28 145.44 34.97 157.08 40.09 168.99 C 28.83 151.76 17.49 134.58 6.22 117.35 Z" />
<path fill="#d7c296" opacity="1.00" d=" M 74.62 143.51 C 81.85 139.53 88.70 134.90 95.91 130.90 C 89.56 137.35 83.11 143.68 76.75 150.11 C 84.51 155.16 92.40 160.01 100.19 165.00 C 90.76 162.18 81.54 158.72 72.16 155.76 C 72.89 151.65 73.76 147.58 74.62 143.51 Z" />
<path fill="#d7c296" opacity="1.00" d=" M 453.91 131.01 C 461.13 135.11 468.17 139.52 475.32 143.75 C 477.73 144.93 478.01 147.84 478.98 150.06 C 479.34 151.58 480.37 153.13 479.94 154.72 C 477.27 156.19 474.30 156.94 471.45 157.94 C 470.54 156.40 469.59 154.88 468.66 153.36 C 470.08 152.27 471.50 151.17 472.96 150.12 C 466.63 143.73 460.17 137.46 453.91 131.01 Z" />
<path fill="#d7c296" opacity="1.00" d=" M 127.39 137.47 C 134.38 137.11 141.35 136.06 148.36 136.17 C 143.49 138.30 138.50 140.15 133.56 142.11 C 133.42 148.42 133.34 154.73 133.35 161.05 C 130.98 153.30 129.38 145.33 127.39 137.47 Z" />
<path fill="#d7c296" opacity="1.00" d=" M 401.27 136.12 C 408.19 136.08 415.06 137.16 421.98 137.50 C 420.86 145.54 418.40 153.34 416.48 161.22 C 416.28 154.84 416.45 148.45 416.12 142.08 C 411.14 140.15 406.11 138.34 401.27 136.12 Z" />
<path fill="#d7c296" opacity="1.00" d=" M 147.62 150.78 C 154.38 148.75 161.28 147.23 168.07 145.30 C 163.65 148.63 158.85 151.38 154.40 154.67 C 156.01 160.08 157.89 165.45 158.90 171.02 C 155.40 164.13 151.32 157.56 147.62 150.78 Z" />
<path fill="#d7c296" opacity="1.00" d=" M 194.35 154.79 C 198.13 151.36 201.85 147.85 205.85 144.68 C 204.73 147.53 203.49 150.33 202.22 153.12 C 203.87 155.58 205.61 158.00 207.08 160.58 C 202.86 158.60 198.62 156.66 194.35 154.79 Z" />
<path fill="#d7c296" opacity="1.00" d=" M 343.95 144.64 C 347.82 147.99 351.67 151.37 355.39 154.90 C 351.18 156.74 347.10 158.87 342.76 160.40 C 344.26 157.96 345.91 155.60 347.53 153.23 C 346.21 150.42 345.00 147.56 343.95 144.64 Z" />
<path fill="#d7c296" opacity="1.00" d=" M 382.67 145.88 C 389.25 147.14 395.72 148.99 402.16 150.84 C 398.41 157.30 394.89 163.90 391.01 170.29 C 392.05 164.99 393.80 159.87 395.33 154.71 C 391.22 151.60 386.62 149.20 382.67 145.88 Z" />
<path fill="#d7c296" opacity="1.00" d=" M 216.46 146.53 C 222.38 147.22 228.35 147.46 234.22 148.50 C 230.60 149.73 226.98 150.94 223.38 152.22 C 222.75 154.60 222.12 156.98 221.46 159.35 C 219.51 155.19 218.16 150.78 216.46 146.53 Z" />
<path fill="#d7c296" opacity="1.00" d=" M 315.65 148.40 C 321.49 147.77 327.36 147.26 333.21 146.63 C 331.59 150.85 330.33 155.22 328.29 159.26 C 327.58 156.90 326.93 154.53 326.25 152.18 C 322.69 150.97 319.11 149.84 315.65 148.40 Z" />
<path fill="#d7c296" opacity="1.00" d=" M 169.85 157.68 C 174.36 154.28 178.95 150.98 183.69 147.92 C 181.70 151.19 179.56 154.38 177.74 157.76 C 180.11 160.59 182.58 163.35 184.62 166.44 C 179.58 163.72 174.79 160.58 169.85 157.68 Z" />
<path fill="#d7c296" opacity="1.00" d=" M 366.16 147.95 C 370.83 151.04 375.27 154.47 379.96 157.55 C 375.14 160.92 369.94 163.69 364.98 166.84 C 366.93 163.56 369.61 160.81 372.00 157.86 C 370.24 154.44 367.94 151.35 366.16 147.95 Z" />
<path fill="#d7c296" opacity="1.00" d=" M 232.78 155.84 C 236.54 156.46 240.29 157.12 244.03 157.85 C 241.75 158.69 239.45 159.47 237.13 160.20 C 236.47 162.08 235.82 163.96 235.18 165.85 L 234.98 165.79 C 234.16 162.49 233.54 159.15 232.78 155.84 Z" />
<path fill="#d7c296" opacity="1.00" d=" M 305.99 158.05 C 309.57 156.99 313.32 156.69 316.99 155.98 C 316.21 159.16 315.45 162.34 315.00 165.58 C 313.70 164.09 313.22 162.14 312.67 160.30 C 310.45 159.52 308.20 158.84 305.99 158.05 Z" />
<path fill="#d7c296" opacity="1.00" d=" M 449.83 164.97 C 454.08 162.22 458.40 159.58 462.64 156.81 C 462.80 158.11 462.98 159.42 463.18 160.72 C 458.73 162.15 454.36 163.82 449.83 164.97 Z" />
<path fill="#d7c296" opacity="1.00" d=" M 262.97 167.02 C 266.75 163.86 271.75 160.63 276.88 162.23 C 283.15 164.16 287.83 169.12 291.91 174.02 C 297.41 180.90 302.01 188.54 305.22 196.75 C 307.13 201.45 307.43 206.94 305.63 211.71 C 302.90 217.32 297.36 220.72 293.53 225.46 C 291.77 228.20 290.79 231.34 289.55 234.34 C 283.87 249.36 279.13 264.71 274.29 280.01 C 273.88 279.35 273.52 278.66 273.20 277.96 C 268.00 261.86 263.12 245.62 256.80 229.90 C 254.23 221.94 245.15 218.63 242.14 210.92 C 240.59 205.79 241.20 200.17 243.45 195.35 C 248.03 184.79 254.31 174.71 262.97 167.02 M 272.08 169.12 C 271.67 171.59 273.67 173.37 275.92 171.93 C 275.85 170.78 275.64 169.67 275.27 168.60 C 274.16 168.21 273.11 168.79 272.08 169.12 M 272.38 190.26 C 272.33 191.51 272.28 192.75 272.23 194.00 C 273.44 194.58 274.68 194.17 275.88 193.81 C 275.77 192.75 275.63 191.70 275.47 190.65 C 274.46 190.38 273.43 190.25 272.38 190.26 M 267.19 195.09 C 268.72 198.86 270.14 202.94 273.23 205.75 C 273.77 205.68 274.85 205.55 275.39 205.48 C 278.00 202.50 279.59 198.79 280.84 195.07 C 278.59 197.46 276.81 202.06 272.91 201.31 C 270.61 199.64 269.01 197.23 267.19 195.09 M 247.47 208.71 C 249.51 213.09 253.28 216.35 257.10 219.16 C 255.74 211.54 251.77 204.60 250.96 196.84 C 247.83 199.82 246.02 204.47 247.47 208.71 M 297.18 196.73 C 296.35 204.52 292.46 211.51 290.97 219.14 C 294.84 216.41 298.56 213.12 300.61 208.77 C 302.39 204.52 300.08 199.87 297.18 196.73 M 272.23 219.73 C 273.37 219.74 274.52 219.71 275.67 219.63 C 277.60 218.55 276.47 214.80 274.09 215.40 C 271.62 215.16 272.45 218.20 272.23 219.73 M 266.92 219.77 C 269.17 224.87 271.58 229.91 274.18 234.85 C 276.36 229.78 279.13 224.98 281.07 219.82 C 278.49 222.33 276.48 225.33 274.01 227.93 C 271.67 225.19 269.59 222.21 266.92 219.77 M 269.67 253.18 C 270.87 256.62 271.82 260.15 272.80 263.67 C 273.69 259.90 273.05 256.00 273.26 252.17 C 273.66 252.17 274.46 252.15 274.86 252.15 C 274.96 256.29 274.64 260.45 275.22 264.57 C 276.11 260.71 277.13 256.87 278.45 253.13 C 276.71 249.87 275.40 246.41 274.13 242.95 C 272.64 246.36 271.41 249.88 269.67 253.18 Z" />
<path fill="#d7c296" opacity="1.00" d=" M 433.54 182.39 C 431.02 176.34 428.53 170.29 426.22 164.17 C 433.07 172.52 440.07 180.76 446.82 189.19 C 435.15 189.26 423.45 190.32 411.81 189.77 C 419.11 187.50 426.37 185.04 433.54 182.39 Z" />
<path fill="#d7c296" opacity="1.00" d=" M 102.90 189.07 C 109.62 180.97 116.19 172.72 123.11 164.80 C 121.14 170.77 118.50 176.51 116.21 182.37 C 123.54 184.84 130.83 187.44 138.21 189.75 C 126.45 190.08 114.67 189.31 102.90 189.07 Z" />
<path fill="#d7c296" opacity="1.00" d=" M 80.86 187.62 C 83.04 186.58 85.20 185.52 87.40 184.54 C 86.27 186.72 85.00 188.82 83.65 190.88 C 82.71 189.80 81.78 188.71 80.86 187.62 Z" />
<path fill="#d7c296" opacity="1.00" d=" M 460.61 184.47 C 462.74 185.39 464.84 186.40 466.94 187.41 C 467.37 190.56 467.81 193.70 468.28 196.84 C 463.10 199.71 457.53 195.84 452.20 195.33 C 456.40 194.02 460.56 192.60 464.73 191.20 C 463.26 189.01 461.85 186.79 460.61 184.47 Z" />
<path fill="#d7c296" opacity="1.00" d=" M 84.30 191.61 C 88.31 192.72 92.22 194.13 96.20 195.31 C 93.72 195.79 91.29 196.44 88.84 197.05 C 87.32 195.24 85.83 193.41 84.30 191.61 Z" />
<path fill="#d7c296" opacity="1.00" d=" M 240.58 217.18 C 246.84 221.27 251.11 228.40 251.15 235.95 C 251.20 244.63 251.14 253.31 251.14 262.00 C 250.97 264.97 252.51 267.61 253.65 270.24 C 258.16 279.84 263.10 289.26 268.79 298.21 C 270.19 300.51 271.94 302.58 273.97 304.36 C 277.55 301.71 279.63 297.66 281.96 293.97 C 287.39 284.62 292.63 275.06 296.61 265.00 C 297.40 254.37 296.17 243.63 297.25 233.02 C 298.08 226.56 302.11 220.80 307.47 217.24 C 306.07 225.11 303.85 232.88 303.40 240.90 C 302.82 251.45 307.43 261.44 307.46 271.94 C 306.61 276.76 303.43 280.78 300.78 284.78 C 292.64 296.30 283.41 307.01 274.08 317.57 C 263.73 305.87 253.47 294.02 244.78 281.02 C 242.83 277.66 240.23 274.16 240.64 270.07 C 241.25 262.31 243.64 254.82 244.53 247.10 C 245.54 236.95 242.42 227.05 240.58 217.18 Z" />
</g>
<g id="#201b18ff">
<path fill="#201b18" opacity="1.00" d=" M 69.33 8.48 C 75.47 5.49 83.27 11.17 82.30 17.93 C 81.93 24.89 72.84 28.92 67.45 24.48 C 61.78 20.61 62.90 10.93 69.33 8.48 M 70.32 13.29 C 68.10 14.76 68.12 18.35 70.37 19.78 C 72.94 21.93 77.24 19.38 76.70 16.12 C 76.61 13.15 72.59 11.31 70.32 13.29 Z" />
<path fill="#201b18" opacity="1.00" d=" M 468.09 8.28 C 472.43 6.11 478.00 10.07 477.40 14.87 C 477.22 19.71 471.06 22.75 467.13 19.87 C 462.79 17.31 463.39 10.10 468.09 8.28 M 469.45 11.39 C 467.34 12.13 466.57 15.13 468.30 16.64 C 469.93 18.55 473.38 17.33 473.65 14.92 C 474.12 12.61 471.62 10.61 469.45 11.39 Z" />
<path fill="#201b18" opacity="1.00" d=" M 302.30 19.51 C 307.59 17.70 313.59 22.53 312.72 28.09 C 312.44 34.28 304.07 37.72 299.53 33.46 C 294.56 29.76 296.33 21.04 302.30 19.51 Z" />
<path fill="#201b18" opacity="1.00" d=" M 350.39 66.49 C 357.01 63.50 365.54 67.27 367.74 74.19 C 370.31 80.95 366.04 89.18 359.04 90.96 C 352.39 93.08 344.66 88.74 342.94 82.00 C 341.05 75.90 344.51 68.87 350.39 66.49 M 353.15 73.32 C 348.53 74.77 347.75 81.71 351.85 84.23 C 355.71 87.18 361.85 83.81 361.54 78.99 C 361.61 74.76 357.00 71.90 353.15 73.32 Z" />
<path fill="#201b18" opacity="1.00" d=" M 201.29 68.41 C 205.29 66.12 210.58 70.74 208.89 75.00 C 207.96 78.58 203.10 79.95 200.30 77.66 C 197.14 75.44 197.69 69.88 201.29 68.41 Z" />
<path fill="#201b18" opacity="1.00" d=" M 56.54 159.61 C 64.15 146.42 70.76 132.65 78.88 119.76 C 77.99 127.76 75.85 135.55 74.62 143.51 C 73.76 147.58 72.89 151.65 72.16 155.76 C 71.33 160.50 70.52 165.25 69.38 169.93 C 69.19 170.74 68.82 172.35 68.63 173.16 C 72.68 178.00 76.78 182.80 80.86 187.62 C 81.78 188.71 82.71 189.80 83.65 190.88 C 83.81 191.06 84.14 191.43 84.30 191.61 C 85.83 193.41 87.32 195.24 88.84 197.05 C 98.33 208.25 107.77 219.50 117.32 230.65 C 118.03 231.62 119.02 232.48 119.35 233.67 C 115.66 239.16 110.30 243.56 107.81 249.81 C 106.14 250.76 104.59 251.94 103.47 253.52 C 97.25 261.62 90.61 269.37 84.32 277.41 C 94.44 285.49 105.50 292.38 115.65 300.41 C 115.97 306.93 113.62 313.26 113.12 319.75 C 120.38 327.19 127.80 334.48 135.24 341.75 C 137.18 343.76 139.63 345.48 140.84 348.07 C 140.28 352.12 139.11 356.07 138.04 360.01 C 136.86 362.95 136.51 366.11 136.57 369.25 C 133.57 374.17 133.49 380.15 131.36 385.42 C 125.87 378.71 120.10 372.17 113.45 366.57 C 110.79 364.42 107.75 361.97 104.07 362.62 C 103.95 358.11 103.51 353.63 102.94 349.16 C 101.52 335.49 100.06 321.82 98.71 308.14 C 86.61 299.18 74.39 290.39 62.26 281.47 C 71.46 266.03 80.81 250.68 89.88 235.16 C 81.26 221.70 72.85 208.11 64.32 194.59 C 63.18 192.78 61.45 191.49 59.76 190.24 C 55.08 186.82 50.50 183.27 45.85 179.80 C 47.62 176.50 49.43 173.22 51.19 169.92 C 53.02 166.51 54.68 163.01 56.54 159.61 Z" />
<path fill="#201b18" opacity="1.00" d=" M 460.35 139.85 C 463.77 143.94 465.83 148.89 468.66 153.36 C 469.59 154.88 470.54 156.40 471.45 157.94 C 473.91 162.16 476.54 166.29 478.86 170.60 C 486.99 184.67 495.40 198.58 503.40 212.72 C 486.80 224.93 470.42 237.46 453.85 249.72 C 450.87 251.67 450.08 255.61 449.75 258.89 C 458.65 280.27 468.15 301.42 477.21 322.74 C 478.26 325.27 479.47 327.75 481.02 330.03 C 489.99 343.46 498.80 356.99 507.79 370.41 C 506.52 386.20 505.04 401.97 503.70 417.75 C 505.59 417.32 507.49 416.89 509.39 416.45 C 514.81 399.77 520.21 383.07 525.68 366.41 C 529.70 368.73 533.73 371.04 537.79 373.32 C 538.11 358.54 538.40 343.75 538.71 328.97 C 538.85 323.21 538.76 317.43 539.46 311.70 C 540.80 322.48 542.92 333.15 544.64 343.87 C 547.12 358.13 549.26 372.44 552.00 386.65 L 552.00 387.60 C 546.10 385.92 540.13 384.46 534.19 382.91 C 530.67 408.73 527.37 434.58 523.78 460.40 C 513.29 462.34 502.82 464.37 492.33 466.29 C 487.80 478.08 483.43 489.94 478.82 501.71 C 473.17 503.63 467.55 505.60 461.93 507.57 C 457.16 509.34 451.99 508.64 447.02 508.98 C 442.07 508.92 437.05 509.94 432.16 508.86 C 430.14 506.42 427.32 504.94 424.82 503.09 C 434.37 500.87 444.64 501.93 453.70 497.71 C 458.33 495.55 463.47 494.46 467.81 491.72 C 468.91 489.17 469.14 486.36 469.65 483.66 C 479.79 477.94 489.01 470.00 494.64 459.69 C 496.44 456.35 498.15 452.30 496.49 448.57 C 494.36 443.61 487.99 441.62 483.11 443.40 C 478.24 445.08 473.83 448.32 471.06 452.71 C 468.16 448.19 466.83 442.08 461.45 439.77 C 472.02 430.83 481.77 420.31 487.51 407.56 C 490.73 401.17 487.46 393.81 483.14 388.83 C 481.27 386.76 478.50 384.29 475.53 385.70 C 470.13 387.94 465.00 391.10 460.71 395.07 C 460.35 399.02 463.27 402.99 462.00 407.10 C 458.96 419.01 451.93 429.47 444.56 439.14 C 440.32 438.81 436.12 439.46 431.94 440.08 C 426.27 441.09 421.07 438.05 415.92 436.21 C 420.52 435.47 425.18 435.29 429.82 434.97 C 435.15 425.75 440.48 416.51 445.21 406.98 C 436.30 408.02 427.55 410.12 418.69 411.59 C 414.90 412.12 410.98 413.72 407.18 412.42 C 414.00 406.18 420.65 399.60 428.40 394.52 C 430.81 392.94 433.01 395.48 434.86 396.73 C 440.03 389.94 445.17 382.55 446.48 373.93 C 446.72 368.99 444.29 362.88 438.98 361.71 C 435.61 360.79 432.79 363.42 430.30 365.27 C 420.31 373.71 412.07 383.97 404.36 394.47 C 398.13 403.15 392.50 412.27 387.76 421.86 C 387.58 420.59 387.39 419.27 387.95 418.07 C 390.04 412.25 393.01 406.72 394.29 400.63 C 381.95 411.32 372.02 424.51 359.75 435.28 C 362.50 426.86 368.51 419.97 371.26 411.56 C 365.55 414.25 362.15 420.42 356.18 422.49 C 362.91 412.34 370.67 402.89 378.87 393.90 C 383.06 389.65 386.89 384.80 392.07 381.71 C 394.09 382.27 395.21 384.24 396.64 385.62 C 401.00 381.47 405.47 376.71 406.37 370.49 C 406.74 367.10 407.19 363.43 405.77 360.22 C 404.89 358.23 402.59 357.75 400.70 357.28 C 410.73 342.54 421.26 328.12 431.55 313.56 C 433.39 311.12 432.13 307.96 432.01 305.23 C 430.92 290.83 429.50 276.46 428.36 262.06 C 428.38 257.26 424.78 253.74 422.59 249.80 C 434.16 240.27 445.82 230.87 457.38 221.35 C 461.97 216.73 465.47 211.16 469.60 206.13 C 469.16 203.03 468.73 199.93 468.28 196.84 C 467.81 193.70 467.37 190.56 466.94 187.41 C 466.16 181.64 465.29 175.88 464.54 170.11 C 464.13 166.97 463.65 163.84 463.18 160.72 C 462.98 159.42 462.80 158.11 462.64 156.81 C 462.00 151.14 460.90 145.53 460.35 139.85 Z" />
<path fill="#201b18" opacity="1.00" d=" M 516.53 184.74 C 522.42 182.35 529.66 186.70 530.29 193.02 C 531.29 198.98 526.04 204.89 520.02 204.66 C 514.40 204.77 509.44 199.58 509.83 193.97 C 509.91 189.89 512.73 186.15 516.53 184.74 M 517.22 190.22 C 513.78 191.91 513.50 197.28 516.76 199.32 C 519.65 201.56 524.36 199.71 525.02 196.14 C 526.35 191.89 520.99 187.77 517.22 190.22 Z" />
<path fill="#201b18" opacity="1.00" d=" M 247.47 208.71 C 246.02 204.47 247.83 199.82 250.96 196.84 C 251.77 204.60 255.74 211.54 257.10 219.16 C 253.28 216.35 249.51 213.09 247.47 208.71 Z" />
<path fill="#201b18" opacity="1.00" d=" M 297.18 196.73 C 300.08 199.87 302.39 204.52 300.61 208.77 C 298.56 213.12 294.84 216.41 290.97 219.14 C 292.46 211.51 296.35 204.52 297.18 196.73 Z" />
<path fill="#201b18" opacity="1.00" d=" M 11.90 203.29 C 21.19 201.62 30.39 199.48 39.72 198.02 C 45.50 209.09 51.69 219.93 57.60 230.93 C 51.39 235.37 45.25 239.91 39.01 244.30 C 36.33 237.53 33.46 230.82 30.98 223.97 C 34.13 227.18 37.18 230.48 40.29 233.74 C 42.43 231.70 44.56 229.66 46.74 227.66 C 42.23 220.75 37.44 214.02 32.83 207.18 C 28.12 209.72 23.46 212.35 18.69 214.79 C 16.98 225.74 15.49 236.73 13.99 247.71 C 26.81 248.36 39.62 249.24 52.44 249.96 C 48.48 259.25 44.16 268.39 40.38 277.75 C 51.43 284.36 62.44 291.04 73.31 297.93 C 65.51 297.10 57.20 298.33 49.91 294.87 C 42.70 292.19 35.57 289.27 28.28 286.81 C 29.03 278.09 30.23 269.41 31.29 260.72 C 22.12 258.85 12.85 257.52 3.63 255.92 C 4.82 251.28 6.63 246.76 7.12 241.97 C 8.69 229.07 10.28 216.18 11.90 203.29 Z" />
<path fill="#201b18" opacity="1.00" d=" M 487.19 239.41 C 503.66 231.32 520.03 223.03 536.53 214.97 C 539.07 232.06 541.66 249.14 544.25 266.22 C 534.51 271.04 524.70 275.74 514.88 280.40 C 520.13 286.93 525.79 293.12 531.05 299.64 C 521.81 305.54 512.61 311.50 503.43 317.48 C 499.91 319.98 495.34 319.57 491.30 320.48 C 499.12 312.90 506.97 305.34 514.80 297.76 C 506.84 290.77 498.83 283.85 490.85 276.89 C 492.87 273.83 495.09 270.89 497.17 267.87 C 508.43 265.42 519.69 263.03 530.97 260.66 C 531.30 248.95 531.18 237.23 531.33 225.51 C 521.87 229.65 512.40 233.78 502.92 237.89 C 502.57 243.31 502.21 248.72 501.89 254.14 C 505.75 253.05 509.60 251.92 513.47 250.85 C 513.40 249.20 513.34 247.56 513.28 245.92 C 510.86 244.44 508.46 242.94 506.08 241.42 C 511.04 242.39 516.03 243.14 521.00 244.05 C 520.31 248.29 519.65 252.53 518.89 256.76 C 509.99 258.42 501.13 260.38 492.18 261.74 C 490.74 254.25 488.78 246.87 487.19 239.41 Z" />
<path fill="#201b18" opacity="1.00" d=" M 269.67 253.18 C 271.41 249.88 272.64 246.36 274.13 242.95 C 275.40 246.41 276.71 249.87 278.45 253.13 C 277.13 256.87 276.11 260.71 275.22 264.57 C 274.64 260.45 274.96 256.29 274.86 252.15 C 274.46 252.15 273.66 252.17 273.26 252.17 C 273.05 256.00 273.69 259.90 272.80 263.67 C 271.82 260.15 270.87 256.62 269.67 253.18 Z" />
<path fill="#201b18" opacity="1.00" d=" M 127.22 312.29 C 130.00 306.98 132.03 301.29 135.29 296.24 C 147.60 318.58 159.87 340.94 172.31 363.21 C 171.94 368.72 173.51 374.57 171.36 379.82 C 165.14 371.98 157.66 364.97 148.77 360.26 C 150.83 354.01 152.35 347.60 153.87 341.20 C 145.48 333.89 136.97 326.73 128.34 319.71 C 127.30 318.81 126.25 317.90 125.45 316.78 C 125.67 315.17 126.55 313.74 127.22 312.29 Z" />
<path fill="#201b18" opacity="1.00" d=" M 39.44 310.58 C 46.30 308.73 53.59 315.05 52.71 322.10 C 52.35 328.89 44.73 333.89 38.35 331.44 C 32.30 329.54 29.12 321.85 32.20 316.26 C 33.62 313.42 36.34 311.28 39.44 310.58 M 38.40 316.58 C 35.53 318.62 35.65 323.46 38.69 325.30 C 41.91 327.72 47.20 325.07 46.94 320.99 C 47.41 316.66 41.69 313.77 38.40 316.58 Z" />
<path fill="#201b18" opacity="1.00" d=" M 17.50 318.90 C 16.27 334.04 14.96 349.18 13.69 364.32 C 19.29 365.69 24.91 367.03 30.49 368.49 C 30.90 375.83 31.35 383.16 31.77 390.50 C 31.69 402.25 36.68 413.13 39.21 424.42 C 40.79 424.21 42.37 424.01 43.95 423.81 C 42.56 426.69 40.90 429.44 39.33 432.23 C 42.11 437.37 45.10 442.39 48.03 447.45 C 46.45 450.04 45.64 453.24 46.78 456.18 C 49.70 464.33 55.64 470.98 62.03 476.66 L 62.21 478.47 C 49.54 478.26 36.88 478.53 24.21 478.33 C 20.01 451.93 15.61 425.55 11.29 399.16 C 11.02 397.57 10.92 395.92 11.51 394.40 C 13.22 389.37 15.06 384.38 16.77 379.35 C 11.19 379.32 5.61 379.33 0.02 379.34 C 5.81 359.18 11.54 339.00 17.50 318.90 Z" />
<path fill="#201b18" opacity="1.00" d=" M 58.49 340.49 C 63.97 333.48 69.40 326.43 74.88 319.42 C 80.74 324.13 86.95 328.47 92.56 333.46 C 95.40 338.50 97.62 343.90 100.05 349.16 C 100.24 354.41 100.19 359.67 100.25 364.92 C 97.19 368.81 96.02 374.08 97.69 378.82 C 92.31 384.22 86.50 389.15 80.99 394.41 C 76.74 391.44 72.46 388.32 67.52 386.61 C 63.75 385.31 60.91 389.14 58.81 391.67 C 54.01 389.26 50.47 385.01 46.83 381.18 C 45.81 376.49 46.23 371.43 46.63 366.64 C 50.36 361.98 55.40 358.45 59.46 354.04 C 63.67 357.85 67.21 362.38 70.44 367.04 C 67.21 367.00 63.97 366.33 60.75 366.69 C 59.43 367.74 58.02 369.15 57.87 370.93 C 59.73 374.61 62.27 377.96 64.96 381.08 C 67.45 383.01 70.84 383.10 73.80 383.89 C 77.18 380.56 80.12 376.82 83.23 373.24 C 86.76 369.67 86.50 364.16 86.44 359.49 C 77.44 352.74 67.64 347.06 58.49 340.49 Z" />
<path fill="#201b18" opacity="1.00" d=" M 333.25 357.06 C 348.06 346.08 362.62 334.77 377.49 323.89 C 380.25 328.96 383.15 333.96 386.03 338.97 C 387.02 340.84 388.17 342.79 388.09 345.00 C 388.03 351.24 387.04 357.46 387.40 363.72 C 384.19 366.16 381.11 368.80 378.29 371.70 C 377.69 361.47 375.35 351.38 373.92 341.22 C 365.23 347.47 356.52 353.67 347.71 359.74 C 346.81 360.44 345.73 361.02 345.17 362.05 C 346.13 367.09 347.99 371.91 349.25 376.88 C 352.53 373.98 356.38 371.64 359.19 368.26 C 360.79 364.55 361.51 360.53 362.89 356.74 C 364.37 360.70 365.64 364.73 366.83 368.79 C 360.16 375.28 353.41 381.68 346.69 388.11 C 342.51 380.94 338.43 373.70 334.51 366.40 C 333.98 363.30 333.65 360.17 333.25 357.06 Z" />
<path fill="#201b18" opacity="1.00" d=" M 514.35 337.50 C 520.19 335.89 525.99 342.40 523.55 348.01 C 521.80 353.40 514.00 354.95 510.32 350.66 C 506.11 346.55 508.55 338.54 514.35 337.50 M 513.45 342.52 C 511.30 344.07 511.71 347.79 514.16 348.82 C 516.92 350.58 520.79 346.94 519.27 344.08 C 518.38 341.82 515.33 340.84 513.45 342.52 Z" />
<path fill="#201b18" opacity="1.00" d=" M 313.27 345.37 C 316.06 343.15 320.79 344.51 321.83 347.97 C 323.74 352.36 318.27 357.27 314.12 354.83 C 310.50 353.20 309.99 347.61 313.27 345.37 Z" />
<path fill="#201b18" opacity="1.00" d=" M 224.14 359.37 C 232.79 355.26 241.85 352.00 250.70 348.33 C 254.97 356.84 259.37 365.29 263.38 373.93 C 260.58 377.96 258.14 382.32 254.69 385.84 C 251.20 387.84 247.13 388.54 243.31 389.68 C 241.50 384.17 239.85 378.61 238.21 373.05 C 240.03 372.01 241.90 371.04 243.79 370.13 C 245.08 372.54 246.40 374.93 247.79 377.27 C 248.60 377.15 250.21 376.89 251.02 376.77 C 250.47 371.66 248.95 366.74 247.77 361.77 C 242.65 363.79 237.81 366.42 232.98 369.05 C 235.40 378.31 237.13 387.77 240.02 396.91 C 244.49 396.08 249.02 395.52 253.44 394.43 C 254.94 394.20 255.95 393.03 256.83 391.90 C 261.23 386.17 265.35 380.23 270.02 374.71 C 269.20 380.55 267.70 386.28 267.03 392.14 C 267.94 395.74 270.05 398.90 271.44 402.33 C 268.97 401.53 266.57 400.44 264.00 400.01 C 260.25 401.62 257.55 404.92 254.32 407.34 C 257.36 414.33 260.64 421.21 263.87 428.10 C 265.38 430.69 264.07 433.53 263.20 436.07 C 260.08 444.08 257.82 452.43 254.28 460.27 C 254.02 453.17 254.42 446.07 254.57 438.97 C 254.76 436.14 252.78 433.89 251.41 431.62 C 248.00 426.64 245.01 421.39 241.66 416.38 C 240.25 413.82 237.13 413.46 234.81 412.10 C 233.61 410.87 233.10 409.15 232.40 407.63 C 230.05 401.65 227.71 395.66 225.22 389.74 C 222.59 383.82 223.88 377.22 223.59 370.97 C 223.80 367.13 222.88 363.04 224.14 359.37 Z" />
<path fill="#201b18" opacity="1.00" d=" M 304.13 390.37 C 312.92 384.03 321.30 377.14 329.97 370.63 C 330.29 371.82 330.59 373.01 330.88 374.22 C 332.18 384.19 333.53 394.16 334.70 404.15 C 328.74 409.43 323.12 415.11 316.85 420.02 C 311.58 423.60 307.03 428.08 302.05 432.02 C 300.14 433.50 298.32 435.24 297.54 437.60 C 293.77 447.16 290.07 456.75 286.32 466.32 C 285.75 467.80 284.85 469.10 283.96 470.41 C 283.18 457.28 283.82 444.11 283.52 430.97 C 283.63 428.39 282.99 425.13 285.56 423.51 C 293.59 416.87 301.71 410.34 309.80 403.75 C 308.17 399.18 306.21 394.74 304.13 390.37 Z" />
<path fill="#201b18" opacity="1.00" d=" M 148.86 384.27 C 150.09 383.01 151.73 382.23 153.11 383.79 C 163.22 392.40 171.71 402.75 179.85 413.19 C 176.00 413.25 172.10 413.20 168.32 412.43 C 166.89 412.14 166.20 410.66 165.36 409.64 C 159.81 401.22 154.70 392.50 148.86 384.27 Z" />
<path fill="#201b18" opacity="1.00" d=" M 330.98 416.22 C 342.83 406.14 354.29 395.61 366.21 385.62 L 366.36 386.92 C 358.21 399.57 353.31 414.08 350.74 428.85 C 345.02 432.35 340.27 437.14 334.99 441.23 C 333.63 432.89 331.95 424.61 330.98 416.22 Z" />
<path fill="#201b18" opacity="1.00" d=" M 105.21 393.28 C 106.32 394.80 107.48 396.28 108.65 397.76 C 110.27 396.69 111.72 394.74 113.89 395.06 C 117.26 396.52 119.95 399.13 122.81 401.36 C 116.68 404.55 109.47 404.99 102.75 406.36 C 103.12 401.92 103.96 397.54 105.21 393.28 Z" />
<path fill="#201b18" opacity="1.00" d=" M 185.42 404.11 C 190.85 406.68 195.83 410.07 201.03 413.07 C 202.86 414.20 205.28 415.31 205.01 417.91 C 205.82 429.98 206.93 442.04 207.48 454.13 C 202.40 447.40 197.72 440.36 193.17 433.28 C 191.71 423.30 189.23 413.46 185.42 404.11 Z" />
<path fill="#201b18" opacity="1.00" d=" M 106.15 448.97 C 108.88 447.75 111.73 446.80 114.64 446.11 C 122.25 453.29 128.58 461.75 136.53 468.57 C 139.17 470.74 141.59 473.18 143.81 475.78 C 146.18 479.99 149.68 483.46 153.40 486.48 C 156.86 487.38 160.47 487.30 164.01 487.69 C 182.02 489.36 200.03 490.92 218.03 492.64 C 224.67 493.27 231.15 491.36 237.69 490.58 C 246.20 489.51 254.63 487.61 263.21 487.13 C 261.81 487.77 260.40 488.42 258.92 488.88 C 248.62 491.80 238.44 495.14 228.19 498.24 C 224.83 499.19 221.53 500.58 218.00 500.73 C 191.68 500.18 165.34 500.06 139.01 499.63 C 136.93 499.81 135.59 497.99 134.21 496.75 C 124.76 487.22 115.50 477.44 105.74 468.25 C 98.29 469.07 91.25 472.15 83.88 473.51 C 79.81 468.91 75.96 463.92 73.79 458.12 C 81.52 455.94 89.17 453.43 97.00 451.58 C 104.29 456.11 112.02 459.91 120.01 463.06 C 115.19 458.56 110.52 453.90 106.15 448.97 Z" />
</g>
<g id="#6d6657ff">
<path fill="#6d6657" opacity="1.00" d=" M 469.45 11.39 C 471.62 10.61 474.12 12.61 473.65 14.92 C 473.38 17.33 469.93 18.55 468.30 16.64 C 466.57 15.13 467.34 12.13 469.45 11.39 Z" />
<path fill="#6d6657" opacity="1.00" d=" M 70.32 13.29 C 72.59 11.31 76.61 13.15 76.70 16.12 C 77.24 19.38 72.94 21.93 70.37 19.78 C 68.12 18.35 68.10 14.76 70.32 13.29 Z" />
<path fill="#6d6657" opacity="1.00" d=" M 301.51 13.62 C 309.12 11.57 317.63 17.10 318.75 24.91 C 320.21 32.09 315.12 39.72 307.94 41.15 C 300.46 43.07 292.22 37.64 290.96 30.05 C 289.35 22.88 294.38 15.19 301.51 13.62 M 302.30 19.51 C 296.33 21.04 294.56 29.76 299.53 33.46 C 304.07 37.72 312.44 34.28 312.72 28.09 C 313.59 22.53 307.59 17.70 302.30 19.51 Z" />
<path fill="#6d6657" opacity="1.00" d=" M 201.12 60.28 C 208.51 58.55 216.42 64.37 216.92 71.93 C 217.78 78.65 212.63 85.34 205.94 86.30 C 198.82 87.71 191.35 82.14 190.63 74.93 C 189.60 68.27 194.53 61.49 201.12 60.28 M 201.29 68.41 C 197.69 69.88 197.14 75.44 200.30 77.66 C 203.10 79.95 207.96 78.58 208.89 75.00 C 210.58 70.74 205.29 66.12 201.29 68.41 Z" />
<path fill="#6d6657" opacity="1.00" d=" M 353.15 73.32 C 357.00 71.90 361.61 74.76 361.54 78.99 C 361.85 83.81 355.71 87.18 351.85 84.23 C 347.75 81.71 348.53 74.77 353.15 73.32 Z" />
<path fill="#6d6657" opacity="1.00" d=" M 273.61 111.21 C 273.85 111.24 274.33 111.30 274.57 111.33 C 276.63 116.29 278.91 121.17 280.60 126.28 C 276.24 126.31 271.89 126.31 267.54 126.27 C 269.24 121.13 271.52 116.20 273.61 111.21 Z" />
<path fill="#6d6657" opacity="1.00" d=" M 288.71 139.39 C 294.08 137.28 299.52 135.33 304.88 133.17 C 304.67 136.68 304.49 140.18 304.27 143.69 C 304.06 146.40 303.84 149.12 303.66 151.84 C 301.85 150.43 300.05 149.02 298.29 147.56 C 295.05 144.89 291.68 142.36 288.71 139.39 Z" />
<path fill="#6d6657" opacity="1.00" d=" M 252.14 149.61 C 254.19 145.36 255.90 140.93 258.32 136.87 C 261.38 140.24 264.68 143.40 267.41 147.06 C 262.85 148.34 258.23 149.42 253.59 150.38 C 253.30 150.44 252.72 150.56 252.43 150.62 C 252.35 150.37 252.21 149.86 252.14 149.61 Z" />
<path fill="#6d6657" opacity="1.00" d=" M 262.64 159.26 C 269.70 154.80 278.92 155.08 285.97 159.43 C 291.32 162.53 295.91 166.80 299.67 171.69 C 305.20 178.79 309.86 186.70 312.57 195.32 C 314.95 202.73 312.66 210.44 311.89 217.92 C 311.00 226.90 310.69 236.02 311.86 244.99 C 312.53 250.93 314.71 256.57 315.43 262.50 C 315.80 265.90 316.02 269.46 314.65 272.68 C 311.74 279.85 307.07 286.10 302.51 292.29 C 298.75 297.21 294.89 302.07 290.85 306.77 C 285.35 313.07 279.90 319.44 274.03 325.41 C 267.79 318.80 261.75 312.01 255.87 305.08 C 252.59 301.26 249.45 297.32 246.40 293.32 C 241.09 286.07 235.27 278.79 232.63 270.07 C 231.65 260.61 235.59 251.75 236.70 242.52 C 236.86 240.46 236.93 238.41 236.94 236.35 C 237.01 227.85 236.81 219.30 235.25 210.92 C 234.59 205.76 233.88 200.40 235.53 195.34 C 238.26 186.71 242.92 178.78 248.49 171.67 C 252.35 166.68 257.05 162.26 262.64 159.26 M 262.97 167.02 C 254.31 174.71 248.03 184.79 243.45 195.35 C 241.20 200.17 240.59 205.79 242.14 210.92 C 245.15 218.63 254.23 221.94 256.80 229.90 C 263.12 245.62 268.00 261.86 273.20 277.96 C 273.52 278.66 273.88 279.35 274.29 280.01 C 279.13 264.71 283.87 249.36 289.55 234.34 C 290.79 231.34 291.77 228.20 293.53 225.46 C 297.36 220.72 302.90 217.32 305.63 211.71 C 307.43 206.94 307.13 201.45 305.22 196.75 C 302.01 188.54 297.41 180.90 291.91 174.02 C 287.83 169.12 283.15 164.16 276.88 162.23 C 271.75 160.63 266.75 163.86 262.97 167.02 M 240.58 217.18 C 242.42 227.05 245.54 236.95 244.53 247.10 C 243.64 254.82 241.25 262.31 240.64 270.07 C 240.23 274.16 242.83 277.66 244.78 281.02 C 253.47 294.02 263.73 305.87 274.08 317.57 C 283.41 307.01 292.64 296.30 300.78 284.78 C 303.43 280.78 306.61 276.76 307.46 271.94 C 307.43 261.44 302.82 251.45 303.40 240.90 C 303.85 232.88 306.07 225.11 307.47 217.24 C 302.11 220.80 298.08 226.56 297.25 233.02 C 296.17 243.63 297.40 254.37 296.61 265.00 C 292.63 275.06 287.39 284.62 281.96 293.97 C 279.63 297.66 277.55 301.71 273.97 304.36 C 271.94 302.58 270.19 300.51 268.79 298.21 C 263.10 289.26 258.16 279.84 253.65 270.24 C 252.51 267.61 250.97 264.97 251.14 262.00 C 251.14 253.31 251.20 244.63 251.15 235.95 C 251.11 228.40 246.84 221.27 240.58 217.18 Z" />
<path fill="#6d6657" opacity="1.00" d=" M 272.08 169.12 C 273.11 168.79 274.16 168.21 275.27 168.60 C 275.64 169.67 275.85 170.78 275.92 171.93 C 273.67 173.37 271.67 171.59 272.08 169.12 Z" />
<path fill="#6d6657" opacity="1.00" d=" M 216.16 175.09 C 221.52 175.29 226.85 175.79 232.18 176.41 C 229.30 181.61 225.83 186.50 222.21 191.21 C 220.15 185.85 218.26 180.43 216.16 175.09 Z" />
<path fill="#6d6657" opacity="1.00" d=" M 315.74 175.10 C 321.57 175.21 327.42 175.31 333.24 175.74 C 330.35 181.01 326.92 185.98 323.52 190.93 C 321.08 185.58 318.15 180.46 315.74 175.10 Z" />
<path fill="#6d6657" opacity="1.00" d=" M 192.15 184.25 C 197.04 183.83 201.94 183.49 206.84 183.19 C 204.62 187.43 203.38 192.22 200.55 196.11 C 197.84 192.09 194.90 188.24 192.15 184.25 Z" />
<path fill="#6d6657" opacity="1.00" d=" M 343.79 187.67 C 347.49 187.94 351.19 188.38 354.90 188.65 C 353.09 192.18 350.24 195.01 347.61 197.92 C 346.31 194.51 344.87 191.16 343.79 187.67 Z" />
<path fill="#6d6657" opacity="1.00" d=" M 272.38 190.26 C 273.43 190.25 274.46 190.38 275.47 190.65 C 275.63 191.70 275.77 192.75 275.88 193.81 C 274.68 194.17 273.44 194.58 272.23 194.00 C 272.28 192.75 272.33 191.51 272.38 190.26 Z" />
<path fill="#6d6657" opacity="1.00" d=" M 517.22 190.22 C 520.99 187.77 526.35 191.89 525.02 196.14 C 524.36 199.71 519.65 201.56 516.76 199.32 C 513.50 197.28 513.78 191.91 517.22 190.22 Z" />
<path fill="#6d6657" opacity="1.00" d=" M 267.19 195.09 C 269.01 197.23 270.61 199.64 272.91 201.31 C 276.81 202.06 278.59 197.46 280.84 195.07 C 279.59 198.79 278.00 202.50 275.39 205.48 C 274.85 205.55 273.77 205.68 273.23 205.75 C 270.14 202.94 268.72 198.86 267.19 195.09 Z" />
<path fill="#6d6657" opacity="1.00" d=" M 328.97 195.04 C 332.63 197.64 336.24 200.29 339.79 203.05 C 337.24 206.38 334.72 209.73 332.47 213.27 C 331.35 213.84 330.24 214.42 329.11 214.96 C 329.11 208.32 328.53 201.68 328.97 195.04 Z" />
<path fill="#6d6657" opacity="1.00" d=" M 171.86 211.63 C 177.08 207.34 182.48 203.26 187.74 199.01 C 187.81 199.76 187.94 201.27 188.01 202.02 C 183.07 204.72 179.48 209.16 175.58 213.11 C 174.34 212.62 173.10 212.12 171.86 211.63 Z" />
<path fill="#6d6657" opacity="1.00" d=" M 205.55 203.96 C 208.56 202.17 211.65 200.50 214.76 198.88 C 215.18 201.47 215.60 204.06 216.01 206.66 C 212.53 205.70 209.06 204.74 205.55 203.96 Z" />
<path fill="#6d6657" opacity="1.00" d=" M 367.37 204.86 C 370.77 206.79 374.06 208.88 377.31 211.05 C 375.34 212.98 373.32 214.85 371.26 216.68 C 369.90 216.18 368.56 215.63 367.27 215.01 C 367.29 211.63 367.33 208.25 367.37 204.86 Z" />
<path fill="#6d6657" opacity="1.00" d=" M 272.23 219.73 C 272.45 218.20 271.62 215.16 274.09 215.40 C 276.47 214.80 277.60 218.55 275.67 219.63 C 274.52 219.71 273.37 219.74 272.23 219.73 Z" />
<path fill="#6d6657" opacity="1.00" d=" M 266.92 219.77 C 269.59 222.21 271.67 225.19 274.01 227.93 C 276.48 225.33 278.49 222.33 281.07 219.82 C 279.13 224.98 276.36 229.78 274.18 234.85 C 271.58 229.91 269.17 224.87 266.92 219.77 Z" />
<path fill="#6d6657" opacity="1.00" d=" M 351.04 225.83 C 354.09 228.47 356.29 231.89 358.94 234.90 C 355.46 236.36 351.97 237.83 348.38 239.01 C 349.31 234.63 350.08 230.21 351.04 225.83 Z" />
<path fill="#6d6657" opacity="1.00" d=" M 207.74 239.75 C 210.96 236.21 214.49 232.97 218.04 229.76 C 218.22 235.44 218.39 241.12 218.22 246.80 L 217.76 247.15 C 214.42 244.69 211.05 242.25 207.74 239.75 Z" />
<path fill="#6d6657" opacity="1.00" d=" M 333.45 235.26 C 336.65 238.27 339.84 241.30 342.86 244.49 C 339.57 246.21 336.32 248.01 333.11 249.89 C 333.06 245.01 333.41 240.14 333.45 235.26 Z" />
<path fill="#6d6657" opacity="1.00" d=" M 187.04 247.60 C 191.13 243.82 194.82 239.63 198.84 235.77 C 199.93 242.22 201.30 248.64 202.02 255.15 C 196.97 252.74 191.82 250.50 187.04 247.60 Z" />
<path fill="#6d6657" opacity="1.00" d=" M 352.29 243.83 C 355.73 247.65 358.84 251.76 361.96 255.85 C 357.01 257.57 352.00 259.09 347.02 260.73 C 348.67 255.06 350.51 249.46 352.29 243.83 Z" />
<path fill="#6d6657" opacity="1.00" d=" M 199.20 290.00 C 201.02 284.74 202.08 279.22 204.30 274.11 C 207.01 278.39 210.75 281.98 213.03 286.52 C 208.41 287.64 203.91 289.28 199.20 290.00 Z" />
<path fill="#6d6657" opacity="1.00" d=" M 322.62 276.01 C 324.96 280.30 326.36 285.03 327.99 289.63 C 322.95 289.68 317.92 290.19 312.88 290.23 C 315.92 285.35 319.49 280.83 322.62 276.01 Z" />
<path fill="#6d6657" opacity="1.00" d=" M 334.02 289.74 C 336.59 286.05 338.70 282.02 341.71 278.65 C 343.74 282.62 346.02 286.46 347.73 290.58 C 343.15 290.48 338.59 290.06 334.02 289.74 Z" />
<path fill="#6d6657" opacity="1.00" d=" M 223.78 279.59 C 228.48 283.35 231.78 288.53 236.01 292.78 C 231.10 293.28 226.16 293.51 221.23 293.74 C 222.09 289.02 222.77 284.28 223.78 279.59 Z" />
<path fill="#6d6657" opacity="1.00" d=" M 181.02 292.23 C 182.72 291.12 184.40 289.97 186.11 288.85 C 183.06 295.83 180.15 302.86 177.18 309.88 C 190.26 323.02 203.31 336.19 216.44 349.28 C 214.32 367.48 212.36 385.71 210.49 403.94 C 200.63 399.11 191.11 393.59 181.47 388.37 C 180.78 385.95 181.49 383.39 181.82 380.97 C 183.71 371.34 184.98 361.59 186.93 351.97 C 192.21 356.98 197.48 362.00 202.61 367.18 C 201.72 370.76 200.78 374.34 199.79 377.91 C 198.16 377.42 195.72 378.03 194.79 376.26 C 193.68 373.42 193.22 370.34 191.64 367.69 C 190.42 371.44 189.15 375.21 188.48 379.11 C 192.31 382.66 197.74 384.22 202.28 386.83 C 204.28 380.10 205.72 373.21 207.67 366.47 C 208.01 364.87 208.66 363.27 208.47 361.62 C 206.16 358.00 203.02 355.02 200.34 351.68 C 188.64 337.74 176.69 324.00 165.08 309.98 C 169.48 305.41 174.05 301.02 178.51 296.51 C 179.74 295.34 180.41 293.77 181.02 292.23 Z" />
<path fill="#6d6657" opacity="1.00" d=" M 38.40 316.58 C 41.69 313.77 47.41 316.66 46.94 320.99 C 47.20 325.07 41.91 327.72 38.69 325.30 C 35.65 323.46 35.53 318.62 38.40 316.58 Z" />
<path fill="#6d6657" opacity="1.00" d=" M 294.69 317.01 C 299.13 317.48 303.68 317.74 307.91 319.28 C 304.87 322.12 301.92 325.05 298.97 327.98 C 297.29 324.43 296.03 320.70 294.69 317.01 Z" />
<path fill="#6d6657" opacity="1.00" d=" M 281.26 332.66 C 286.30 332.69 291.35 332.70 296.38 333.08 C 293.89 337.31 291.43 341.63 288.21 345.36 C 285.88 341.13 283.29 337.04 281.26 332.66 Z" />
<path fill="#6d6657" opacity="1.00" d=" M 312.36 339.53 C 318.34 336.68 326.11 340.56 327.49 347.02 C 329.07 352.87 324.90 359.39 318.92 360.42 C 313.30 361.69 307.23 357.73 306.05 352.11 C 304.75 347.10 307.63 341.52 312.36 339.53 M 313.27 345.37 C 309.99 347.61 310.50 353.20 314.12 354.83 C 318.27 357.27 323.74 352.36 321.83 347.97 C 320.79 344.51 316.06 343.15 313.27 345.37 Z" />
<path fill="#6d6657" opacity="1.00" d=" M 347.71 359.74 C 356.52 353.67 365.23 347.47 373.92 341.22 C 375.35 351.38 377.69 361.47 378.29 371.70 C 373.76 376.32 369.91 381.52 366.36 386.92 L 366.21 385.62 C 354.29 395.61 342.83 406.14 330.98 416.22 C 331.95 424.61 333.63 432.89 334.99 441.23 C 325.23 449.70 315.61 458.36 305.97 466.96 C 304.92 467.79 303.79 468.51 302.68 469.25 C 305.30 463.29 309.33 458.11 312.54 452.47 C 316.31 445.94 320.66 439.76 324.19 433.10 C 321.80 428.71 319.17 424.45 316.85 420.02 C 323.12 415.11 328.74 409.43 334.70 404.15 C 333.53 394.16 332.18 384.19 330.88 374.22 C 330.72 373.31 330.41 371.48 330.25 370.57 C 331.65 369.16 333.08 367.77 334.51 366.40 C 338.43 373.70 342.51 380.94 346.69 388.11 C 353.41 381.68 360.16 375.28 366.83 368.79 C 365.64 364.73 364.37 360.70 362.89 356.74 C 361.51 360.53 360.79 364.55 359.19 368.26 C 356.38 371.64 352.53 373.98 349.25 376.88 C 347.99 371.91 346.13 367.09 345.17 362.05 C 345.73 361.02 346.81 360.44 347.71 359.74 Z" />
<path fill="#6d6657" opacity="1.00" d=" M 513.45 342.52 C 515.33 340.84 518.38 341.82 519.27 344.08 C 520.79 346.94 516.92 350.58 514.16 348.82 C 511.71 347.79 511.30 344.07 513.45 342.52 Z" />
<path fill="#6d6657" opacity="1.00" d=" M 223.26 419.36 C 226.20 418.11 229.69 420.67 228.86 423.91 C 228.77 427.79 222.38 428.52 221.22 424.98 C 220.09 422.94 221.23 420.30 223.26 419.36 Z" />
<path fill="#6d6657" opacity="1.00" d=" M 134.19 441.89 C 139.88 445.10 145.38 448.69 150.73 452.45 C 147.87 455.85 145.29 459.47 142.59 463.00 C 139.52 456.08 136.91 448.95 134.19 441.89 Z" />
<path fill="#6d6657" opacity="1.00" d=" M 228.07 444.06 C 234.40 450.23 241.30 455.77 247.51 462.07 C 243.41 465.00 239.25 467.96 234.60 469.97 C 232.56 461.30 229.50 452.85 228.07 444.06 Z" />
<path fill="#6d6657" opacity="1.00" d=" M 399.24 452.34 C 400.97 451.91 403.64 451.81 404.09 454.08 C 405.24 456.40 402.25 459.14 400.06 458.14 C 397.55 457.56 397.45 453.69 399.24 452.34 Z" />
<path fill="#6d6657" opacity="1.00" d=" M 171.13 454.09 C 182.84 457.52 194.41 461.45 206.00 465.25 C 202.82 470.37 198.90 474.98 195.57 480.00 C 192.67 478.48 191.10 475.44 188.82 473.21 C 182.77 466.98 177.22 460.29 171.13 454.09 Z" />
<path fill="#6d6657" opacity="1.00" d=" M 330.35 463.46 C 334.03 459.95 338.54 467.27 333.94 468.85 C 330.63 470.81 327.53 465.54 330.35 463.46 Z" />
<path fill="#6d6657" opacity="1.00" d=" M 136.53 468.57 C 141.96 468.18 147.33 469.12 152.69 469.82 C 151.43 473.22 150.16 476.61 148.88 480.01 C 147.20 478.59 145.48 477.20 143.81 475.78 C 141.59 473.18 139.17 470.74 136.53 468.57 Z" />
<path fill="#6d6657" opacity="1.00" d=" M 382.69 478.58 C 384.38 477.89 386.15 477.43 387.94 477.05 C 380.15 485.02 372.16 492.79 364.33 500.73 C 360.19 497.28 355.89 494.03 352.02 490.28 C 362.23 486.34 372.50 482.57 382.69 478.58 Z" />
<path fill="#6d6657" opacity="1.00" d=" M 407.42 480.33 C 409.06 478.01 413.17 480.37 412.00 482.98 C 411.69 485.41 409.01 484.72 407.31 484.74 C 406.69 483.31 405.99 481.55 407.42 480.33 Z" />
<path fill="#6d6657" opacity="1.00" d=" M 330.10 496.49 C 334.80 496.06 339.47 495.30 344.19 495.10 C 342.35 499.58 339.84 503.74 337.38 507.90 C 335.00 504.06 332.22 500.48 330.10 496.49 Z" />
<path fill="#6d6657" opacity="1.00" d=" M 236.14 500.27 C 240.68 500.27 245.22 500.36 249.76 500.32 C 247.89 503.59 246.52 507.19 244.10 510.14 C 241.49 506.81 238.64 503.68 236.14 500.27 Z" />
<path fill="#6d6657" opacity="1.00" d=" M 265.95 514.66 C 268.17 510.19 270.78 505.76 273.98 501.95 C 277.70 505.83 280.31 510.91 283.00 515.61 C 277.31 515.42 271.65 514.71 265.95 514.66 Z" />
</g>
<g id="#18370eff">
<path fill="#18370e" opacity="1.00" d=" M 238.03 136.13 C 250.05 122.53 262.05 108.91 274.07 95.31 C 287.49 108.77 300.89 122.25 314.28 135.73 C 311.02 138.48 308.05 141.63 304.27 143.69 C 304.49 140.18 304.67 136.68 304.88 133.17 C 299.52 135.33 294.08 137.28 288.71 139.39 C 291.68 142.36 295.05 144.89 298.29 147.56 C 293.78 151.09 290.10 155.49 285.97 159.43 C 278.92 155.08 269.70 154.80 262.64 159.26 C 259.01 156.98 256.37 153.56 253.59 150.38 C 258.23 149.42 262.85 148.34 267.41 147.06 C 264.68 143.40 261.38 140.24 258.32 136.87 C 255.90 140.93 254.19 145.36 252.14 149.61 C 247.02 145.55 242.50 140.86 238.03 136.13 M 273.61 111.21 C 271.52 116.20 269.24 121.13 267.54 126.27 C 271.89 126.31 276.24 126.31 280.60 126.28 C 278.91 121.17 276.63 116.29 274.57 111.33 C 274.33 111.30 273.85 111.24 273.61 111.21 Z" />
<path fill="#18370e" opacity="1.00" d=" M 335.84 136.00 C 341.45 133.75 347.17 131.78 352.83 129.65 C 352.22 134.04 351.53 138.41 350.88 142.80 C 341.59 144.86 331.94 144.55 322.50 143.89 C 326.65 140.78 331.40 138.64 335.84 136.00 Z" />
<path fill="#18370e" opacity="1.00" d=" M 196.53 130.36 C 203.95 132.37 211.33 134.54 218.73 136.61 L 218.87 136.66 C 220.44 139.07 221.95 141.52 223.37 144.02 C 215.25 144.52 207.03 144.62 198.99 143.27 C 198.20 138.96 197.34 134.66 196.53 130.36 Z" />
<path fill="#18370e" opacity="1.00" d=" M 203.09 164.41 C 213.58 161.68 224.53 164.03 234.98 165.79 L 235.18 165.85 C 239.79 167.35 244.49 168.83 248.49 171.67 C 242.92 178.78 238.26 186.71 235.53 195.34 C 233.88 200.40 234.59 205.76 235.25 210.92 C 235.25 211.68 235.23 213.21 235.22 213.98 C 229.01 211.06 222.66 208.39 216.01 206.66 C 215.60 204.06 215.18 201.47 214.76 198.88 C 211.65 200.50 208.56 202.17 205.55 203.96 C 199.77 202.83 193.93 201.65 188.01 202.02 C 187.94 201.27 187.81 199.76 187.74 199.01 C 182.48 203.26 177.08 207.34 171.86 211.63 C 173.10 212.12 174.34 212.62 175.58 213.11 C 172.63 216.05 169.57 219.94 165.02 220.00 C 159.52 219.82 154.43 217.47 149.29 215.74 C 167.59 200.77 186.02 185.97 204.37 171.05 C 203.94 168.84 203.52 166.62 203.09 164.41 M 216.16 175.09 C 218.26 180.43 220.15 185.85 222.21 191.21 C 225.83 186.50 229.30 181.61 232.18 176.41 C 226.85 175.79 221.52 175.29 216.16 175.09 M 192.15 184.25 C 194.90 188.24 197.84 192.09 200.55 196.11 C 203.38 192.22 204.62 187.43 206.84 183.19 C 201.94 183.49 197.04 183.83 192.15 184.25 Z" />
<path fill="#18370e" opacity="1.00" d=" M 309.10 167.16 C 316.28 165.43 323.49 163.60 330.92 163.35 C 336.44 163.22 342.66 162.45 347.38 166.00 C 347.02 168.42 346.65 170.85 346.25 173.27 C 367.31 188.57 388.71 203.42 409.74 218.76 C 397.04 221.17 383.48 221.32 371.26 216.68 C 373.32 214.85 375.34 212.98 377.31 211.05 C 374.06 208.88 370.77 206.79 367.37 204.86 C 367.33 208.25 367.29 211.63 367.27 215.01 C 360.82 210.35 353.24 206.14 345.03 206.72 C 340.32 207.75 337.19 212.09 332.47 213.27 C 334.72 209.73 337.24 206.38 339.79 203.05 C 336.24 200.29 332.63 197.64 328.97 195.04 C 328.53 201.68 329.11 208.32 329.11 214.96 C 323.70 217.34 317.77 218.20 311.89 217.92 C 312.66 210.44 314.95 202.73 312.57 195.32 C 309.86 186.70 305.20 178.79 299.67 171.69 C 302.57 169.73 305.68 168.03 309.10 167.16 M 315.74 175.10 C 318.15 180.46 321.08 185.58 323.52 190.93 C 326.92 185.98 330.35 181.01 333.24 175.74 C 327.42 175.31 321.57 175.21 315.74 175.10 M 343.79 187.67 C 344.87 191.16 346.31 194.51 347.61 197.92 C 350.24 195.01 353.09 192.18 354.90 188.65 C 351.19 188.38 347.49 187.94 343.79 187.67 Z" />
<path fill="#18370e" opacity="1.00" d=" M 186.61 219.57 C 189.47 218.07 192.61 216.38 195.95 216.93 C 200.92 217.70 205.50 219.94 210.09 221.88 C 219.48 225.85 228.14 231.26 236.94 236.35 C 236.93 238.41 236.86 240.46 236.70 242.52 C 233.43 242.92 230.23 242.15 227.00 241.82 C 223.70 242.67 221.00 244.93 218.22 246.80 C 218.39 241.12 218.22 235.44 218.04 229.76 C 214.49 232.97 210.96 236.21 207.74 239.75 C 211.05 242.25 214.42 244.69 217.76 247.15 C 204.81 256.68 192.59 267.23 179.02 275.88 C 174.83 278.84 169.51 278.91 165.01 281.14 C 163.47 281.82 161.93 282.52 160.38 283.19 C 167.05 270.31 174.03 257.59 180.81 244.76 C 175.89 241.33 170.98 237.91 166.03 234.53 C 172.58 229.14 179.21 223.76 186.61 219.57 M 187.04 247.60 C 191.82 250.50 196.97 252.74 202.02 255.15 C 201.30 248.64 199.93 242.22 198.84 235.77 C 194.82 239.63 191.13 243.82 187.04 247.60 Z" />
<path fill="#18370e" opacity="1.00" d=" M 342.64 221.59 C 345.18 220.44 348.09 218.36 350.91 219.96 C 362.01 225.38 371.34 233.82 382.51 239.13 C 378.26 241.83 373.97 244.46 369.70 247.14 C 372.08 250.69 374.47 254.24 377.04 257.66 C 376.51 257.99 375.46 258.65 374.94 258.98 C 368.00 260.97 361.05 262.98 353.95 264.25 C 351.28 264.56 347.97 265.36 345.96 263.04 C 336.95 254.32 325.24 249.25 315.34 241.72 C 314.30 240.89 312.32 239.32 313.91 238.06 C 322.68 231.29 332.90 226.76 342.64 221.59 M 351.04 225.83 C 350.08 230.21 349.31 234.63 348.38 239.01 C 351.97 237.83 355.46 236.36 358.94 234.90 C 356.29 231.89 354.09 228.47 351.04 225.83 M 333.45 235.26 C 333.41 240.14 333.06 245.01 333.11 249.89 C 336.32 248.01 339.57 246.21 342.86 244.49 C 339.84 241.30 336.65 238.27 333.45 235.26 M 352.29 243.83 C 350.51 249.46 348.67 255.06 347.02 260.73 C 352.00 259.09 357.01 257.57 361.96 255.85 C 358.84 251.76 355.73 247.65 352.29 243.83 Z" />
<path fill="#18370e" opacity="1.00" d=" M 222.73 261.52 C 225.85 260.73 229.10 260.98 232.20 261.81 C 232.27 264.56 232.29 267.32 232.63 270.07 C 235.27 278.79 241.09 286.07 246.40 293.32 C 241.24 300.94 233.99 307.19 225.78 311.30 C 224.98 307.43 224.17 303.55 223.32 299.69 C 213.42 301.45 203.51 303.13 193.60 304.79 C 195.06 293.53 196.50 282.27 198.01 271.02 C 205.94 267.14 214.09 263.52 222.73 261.52 M 199.20 290.00 C 203.91 289.28 208.41 287.64 213.03 286.52 C 210.75 281.98 207.01 278.39 204.30 274.11 C 202.08 279.22 201.02 284.74 199.20 290.00 M 223.78 279.59 C 222.77 284.28 222.09 289.02 221.23 293.74 C 226.16 293.51 231.10 293.28 236.01 292.78 C 231.78 288.53 228.48 283.35 223.78 279.59 Z" />
<path fill="#18370e" opacity="1.00" d=" M 315.43 262.50 C 321.81 265.55 327.44 269.86 333.38 273.64 C 337.01 276.16 341.64 275.44 345.77 275.04 C 348.42 284.60 351.13 294.15 353.77 303.71 C 344.70 302.46 335.66 301.07 326.55 300.17 C 325.06 302.60 323.48 304.98 321.88 307.34 C 319.25 304.58 316.98 301.44 313.86 299.19 C 310.29 296.56 306.28 294.61 302.51 292.29 C 307.07 286.10 311.74 279.85 314.65 272.68 C 316.02 269.46 315.80 265.90 315.43 262.50 M 322.62 276.01 C 319.49 280.83 315.92 285.35 312.88 290.23 C 317.92 290.19 322.95 289.68 327.99 289.63 C 326.36 285.03 324.96 280.30 322.62 276.01 M 334.02 289.74 C 338.59 290.06 343.15 290.48 347.73 290.58 C 346.02 286.46 343.74 282.62 341.71 278.65 C 338.70 282.02 336.59 286.05 334.02 289.74 Z" />
<path fill="#18370e" opacity="1.00" d=" M 235.61 320.49 C 242.18 315.11 249.50 310.72 255.87 305.08 C 261.75 312.01 267.79 318.80 274.03 325.41 C 279.90 319.44 285.35 313.07 290.85 306.77 C 296.18 307.99 301.67 308.92 306.65 311.28 C 309.84 312.81 312.97 314.50 316.30 315.72 C 306.80 329.88 297.36 344.07 287.87 358.23 C 274.10 345.18 260.28 332.18 246.65 318.98 C 242.97 319.44 239.28 319.95 235.61 320.49 M 294.69 317.01 C 296.03 320.70 297.29 324.43 298.97 327.98 C 301.92 325.05 304.87 322.12 307.91 319.28 C 303.68 317.74 299.13 317.48 294.69 317.01 M 281.26 332.66 C 283.29 337.04 285.88 341.13 288.21 345.36 C 291.43 341.63 293.89 337.31 296.38 333.08 C 291.35 332.70 286.30 332.69 281.26 332.66 Z" />
</g>
<g id="#393532ff">
<path fill="#393532" opacity="1.00" d=" M 103.47 253.52 C 104.59 251.94 106.14 250.76 107.81 249.81 C 105.60 256.18 103.12 262.47 100.80 268.80 C 112.25 278.00 123.96 286.90 135.29 296.24 C 132.03 301.29 130.00 306.98 127.22 312.29 C 126.55 313.74 125.67 315.17 125.45 316.78 C 126.25 317.90 127.30 318.81 128.34 319.71 C 136.97 326.73 145.48 333.89 153.87 341.20 C 152.35 347.60 150.83 354.01 148.77 360.26 C 145.44 358.41 141.36 357.80 138.04 360.01 C 139.11 356.07 140.28 352.12 140.84 348.07 C 139.63 345.48 137.18 343.76 135.24 341.75 C 127.80 334.48 120.38 327.19 113.12 319.75 C 113.62 313.26 115.97 306.93 115.65 300.41 C 105.50 292.38 94.44 285.49 84.32 277.41 C 90.61 269.37 97.25 261.62 103.47 253.52 Z" />
<path fill="#393532" opacity="1.00" d=" M 412.44 314.90 C 411.27 298.93 409.00 283.03 408.13 267.03 C 415.96 279.84 424.17 292.42 432.01 305.23 C 432.13 307.96 433.39 311.12 431.55 313.56 C 421.26 328.12 410.73 342.54 400.70 357.28 C 395.74 358.11 391.44 360.89 387.40 363.72 C 387.04 357.46 388.03 351.24 388.09 345.00 C 388.17 342.79 387.02 340.84 386.03 338.97 C 394.81 330.92 403.54 322.82 412.44 314.90 Z" />
<path fill="#393532" opacity="1.00" d=" M 158.67 306.79 C 166.11 301.93 173.47 296.93 181.02 292.23 C 180.41 293.77 179.74 295.34 178.51 296.51 C 174.05 301.02 169.48 305.41 165.08 309.98 C 176.69 324.00 188.64 337.74 200.34 351.68 C 203.02 355.02 206.16 358.00 208.47 361.62 C 208.66 363.27 208.01 364.87 207.67 366.47 C 205.72 373.21 204.28 380.10 202.28 386.83 C 197.74 384.22 192.31 382.66 188.48 379.11 C 189.15 375.21 190.42 371.44 191.64 367.69 C 193.22 370.34 193.68 373.42 194.79 376.26 C 195.72 378.03 198.16 377.42 199.79 377.91 C 200.78 374.34 201.72 370.76 202.61 367.18 C 197.48 362.00 192.21 356.98 186.93 351.97 C 184.98 361.59 183.71 371.34 181.82 380.97 C 181.49 383.39 180.78 385.95 181.47 388.37 C 191.11 393.59 200.63 399.11 210.49 403.94 C 212.36 385.71 214.32 367.48 216.44 349.28 C 229.16 346.50 241.88 343.63 254.52 340.49 C 259.79 351.84 265.30 363.12 270.02 374.71 C 265.35 380.23 261.23 386.17 256.83 391.90 C 255.95 393.03 254.94 394.20 253.44 394.43 C 249.02 395.52 244.49 396.08 240.02 396.91 C 237.13 387.77 235.40 378.31 232.98 369.05 C 237.81 366.42 242.65 363.79 247.77 361.77 C 248.95 366.74 250.47 371.66 251.02 376.77 C 250.21 376.89 248.60 377.15 247.79 377.27 C 246.40 374.93 245.08 372.54 243.79 370.13 C 241.90 371.04 240.03 372.01 238.21 373.05 C 239.85 378.61 241.50 384.17 243.31 389.68 C 247.13 388.54 251.20 387.84 254.69 385.84 C 258.14 382.32 260.58 377.96 263.38 373.93 C 259.37 365.29 254.97 356.84 250.70 348.33 C 241.85 352.00 232.79 355.26 224.14 359.37 C 222.88 363.04 223.80 367.13 223.59 370.97 C 223.88 377.22 222.59 383.82 225.22 389.74 C 227.71 395.66 230.05 401.65 232.40 407.63 C 233.10 409.15 233.61 410.87 234.81 412.10 C 237.13 413.46 240.25 413.82 241.66 416.38 C 245.01 421.39 248.00 426.64 251.41 431.62 C 252.78 433.89 254.76 436.14 254.57 438.97 C 254.42 446.07 254.02 453.17 254.28 460.27 C 257.82 452.43 260.08 444.08 263.20 436.07 C 264.07 433.53 265.38 430.69 263.87 428.10 C 260.64 421.21 257.36 414.33 254.32 407.34 C 257.55 404.92 260.25 401.62 264.00 400.01 C 266.57 400.44 268.97 401.53 271.44 402.33 C 282.49 398.82 293.28 394.47 304.13 390.37 C 306.21 394.74 308.17 399.18 309.80 403.75 C 301.71 410.34 293.59 416.87 285.56 423.51 C 282.99 425.13 283.63 428.39 283.52 430.97 C 283.82 444.11 283.18 457.28 283.96 470.41 C 284.85 469.10 285.75 467.80 286.32 466.32 C 290.07 456.75 293.77 447.16 297.54 437.60 C 298.32 435.24 300.14 433.50 302.05 432.02 C 307.03 428.08 311.58 423.60 316.85 420.02 C 319.17 424.45 321.80 428.71 324.19 433.10 C 320.66 439.76 316.31 445.94 312.54 452.47 C 309.33 458.11 305.30 463.29 302.68 469.25 C 303.79 468.51 304.92 467.79 305.97 466.96 C 315.61 458.36 325.23 449.70 334.99 441.23 C 340.27 437.14 345.02 432.35 350.74 428.85 C 350.62 429.72 350.39 431.45 350.28 432.31 C 352.20 429.01 353.95 425.60 356.18 422.49 C 362.15 420.42 365.55 414.25 371.26 411.56 C 368.51 419.97 362.50 426.86 359.75 435.28 C 372.02 424.51 381.95 411.32 394.29 400.63 C 393.01 406.72 390.04 412.25 387.95 418.07 C 387.39 419.27 387.58 420.59 387.76 421.86 C 384.55 428.86 381.35 435.95 379.69 443.52 C 387.55 432.08 397.24 422.05 407.18 412.42 C 410.98 413.72 414.90 412.12 418.69 411.59 C 427.55 410.12 436.30 408.02 445.21 406.98 C 440.48 416.51 435.15 425.75 429.82 434.97 C 425.18 435.29 420.52 435.47 415.92 436.21 C 421.07 438.05 426.27 441.09 431.94 440.08 C 436.12 439.46 440.32 438.81 444.56 439.14 C 438.32 447.37 431.06 454.74 423.66 461.92 C 437.33 456.63 450.16 449.13 461.45 439.77 C 466.83 442.08 468.16 448.19 471.06 452.71 C 467.91 464.64 459.07 474.10 449.59 481.54 C 440.30 488.73 429.28 493.26 417.99 496.26 C 435.79 495.60 453.92 492.40 469.65 483.66 C 469.14 486.36 468.91 489.17 467.81 491.72 C 463.47 494.46 458.33 495.55 453.70 497.71 C 444.64 501.93 434.37 500.87 424.82 503.09 C 427.32 504.94 430.14 506.42 432.16 508.86 C 427.68 507.86 423.23 506.72 418.98 504.99 C 417.17 504.42 415.14 503.08 413.34 504.38 C 408.51 507.38 404.89 511.93 400.32 515.30 C 393.07 521.14 384.03 524.72 374.70 525.00 L 371.30 525.00 C 362.65 524.61 354.08 522.53 346.28 518.77 C 340.10 516.04 334.43 512.23 328.06 509.95 C 323.39 508.20 318.25 509.00 313.70 510.71 C 301.55 515.22 290.26 522.73 277.07 523.94 C 264.55 524.96 253.01 519.07 241.92 514.10 C 235.95 511.52 229.54 508.04 222.84 509.83 C 207.69 513.70 193.63 521.64 177.91 523.23 C 170.02 524.15 162.25 520.78 156.47 515.56 C 152.75 512.50 149.97 508.42 146.00 505.69 C 141.88 506.54 138.30 509.13 134.08 509.76 C 123.70 511.63 112.63 512.29 102.60 508.43 C 90.93 504.14 80.47 496.99 71.30 488.67 C 68.01 485.52 64.62 482.36 62.21 478.47 L 62.03 476.66 C 75.53 487.92 92.75 493.77 110.00 496.02 C 114.77 496.67 119.58 497.15 124.39 496.81 C 109.01 493.21 94.58 485.19 83.88 473.51 C 91.25 472.15 98.29 469.07 105.74 468.25 C 115.50 477.44 124.76 487.22 134.21 496.75 C 135.59 497.99 136.93 499.81 139.01 499.63 C 165.34 500.06 191.68 500.18 218.00 500.73 C 221.53 500.58 224.83 499.19 228.19 498.24 C 238.44 495.14 248.62 491.80 258.92 488.88 C 260.40 488.42 261.81 487.77 263.21 487.13 C 254.63 487.61 246.20 489.51 237.69 490.58 C 231.15 491.36 224.67 493.27 218.03 492.64 C 200.03 490.92 182.02 489.36 164.01 487.69 C 160.47 487.30 156.86 487.38 153.40 486.48 C 149.68 483.46 146.18 479.99 143.81 475.78 C 145.48 477.20 147.20 478.59 148.88 480.01 C 150.16 476.61 151.43 473.22 152.69 469.82 C 147.33 469.12 141.96 468.18 136.53 468.57 C 128.58 461.75 122.25 453.29 114.64 446.11 C 111.73 446.80 108.88 447.75 106.15 448.97 C 98.17 439.96 90.90 430.19 85.55 419.36 C 83.72 415.46 81.92 411.45 81.25 407.16 C 80.61 403.40 82.79 399.96 82.86 396.28 C 82.28 395.61 81.65 394.98 80.99 394.41 C 86.50 389.15 92.31 384.22 97.69 378.82 C 99.41 383.99 102.09 388.81 105.21 393.28 C 103.96 397.54 103.12 401.92 102.75 406.36 C 109.47 404.99 116.68 404.55 122.81 401.36 C 133.40 410.34 143.37 420.06 152.63 430.40 C 156.76 435.01 160.56 439.91 163.93 445.10 C 158.15 422.91 145.46 403.22 131.36 385.42 C 133.49 380.15 133.57 374.17 136.57 369.25 C 137.22 376.33 141.68 382.18 146.90 386.67 C 147.39 386.07 148.37 384.87 148.86 384.27 C 154.70 392.50 159.81 401.22 165.36 409.64 C 166.20 410.66 166.89 412.14 168.32 412.43 C 172.10 413.20 176.00 413.25 179.85 413.19 C 184.83 419.51 189.21 426.27 193.17 433.28 C 197.72 440.36 202.40 447.40 207.48 454.13 C 206.93 442.04 205.82 429.98 205.01 417.91 C 205.28 415.31 202.86 414.20 201.03 413.07 C 195.83 410.07 190.85 406.68 185.42 404.11 C 181.83 395.44 177.17 387.20 171.36 379.82 C 173.51 374.57 171.94 368.72 172.31 363.21 C 172.21 358.47 173.43 353.56 171.91 348.95 C 167.44 334.91 163.08 320.84 158.67 306.79 M 223.26 419.36 C 221.23 420.30 220.09 422.94 221.22 424.98 C 222.38 428.52 228.77 427.79 228.86 423.91 C 229.69 420.67 226.20 418.11 223.26 419.36 M 134.19 441.89 C 136.91 448.95 139.52 456.08 142.59 463.00 C 145.29 459.47 147.87 455.85 150.73 452.45 C 145.38 448.69 139.88 445.10 134.19 441.89 M 228.07 444.06 C 229.50 452.85 232.56 461.30 234.60 469.97 C 239.25 467.96 243.41 465.00 247.51 462.07 C 241.30 455.77 234.40 450.23 228.07 444.06 M 399.24 452.34 C 397.45 453.69 397.55 457.56 400.06 458.14 C 402.25 459.14 405.24 456.40 404.09 454.08 C 403.64 451.81 400.97 451.91 399.24 452.34 M 171.13 454.09 C 177.22 460.29 182.77 466.98 188.82 473.21 C 191.10 475.44 192.67 478.48 195.57 480.00 C 198.90 474.98 202.82 470.37 206.00 465.25 C 194.41 461.45 182.84 457.52 171.13 454.09 M 330.35 463.46 C 327.53 465.54 330.63 470.81 333.94 468.85 C 338.54 467.27 334.03 459.95 330.35 463.46 M 382.69 478.58 C 372.50 482.57 362.23 486.34 352.02 490.28 C 355.89 494.03 360.19 497.28 364.33 500.73 C 372.16 492.79 380.15 485.02 387.94 477.05 C 386.15 477.43 384.38 477.89 382.69 478.58 M 407.42 480.33 C 405.99 481.55 406.69 483.31 407.31 484.74 C 409.01 484.72 411.69 485.41 412.00 482.98 C 413.17 480.37 409.06 478.01 407.42 480.33 M 330.10 496.49 C 332.22 500.48 335.00 504.06 337.38 507.90 C 339.84 503.74 342.35 499.58 344.19 495.10 C 339.47 495.30 334.80 496.06 330.10 496.49 M 236.14 500.27 C 238.64 503.68 241.49 506.81 244.10 510.14 C 246.52 507.19 247.89 503.59 249.76 500.32 C 245.22 500.36 240.68 500.27 236.14 500.27 M 265.95 514.66 C 271.65 514.71 277.31 515.42 283.00 515.61 C 280.31 510.91 277.70 505.83 273.98 501.95 C 270.78 505.76 268.17 510.19 265.95 514.66 Z" />
<path fill="#393532" opacity="1.00" d=" M 39.00 365.17 C 45.58 357.00 51.99 348.71 58.49 340.49 C 67.64 347.06 77.44 352.74 86.44 359.49 C 86.50 364.16 86.76 369.67 83.23 373.24 C 80.12 376.82 77.18 380.56 73.80 383.89 C 70.84 383.10 67.45 383.01 64.96 381.08 C 62.27 377.96 59.73 374.61 57.87 370.93 C 58.02 369.15 59.43 367.74 60.75 366.69 C 63.97 366.33 67.21 367.00 70.44 367.04 C 67.21 362.38 63.67 357.85 59.46 354.04 C 55.40 358.45 50.36 361.98 46.63 366.64 C 46.23 371.43 45.81 376.49 46.83 381.18 C 50.47 385.01 54.01 389.26 58.81 391.67 C 56.38 395.27 54.30 399.47 54.58 403.93 C 55.44 409.10 58.31 413.65 61.07 418.00 C 70.32 431.72 83.00 442.89 97.00 451.58 C 89.17 453.43 81.52 455.94 73.79 458.12 C 72.48 451.17 66.30 446.43 59.92 444.31 C 55.73 442.91 51.09 444.39 48.03 447.45 C 45.10 442.39 42.11 437.37 39.33 432.23 C 40.90 429.44 42.56 426.69 43.95 423.81 C 42.78 404.23 40.46 384.73 39.00 365.17 Z" />
<path fill="#393532" opacity="1.00" d=" M 100.05 349.16 C 100.77 349.16 102.22 349.16 102.94 349.16 C 103.51 353.63 103.95 358.11 104.07 362.62 C 102.76 363.32 101.48 364.08 100.25 364.92 C 100.19 359.67 100.24 354.41 100.05 349.16 Z" />
</g>
<g id="#ddd9beff">
<path fill="#ddd9be" opacity="1.00" d=" M 387.40 363.72 C 391.44 360.89 395.74 358.11 400.70 357.28 C 402.59 357.75 404.89 358.23 405.77 360.22 C 407.19 363.43 406.74 367.10 406.37 370.49 C 405.47 376.71 401.00 381.47 396.64 385.62 C 395.21 384.24 394.09 382.27 392.07 381.71 C 386.89 384.80 383.06 389.65 378.87 393.90 C 370.67 402.89 362.91 412.34 356.18 422.49 C 353.95 425.60 352.20 429.01 350.28 432.31 C 350.39 431.45 350.62 429.72 350.74 428.85 C 353.31 414.08 358.21 399.57 366.36 386.92 C 369.91 381.52 373.76 376.32 378.29 371.70 C 381.11 368.80 384.19 366.16 387.40 363.72 Z" />
<path fill="#ddd9be" opacity="1.00" d=" M 138.04 360.01 C 141.36 357.80 145.44 358.41 148.77 360.26 C 157.66 364.97 165.14 371.98 171.36 379.82 C 177.17 387.20 181.83 395.44 185.42 404.11 C 189.23 413.46 191.71 423.30 193.17 433.28 C 189.21 426.27 184.83 419.51 179.85 413.19 C 171.71 402.75 163.22 392.40 153.11 383.79 C 151.73 382.23 150.09 383.01 148.86 384.27 C 148.37 384.87 147.39 386.07 146.90 386.67 C 141.68 382.18 137.22 376.33 136.57 369.25 C 136.51 366.11 136.86 362.95 138.04 360.01 Z" />
<path fill="#ddd9be" opacity="1.00" d=" M 430.30 365.27 C 432.79 363.42 435.61 360.79 438.98 361.71 C 444.29 362.88 446.72 368.99 446.48 373.93 C 445.17 382.55 440.03 389.94 434.86 396.73 C 433.01 395.48 430.81 392.94 428.40 394.52 C 420.65 399.60 414.00 406.18 407.18 412.42 C 397.24 422.05 387.55 432.08 379.69 443.52 C 381.35 435.95 384.55 428.86 387.76 421.86 C 392.50 412.27 398.13 403.15 404.36 394.47 C 412.07 383.97 420.31 373.71 430.30 365.27 Z" />
<path fill="#ddd9be" opacity="1.00" d=" M 100.25 364.92 C 101.48 364.08 102.76 363.32 104.07 362.62 C 107.75 361.97 110.79 364.42 113.45 366.57 C 120.10 372.17 125.87 378.71 131.36 385.42 C 145.46 403.22 158.15 422.91 163.93 445.10 C 160.56 439.91 156.76 435.01 152.63 430.40 C 143.37 420.06 133.40 410.34 122.81 401.36 C 119.95 399.13 117.26 396.52 113.89 395.06 C 111.72 394.74 110.27 396.69 108.65 397.76 C 107.48 396.28 106.32 394.80 105.21 393.28 C 102.09 388.81 99.41 383.99 97.69 378.82 C 96.02 374.08 97.19 368.81 100.25 364.92 Z" />
<path fill="#ddd9be" opacity="1.00" d=" M 475.53 385.70 C 478.50 384.29 481.27 386.76 483.14 388.83 C 487.46 393.81 490.73 401.17 487.51 407.56 C 481.77 420.31 472.02 430.83 461.45 439.77 C 450.16 449.13 437.33 456.63 423.66 461.92 C 431.06 454.74 438.32 447.37 444.56 439.14 C 451.93 429.47 458.96 419.01 462.00 407.10 C 463.27 402.99 460.35 399.02 460.71 395.07 C 465.00 391.10 470.13 387.94 475.53 385.70 Z" />
<path fill="#ddd9be" opacity="1.00" d=" M 58.81 391.67 C 60.91 389.14 63.75 385.31 67.52 386.61 C 72.46 388.32 76.74 391.44 80.99 394.41 C 81.65 394.98 82.28 395.61 82.86 396.28 C 82.79 399.96 80.61 403.40 81.25 407.16 C 81.92 411.45 83.72 415.46 85.55 419.36 C 90.90 430.19 98.17 439.96 106.15 448.97 C 110.52 453.90 115.19 458.56 120.01 463.06 C 112.02 459.91 104.29 456.11 97.00 451.58 C 83.00 442.89 70.32 431.72 61.07 418.00 C 58.31 413.65 55.44 409.10 54.58 403.93 C 54.30 399.47 56.38 395.27 58.81 391.67 Z" />
<path fill="#ddd9be" opacity="1.00" d=" M 471.06 452.71 C 473.83 448.32 478.24 445.08 483.11 443.40 C 487.99 441.62 494.36 443.61 496.49 448.57 C 498.15 452.30 496.44 456.35 494.64 459.69 C 489.01 470.00 479.79 477.94 469.65 483.66 C 453.92 492.40 435.79 495.60 417.99 496.26 C 429.28 493.26 440.30 488.73 449.59 481.54 C 459.07 474.10 467.91 464.64 471.06 452.71 Z" />
<path fill="#ddd9be" opacity="1.00" d=" M 48.03 447.45 C 51.09 444.39 55.73 442.91 59.92 444.31 C 66.30 446.43 72.48 451.17 73.79 458.12 C 75.96 463.92 79.81 468.91 83.88 473.51 C 94.58 485.19 109.01 493.21 124.39 496.81 C 119.58 497.15 114.77 496.67 110.00 496.02 C 92.75 493.77 75.53 487.92 62.03 476.66 C 55.64 470.98 49.70 464.33 46.78 456.18 C 45.64 453.24 46.45 450.04 48.03 447.45 Z" />
</g>
</svg>
