<?xml version="1.0" encoding="UTF-8" ?>
<!DOCTYPE svg PUBLIC "-//W3C//DTD SVG 1.1//EN" "http://www.w3.org/Graphics/SVG/1.1/DTD/svg11.dtd">
<svg width="512pt" height="457pt" viewBox="0 0 512 457" version="1.1" xmlns="http://www.w3.org/2000/svg">
<g id="#3d3023ff">
<path fill="#3d3023" opacity="1.00" d=" M 232.80 0.00 L 237.16 0.00 C 224.57 9.54 214.91 22.94 209.92 37.93 C 206.56 48.09 205.82 58.96 207.00 69.56 C 217.09 54.21 229.35 40.22 243.67 28.70 C 257.30 17.86 273.39 9.36 290.87 7.25 C 297.38 6.35 303.97 6.70 310.47 7.43 C 296.09 13.54 282.99 23.97 276.13 38.25 C 271.64 47.33 270.33 57.65 270.98 67.67 C 282.90 55.61 296.45 44.66 312.28 38.21 C 321.21 34.54 331.20 33.23 340.65 35.56 C 327.34 41.22 315.74 51.25 309.27 64.31 C 305.74 71.19 303.92 78.81 303.00 86.45 C 322.20 73.79 345.29 62.94 368.84 67.53 C 355.67 70.81 342.86 77.65 334.90 88.94 C 331.29 93.78 329.07 99.47 327.46 105.24 C 341.08 99.85 356.91 97.08 370.76 103.25 C 362.18 105.29 353.54 108.90 347.74 115.81 C 343.42 120.70 341.33 127.09 340.57 133.47 C 352.86 130.69 365.80 129.98 378.09 133.20 C 371.06 135.48 365.42 140.88 362.49 147.61 C 359.31 154.32 358.24 161.76 357.60 169.08 C 365.18 163.80 374.61 161.63 383.73 163.22 C 380.32 164.80 376.68 166.31 374.25 169.31 C 369.45 174.98 368.33 182.97 369.29 190.13 C 369.90 194.67 372.75 198.46 376.19 201.32 C 378.48 196.85 381.21 192.24 385.78 189.76 C 389.72 187.32 394.54 187.40 398.99 187.85 C 394.59 191.39 389.31 195.74 389.68 202.00 C 390.18 209.13 397.42 213.64 404.00 214.17 C 411.03 214.71 418.10 214.25 425.15 214.41 C 424.40 211.36 423.79 208.28 423.25 205.19 C 428.53 210.45 436.27 214.29 443.78 211.72 C 445.71 211.36 447.87 208.87 445.79 207.27 C 442.84 205.06 438.94 204.90 435.65 203.41 C 429.76 201.12 425.05 196.27 423.02 190.27 C 425.84 192.04 428.63 194.10 431.96 194.78 C 436.54 195.78 441.26 195.62 445.90 196.21 C 448.91 202.78 450.87 209.77 452.34 216.84 C 454.07 224.97 459.13 231.75 464.01 238.27 C 450.32 233.61 436.40 229.25 421.95 227.81 C 409.51 226.51 396.48 226.53 384.97 221.00 C 374.71 216.18 367.16 207.25 361.04 197.97 C 347.10 177.20 334.77 155.35 319.66 135.38 C 314.91 129.18 310.27 122.85 304.61 117.43 C 291.80 105.11 276.31 95.79 259.89 89.12 C 247.55 84.19 234.41 80.17 220.98 81.00 C 201.92 82.01 182.99 85.30 164.64 90.53 C 151.27 94.48 138.06 99.66 126.59 107.70 C 113.36 117.69 102.61 130.62 93.46 144.35 C 74.07 174.37 62.61 210.60 66.56 246.53 C 58.05 245.28 50.67 240.17 45.25 233.67 C 33.74 220.08 28.54 202.08 28.14 184.49 C 31.56 192.34 36.72 199.35 43.19 204.96 C 32.08 184.73 26.01 161.18 29.00 138.07 C 30.09 130.03 32.46 121.31 39.38 116.30 C 38.20 128.65 38.99 142.17 46.89 152.36 C 45.90 138.12 47.02 123.67 51.19 109.98 C 56.16 92.65 66.60 77.00 80.77 65.84 C 75.20 78.11 73.93 92.14 77.10 105.23 C 82.14 90.28 89.05 75.94 97.87 62.85 C 111.68 41.89 131.68 24.09 156.11 16.91 C 144.97 30.48 137.01 47.90 139.20 65.80 C 152.87 44.29 170.74 24.84 193.06 12.13 C 205.20 5.22 218.86 1.01 232.80 0.00 M 188.86 42.86 C 176.01 52.76 165.61 66.66 162.07 82.69 C 168.24 82.08 174.43 81.66 180.56 80.75 C 182.43 70.04 185.94 59.63 190.95 49.97 C 193.18 45.44 196.15 41.32 198.28 36.73 C 194.89 38.36 191.78 40.50 188.86 42.86 M 240.21 57.29 C 236.16 61.53 232.36 66.14 229.88 71.49 C 234.08 72.79 238.32 73.97 242.61 74.97 C 244.18 69.20 246.09 63.46 249.40 58.43 C 252.27 53.62 256.56 49.96 260.18 45.76 C 252.41 47.11 245.68 51.80 240.21 57.29 M 274.88 82.68 C 278.40 84.66 282.01 86.45 285.74 87.97 C 287.28 79.69 291.33 72.19 296.89 65.92 C 287.48 67.65 278.26 73.36 274.88 82.68 M 111.12 103.20 C 116.77 100.36 122.35 97.35 127.70 93.96 C 123.85 85.42 123.06 75.77 125.53 66.73 C 115.84 76.04 110.04 89.68 111.12 103.20 M 303.21 101.33 C 305.42 104.66 307.93 107.78 310.58 110.76 C 315.23 100.92 322.14 92.43 330.04 85.02 C 319.91 88.01 310.34 93.46 303.21 101.33 M 91.66 100.77 C 89.24 105.57 87.09 110.61 86.28 115.95 C 85.69 120.53 85.70 125.62 88.66 129.45 C 92.29 126.12 95.77 122.63 99.09 118.99 C 97.21 116.44 95.05 113.98 94.08 110.92 C 93.07 107.59 92.57 104.13 91.66 100.77 M 319.99 126.00 C 321.65 127.96 323.55 129.70 325.63 131.23 C 329.47 125.02 334.12 119.34 339.97 114.91 C 332.06 115.16 323.82 118.75 319.99 126.00 M 65.41 128.94 C 62.24 139.25 58.80 151.99 65.83 161.47 C 69.12 156.79 72.09 151.90 74.98 146.97 C 72.68 144.61 70.15 142.35 68.68 139.35 C 67.13 136.04 66.41 132.43 65.41 128.94 M 335.18 148.20 C 336.74 151.95 338.54 155.60 340.64 159.09 C 343.96 154.06 347.53 149.06 352.46 145.47 C 353.15 144.57 355.16 143.98 354.44 142.58 C 347.53 141.17 340.43 143.69 335.18 148.20 M 43.30 166.02 C 43.84 173.18 44.78 180.50 47.99 187.01 C 50.13 191.44 53.43 195.81 58.43 197.10 C 59.71 192.90 60.98 188.69 61.86 184.39 C 54.22 179.91 48.27 173.25 43.30 166.02 Z" />
<path fill="#3d3023" opacity="1.00" d=" M 454.69 19.68 C 459.65 15.60 465.96 13.78 472.23 12.99 C 468.05 16.17 464.09 19.87 461.83 24.70 C 457.68 32.70 457.72 42.06 459.21 50.74 C 471.92 37.44 487.40 24.77 506.29 22.49 C 494.21 34.83 483.68 50.03 481.81 67.64 C 491.14 65.96 500.82 65.24 510.13 67.51 C 499.84 71.29 489.20 76.55 483.19 86.14 C 478.19 94.92 475.10 104.80 474.25 114.87 C 478.88 114.27 483.71 113.45 487.62 110.71 C 490.28 108.97 491.84 106.13 493.53 103.54 C 493.72 107.37 493.90 111.41 492.12 114.94 C 485.32 129.45 469.23 136.79 462.21 151.12 C 460.00 159.29 461.42 168.32 464.65 176.07 C 454.87 168.68 447.49 158.06 443.72 146.40 C 440.41 136.32 442.40 125.49 445.71 115.69 C 448.68 106.40 454.10 98.21 460.16 90.67 C 446.10 93.69 432.06 100.62 423.61 112.62 C 417.56 121.12 417.32 132.02 417.97 142.04 C 418.57 152.34 421.44 162.94 428.46 170.79 C 417.64 167.87 406.89 163.16 398.97 155.00 C 391.94 147.88 388.02 137.96 387.83 127.98 C 387.44 110.29 391.22 92.14 400.77 77.06 C 400.57 88.32 403.36 101.41 414.02 107.34 C 410.79 93.58 406.34 79.20 409.84 65.05 C 412.46 54.06 416.56 43.27 422.90 33.87 C 425.44 29.96 428.89 26.73 432.85 24.28 C 427.79 37.86 424.25 52.44 425.81 67.00 C 426.28 72.42 428.36 77.81 432.74 81.25 C 433.43 71.08 434.31 60.87 437.00 51.01 C 440.08 39.36 445.01 27.39 454.69 19.68 M 451.30 60.46 C 447.66 61.50 447.65 65.97 448.10 69.01 C 448.31 74.92 459.01 74.92 459.14 68.97 C 459.43 66.70 459.45 64.36 458.95 62.11 C 457.33 59.68 453.81 59.92 451.30 60.46 M 426.11 85.17 C 422.94 86.79 423.30 90.98 423.75 93.96 C 424.41 99.25 433.89 99.23 434.60 93.99 C 434.98 91.55 435.15 88.97 434.45 86.58 C 432.75 83.88 428.73 84.43 426.11 85.17 M 460.24 109.20 C 457.98 110.55 457.29 113.46 457.08 115.91 C 457.39 119.15 461.18 120.38 463.95 120.62 C 467.05 120.82 468.26 117.42 468.98 115.00 C 470.85 110.24 463.70 108.12 460.24 109.20 M 408.22 115.24 C 405.77 118.08 406.39 122.47 407.19 125.86 C 407.97 129.02 412.28 131.19 414.88 128.73 C 416.53 125.90 416.20 122.32 415.60 119.22 C 414.95 116.03 411.32 113.53 408.22 115.24 M 453.30 137.29 C 449.68 139.12 448.72 144.75 451.21 147.86 C 455.02 150.33 459.94 146.13 459.30 141.98 C 459.53 138.74 456.15 136.88 453.30 137.29 Z" />
<path fill="#3d3023" opacity="1.00" d=" M 177.30 139.02 C 176.98 127.01 182.93 114.81 192.96 108.09 C 188.94 120.82 187.88 134.91 192.14 147.71 C 193.01 151.15 195.82 153.36 198.82 154.92 C 195.95 159.53 190.21 161.77 184.95 161.66 C 182.42 161.71 180.24 159.93 179.40 157.62 C 176.97 151.75 177.41 145.24 177.30 139.02 Z" />
<path fill="#3d3023" opacity="1.00" d=" M 232.59 124.39 C 234.74 115.95 242.36 109.43 250.85 107.88 C 247.05 113.44 242.90 119.02 241.41 125.74 C 240.23 130.21 240.10 135.32 242.63 139.37 C 244.15 141.88 247.48 141.36 249.99 141.83 C 246.46 144.26 242.35 146.08 237.97 145.68 C 235.68 145.72 232.10 145.06 232.40 142.04 C 232.24 136.17 231.95 130.24 232.59 124.39 Z" />
<path fill="#3d3023" opacity="1.00" d=" M 137.67 159.57 C 137.11 145.06 140.89 129.85 150.91 118.95 C 149.50 124.97 146.89 130.75 146.59 137.00 C 145.65 150.74 150.19 164.68 158.25 175.75 C 161.52 180.50 167.01 183.00 172.62 183.62 C 169.37 189.16 165.58 197.17 158.04 196.79 C 153.75 197.09 151.04 193.25 148.83 190.18 C 142.75 181.07 138.94 170.44 137.67 159.57 Z" />
<path fill="#3d3023" opacity="1.00" d=" M 286.11 131.23 C 289.70 129.09 294.00 129.31 298.02 129.15 C 291.62 130.36 286.98 135.34 283.23 140.31 C 281.06 143.05 283.37 146.09 284.69 148.59 C 281.76 148.11 278.74 147.96 275.92 146.98 C 273.23 145.94 274.20 142.28 275.58 140.50 C 278.47 136.81 282.04 133.57 286.11 131.23 Z" />
<path fill="#3d3023" opacity="1.00" d=" M 106.52 178.00 C 107.60 165.32 114.22 154.14 119.79 142.99 C 117.78 162.01 116.92 181.91 123.65 200.15 C 126.53 208.25 131.75 215.20 137.29 221.66 C 141.64 226.62 147.29 230.58 153.86 231.85 C 151.98 238.18 147.56 245.94 140.03 245.78 C 133.39 246.19 129.06 240.30 124.86 236.10 C 115.60 225.26 108.65 212.08 106.21 197.95 C 104.83 191.34 106.18 184.64 106.52 178.00 Z" />
<path fill="#3d3023" opacity="1.00" d=" M 304.66 160.73 C 309.44 157.41 315.61 158.04 321.02 159.11 C 316.35 160.75 311.26 162.12 307.88 166.00 C 305.20 168.58 304.18 172.24 303.30 175.72 C 301.60 173.77 299.00 171.98 299.23 169.07 C 298.81 165.36 301.89 162.63 304.66 160.73 Z" />
<path fill="#3d3023" opacity="1.00" d=" M 480.32 169.44 C 481.95 173.12 483.55 176.92 483.70 181.00 C 484.11 184.99 481.82 188.50 480.06 191.88 C 477.53 188.17 475.07 184.41 472.56 180.69 C 476.57 178.14 479.56 174.20 480.32 169.44 Z" />
<path fill="#3d3023" opacity="1.00" d=" M 493.41 182.50 C 496.46 190.49 498.86 199.63 495.49 207.92 C 495.25 207.89 494.79 207.84 494.56 207.81 C 492.01 204.56 489.98 200.95 487.61 197.58 C 491.21 193.35 492.79 187.93 493.41 182.50 Z" />
<path fill="#3d3023" opacity="1.00" d=" M 314.61 192.50 C 316.26 189.03 320.52 188.33 323.98 188.34 C 328.13 188.06 332.20 189.05 336.07 190.46 C 331.15 190.84 325.86 190.79 321.48 193.42 C 318.54 195.25 318.19 199.02 317.15 202.02 C 315.89 199.01 313.96 195.89 314.61 192.50 Z" />
<path fill="#3d3023" opacity="1.00" d=" M 329.96 209.90 C 335.52 208.03 341.72 209.58 345.95 213.61 C 342.36 212.99 338.69 211.87 335.05 212.67 C 331.80 213.77 329.66 216.65 327.24 218.92 C 327.45 215.81 326.55 211.62 329.96 209.90 Z" />
<path fill="#3d3023" opacity="1.00" d=" M 502.66 218.27 C 504.97 215.38 506.84 212.19 508.39 208.84 C 510.07 215.60 510.59 222.81 508.34 229.50 C 506.36 225.80 504.53 222.02 502.66 218.27 Z" />
<path fill="#3d3023" opacity="1.00" d=" M 344.40 245.04 C 345.28 241.83 348.14 239.81 350.54 237.74 C 348.62 241.22 348.07 245.13 349.42 248.93 C 347.35 248.32 344.36 247.80 344.40 245.04 Z" />
<path fill="#3d3023" opacity="1.00" d=" M 350.63 255.52 C 354.27 250.91 358.02 246.21 363.07 243.06 C 358.32 250.26 353.45 257.73 352.24 266.48 C 350.83 271.85 353.05 277.07 354.83 282.04 C 352.39 281.51 349.55 281.25 347.97 279.05 C 345.85 276.23 344.65 272.68 344.55 269.16 C 345.02 264.10 347.66 259.53 350.63 255.52 Z" />
<path fill="#3d3023" opacity="1.00" d=" M 238.91 317.87 C 244.62 312.92 248.87 306.63 252.48 300.06 C 254.43 309.37 253.94 320.24 246.63 327.22 C 244.06 324.10 241.62 320.86 238.91 317.87 Z" />
<path fill="#3d3023" opacity="1.00" d=" M 99.93 314.07 C 103.03 315.61 105.97 317.45 108.79 319.45 C 107.76 322.81 104.43 326.14 106.29 329.75 C 107.23 332.14 108.21 334.52 108.99 336.97 C 106.94 334.38 104.85 331.81 103.09 329.01 C 101.21 326.49 104.40 323.99 105.35 321.74 C 103.59 319.15 101.74 316.62 99.93 314.07 Z" />
<path fill="#3d3023" opacity="1.00" d=" M 150.21 360.97 C 148.94 350.58 147.19 339.77 150.66 329.59 C 153.08 343.85 155.64 358.08 158.07 372.34 C 153.27 373.02 148.45 373.50 143.64 374.05 C 146.88 370.41 150.99 366.30 150.21 360.97 Z" />
<path fill="#3d3023" opacity="1.00" d=" M 472.59 353.59 C 480.03 352.33 488.14 350.57 493.31 344.59 C 491.35 352.02 486.33 358.12 480.41 362.83 C 478.69 359.08 475.73 356.17 472.59 353.59 Z" />
<path fill="#3d3023" opacity="1.00" d=" M 233.36 357.51 C 237.61 356.82 241.78 355.72 245.81 354.22 C 242.88 358.52 240.30 363.10 238.84 368.14 C 241.11 367.84 243.36 367.44 245.63 367.12 C 242.25 371.85 240.51 377.38 238.53 382.77 C 237.43 386.25 233.25 386.43 230.37 387.50 C 227.81 377.46 229.51 366.97 233.36 357.51 Z" />
<path fill="#3d3023" opacity="1.00" d=" M 309.22 363.07 C 317.70 358.65 327.34 363.56 334.54 368.33 C 334.59 368.96 334.69 370.20 334.74 370.83 C 331.08 370.84 327.51 370.03 324.13 368.69 C 319.39 366.82 314.26 366.74 309.30 365.89 C 309.28 365.19 309.24 363.78 309.22 363.07 Z" />
<path fill="#3d3023" opacity="1.00" d=" M 390.91 367.21 C 397.01 367.40 403.06 368.35 409.15 368.73 C 406.03 370.84 402.67 372.56 399.15 373.88 C 396.24 371.86 393.46 369.66 390.91 367.21 Z" />
<path fill="#3d3023" opacity="1.00" d=" M 483.94 370.58 C 487.96 370.28 491.88 369.16 495.25 366.90 C 494.40 373.09 491.23 378.56 487.67 383.57 C 487.31 379.03 486.10 374.60 483.94 370.58 Z" />
<path fill="#3d3023" opacity="1.00" d=" M 409.12 374.23 C 415.72 372.70 422.17 370.58 428.78 369.12 C 427.67 373.75 426.51 378.36 425.34 382.98 C 419.66 380.59 414.47 377.24 409.12 374.23 Z" />
<path fill="#3d3023" opacity="1.00" d=" M 112.74 370.46 C 116.56 371.07 120.38 371.70 124.19 372.39 C 121.59 374.98 119.02 377.60 116.45 380.22 C 115.27 376.95 114.17 373.64 112.74 370.46 Z" />
<path fill="#3d3023" opacity="1.00" d=" M 79.94 382.24 C 82.17 379.67 84.56 376.62 88.07 375.90 C 91.20 375.97 93.74 379.02 94.22 381.96 C 94.54 384.63 91.36 385.43 89.71 386.87 C 85.54 386.66 81.39 387.18 77.24 387.48 C 78.14 385.73 79.06 383.99 79.94 382.24 Z" />
<path fill="#3d3023" opacity="1.00" d=" M 289.05 380.37 C 298.64 375.90 309.69 379.14 319.12 382.52 C 317.56 386.08 313.41 386.63 309.97 386.69 C 303.58 386.76 296.68 387.33 290.91 384.02 C 289.36 383.45 289.41 381.69 289.05 380.37 Z" />
<path fill="#3d3023" opacity="1.00" d=" M 275.99 395.23 C 280.87 393.90 285.95 394.35 290.95 394.32 C 295.57 394.40 300.44 393.90 304.71 396.07 C 304.70 396.73 304.68 398.03 304.67 398.69 C 299.80 399.73 294.80 399.93 289.84 400.34 C 285.87 400.55 281.64 400.71 277.94 399.01 C 276.45 398.35 276.49 396.53 275.99 395.23 Z" />
</g>
<g id="#3e3846ff">
<path fill="#3e3846" opacity="1.00" d=" M 188.86 42.86 C 191.78 40.50 194.89 38.36 198.28 36.73 C 196.15 41.32 193.18 45.44 190.95 49.97 C 185.94 59.63 182.43 70.04 180.56 80.75 C 174.43 81.66 168.24 82.08 162.07 82.69 C 165.61 66.66 176.01 52.76 188.86 42.86 Z" />
<path fill="#3e3846" opacity="1.00" d=" M 240.21 57.29 C 245.68 51.80 252.41 47.11 260.18 45.76 C 256.56 49.96 252.27 53.62 249.40 58.43 C 246.09 63.46 244.18 69.20 242.61 74.97 C 238.32 73.97 234.08 72.79 229.88 71.49 C 232.36 66.14 236.16 61.53 240.21 57.29 Z" />
<path fill="#3e3846" opacity="1.00" d=" M 274.88 82.68 C 278.26 73.36 287.48 67.65 296.89 65.92 C 291.33 72.19 287.28 79.69 285.74 87.97 C 282.01 86.45 278.40 84.66 274.88 82.68 Z" />
<path fill="#3e3846" opacity="1.00" d=" M 111.12 103.20 C 110.04 89.68 115.84 76.04 125.53 66.73 C 123.06 75.77 123.85 85.42 127.70 93.96 C 122.35 97.35 116.77 100.36 111.12 103.20 Z" />
<path fill="#3e3846" opacity="1.00" d=" M 164.64 90.53 C 182.99 85.30 201.92 82.01 220.98 81.00 C 234.41 80.17 247.55 84.19 259.89 89.12 C 276.31 95.79 291.80 105.11 304.61 117.43 C 310.27 122.85 314.91 129.18 319.66 135.38 C 334.77 155.35 347.10 177.20 361.04 197.97 C 367.16 207.25 374.71 216.18 384.97 221.00 C 396.48 226.53 409.51 226.51 421.95 227.81 C 436.40 229.25 450.32 233.61 464.01 238.27 C 459.13 231.75 454.07 224.97 452.34 216.84 C 450.87 209.77 448.91 202.78 445.90 196.21 C 442.65 189.07 439.00 182.05 434.22 175.81 C 432.67 173.75 430.63 172.15 428.46 170.79 C 421.44 162.94 418.57 152.34 417.97 142.04 C 417.32 132.02 417.56 121.12 423.61 112.62 C 432.06 100.62 446.10 93.69 460.16 90.67 C 454.10 98.21 448.68 106.40 445.71 115.69 C 442.40 125.49 440.41 136.32 443.72 146.40 C 447.49 158.06 454.87 168.68 464.65 176.07 C 467.99 182.81 472.17 189.18 477.30 194.70 C 482.55 200.13 487.75 205.66 492.11 211.86 C 504.06 228.33 511.03 248.26 512.00 268.58 L 512.00 277.92 C 511.08 293.98 507.30 310.46 497.53 323.56 C 487.87 336.90 472.06 345.70 455.51 346.15 C 457.53 350.35 459.59 354.66 462.90 358.04 C 468.42 363.83 475.83 368.14 479.23 375.68 C 483.80 385.80 483.68 397.19 483.73 408.07 C 483.78 417.61 479.86 427.27 472.56 433.53 C 464.19 440.76 452.85 443.33 442.05 443.71 C 433.18 443.93 424.29 443.65 415.47 442.81 C 409.76 442.09 403.71 441.59 398.84 438.24 C 401.02 433.88 403.76 429.65 404.74 424.81 C 405.10 423.57 404.14 422.40 403.01 422.05 C 395.80 419.00 387.67 421.13 380.29 418.79 C 375.92 417.42 371.74 415.53 367.46 413.92 C 376.16 407.06 386.08 399.23 397.90 400.72 C 407.80 401.38 417.67 402.97 427.11 406.05 C 430.24 407.90 434.34 403.11 431.45 400.56 C 428.14 398.19 423.80 398.15 419.98 397.09 C 408.95 394.38 397.33 391.14 388.84 383.17 C 375.65 370.96 373.54 351.85 372.47 334.91 C 371.61 321.60 370.71 308.29 370.82 294.95 C 370.69 287.50 374.84 280.90 379.12 275.13 C 388.24 263.41 401.01 253.90 415.75 250.88 C 425.24 249.24 435.51 250.27 443.96 255.11 C 452.20 259.82 457.44 268.51 459.57 277.59 C 461.70 286.89 462.18 297.13 457.89 305.93 C 451.94 318.62 438.70 326.77 425.05 328.58 C 416.66 329.61 407.58 329.33 400.06 325.05 C 394.28 321.81 390.71 315.54 389.94 309.05 C 388.66 300.96 392.32 293.19 396.22 286.34 C 401.27 277.93 408.63 270.03 418.48 267.63 C 424.99 266.28 432.83 267.21 437.38 272.55 C 442.11 278.21 442.29 286.02 442.41 293.03 C 442.46 298.22 442.42 304.37 437.96 307.90 C 431.80 312.71 423.43 312.24 416.04 312.04 C 413.05 311.64 408.87 311.89 407.28 308.76 C 406.17 305.03 406.36 300.96 407.25 297.21 C 408.66 292.66 414.99 292.62 418.57 294.34 C 420.21 296.55 419.48 299.81 420.83 302.23 C 421.81 303.44 423.09 304.34 424.25 305.37 C 426.13 300.63 425.57 295.12 423.29 290.62 C 420.20 284.98 411.90 284.55 407.12 288.20 C 401.76 292.32 398.78 299.35 399.17 306.06 C 399.93 312.32 406.32 315.74 411.93 316.83 C 421.19 318.61 431.75 318.43 439.62 312.61 C 445.68 308.14 448.15 300.31 447.99 293.03 C 447.90 284.64 446.65 275.61 441.21 268.88 C 435.10 261.38 423.91 259.78 415.17 263.04 C 405.01 267.02 397.08 275.26 391.35 284.35 C 385.75 293.31 382.16 304.35 385.04 314.87 C 386.82 322.38 392.75 328.40 399.86 331.14 C 408.43 334.53 417.90 335.23 427.02 334.39 C 444.45 332.24 460.33 319.86 466.28 303.27 C 470.28 292.27 469.13 279.66 463.59 269.39 C 452.29 247.81 422.85 238.12 401.03 249.05 C 386.35 256.15 374.15 268.42 367.12 283.13 C 364.41 289.03 362.65 295.53 363.39 302.07 C 364.41 313.69 366.14 325.27 368.88 336.62 C 362.79 333.86 356.73 331.05 350.64 328.30 C 347.53 326.78 343.98 327.32 340.64 327.24 C 329.56 305.32 327.74 279.99 329.37 255.84 C 325.83 270.27 323.75 285.10 323.81 299.97 C 324.05 314.21 329.34 329.11 340.64 338.28 C 346.95 343.52 355.15 345.85 363.24 346.14 C 358.83 350.46 354.49 354.84 350.13 359.21 C 353.21 360.45 356.29 361.68 359.40 362.89 C 352.70 364.42 345.59 366.59 341.00 372.03 C 327.70 388.34 313.33 403.76 300.48 420.44 C 296.48 425.49 294.65 432.48 288.75 435.83 C 284.51 438.44 279.34 437.70 274.68 438.80 C 270.73 440.10 267.99 443.46 264.51 445.59 C 259.08 449.21 252.33 449.47 246.02 449.52 C 227.16 449.63 208.06 450.19 189.50 446.21 C 181.80 444.45 173.69 441.95 168.09 436.05 C 165.14 433.11 164.11 428.96 163.53 424.98 C 173.34 425.03 183.29 425.81 192.98 423.92 C 195.64 423.25 199.53 422.26 199.46 418.83 C 199.79 414.04 200.14 409.00 198.56 404.39 C 196.65 401.16 192.55 400.37 189.16 399.67 C 179.52 398.23 169.74 398.97 160.04 399.00 C 155.46 399.19 151.42 396.84 147.35 395.12 C 154.43 390.42 161.68 385.75 169.72 382.84 C 175.63 380.68 181.90 382.62 187.82 383.64 C 201.44 386.61 215.07 389.92 228.07 395.02 C 229.33 395.31 230.60 395.57 231.89 395.76 C 231.54 392.97 230.95 390.23 230.37 387.50 C 233.25 386.43 237.43 386.25 238.53 382.77 C 240.51 377.38 242.25 371.85 245.63 367.12 C 243.36 367.44 241.11 367.84 238.84 368.14 C 240.30 363.10 242.88 358.52 245.81 354.22 C 241.78 355.72 237.61 356.82 233.36 357.51 C 236.50 346.97 239.04 335.61 246.63 327.22 C 253.94 320.24 254.43 309.37 252.48 300.06 C 248.87 306.63 244.62 312.92 238.91 317.87 C 220.03 300.65 202.38 281.51 190.09 258.95 C 185.28 249.98 181.45 240.23 180.79 229.98 C 180.30 223.25 183.31 217.00 185.89 210.97 C 192.13 197.39 199.81 184.49 208.25 172.16 C 210.62 168.45 215.20 167.46 219.17 166.44 C 231.25 163.77 243.70 163.50 256.02 163.65 C 260.10 163.74 264.27 163.69 268.25 164.76 C 272.55 165.90 275.12 169.82 277.86 173.01 C 286.08 183.39 293.91 194.51 297.85 207.29 C 300.99 217.31 298.22 227.97 294.40 237.40 C 289.92 247.96 283.35 258.16 273.61 264.56 C 261.42 272.82 243.49 268.72 234.69 257.35 C 229.38 250.63 226.42 241.62 228.45 233.12 C 230.27 225.07 233.73 217.34 238.71 210.75 C 242.08 206.42 246.52 202.34 252.12 201.42 C 255.86 200.45 258.19 204.25 260.32 206.64 C 264.07 211.89 268.26 217.45 269.12 224.01 C 268.16 230.26 264.53 235.78 260.77 240.72 C 259.11 242.55 256.91 245.54 254.11 243.96 C 249.78 241.75 245.69 237.90 244.67 232.99 C 246.18 228.87 251.11 227.19 252.57 223.03 C 252.08 219.69 247.62 217.35 244.96 219.86 C 241.81 223.47 240.04 228.20 239.25 232.89 C 238.19 238.27 242.74 242.38 246.41 245.52 C 250.06 248.30 255.21 251.90 259.74 248.85 C 266.69 244.40 271.92 237.21 274.10 229.25 C 275.98 222.28 273.79 214.93 270.15 208.93 C 267.04 203.91 263.03 199.11 257.64 196.48 C 253.10 194.20 248.35 197.28 244.56 199.64 C 231.23 208.65 220.67 223.43 220.28 239.94 C 219.81 249.11 223.87 258.22 230.72 264.26 C 239.03 271.63 250.05 275.51 261.02 276.36 C 268.13 277.03 274.72 273.43 280.22 269.29 C 292.86 259.50 301.83 245.13 305.34 229.55 C 308.45 215.65 306.62 200.62 299.90 188.03 C 294.49 177.68 286.24 168.92 276.54 162.48 C 273.05 160.24 269.33 157.86 265.03 157.87 C 249.08 157.13 232.56 154.99 217.06 159.99 C 210.97 161.88 205.93 165.99 201.74 170.67 C 192.75 180.44 185.34 191.66 179.68 203.66 C 175.79 212.24 172.48 221.55 173.35 231.13 C 174.19 240.87 177.71 250.19 182.17 258.82 C 192.30 278.10 207.50 294.15 223.83 308.34 C 216.69 305.32 209.78 301.79 203.03 297.99 C 198.82 295.43 193.79 294.69 188.95 295.18 C 178.15 296.15 167.91 300.21 158.11 304.64 C 150.45 292.73 143.14 280.60 135.29 268.82 C 134.65 278.01 139.79 285.97 144.73 293.23 C 149.21 300.10 153.70 306.98 158.02 313.95 C 154.30 318.47 151.76 323.84 150.66 329.59 C 147.19 339.77 148.94 350.58 150.21 360.97 C 150.99 366.30 146.88 370.41 143.64 374.05 C 139.71 375.40 135.75 376.71 131.79 377.99 C 134.91 373.60 138.05 369.23 141.18 364.85 C 137.42 363.59 133.66 362.35 129.91 361.08 C 134.28 357.94 138.67 354.83 143.04 351.69 C 142.89 347.32 143.63 342.81 142.51 338.55 C 140.02 334.49 134.34 334.33 130.17 335.27 C 122.24 337.62 115.53 342.79 109.15 347.89 C 112.92 351.04 116.70 354.18 120.46 357.33 C 116.72 360.44 112.98 363.56 109.24 366.67 C 110.42 367.92 111.64 369.14 112.74 370.46 C 114.17 373.64 115.27 376.95 116.45 380.22 C 113.57 383.20 109.97 385.55 105.93 386.56 C 100.63 388.01 95.10 387.22 89.71 386.87 C 91.36 385.43 94.54 384.63 94.22 381.96 C 93.74 379.02 91.20 375.97 88.07 375.90 C 84.56 376.62 82.17 379.67 79.94 382.24 C 82.16 373.01 83.08 363.45 82.69 353.96 C 82.25 344.22 78.36 335.16 75.89 325.85 C 75.95 325.73 76.06 325.49 76.11 325.37 C 77.61 322.05 79.09 318.72 80.59 315.41 C 84.50 306.73 87.97 297.59 88.24 287.96 C 88.46 279.69 88.32 271.33 86.83 263.18 C 85.86 258.34 84.11 252.99 79.60 250.34 C 75.69 248.23 71.06 248.35 66.74 248.23 C 66.70 247.80 66.60 246.95 66.56 246.53 C 62.61 210.60 74.07 174.37 93.46 144.35 C 102.61 130.62 113.36 117.69 126.59 107.70 C 138.06 99.66 151.27 94.48 164.64 90.53 M 177.30 139.02 C 177.41 145.24 176.97 151.75 179.40 157.62 C 180.24 159.93 182.42 161.71 184.95 161.66 C 190.21 161.77 195.95 159.53 198.82 154.92 C 195.82 153.36 193.01 151.15 192.14 147.71 C 187.88 134.91 188.94 120.82 192.96 108.09 C 182.93 114.81 176.98 127.01 177.30 139.02 M 232.59 124.39 C 231.95 130.24 232.24 136.17 232.40 142.04 C 232.10 145.06 235.68 145.72 237.97 145.68 C 242.35 146.08 246.46 144.26 249.99 141.83 C 247.48 141.36 244.15 141.88 242.63 139.37 C 240.10 135.32 240.23 130.21 241.41 125.74 C 242.90 119.02 247.05 113.44 250.85 107.88 C 242.36 109.43 234.74 115.95 232.59 124.39 M 137.67 159.57 C 138.94 170.44 142.75 181.07 148.83 190.18 C 151.04 193.25 153.75 197.09 158.04 196.79 C 165.58 197.17 169.37 189.16 172.62 183.62 C 167.01 183.00 161.52 180.50 158.25 175.75 C 150.19 164.68 145.65 150.74 146.59 137.00 C 146.89 130.75 149.50 124.97 150.91 118.95 C 140.89 129.85 137.11 145.06 137.67 159.57 M 286.11 131.23 C 282.04 133.57 278.47 136.81 275.58 140.50 C 274.20 142.28 273.23 145.94 275.92 146.98 C 278.74 147.96 281.76 148.11 284.69 148.59 C 283.37 146.09 281.06 143.05 283.23 140.31 C 286.98 135.34 291.62 130.36 298.02 129.15 C 294.00 129.31 289.70 129.09 286.11 131.23 M 106.52 178.00 C 106.18 184.64 104.83 191.34 106.21 197.95 C 108.65 212.08 115.60 225.26 124.86 236.10 C 129.06 240.30 133.39 246.19 140.03 245.78 C 147.56 245.94 151.98 238.18 153.86 231.85 C 147.29 230.58 141.64 226.62 137.29 221.66 C 131.75 215.20 126.53 208.25 123.65 200.15 C 116.92 181.91 117.78 162.01 119.79 142.99 C 114.22 154.14 107.60 165.32 106.52 178.00 M 304.66 160.73 C 301.89 162.63 298.81 165.36 299.23 169.07 C 299.00 171.98 301.60 173.77 303.30 175.72 C 304.18 172.24 305.20 168.58 307.88 166.00 C 311.26 162.12 316.35 160.75 321.02 159.11 C 315.61 158.04 309.44 157.41 304.66 160.73 M 440.42 163.65 C 439.75 167.38 439.16 171.12 438.61 174.86 C 442.43 173.12 446.20 171.25 449.88 169.23 C 446.81 167.24 443.65 165.37 440.42 163.65 M 258.40 177.33 C 257.09 178.70 255.66 179.99 254.60 181.58 C 253.89 184.62 256.80 188.15 260.02 187.67 C 262.65 188.01 264.73 186.27 266.70 184.83 C 266.36 182.54 267.53 179.27 264.90 178.03 C 262.92 177.01 260.55 177.49 258.40 177.33 M 451.80 182.46 C 451.71 186.20 451.71 189.94 451.79 193.67 C 454.98 191.91 458.11 190.03 461.18 188.06 C 458.12 186.09 454.99 184.22 451.80 182.46 M 222.36 188.45 C 217.56 190.99 213.34 195.08 211.06 200.04 C 210.16 202.74 212.86 208.55 216.15 206.20 C 220.50 203.35 224.64 199.81 227.30 195.28 C 229.29 191.93 226.80 186.00 222.36 188.45 M 314.61 192.50 C 313.96 195.89 315.89 199.01 317.15 202.02 C 318.19 199.02 318.54 195.25 321.48 193.42 C 325.86 190.79 331.15 190.84 336.07 190.46 C 332.20 189.05 328.13 188.06 323.98 188.34 C 320.52 188.33 316.26 189.03 314.61 192.50 M 277.97 200.09 C 275.93 204.72 279.13 209.60 282.09 213.03 C 284.39 211.57 286.61 209.01 285.93 206.09 C 284.96 203.59 283.17 201.45 281.09 199.80 C 280.31 198.84 278.31 198.66 277.97 200.09 M 464.96 204.95 C 463.60 209.95 462.35 214.97 461.19 220.02 C 465.63 217.61 470.07 215.18 474.32 212.43 C 471.23 209.89 468.11 207.40 464.96 204.95 M 329.96 209.90 C 326.55 211.62 327.45 215.81 327.24 218.92 C 329.66 216.65 331.80 213.77 335.05 212.67 C 338.69 211.87 342.36 212.99 345.95 213.61 C 341.72 209.58 335.52 208.03 329.96 209.90 M 251.40 211.64 C 249.64 213.02 250.67 215.70 250.35 217.66 C 253.35 218.06 255.94 216.77 257.98 214.65 C 257.34 213.43 256.41 212.39 255.80 211.16 C 254.33 211.27 252.85 211.36 251.40 211.64 M 237.06 220.08 C 237.27 222.11 236.55 226.42 239.89 225.70 C 241.40 224.24 240.79 221.94 241.06 220.07 C 239.72 220.07 238.39 220.07 237.06 220.08 M 256.15 226.08 C 254.36 229.19 258.66 230.75 260.18 228.03 C 260.18 225.89 257.81 225.06 256.15 226.08 M 207.42 227.71 C 205.20 228.20 202.77 229.61 202.54 232.11 C 202.16 235.61 201.79 239.81 204.44 242.57 C 206.67 244.78 210.16 244.75 212.90 243.64 C 214.98 242.89 217.74 241.61 217.66 239.00 C 218.69 233.31 213.58 226.30 207.42 227.71 M 279.47 237.50 C 281.78 237.43 284.55 238.27 286.42 236.46 C 287.46 233.59 286.13 230.00 282.95 229.35 C 279.13 230.06 279.05 234.43 279.47 237.50 M 97.42 234.16 C 93.61 249.10 91.28 264.57 91.91 280.02 C 92.14 284.32 92.54 288.69 93.95 292.79 C 94.74 294.94 96.37 297.40 98.98 297.25 C 105.48 297.43 112.98 294.97 116.29 288.98 C 118.21 285.56 115.92 281.85 114.32 278.82 C 109.13 269.98 103.62 261.15 100.84 251.18 C 98.97 245.66 98.98 239.75 97.42 234.16 M 344.40 245.04 C 344.36 247.80 347.35 248.32 349.42 248.93 C 348.07 245.13 348.62 241.22 350.54 237.74 C 348.14 239.81 345.28 241.83 344.40 245.04 M 233.38 244.32 C 233.38 245.78 233.38 247.25 233.38 248.72 C 234.61 249.36 235.86 249.97 237.10 250.62 C 238.27 250.00 239.44 249.35 240.51 248.56 C 240.62 244.85 236.65 242.14 233.38 244.32 M 350.63 255.52 C 347.66 259.53 345.02 264.10 344.55 269.16 C 344.65 272.68 345.85 276.23 347.97 279.05 C 349.55 281.25 352.39 281.51 354.83 282.04 C 353.05 277.07 350.83 271.85 352.24 266.48 C 353.45 257.73 358.32 250.26 363.07 243.06 C 358.02 246.21 354.27 250.91 350.63 255.52 M 257.63 254.74 C 258.06 256.12 257.69 258.10 259.24 258.88 C 261.95 259.85 265.04 259.85 267.76 258.90 C 269.37 258.16 268.96 256.13 269.40 254.73 C 265.54 253.60 261.48 253.58 257.63 254.74 M 419.69 257.25 C 421.29 257.06 422.95 256.78 424.26 255.73 C 422.59 253.91 418.98 253.87 419.69 257.25 M 403.34 260.04 C 403.33 260.71 403.32 262.06 403.32 262.73 C 403.93 262.69 405.15 262.63 405.77 262.60 C 406.02 262.20 406.53 261.40 406.79 261.00 C 405.65 260.62 404.48 260.36 403.34 260.04 M 441.74 263.40 C 443.44 265.92 445.66 268.01 448.07 269.85 C 449.16 268.80 451.84 267.55 450.10 265.85 C 448.18 263.07 444.72 263.22 441.74 263.40 M 222.24 266.31 C 220.91 266.47 219.25 267.23 219.44 268.81 C 220.35 272.08 222.10 275.12 224.21 277.77 C 225.58 279.57 228.32 279.35 229.99 278.14 C 232.22 276.85 231.06 273.78 230.09 271.99 C 228.36 269.32 225.85 265.81 222.24 266.31 M 386.33 274.40 C 384.19 275.87 382.18 277.79 381.24 280.25 C 381.42 282.11 383.27 283.35 385.00 283.63 C 388.03 282.92 389.94 279.83 390.47 276.93 C 390.83 274.71 388.16 272.71 386.33 274.40 M 425.10 274.88 C 425.36 277.45 425.85 280.00 426.57 282.49 C 428.02 282.58 429.48 282.67 430.95 282.77 C 430.87 279.19 429.20 275.10 425.10 274.88 M 449.96 276.73 C 449.79 279.96 449.78 283.27 450.95 286.35 C 451.98 285.93 452.99 285.47 453.99 284.97 C 456.13 283.43 455.79 280.35 454.95 278.21 C 454.07 276.20 451.72 276.49 449.96 276.73 M 410.47 277.48 C 408.45 277.71 407.90 280.50 409.01 281.94 C 410.09 283.93 413.76 283.24 414.03 280.97 C 414.79 278.85 412.52 276.71 410.47 277.48 M 431.35 290.26 C 430.50 293.28 431.15 296.42 431.95 299.39 C 434.60 299.02 437.36 297.06 436.76 294.05 C 437.03 291.25 433.97 288.15 431.35 290.26 M 375.25 297.51 C 372.83 301.39 372.97 306.16 373.70 310.51 C 374.57 312.37 377.22 311.28 378.88 311.69 C 380.02 307.66 379.69 303.44 379.52 299.31 C 378.92 298.64 378.27 298.03 377.57 297.47 C 376.99 297.48 375.83 297.50 375.25 297.51 M 394.44 303.12 C 393.39 306.64 393.38 310.35 394.50 313.85 C 394.98 313.74 395.95 313.52 396.43 313.41 C 396.66 310.13 396.67 306.85 396.49 303.57 C 395.98 303.46 394.95 303.23 394.44 303.12 M 448.32 307.34 C 448.35 307.93 448.41 309.11 448.43 309.70 C 449.41 309.69 450.38 309.61 451.36 309.48 C 451.43 308.98 451.57 307.97 451.65 307.46 C 450.53 307.39 449.43 307.35 448.32 307.34 M 99.93 314.07 C 101.74 316.62 103.59 319.15 105.35 321.74 C 104.40 323.99 101.21 326.49 103.09 329.01 C 104.85 331.81 106.94 334.38 108.99 336.97 C 108.21 334.52 107.23 332.14 106.29 329.75 C 104.43 326.14 107.76 322.81 108.79 319.45 C 105.97 317.45 103.03 315.61 99.93 314.07 M 411.12 324.75 C 415.16 325.81 419.38 325.32 423.49 325.07 C 423.21 323.61 423.65 321.66 422.09 320.79 C 419.39 319.19 415.97 319.56 413.01 320.06 C 410.95 320.27 409.23 323.30 411.12 324.75 M 91.88 331.01 C 91.76 334.13 92.82 337.90 95.94 339.24 C 99.18 338.58 102.77 335.68 102.06 332.02 C 100.99 327.91 98.59 324.30 95.99 321.00 C 94.00 324.00 91.85 327.26 91.88 331.01 M 379.35 327.34 C 375.69 329.24 376.46 334.46 376.56 337.94 C 376.79 343.54 386.52 343.91 387.79 338.85 C 387.76 335.51 386.24 332.32 384.24 329.71 C 383.07 328.34 381.30 326.68 379.35 327.34 M 399.11 340.38 C 395.83 345.32 392.73 350.38 389.66 355.45 C 397.18 355.57 404.69 355.52 412.21 355.49 C 413.58 351.11 414.82 346.68 416.02 342.25 C 410.39 341.54 404.75 340.94 399.11 340.38 M 415.95 362.99 C 420.34 363.01 424.74 363.01 429.14 363.02 C 432.37 356.13 435.61 349.24 438.53 342.21 C 433.59 341.54 428.63 340.98 423.69 340.33 C 420.78 347.76 418.56 355.45 415.95 362.99 M 298.46 353.64 C 294.72 353.60 293.35 357.20 294.69 360.28 C 297.55 361.18 302.63 361.08 302.66 357.07 C 303.29 354.70 300.40 353.44 298.46 353.64 M 278.44 361.43 C 276.82 362.89 278.06 364.97 278.42 366.67 C 280.50 366.52 282.95 367.02 284.58 365.35 C 286.35 364.00 285.31 361.38 285.57 359.47 C 283.05 359.41 279.89 358.76 278.44 361.43 M 309.22 363.07 C 309.24 363.78 309.28 365.19 309.30 365.89 C 314.26 366.74 319.39 366.82 324.13 368.69 C 327.51 370.03 331.08 370.84 334.74 370.83 C 334.69 370.20 334.59 368.96 334.54 368.33 C 327.34 363.56 317.70 358.65 309.22 363.07 M 270.48 366.61 C 268.60 367.26 266.32 368.67 266.40 370.93 C 265.91 373.17 268.45 375.24 270.57 374.37 C 272.43 373.69 274.71 372.29 274.61 370.02 C 275.06 367.82 272.58 365.73 270.48 366.61 M 390.91 367.21 C 393.46 369.66 396.24 371.86 399.15 373.88 C 402.67 372.56 406.03 370.84 409.15 368.73 C 403.06 368.35 397.01 367.40 390.91 367.21 M 409.12 374.23 C 414.47 377.24 419.66 380.59 425.34 382.98 C 426.51 378.36 427.67 373.75 428.78 369.12 C 422.17 370.58 415.72 372.70 409.12 374.23 M 259.45 377.67 C 257.17 379.24 256.64 382.80 257.84 385.07 C 260.26 388.17 264.10 384.73 264.42 381.81 C 265.13 378.99 262.19 376.19 259.45 377.67 M 324.43 377.06 C 323.12 378.81 320.97 380.41 321.40 382.87 C 321.23 385.33 324.66 387.61 326.56 385.46 C 328.89 384.18 328.51 381.34 328.85 379.11 C 327.50 378.17 326.02 377.45 324.43 377.06 M 289.05 380.37 C 289.41 381.69 289.36 383.45 290.91 384.02 C 296.68 387.33 303.58 386.76 309.97 386.69 C 313.41 386.63 317.56 386.08 319.12 382.52 C 309.69 379.14 298.64 375.90 289.05 380.37 M 310.33 396.70 C 312.79 396.55 315.97 397.15 317.38 394.54 C 318.01 392.59 318.13 388.65 315.03 389.31 C 311.05 388.72 308.30 393.35 310.33 396.70 M 257.32 391.35 C 257.05 394.82 258.81 398.43 262.58 398.86 C 263.18 395.40 261.68 390.49 257.32 391.35 M 275.99 395.23 C 276.49 396.53 276.45 398.35 277.94 399.01 C 281.64 400.71 285.87 400.55 289.84 400.34 C 294.80 399.93 299.80 399.73 304.67 398.69 C 304.68 398.03 304.70 396.73 304.71 396.07 C 300.44 393.90 295.57 394.40 290.95 394.32 C 285.95 394.35 280.87 393.90 275.99 395.23 M 299.86 403.89 C 298.29 405.06 297.87 407.48 298.92 409.10 C 300.83 411.52 304.33 409.88 305.86 407.89 C 307.32 406.21 306.21 404.05 305.73 402.24 C 303.71 402.53 301.27 402.06 299.86 403.89 M 285.60 411.61 C 284.26 412.77 284.72 414.68 284.47 416.24 C 287.20 417.67 291.16 418.05 292.94 414.98 C 294.25 413.30 292.73 411.60 291.83 410.21 C 289.77 410.56 287.15 409.86 285.60 411.61 Z" />
<path fill="#3e3846" opacity="1.00" d=" M 303.21 101.33 C 310.34 93.46 319.91 88.01 330.04 85.02 C 322.14 92.43 315.23 100.92 310.58 110.76 C 307.93 107.78 305.42 104.66 303.21 101.33 Z" />
<path fill="#3e3846" opacity="1.00" d=" M 91.66 100.77 C 92.57 104.13 93.07 107.59 94.08 110.92 C 95.05 113.98 97.21 116.44 99.09 118.99 C 95.77 122.63 92.29 126.12 88.66 129.45 C 85.70 125.62 85.69 120.53 86.28 115.95 C 87.09 110.61 89.24 105.57 91.66 100.77 Z" />
<path fill="#3e3846" opacity="1.00" d=" M 319.99 126.00 C 323.82 118.75 332.06 115.16 339.97 114.91 C 334.12 119.34 329.47 125.02 325.63 131.23 C 323.55 129.70 321.65 127.96 319.99 126.00 Z" />
<path fill="#3e3846" opacity="1.00" d=" M 65.41 128.94 C 66.41 132.43 67.13 136.04 68.68 139.35 C 70.15 142.35 72.68 144.61 74.98 146.97 C 72.09 151.90 69.12 156.79 65.83 161.47 C 58.80 151.99 62.24 139.25 65.41 128.94 Z" />
<path fill="#3e3846" opacity="1.00" d=" M 335.18 148.20 C 340.43 143.69 347.53 141.17 354.44 142.58 C 355.16 143.98 353.15 144.57 352.46 145.47 C 347.53 149.06 343.96 154.06 340.64 159.09 C 338.54 155.60 336.74 151.95 335.18 148.20 Z" />
<path fill="#3e3846" opacity="1.00" d=" M 43.30 166.02 C 48.27 173.25 54.22 179.91 61.86 184.39 C 60.98 188.69 59.71 192.90 58.43 197.10 C 53.43 195.81 50.13 191.44 47.99 187.01 C 44.78 180.50 43.84 173.18 43.30 166.02 Z" />
</g>
<g id="#715e7bff">
<path fill="#715e7b" opacity="1.00" d=" M 451.30 60.46 C 453.81 59.92 457.33 59.68 458.95 62.11 C 459.45 64.36 459.43 66.70 459.14 68.97 C 459.01 74.92 448.31 74.92 448.10 69.01 C 447.65 65.97 447.66 61.50 451.30 60.46 Z" />
<path fill="#715e7b" opacity="1.00" d=" M 426.11 85.17 C 428.73 84.43 432.75 83.88 434.45 86.58 C 435.15 88.97 434.98 91.55 434.60 93.99 C 433.89 99.23 424.41 99.25 423.75 93.96 C 423.30 90.98 422.94 86.79 426.11 85.17 Z" />
<path fill="#715e7b" opacity="1.00" d=" M 460.24 109.20 C 463.70 108.12 470.85 110.24 468.98 115.00 C 468.26 117.42 467.05 120.82 463.95 120.62 C 461.18 120.38 457.39 119.15 457.08 115.91 C 457.29 113.46 457.98 110.55 460.24 109.20 Z" />
<path fill="#715e7b" opacity="1.00" d=" M 408.22 115.24 C 411.32 113.53 414.95 116.03 415.60 119.22 C 416.20 122.32 416.53 125.90 414.88 128.73 C 412.28 131.19 407.97 129.02 407.19 125.86 C 406.39 122.47 405.77 118.08 408.22 115.24 Z" />
<path fill="#715e7b" opacity="1.00" d=" M 453.30 137.29 C 456.15 136.88 459.53 138.74 459.30 141.98 C 459.94 146.13 455.02 150.33 451.21 147.86 C 448.72 144.75 449.68 139.12 453.30 137.29 Z" />
<path fill="#715e7b" opacity="1.00" d=" M 440.42 163.65 C 443.65 165.37 446.81 167.24 449.88 169.23 C 446.20 171.25 442.43 173.12 438.61 174.86 C 439.16 171.12 439.75 167.38 440.42 163.65 Z" />
<path fill="#715e7b" opacity="1.00" d=" M 258.40 177.33 C 260.55 177.49 262.92 177.01 264.90 178.03 C 267.53 179.27 266.36 182.54 266.70 184.83 C 264.73 186.27 262.65 188.01 260.02 187.67 C 256.80 188.15 253.89 184.62 254.60 181.58 C 255.66 179.99 257.09 178.70 258.40 177.33 Z" />
<path fill="#715e7b" opacity="1.00" d=" M 451.80 182.46 C 454.99 184.22 458.12 186.09 461.18 188.06 C 458.11 190.03 454.98 191.91 451.79 193.67 C 451.71 189.94 451.71 186.20 451.80 182.46 Z" />
<path fill="#715e7b" opacity="1.00" d=" M 222.36 188.45 C 226.80 186.00 229.29 191.93 227.30 195.28 C 224.64 199.81 220.50 203.35 216.15 206.20 C 212.86 208.55 210.16 202.74 211.06 200.04 C 213.34 195.08 217.56 190.99 222.36 188.45 Z" />
<path fill="#715e7b" opacity="1.00" d=" M 277.97 200.09 C 278.31 198.66 280.31 198.84 281.09 199.80 C 283.17 201.45 284.96 203.59 285.93 206.09 C 286.61 209.01 284.39 211.57 282.09 213.03 C 279.13 209.60 275.93 204.72 277.97 200.09 Z" />
<path fill="#715e7b" opacity="1.00" d=" M 464.96 204.95 C 468.11 207.40 471.23 209.89 474.32 212.43 C 470.07 215.18 465.63 217.61 461.19 220.02 C 462.35 214.97 463.60 209.95 464.96 204.95 Z" />
<path fill="#715e7b" opacity="1.00" d=" M 251.40 211.64 C 252.85 211.36 254.33 211.27 255.80 211.16 C 256.41 212.39 257.34 213.43 257.98 214.65 C 255.94 216.77 253.35 218.06 250.35 217.66 C 250.67 215.70 249.64 213.02 251.40 211.64 Z" />
<path fill="#715e7b" opacity="1.00" d=" M 237.06 220.08 C 238.39 220.07 239.72 220.07 241.06 220.07 C 240.79 221.94 241.40 224.24 239.89 225.70 C 236.55 226.42 237.27 222.11 237.06 220.08 Z" />
<path fill="#715e7b" opacity="1.00" d=" M 256.15 226.08 C 257.81 225.06 260.18 225.89 260.18 228.03 C 258.66 230.75 254.36 229.19 256.15 226.08 Z" />
<path fill="#715e7b" opacity="1.00" d=" M 207.42 227.71 C 213.58 226.30 218.69 233.31 217.66 239.00 C 217.74 241.61 214.98 242.89 212.90 243.64 C 210.16 244.75 206.67 244.78 204.44 242.57 C 201.79 239.81 202.16 235.61 202.54 232.11 C 202.77 229.61 205.20 228.20 207.42 227.71 Z" />
<path fill="#715e7b" opacity="1.00" d=" M 279.47 237.50 C 279.05 234.43 279.13 230.06 282.95 229.35 C 286.13 230.00 287.46 233.59 286.42 236.46 C 284.55 238.27 281.78 237.43 279.47 237.50 Z" />
<path fill="#715e7b" opacity="1.00" d=" M 233.38 244.32 C 236.65 242.14 240.62 244.85 240.51 248.56 C 239.44 249.35 238.27 250.00 237.10 250.62 C 235.86 249.97 234.61 249.36 233.38 248.72 C 233.38 247.25 233.38 245.78 233.38 244.32 Z" />
<path fill="#715e7b" opacity="1.00" d=" M 257.63 254.74 C 261.48 253.58 265.54 253.60 269.40 254.73 C 268.96 256.13 269.37 258.16 267.76 258.90 C 265.04 259.85 261.95 259.85 259.24 258.88 C 257.69 258.10 258.06 256.12 257.63 254.74 Z" />
<path fill="#715e7b" opacity="1.00" d=" M 419.69 257.25 C 418.98 253.87 422.59 253.91 424.26 255.73 C 422.95 256.78 421.29 257.06 419.69 257.25 Z" />
<path fill="#715e7b" opacity="1.00" d=" M 403.34 260.04 C 404.48 260.36 405.65 260.62 406.79 261.00 C 406.53 261.40 406.02 262.20 405.77 262.60 C 405.15 262.63 403.93 262.69 403.32 262.73 C 403.32 262.06 403.33 260.71 403.34 260.04 Z" />
<path fill="#715e7b" opacity="1.00" d=" M 441.74 263.40 C 444.72 263.22 448.18 263.07 450.10 265.85 C 451.84 267.55 449.16 268.80 448.07 269.85 C 445.66 268.01 443.44 265.92 441.74 263.40 Z" />
<path fill="#715e7b" opacity="1.00" d=" M 222.24 266.31 C 225.85 265.81 228.36 269.32 230.09 271.99 C 231.06 273.78 232.22 276.85 229.99 278.14 C 228.32 279.35 225.58 279.57 224.21 277.77 C 222.10 275.12 220.35 272.08 219.44 268.81 C 219.25 267.23 220.91 266.47 222.24 266.31 Z" />
<path fill="#715e7b" opacity="1.00" d=" M 386.33 274.40 C 388.16 272.71 390.83 274.71 390.47 276.93 C 389.94 279.83 388.03 282.92 385.00 283.63 C 383.27 283.35 381.42 282.11 381.24 280.25 C 382.18 277.79 384.19 275.87 386.33 274.40 Z" />
<path fill="#715e7b" opacity="1.00" d=" M 425.10 274.88 C 429.20 275.10 430.87 279.19 430.95 282.77 C 429.48 282.67 428.02 282.58 426.57 282.49 C 425.85 280.00 425.36 277.45 425.10 274.88 Z" />
<path fill="#715e7b" opacity="1.00" d=" M 449.96 276.73 C 451.72 276.49 454.07 276.20 454.95 278.21 C 455.79 280.35 456.13 283.43 453.99 284.97 C 452.99 285.47 451.98 285.93 450.95 286.35 C 449.78 283.27 449.79 279.96 449.96 276.73 Z" />
<path fill="#715e7b" opacity="1.00" d=" M 410.47 277.48 C 412.52 276.71 414.79 278.85 414.03 280.97 C 413.76 283.24 410.09 283.93 409.01 281.94 C 407.90 280.50 408.45 277.71 410.47 277.48 Z" />
<path fill="#715e7b" opacity="1.00" d=" M 431.35 290.26 C 433.97 288.15 437.03 291.25 436.76 294.05 C 437.36 297.06 434.60 299.02 431.95 299.39 C 431.15 296.42 430.50 293.28 431.35 290.26 Z" />
<path fill="#715e7b" opacity="1.00" d=" M 58.79 296.24 C 65.47 303.27 72.36 310.16 80.59 315.41 C 79.09 318.72 77.61 322.05 76.11 325.37 C 67.87 317.42 62.43 306.98 58.79 296.24 Z" />
<path fill="#715e7b" opacity="1.00" d=" M 375.25 297.51 C 375.83 297.50 376.99 297.48 377.57 297.47 C 378.27 298.03 378.92 298.64 379.52 299.31 C 379.69 303.44 380.02 307.66 378.88 311.69 C 377.22 311.28 374.57 312.37 373.70 310.51 C 372.97 306.16 372.83 301.39 375.25 297.51 Z" />
<path fill="#715e7b" opacity="1.00" d=" M 394.44 303.12 C 394.95 303.23 395.98 303.46 396.49 303.57 C 396.67 306.85 396.66 310.13 396.43 313.41 C 395.95 313.52 394.98 313.74 394.50 313.85 C 393.38 310.35 393.39 306.64 394.44 303.12 Z" />
<path fill="#715e7b" opacity="1.00" d=" M 448.32 307.34 C 449.43 307.35 450.53 307.39 451.65 307.46 C 451.57 307.97 451.43 308.98 451.36 309.48 C 450.38 309.61 449.41 309.69 448.43 309.70 C 448.41 309.11 448.35 307.93 448.32 307.34 Z" />
<path fill="#715e7b" opacity="1.00" d=" M 411.12 324.75 C 409.23 323.30 410.95 320.27 413.01 320.06 C 415.97 319.56 419.39 319.19 422.09 320.79 C 423.65 321.66 423.21 323.61 423.49 325.07 C 419.38 325.32 415.16 325.81 411.12 324.75 Z" />
<path fill="#715e7b" opacity="1.00" d=" M 52.66 321.78 C 58.64 326.87 64.77 332.00 72.11 335.06 C 70.50 339.93 68.68 344.75 67.43 349.74 C 58.52 343.30 52.70 332.86 52.66 321.78 Z" />
<path fill="#715e7b" opacity="1.00" d=" M 91.88 331.01 C 91.85 327.26 94.00 324.00 95.99 321.00 C 98.59 324.30 100.99 327.91 102.06 332.02 C 102.77 335.68 99.18 338.58 95.94 339.24 C 92.82 337.90 91.76 334.13 91.88 331.01 Z" />
<path fill="#715e7b" opacity="1.00" d=" M 379.35 327.34 C 381.30 326.68 383.07 328.34 384.24 329.71 C 386.24 332.32 387.76 335.51 387.79 338.85 C 386.52 343.91 376.79 343.54 376.56 337.94 C 376.46 334.46 375.69 329.24 379.35 327.34 Z" />
<path fill="#715e7b" opacity="1.00" d=" M 399.11 340.38 C 404.75 340.94 410.39 341.54 416.02 342.25 C 414.82 346.68 413.58 351.11 412.21 355.49 C 404.69 355.52 397.18 355.57 389.66 355.45 C 392.73 350.38 395.83 345.32 399.11 340.38 Z" />
<path fill="#715e7b" opacity="1.00" d=" M 415.95 362.99 C 418.56 355.45 420.78 347.76 423.69 340.33 C 428.63 340.98 433.59 341.54 438.53 342.21 C 435.61 349.24 432.37 356.13 429.14 363.02 C 424.74 363.01 420.34 363.01 415.95 362.99 Z" />
<path fill="#715e7b" opacity="1.00" d=" M 48.90 346.36 C 54.16 352.39 59.56 358.35 65.95 363.22 C 66.00 370.00 64.89 376.84 62.20 383.10 C 58.13 378.65 55.74 373.05 53.45 367.56 C 50.71 360.82 49.15 353.63 48.90 346.36 Z" />
<path fill="#715e7b" opacity="1.00" d=" M 298.46 353.64 C 300.40 353.44 303.29 354.70 302.66 357.07 C 302.63 361.08 297.55 361.18 294.69 360.28 C 293.35 357.20 294.72 353.60 298.46 353.64 Z" />
<path fill="#715e7b" opacity="1.00" d=" M 278.44 361.43 C 279.89 358.76 283.05 359.41 285.57 359.47 C 285.31 361.38 286.35 364.00 284.58 365.35 C 282.95 367.02 280.50 366.52 278.42 366.67 C 278.06 364.97 276.82 362.89 278.44 361.43 Z" />
<path fill="#715e7b" opacity="1.00" d=" M 270.48 366.61 C 272.58 365.73 275.06 367.82 274.61 370.02 C 274.71 372.29 272.43 373.69 270.57 374.37 C 268.45 375.24 265.91 373.17 266.40 370.93 C 266.32 368.67 268.60 367.26 270.48 366.61 Z" />
<path fill="#715e7b" opacity="1.00" d=" M 259.45 377.67 C 262.19 376.19 265.13 378.99 264.42 381.81 C 264.10 384.73 260.26 388.17 257.84 385.07 C 256.64 382.80 257.17 379.24 259.45 377.67 Z" />
<path fill="#715e7b" opacity="1.00" d=" M 324.43 377.06 C 326.02 377.45 327.50 378.17 328.85 379.11 C 328.51 381.34 328.89 384.18 326.56 385.46 C 324.66 387.61 321.23 385.33 321.40 382.87 C 320.97 380.41 323.12 378.81 324.43 377.06 Z" />
<path fill="#715e7b" opacity="1.00" d=" M 37.40 402.73 C 37.13 395.08 38.11 387.35 41.13 380.28 C 42.90 386.62 45.47 392.83 50.03 397.70 C 46.97 399.65 43.64 401.25 40.12 402.22 C 39.44 402.35 38.08 402.60 37.40 402.73 Z" />
<path fill="#715e7b" opacity="1.00" d=" M 310.33 396.70 C 308.30 393.35 311.05 388.72 315.03 389.31 C 318.13 388.65 318.01 392.59 317.38 394.54 C 315.97 397.15 312.79 396.55 310.33 396.70 Z" />
<path fill="#715e7b" opacity="1.00" d=" M 257.32 391.35 C 261.68 390.49 263.18 395.40 262.58 398.86 C 258.81 398.43 257.05 394.82 257.32 391.35 Z" />
<path fill="#715e7b" opacity="1.00" d=" M 17.09 403.90 C 20.33 400.01 23.91 396.43 27.82 393.22 C 27.38 396.94 26.97 400.66 26.59 404.39 C 23.42 404.60 20.24 404.34 17.09 403.90 Z" />
<path fill="#715e7b" opacity="1.00" d=" M 299.86 403.89 C 301.27 402.06 303.71 402.53 305.73 402.24 C 306.21 404.05 307.32 406.21 305.86 407.89 C 304.33 409.88 300.83 411.52 298.92 409.10 C 297.87 407.48 298.29 405.06 299.86 403.89 Z" />
<path fill="#715e7b" opacity="1.00" d=" M 285.60 411.61 C 287.15 409.86 289.77 410.56 291.83 410.21 C 292.73 411.60 294.25 413.30 292.94 414.98 C 291.16 418.05 287.20 417.67 284.47 416.24 C 284.72 414.68 284.26 412.77 285.60 411.61 Z" />
</g>
<g id="#593e39ff">
<path fill="#593e39" opacity="1.00" d=" M 97.42 234.16 C 98.98 239.75 98.97 245.66 100.84 251.18 C 103.62 261.15 109.13 269.98 114.32 278.82 C 115.92 281.85 118.21 285.56 116.29 288.98 C 112.98 294.97 105.48 297.43 98.98 297.25 C 96.37 297.40 94.74 294.94 93.95 292.79 C 92.54 288.69 92.14 284.32 91.91 280.02 C 91.28 264.57 93.61 249.10 97.42 234.16 Z" />
<path fill="#593e39" opacity="1.00" d=" M 66.74 248.23 C 71.06 248.35 75.69 248.23 79.60 250.34 C 84.11 252.99 85.86 258.34 86.83 263.18 C 88.32 271.33 88.46 279.69 88.24 287.96 C 87.97 297.59 84.50 306.73 80.59 315.41 C 72.36 310.16 65.47 303.27 58.79 296.24 C 62.43 306.98 67.87 317.42 76.11 325.37 C 76.06 325.49 75.95 325.73 75.89 325.85 C 74.50 328.86 73.13 331.90 72.11 335.06 C 64.77 332.00 58.64 326.87 52.66 321.78 C 52.70 332.86 58.52 343.30 67.43 349.74 C 66.31 354.14 65.96 358.69 65.95 363.22 C 59.56 358.35 54.16 352.39 48.90 346.36 C 49.15 353.63 50.71 360.82 53.45 367.56 C 55.74 373.05 58.13 378.65 62.20 383.10 C 59.58 388.97 55.38 394.11 50.03 397.70 C 45.47 392.83 42.90 386.62 41.13 380.28 C 38.11 387.35 37.13 395.08 37.40 402.73 C 38.08 402.60 39.44 402.35 40.12 402.22 C 35.72 403.49 31.15 404.06 26.59 404.39 C 26.97 400.66 27.38 396.94 27.82 393.22 C 23.91 396.43 20.33 400.01 17.09 403.90 C 10.39 402.97 3.05 400.29 0.00 393.72 L 0.00 393.14 C 6.10 395.71 13.35 396.58 19.40 393.40 C 28.14 388.98 32.79 379.39 34.66 370.18 C 37.25 356.77 34.84 343.03 31.72 329.93 C 28.34 315.56 27.42 300.63 28.94 285.96 C 30.18 275.28 33.31 263.99 41.50 256.49 C 48.25 250.21 57.76 248.17 66.74 248.23 Z" />
<path fill="#593e39" opacity="1.00" d=" M 126.11 397.08 C 128.78 394.42 131.72 390.14 136.06 391.48 C 139.95 392.23 143.68 393.65 147.35 395.12 C 151.42 396.84 155.46 399.19 160.04 399.00 C 169.74 398.97 179.52 398.23 189.16 399.67 C 192.55 400.37 196.65 401.16 198.56 404.39 C 200.14 409.00 199.79 414.04 199.46 418.83 C 199.53 422.26 195.64 423.25 192.98 423.92 C 183.29 425.81 173.34 425.03 163.53 424.98 C 158.48 425.00 153.80 427.07 149.29 429.12 C 138.73 433.97 128.64 439.75 118.66 445.67 C 124.82 437.07 130.99 428.48 137.25 419.95 C 133.59 419.12 129.93 418.32 126.26 417.56 C 117.44 426.61 106.54 433.23 96.02 440.09 C 105.37 425.30 114.78 410.44 126.11 397.08 Z" />
<path fill="#593e39" opacity="1.00" d=" M 340.49 419.49 C 343.52 415.95 346.51 411.85 351.02 410.16 C 356.75 409.60 362.19 411.99 367.46 413.92 C 371.74 415.53 375.92 417.42 380.29 418.79 C 387.67 421.13 395.80 419.00 403.01 422.05 C 404.14 422.40 405.10 423.57 404.74 424.81 C 403.76 429.65 401.02 433.88 398.84 438.24 C 394.14 435.22 388.07 433.82 382.70 435.76 C 378.90 437.33 375.83 440.17 372.31 442.23 C 362.81 447.90 352.71 452.48 342.63 457.00 L 342.51 457.00 C 348.71 449.37 354.61 441.50 360.74 433.82 C 357.26 433.41 353.79 432.99 350.31 432.60 C 342.51 441.91 330.87 446.63 320.02 451.37 C 326.17 440.34 332.76 429.50 340.49 419.49 Z" />
</g>
</svg>
