<?xml version="1.0" encoding="UTF-8" ?>
<!DOCTYPE svg PUBLIC "-//W3C//DTD SVG 1.1//EN" "http://www.w3.org/Graphics/SVG/1.1/DTD/svg11.dtd">
<svg width="503pt" height="486pt" viewBox="0 0 503 486" version="1.1" xmlns="http://www.w3.org/2000/svg">
<g id="#c3d5bfff">
<path fill="#c3d5bf" opacity="1.00" d=" M 145.17 0.00 L 145.58 0.00 C 147.05 1.37 148.62 2.62 150.27 3.78 C 171.29 18.83 192.15 34.10 213.19 49.11 C 217.40 51.69 221.77 53.98 226.04 56.44 C 218.02 62.23 209.79 67.73 201.69 73.41 C 210.35 78.58 219.17 83.47 227.93 88.47 C 224.36 92.26 220.55 95.81 217.03 99.64 C 196.09 116.53 175.38 133.72 154.49 150.68 C 156.35 141.90 158.26 133.14 160.12 124.36 C 140.65 140.66 121.22 157.00 101.74 173.29 C 103.60 160.11 105.52 146.93 107.37 133.75 C 87.31 143.20 67.24 152.62 47.13 161.97 C 55.89 146.90 64.70 131.86 73.46 116.79 C 54.03 119.35 34.59 121.86 15.14 124.31 C 27.65 113.59 40.27 103.01 52.75 92.27 C 35.16 84.74 17.58 77.22 0.00 69.67 L 0.00 69.36 C 1.47 69.09 2.90 68.63 4.32 68.15 C 19.83 62.37 35.35 56.64 50.87 50.88 C 42.12 40.18 33.27 29.55 24.54 18.84 C 45.88 23.83 67.22 28.83 88.54 33.91 C 87.92 25.12 87.28 16.33 86.67 7.54 C 109.29 18.16 131.87 28.87 154.47 39.53 C 151.40 26.35 148.07 13.22 145.17 0.00 M 80.45 49.37 C 75.08 54.93 69.55 60.32 64.10 65.81 C 70.98 70.24 77.71 75.02 84.93 78.85 C 95.53 73.78 105.75 67.87 116.21 62.49 C 114.69 61.35 113.08 60.33 111.31 59.64 C 102.23 55.78 93.30 51.57 84.23 47.71 C 82.65 46.65 81.48 48.42 80.45 49.37 M 158.22 47.36 C 151.91 50.90 145.41 54.34 139.67 58.76 C 145.28 64.78 150.68 70.99 156.23 77.05 C 165.60 74.12 174.66 70.27 183.89 66.95 C 184.69 66.83 186.75 65.52 185.04 64.91 C 176.04 59.16 167.40 52.78 158.22 47.36 M 119.02 89.94 C 117.22 90.22 114.82 89.90 114.02 91.99 C 109.98 98.95 105.74 105.81 101.95 112.92 C 109.38 114.35 116.90 115.24 124.36 116.52 C 126.49 117.25 127.54 114.93 128.67 113.60 C 135.10 104.61 142.20 96.08 148.32 86.87 C 138.53 87.59 128.80 89.06 119.02 89.94 M 165.95 92.25 C 165.63 100.30 165.68 108.38 165.94 116.44 C 175.65 110.82 184.80 104.27 194.36 98.40 C 195.27 97.54 197.54 97.10 196.65 95.47 C 192.82 93.15 188.98 90.77 184.92 88.88 C 178.54 89.21 172.29 91.28 165.95 92.25 Z" />
<path fill="#c3d5bf" opacity="1.00" d=" M 335.33 26.37 C 346.71 33.91 358.03 41.55 369.43 49.06 C 357.56 48.93 345.69 49.04 333.83 49.00 C 334.31 41.46 334.84 33.92 335.33 26.37 Z" />
<path fill="#c3d5bf" opacity="1.00" d=" M 231.73 28.27 C 241.30 35.15 250.88 42.04 260.41 48.99 C 250.84 49.01 241.28 49.00 231.72 49.00 C 231.72 42.09 231.71 35.18 231.73 28.27 Z" />
<path fill="#c3d5bf" opacity="1.00" d=" M 288.24 28.26 C 300.17 35.10 311.97 42.18 323.92 48.98 C 311.53 49.02 299.14 48.99 286.75 49.00 C 287.24 42.09 287.74 35.17 288.24 28.26 Z" />
<path fill="#c3d5bf" opacity="1.00" d=" M 382.43 30.14 C 393.13 38.98 403.54 48.17 414.37 56.83 C 402.84 53.59 391.05 51.19 379.14 49.89 C 380.24 43.31 381.33 36.72 382.43 30.14 Z" />
<path fill="#c3d5bf" opacity="1.00" d=" M 419.47 58.40 C 424.10 51.51 428.67 44.58 433.31 37.69 C 440.13 49.47 446.68 61.42 453.68 73.10 C 442.92 66.84 431.34 62.07 419.47 58.40 Z" />
<path fill="#c3d5bf" opacity="1.00" d=" M 271.65 69.52 C 279.09 65.85 286.49 62.13 293.90 58.40 C 300.74 62.07 307.52 65.83 314.34 69.51 C 307.94 75.09 300.66 79.62 293.89 84.77 C 286.56 79.57 278.68 75.12 271.65 69.52 Z" />
<path fill="#c3d5bf" opacity="1.00" d=" M 329.79 69.76 C 336.04 65.86 342.33 61.99 348.78 58.42 C 355.49 62.35 362.48 65.78 369.17 69.75 C 362.27 74.76 355.43 79.86 348.45 84.75 C 342.27 79.69 335.99 74.78 329.79 69.76 Z" />
<path fill="#c3d5bf" opacity="1.00" d=" M 218.63 73.56 C 224.70 68.96 231.14 64.87 237.24 60.30 C 243.04 64.48 248.55 69.05 254.25 73.37 C 248.74 77.98 243.01 82.33 237.26 86.63 C 231.12 82.17 224.88 77.86 218.63 73.56 Z" />
<path fill="#c3d5bf" opacity="1.00" d=" M 465.22 81.08 C 470.27 78.53 475.33 76.01 480.39 73.48 C 480.54 82.36 480.10 91.26 480.62 100.12 C 478.61 96.64 476.42 93.27 474.03 90.04 C 471.49 86.69 468.44 83.76 465.22 81.08 Z" />
<path fill="#c3d5bf" opacity="1.00" d=" M 288.23 95.02 C 301.61 94.65 314.98 94.35 328.36 94.30 C 314.85 101.54 301.64 109.35 288.24 116.79 C 288.23 109.53 288.24 102.28 288.23 95.02 Z" />
<path fill="#c3d5bf" opacity="1.00" d=" M 344.76 94.22 C 353.34 94.32 361.93 94.72 370.46 95.70 C 361.77 99.98 353.35 104.78 344.76 109.25 C 344.75 104.24 344.75 99.23 344.76 94.22 Z" />
<path fill="#c3d5bf" opacity="1.00" d=" M 231.73 98.02 C 241.54 97.12 251.38 96.49 261.23 96.10 C 251.28 102.83 241.60 109.94 231.73 116.78 C 231.71 110.53 231.71 104.28 231.73 98.02 Z" />
<path fill="#c3d5bf" opacity="1.00" d=" M 388.02 98.37 C 396.31 100.11 404.50 102.50 412.18 106.11 C 403.53 108.45 394.88 110.78 386.20 113.01 C 386.81 108.13 387.43 103.25 388.02 98.37 Z" />
<path fill="#c3d5bf" opacity="1.00" d=" M 306.31 131.86 C 312.86 123.72 319.38 115.54 325.91 107.39 C 326.46 115.55 327.01 123.71 327.54 131.87 C 320.46 131.87 313.39 131.87 306.31 131.86 Z" />
<path fill="#c3d5bf" opacity="1.00" d=" M 348.31 131.87 C 355.35 124.40 362.26 116.79 369.25 109.26 C 369.78 116.85 370.33 124.42 370.86 132.01 C 363.35 131.72 355.83 131.93 348.31 131.87 Z" />
<path fill="#c3d5bf" opacity="1.00" d=" M 253.96 135.75 C 261.87 128.45 269.23 120.57 276.93 113.05 C 277.44 119.63 277.95 126.22 278.45 132.81 C 270.25 133.44 262.06 134.35 253.96 135.75 Z" />
<path fill="#c3d5bf" opacity="1.00" d=" M 213.52 148.14 C 219.59 140.21 225.63 132.25 231.73 124.34 C 233.25 129.45 234.79 134.56 236.32 139.66 C 228.47 141.77 220.92 144.80 213.52 148.14 Z" />
<path fill="#c3d5bf" opacity="1.00" d=" M 434.75 124.16 C 441.33 133.53 443.33 145.38 442.53 156.63 C 437.57 155.27 432.61 153.89 427.64 152.55 C 430.03 143.09 432.38 133.63 434.75 124.16 Z" />
<path fill="#c3d5bf" opacity="1.00" d=" M 388.96 134.19 C 400.60 132.17 412.24 130.16 423.87 128.10 C 420.10 134.25 416.30 140.38 412.53 146.54 C 403.84 140.82 394.12 136.70 384.04 134.20 C 385.66 134.49 387.33 134.51 388.96 134.19 Z" />
<path fill="#c3d5bf" opacity="1.00" d=" M 178.99 150.70 C 184.36 154.10 189.71 157.52 195.08 160.92 C 188.69 166.83 183.55 174.09 180.20 182.13 C 180.47 171.65 179.25 161.18 178.99 150.70 Z" />
<path fill="#c3d5bf" opacity="1.00" d=" M 158.27 188.40 C 164.85 188.40 171.43 188.41 178.02 188.39 C 175.27 197.37 175.10 206.83 175.15 216.14 C 169.64 206.82 163.87 197.66 158.27 188.40 Z" />
<path fill="#c3d5bf" opacity="1.00" d=" M 158.26 235.47 C 163.91 235.46 169.56 235.46 175.20 235.47 C 175.17 244.65 175.30 253.83 175.10 263.00 C 169.48 253.83 163.86 244.66 158.26 235.47 Z" />
<path fill="#c3d5bf" opacity="1.00" d=" M 154.51 276.91 C 161.42 278.00 168.32 279.15 175.20 280.36 C 175.17 290.84 175.30 301.31 175.11 311.79 C 168.23 300.17 161.34 288.55 154.51 276.91 Z" />
<path fill="#c3d5bf" opacity="1.00" d=" M 63.46 388.06 C 64.45 381.95 64.57 375.71 65.96 369.67 C 66.68 372.56 67.35 375.47 67.99 378.39 C 68.70 381.61 69.41 384.84 70.13 388.06 C 73.75 404.38 77.38 420.70 81.00 437.02 C 80.43 437.69 79.85 438.36 79.27 439.03 C 76.03 442.70 73.00 446.55 69.74 450.22 C 65.80 447.49 61.91 444.69 58.06 441.82 C 57.69 441.53 56.93 440.95 56.55 440.66 C 58.81 423.12 61.16 405.59 63.46 388.06 Z" />
<path fill="#c3d5bf" opacity="1.00" d=" M 156.34 374.87 C 159.40 376.84 161.96 380.04 165.71 380.63 C 162.65 389.38 159.46 398.09 156.40 406.84 C 153.87 398.35 151.52 389.79 149.04 381.28 C 151.47 379.14 153.91 377.01 156.34 374.87 Z" />
<path fill="#c3d5bf" opacity="1.00" d=" M 85.83 387.12 C 89.18 383.61 92.62 380.18 96.06 376.77 C 100.16 379.77 104.22 382.82 108.27 385.89 C 103.58 393.51 98.91 401.15 94.19 408.75 C 91.40 401.54 88.69 394.30 85.83 387.12 Z" />
<path fill="#c3d5bf" opacity="1.00" d=" M 115.94 384.46 C 119.36 381.90 122.78 379.32 126.20 376.76 C 129.64 379.29 133.06 381.86 136.48 384.43 C 133.10 391.30 129.64 398.14 126.22 404.99 C 122.79 398.15 119.39 391.30 115.94 384.46 Z" />
<path fill="#c3d5bf" opacity="1.00" d=" M 15.03 388.11 C 24.46 388.07 33.89 388.12 43.31 388.08 C 40.99 405.66 38.63 423.23 36.29 440.81 C 35.98 443.08 35.66 445.34 35.35 447.62 C 34.23 455.75 33.40 463.92 31.97 472.00 C 30.17 464.11 28.74 456.13 27.11 448.21 C 26.61 445.74 26.12 443.27 25.63 440.81 C 22.07 423.25 18.67 405.65 15.03 388.11 Z" />
<path fill="#c3d5bf" opacity="1.00" d=" M 307.08 388.06 C 311.86 389.94 316.64 391.84 321.41 393.79 C 319.09 397.55 317.43 401.68 315.01 405.38 C 312.29 399.64 309.73 393.83 307.08 388.06 Z" />
<path fill="#c3d5bf" opacity="1.00" d=" M 301.43 403.14 C 305.49 404.57 309.48 406.15 313.54 407.58 C 311.18 411.07 308.21 414.17 306.42 418.02 C 304.71 413.07 303.10 408.10 301.43 403.14 Z" />
<path fill="#c3d5bf" opacity="1.00" d=" M 158.25 414.43 C 162.00 421.95 165.81 429.44 169.50 437.00 C 166.32 440.08 163.31 443.33 160.14 446.43 C 156.49 443.61 152.85 440.78 149.22 437.94 C 152.20 430.09 155.23 422.26 158.25 414.43 Z" />
<path fill="#c3d5bf" opacity="1.00" d=" M 85.71 440.54 C 89.14 432.46 92.62 424.39 96.08 416.32 C 100.15 423.83 104.19 431.36 108.24 438.88 C 104.18 442.01 100.15 445.18 96.10 448.31 C 92.63 445.73 89.17 443.13 85.71 440.54 Z" />
<path fill="#c3d5bf" opacity="1.00" d=" M 126.22 416.32 C 130.11 423.50 133.98 430.71 137.86 437.91 C 134.61 440.75 131.38 443.61 128.10 446.43 C 124.62 443.83 121.16 441.20 117.67 438.60 C 120.48 431.16 123.37 423.74 126.22 416.32 Z" />
</g>
<g id="#9ead98ff">
<path fill="#9ead98" opacity="1.00" d=" M 80.45 49.37 C 81.48 48.42 82.65 46.65 84.23 47.71 C 93.30 51.57 102.23 55.78 111.31 59.64 C 113.08 60.33 114.69 61.35 116.21 62.49 C 105.75 67.87 95.53 73.78 84.93 78.85 C 77.71 75.02 70.98 70.24 64.10 65.81 C 69.55 60.32 75.08 54.93 80.45 49.37 Z" />
<path fill="#9ead98" opacity="1.00" d=" M 158.22 47.36 C 167.40 52.78 176.04 59.16 185.04 64.91 C 186.75 65.52 184.69 66.83 183.89 66.95 C 174.66 70.27 165.60 74.12 156.23 77.05 C 150.68 70.99 145.28 64.78 139.67 58.76 C 145.41 54.34 151.91 50.90 158.22 47.36 Z" />
<path fill="#9ead98" opacity="1.00" d=" M 119.02 89.94 C 128.80 89.06 138.53 87.59 148.32 86.87 C 142.20 96.08 135.10 104.61 128.67 113.60 C 127.54 114.93 126.49 117.25 124.36 116.52 C 116.90 115.24 109.38 114.35 101.95 112.92 C 105.74 105.81 109.98 98.95 114.02 91.99 C 114.82 89.90 117.22 90.22 119.02 89.94 Z" />
<path fill="#9ead98" opacity="1.00" d=" M 165.95 92.25 C 172.29 91.28 178.54 89.21 184.92 88.88 C 188.98 90.77 192.82 93.15 196.65 95.47 C 197.54 97.10 195.27 97.54 194.36 98.40 C 184.80 104.27 175.65 110.82 165.94 116.44 C 165.68 108.38 165.63 100.30 165.95 92.25 Z" />
</g>
<g id="#993349ff">
<path fill="#993349" opacity="1.00" d=" M 213.19 49.11 C 219.37 48.91 225.55 49.03 231.72 49.00 C 241.28 49.00 250.84 49.01 260.41 48.99 C 269.19 49.01 277.97 49.00 286.75 49.00 C 299.14 48.99 311.53 49.02 323.92 48.98 C 327.22 49.04 330.52 48.99 333.83 49.00 C 345.69 49.04 357.56 48.93 369.43 49.06 C 372.67 49.33 375.91 49.55 379.14 49.89 C 391.05 51.19 402.84 53.59 414.37 56.83 C 416.06 57.37 417.77 57.87 419.47 58.40 C 431.34 62.07 442.92 66.84 453.68 73.10 C 457.65 75.57 461.58 78.13 465.22 81.08 C 468.44 83.76 471.49 86.69 474.03 90.04 C 472.81 101.91 474.61 113.98 472.65 125.81 C 469.72 129.70 465.32 132.16 461.75 135.42 C 466.77 140.43 473.24 143.77 478.07 148.96 C 471.08 156.17 463.14 162.45 456.05 169.59 C 462.75 173.41 469.74 176.72 476.25 180.86 C 452.99 192.54 429.39 203.55 406.03 215.03 C 390.59 222.42 375.27 230.05 359.75 237.29 C 359.83 234.28 359.90 231.27 359.77 228.27 C 370.26 212.79 379.83 196.70 389.88 180.93 C 387.52 175.89 385.18 170.83 382.38 166.01 C 371.11 182.78 360.24 199.83 349.05 216.65 C 335.71 217.21 322.35 216.11 309.01 216.87 C 299.66 216.91 290.32 216.30 280.97 216.70 C 275.33 217.01 269.67 216.83 264.03 216.67 C 261.11 216.62 258.29 217.68 255.98 219.43 C 243.21 204.99 231.14 189.93 218.62 175.27 C 209.12 182.20 199.95 189.59 190.48 196.56 C 189.13 197.61 187.72 198.64 186.73 200.05 C 186.25 206.58 186.53 213.16 186.74 219.71 C 196.59 212.43 205.20 203.64 214.81 196.05 C 227.50 208.42 239.72 221.27 252.55 233.49 C 252.38 243.44 252.35 253.40 252.56 263.35 C 247.56 259.40 243.42 254.53 238.84 250.13 C 230.13 241.58 221.69 232.76 212.86 224.32 C 204.48 231.75 196.49 239.62 188.19 247.15 C 186.86 248.59 184.77 249.85 184.71 252.02 C 184.44 257.59 184.61 263.17 184.84 268.73 C 186.51 267.45 188.18 266.15 189.72 264.71 C 197.25 257.44 205.09 250.50 212.55 243.16 C 216.82 246.63 220.29 250.92 224.15 254.81 C 233.63 264.64 242.89 274.67 252.56 284.32 C 252.34 295.39 252.39 306.48 252.53 317.55 C 248.72 314.28 245.92 310.09 242.77 306.24 C 233.46 294.63 224.24 282.96 214.85 271.42 C 206.66 277.99 199.06 285.24 191.03 292.00 C 188.89 293.91 186.45 295.60 184.84 298.01 C 183.53 303.29 183.51 308.82 182.92 314.22 C 195.63 306.77 207.51 297.98 220.20 290.50 C 219.35 301.40 219.85 312.67 216.06 323.10 C 211.26 339.68 206.37 356.23 201.68 372.84 C 189.78 373.16 177.86 372.98 165.96 372.98 C 163.34 373.26 161.82 370.88 160.13 369.33 C 168.94 359.74 178.09 350.47 187.03 341.00 C 190.32 337.46 193.54 333.84 197.22 330.69 C 196.21 337.44 194.09 343.95 192.60 350.59 C 191.84 353.48 191.42 356.49 190.21 359.24 C 189.28 360.14 187.66 359.56 186.46 359.84 C 186.45 357.00 186.39 354.16 186.25 351.34 C 182.21 355.55 178.87 360.37 175.65 365.23 C 181.77 365.60 187.91 365.52 194.04 365.30 C 198.28 352.10 202.30 338.82 206.50 325.61 C 208.31 319.21 210.80 313.02 212.14 306.49 C 207.59 310.14 203.85 314.63 199.70 318.71 C 180.11 338.55 161.00 358.86 141.18 378.46 C 136.13 375.49 131.27 372.22 126.22 369.27 C 121.07 372.84 116.27 376.91 111.05 380.39 C 105.34 377.43 99.88 374.04 94.14 371.16 C 91.00 373.45 88.25 376.28 84.86 378.20 C 79.28 379.02 73.61 378.38 67.99 378.39 C 67.35 375.47 66.68 372.56 65.96 369.67 C 68.35 367.83 70.80 365.21 74.09 365.50 C 91.42 366.15 108.76 366.70 126.10 367.32 C 131.66 360.64 137.44 354.10 142.46 347.00 C 136.28 348.00 130.35 350.54 124.00 350.42 C 94.32 350.31 64.63 350.45 34.95 350.34 C 33.38 350.34 31.76 350.54 30.46 351.51 C 26.50 354.17 22.67 357.02 18.87 359.91 C 18.77 365.62 18.67 371.32 19.05 377.02 C 20.86 376.70 22.89 376.69 24.27 375.29 C 28.49 371.51 33.06 368.09 36.73 363.75 C 34.59 363.78 32.28 363.13 30.23 363.95 C 28.21 365.28 26.49 366.99 24.63 368.53 C 24.68 366.30 24.03 363.64 25.99 362.00 C 27.80 359.37 31.20 359.76 33.99 359.73 C 44.47 359.96 54.95 359.53 65.42 359.97 C 60.33 365.69 54.69 370.86 49.39 376.37 C 44.93 381.05 37.83 380.36 31.96 379.96 C 25.13 379.27 18.30 378.71 11.43 378.67 C 11.12 370.52 11.41 362.35 11.30 354.18 C 19.56 349.26 27.54 343.81 35.98 339.23 C 53.30 338.84 70.67 339.18 88.01 339.07 C 92.10 338.91 96.38 339.67 100.32 338.22 C 112.74 333.46 125.15 328.71 137.59 324.02 C 141.98 328.43 146.30 332.89 150.81 337.16 C 158.93 332.12 167.10 327.17 175.21 322.11 C 175.21 318.66 175.22 315.22 175.11 311.79 C 175.30 301.31 175.17 290.84 175.20 280.36 C 175.18 274.57 175.29 268.79 175.10 263.00 C 175.30 253.83 175.17 244.65 175.20 235.47 C 175.18 229.03 175.27 222.58 175.15 216.14 C 175.10 206.83 175.27 197.37 178.02 188.39 C 178.66 186.27 179.42 184.20 180.20 182.13 C 183.55 174.09 188.69 166.83 195.08 160.92 C 200.54 155.74 207.01 151.84 213.52 148.14 C 220.92 144.80 228.47 141.77 236.32 139.66 C 242.13 138.06 248.03 136.82 253.96 135.75 C 262.06 134.35 270.25 133.44 278.45 132.81 C 287.72 132.12 297.02 131.87 306.31 131.86 C 313.39 131.87 320.46 131.87 327.54 131.87 C 334.46 131.87 341.39 131.86 348.31 131.87 C 355.83 131.93 363.35 131.72 370.86 132.01 C 375.31 132.29 379.70 133.17 384.04 134.20 C 394.12 136.70 403.84 140.82 412.53 146.54 C 422.36 153.03 431.23 162.94 431.59 175.32 C 438.43 171.68 441.95 164.09 442.53 156.63 C 443.33 145.38 441.33 133.53 434.75 124.16 C 429.18 116.10 420.99 110.19 412.18 106.11 C 404.50 102.50 396.31 100.11 388.02 98.37 C 382.21 97.19 376.36 96.24 370.46 95.70 C 361.93 94.72 353.34 94.32 344.76 94.22 C 339.29 94.18 333.82 94.18 328.36 94.30 C 314.98 94.35 301.61 94.65 288.23 95.02 C 279.23 95.33 270.22 95.52 261.23 96.10 C 251.38 96.49 241.54 97.12 231.73 98.02 C 226.82 98.50 221.93 99.11 217.03 99.64 C 220.55 95.81 224.36 92.26 227.93 88.47 C 219.17 83.47 210.35 78.58 201.69 73.41 C 209.79 67.73 218.02 62.23 226.04 56.44 C 221.77 53.98 217.40 51.69 213.19 49.11 M 271.65 69.52 C 278.68 75.12 286.56 79.57 293.89 84.77 C 300.66 79.62 307.94 75.09 314.34 69.51 C 307.52 65.83 300.74 62.07 293.90 58.40 C 286.49 62.13 279.09 65.85 271.65 69.52 M 329.79 69.76 C 335.99 74.78 342.27 79.69 348.45 84.75 C 355.43 79.86 362.27 74.76 369.17 69.75 C 362.48 65.78 355.49 62.35 348.78 58.42 C 342.33 61.99 336.04 65.86 329.79 69.76 M 218.63 73.56 C 224.88 77.86 231.12 82.17 237.26 86.63 C 243.01 82.33 248.74 77.98 254.25 73.37 C 248.55 69.05 243.04 64.48 237.24 60.30 C 231.14 64.87 224.70 68.96 218.63 73.56 M 265.97 151.01 C 265.76 153.68 265.69 156.36 265.83 159.03 C 266.42 173.71 266.66 188.39 267.13 203.07 C 267.24 207.35 267.51 211.63 267.17 215.91 C 271.13 215.87 275.34 217.45 279.10 215.58 C 278.15 210.45 278.54 205.21 278.26 200.03 C 277.71 186.72 277.60 173.40 276.89 160.11 C 273.28 157.04 269.67 153.96 265.97 151.01 M 298.00 151.04 C 297.94 151.77 297.84 153.24 297.79 153.97 C 298.22 174.62 298.98 195.27 299.47 215.91 L 300.05 216.12 C 303.79 217.50 307.88 215.62 311.79 215.94 C 311.10 214.37 310.78 212.74 310.81 211.04 C 310.84 194.73 310.87 178.42 310.81 162.11 C 306.65 158.30 302.35 154.63 298.00 151.04 M 329.88 152.89 C 329.70 163.61 330.61 174.31 330.65 185.02 C 330.72 195.34 331.71 205.66 331.16 215.97 C 334.70 216.08 338.24 216.05 341.79 215.98 C 341.26 214.38 340.99 212.74 340.98 211.07 C 340.93 194.07 341.10 177.07 340.91 160.07 C 337.29 157.60 333.71 155.04 329.88 152.89 Z" />
<path fill="#993349" opacity="1.00" d=" M 266.07 229.12 C 269.49 226.59 273.89 226.00 278.04 226.06 C 297.04 226.09 316.04 226.03 335.03 226.09 C 341.09 225.94 347.01 229.88 348.39 235.94 L 348.27 236.34 C 348.45 240.29 344.52 241.23 341.72 242.69 C 337.72 244.58 333.77 246.55 329.92 248.70 C 336.08 251.99 342.40 254.96 348.62 258.13 C 348.13 270.10 349.18 282.07 348.61 294.04 C 348.33 301.64 348.68 309.26 348.46 316.86 C 348.37 321.39 344.81 325.84 340.06 325.80 C 325.38 325.94 310.69 325.86 296.01 325.84 C 292.21 326.02 288.24 323.10 288.30 319.08 C 288.15 302.70 288.26 286.31 288.25 269.93 C 288.05 267.11 289.90 263.92 292.99 263.85 C 299.97 263.58 306.97 263.77 313.97 263.75 C 315.94 263.57 318.36 264.74 318.28 267.02 C 318.53 274.65 318.29 282.29 318.40 289.93 C 318.45 291.96 318.35 294.83 315.98 295.51 C 310.69 296.37 305.13 294.90 299.95 296.27 C 299.31 298.99 299.08 302.18 300.13 304.80 C 305.69 305.60 311.39 304.90 317.01 305.15 C 320.12 304.96 323.91 305.89 326.36 303.41 C 328.04 301.72 327.72 299.17 327.82 297.01 C 327.74 284.65 327.88 272.28 327.75 259.92 C 327.89 256.84 325.21 254.06 322.08 254.36 C 309.70 254.31 297.31 254.32 284.93 254.35 C 282.79 254.12 280.50 255.67 280.75 258.01 C 280.62 279.00 280.74 299.98 280.69 320.97 C 280.63 324.93 281.97 329.29 285.40 331.59 C 288.79 333.94 293.13 333.32 297.01 333.41 C 308.51 333.49 320.03 333.22 331.52 333.53 C 341.81 339.47 351.89 345.83 362.01 352.07 C 352.23 358.47 343.71 366.63 335.51 374.91 C 339.02 379.41 343.01 383.51 346.44 388.08 C 335.88 391.37 328.19 399.83 322.23 408.76 C 326.44 413.90 331.11 418.66 335.19 423.91 C 323.41 443.41 311.47 462.83 299.47 482.20 C 298.36 471.51 296.97 460.86 295.78 450.18 C 298.52 444.75 301.23 439.31 303.97 433.89 C 305.73 430.68 305.30 426.92 305.35 423.40 C 305.67 421.59 305.95 419.79 306.42 418.02 C 308.21 414.17 311.18 411.07 313.54 407.58 C 313.91 407.03 314.64 405.93 315.01 405.38 C 317.43 401.68 319.09 397.55 321.41 393.79 C 327.95 383.72 334.49 373.64 340.98 363.53 C 317.97 363.52 294.96 363.54 271.95 363.53 C 268.01 363.56 263.74 362.01 261.59 358.53 C 260.13 356.30 260.00 353.56 259.97 350.98 C 259.99 314.65 259.96 278.33 259.98 242.01 C 259.95 237.11 261.99 232.01 266.07 229.12 M 331.87 284.28 C 337.09 287.73 342.66 290.67 348.25 293.47 C 348.59 287.50 348.61 281.49 348.21 275.52 C 342.54 278.01 337.34 281.42 331.87 284.28 Z" />
<path fill="#993349" opacity="1.00" d=" M 359.75 254.16 C 385.58 246.52 411.07 237.73 436.88 230.05 C 432.29 239.40 427.67 248.76 422.93 258.04 C 422.16 260.09 419.92 260.50 418.05 260.99 C 398.59 265.59 379.18 270.39 359.75 275.08 C 359.88 268.11 359.87 261.13 359.75 254.16 Z" />
<path fill="#993349" opacity="1.00" d=" M 386.21 389.90 C 406.99 344.21 427.37 298.33 448.40 252.76 C 450.21 260.52 451.67 268.36 453.56 276.11 C 450.22 280.16 448.67 285.26 446.73 290.06 C 450.18 291.19 453.67 292.18 457.19 293.06 C 458.07 297.81 459.09 302.53 460.27 307.22 C 457.08 309.72 453.73 312.00 450.68 314.66 C 454.79 316.90 459.03 318.92 463.21 321.05 C 464.62 328.17 466.14 335.28 467.81 342.36 C 464.71 344.70 461.30 346.56 457.97 348.54 C 462.00 350.07 466.06 351.54 470.11 353.05 C 471.62 360.77 473.28 368.46 475.08 376.12 C 471.33 377.61 467.55 379.00 463.78 380.41 C 468.17 383.35 472.83 385.84 477.64 388.03 C 478.44 392.44 479.46 396.81 480.38 401.20 C 460.93 391.77 441.45 382.40 422.02 372.94 C 428.89 357.88 435.82 342.85 442.69 327.79 C 446.59 343.43 450.09 359.18 454.11 374.79 C 455.33 373.55 456.56 372.33 457.78 371.11 C 453.41 350.39 448.99 329.68 444.61 308.96 C 434.52 331.53 424.50 354.14 414.47 376.75 C 428.62 386.15 443.10 395.08 457.00 404.82 C 462.09 409.59 468.74 412.12 474.38 416.14 C 470.18 419.46 465.55 422.18 460.95 424.89 C 459.47 425.95 457.67 425.13 456.10 424.83 C 445.54 421.93 434.92 419.27 424.35 416.45 C 422.07 415.86 419.75 415.48 417.43 415.17 C 406.91 406.89 396.63 398.32 386.21 389.90 Z" />
<path fill="#993349" opacity="1.00" d=" M 359.75 293.87 C 375.95 291.59 392.07 288.66 408.31 286.62 C 405.79 291.26 403.11 295.83 400.06 300.15 C 399.01 301.88 396.74 301.53 395.03 301.88 C 383.26 302.87 371.52 304.22 359.75 305.08 C 359.93 301.35 359.83 297.61 359.75 293.87 Z" />
<path fill="#993349" opacity="1.00" d=" M 221.96 343.19 C 229.43 340.27 236.64 336.70 244.17 333.92 C 240.61 339.36 236.25 344.23 232.33 349.41 C 229.59 352.70 227.30 356.38 224.14 359.30 C 222.31 354.58 220.08 349.95 218.99 344.99 C 219.58 343.91 220.95 343.73 221.96 343.19 Z" />
<path fill="#993349" opacity="1.00" d=" M 226.10 382.18 C 225.58 377.29 224.38 372.44 224.56 367.50 C 233.08 370.48 241.62 373.43 250.05 376.66 C 242.14 378.80 234.15 380.70 226.10 382.18 Z" />
<path fill="#993349" opacity="1.00" d=" M 207.25 390.05 C 221.99 387.96 236.78 386.23 251.55 384.44 C 251.79 384.86 252.28 385.70 252.52 386.13 C 255.64 386.13 258.76 386.13 261.88 386.14 C 256.24 395.57 250.54 404.97 244.92 414.42 C 248.00 415.01 251.07 415.66 254.15 416.27 C 253.51 417.55 252.87 418.84 252.21 420.12 C 249.99 420.78 247.78 421.42 245.54 421.99 C 245.69 421.48 245.98 420.46 246.13 419.95 C 238.44 420.33 231.13 424.40 227.08 431.00 C 219.27 443.36 217.84 458.43 216.91 472.68 C 213.26 472.89 209.61 472.97 205.96 473.05 C 145.48 474.25 84.99 475.43 24.51 476.59 C 21.73 467.30 19.05 457.99 16.28 448.70 C 19.88 448.37 23.49 448.22 27.11 448.21 C 28.74 456.13 30.17 464.11 31.97 472.00 C 33.40 463.92 34.23 455.75 35.35 447.62 C 41.21 449.35 47.41 447.38 53.26 448.81 C 59.02 451.97 64.05 456.30 69.82 459.46 C 74.26 455.25 78.38 450.72 82.91 446.61 C 88.08 450.05 92.81 454.11 97.96 457.59 C 103.16 453.49 107.87 448.83 113.04 444.69 C 118.25 448.16 122.99 452.29 128.19 455.80 C 133.20 451.54 138.01 447.05 143.07 442.85 C 148.35 446.20 153.10 450.31 158.23 453.89 C 162.80 449.90 166.58 445.06 171.30 441.26 C 175.69 440.15 180.65 441.73 184.66 438.97 C 184.70 432.68 184.44 426.39 184.83 420.10 C 190.42 420.04 196.02 419.99 201.62 420.19 C 202.28 432.49 202.76 444.80 203.47 457.09 C 205.13 454.83 206.71 452.50 208.14 450.09 C 219.01 431.94 230.14 413.95 240.95 395.77 C 231.63 396.00 222.35 396.89 213.05 397.40 C 212.29 403.63 214.58 409.62 216.67 415.36 C 217.40 411.98 217.96 408.56 218.45 405.13 C 220.95 405.06 223.51 404.71 225.99 405.25 C 227.42 406.09 228.61 407.26 229.87 408.33 C 226.61 413.78 222.64 418.75 219.08 424.00 C 215.11 429.43 211.52 435.13 207.29 440.36 C 206.75 435.27 206.44 430.16 206.01 425.05 C 204.70 413.38 206.60 401.70 207.25 390.05 Z" />
<path fill="#993349" opacity="1.00" d=" M 288.26 438.98 C 290.10 453.41 292.02 467.83 293.88 482.26 C 290.12 482.26 286.37 482.26 282.62 482.27 C 281.87 473.24 281.39 464.19 280.61 455.17 C 283.67 450.03 285.64 444.35 288.26 438.98 Z" />
<path fill="#993349" opacity="1.00" d=" M 451.09 440.14 C 456.40 444.13 461.85 447.94 467.03 452.10 C 459.18 462.35 450.73 472.13 442.78 482.30 C 442.29 482.32 441.32 482.34 440.84 482.35 C 440.83 472.27 440.84 462.19 440.83 452.11 C 444.24 448.11 447.67 444.13 451.09 440.14 Z" />
</g>
<g id="#5f212eff">
<path fill="#5f212e" opacity="1.00" d=" M 474.03 90.04 C 476.42 93.27 478.61 96.64 480.62 100.12 C 485.98 109.73 490.02 120.12 492.03 130.95 C 494.37 142.83 493.36 154.99 493.58 167.02 C 493.58 229.34 493.58 291.67 493.58 354.00 C 493.47 364.95 494.06 375.97 492.41 386.84 C 491.75 391.06 490.94 396.04 486.51 397.93 C 484.97 393.76 484.24 389.36 483.24 385.04 C 472.22 336.59 461.40 288.09 450.28 239.66 C 443.81 250.54 438.17 261.91 432.03 272.98 C 421.15 293.12 410.27 313.26 399.39 333.41 C 386.79 337.18 374.24 341.15 361.58 344.69 C 356.05 341.49 350.45 338.42 344.84 335.36 C 349.15 333.05 353.67 330.60 356.49 326.46 C 358.25 323.98 357.88 320.78 358.19 317.92 C 358.35 313.60 359.20 309.36 359.75 305.08 C 371.52 304.22 383.26 302.87 395.03 301.88 C 396.74 301.53 399.01 301.88 400.06 300.15 C 403.11 295.83 405.79 291.26 408.31 286.62 C 392.07 288.66 375.95 291.59 359.75 293.87 C 359.62 287.61 359.62 281.35 359.75 275.08 C 379.18 270.39 398.59 265.59 418.05 260.99 C 419.92 260.50 422.16 260.09 422.93 258.04 C 427.67 248.76 432.29 239.40 436.88 230.05 C 411.07 237.73 385.58 246.52 359.75 254.16 C 359.62 248.53 359.61 242.91 359.75 237.29 C 375.27 230.05 390.59 222.42 406.03 215.03 C 429.39 203.55 452.99 192.54 476.25 180.86 C 469.74 176.72 462.75 173.41 456.05 169.59 C 463.14 162.45 471.08 156.17 478.07 148.96 C 473.24 143.77 466.77 140.43 461.75 135.42 C 465.32 132.16 469.72 129.70 472.65 125.81 C 474.61 113.98 472.81 101.91 474.03 90.04 Z" />
<path fill="#5f212e" opacity="1.00" d=" M 265.97 151.01 C 269.67 153.96 273.28 157.04 276.89 160.11 C 277.60 173.40 277.71 186.72 278.26 200.03 C 278.54 205.21 278.15 210.45 279.10 215.58 C 275.34 217.45 271.13 215.87 267.17 215.91 C 267.51 211.63 267.24 207.35 267.13 203.07 C 266.66 188.39 266.42 173.71 265.83 159.03 C 265.69 156.36 265.76 153.68 265.97 151.01 Z" />
<path fill="#5f212e" opacity="1.00" d=" M 298.00 151.04 C 302.35 154.63 306.65 158.30 310.81 162.11 C 310.87 178.42 310.84 194.73 310.81 211.04 C 310.78 212.74 311.10 214.37 311.79 215.94 C 307.88 215.62 303.79 217.50 300.05 216.12 L 299.47 215.91 C 298.98 195.27 298.22 174.62 297.79 153.97 C 297.84 153.24 297.94 151.77 298.00 151.04 Z" />
<path fill="#5f212e" opacity="1.00" d=" M 329.88 152.89 C 333.71 155.04 337.29 157.60 340.91 160.07 C 341.10 177.07 340.93 194.07 340.98 211.07 C 340.99 212.74 341.26 214.38 341.79 215.98 C 338.24 216.05 334.70 216.08 331.16 215.97 C 331.71 205.66 330.72 195.34 330.65 185.02 C 330.61 174.31 329.70 163.61 329.88 152.89 Z" />
<path fill="#5f212e" opacity="1.00" d=" M 382.38 166.01 C 385.18 170.83 387.52 175.89 389.88 180.93 C 379.83 196.70 370.26 212.79 359.77 228.27 C 359.30 225.22 358.62 221.93 356.30 219.70 C 354.41 217.73 351.64 217.10 349.05 216.65 C 360.24 199.83 371.11 182.78 382.38 166.01 Z" />
<path fill="#5f212e" opacity="1.00" d=" M 190.48 196.56 C 199.95 189.59 209.12 182.20 218.62 175.27 C 231.14 189.93 243.21 204.99 255.98 219.43 C 252.32 223.24 252.65 228.60 252.55 233.49 C 239.72 221.27 227.50 208.42 214.81 196.05 C 205.20 203.64 196.59 212.43 186.74 219.71 C 186.53 213.16 186.25 206.58 186.73 200.05 C 187.72 198.64 189.13 197.61 190.48 196.56 Z" />
<path fill="#5f212e" opacity="1.00" d=" M 188.19 247.15 C 196.49 239.62 204.48 231.75 212.86 224.32 C 221.69 232.76 230.13 241.58 238.84 250.13 C 243.42 254.53 247.56 259.40 252.56 263.35 C 252.81 270.33 252.80 277.33 252.56 284.32 C 242.89 274.67 233.63 264.64 224.15 254.81 C 220.29 250.92 216.82 246.63 212.55 243.16 C 205.09 250.50 197.25 257.44 189.72 264.71 C 188.18 266.15 186.51 267.45 184.84 268.73 C 184.61 263.17 184.44 257.59 184.71 252.02 C 184.77 249.85 186.86 248.59 188.19 247.15 Z" />
<path fill="#5f212e" opacity="1.00" d=" M 348.27 236.34 C 348.48 236.43 348.88 236.62 349.08 236.71 C 348.24 243.75 349.23 251.01 348.62 258.13 C 342.40 254.96 336.08 251.99 329.92 248.70 C 333.77 246.55 337.72 244.58 341.72 242.69 C 344.52 241.23 348.45 240.29 348.27 236.34 Z" />
<path fill="#5f212e" opacity="1.00" d=" M 191.03 292.00 C 199.06 285.24 206.66 277.99 214.85 271.42 C 224.24 282.96 233.46 294.63 242.77 306.24 C 245.92 310.09 248.72 314.28 252.53 317.55 C 252.83 340.40 252.85 363.27 252.52 386.13 C 252.28 385.70 251.79 384.86 251.55 384.44 C 236.78 386.23 221.99 387.96 207.25 390.05 C 206.60 401.70 204.70 413.38 206.01 425.05 C 206.44 430.16 206.75 435.27 207.29 440.36 C 211.52 435.13 215.11 429.43 219.08 424.00 C 222.64 418.75 226.61 413.78 229.87 408.33 C 228.61 407.26 227.42 406.09 225.99 405.25 C 223.51 404.71 220.95 405.06 218.45 405.13 C 217.96 408.56 217.40 411.98 216.67 415.36 C 214.58 409.62 212.29 403.63 213.05 397.40 C 222.35 396.89 231.63 396.00 240.95 395.77 C 230.14 413.95 219.01 431.94 208.14 450.09 C 206.71 452.50 205.13 454.83 203.47 457.09 C 202.76 444.80 202.28 432.49 201.62 420.19 C 196.02 419.99 190.42 420.04 184.83 420.10 C 184.44 426.39 184.70 432.68 184.66 438.97 C 180.65 441.73 175.69 440.15 171.30 441.26 C 166.58 445.06 162.80 449.90 158.23 453.89 C 153.10 450.31 148.35 446.20 143.07 442.85 C 138.01 447.05 133.20 451.54 128.19 455.80 C 122.99 452.29 118.25 448.16 113.04 444.69 C 107.87 448.83 103.16 453.49 97.96 457.59 C 92.81 454.11 88.08 450.05 82.91 446.61 C 78.38 450.72 74.26 455.25 69.82 459.46 C 64.05 456.30 59.02 451.97 53.26 448.81 C 47.41 447.38 41.21 449.35 35.35 447.62 C 35.66 445.34 35.98 443.08 36.29 440.81 C 42.22 440.83 48.14 440.74 54.07 440.80 C 55.48 440.73 56.83 441.17 58.06 441.82 C 61.91 444.69 65.80 447.49 69.74 450.22 C 73.00 446.55 76.03 442.70 79.27 439.03 C 79.75 438.55 80.71 437.59 81.19 437.11 C 82.69 438.26 84.19 439.40 85.71 440.54 C 89.17 443.13 92.63 445.73 96.10 448.31 C 100.15 445.18 104.18 442.01 108.24 438.88 C 109.84 437.63 111.43 436.39 113.03 435.14 C 114.58 436.29 116.13 437.45 117.67 438.60 C 121.16 441.20 124.62 443.83 128.10 446.43 C 131.38 443.61 134.61 440.75 137.86 437.91 C 139.63 436.36 141.41 434.81 143.18 433.27 C 145.20 434.82 147.21 436.37 149.22 437.94 C 152.85 440.78 156.49 443.61 160.14 446.43 C 163.31 443.33 166.32 440.08 169.50 437.00 C 171.46 435.11 173.39 433.20 175.26 431.23 C 175.64 424.77 173.14 415.93 179.71 411.79 C 186.06 409.50 193.07 411.16 199.69 410.66 C 199.74 404.10 199.62 397.53 199.70 390.97 C 199.72 389.28 200.01 386.85 202.05 386.51 C 208.24 385.48 214.39 384.19 220.41 382.38 C 220.33 378.62 220.71 374.84 220.20 371.10 C 218.80 367.16 216.56 363.60 214.74 359.85 C 212.91 364.93 211.95 370.42 209.09 375.06 C 206.46 379.03 201.34 379.85 196.95 380.20 C 186.55 380.84 176.12 380.33 165.71 380.63 C 161.96 380.04 159.40 376.84 156.34 374.87 C 153.91 377.01 151.47 379.14 149.04 381.28 C 146.46 383.55 143.86 385.81 141.22 388.03 C 139.65 386.82 138.07 385.62 136.48 384.43 C 133.06 381.86 129.64 379.29 126.20 376.76 C 122.78 379.32 119.36 381.90 115.94 384.46 C 114.34 385.66 112.72 386.84 111.10 388.03 C 110.16 387.31 109.21 386.60 108.27 385.89 C 104.22 382.82 100.16 379.77 96.06 376.77 C 92.62 380.18 89.18 383.61 85.83 387.12 C 80.92 389.12 75.32 387.62 70.13 388.06 C 69.41 384.84 68.70 381.61 67.99 378.39 C 73.61 378.38 79.28 379.02 84.86 378.20 C 88.25 376.28 91.00 373.45 94.14 371.16 C 99.88 374.04 105.34 377.43 111.05 380.39 C 116.27 376.91 121.07 372.84 126.22 369.27 C 131.27 372.22 136.13 375.49 141.18 378.46 C 161.00 358.86 180.11 338.55 199.70 318.71 C 203.85 314.63 207.59 310.14 212.14 306.49 C 210.80 313.02 208.31 319.21 206.50 325.61 C 202.30 338.82 198.28 352.10 194.04 365.30 C 187.91 365.52 181.77 365.60 175.65 365.23 C 178.87 360.37 182.21 355.55 186.25 351.34 C 186.39 354.16 186.45 357.00 186.46 359.84 C 187.66 359.56 189.28 360.14 190.21 359.24 C 191.42 356.49 191.84 353.48 192.60 350.59 C 194.09 343.95 196.21 337.44 197.22 330.69 C 193.54 333.84 190.32 337.46 187.03 341.00 C 178.09 350.47 168.94 359.74 160.13 369.33 C 161.82 370.88 163.34 373.26 165.96 372.98 C 177.86 372.98 189.78 373.16 201.68 372.84 C 206.37 356.23 211.26 339.68 216.06 323.10 C 219.85 312.67 219.35 301.40 220.20 290.50 C 207.51 297.98 195.63 306.77 182.92 314.22 C 183.51 308.82 183.53 303.29 184.84 298.01 C 186.45 295.60 188.89 293.91 191.03 292.00 M 221.96 343.19 C 220.95 343.73 219.58 343.91 218.99 344.99 C 220.08 349.95 222.31 354.58 224.14 359.30 C 227.30 356.38 229.59 352.70 232.33 349.41 C 236.25 344.23 240.61 339.36 244.17 333.92 C 236.64 336.70 229.43 340.27 221.96 343.19 M 226.10 382.18 C 234.15 380.70 242.14 378.80 250.05 376.66 C 241.62 373.43 233.08 370.48 224.56 367.50 C 224.38 372.44 225.58 377.29 226.10 382.18 Z" />
<path fill="#5f212e" opacity="1.00" d=" M 331.87 284.28 C 337.34 281.42 342.54 278.01 348.21 275.52 C 348.61 281.49 348.59 287.50 348.25 293.47 C 342.66 290.67 337.09 287.73 331.87 284.28 Z" />
<path fill="#5f212e" opacity="1.00" d=" M 446.73 290.06 C 448.67 285.26 450.22 280.16 453.56 276.11 C 454.91 281.73 456.15 287.38 457.19 293.06 C 453.67 292.18 450.18 291.19 446.73 290.06 Z" />
<path fill="#5f212e" opacity="1.00" d=" M 460.27 307.22 C 461.39 311.80 462.38 316.41 463.21 321.05 C 459.03 318.92 454.79 316.90 450.68 314.66 C 453.73 312.00 457.08 309.72 460.27 307.22 Z" />
<path fill="#5f212e" opacity="1.00" d=" M 467.81 342.36 C 468.70 345.89 469.49 349.45 470.11 353.05 C 466.06 351.54 462.00 350.07 457.97 348.54 C 461.30 346.56 464.71 344.70 467.81 342.36 Z" />
<path fill="#5f212e" opacity="1.00" d=" M 362.01 352.07 C 371.87 347.02 382.92 345.02 393.69 342.84 C 382.18 357.97 370.48 372.94 358.99 388.07 C 365.76 387.27 372.21 384.95 378.53 382.51 C 367.97 396.32 357.26 410.02 346.69 423.81 C 352.94 422.65 359.17 421.32 365.41 420.10 C 348.58 440.86 331.52 461.44 314.70 482.21 C 309.62 482.30 304.55 482.31 299.47 482.20 C 311.47 462.83 323.41 443.41 335.19 423.91 C 331.11 418.66 326.44 413.90 322.23 408.76 C 328.19 399.83 335.88 391.37 346.44 388.08 C 343.01 383.51 339.02 379.41 335.51 374.91 C 343.71 366.63 352.23 358.47 362.01 352.07 Z" />
<path fill="#5f212e" opacity="1.00" d=" M 124.00 350.42 C 130.35 350.54 136.28 348.00 142.46 347.00 C 137.44 354.10 131.66 360.64 126.10 367.32 C 108.76 366.70 91.42 366.15 74.09 365.50 C 70.80 365.21 68.35 367.83 65.96 369.67 C 64.57 375.71 64.45 381.95 63.46 388.06 C 56.74 388.08 50.03 388.05 43.31 388.08 C 33.89 388.12 24.46 388.07 15.03 388.11 C 13.94 384.92 12.47 381.88 11.43 378.67 C 18.30 378.71 25.13 379.27 31.96 379.96 C 37.83 380.36 44.93 381.05 49.39 376.37 C 54.69 370.86 60.33 365.69 65.42 359.97 C 54.95 359.53 44.47 359.96 33.99 359.73 C 31.20 359.76 27.80 359.37 25.99 362.00 C 24.03 363.64 24.68 366.30 24.63 368.53 C 26.49 366.99 28.21 365.28 30.23 363.95 C 32.28 363.13 34.59 363.78 36.73 363.75 C 33.06 368.09 28.49 371.51 24.27 375.29 C 22.89 376.69 20.86 376.70 19.05 377.02 C 18.67 371.32 18.77 365.62 18.87 359.91 C 22.67 357.02 26.50 354.17 30.46 351.51 C 31.76 350.54 33.38 350.34 34.95 350.34 C 64.63 350.45 94.32 350.31 124.00 350.42 M 112.39 351.51 C 107.54 352.48 105.65 359.34 109.39 362.62 C 112.89 366.40 120.00 363.99 120.48 358.86 C 121.33 354.42 116.71 350.26 112.39 351.51 Z" />
<path fill="#5f212e" opacity="1.00" d=" M 463.78 380.41 C 467.55 379.00 471.33 377.61 475.08 376.12 C 476.08 380.05 476.92 384.03 477.64 388.03 C 472.83 385.84 468.17 383.35 463.78 380.41 Z" />
<path fill="#5f212e" opacity="1.00" d=" M 457.00 404.82 C 461.93 405.65 466.94 405.83 471.91 406.35 C 481.02 407.49 490.10 405.53 499.19 405.06 C 492.95 416.97 486.66 428.86 480.41 440.78 C 487.94 440.25 495.45 439.38 503.00 439.16 L 503.00 439.59 C 501.80 440.50 500.62 441.45 499.61 442.57 C 488.86 454.50 477.94 466.26 467.19 478.19 C 465.87 479.55 464.72 481.16 463.07 482.14 C 456.31 482.49 449.54 482.14 442.78 482.30 C 450.73 472.13 459.18 462.35 467.03 452.10 C 461.85 447.94 456.40 444.13 451.09 440.14 C 439.88 431.80 428.61 423.54 417.43 415.17 C 419.75 415.48 422.07 415.86 424.35 416.45 C 434.92 419.27 445.54 421.93 456.10 424.83 C 457.67 425.13 459.47 425.95 460.95 424.89 C 465.55 422.18 470.18 419.46 474.38 416.14 C 468.74 412.12 462.09 409.59 457.00 404.82 Z" />
<path fill="#5f212e" opacity="1.00" d=" M 13.20 440.80 C 17.34 440.79 21.49 440.79 25.63 440.81 C 26.12 443.27 26.61 445.74 27.11 448.21 C 23.49 448.22 19.88 448.37 16.28 448.70 C 15.95 448.52 15.30 448.16 14.98 447.98 C 14.39 445.58 13.79 443.19 13.20 440.80 Z" />
</g>
<g id="#5d6c97ff">
<path fill="#5d6c97" opacity="1.00" d=" M 112.39 351.51 C 116.71 350.26 121.33 354.42 120.48 358.86 C 120.00 363.99 112.89 366.40 109.39 362.62 C 105.65 359.34 107.54 352.48 112.39 351.51 Z" />
</g>
<g id="#2a1617ff">
<path fill="#2a1617" opacity="1.00" d=" M 272.16 384.13 C 275.43 381.16 280.46 379.32 284.64 381.49 C 288.66 383.59 291.57 387.25 294.00 390.99 C 300.19 400.76 303.52 412.05 305.35 423.40 C 305.30 426.92 305.73 430.68 303.97 433.89 C 301.23 439.31 298.52 444.75 295.78 450.18 C 294.24 435.47 292.33 420.46 286.33 406.80 C 283.93 401.73 280.28 395.63 273.95 395.52 C 268.04 395.29 263.74 399.90 260.24 404.04 C 263.05 396.83 266.30 389.41 272.16 384.13 Z" />
<path fill="#2a1617" opacity="1.00" d=" M 254.53 416.32 C 258.38 411.22 263.26 405.93 269.97 405.12 C 274.88 404.24 278.59 408.47 280.73 412.32 C 285.15 420.53 286.88 429.85 288.26 438.98 C 285.64 444.35 283.67 450.03 280.61 455.17 C 278.94 447.79 277.11 439.87 271.78 434.19 C 267.76 429.80 259.88 430.80 256.60 435.58 C 255.12 437.64 254.72 440.21 254.14 442.63 C 256.66 442.65 259.19 442.66 261.72 442.67 C 256.57 446.93 252.29 452.12 248.65 457.71 C 251.06 457.73 253.48 457.72 255.90 457.71 C 250.95 460.90 247.30 465.62 244.81 470.90 C 246.52 470.90 248.23 470.90 249.94 470.90 C 244.91 474.61 242.10 480.29 239.25 485.68 C 239.62 463.40 241.36 440.07 252.21 420.12 C 252.87 418.84 253.51 417.55 254.15 416.27 L 254.53 416.32 Z" />
<path fill="#2a1617" opacity="1.00" d=" M 227.08 431.00 C 231.13 424.40 238.44 420.33 246.13 419.95 C 245.98 420.46 245.69 421.48 245.54 421.99 C 241.55 428.94 238.82 436.55 237.32 444.42 C 230.77 448.00 225.91 454.22 224.08 461.47 C 226.51 460.34 228.93 459.17 231.35 457.98 C 227.41 462.30 224.17 467.24 222.20 472.76 C 224.06 472.77 225.92 472.78 227.79 472.79 C 223.62 476.03 220.05 479.94 216.64 483.95 C 216.70 480.19 216.75 476.43 216.91 472.68 C 217.84 458.43 219.27 443.36 227.08 431.00 Z" />
<path fill="#2a1617" opacity="1.00" d=" M 403.37 426.31 C 408.15 423.16 414.88 422.85 419.59 426.31 C 425.11 430.28 428.01 436.74 430.29 442.93 C 434.67 455.57 436.25 468.97 437.08 482.26 C 432.05 482.27 427.03 482.27 422.00 482.26 C 422.09 472.79 421.86 463.07 418.78 454.02 C 417.29 449.93 414.66 445.22 409.87 444.64 C 404.73 443.99 400.54 447.87 397.73 451.71 C 391.90 459.84 389.05 469.62 386.41 479.15 C 386.46 466.95 388.12 454.62 392.04 443.03 C 394.31 436.66 397.53 430.11 403.37 426.31 Z" />
<path fill="#2a1617" opacity="1.00" d=" M 373.54 442.39 C 377.17 434.26 384.48 428.02 393.12 425.79 C 387.00 432.95 386.40 442.83 386.17 451.81 C 381.02 452.57 377.48 456.86 375.26 461.23 C 372.22 467.14 370.51 473.63 369.37 480.14 C 367.55 467.54 368.28 454.14 373.54 442.39 Z" />
<path fill="#2a1617" opacity="1.00" d=" M 401.50 456.38 C 402.83 454.13 405.04 451.55 407.98 452.20 C 411.45 452.84 413.50 456.18 414.76 459.19 C 417.62 466.51 418.07 474.48 418.23 482.26 C 415.09 482.28 411.96 482.27 408.83 482.23 C 407.60 477.19 407.72 470.95 403.66 467.22 C 399.78 467.12 397.97 471.38 395.80 473.92 C 396.95 467.88 398.50 461.79 401.50 456.38 Z" />
<path fill="#2a1617" opacity="1.00" d=" M 260.78 459.96 C 262.26 457.20 264.48 453.76 268.05 453.99 C 271.12 454.50 272.99 457.36 274.23 459.97 C 277.04 466.37 278.08 473.37 278.82 480.27 C 275.64 476.59 272.55 472.84 269.48 469.07 C 264.33 473.98 259.42 479.12 254.33 484.08 C 255.59 475.85 257.18 467.52 260.78 459.96 Z" />
</g>
</svg>
