<?xml version="1.0" encoding="UTF-8" ?>
<!DOCTYPE svg PUBLIC "-//W3C//DTD SVG 1.1//EN" "http://www.w3.org/Graphics/SVG/1.1/DTD/svg11.dtd">
<svg width="479pt" height="458pt" viewBox="0 0 479 458" version="1.1" xmlns="http://www.w3.org/2000/svg">
<g id="#c6917bff">
<path fill="#c6917b" opacity="1.00" d=" M 408.28 0.00 L 409.83 0.00 C 412.83 4.03 416.97 6.99 420.08 10.91 C 419.61 12.11 418.04 12.45 417.05 13.13 C 404.36 19.36 391.74 25.76 379.08 32.05 C 375.32 29.54 371.55 27.03 367.77 24.54 C 379.00 17.82 390.31 11.24 401.56 4.54 C 403.93 3.24 406.36 1.96 408.28 0.00 Z" />
<path fill="#c6917b" opacity="1.00" d=" M 386.63 37.71 C 399.77 30.13 413.03 22.74 426.12 15.07 C 429.97 18.15 433.74 21.33 437.49 24.52 C 423.68 31.44 409.87 38.34 396.05 45.24 C 392.91 42.73 389.77 40.22 386.63 37.71 Z" />
<path fill="#c6917b" opacity="1.00" d=" M 401.70 50.89 C 414.90 43.37 428.10 35.84 441.28 28.28 C 445.05 31.40 448.82 34.52 452.58 37.65 C 438.18 44.69 423.68 51.53 409.20 58.42 C 406.71 55.90 404.20 53.40 401.70 50.89 Z" />
<path fill="#c6917b" opacity="1.00" d=" M 333.15 92.32 C 354.08 92.29 375.01 92.33 395.94 92.30 C 399.17 92.20 402.41 92.33 405.63 92.66 C 405.23 94.38 404.73 96.11 403.79 97.62 C 401.00 102.24 398.36 106.96 395.19 111.33 C 371.96 111.16 348.73 111.34 325.50 111.24 C 327.95 104.90 330.58 98.62 333.15 92.32 Z" />
<path fill="#c6917b" opacity="1.00" d=" M 70.15 109.03 C 77.19 105.23 86.42 112.24 85.05 120.02 C 84.47 128.24 73.21 132.38 67.39 126.61 C 61.64 121.94 63.25 111.71 70.15 109.03 Z" />
<path fill="#c6917b" opacity="1.00" d=" M 324.01 114.75 C 347.01 115.10 370.01 114.72 393.01 114.94 C 389.06 121.30 384.81 127.47 380.73 133.75 C 359.24 133.92 337.74 133.79 316.25 133.82 C 318.86 127.47 321.42 121.10 324.01 114.75 Z" />
<path fill="#c6917b" opacity="1.00" d=" M 452.60 128.18 C 460.80 135.06 468.96 141.98 477.12 148.91 C 477.10 155.18 477.12 161.45 477.11 167.73 C 468.94 158.89 460.69 150.13 452.57 141.26 C 452.62 136.90 452.59 132.54 452.60 128.18 Z" />
<path fill="#c6917b" opacity="1.00" d=" M 310.16 148.85 C 311.67 145.07 313.21 141.29 314.77 137.53 C 335.84 137.56 356.92 137.52 377.99 137.54 C 375.79 141.44 373.10 145.01 370.72 148.78 C 350.53 148.97 330.35 148.83 310.16 148.85 Z" />
<path fill="#c6917b" opacity="1.00" d=" M 452.60 150.80 C 460.68 159.57 468.98 168.17 476.89 177.09 C 477.43 185.23 476.95 193.45 477.11 201.63 C 468.92 192.19 460.69 182.78 452.56 173.28 C 452.65 165.79 452.57 158.29 452.60 150.80 Z" />
<path fill="#c6917b" opacity="1.00" d=" M 116.91 180.95 C 124.40 173.41 132.00 165.99 139.40 158.37 C 146.06 166.97 152.19 175.95 158.62 184.72 C 160.43 187.22 162.25 189.72 164.07 192.23 C 160.32 196.02 156.53 199.78 152.75 203.55 C 115.54 203.49 78.34 203.58 41.14 203.50 C 36.33 203.51 30.94 201.40 29.76 196.25 C 30.32 196.19 31.45 196.07 32.01 196.01 C 37.68 195.90 43.35 196.05 49.02 196.00 C 50.29 195.99 51.56 195.99 52.83 196.00 C 59.10 195.99 65.36 196.00 71.63 195.99 C 74.79 196.00 77.94 196.00 81.10 196.00 C 86.75 195.99 92.40 195.99 98.05 196.00 C 114.71 196.01 131.38 195.98 148.04 196.02 C 151.42 196.48 153.91 193.89 156.53 192.24 C 151.49 185.34 146.47 178.43 141.46 171.52 C 136.41 175.92 131.37 180.33 126.33 184.74 C 126.83 185.21 127.83 186.15 128.33 186.62 C 132.70 186.59 137.06 186.60 141.43 186.59 C 139.56 184.70 137.68 182.82 135.80 180.94 C 137.05 179.68 138.29 178.42 139.54 177.16 C 143.32 181.54 147.08 185.93 150.83 190.32 C 136.40 190.34 121.97 190.34 107.54 190.33 C 110.66 187.20 113.79 184.07 116.91 180.95 Z" />
<path fill="#c6917b" opacity="1.00" d=" M 452.61 184.72 C 461.40 193.54 470.28 202.27 479.00 211.16 L 479.00 221.42 C 477.21 221.79 475.10 223.23 473.67 221.34 C 466.20 214.63 459.54 207.06 452.61 199.80 C 452.59 194.77 452.59 189.75 452.61 184.72 Z" />
<path fill="#c6917b" opacity="1.00" d=" M 164.08 267.64 C 167.84 263.88 171.63 260.13 175.37 256.33 C 184.83 265.10 194.24 273.91 203.66 282.72 C 201.78 284.60 199.90 286.48 198.01 288.36 C 186.70 281.44 175.41 274.51 164.08 267.64 Z" />
<path fill="#c6917b" opacity="1.00" d=" M 147.11 288.37 C 151.65 282.85 155.65 276.73 160.55 271.58 C 172.46 277.68 184.25 284.05 196.13 290.23 C 193.62 294.02 191.10 297.81 188.55 301.57 C 174.77 297.09 160.93 292.75 147.11 288.37 Z" />
<path fill="#c6917b" opacity="1.00" d=" M 143.33 295.91 C 157.79 299.00 172.24 302.15 186.69 305.33 C 185.44 307.22 184.18 309.11 182.93 311.00 C 167.22 310.99 151.50 311.01 135.79 310.99 C 138.30 305.96 140.82 300.94 143.33 295.91 Z" />
<path fill="#c6917b" opacity="1.00" d=" M 35.84 397.68 C 47.17 387.03 58.45 376.33 69.77 365.67 C 73.30 376.36 77.86 386.88 84.81 395.81 C 68.49 396.51 52.16 397.05 35.84 397.68 Z" />
<path fill="#c6917b" opacity="1.00" d=" M 39.65 405.20 C 56.59 404.03 73.52 402.75 90.46 401.45 C 97.44 409.13 105.81 415.53 115.04 420.29 C 96.86 420.96 78.69 421.58 60.52 422.23 C 53.50 416.63 46.57 410.91 39.65 405.20 Z" />
<path fill="#c6917b" opacity="1.00" d=" M 67.95 427.84 C 107.66 427.21 147.37 426.66 187.09 426.01 C 188.69 425.72 189.84 426.97 191.03 427.82 C 195.85 431.60 200.70 435.36 205.55 439.12 C 205.54 440.38 205.54 441.65 205.55 442.93 C 170.35 442.92 135.14 442.93 99.94 442.93 C 96.10 442.76 92.17 443.31 88.39 442.65 C 81.50 437.83 74.77 432.76 67.95 427.84 Z" />
<path fill="#c6917b" opacity="1.00" d=" M 94.30 446.67 C 135.15 446.66 176.00 446.67 216.86 446.67 C 220.68 450.43 224.37 454.33 228.27 458.00 L 107.60 458.00 C 103.08 454.32 98.76 450.42 94.30 446.67 Z" />
</g>
<g id="#a58333ff">
<path fill="#a58333" opacity="1.00" d=" M 224.92 25.87 C 233.31 23.14 242.28 21.78 251.06 23.24 C 265.10 25.37 278.28 30.95 291.60 35.62 C 295.54 36.98 299.79 38.44 303.95 37.04 C 318.20 33.21 332.01 26.68 347.00 26.41 C 361.38 26.69 374.96 33.17 386.25 41.73 C 391.05 45.24 394.91 49.78 399.03 54.02 C 409.63 64.23 423.58 69.82 435.06 78.85 C 442.09 84.32 445.65 92.93 447.32 101.45 C 450.85 119.39 450.28 137.78 450.83 155.97 C 446.84 152.06 441.76 149.45 436.18 148.77 C 436.74 152.88 437.90 157.55 435.27 161.21 C 431.97 166.64 422.58 167.80 419.00 162.10 C 415.92 157.55 416.49 151.70 418.70 146.93 C 413.86 147.34 408.99 147.91 404.36 149.46 C 393.78 152.80 384.99 160.13 374.39 163.41 C 367.07 165.79 359.25 166.24 351.63 165.50 C 338.69 164.24 326.93 158.25 315.29 152.94 C 334.32 152.02 353.41 152.84 372.48 152.51 C 382.67 137.31 392.94 122.14 402.61 106.59 C 404.56 103.27 406.80 100.10 408.31 96.55 C 409.18 94.41 409.26 91.39 407.17 89.93 C 405.38 88.65 403.06 88.76 400.97 88.64 C 377.60 88.71 354.23 88.66 330.86 88.67 C 322.21 109.17 314.04 129.90 305.61 150.50 C 293.67 147.99 281.20 148.58 269.39 151.48 C 255.66 154.62 243.24 162.37 229.11 163.83 C 222.27 164.42 215.63 162.19 209.37 159.71 C 195.76 154.16 182.90 146.89 169.08 141.86 C 161.73 139.19 153.95 137.24 146.08 137.68 C 133.28 138.20 121.22 142.91 109.42 147.47 C 103.92 149.50 98.44 151.87 92.57 152.53 C 86.47 152.98 80.52 151.09 74.77 149.31 C 74.51 148.80 74.01 147.78 73.75 147.27 C 73.51 147.49 73.02 147.94 72.78 148.17 C 67.22 146.89 61.93 144.58 56.25 143.78 C 46.83 142.47 37.19 143.68 28.14 146.47 C 23.49 147.71 18.58 149.77 13.74 148.34 C 10.25 146.87 7.56 144.09 4.52 141.92 C 1.65 135.91 0.20 129.33 0.00 122.68 L 0.00 120.10 C 5.80 90.78 25.46 65.28 50.69 49.76 C 67.00 39.84 84.88 32.38 103.54 28.28 C 123.60 24.05 145.11 24.06 164.40 31.59 C 173.55 35.83 183.82 38.54 193.93 37.27 C 204.67 34.68 214.37 29.06 224.92 25.87 M 122.39 64.45 C 117.57 65.59 113.29 69.83 113.21 74.96 C 112.89 80.73 117.81 85.78 123.38 86.53 C 129.96 87.77 137.39 82.88 137.60 75.90 C 138.14 68.16 129.55 62.41 122.39 64.45 M 207.37 100.42 C 201.87 102.12 196.35 105.04 193.07 109.93 C 189.65 114.95 190.34 121.36 191.05 127.06 C 191.55 131.17 193.63 135.78 198.01 136.87 C 203.83 138.19 210.01 137.46 215.62 135.54 C 220.71 133.80 225.69 129.71 226.17 124.02 C 226.70 117.24 224.31 110.27 219.86 105.14 C 216.78 101.77 212.07 98.90 207.37 100.42 M 430.37 107.45 C 427.05 107.69 423.93 109.90 422.92 113.12 C 420.97 117.98 424.83 123.95 430.02 124.31 C 434.81 125.03 439.51 120.79 439.36 115.98 C 439.56 111.24 435.04 107.08 430.37 107.45 M 70.15 109.03 C 63.25 111.71 61.64 121.94 67.39 126.61 C 73.21 132.38 84.47 128.24 85.05 120.02 C 86.42 112.24 77.19 105.23 70.15 109.03 M 241.31 138.35 C 236.16 140.06 233.83 147.20 237.75 151.25 C 242.36 157.04 253.25 154.82 254.47 147.27 C 255.64 140.41 247.17 135.56 241.31 138.35 Z" />
<path fill="#a58333" opacity="1.00" d=" M 174.41 156.47 C 179.98 155.57 184.81 161.99 182.20 167.05 C 180.18 172.08 172.57 173.04 169.44 168.59 C 165.81 164.28 168.84 157.03 174.41 156.47 Z" />
<path fill="#a58333" opacity="1.00" d=" M 307.30 162.42 C 314.47 160.56 323.05 166.18 322.43 174.00 C 322.15 181.79 313.02 186.63 306.07 184.01 C 300.46 182.36 296.55 176.04 298.44 170.31 C 299.73 166.36 303.23 163.25 307.30 162.42 Z" />
<path fill="#a58333" opacity="1.00" d=" M 271.47 222.61 C 282.11 219.99 293.41 219.79 304.09 222.23 C 310.70 223.80 317.30 227.24 320.68 233.40 C 316.07 239.54 308.16 241.60 300.92 242.61 C 286.82 244.07 272.48 242.33 259.00 238.06 C 257.58 239.53 257.30 241.81 256.42 243.63 C 255.18 247.17 252.39 249.80 249.73 252.31 C 251.62 254.81 253.58 257.86 252.31 261.11 C 251.15 266.94 243.46 269.45 238.74 266.21 C 236.14 264.38 235.00 261.26 233.56 258.55 C 222.92 261.50 211.21 260.28 201.62 254.72 C 204.74 245.42 213.87 239.78 222.85 237.17 C 229.67 234.90 237.11 236.42 243.85 233.84 C 253.20 230.44 261.74 224.97 271.47 222.61 Z" />
<path fill="#a58333" opacity="1.00" d=" M 49.26 259.29 C 51.83 256.09 56.43 255.80 59.99 257.38 C 63.96 259.91 65.45 265.68 62.61 269.59 C 59.78 274.02 52.82 274.49 49.37 270.55 C 46.71 267.39 46.35 262.41 49.26 259.29 Z" />
<path fill="#a58333" opacity="1.00" d=" M 248.84 318.86 C 261.28 314.24 274.73 311.71 287.99 313.41 C 310.20 316.84 326.55 338.24 328.21 359.97 C 321.41 360.28 314.58 361.05 308.05 363.01 C 297.53 366.21 287.51 370.85 276.99 374.03 C 270.88 376.05 264.46 374.23 258.53 372.46 C 254.37 371.25 250.44 369.40 246.64 367.34 C 239.86 363.65 232.17 362.35 224.78 360.44 C 227.59 358.00 230.99 355.56 231.59 351.60 C 232.43 347.28 232.10 341.67 228.00 339.06 C 223.52 336.64 218.02 337.08 213.30 338.54 C 210.11 339.57 208.07 342.70 207.64 345.93 C 206.76 349.86 208.50 353.67 209.93 357.24 C 200.32 355.88 190.49 355.83 180.95 357.70 C 162.20 361.15 145.06 370.03 126.64 374.67 C 113.47 377.90 99.03 378.04 86.45 372.54 C 81.36 370.41 77.26 366.64 73.51 362.70 C 74.60 346.34 84.62 330.76 99.41 323.51 C 115.33 315.42 133.83 316.03 151.13 317.56 C 164.07 318.58 175.95 324.81 188.94 325.53 C 209.06 326.93 229.73 325.78 248.84 318.86 Z" />
</g>
<g id="#795e26ff">
<path fill="#795e26" opacity="1.00" d=" M 122.39 64.45 C 129.55 62.41 138.14 68.16 137.60 75.90 C 137.39 82.88 129.96 87.77 123.38 86.53 C 117.81 85.78 112.89 80.73 113.21 74.96 C 113.29 69.83 117.57 65.59 122.39 64.45 Z" />
<path fill="#795e26" opacity="1.00" d=" M 207.37 100.42 C 212.07 98.90 216.78 101.77 219.86 105.14 C 224.31 110.27 226.70 117.24 226.17 124.02 C 225.69 129.71 220.71 133.80 215.62 135.54 C 210.01 137.46 203.83 138.19 198.01 136.87 C 193.63 135.78 191.55 131.17 191.05 127.06 C 190.34 121.36 189.65 114.95 193.07 109.93 C 196.35 105.04 201.87 102.12 207.37 100.42 Z" />
<path fill="#795e26" opacity="1.00" d=" M 430.37 107.45 C 435.04 107.08 439.56 111.24 439.36 115.98 C 439.51 120.79 434.81 125.03 430.02 124.31 C 424.83 123.95 420.97 117.98 422.92 113.12 C 423.93 109.90 427.05 107.69 430.37 107.45 Z" />
<path fill="#795e26" opacity="1.00" d=" M 109.42 147.47 C 121.22 142.91 133.28 138.20 146.08 137.68 C 153.95 137.24 161.73 139.19 169.08 141.86 C 182.90 146.89 195.76 154.16 209.37 159.71 C 215.63 162.19 222.27 164.42 229.11 163.83 C 243.24 162.37 255.66 154.62 269.39 151.48 C 281.20 148.58 293.67 147.99 305.61 150.50 C 305.52 151.01 305.33 152.03 305.24 152.54 C 308.59 152.58 311.94 152.70 315.29 152.94 C 326.93 158.25 338.69 164.24 351.63 165.50 C 359.25 166.24 367.07 165.79 374.39 163.41 C 384.99 160.13 393.78 152.80 404.36 149.46 C 408.99 147.91 413.86 147.34 418.70 146.93 C 416.49 151.70 415.92 157.55 419.00 162.10 C 422.58 167.80 431.97 166.64 435.27 161.21 C 437.90 157.55 436.74 152.88 436.18 148.77 C 441.76 149.45 446.84 152.06 450.83 155.97 C 451.02 164.31 450.97 172.67 450.88 181.02 C 450.25 182.83 449.14 184.45 447.47 185.44 C 436.16 192.89 421.99 195.45 408.67 193.50 C 398.92 192.08 390.37 186.82 381.07 183.93 C 371.41 180.86 361.09 180.51 351.06 181.44 C 340.82 182.74 329.96 185.88 322.89 193.87 C 318.02 195.34 312.98 196.17 307.97 196.98 C 303.19 197.65 298.28 198.37 293.51 197.28 C 276.98 193.32 261.20 185.68 244.03 184.76 C 215.56 184.69 187.09 184.76 158.62 184.72 C 152.19 175.95 146.06 166.97 139.40 158.37 C 132.00 165.99 124.40 173.41 116.91 180.95 C 109.09 180.91 101.27 180.94 93.44 180.93 C 92.55 177.86 91.59 174.81 90.56 171.78 C 89.40 174.36 88.28 176.96 87.33 179.63 C 84.01 176.29 80.66 172.97 77.37 169.60 C 78.68 167.13 79.86 164.59 81.06 162.06 C 79.02 157.78 76.94 153.52 74.77 149.31 C 80.52 151.09 86.47 152.98 92.57 152.53 C 98.44 151.87 103.92 149.50 109.42 147.47 M 174.41 156.47 C 168.84 157.03 165.81 164.28 169.44 168.59 C 172.57 173.04 180.18 172.08 182.20 167.05 C 184.81 161.99 179.98 155.57 174.41 156.47 M 307.30 162.42 C 303.23 163.25 299.73 166.36 298.44 170.31 C 296.55 176.04 300.46 182.36 306.07 184.01 C 313.02 186.63 322.15 181.79 322.43 174.00 C 323.05 166.18 314.47 160.56 307.30 162.42 M 398.42 175.44 C 393.58 176.34 392.62 183.88 397.10 185.89 C 400.56 188.02 405.53 185.07 405.42 181.03 C 405.55 177.46 401.85 174.53 398.42 175.44 Z" />
<path fill="#795e26" opacity="1.00" d=" M 241.31 138.35 C 247.17 135.56 255.64 140.41 254.47 147.27 C 253.25 154.82 242.36 157.04 237.75 151.25 C 233.83 147.20 236.16 140.06 241.31 138.35 Z" />
<path fill="#795e26" opacity="1.00" d=" M 4.52 141.92 C 7.56 144.09 10.25 146.87 13.74 148.34 C 18.58 149.77 23.49 147.71 28.14 146.47 C 37.19 143.68 46.83 142.47 56.25 143.78 C 61.93 144.58 67.22 146.89 72.78 148.17 C 69.78 152.73 67.04 157.46 64.08 162.05 C 62.83 162.06 61.59 162.07 60.34 162.09 C 57.27 157.11 54.31 152.05 50.95 147.26 C 47.48 151.99 44.57 157.09 41.48 162.07 C 40.23 162.07 38.97 162.08 37.71 162.08 C 34.60 157.04 31.57 151.94 28.25 147.03 C 24.22 151.90 21.01 157.44 16.42 161.84 C 9.35 157.61 7.54 148.98 4.52 141.92 Z" />
<path fill="#795e26" opacity="1.00" d=" M 343.40 194.44 C 350.11 192.42 358.33 198.76 356.01 205.97 C 353.83 214.26 340.92 215.38 336.93 208.00 C 333.60 202.69 337.48 195.51 343.40 194.44 Z" />
<path fill="#795e26" opacity="1.00" d=" M 423.24 198.26 C 428.13 196.28 433.47 201.83 431.48 206.65 C 430.23 210.80 424.74 212.40 421.37 209.79 C 416.99 207.05 418.21 199.51 423.24 198.26 Z" />
<path fill="#795e26" opacity="1.00" d=" M 320.68 233.40 C 320.78 238.06 320.76 242.79 319.62 247.34 C 318.10 253.42 314.68 259.10 309.30 262.50 C 308.04 263.18 306.78 263.85 305.47 264.42 C 300.55 265.68 295.44 265.77 290.39 265.87 C 289.45 265.90 287.57 265.97 286.63 266.00 C 284.12 266.12 281.62 266.35 279.13 266.65 C 277.22 266.89 275.31 267.17 273.42 267.49 C 266.31 268.62 259.40 270.79 252.88 273.83 C 246.77 276.52 240.82 280.18 234.00 280.64 C 226.59 281.05 219.05 280.12 212.06 277.56 C 207.13 275.71 202.29 272.28 200.54 267.10 C 199.11 263.02 200.12 258.62 201.62 254.72 C 211.21 260.28 222.92 261.50 233.56 258.55 C 235.00 261.26 236.14 264.38 238.74 266.21 C 243.46 269.45 251.15 266.94 252.31 261.11 C 253.58 257.86 251.62 254.81 249.73 252.31 C 252.39 249.80 255.18 247.17 256.42 243.63 C 257.30 241.81 257.58 239.53 259.00 238.06 C 272.48 242.33 286.82 244.07 300.92 242.61 C 308.16 241.60 316.07 239.54 320.68 233.40 Z" />
<path fill="#795e26" opacity="1.00" d=" M 213.30 338.54 C 218.02 337.08 223.52 336.64 228.00 339.06 C 232.10 341.67 232.43 347.28 231.59 351.60 C 230.99 355.56 227.59 358.00 224.78 360.44 C 232.17 362.35 239.86 363.65 246.64 367.34 C 250.44 369.40 254.37 371.25 258.53 372.46 C 264.46 374.23 270.88 376.05 276.99 374.03 C 287.51 370.85 297.53 366.21 308.05 363.01 C 314.58 361.05 321.41 360.28 328.21 359.97 C 328.66 371.36 327.88 383.22 322.77 393.61 C 319.35 391.25 315.73 389.12 311.67 388.09 C 310.50 391.13 309.83 394.99 306.61 396.58 C 303.39 398.17 299.04 398.24 296.20 395.85 C 293.65 393.20 295.04 389.33 295.46 386.15 C 286.80 384.62 277.74 383.52 269.17 386.14 C 255.87 390.11 241.53 391.67 227.95 388.21 C 212.93 384.61 197.61 378.29 181.94 381.75 C 162.43 386.38 145.10 397.93 125.09 400.83 C 113.49 402.40 100.80 401.00 91.05 394.05 C 89.22 392.82 87.22 391.88 85.26 390.88 C 79.03 382.69 74.63 373.00 73.51 362.70 C 77.26 366.64 81.36 370.41 86.45 372.54 C 99.03 378.04 113.47 377.90 126.64 374.67 C 145.06 370.03 162.20 361.15 180.95 357.70 C 190.49 355.83 200.32 355.88 209.93 357.24 C 208.50 353.67 206.76 349.86 207.64 345.93 C 208.07 342.70 210.11 339.57 213.30 338.54 M 201.37 362.37 C 197.93 363.78 196.89 368.74 199.58 371.34 C 202.27 374.62 208.28 373.08 209.11 368.92 C 210.45 364.58 205.42 360.35 201.37 362.37 Z" />
<path fill="#795e26" opacity="1.00" d=" M 162.33 394.47 C 167.40 391.84 173.57 397.85 171.11 402.94 C 169.55 407.38 163.08 408.60 160.12 404.91 C 156.99 401.80 158.40 396.15 162.33 394.47 Z" />
</g>
<g id="#513f19ff">
<path fill="#513f19" opacity="1.00" d=" M 460.41 74.53 C 466.19 71.53 473.99 75.47 474.99 81.90 C 476.40 87.96 471.22 94.30 465.02 94.20 C 459.13 94.46 453.89 88.90 454.55 83.03 C 454.80 79.41 457.13 76.07 460.41 74.53 Z" />
<path fill="#513f19" opacity="1.00" d=" M 28.25 147.03 C 31.57 151.94 34.60 157.04 37.71 162.08 C 33.94 167.74 30.18 173.39 26.40 179.04 C 22.99 173.35 20.37 167.17 16.42 161.84 C 21.01 157.44 24.22 151.90 28.25 147.03 Z" />
<path fill="#513f19" opacity="1.00" d=" M 72.78 148.17 C 73.02 147.94 73.51 147.49 73.75 147.27 C 74.01 147.78 74.51 148.80 74.77 149.31 C 76.94 153.52 79.02 157.78 81.06 162.06 C 79.86 164.59 78.68 167.13 77.37 169.60 C 76.08 172.11 74.79 174.61 73.55 177.14 C 70.38 172.12 67.27 167.06 64.08 162.05 C 67.04 157.46 69.78 152.73 72.78 148.17 Z" />
<path fill="#513f19" opacity="1.00" d=" M 41.48 162.07 C 44.57 157.09 47.48 151.99 50.95 147.26 C 54.31 152.05 57.27 157.11 60.34 162.09 C 57.20 167.11 54.08 172.13 50.92 177.14 C 47.76 172.12 44.64 167.09 41.48 162.07 Z" />
<path fill="#513f19" opacity="1.00" d=" M 32.01 196.01 C 35.30 187.92 38.24 179.69 41.51 171.59 C 44.01 179.73 46.52 187.86 49.02 196.00 C 43.35 196.05 37.68 195.90 32.01 196.01 Z" />
<path fill="#513f19" opacity="1.00" d=" M 87.33 179.63 C 88.28 176.96 89.40 174.36 90.56 171.78 C 91.59 174.81 92.55 177.86 93.44 180.93 C 94.93 185.97 96.52 190.97 98.05 196.00 C 92.40 195.99 86.75 195.99 81.10 196.00 C 83.18 190.54 85.35 185.12 87.33 179.63 Z" />
<path fill="#513f19" opacity="1.00" d=" M 62.23 173.44 C 65.39 180.95 68.52 188.46 71.63 195.99 C 65.36 196.00 59.10 195.99 52.83 196.00 C 55.95 188.47 59.08 180.95 62.23 173.44 Z" />
<path fill="#513f19" opacity="1.00" d=" M 398.42 175.44 C 401.85 174.53 405.55 177.46 405.42 181.03 C 405.53 185.07 400.56 188.02 397.10 185.89 C 392.62 183.88 393.58 176.34 398.42 175.44 Z" />
<path fill="#513f19" opacity="1.00" d=" M 322.89 193.87 C 329.96 185.88 340.82 182.74 351.06 181.44 C 361.09 180.51 371.41 180.86 381.07 183.93 C 390.37 186.82 398.92 192.08 408.67 193.50 C 421.99 195.45 436.16 192.89 447.47 185.44 C 449.14 184.45 450.25 182.83 450.88 181.02 C 450.40 202.35 450.91 223.70 450.82 245.03 C 439.54 230.55 419.48 225.62 402.00 229.06 C 390.05 231.02 380.11 238.72 368.42 241.48 C 360.77 243.42 352.80 243.30 344.99 242.73 C 338.31 242.14 331.20 240.94 326.13 236.16 C 326.26 224.12 326.32 212.08 326.20 200.05 C 326.41 197.41 325.13 195.17 322.89 193.87 M 343.40 194.44 C 337.48 195.51 333.60 202.69 336.93 208.00 C 340.92 215.38 353.83 214.26 356.01 205.97 C 358.33 198.76 350.11 192.42 343.40 194.44 M 423.24 198.26 C 418.21 199.51 416.99 207.05 421.37 209.79 C 424.74 212.40 430.23 210.80 431.48 206.65 C 433.47 201.83 428.13 196.28 423.24 198.26 Z" />
<path fill="#513f19" opacity="1.00" d=" M 36.18 237.29 C 42.19 234.21 49.99 235.49 54.76 240.25 C 59.36 244.56 61.13 251.26 59.99 257.38 C 56.43 255.80 51.83 256.09 49.26 259.29 C 46.35 262.41 46.71 267.39 49.37 270.55 C 46.29 271.07 43.11 271.83 40.00 271.03 C 32.84 269.59 27.37 263.03 26.56 255.88 C 25.52 248.49 29.40 240.58 36.18 237.29 Z" />
<path fill="#513f19" opacity="1.00" d=" M 121.43 281.57 C 128.05 278.61 137.21 284.34 135.58 291.93 C 133.97 300.44 121.28 302.32 116.68 295.29 C 113.06 290.56 115.95 283.30 121.43 281.57 Z" />
<path fill="#513f19" opacity="1.00" d=" M 201.37 362.37 C 205.42 360.35 210.45 364.58 209.11 368.92 C 208.28 373.08 202.27 374.62 199.58 371.34 C 196.89 368.74 197.93 363.78 201.37 362.37 Z" />
<path fill="#513f19" opacity="1.00" d=" M 181.94 381.75 C 197.61 378.29 212.93 384.61 227.95 388.21 C 241.53 391.67 255.87 390.11 269.17 386.14 C 277.74 383.52 286.80 384.62 295.46 386.15 C 295.04 389.33 293.65 393.20 296.20 395.85 C 299.04 398.24 303.39 398.17 306.61 396.58 C 309.83 394.99 310.50 391.13 311.67 388.09 C 315.73 389.12 319.35 391.25 322.77 393.61 C 312.10 405.47 296.92 413.50 280.90 414.49 C 270.80 415.08 260.65 413.43 251.10 410.16 C 239.76 406.64 229.17 399.92 217.03 399.60 C 208.97 399.68 201.61 403.35 194.31 406.35 C 180.13 412.61 165.65 419.48 149.90 420.20 C 135.17 420.69 120.06 417.98 107.05 410.83 C 98.41 406.00 90.53 399.34 85.26 390.88 C 87.22 391.88 89.22 392.82 91.05 394.05 C 100.80 401.00 113.49 402.40 125.09 400.83 C 145.10 397.93 162.43 386.38 181.94 381.75 M 162.33 394.47 C 158.40 396.15 156.99 401.80 160.12 404.91 C 163.08 408.60 169.55 407.38 171.11 402.94 C 173.57 397.85 167.40 391.84 162.33 394.47 Z" />
<path fill="#513f19" opacity="1.00" d=" M 313.23 418.33 C 314.98 417.50 315.92 419.62 316.22 420.96 C 316.95 424.13 317.06 427.47 316.58 430.69 C 315.16 432.71 312.22 431.38 310.37 430.68 C 308.13 429.51 304.84 427.89 305.03 424.97 C 307.06 422.08 310.03 419.80 313.23 418.33 Z" />
<path fill="#513f19" opacity="1.00" d=" M 275.42 422.50 C 280.50 421.44 286.68 423.02 289.17 427.95 C 291.26 432.85 291.04 440.03 286.18 443.23 C 278.53 446.86 268.71 444.12 263.62 437.48 C 261.99 435.39 261.60 432.37 263.02 430.07 C 265.58 425.66 270.57 423.38 275.42 422.50 Z" />
</g>
<g id="#625d45ff">
<path fill="#625d45" opacity="1.00" d=" M 305.61 150.50 C 314.04 129.90 322.21 109.17 330.86 88.67 C 354.23 88.66 377.60 88.71 400.97 88.64 C 403.06 88.76 405.38 88.65 407.17 89.93 C 409.26 91.39 409.18 94.41 408.31 96.55 C 406.80 100.10 404.56 103.27 402.61 106.59 C 392.94 122.14 382.67 137.31 372.48 152.51 C 353.41 152.84 334.32 152.02 315.29 152.94 C 311.94 152.70 308.59 152.58 305.24 152.54 C 305.33 152.03 305.52 151.01 305.61 150.50 M 333.15 92.32 C 330.58 98.62 327.95 104.90 325.50 111.24 C 348.73 111.34 371.96 111.16 395.19 111.33 C 398.36 106.96 401.00 102.24 403.79 97.62 C 404.73 96.11 405.23 94.38 405.63 92.66 C 402.41 92.33 399.17 92.20 395.94 92.30 C 375.01 92.33 354.08 92.29 333.15 92.32 M 324.01 114.75 C 321.42 121.10 318.86 127.47 316.25 133.82 C 337.74 133.79 359.24 133.92 380.73 133.75 C 384.81 127.47 389.06 121.30 393.01 114.94 C 370.01 114.72 347.01 115.10 324.01 114.75 M 310.16 148.85 C 330.35 148.83 350.53 148.97 370.72 148.78 C 373.10 145.01 375.79 141.44 377.99 137.54 C 356.92 137.52 335.84 137.56 314.77 137.53 C 313.21 141.29 311.67 145.07 310.16 148.85 Z" />
<path fill="#625d45" opacity="1.00" d=" M 402.00 229.06 C 419.48 225.62 439.54 230.55 450.82 245.03 C 450.58 269.03 450.78 293.03 450.71 317.03 C 450.59 332.67 451.29 348.40 449.08 363.94 C 446.56 383.39 439.83 402.83 426.91 417.86 C 415.59 431.24 399.75 440.23 383.00 444.93 C 364.84 450.23 345.77 450.70 327.00 450.47 C 295.32 450.47 263.65 450.46 231.98 450.47 C 218.13 439.77 204.29 429.05 190.41 418.38 C 195.01 413.63 200.57 409.56 207.06 407.89 C 213.13 406.20 219.48 407.62 225.28 409.65 C 236.48 413.52 247.67 417.79 259.50 419.31 C 278.16 421.86 298.27 419.55 314.39 409.23 C 324.68 402.77 332.32 392.12 334.61 380.14 C 336.36 371.17 335.60 361.96 334.87 352.92 C 333.79 343.50 332.15 333.58 326.28 325.82 C 326.12 295.93 326.42 266.04 326.13 236.16 C 331.20 240.94 338.31 242.14 344.99 242.73 C 352.80 243.30 360.77 243.42 368.42 241.48 C 380.11 238.72 390.05 231.02 402.00 229.06 M 384.77 290.13 C 385.26 295.84 385.74 301.57 386.74 307.22 C 393.03 307.91 399.33 308.65 405.65 308.91 C 407.29 302.62 409.44 296.49 411.05 290.20 C 406.75 287.04 402.43 283.90 398.01 280.91 C 393.46 283.78 389.24 287.12 384.77 290.13 M 343.14 377.09 C 341.88 380.76 340.66 384.44 339.45 388.13 C 342.49 391.44 345.67 394.60 348.96 397.66 C 353.36 394.54 357.85 391.54 362.06 388.16 C 359.63 383.81 357.11 379.52 354.70 375.17 C 350.81 375.53 346.95 376.19 343.14 377.09 M 386.90 401.17 C 387.79 407.04 390.57 412.50 392.12 418.24 C 399.75 417.52 407.25 415.86 414.83 414.72 C 415.45 408.53 416.40 402.35 416.64 396.14 C 410.87 392.20 404.15 389.65 397.93 386.42 C 394.22 391.31 390.36 396.10 386.90 401.17 M 217.20 425.89 C 220.48 429.31 224.24 432.29 228.04 435.10 C 232.07 434.62 235.88 432.95 239.57 431.31 C 238.92 428.27 238.25 425.23 237.63 422.18 C 233.35 420.23 228.98 418.48 224.71 416.52 C 221.99 419.45 219.19 422.40 217.20 425.89 M 313.23 418.33 C 310.03 419.80 307.06 422.08 305.03 424.97 C 304.84 427.89 308.13 429.51 310.37 430.68 C 312.22 431.38 315.16 432.71 316.58 430.69 C 317.06 427.47 316.95 424.13 316.22 420.96 C 315.92 419.62 314.98 417.50 313.23 418.33 M 275.42 422.50 C 270.57 423.38 265.58 425.66 263.02 430.07 C 261.60 432.37 261.99 435.39 263.62 437.48 C 268.71 444.12 278.53 446.86 286.18 443.23 C 291.04 440.03 291.26 432.85 289.17 427.95 C 286.68 423.02 280.50 421.44 275.42 422.50 Z" />
<path fill="#625d45" opacity="1.00" d=" M 309.30 262.50 C 314.68 259.10 318.10 253.42 319.62 247.34 C 323.25 249.73 322.41 254.32 322.48 258.03 C 322.30 264.99 322.77 271.97 322.25 278.92 C 321.68 284.69 316.99 289.93 311.01 290.11 C 303.03 290.43 295.03 290.22 287.05 290.23 C 283.46 290.37 279.50 287.92 279.26 284.09 C 278.92 278.29 279.22 272.46 279.13 266.65 C 281.62 266.35 284.12 266.12 286.63 266.00 C 286.82 270.14 285.70 275.00 288.54 278.48 C 291.36 281.79 296.18 280.63 300.00 280.85 C 303.55 281.09 307.85 279.71 308.90 275.91 C 309.70 271.49 309.17 266.97 309.30 262.50 Z" />
<path fill="#625d45" opacity="1.00" d=" M 290.39 265.87 C 295.44 265.77 300.55 265.68 305.47 264.42 C 305.18 268.27 306.70 273.45 303.07 276.15 C 299.97 277.55 296.06 277.51 292.95 276.16 C 289.40 274.01 290.68 269.30 290.39 265.87 Z" />
<path fill="#625d45" opacity="1.00" d=" M 252.88 273.83 C 259.40 270.79 266.31 268.62 273.42 267.49 C 273.44 276.00 273.44 284.50 273.43 293.00 C 273.42 298.22 271.47 303.93 266.87 306.83 C 263.67 308.94 259.71 309.12 256.01 309.14 C 234.16 309.11 212.31 309.15 190.47 309.12 C 196.05 297.68 202.20 285.92 212.06 277.56 C 219.05 280.12 226.59 281.05 234.00 280.64 C 240.82 280.18 246.77 276.52 252.88 273.83 Z" />
</g>
<g id="#8c8862ff">
<path fill="#8c8862" opacity="1.00" d=" M 175.39 188.47 C 199.90 188.46 224.41 188.47 248.92 188.47 C 242.79 194.13 236.54 199.68 230.41 205.36 C 229.18 206.51 227.82 207.62 226.10 207.88 C 189.70 217.11 153.32 226.42 116.90 235.59 C 96.20 226.73 75.44 218.01 54.72 209.19 C 88.71 209.18 122.69 209.27 156.68 209.14 C 162.83 202.17 169.18 195.38 175.39 188.47 Z" />
<path fill="#8c8862" opacity="1.00" d=" M 384.77 290.13 C 389.24 287.12 393.46 283.78 398.01 280.91 C 402.43 283.90 406.75 287.04 411.05 290.20 C 409.44 296.49 407.29 302.62 405.65 308.91 C 399.33 308.65 393.03 307.91 386.74 307.22 C 385.74 301.57 385.26 295.84 384.77 290.13 Z" />
<path fill="#8c8862" opacity="1.00" d=" M 343.14 377.09 C 346.95 376.19 350.81 375.53 354.70 375.17 C 357.11 379.52 359.63 383.81 362.06 388.16 C 357.85 391.54 353.36 394.54 348.96 397.66 C 345.67 394.60 342.49 391.44 339.45 388.13 C 340.66 384.44 341.88 380.76 343.14 377.09 Z" />
<path fill="#8c8862" opacity="1.00" d=" M 386.90 401.17 C 390.36 396.10 394.22 391.31 397.93 386.42 C 404.15 389.65 410.87 392.20 416.64 396.14 C 416.40 402.35 415.45 408.53 414.83 414.72 C 407.25 415.86 399.75 417.52 392.12 418.24 C 390.57 412.50 387.79 407.04 386.90 401.17 Z" />
<path fill="#8c8862" opacity="1.00" d=" M 217.20 425.89 C 219.19 422.40 221.99 419.45 224.71 416.52 C 228.98 418.48 233.35 420.23 237.63 422.18 C 238.25 425.23 238.92 428.27 239.57 431.31 C 235.88 432.95 232.07 434.62 228.04 435.10 C 224.24 432.29 220.48 429.31 217.20 425.89 Z" />
</g>
</svg>
