<?xml version="1.0" encoding="UTF-8" ?>
<!DOCTYPE svg PUBLIC "-//W3C//DTD SVG 1.1//EN" "http://www.w3.org/Graphics/SVG/1.1/DTD/svg11.dtd">
<svg width="320pt" height="320pt" viewBox="0 0 320 320" version="1.1" xmlns="http://www.w3.org/2000/svg">
<g id="#090405ff">
<path fill="#090405" opacity="1.00" d=" M 266.26 9.12 C 277.03 14.36 284.71 24.37 290.26 34.72 C 299.96 53.52 302.64 75.18 301.86 96.09 C 300.24 122.74 284.95 147.00 264.52 163.50 C 262.31 165.29 259.83 166.77 257.87 168.84 C 256.78 172.71 257.64 176.89 257.14 180.88 C 253.28 182.72 249.08 183.62 245.10 185.15 C 241.24 186.62 238.76 190.11 235.89 192.90 C 213.51 215.85 191.20 238.87 168.69 261.69 C 164.28 266.16 165.34 273.02 163.48 278.59 C 163.10 280.90 160.71 281.82 158.95 282.91 C 154.40 285.24 150.13 288.16 145.32 289.94 C 140.41 291.36 138.29 296.56 134.18 299.19 C 119.68 309.47 101.29 311.57 84.00 312.00 C 65.75 312.38 46.11 308.46 32.42 295.58 C 15.84 280.12 14.68 251.99 28.35 234.32 C 32.92 228.77 30.41 220.99 32.45 214.53 C 37.90 214.09 43.40 213.51 48.86 213.91 C 52.33 216.50 53.32 221.39 56.39 224.51 C 59.75 224.84 63.14 224.91 66.49 224.48 C 68.55 220.72 69.91 216.62 72.18 212.98 C 77.61 212.48 83.12 212.28 88.51 213.17 C 89.54 218.62 89.79 224.40 92.67 229.31 C 94.62 232.69 95.86 236.59 98.55 239.48 C 102.76 241.18 107.28 241.99 111.75 242.70 C 115.42 238.92 117.91 234.21 121.42 230.30 C 127.65 229.86 133.79 231.48 140.01 231.24 C 141.40 231.29 142.38 230.13 143.40 229.36 C 166.85 206.50 190.32 183.65 213.90 160.93 C 214.89 159.77 216.23 158.62 216.33 156.99 C 216.72 151.72 215.74 146.45 216.12 141.17 C 221.58 139.20 227.41 138.66 232.91 136.85 C 235.22 136.24 235.81 133.59 236.86 131.75 C 243.25 117.10 249.46 102.20 252.44 86.42 C 257.85 60.80 262.14 34.97 266.26 9.12 M 269.60 36.77 C 268.37 53.17 266.69 69.56 263.73 85.75 C 261.47 98.41 258.45 111.09 252.55 122.60 C 248.52 131.37 243.37 139.52 238.38 147.74 C 240.21 150.00 242.33 152.02 244.76 153.62 C 247.19 156.14 249.67 158.61 252.31 160.90 C 253.70 160.13 255.09 159.34 256.35 158.36 C 269.17 148.15 279.20 134.52 285.28 119.31 C 291.61 103.08 293.84 85.22 291.66 67.93 C 289.58 53.29 283.30 38.36 271.22 29.25 L 271.15 28.23 C 269.73 30.85 269.90 33.90 269.60 36.77 M 223.21 153.40 C 223.54 156.71 223.66 160.40 225.98 163.03 C 230.62 168.11 235.37 174.26 242.84 174.79 C 243.61 172.42 244.70 169.98 244.41 167.43 C 242.42 164.53 239.61 162.33 237.22 159.78 C 235.04 157.67 233.11 155.20 230.48 153.62 C 228.11 152.99 225.63 153.33 223.21 153.40 M 185.45 205.44 C 171.97 218.77 158.08 231.70 144.75 245.18 C 147.86 250.32 152.42 254.43 156.32 258.97 C 157.80 257.92 159.21 256.79 160.46 255.47 C 184.14 230.83 208.28 206.62 231.92 181.96 C 228.56 178.06 224.65 174.68 220.77 171.32 C 208.83 182.51 197.26 194.11 185.45 205.44 M 73.47 223.43 C 72.30 227.37 71.47 231.40 70.26 235.33 C 63.31 236.32 56.25 236.42 49.25 236.94 C 47.45 233.53 46.21 229.87 44.52 226.41 C 42.47 226.24 40.41 226.22 38.35 226.32 C 37.15 231.15 37.28 236.20 36.01 241.01 C 34.53 244.31 31.34 246.45 29.63 249.63 C 25.64 256.35 26.37 264.53 27.24 271.95 C 28.24 277.25 29.95 283.16 34.74 286.27 C 46.24 297.98 62.81 303.62 78.93 304.61 C 92.66 305.06 107.07 303.14 119.12 296.21 C 125.01 293.91 130.01 289.72 133.96 284.84 C 131.82 281.17 128.87 278.08 126.23 274.78 C 122.92 270.74 119.91 266.41 116.04 262.88 C 114.51 259.89 112.17 257.01 108.77 256.15 C 102.46 253.60 94.72 253.55 90.00 248.07 C 88.50 244.16 85.37 241.18 83.76 237.35 C 82.67 233.40 82.50 229.27 81.68 225.28 C 79.09 224.11 76.30 223.53 73.47 223.43 M 120.19 252.07 C 122.64 255.79 125.84 258.92 128.71 262.31 C 133.89 267.85 138.23 274.22 143.98 279.19 C 147.21 278.15 150.30 276.75 153.11 274.85 C 152.93 271.38 152.59 267.58 150.04 264.95 C 145.09 259.58 139.99 254.35 135.13 248.90 C 133.27 247.05 131.46 244.56 128.62 244.35 C 123.96 243.43 122.31 249.02 120.19 252.07 Z" />
<path fill="#090405" opacity="1.00" d=" M 61.64 29.93 C 64.97 28.76 68.56 29.45 72.00 29.33 C 78.52 29.58 85.06 28.94 91.55 29.52 C 94.53 33.36 95.37 38.57 98.87 42.12 C 100.80 44.26 103.99 46.73 106.95 45.07 C 112.45 41.52 114.18 34.80 117.43 29.48 C 127.52 29.17 137.63 29.34 147.73 29.41 C 145.77 40.26 143.02 51.14 138.07 61.05 C 135.33 66.70 130.66 70.96 126.34 75.37 C 123.40 77.93 124.31 82.14 124.47 85.57 C 134.48 90.88 145.31 95.40 153.23 103.80 C 155.90 106.51 157.45 110.08 158.28 113.76 C 161.29 126.56 161.13 139.85 160.54 152.91 C 159.77 161.85 158.64 170.94 155.36 179.35 C 153.67 183.91 150.24 187.57 146.23 190.22 C 136.87 196.60 126.10 200.86 114.98 202.94 C 97.20 206.13 78.45 200.66 64.25 189.76 C 56.99 184.22 54.27 175.00 52.52 166.44 C 49.62 152.20 49.57 137.54 50.49 123.10 C 51.27 116.06 51.61 108.18 56.67 102.68 C 64.71 93.59 76.42 89.15 87.73 85.70 C 87.91 82.51 89.09 78.18 85.89 76.09 C 80.18 71.57 73.41 67.61 70.37 60.65 C 65.91 50.94 63.49 40.41 61.64 29.93 M 124.43 39.50 C 120.70 44.66 117.80 50.71 112.27 54.27 C 107.92 57.55 101.66 57.95 97.07 54.91 C 91.30 51.60 88.41 45.42 84.79 40.16 C 80.94 39.75 77.05 39.80 73.19 40.12 C 75.11 47.28 77.96 54.45 82.89 60.09 C 86.89 64.71 92.94 66.54 97.65 70.23 C 97.74 73.53 97.87 76.82 98.14 80.10 L 97.28 80.10 C 97.14 83.74 97.14 87.39 97.35 91.03 C 90.86 93.27 84.74 96.49 78.67 99.68 C 74.90 102.00 70.34 104.22 68.92 108.77 C 68.97 112.16 68.90 115.55 68.77 118.93 C 65.94 119.08 63.11 119.23 60.29 119.36 C 60.23 120.96 60.18 122.57 60.17 124.18 C 59.59 135.95 59.40 147.80 60.57 159.55 C 61.19 164.72 61.90 170.02 64.24 174.74 C 66.31 178.86 70.24 181.56 74.05 183.94 C 80.86 188.17 88.47 190.89 96.23 192.77 C 102.16 193.57 108.26 193.89 114.11 192.36 C 122.40 190.53 130.29 187.03 137.47 182.51 C 140.65 180.47 143.92 178.16 145.61 174.66 C 147.90 170.02 148.75 164.83 149.53 159.76 C 151.05 148.67 151.01 137.43 150.81 126.25 C 150.86 123.94 150.84 121.63 150.76 119.32 C 147.55 119.24 144.34 119.15 141.13 119.00 C 140.98 115.60 140.92 112.19 141.02 108.78 C 140.14 105.40 137.19 103.34 134.42 101.56 C 127.55 97.41 120.24 93.91 112.74 91.06 C 113.19 84.07 112.49 77.07 112.72 70.07 C 118.16 67.35 122.92 63.39 126.29 58.31 C 130.50 52.23 134.29 45.85 137.70 39.29 C 133.27 39.25 128.85 39.22 124.43 39.50 Z" />
<path fill="#090405" opacity="1.00" d=" M 83.94 108.81 C 97.95 108.88 111.96 108.88 125.97 108.81 C 125.92 112.32 125.92 115.83 125.95 119.34 L 125.13 119.31 C 111.40 119.08 97.65 119.55 83.92 119.05 C 83.84 115.63 83.94 112.22 83.94 108.81 Z" />
<path fill="#090405" opacity="1.00" d=" M 49.32 262.25 C 55.98 259.28 63.97 265.85 62.31 272.97 C 61.43 279.87 52.37 283.31 47.03 278.95 C 41.07 274.85 42.44 264.57 49.32 262.25 Z" />
<path fill="#090405" opacity="1.00" d=" M 105.36 273.33 C 110.69 271.83 115.99 277.64 113.95 282.82 C 112.54 288.03 105.00 289.58 101.59 285.45 C 97.84 281.63 100.01 274.27 105.36 273.33 Z" />
<path fill="#090405" opacity="1.00" d=" M 76.49 278.63 C 80.75 276.44 86.47 280.05 85.88 284.93 C 85.91 289.78 79.83 292.74 75.90 290.09 C 71.67 287.63 72.08 280.65 76.49 278.63 Z" />
</g>
<g id="#959494ff">
<path fill="#959494" opacity="1.00" d=" M 269.60 36.77 C 269.90 33.90 269.73 30.85 271.15 28.23 L 271.22 29.25 C 271.35 32.11 271.52 34.98 272.15 37.78 C 275.66 52.17 276.09 67.19 274.75 81.89 C 272.37 100.51 266.09 118.58 256.97 134.95 C 253.41 141.50 248.77 147.36 244.76 153.62 C 242.33 152.02 240.21 150.00 238.38 147.74 C 243.37 139.52 248.52 131.37 252.55 122.60 C 258.45 111.09 261.47 98.41 263.73 85.75 C 266.69 69.56 268.37 53.17 269.60 36.77 Z" />
<path fill="#959494" opacity="1.00" d=" M 124.43 39.50 C 128.85 39.22 133.27 39.25 137.70 39.29 C 134.29 45.85 130.50 52.23 126.29 58.31 C 122.92 63.39 118.16 67.35 112.72 70.07 C 112.41 73.33 112.08 76.58 111.76 79.84 C 107.23 80.23 102.68 80.17 98.14 80.10 C 97.87 76.82 97.74 73.53 97.65 70.23 C 92.94 66.54 86.89 64.71 82.89 60.09 C 77.96 54.45 75.11 47.28 73.19 40.12 C 77.05 39.80 80.94 39.75 84.79 40.16 C 88.41 45.42 91.30 51.60 97.07 54.91 C 101.66 57.95 107.92 57.55 112.27 54.27 C 117.80 50.71 120.70 44.66 124.43 39.50 Z" />
<path fill="#959494" opacity="1.00" d=" M 78.67 99.68 C 84.74 96.49 90.86 93.27 97.35 91.03 C 102.46 90.49 107.64 90.50 112.74 91.06 C 120.24 93.91 127.55 97.41 134.42 101.56 C 137.19 103.34 140.14 105.40 141.02 108.78 C 136.00 108.66 130.98 108.64 125.97 108.81 C 111.96 108.88 97.95 108.88 83.94 108.81 C 78.93 108.65 73.92 108.66 68.92 108.77 C 70.34 104.22 74.90 102.00 78.67 99.68 Z" />
<path fill="#959494" opacity="1.00" d=" M 125.13 119.31 L 125.95 119.34 C 130.68 119.54 135.42 119.87 140.16 119.71 C 133.13 130.59 124.96 140.70 116.22 150.25 C 114.03 152.80 111.37 155.43 111.14 158.98 C 110.69 163.64 111.09 168.33 111.07 173.00 C 111.17 179.26 110.61 185.55 111.34 191.79 C 112.03 191.94 113.41 192.22 114.11 192.36 C 108.26 193.89 102.16 193.57 96.23 192.77 C 97.01 191.79 98.31 191.03 98.46 189.69 C 99.11 185.15 98.61 180.56 98.65 176.00 C 98.53 170.36 99.01 164.71 98.61 159.08 C 98.45 154.20 94.33 150.98 91.37 147.60 C 83.13 139.15 76.43 129.40 69.88 119.62 C 74.60 119.66 79.31 119.68 84.02 119.87 C 89.36 128.18 95.67 136.10 104.10 141.45 C 113.13 136.47 120.35 128.39 125.13 119.31 Z" />
<path fill="#959494" opacity="1.00" d=" M 223.21 153.40 C 225.63 153.33 228.11 152.99 230.48 153.62 C 233.11 155.20 235.04 157.67 237.22 159.78 C 239.61 162.33 242.42 164.53 244.41 167.43 C 244.70 169.98 243.61 172.42 242.84 174.79 C 235.37 174.26 230.62 168.11 225.98 163.03 C 223.66 160.40 223.54 156.71 223.21 153.40 Z" />
<path fill="#959494" opacity="1.00" d=" M 120.19 252.07 C 122.31 249.02 123.96 243.43 128.62 244.35 C 131.46 244.56 133.27 247.05 135.13 248.90 C 139.99 254.35 145.09 259.58 150.04 264.95 C 152.59 267.58 152.93 271.38 153.11 274.85 C 150.30 276.75 147.21 278.15 143.98 279.19 C 138.23 274.22 133.89 267.85 128.71 262.31 C 125.84 258.92 122.64 255.79 120.19 252.07 Z" />
</g>
<g id="#ffffffff">
<path fill="#ffffff" opacity="1.00" d=" M 272.15 37.78 C 271.52 34.98 271.35 32.11 271.22 29.25 C 283.30 38.36 289.58 53.29 291.66 67.93 C 293.84 85.22 291.61 103.08 285.28 119.31 C 279.20 134.52 269.17 148.15 256.35 158.36 C 255.09 159.34 253.70 160.13 252.31 160.90 C 249.67 158.61 247.19 156.14 244.76 153.62 C 248.77 147.36 253.41 141.50 256.97 134.95 C 266.09 118.58 272.37 100.51 274.75 81.89 C 276.09 67.19 275.66 52.17 272.15 37.78 Z" />
<path fill="#ffffff" opacity="1.00" d=" M 83.92 119.05 C 97.65 119.55 111.40 119.08 125.13 119.31 C 120.35 128.39 113.13 136.47 104.10 141.45 C 95.67 136.10 89.36 128.18 84.02 119.87 L 83.92 119.05 Z" />
<path fill="#ffffff" opacity="1.00" d=" M 44.26 242.20 C 51.93 238.55 60.72 238.19 69.04 239.00 C 76.80 239.68 83.80 243.60 90.00 248.07 C 94.72 253.55 102.46 253.60 108.77 256.15 C 112.17 257.01 114.51 259.89 116.04 262.88 C 118.69 269.11 122.35 275.18 122.92 282.06 C 123.25 287.06 121.15 291.77 119.12 296.21 C 107.07 303.14 92.66 305.06 78.93 304.61 C 62.81 303.62 46.24 297.98 34.74 286.27 C 31.78 277.25 28.93 267.58 31.02 258.06 C 32.46 250.97 37.85 245.24 44.26 242.20 M 49.32 262.25 C 42.44 264.57 41.07 274.85 47.03 278.95 C 52.37 283.31 61.43 279.87 62.31 272.97 C 63.97 265.85 55.98 259.28 49.32 262.25 M 105.36 273.33 C 100.01 274.27 97.84 281.63 101.59 285.45 C 105.00 289.58 112.54 288.03 113.95 282.82 C 115.99 277.64 110.69 271.83 105.36 273.33 M 76.49 278.63 C 72.08 280.65 71.67 287.63 75.90 290.09 C 79.83 292.74 85.91 289.78 85.88 284.93 C 86.47 280.05 80.75 276.44 76.49 278.63 Z" />
</g>
<g id="#414142ff">
<path fill="#414142" opacity="1.00" d=" M 111.76 79.84 C 112.08 76.58 112.41 73.33 112.72 70.07 C 112.49 77.07 113.19 84.07 112.74 91.06 C 107.64 90.50 102.46 90.49 97.35 91.03 C 97.14 87.39 97.14 83.74 97.28 80.10 L 98.14 80.10 C 102.68 80.17 107.23 80.23 111.76 79.84 Z" />
<path fill="#414142" opacity="1.00" d=" M 68.92 108.77 C 73.92 108.66 78.93 108.65 83.94 108.81 C 83.94 112.22 83.84 115.63 83.92 119.05 L 84.02 119.87 C 79.31 119.68 74.60 119.66 69.88 119.62 C 66.97 119.56 64.05 119.71 61.15 120.00 C 60.80 121.39 60.45 122.78 60.17 124.18 C 60.18 122.57 60.23 120.96 60.29 119.36 C 63.11 119.23 65.94 119.08 68.77 118.93 C 68.90 115.55 68.97 112.16 68.92 108.77 Z" />
<path fill="#414142" opacity="1.00" d=" M 125.97 108.81 C 130.98 108.64 136.00 108.66 141.02 108.78 C 140.92 112.19 140.98 115.60 141.13 119.00 C 144.34 119.15 147.55 119.24 150.76 119.32 C 150.84 121.63 150.86 123.94 150.81 126.25 C 150.63 124.15 150.30 122.07 149.97 119.99 C 146.71 119.61 143.43 119.55 140.16 119.71 C 135.42 119.87 130.68 119.54 125.95 119.34 C 125.92 115.83 125.92 112.32 125.97 108.81 Z" />
</g>
<g id="#c3c2c2ff">
<path fill="#c3c2c2" opacity="1.00" d=" M 61.15 120.00 C 64.05 119.71 66.97 119.56 69.88 119.62 C 76.43 129.40 83.13 139.15 91.37 147.60 C 94.33 150.98 98.45 154.20 98.61 159.08 C 99.01 164.71 98.53 170.36 98.65 176.00 C 98.61 180.56 99.11 185.15 98.46 189.69 C 98.31 191.03 97.01 191.79 96.23 192.77 C 88.47 190.89 80.86 188.17 74.05 183.94 C 70.24 181.56 66.31 178.86 64.24 174.74 C 61.90 170.02 61.19 164.72 60.57 159.55 C 59.40 147.80 59.59 135.95 60.17 124.18 C 60.45 122.78 60.80 121.39 61.15 120.00 Z" />
<path fill="#c3c2c2" opacity="1.00" d=" M 140.16 119.71 C 143.43 119.55 146.71 119.61 149.97 119.99 C 150.30 122.07 150.63 124.15 150.81 126.25 C 151.01 137.43 151.05 148.67 149.53 159.76 C 148.75 164.83 147.90 170.02 145.61 174.66 C 143.92 178.16 140.65 180.47 137.47 182.51 C 130.29 187.03 122.40 190.53 114.11 192.36 C 113.41 192.22 112.03 191.94 111.34 191.79 C 110.61 185.55 111.17 179.26 111.07 173.00 C 111.09 168.33 110.69 163.64 111.14 158.98 C 111.37 155.43 114.03 152.80 116.22 150.25 C 124.96 140.70 133.13 130.59 140.16 119.71 Z" />
<path fill="#c3c2c2" opacity="1.00" d=" M 185.45 205.44 C 197.26 194.11 208.83 182.51 220.77 171.32 C 224.65 174.68 228.56 178.06 231.92 181.96 C 208.28 206.62 184.14 230.83 160.46 255.47 C 159.21 256.79 157.80 257.92 156.32 258.97 C 152.42 254.43 147.86 250.32 144.75 245.18 C 158.08 231.70 171.97 218.77 185.45 205.44 Z" />
<path fill="#c3c2c2" opacity="1.00" d=" M 73.47 223.43 C 76.30 223.53 79.09 224.11 81.68 225.28 C 82.50 229.27 82.67 233.40 83.76 237.35 C 85.37 241.18 88.50 244.16 90.00 248.07 C 83.80 243.60 76.80 239.68 69.04 239.00 C 60.72 238.19 51.93 238.55 44.26 242.20 C 37.85 245.24 32.46 250.97 31.02 258.06 C 28.93 267.58 31.78 277.25 34.74 286.27 C 29.95 283.16 28.24 277.25 27.24 271.95 C 26.37 264.53 25.64 256.35 29.63 249.63 C 31.34 246.45 34.53 244.31 36.01 241.01 C 37.28 236.20 37.15 231.15 38.35 226.32 C 40.41 226.22 42.47 226.24 44.52 226.41 C 46.21 229.87 47.45 233.53 49.25 236.94 C 56.25 236.42 63.31 236.32 70.26 235.33 C 71.47 231.40 72.30 227.37 73.47 223.43 Z" />
<path fill="#c3c2c2" opacity="1.00" d=" M 116.04 262.88 C 119.91 266.41 122.92 270.74 126.23 274.78 C 128.87 278.08 131.82 281.17 133.96 284.84 C 130.01 289.72 125.01 293.91 119.12 296.21 C 121.15 291.77 123.25 287.06 122.92 282.06 C 122.35 275.18 118.69 269.11 116.04 262.88 Z" />
</g>
</svg>
