<?xml version="1.0" encoding="UTF-8" ?>
<!DOCTYPE svg PUBLIC "-//W3C//DTD SVG 1.1//EN" "http://www.w3.org/Graphics/SVG/1.1/DTD/svg11.dtd">
<svg width="320pt" height="320pt" viewBox="0 0 320 320" version="1.1" xmlns="http://www.w3.org/2000/svg">
<g id="#000000ff">
<path fill="#000000" opacity="1.00" d=" M 78.62 17.62 C 92.86 13.17 107.85 10.17 122.82 11.16 C 123.20 19.33 123.98 28.29 119.50 35.57 C 117.31 39.56 112.96 41.69 110.50 45.45 C 109.42 49.87 110.14 54.49 109.99 59.00 C 109.19 94.07 113.71 129.51 125.24 162.72 C 127.46 168.07 128.79 173.98 132.33 178.65 C 140.51 178.83 148.71 177.20 156.88 178.23 C 159.76 178.67 161.97 181.01 164.78 181.51 C 167.27 180.51 169.45 178.75 172.13 178.23 C 180.30 177.20 188.49 178.83 196.67 178.65 C 198.50 176.60 199.41 173.94 200.46 171.44 C 213.47 138.65 218.92 103.17 219.08 68.01 C 218.75 60.74 219.48 53.43 218.73 46.20 C 217.07 42.22 212.58 40.36 210.29 36.76 C 204.97 29.37 205.75 19.76 206.18 11.16 C 218.17 10.27 230.20 12.26 241.82 15.14 C 256.48 18.82 271.08 25.22 281.49 36.49 C 288.80 44.40 293.23 54.74 294.51 65.39 C 295.20 71.23 295.02 77.13 295.02 83.00 C 295.48 119.01 285.79 154.35 272.53 187.56 C 270.94 191.93 268.52 196.02 267.53 200.59 C 271.12 203.64 275.25 206.03 278.61 209.37 C 286.76 217.03 292.38 227.64 292.89 238.93 C 293.19 245.96 293.83 254.07 288.79 259.74 C 283.01 266.58 273.25 267.17 264.96 266.90 C 255.19 266.40 246.71 261.13 238.89 255.75 C 237.19 257.49 235.44 259.50 235.04 261.98 C 235.72 265.73 237.53 269.19 237.99 272.99 C 239.19 281.99 237.96 291.85 232.23 299.18 C 227.40 305.53 219.55 308.79 211.81 309.70 C 203.75 310.60 195.24 309.82 187.97 306.02 C 182.84 303.36 178.72 298.88 176.44 293.58 C 171.59 282.49 172.12 268.97 178.65 258.67 C 182.59 252.78 187.94 247.80 190.85 241.25 C 185.14 239.61 179.16 238.27 174.24 234.74 C 170.11 232.19 167.50 228.02 164.69 224.20 C 161.71 227.08 159.91 231.03 156.48 233.47 C 151.24 237.82 144.55 239.49 138.15 241.25 C 140.96 247.57 146.03 252.45 149.94 258.06 C 156.42 267.76 157.39 280.56 153.43 291.41 C 151.45 297.12 147.56 302.22 142.32 305.30 C 134.81 309.72 125.72 310.65 117.19 309.70 C 109.22 308.77 101.12 305.30 96.34 298.61 C 89.98 289.72 89.16 277.62 92.41 267.40 C 92.91 265.16 94.59 262.80 93.56 260.50 C 92.77 258.69 91.51 257.12 90.11 255.75 C 82.29 261.12 73.81 266.40 64.04 266.90 C 55.75 267.17 45.98 266.58 40.22 259.74 C 35.18 254.07 35.81 245.97 36.11 238.93 C 36.61 227.64 42.24 217.03 50.39 209.37 C 53.74 206.03 57.88 203.64 61.47 200.60 C 61.28 199.53 60.98 198.49 60.59 197.48 C 46.59 164.67 35.76 129.89 34.15 94.04 C 34.12 78.99 32.29 63.04 39.13 49.04 C 46.42 32.98 62.39 22.94 78.62 17.62 M 68.16 41.13 C 58.04 47.93 50.67 59.53 50.98 71.97 C 51.18 82.76 50.35 93.60 51.76 104.34 C 55.30 134.62 65.19 163.81 77.40 191.60 C 81.45 190.98 85.22 189.28 89.10 188.01 C 97.16 185.14 105.55 183.44 113.89 181.59 C 112.48 175.86 109.85 170.51 108.22 164.84 C 96.16 126.53 92.06 86.06 93.08 46.03 C 93.31 42.05 94.45 38.05 96.73 34.76 C 98.82 31.84 101.99 30.04 104.85 27.99 C 91.92 29.77 79.05 33.80 68.16 41.13 M 224.15 27.98 C 227.59 30.41 231.49 32.67 233.39 36.61 C 235.98 41.29 236.12 46.79 236.03 52.00 C 236.55 95.22 231.06 139.02 215.60 179.57 C 215.48 180.07 215.24 181.08 215.12 181.59 C 222.70 183.31 230.35 184.78 237.73 187.29 C 242.37 188.68 246.79 190.83 251.60 191.60 C 260.53 171.49 267.94 150.63 272.96 129.18 C 276.24 114.37 278.66 99.22 278.02 84.01 C 277.72 76.52 278.92 68.79 276.49 61.54 C 273.54 51.99 266.35 44.17 257.82 39.19 C 247.57 33.10 235.91 29.61 224.15 27.98 M 131.43 195.54 C 118.00 197.34 104.85 200.81 91.99 205.04 C 82.03 208.66 72.13 213.11 63.99 220.03 C 57.92 225.27 52.86 232.67 53.04 240.98 C 53.01 244.49 54.48 248.83 58.31 249.70 C 65.59 250.82 73.02 248.23 78.81 243.85 C 90.52 234.98 104.45 229.02 119.01 226.98 C 126.44 225.87 134.37 226.70 141.30 223.31 C 147.29 220.75 150.84 214.39 150.97 208.02 C 151.17 203.66 151.22 197.54 146.43 195.55 C 141.53 194.41 136.39 194.98 131.43 195.54 M 183.31 195.33 C 180.17 195.94 178.54 199.21 178.20 202.12 C 177.28 208.99 178.58 217.09 184.55 221.42 C 190.73 226.07 198.76 225.94 206.09 226.57 C 211.82 226.91 217.33 228.67 223.03 229.21 C 229.09 229.33 233.31 234.26 238.62 236.47 C 246.61 240.17 252.73 247.49 261.61 249.29 C 264.82 249.86 268.25 250.44 271.44 249.47 C 274.78 248.18 275.94 244.26 275.96 240.99 C 276.14 232.68 271.08 225.27 265.01 220.03 C 256.64 212.92 246.43 208.41 236.17 204.76 C 222.77 200.41 209.05 196.85 195.03 195.24 C 191.14 194.92 187.17 194.65 183.31 195.33 M 106.22 246.40 C 106.74 247.55 107.39 248.66 108.24 249.61 C 111.11 249.62 113.96 249.11 116.83 249.06 C 117.32 254.35 116.64 259.68 117.28 264.97 C 114.05 267.08 110.84 269.68 109.33 273.35 C 106.30 279.98 109.34 289.08 116.33 291.75 C 121.04 293.44 126.54 293.38 131.05 291.11 C 137.56 287.50 139.35 278.58 137.06 271.95 C 136.81 266.44 133.81 261.73 130.32 257.69 C 126.36 253.12 123.69 247.60 119.66 243.12 C 115.01 243.21 110.53 244.78 106.22 246.40 M 209.33 243.12 C 206.62 245.92 204.81 249.41 202.54 252.55 C 200.01 256.29 196.86 259.58 194.52 263.46 C 192.04 267.57 191.54 272.46 190.93 277.13 C 190.94 282.47 192.98 288.45 197.96 291.11 C 202.46 293.39 207.97 293.45 212.67 291.75 C 219.36 289.15 222.50 280.60 219.93 274.08 C 218.58 270.05 215.16 267.19 211.63 265.07 C 212.40 259.76 211.67 254.38 212.16 249.05 C 215.03 249.11 217.87 249.63 220.75 249.61 C 221.60 248.65 222.26 247.55 222.80 246.40 C 218.48 244.78 213.99 243.21 209.33 243.12 Z" />
</g>
<g id="#ffffffff">
<path fill="#ffffff" opacity="1.00" d=" M 68.16 41.13 C 79.05 33.80 91.92 29.77 104.85 27.99 C 101.99 30.04 98.82 31.84 96.73 34.76 C 94.45 38.05 93.31 42.05 93.08 46.03 C 92.06 86.06 96.16 126.53 108.22 164.84 C 109.85 170.51 112.48 175.86 113.89 181.59 C 105.55 183.44 97.16 185.14 89.10 188.01 C 85.22 189.28 81.45 190.98 77.40 191.60 C 65.19 163.81 55.30 134.62 51.76 104.34 C 50.35 93.60 51.18 82.76 50.98 71.97 C 50.67 59.53 58.04 47.93 68.16 41.13 Z" />
<path fill="#ffffff" opacity="1.00" d=" M 224.15 27.98 C 235.91 29.61 247.57 33.10 257.82 39.19 C 266.35 44.17 273.54 51.99 276.49 61.54 C 278.92 68.79 277.72 76.52 278.02 84.01 C 278.66 99.22 276.24 114.37 272.96 129.18 C 267.94 150.63 260.53 171.49 251.60 191.60 C 246.79 190.83 242.37 188.68 237.73 187.29 C 230.35 184.78 222.70 183.31 215.12 181.59 C 215.24 181.08 215.48 180.07 215.60 179.57 C 231.06 139.02 236.55 95.22 236.03 52.00 C 236.12 46.79 235.98 41.29 233.39 36.61 C 231.49 32.67 227.59 30.41 224.15 27.98 Z" />
<path fill="#ffffff" opacity="1.00" d=" M 131.43 195.54 C 136.39 194.98 141.53 194.41 146.43 195.55 C 151.22 197.54 151.17 203.66 150.97 208.02 C 150.84 214.39 147.29 220.75 141.30 223.31 C 134.37 226.70 126.44 225.87 119.01 226.98 C 104.45 229.02 90.52 234.98 78.81 243.85 C 73.02 248.23 65.59 250.82 58.31 249.70 C 54.48 248.83 53.01 244.49 53.04 240.98 C 52.86 232.67 57.92 225.27 63.99 220.03 C 72.13 213.11 82.03 208.66 91.99 205.04 C 104.85 200.81 118.00 197.34 131.43 195.54 Z" />
<path fill="#ffffff" opacity="1.00" d=" M 183.31 195.33 C 187.17 194.65 191.14 194.92 195.03 195.24 C 209.05 196.85 222.77 200.41 236.17 204.76 C 246.43 208.41 256.64 212.92 265.01 220.03 C 271.08 225.27 276.14 232.68 275.96 240.99 C 275.94 244.26 274.78 248.18 271.44 249.47 C 268.25 250.44 264.82 249.86 261.61 249.29 C 252.73 247.49 246.61 240.17 238.62 236.47 C 233.31 234.26 229.09 229.33 223.03 229.21 C 217.33 228.67 211.82 226.91 206.09 226.57 C 198.76 225.94 190.73 226.07 184.55 221.42 C 178.58 217.09 177.28 208.99 178.20 202.12 C 178.54 199.21 180.17 195.94 183.31 195.33 Z" />
</g>
<g id="#5d5d5dff">
<path fill="#5d5d5d" opacity="1.00" d=" M 106.22 246.40 C 110.53 244.78 115.01 243.21 119.66 243.12 C 123.69 247.60 126.36 253.12 130.32 257.69 C 133.81 261.73 136.81 266.44 137.06 271.95 C 134.50 269.17 131.77 266.29 128.19 264.87 C 124.68 263.52 120.85 264.28 117.28 264.97 C 116.64 259.68 117.32 254.35 116.83 249.06 C 113.96 249.11 111.11 249.62 108.24 249.61 C 107.39 248.66 106.74 247.55 106.22 246.40 Z" />
<path fill="#5d5d5d" opacity="1.00" d=" M 209.33 243.12 C 213.99 243.21 218.48 244.78 222.80 246.40 C 222.26 247.55 221.60 248.65 220.75 249.61 C 217.87 249.63 215.03 249.11 212.16 249.05 C 211.67 254.38 212.40 259.76 211.63 265.07 C 207.71 264.28 203.41 263.69 199.74 265.71 C 195.07 267.77 192.25 272.37 190.93 277.13 C 191.54 272.46 192.04 267.57 194.52 263.46 C 196.86 259.58 200.01 256.29 202.54 252.55 C 204.81 249.41 206.62 245.92 209.33 243.12 Z" />
</g>
<g id="#949494ff">
<path fill="#949494" opacity="1.00" d=" M 117.28 264.97 C 120.85 264.28 124.68 263.52 128.19 264.87 C 131.77 266.29 134.50 269.17 137.06 271.95 C 139.35 278.58 137.56 287.50 131.05 291.11 C 126.54 293.38 121.04 293.44 116.33 291.75 C 109.34 289.08 106.30 279.98 109.33 273.35 C 110.84 269.68 114.05 267.08 117.28 264.97 Z" />
<path fill="#949494" opacity="1.00" d=" M 199.74 265.71 C 203.41 263.69 207.71 264.28 211.63 265.07 C 215.16 267.19 218.58 270.05 219.93 274.08 C 222.50 280.60 219.36 289.15 212.67 291.75 C 207.97 293.45 202.46 293.39 197.96 291.11 C 192.98 288.45 190.94 282.47 190.93 277.13 C 192.25 272.37 195.07 267.77 199.74 265.71 Z" />
</g>
</svg>
