<?xml version="1.0" encoding="UTF-8" ?>
<!DOCTYPE svg PUBLIC "-//W3C//DTD SVG 1.1//EN" "http://www.w3.org/Graphics/SVG/1.1/DTD/svg11.dtd">
<svg width="320pt" height="320pt" viewBox="0 0 320 320" version="1.1" xmlns="http://www.w3.org/2000/svg">
<g id="#000000ff">
<path fill="#000000" opacity="1.00" d=" M 68.33 31.27 C 77.43 30.79 86.57 30.79 95.67 31.27 C 105.28 79.32 114.02 127.55 123.40 175.65 C 124.48 181.08 129.36 184.32 132.71 188.32 C 145.31 202.38 154.49 220.69 154.00 239.91 C 138.04 240.24 122.06 239.76 106.09 240.09 C 105.75 256.69 106.25 273.31 105.90 289.91 C 89.97 290.07 74.03 290.07 58.09 289.91 C 57.75 273.31 58.25 256.70 57.90 240.10 C 41.94 239.76 25.96 240.24 10.00 239.91 C 9.51 221.66 17.84 204.17 29.43 190.46 C 32.51 186.56 36.55 183.45 39.26 179.26 C 41.51 174.46 41.72 169.02 42.89 163.91 C 51.40 119.70 59.51 75.41 68.33 31.27 M 79.98 58.25 C 72.58 96.52 65.25 134.80 57.82 173.06 C 57.39 175.32 57.12 177.61 56.89 179.90 C 73.63 180.07 90.37 180.07 107.11 179.90 C 106.58 173.77 105.05 167.80 103.98 161.76 C 96.71 124.16 89.50 86.55 82.22 48.96 C 80.67 51.81 80.67 55.15 79.98 58.25 M 47.76 191.79 C 39.22 200.71 32.07 211.19 28.05 222.93 C 64.01 223.05 99.99 223.05 135.95 222.93 C 131.93 211.19 124.78 200.71 116.24 191.79 C 114.80 189.80 112.24 189.99 110.06 189.95 C 91.36 190.03 72.65 190.03 53.94 189.95 C 51.76 189.99 49.20 189.80 47.76 191.79 M 75.05 240.07 C 74.95 251.02 74.95 261.98 75.05 272.93 C 79.68 273.08 84.32 273.08 88.95 272.94 C 89.05 261.98 89.05 251.02 88.95 240.07 C 84.32 239.91 79.68 239.91 75.05 240.07 Z" />
<path fill="#000000" opacity="1.00" d=" M 186.50 57.54 C 196.22 50.17 208.01 45.73 220.08 44.25 C 231.32 43.02 242.72 45.52 252.95 50.16 C 262.29 54.38 269.85 61.73 279.42 65.52 C 289.00 69.82 299.50 71.08 309.84 72.14 C 310.28 86.76 309.79 101.39 310.07 116.02 C 309.89 118.35 310.43 121.05 308.89 123.02 C 304.52 128.55 298.35 132.48 294.38 138.32 C 293.58 142.16 294.04 146.11 293.98 150.00 C 294.04 174.36 293.95 198.72 294.04 223.08 C 294.21 225.53 293.48 227.96 291.58 229.60 C 278.34 242.66 265.24 255.89 252.09 269.04 C 250.05 271.35 246.80 271.01 244.02 271.07 C 232.01 270.96 219.99 270.96 207.98 271.07 C 205.20 271.01 201.95 271.35 199.91 269.04 C 186.76 255.88 173.66 242.66 160.42 229.60 C 158.52 227.96 157.78 225.54 157.96 223.08 C 158.08 196.37 157.90 169.65 158.07 142.94 C 157.92 140.97 158.26 138.68 156.84 137.08 C 152.78 132.21 147.67 128.35 143.52 123.57 C 141.56 121.57 142.07 118.57 141.93 116.02 C 142.20 101.39 141.72 86.76 142.16 72.13 C 148.26 71.32 154.44 70.98 160.43 69.49 C 169.81 67.31 178.76 63.28 186.50 57.54 M 226.06 60.97 C 225.96 125.29 225.97 189.62 226.05 253.95 C 232.61 253.91 239.21 254.38 245.74 253.75 C 248.17 252.25 249.98 249.98 252.01 248.01 C 259.77 240.11 267.70 232.40 275.46 224.51 C 277.10 223.16 277.02 221.00 277.04 219.07 C 276.93 192.02 277.07 164.97 276.96 137.92 C 277.13 136.48 276.73 134.79 277.66 133.57 C 282.26 127.90 288.39 123.60 292.75 117.74 C 293.33 107.25 292.92 96.69 292.92 86.18 C 283.65 84.35 274.60 81.33 266.25 76.86 C 260.84 74.04 256.11 70.10 250.74 67.22 C 243.23 63.06 234.69 60.54 226.06 60.97 M 199.26 68.33 C 198.61 80.54 199.19 92.78 199.00 105.00 C 198.98 151.02 199.05 197.05 198.96 243.08 C 198.49 247.63 202.34 250.86 205.66 253.26 C 208.84 254.74 212.52 253.93 215.91 253.93 C 216.13 215.96 215.93 177.98 216.00 140.00 C 215.89 113.95 216.21 87.89 215.85 61.85 C 209.98 62.98 204.37 65.23 199.26 68.33 M 159.07 86.18 C 159.08 96.69 158.67 107.25 159.25 117.74 C 162.27 121.97 166.47 125.21 170.04 128.96 C 172.14 131.27 175.50 133.33 175.02 136.91 C 174.97 164.30 175.05 191.68 174.96 219.07 C 175.09 220.73 174.73 222.70 176.09 223.97 C 180.15 228.36 184.42 232.56 188.89 236.53 C 189.12 182.76 188.98 128.97 188.96 75.19 C 179.61 80.33 169.58 84.22 159.07 86.18 Z" />
<path fill="#000000" opacity="1.00" d=" M 240.98 90.98 C 243.25 90.99 245.55 90.79 247.80 91.22 C 252.25 94.33 255.22 99.12 259.73 102.18 C 263.72 98.70 266.92 94.34 271.21 91.22 C 273.45 90.79 275.75 90.99 278.02 90.98 C 278.00 93.25 278.20 95.55 277.78 97.79 C 274.68 102.25 269.87 105.21 266.83 109.73 C 270.54 113.80 274.69 117.43 278.46 121.45 C 280.90 123.62 279.80 127.17 280.03 130.03 C 277.75 130.00 275.45 130.21 273.20 129.77 C 268.03 126.06 264.51 120.48 259.27 116.83 C 255.20 120.54 251.57 124.69 247.55 128.46 C 245.38 130.90 241.84 129.80 238.98 130.02 C 239.20 127.16 238.10 123.62 240.54 121.45 C 244.30 117.43 248.46 113.80 252.17 109.73 C 249.12 105.21 244.32 102.25 241.22 97.79 C 240.79 95.55 240.99 93.25 240.98 90.98 Z" />
</g>
<g id="#ffffffff">
<path fill="#ffffff" opacity="1.00" d=" M 79.98 58.25 C 80.67 55.15 80.67 51.81 82.22 48.96 C 89.50 86.55 96.71 124.16 103.98 161.76 C 105.05 167.80 106.58 173.77 107.11 179.90 C 90.37 180.07 73.63 180.07 56.89 179.90 C 57.12 177.61 57.39 175.32 57.82 173.06 C 65.25 134.80 72.58 96.52 79.98 58.25 Z" />
<path fill="#ffffff" opacity="1.00" d=" M 226.06 60.97 C 234.69 60.54 243.23 63.06 250.74 67.22 C 256.11 70.10 260.84 74.04 266.25 76.86 C 274.60 81.33 283.65 84.35 292.92 86.18 C 292.92 96.69 293.33 107.25 292.75 117.74 C 288.39 123.60 282.26 127.90 277.66 133.57 C 276.73 134.79 277.13 136.48 276.96 137.92 C 277.07 164.97 276.93 192.02 277.04 219.07 C 277.02 221.00 277.10 223.16 275.46 224.51 C 267.70 232.40 259.77 240.11 252.01 248.01 C 249.98 249.98 248.17 252.25 245.74 253.75 C 239.21 254.38 232.61 253.91 226.05 253.95 C 225.97 189.62 225.96 125.29 226.06 60.97 M 240.98 90.98 C 240.99 93.25 240.79 95.55 241.22 97.79 C 244.32 102.25 249.12 105.21 252.17 109.73 C 248.46 113.80 244.30 117.43 240.54 121.45 C 238.10 123.62 239.20 127.16 238.98 130.02 C 241.84 129.80 245.38 130.90 247.55 128.46 C 251.57 124.69 255.20 120.54 259.27 116.83 C 264.51 120.48 268.03 126.06 273.20 129.77 C 275.45 130.21 277.75 130.00 280.03 130.03 C 279.80 127.17 280.90 123.62 278.46 121.45 C 274.69 117.43 270.54 113.80 266.83 109.73 C 269.87 105.21 274.68 102.25 277.78 97.79 C 278.20 95.55 278.00 93.25 278.02 90.98 C 275.75 90.99 273.45 90.79 271.21 91.22 C 266.92 94.34 263.72 98.70 259.73 102.18 C 255.22 99.12 252.25 94.33 247.80 91.22 C 245.55 90.79 243.25 90.99 240.98 90.98 Z" />
<path fill="#ffffff" opacity="1.00" d=" M 159.07 86.18 C 169.58 84.22 179.61 80.33 188.96 75.19 C 188.98 128.97 189.12 182.76 188.89 236.53 C 184.42 232.56 180.15 228.36 176.09 223.97 C 174.73 222.70 175.09 220.73 174.96 219.07 C 175.05 191.68 174.97 164.30 175.02 136.91 C 175.50 133.33 172.14 131.27 170.04 128.96 C 166.47 125.21 162.27 121.97 159.25 117.74 C 158.67 107.25 159.08 96.69 159.07 86.18 Z" />
<path fill="#ffffff" opacity="1.00" d=" M 47.76 191.79 C 49.20 189.80 51.76 189.99 53.94 189.95 C 72.65 190.03 91.36 190.03 110.06 189.95 C 112.24 189.99 114.80 189.80 116.24 191.79 C 124.78 200.71 131.93 211.19 135.95 222.93 C 99.99 223.05 64.01 223.05 28.05 222.93 C 32.07 211.19 39.22 200.71 47.76 191.79 Z" />
<path fill="#ffffff" opacity="1.00" d=" M 75.05 240.07 C 79.68 239.91 84.32 239.91 88.95 240.07 C 89.05 251.02 89.05 261.98 88.95 272.94 C 84.32 273.08 79.68 273.08 75.05 272.93 C 74.95 261.98 74.95 251.02 75.05 240.07 Z" />
</g>
<g id="#949494ff">
<path fill="#949494" opacity="1.00" d=" M 199.26 68.33 C 204.37 65.23 209.98 62.98 215.85 61.85 C 216.21 87.89 215.89 113.95 216.00 140.00 C 215.93 177.98 216.13 215.96 215.91 253.93 C 212.52 253.93 208.84 254.74 205.66 253.26 C 202.34 250.86 198.49 247.63 198.96 243.08 C 199.05 197.05 198.98 151.02 199.00 105.00 C 199.19 92.78 198.61 80.54 199.26 68.33 Z" />
</g>
</svg>
