<?xml version="1.0" encoding="UTF-8" ?>
<!DOCTYPE svg PUBLIC "-//W3C//DTD SVG 1.1//EN" "http://www.w3.org/Graphics/SVG/1.1/DTD/svg11.dtd">
<svg width="320pt" height="320pt" viewBox="0 0 320 320" version="1.1" xmlns="http://www.w3.org/2000/svg">
<g id="#000000ff">
<path fill="#000000" opacity="1.00" d=" M 45.75 32.03 C 44.28 17.18 59.14 3.15 73.91 6.05 C 82.92 8.07 88.66 15.96 95.04 21.96 C 99.57 26.06 103.23 31.22 108.37 34.58 C 112.92 34.93 117.45 33.95 122.00 34.01 C 134.04 34.03 146.50 33.09 157.97 37.57 C 157.94 30.74 157.48 23.34 161.29 17.31 C 165.27 10.49 173.34 7.29 180.94 7.04 C 191.82 6.69 203.41 7.24 213.00 12.98 C 221.63 18.05 227.23 27.26 229.03 36.98 C 230.31 43.90 230.21 51.01 229.74 58.01 C 228.92 68.08 224.63 78.20 216.55 84.55 C 208.57 90.95 198.03 92.90 188.04 92.96 C 171.70 93.06 155.36 92.99 139.02 92.97 C 142.17 96.44 144.54 100.51 146.28 104.85 C 152.86 105.07 160.07 104.36 165.84 108.20 C 170.30 110.86 172.51 116.03 172.75 121.06 C 173.32 130.07 172.82 139.10 173.02 148.12 C 176.63 147.97 180.95 148.69 183.51 145.49 C 195.43 133.42 207.51 121.50 219.45 109.44 C 221.96 107.01 224.14 104.08 227.26 102.39 C 231.12 101.59 235.09 102.03 239.00 101.97 C 264.66 102.06 290.31 101.93 315.97 102.03 C 315.93 108.38 316.22 114.74 315.99 121.10 C 316.15 125.35 312.12 127.79 309.57 130.57 C 301.46 138.46 293.61 146.61 285.48 154.47 C 283.89 156.25 281.46 158.14 282.00 160.82 C 282.70 162.94 284.49 164.44 285.97 166.02 C 294.63 174.37 302.93 183.07 311.61 191.40 C 313.36 193.31 315.82 195.12 315.91 197.95 C 316.31 204.61 315.90 211.30 315.97 217.97 C 287.61 218.06 259.26 217.94 230.90 218.04 C 225.95 218.62 223.08 214.03 219.94 211.07 C 207.85 198.82 195.59 186.75 183.51 174.51 C 180.95 171.31 176.63 172.02 173.03 171.88 C 172.83 180.59 173.26 189.32 172.86 198.03 C 172.66 203.09 170.84 208.48 166.44 211.39 C 160.62 215.65 153.08 214.95 146.28 215.15 C 144.54 219.49 142.17 223.56 139.02 227.03 C 155.02 226.99 171.02 226.98 187.02 227.01 C 197.11 227.01 207.78 228.72 215.99 235.01 C 224.41 241.32 228.92 251.70 229.74 262.00 C 230.22 269.53 230.37 277.22 228.68 284.63 C 226.59 293.99 220.83 302.67 212.37 307.39 C 202.88 312.80 191.60 313.29 180.94 312.96 C 173.34 312.71 165.27 309.51 161.29 302.69 C 157.48 296.66 157.94 289.27 157.96 282.44 C 146.50 286.91 134.04 285.97 122.00 285.99 C 117.44 286.05 112.91 285.07 108.37 285.42 C 106.66 286.25 105.33 287.67 103.98 288.97 C 98.39 294.70 92.76 300.40 87.04 306.00 C 82.69 310.24 77.33 314.12 71.02 314.32 C 57.49 314.93 45.06 302.51 45.68 288.97 C 45.89 282.41 50.06 276.94 54.48 272.46 C 61.46 265.44 68.45 258.44 75.53 251.52 C 76.97 249.93 78.88 248.33 78.91 246.00 C 79.36 240.37 78.63 234.70 79.24 229.08 C 79.70 224.29 81.29 219.72 82.95 215.23 C 76.57 215.03 69.34 214.24 64.95 209.03 C 60.25 203.51 61.17 195.75 60.91 189.02 C 51.58 188.89 42.25 189.14 32.93 188.95 C 25.25 188.81 17.12 187.07 11.34 181.69 C 5.00 176.05 2.59 167.21 2.94 158.95 C 2.95 151.13 5.75 142.97 11.88 137.83 C 17.63 132.80 25.48 131.19 32.93 131.05 C 42.25 130.87 51.58 131.10 60.91 130.98 C 61.17 124.25 60.25 116.49 64.95 110.97 C 69.34 105.76 76.57 104.97 82.95 104.77 C 81.06 99.71 79.33 94.50 79.09 89.06 C 78.76 84.04 79.32 79.01 78.90 74.00 C 78.88 71.67 76.97 70.07 75.53 68.48 C 68.94 62.07 62.47 55.53 55.95 49.05 C 51.25 44.36 46.38 38.95 45.75 32.03 M 62.46 30.02 C 61.85 33.72 64.43 36.73 66.96 39.03 C 72.17 44.07 77.17 49.33 82.45 54.31 C 85.19 49.31 88.82 44.87 93.12 41.12 C 87.34 35.50 81.87 29.56 75.95 24.10 C 71.08 19.99 62.94 23.83 62.46 30.02 M 181.33 24.40 C 177.66 24.93 175.41 28.08 174.49 31.43 C 178.30 32.21 182.84 32.19 185.62 35.35 C 189.30 39.53 189.44 45.60 188.72 50.83 C 188.11 55.50 184.74 60.10 179.84 60.73 C 174.32 61.39 168.66 61.01 163.23 59.84 C 157.21 58.54 152.80 53.72 146.92 52.08 C 141.10 50.44 134.97 51.10 129.00 50.98 C 122.02 51.10 114.69 50.24 108.11 53.11 C 101.37 55.89 96.66 62.73 96.17 69.97 C 95.79 75.66 95.86 81.38 96.09 87.08 C 96.32 94.10 100.34 101.04 106.74 104.15 C 110.16 106.02 114.31 107.05 116.72 110.34 C 119.51 114.27 119.81 119.28 119.98 123.93 C 120.10 131.95 119.91 139.98 120.03 148.00 C 123.01 148.00 125.99 148.00 128.97 148.00 C 129.06 138.67 128.95 129.34 129.05 120.00 C 129.01 115.37 129.13 110.42 126.80 106.25 C 124.25 101.57 117.99 99.75 116.73 94.24 C 115.59 89.29 115.84 83.38 119.44 79.44 C 122.34 76.28 126.94 76.05 130.94 75.97 C 150.31 76.01 169.68 75.99 189.06 76.02 C 196.81 76.18 205.17 73.29 209.57 66.58 C 213.88 60.23 213.10 52.19 212.99 44.92 C 212.89 39.00 210.49 32.96 205.76 29.23 C 199.00 23.75 189.61 23.19 181.33 24.40 M 231.27 119.25 C 229.22 120.47 227.66 122.32 225.98 123.97 C 218.17 132.02 210.01 139.72 202.32 147.88 C 207.12 147.94 211.96 148.37 216.73 147.75 C 218.78 146.53 220.33 144.67 222.02 143.03 C 229.83 134.98 237.99 127.28 245.68 119.12 C 240.88 119.06 236.04 118.63 231.27 119.25 M 258.34 119.40 C 255.64 120.89 253.68 123.37 251.50 125.50 C 244.29 133.05 236.54 140.08 229.56 147.84 C 234.24 147.93 239.03 148.56 243.66 147.60 C 246.36 146.10 248.32 143.63 250.50 141.50 C 257.71 133.95 265.46 126.92 272.44 119.15 C 267.75 119.06 262.97 118.44 258.34 119.40 M 285.27 119.25 C 283.22 120.47 281.66 122.32 279.98 123.97 C 272.17 132.02 264.01 139.72 256.32 147.88 C 261.12 147.94 265.96 148.37 270.73 147.75 C 272.78 146.53 274.33 144.67 276.03 143.02 C 283.83 134.98 291.99 127.28 299.68 119.12 C 294.88 119.06 290.04 118.63 285.27 119.25 M 78.17 125.14 C 77.69 132.74 78.15 140.37 78.01 147.99 C 86.33 148.01 94.66 148.01 102.99 147.99 C 103.01 139.33 103.01 130.67 102.99 122.01 C 96.00 122.09 89.00 121.81 82.01 122.07 C 80.18 121.99 78.12 123.07 78.17 125.14 M 146.01 121.92 C 145.99 130.61 145.99 139.31 146.01 148.00 C 149.34 148.00 152.66 148.00 155.99 148.00 C 155.85 140.38 156.31 132.74 155.83 125.13 C 155.16 120.57 149.21 122.38 146.01 121.92 M 23.30 151.31 C 17.19 157.18 19.59 169.73 28.38 171.50 C 35.84 172.66 43.45 171.78 50.97 171.97 C 51.04 163.99 51.04 156.01 50.97 148.03 C 44.62 148.05 38.27 147.80 31.92 148.03 C 28.80 148.14 25.52 148.97 23.30 151.31 M 78.01 172.01 C 78.09 179.34 77.81 186.67 78.07 194.00 C 77.96 195.86 79.08 197.84 81.14 197.83 C 88.41 198.31 95.71 197.85 102.99 197.99 C 103.01 189.33 103.01 180.67 102.99 172.01 C 94.66 171.99 86.33 171.99 78.01 172.01 M 120.03 172.00 C 119.58 182.68 120.90 193.49 119.13 204.07 C 118.35 209.24 114.20 212.91 109.45 214.54 C 102.44 217.09 97.02 223.57 96.27 231.06 C 95.73 237.04 95.88 243.07 96.09 249.07 C 96.30 256.65 101.04 263.99 108.11 266.89 C 114.69 269.76 122.03 268.90 129.00 269.02 C 134.98 268.90 141.10 269.56 146.93 267.92 C 152.80 266.28 157.21 261.46 163.22 260.16 C 168.65 258.99 174.32 258.61 179.84 259.27 C 184.74 259.90 188.11 264.50 188.72 269.17 C 189.44 274.40 189.30 280.47 185.62 284.65 C 182.84 287.81 178.30 287.79 174.49 288.57 C 175.37 290.55 175.95 292.95 177.94 294.16 C 181.82 296.64 186.68 296.09 191.06 296.00 C 198.40 295.71 206.06 292.45 209.96 285.97 C 213.70 280.00 213.09 272.66 213.04 265.93 C 213.01 260.62 211.52 255.13 207.83 251.18 C 203.11 245.99 195.90 243.88 189.05 243.98 C 170.02 244.02 150.99 243.96 131.96 244.04 C 128.06 243.94 123.72 244.03 120.48 241.50 C 115.91 237.78 115.47 231.11 116.73 225.75 C 118.00 220.24 124.25 218.43 126.80 213.75 C 129.12 209.58 129.01 204.63 129.05 200.00 C 128.95 190.67 129.06 181.33 128.97 172.00 C 125.99 172.00 123.01 172.00 120.03 172.00 M 146.01 172.00 C 145.99 180.69 145.99 189.39 146.01 198.08 C 148.99 197.85 152.30 198.57 155.01 197.02 C 156.04 195.59 155.93 193.75 156.03 192.08 C 156.05 185.39 155.97 178.69 155.99 172.00 C 152.66 172.00 149.34 172.00 146.01 172.00 M 202.32 172.12 C 210.01 180.28 218.17 187.98 225.98 196.03 C 227.67 197.67 229.22 199.53 231.27 200.75 C 236.04 201.37 240.88 200.94 245.68 200.88 C 237.99 192.72 229.83 185.02 222.02 176.97 C 220.33 175.33 218.78 173.47 216.73 172.25 C 211.96 171.63 207.12 172.06 202.32 172.12 M 229.56 172.16 C 236.54 179.93 244.29 186.95 251.50 194.50 C 253.68 196.63 255.64 199.10 258.34 200.60 C 262.97 201.56 267.75 200.93 272.44 200.84 C 265.46 193.07 257.71 186.05 250.50 178.50 C 248.32 176.37 246.36 173.89 243.66 172.40 C 239.03 171.44 234.24 172.06 229.56 172.16 M 256.33 172.12 C 264.01 180.28 272.17 187.98 279.97 196.02 C 281.66 197.67 283.22 199.53 285.27 200.75 C 290.04 201.37 294.88 200.94 299.68 200.88 C 291.99 192.72 283.83 185.02 276.02 176.98 C 274.33 175.32 272.78 173.47 270.73 172.25 C 265.96 171.63 261.12 172.06 256.33 172.12 M 65.02 282.96 C 61.59 286.07 61.57 291.94 64.98 295.06 C 68.11 298.45 73.92 298.40 77.02 294.99 C 82.42 289.66 87.73 284.22 93.12 278.88 C 88.82 275.13 85.19 270.69 82.44 265.69 C 76.54 271.35 70.81 277.19 65.02 282.96 Z" />
</g>
<g id="#ffffffff">
<path fill="#ffffff" opacity="1.00" d=" M 62.46 30.02 C 62.94 23.83 71.08 19.99 75.95 24.10 C 81.87 29.56 87.34 35.50 93.12 41.12 C 88.82 44.87 85.19 49.31 82.45 54.31 C 77.17 49.33 72.17 44.07 66.96 39.03 C 64.43 36.73 61.85 33.72 62.46 30.02 Z" />
<path fill="#ffffff" opacity="1.00" d=" M 231.27 119.25 C 236.04 118.63 240.88 119.06 245.68 119.12 C 237.99 127.28 229.83 134.98 222.02 143.03 C 220.33 144.67 218.78 146.53 216.73 147.75 C 211.96 148.37 207.12 147.94 202.32 147.88 C 210.01 139.72 218.17 132.02 225.98 123.97 C 227.66 122.32 229.22 120.47 231.27 119.25 Z" />
<path fill="#ffffff" opacity="1.00" d=" M 285.27 119.25 C 290.04 118.63 294.88 119.06 299.68 119.12 C 291.99 127.28 283.83 134.98 276.03 143.02 C 274.33 144.67 272.78 146.53 270.73 147.75 C 265.96 148.37 261.12 147.94 256.32 147.88 C 264.01 139.72 272.17 132.02 279.98 123.97 C 281.66 122.32 283.22 120.47 285.27 119.25 Z" />
<path fill="#ffffff" opacity="1.00" d=" M 78.17 125.14 C 78.12 123.07 80.18 121.99 82.01 122.07 C 89.00 121.81 96.00 122.09 102.99 122.01 C 103.01 130.67 103.01 139.33 102.99 147.99 C 94.66 148.01 86.33 148.01 78.01 147.99 C 78.15 140.37 77.69 132.74 78.17 125.14 Z" />
<path fill="#ffffff" opacity="1.00" d=" M 146.01 121.92 C 149.21 122.38 155.16 120.57 155.83 125.13 C 156.31 132.74 155.85 140.38 155.99 148.00 C 152.66 148.00 149.34 148.00 146.01 148.00 C 145.99 139.31 145.99 130.61 146.01 121.92 Z" />
<path fill="#ffffff" opacity="1.00" d=" M 78.01 172.01 C 86.33 171.99 94.66 171.99 102.99 172.01 C 103.01 180.67 103.01 189.33 102.99 197.99 C 95.71 197.85 88.41 198.31 81.14 197.83 C 79.08 197.84 77.96 195.86 78.07 194.00 C 77.81 186.67 78.09 179.34 78.01 172.01 Z" />
<path fill="#ffffff" opacity="1.00" d=" M 146.01 172.00 C 149.34 172.00 152.66 172.00 155.99 172.00 C 155.97 178.69 156.05 185.39 156.03 192.08 C 155.93 193.75 156.04 195.59 155.01 197.02 C 152.30 198.57 148.99 197.85 146.01 198.08 C 145.99 189.39 145.99 180.69 146.01 172.00 Z" />
<path fill="#ffffff" opacity="1.00" d=" M 202.32 172.12 C 207.12 172.06 211.96 171.63 216.73 172.25 C 218.78 173.47 220.33 175.33 222.02 176.97 C 229.83 185.02 237.99 192.72 245.68 200.88 C 240.88 200.94 236.04 201.37 231.27 200.75 C 229.22 199.53 227.67 197.67 225.98 196.03 C 218.17 187.98 210.01 180.28 202.32 172.12 Z" />
<path fill="#ffffff" opacity="1.00" d=" M 256.33 172.12 C 261.12 172.06 265.96 171.63 270.73 172.25 C 272.78 173.47 274.33 175.32 276.02 176.98 C 283.83 185.02 291.99 192.72 299.68 200.88 C 294.88 200.94 290.04 201.37 285.27 200.75 C 283.22 199.53 281.66 197.67 279.97 196.02 C 272.17 187.98 264.01 180.28 256.33 172.12 Z" />
<path fill="#ffffff" opacity="1.00" d=" M 65.02 282.96 C 70.81 277.19 76.54 271.35 82.44 265.69 C 85.19 270.69 88.82 275.13 93.12 278.88 C 87.73 284.22 82.42 289.66 77.02 294.99 C 73.92 298.40 68.11 298.45 64.98 295.06 C 61.57 291.94 61.59 286.07 65.02 282.96 Z" />
</g>
<g id="#979797ff">
<path fill="#979797" opacity="1.00" d=" M 181.33 24.40 C 189.61 23.19 199.00 23.75 205.76 29.23 C 210.49 32.96 212.89 39.00 212.99 44.92 C 213.10 52.19 213.88 60.23 209.57 66.58 C 205.17 73.29 196.81 76.18 189.06 76.02 C 169.68 75.99 150.31 76.01 130.94 75.97 C 126.94 76.05 122.34 76.28 119.44 79.44 C 115.84 83.38 115.59 89.29 116.73 94.24 C 117.99 99.75 124.25 101.57 126.80 106.25 C 129.13 110.42 129.01 115.37 129.05 120.00 C 128.95 129.34 129.06 138.67 128.97 148.00 C 125.99 148.00 123.01 148.00 120.03 148.00 C 119.91 139.98 120.10 131.95 119.98 123.93 C 119.81 119.28 119.51 114.27 116.72 110.34 C 114.31 107.05 110.16 106.02 106.74 104.15 C 100.34 101.04 96.32 94.10 96.09 87.08 C 95.86 81.38 95.79 75.66 96.17 69.97 C 96.66 62.73 101.37 55.89 108.11 53.11 C 114.69 50.24 122.02 51.10 129.00 50.98 C 134.97 51.10 141.10 50.44 146.92 52.08 C 152.80 53.72 157.21 58.54 163.23 59.84 C 168.66 61.01 174.32 61.39 179.84 60.73 C 184.74 60.10 188.11 55.50 188.72 50.83 C 189.44 45.60 189.30 39.53 185.62 35.35 C 182.84 32.19 178.30 32.21 174.49 31.43 C 175.41 28.08 177.66 24.93 181.33 24.40 Z" />
<path fill="#979797" opacity="1.00" d=" M 258.34 119.40 C 262.97 118.44 267.75 119.06 272.44 119.15 C 265.46 126.92 257.71 133.95 250.50 141.50 C 248.32 143.63 246.36 146.10 243.66 147.60 C 239.03 148.56 234.24 147.93 229.56 147.84 C 236.54 140.08 244.29 133.05 251.50 125.50 C 253.68 123.37 255.64 120.89 258.34 119.40 Z" />
<path fill="#979797" opacity="1.00" d=" M 23.30 151.31 C 25.52 148.97 28.80 148.14 31.92 148.03 C 38.27 147.80 44.62 148.05 50.97 148.03 C 51.04 156.01 51.04 163.99 50.97 171.97 C 43.45 171.78 35.84 172.66 28.38 171.50 C 19.59 169.73 17.19 157.18 23.30 151.31 Z" />
<path fill="#979797" opacity="1.00" d=" M 120.03 172.00 C 123.01 172.00 125.99 172.00 128.97 172.00 C 129.06 181.33 128.95 190.67 129.05 200.00 C 129.01 204.63 129.12 209.58 126.80 213.75 C 124.25 218.43 118.00 220.24 116.73 225.75 C 115.47 231.11 115.91 237.78 120.48 241.50 C 123.72 244.03 128.06 243.94 131.96 244.04 C 150.99 243.96 170.02 244.02 189.05 243.98 C 195.90 243.88 203.11 245.99 207.83 251.18 C 211.52 255.13 213.01 260.62 213.04 265.93 C 213.09 272.66 213.70 280.00 209.96 285.97 C 206.06 292.45 198.40 295.71 191.06 296.00 C 186.68 296.09 181.82 296.64 177.94 294.16 C 175.95 292.95 175.37 290.55 174.49 288.57 C 178.30 287.79 182.84 287.81 185.62 284.65 C 189.30 280.47 189.44 274.40 188.72 269.17 C 188.11 264.50 184.74 259.90 179.84 259.27 C 174.32 258.61 168.65 258.99 163.22 260.16 C 157.21 261.46 152.80 266.28 146.93 267.92 C 141.10 269.56 134.98 268.90 129.00 269.02 C 122.03 268.90 114.69 269.76 108.11 266.89 C 101.04 263.99 96.30 256.65 96.09 249.07 C 95.88 243.07 95.73 237.04 96.27 231.06 C 97.02 223.57 102.44 217.09 109.45 214.54 C 114.20 212.91 118.35 209.24 119.13 204.07 C 120.90 193.49 119.58 182.68 120.03 172.00 Z" />
<path fill="#979797" opacity="1.00" d=" M 229.56 172.16 C 234.24 172.06 239.03 171.44 243.66 172.40 C 246.36 173.89 248.32 176.37 250.50 178.50 C 257.71 186.05 265.46 193.07 272.44 200.84 C 267.75 200.93 262.97 201.56 258.34 200.60 C 255.64 199.10 253.68 196.63 251.50 194.50 C 244.29 186.95 236.54 179.93 229.56 172.16 Z" />
</g>
</svg>
