<?xml version="1.0" encoding="UTF-8" ?>
<!DOCTYPE svg PUBLIC "-//W3C//DTD SVG 1.1//EN" "http://www.w3.org/Graphics/SVG/1.1/DTD/svg11.dtd">
<svg width="320pt" height="320pt" viewBox="0 0 320 320" version="1.1" xmlns="http://www.w3.org/2000/svg">
<g id="#010101ff">
<path fill="#010101" opacity="1.00" d=" M 226.13 8.88 C 227.74 8.76 229.36 8.64 230.99 8.60 C 254.33 8.64 277.68 8.70 301.03 8.58 C 302.90 8.58 304.76 8.83 306.61 9.12 C 306.66 47.75 306.52 86.38 306.68 125.01 C 306.55 127.96 307.32 131.55 304.75 133.71 C 288.42 150.06 271.99 166.31 255.77 182.76 C 253.89 184.58 251.95 187.01 249.03 186.66 C 241.16 186.62 233.29 186.75 225.42 186.59 C 225.11 173.06 225.82 159.50 225.14 145.99 C 221.07 145.56 216.97 145.56 212.90 145.98 C 212.30 162.64 212.84 179.33 212.65 196.00 C 212.46 201.49 213.17 207.04 212.35 212.49 C 210.45 215.46 207.59 217.65 205.28 220.28 C 203.23 222.31 201.48 224.79 198.85 226.11 C 194.64 226.72 190.36 226.17 186.11 226.36 C 185.21 231.53 185.74 236.79 185.67 242.00 C 185.78 247.54 185.19 253.13 186.11 258.63 C 190.44 258.72 194.78 258.49 199.11 258.86 C 199.68 271.56 199.17 284.29 199.34 297.00 C 199.33 302.04 199.56 307.09 199.11 312.12 C 186.09 312.72 173.03 312.18 160.00 312.36 C 150.96 312.19 141.91 312.72 132.89 312.12 C 132.23 303.11 132.96 294.08 132.63 285.07 C 128.59 284.35 124.47 284.72 120.39 284.62 C 120.08 264.79 120.73 244.93 120.10 225.11 C 115.52 224.87 110.92 225.17 106.35 224.77 C 106.35 211.98 106.27 199.18 106.39 186.38 C 110.89 186.25 115.39 186.56 119.88 186.13 C 120.05 177.55 120.26 168.95 119.75 160.38 C 115.03 160.20 110.31 160.13 105.61 160.62 C 105.36 164.79 105.56 168.96 105.23 173.12 C 96.94 173.78 88.63 173.07 80.33 173.38 C 79.16 182.96 79.40 193.29 83.99 202.02 C 88.43 210.20 96.57 215.36 104.60 219.53 C 105.55 224.63 105.02 229.85 105.22 235.01 C 105.13 240.88 105.87 246.81 104.87 252.63 C 90.90 252.78 76.93 252.48 62.96 252.63 C 60.54 252.61 57.91 252.66 55.88 251.13 C 47.83 245.61 39.95 239.82 32.39 233.65 C 29.05 230.93 25.88 227.79 24.24 223.73 C 20.51 214.96 18.13 205.71 15.46 196.58 C 14.16 192.18 13.09 187.65 13.24 183.02 C 13.40 135.64 12.81 88.25 13.12 40.88 C 14.74 40.76 16.36 40.64 17.99 40.60 C 43.20 40.64 68.41 40.69 93.62 40.60 C 93.81 35.78 93.41 30.94 93.89 26.12 C 130.92 25.80 167.96 26.15 205.00 25.96 C 207.55 25.92 210.10 26.04 212.65 26.24 C 212.91 39.19 212.26 52.16 212.90 65.10 C 217.16 65.58 221.47 65.64 225.73 65.04 C 226.32 46.33 225.63 27.59 226.13 8.88 M 239.35 21.23 C 239.37 73.13 238.78 125.03 239.12 176.92 C 246.57 170.11 253.59 162.85 260.99 155.99 C 262.71 154.41 264.33 152.71 265.83 150.92 C 274.26 142.66 282.78 134.49 291.32 126.34 C 293.94 124.35 293.32 120.88 293.40 118.00 C 293.15 85.70 293.63 53.39 293.16 21.09 C 284.84 20.95 276.49 20.83 268.17 21.15 C 258.57 20.97 248.94 20.75 239.35 21.23 M 106.13 38.89 C 105.75 56.79 105.81 74.70 105.60 92.60 C 96.86 93.09 88.06 91.93 79.37 93.08 C 79.29 102.26 79.26 111.43 79.39 120.61 C 87.96 120.96 96.55 120.19 105.10 120.89 C 105.77 129.49 105.05 138.13 105.35 146.75 C 114.44 147.54 123.58 146.47 132.66 147.25 C 132.79 151.71 132.32 156.20 133.10 160.63 C 155.36 160.66 177.63 160.67 199.89 160.62 C 200.76 155.46 200.26 150.21 200.33 145.00 C 200.36 111.34 200.30 77.67 200.38 44.00 C 200.34 42.30 200.22 40.59 200.10 38.89 C 194.74 38.39 189.36 38.68 184.00 38.64 C 159.66 38.62 135.32 38.68 110.99 38.61 C 109.37 38.65 107.75 38.77 106.13 38.89 M 26.08 53.09 C 25.99 97.39 26.30 141.71 26.38 186.02 C 27.80 200.17 31.36 215.67 42.56 225.42 C 48.53 230.85 54.86 236.18 62.18 239.68 C 72.18 240.41 82.28 239.89 92.32 239.93 C 92.60 236.01 92.41 232.09 91.89 228.20 C 87.18 224.53 81.81 221.71 77.63 217.37 C 72.28 212.45 70.35 205.19 68.36 198.46 C 64.16 186.02 66.78 172.75 65.90 159.92 C 74.57 160.07 83.24 160.11 91.91 159.90 C 92.13 150.98 92.13 142.04 91.91 133.13 C 83.25 132.93 74.56 132.41 65.90 132.99 C 66.07 115.30 66.08 97.60 65.90 79.92 C 74.56 80.07 83.24 80.11 91.91 79.90 C 92.13 70.98 92.13 62.04 91.91 53.12 C 83.24 52.96 74.53 52.33 65.87 53.06 C 52.61 52.97 39.34 52.91 26.08 53.09 M 212.90 93.13 C 212.47 102.03 212.46 110.98 212.90 119.87 C 217.14 120.19 221.40 120.19 225.63 119.73 C 225.67 110.89 225.75 102.05 225.69 93.21 C 221.44 92.82 217.16 92.82 212.90 93.13 M 133.37 173.23 C 132.94 182.02 133.08 190.83 132.58 199.62 C 128.18 199.77 123.74 199.27 119.38 200.05 C 119.22 204.29 119.20 208.53 119.37 212.77 C 126.23 213.30 133.12 212.88 140.00 213.00 C 159.88 212.84 179.78 213.32 199.65 212.77 C 199.68 199.60 199.68 186.42 199.65 173.24 C 195.80 172.83 191.92 172.82 188.07 173.16 C 184.50 172.89 180.92 172.79 177.37 173.27 C 171.78 172.81 166.16 172.78 160.58 173.31 C 156.59 172.73 152.57 172.88 148.58 173.25 C 143.52 172.77 138.42 172.82 133.37 173.23 M 133.11 226.11 C 132.72 231.07 132.94 236.04 132.88 241.00 C 132.92 250.95 132.19 260.93 132.92 270.87 C 137.15 271.26 141.42 271.24 145.65 270.71 C 145.69 255.91 145.67 241.09 145.65 226.29 C 141.49 225.77 137.29 225.73 133.11 226.11 M 159.23 233.01 C 159.43 239.57 158.50 246.19 159.74 252.70 C 159.48 258.80 159.38 264.93 159.93 271.02 L 159.96 272.00 C 155.09 271.91 150.21 271.84 145.34 272.21 C 145.35 281.34 145.25 290.46 145.41 299.58 C 158.80 299.65 172.20 299.65 185.59 299.58 C 185.74 290.46 185.65 281.32 185.65 272.20 C 181.55 271.91 177.44 272.09 173.34 271.80 C 173.20 265.50 173.56 259.21 173.22 252.91 C 174.30 248.74 174.27 244.25 173.22 240.08 C 173.42 235.42 173.56 230.75 173.15 226.10 C 168.67 225.86 164.18 225.99 159.70 225.92 C 158.83 228.19 159.24 230.64 159.23 233.01 Z" />
</g>
<g id="#b5b5b5ff">
<path fill="#b5b5b5" opacity="1.00" d=" M 239.35 21.23 C 248.94 20.75 258.57 20.97 268.17 21.15 C 263.05 26.88 257.05 31.79 252.22 37.78 C 260.97 45.26 270.96 51.17 279.64 58.73 C 275.47 63.52 270.63 67.66 266.23 72.22 C 261.82 76.83 256.70 80.75 252.87 85.88 C 260.87 95.35 271.11 102.66 279.13 112.11 C 271.22 121.87 260.99 129.48 252.90 139.08 C 256.62 143.64 261.50 147.01 265.83 150.92 C 264.33 152.71 262.71 154.41 260.99 155.99 C 253.59 162.85 246.57 170.11 239.12 176.92 C 238.78 125.03 239.37 73.13 239.35 21.23 Z" />
<path fill="#b5b5b5" opacity="1.00" d=" M 65.87 53.06 C 74.53 52.33 83.24 52.96 91.91 53.12 C 92.13 62.04 92.13 70.98 91.91 79.90 C 83.24 80.11 74.56 80.07 65.90 79.92 C 65.47 70.97 65.56 62.01 65.87 53.06 Z" />
<path fill="#b5b5b5" opacity="1.00" d=" M 164.39 65.48 C 169.53 63.28 176.32 67.13 175.96 73.00 C 176.30 78.79 169.68 82.73 164.55 80.44 C 158.09 78.25 158.15 67.93 164.39 65.48 Z" />
<path fill="#b5b5b5" opacity="1.00" d=" M 164.38 121.48 C 169.53 119.27 176.32 123.12 175.95 129.00 C 176.29 134.79 169.68 138.73 164.55 136.44 C 158.09 134.25 158.15 123.94 164.38 121.48 Z" />
<path fill="#b5b5b5" opacity="1.00" d=" M 65.90 132.99 C 74.56 132.41 83.25 132.93 91.91 133.13 C 92.13 142.04 92.13 150.98 91.91 159.90 C 83.24 160.11 74.57 160.07 65.90 159.92 C 65.50 150.95 65.50 141.96 65.90 132.99 Z" />
<path fill="#b5b5b5" opacity="1.00" d=" M 133.37 173.23 C 138.42 172.82 143.52 172.77 148.58 173.25 C 149.37 178.60 150.90 184.19 154.98 188.02 C 161.51 194.50 173.10 195.03 180.24 189.25 C 185.13 185.33 186.65 178.96 188.07 173.16 C 191.92 172.82 195.80 172.83 199.65 173.24 C 199.68 186.42 199.68 199.60 199.65 212.77 C 179.78 213.32 159.88 212.84 140.00 213.00 C 133.12 212.88 126.23 213.30 119.37 212.77 C 119.20 208.53 119.22 204.29 119.38 200.05 C 123.74 199.27 128.18 199.77 132.58 199.62 C 133.08 190.83 132.94 182.02 133.37 173.23 Z" />
<path fill="#b5b5b5" opacity="1.00" d=" M 160.58 173.31 C 166.16 172.78 171.78 172.81 177.37 173.27 C 176.22 175.72 175.29 178.37 173.43 180.39 C 171.00 182.54 166.96 182.45 164.42 180.53 C 162.47 178.55 161.68 175.79 160.58 173.31 Z" />
</g>
<g id="#e7e7e7ff">
<path fill="#e7e7e7" opacity="1.00" d=" M 268.17 21.15 C 276.49 20.83 284.84 20.95 293.16 21.09 C 293.63 53.39 293.15 85.70 293.40 118.00 C 293.32 120.88 293.94 124.35 291.32 126.34 C 282.78 134.49 274.26 142.66 265.83 150.92 C 261.50 147.01 256.62 143.64 252.90 139.08 C 260.99 129.48 271.22 121.87 279.13 112.11 C 271.11 102.66 260.87 95.35 252.87 85.88 C 256.70 80.75 261.82 76.83 266.23 72.22 C 270.63 67.66 275.47 63.52 279.64 58.73 C 270.96 51.17 260.97 45.26 252.22 37.78 C 257.05 31.79 263.05 26.88 268.17 21.15 Z" />
<path fill="#e7e7e7" opacity="1.00" d=" M 26.08 53.09 C 39.34 52.91 52.61 52.97 65.87 53.06 C 65.56 62.01 65.47 70.97 65.90 79.92 C 66.08 97.60 66.07 115.30 65.90 132.99 C 65.50 141.96 65.50 150.95 65.90 159.92 C 66.78 172.75 64.16 186.02 68.36 198.46 C 70.35 205.19 72.28 212.45 77.63 217.37 C 81.81 221.71 87.18 224.53 91.89 228.20 C 92.41 232.09 92.60 236.01 92.32 239.93 C 82.28 239.89 72.18 240.41 62.18 239.68 C 54.86 236.18 48.53 230.85 42.56 225.42 C 31.36 215.67 27.80 200.17 26.38 186.02 C 26.30 141.71 25.99 97.39 26.08 53.09 Z" />
<path fill="#e7e7e7" opacity="1.00" d=" M 159.70 225.92 C 164.18 225.99 168.67 225.86 173.15 226.10 C 173.56 230.75 173.42 235.42 173.22 240.08 C 168.80 240.42 164.35 240.55 159.94 240.08 C 159.37 235.37 159.68 230.64 159.70 225.92 Z" />
<path fill="#e7e7e7" opacity="1.00" d=" M 159.74 252.70 C 164.23 252.64 168.73 252.68 173.22 252.91 C 173.56 259.21 173.20 265.50 173.34 271.80 C 177.44 272.09 181.55 271.91 185.65 272.20 C 185.65 281.32 185.74 290.46 185.59 299.58 C 172.20 299.65 158.80 299.65 145.41 299.58 C 145.25 290.46 145.35 281.34 145.34 272.21 C 150.21 271.84 155.09 271.91 159.96 272.00 C 160.04 275.93 160.10 279.87 160.35 283.80 C 164.23 284.47 168.17 284.55 172.07 284.10 C 172.65 279.79 172.66 275.44 172.04 271.14 C 168.01 270.86 163.97 270.85 159.93 271.02 C 159.38 264.93 159.48 258.80 159.74 252.70 Z" />
</g>
<g id="#898989ff">
<path fill="#898989" opacity="1.00" d=" M 106.13 38.89 C 107.75 38.77 109.37 38.65 110.99 38.61 C 135.32 38.68 159.66 38.62 184.00 38.64 C 189.36 38.68 194.74 38.39 200.10 38.89 C 200.22 40.59 200.34 42.30 200.38 44.00 C 200.30 77.67 200.36 111.34 200.33 145.00 C 200.26 150.21 200.76 155.46 199.89 160.62 C 177.63 160.67 155.36 160.66 133.10 160.63 C 132.32 156.20 132.79 151.71 132.66 147.25 C 123.58 146.47 114.44 147.54 105.35 146.75 C 105.05 138.13 105.77 129.49 105.10 120.89 C 96.55 120.19 87.96 120.96 79.39 120.61 C 79.26 111.43 79.29 102.26 79.37 93.08 C 88.06 91.93 96.86 93.09 105.60 92.60 C 105.81 74.70 105.75 56.79 106.13 38.89 M 165.43 53.42 C 162.48 53.68 159.56 54.53 157.06 56.14 C 147.55 62.12 145.62 76.73 152.71 85.27 C 159.68 94.17 174.76 94.64 182.44 86.45 C 189.56 79.08 189.35 66.09 182.12 58.85 C 177.85 54.44 171.40 52.88 165.43 53.42 M 165.42 109.42 C 162.48 109.68 159.56 110.54 157.06 112.14 C 147.55 118.11 145.62 132.73 152.71 141.27 C 159.68 150.17 174.76 150.64 182.44 142.45 C 189.56 135.08 189.35 122.08 182.12 114.85 C 177.85 110.45 171.39 108.88 165.42 109.42 Z" />
<path fill="#898989" opacity="1.00" d=" M 159.23 233.01 C 159.24 230.64 158.83 228.19 159.70 225.92 C 159.68 230.64 159.37 235.37 159.94 240.08 C 164.35 240.55 168.80 240.42 173.22 240.08 C 174.27 244.25 174.30 248.74 173.22 252.91 C 168.73 252.68 164.23 252.64 159.74 252.70 C 158.50 246.19 159.43 239.57 159.23 233.01 Z" />
<path fill="#898989" opacity="1.00" d=" M 159.93 271.02 C 163.97 270.85 168.01 270.86 172.04 271.14 C 172.66 275.44 172.65 279.79 172.07 284.10 C 168.17 284.55 164.23 284.47 160.35 283.80 C 160.10 279.87 160.04 275.93 159.96 272.00 L 159.93 271.02 Z" />
</g>
<g id="#444444ff">
<path fill="#444444" opacity="1.00" d=" M 165.43 53.42 C 171.40 52.88 177.85 54.44 182.12 58.85 C 189.35 66.09 189.56 79.08 182.44 86.45 C 174.76 94.64 159.68 94.17 152.71 85.27 C 145.62 76.73 147.55 62.12 157.06 56.14 C 159.56 54.53 162.48 53.68 165.43 53.42 M 164.39 65.48 C 158.15 67.93 158.09 78.25 164.55 80.44 C 169.68 82.73 176.30 78.79 175.96 73.00 C 176.32 67.13 169.53 63.28 164.39 65.48 Z" />
<path fill="#444444" opacity="1.00" d=" M 165.42 109.42 C 171.39 108.88 177.85 110.45 182.12 114.85 C 189.35 122.08 189.56 135.08 182.44 142.45 C 174.76 150.64 159.68 150.17 152.71 141.27 C 145.62 132.73 147.55 118.11 157.06 112.14 C 159.56 110.54 162.48 109.68 165.42 109.42 M 164.38 121.48 C 158.15 123.94 158.09 134.25 164.55 136.44 C 169.68 138.73 176.29 134.79 175.95 129.00 C 176.32 123.12 169.53 119.27 164.38 121.48 Z" />
<path fill="#444444" opacity="1.00" d=" M 148.58 173.25 C 152.57 172.88 156.59 172.73 160.58 173.31 C 161.68 175.79 162.47 178.55 164.42 180.53 C 166.96 182.45 171.00 182.54 173.43 180.39 C 175.29 178.37 176.22 175.72 177.37 173.27 C 180.92 172.79 184.50 172.89 188.07 173.16 C 186.65 178.96 185.13 185.33 180.24 189.25 C 173.10 195.03 161.51 194.50 154.98 188.02 C 150.90 184.19 149.37 178.60 148.58 173.25 Z" />
<path fill="#444444" opacity="1.00" d=" M 133.11 226.11 C 137.29 225.73 141.49 225.77 145.65 226.29 C 145.67 241.09 145.69 255.91 145.65 270.71 C 141.42 271.24 137.15 271.26 132.92 270.87 C 132.19 260.93 132.92 250.95 132.88 241.00 C 132.94 236.04 132.72 231.07 133.11 226.11 Z" />
</g>
</svg>
