<?xml version="1.0" encoding="UTF-8" ?>
<!DOCTYPE svg PUBLIC "-//W3C//DTD SVG 1.1//EN" "http://www.w3.org/Graphics/SVG/1.1/DTD/svg11.dtd">
<svg width="320pt" height="320pt" viewBox="0 0 320 320" version="1.1" xmlns="http://www.w3.org/2000/svg">
<g id="#000000ff">
<path fill="#000000" opacity="1.00" d=" M 124.97 51.00 C 136.88 36.74 148.60 22.33 160.59 8.14 C 172.32 22.49 184.21 36.72 196.03 51.00 C 204.29 51.20 212.58 50.53 220.81 51.40 C 228.07 52.14 234.47 57.18 237.12 63.94 C 239.64 69.18 238.48 75.11 239.38 80.65 C 241.08 83.22 243.74 84.94 246.07 86.90 C 258.08 96.64 269.84 106.68 281.86 116.42 C 267.68 128.40 253.26 140.11 239.02 152.03 C 239.15 158.69 239.44 165.86 235.77 171.74 C 232.49 177.82 225.83 181.47 219.03 181.80 C 209.36 182.31 199.67 181.85 190.00 182.00 C 189.99 219.36 190.02 256.72 189.99 294.08 C 190.12 301.20 186.24 309.04 178.95 311.01 C 171.45 312.79 163.64 311.72 156.01 312.03 C 149.55 311.89 142.11 312.74 136.84 308.21 C 132.17 304.26 130.81 297.88 130.95 292.03 C 131.06 255.35 130.97 218.68 131.00 182.00 C 121.64 181.88 112.28 182.23 102.92 181.88 C 96.07 181.71 89.12 178.43 85.61 172.36 C 81.60 166.39 81.82 158.92 81.98 152.03 C 67.74 140.10 53.32 128.41 39.14 116.41 C 53.49 104.68 67.72 92.80 81.98 80.97 C 81.85 74.31 81.56 67.14 85.23 61.26 C 88.36 55.49 94.57 51.81 101.05 51.29 C 109.00 50.62 117.00 51.16 124.97 51.00 M 145.84 50.97 C 155.61 51.02 165.38 51.02 175.15 50.97 C 170.32 45.01 165.35 39.17 160.55 33.18 C 155.63 39.09 150.72 45.01 145.84 50.97 M 104.29 68.39 C 102.20 68.82 99.86 70.03 99.40 72.31 C 98.57 76.82 99.06 81.44 98.99 86.00 C 98.99 109.35 99.05 132.71 98.95 156.07 C 99.13 158.45 98.82 161.43 100.91 163.09 C 103.76 165.28 107.59 164.95 110.98 165.07 C 144.67 164.94 178.37 164.99 212.06 165.04 C 215.00 164.93 218.40 164.87 220.61 162.62 C 222.14 160.83 221.88 158.26 222.05 156.07 C 221.97 129.69 221.97 103.31 222.05 76.94 C 221.88 74.74 222.14 72.17 220.60 70.38 C 218.39 68.13 215.00 68.07 212.06 67.96 C 177.69 68.03 143.31 68.03 108.94 67.96 C 107.38 68.00 105.82 68.07 104.29 68.39 M 64.18 116.55 C 70.17 121.35 76.01 126.32 81.97 131.15 C 82.02 121.38 82.02 111.61 81.97 101.84 C 76.01 106.72 70.09 111.63 64.18 116.55 M 239.03 101.85 C 238.98 111.62 238.98 121.39 239.03 131.16 C 244.98 126.28 250.91 121.37 256.82 116.45 C 250.83 111.65 244.99 106.68 239.03 101.85 M 148.00 192.00 C 148.00 197.66 148.00 203.33 148.00 209.00 C 156.33 209.00 164.67 209.00 173.00 209.00 C 173.00 203.33 172.99 197.67 173.00 192.00 C 164.67 192.00 156.33 192.00 148.00 192.00 M 148.00 219.00 C 148.00 224.67 148.00 230.33 148.00 236.00 C 156.33 236.00 164.67 236.00 173.00 236.00 C 173.00 230.33 173.00 224.67 173.00 219.00 C 164.67 219.00 156.33 219.00 148.00 219.00 M 148.00 246.00 C 148.00 251.67 148.00 257.33 148.00 263.00 C 156.33 263.00 164.66 263.00 173.00 263.00 C 173.00 257.33 173.00 251.67 173.00 246.00 C 164.67 246.00 156.33 246.00 148.00 246.00 M 148.00 273.00 C 148.26 280.16 147.37 287.39 148.51 294.50 C 156.43 295.36 164.57 295.36 172.50 294.49 C 173.63 287.39 172.73 280.16 173.00 273.00 C 164.67 273.00 156.33 273.00 148.00 273.00 Z" />
<path fill="#000000" opacity="1.00" d=" M 135.36 84.48 C 148.19 83.37 161.12 84.33 173.99 83.97 C 181.32 83.95 190.15 83.42 195.34 89.66 C 201.57 96.98 199.79 107.16 199.99 116.00 C 199.66 124.54 201.56 134.00 196.63 141.61 C 193.44 146.94 186.99 148.97 181.08 148.96 C 167.70 149.07 154.32 148.99 140.94 148.99 C 134.97 149.05 128.28 147.49 124.77 142.21 C 119.54 134.87 121.24 125.43 121.00 117.00 C 121.33 108.89 119.61 100.12 123.63 92.64 C 125.87 88.17 130.44 85.14 135.36 84.48 M 136.39 94.56 C 132.76 95.54 130.59 99.24 130.97 102.89 C 131.08 112.59 130.82 122.31 131.09 132.00 C 131.19 136.44 135.86 139.15 139.91 138.99 C 153.63 139.02 167.36 139.02 181.09 138.99 C 185.14 139.15 189.81 136.44 189.91 132.01 C 190.23 123.34 189.83 114.67 190.06 106.00 C 189.93 103.09 190.45 99.80 188.60 97.31 C 186.64 94.69 183.19 93.91 180.08 93.97 C 167.71 93.98 155.35 94.06 142.98 93.94 C 140.78 93.99 138.52 93.88 136.39 94.56 Z" />
<path fill="#000000" opacity="1.00" d=" M 149.00 109.00 C 156.67 109.00 164.33 109.00 172.00 109.00 C 172.00 114.33 172.00 119.67 172.00 125.00 C 164.33 125.00 156.66 125.00 149.00 125.00 C 149.00 119.67 149.00 114.33 149.00 109.00 Z" />
</g>
<g id="#ffffffff">
<path fill="#ffffff" opacity="1.00" d=" M 145.84 50.97 C 150.72 45.01 155.63 39.09 160.55 33.18 C 165.35 39.17 170.32 45.01 175.15 50.97 C 165.38 51.02 155.61 51.02 145.84 50.97 Z" />
<path fill="#ffffff" opacity="1.00" d=" M 136.39 94.56 C 138.52 93.88 140.78 93.99 142.98 93.94 C 155.35 94.06 167.71 93.98 180.08 93.97 C 183.19 93.91 186.64 94.69 188.60 97.31 C 190.45 99.80 189.93 103.09 190.06 106.00 C 189.83 114.67 190.23 123.34 189.91 132.01 C 189.81 136.44 185.14 139.15 181.09 138.99 C 167.36 139.02 153.63 139.02 139.91 138.99 C 135.86 139.15 131.19 136.44 131.09 132.00 C 130.82 122.31 131.08 112.59 130.97 102.89 C 130.59 99.24 132.76 95.54 136.39 94.56 M 149.00 109.00 C 149.00 114.33 149.00 119.67 149.00 125.00 C 156.66 125.00 164.33 125.00 172.00 125.00 C 172.00 119.67 172.00 114.33 172.00 109.00 C 164.33 109.00 156.67 109.00 149.00 109.00 Z" />
<path fill="#ffffff" opacity="1.00" d=" M 64.18 116.55 C 70.09 111.63 76.01 106.72 81.97 101.84 C 82.02 111.61 82.02 121.38 81.97 131.15 C 76.01 126.32 70.17 121.35 64.18 116.55 Z" />
<path fill="#ffffff" opacity="1.00" d=" M 239.03 101.85 C 244.99 106.68 250.83 111.65 256.82 116.45 C 250.91 121.37 244.98 126.28 239.03 131.16 C 238.98 121.39 238.98 111.62 239.03 101.85 Z" />
<path fill="#ffffff" opacity="1.00" d=" M 148.00 192.00 C 156.33 192.00 164.67 192.00 173.00 192.00 C 172.99 197.67 173.00 203.33 173.00 209.00 C 164.67 209.00 156.33 209.00 148.00 209.00 C 148.00 203.33 148.00 197.66 148.00 192.00 Z" />
<path fill="#ffffff" opacity="1.00" d=" M 148.00 273.00 C 156.33 273.00 164.67 273.00 173.00 273.00 C 172.73 280.16 173.63 287.39 172.50 294.49 C 164.57 295.36 156.43 295.36 148.51 294.50 C 147.37 287.39 148.26 280.16 148.00 273.00 Z" />
</g>
<g id="#afafafff">
<path fill="#afafaf" opacity="1.00" d=" M 104.29 68.39 C 105.82 68.07 107.38 68.00 108.94 67.96 C 143.31 68.03 177.69 68.03 212.06 67.96 C 215.00 68.07 218.39 68.13 220.60 70.38 C 222.14 72.17 221.88 74.74 222.05 76.94 C 221.97 103.31 221.97 129.69 222.05 156.07 C 221.88 158.26 222.14 160.83 220.61 162.62 C 218.40 164.87 215.00 164.93 212.06 165.04 C 178.37 164.99 144.67 164.94 110.98 165.07 C 107.59 164.95 103.76 165.28 100.91 163.09 C 98.82 161.43 99.13 158.45 98.95 156.07 C 99.05 132.71 98.99 109.35 98.99 86.00 C 99.06 81.44 98.57 76.82 99.40 72.31 C 99.86 70.03 102.20 68.82 104.29 68.39 M 135.36 84.48 C 130.44 85.14 125.87 88.17 123.63 92.64 C 119.61 100.12 121.33 108.89 121.00 117.00 C 121.24 125.43 119.54 134.87 124.77 142.21 C 128.28 147.49 134.97 149.05 140.94 148.99 C 154.32 148.99 167.70 149.07 181.08 148.96 C 186.99 148.97 193.44 146.94 196.63 141.61 C 201.56 134.00 199.66 124.54 199.99 116.00 C 199.79 107.16 201.57 96.98 195.34 89.66 C 190.15 83.42 181.32 83.95 173.99 83.97 C 161.12 84.33 148.19 83.37 135.36 84.48 Z" />
<path fill="#afafaf" opacity="1.00" d=" M 148.00 219.00 C 156.33 219.00 164.67 219.00 173.00 219.00 C 173.00 224.67 173.00 230.33 173.00 236.00 C 164.67 236.00 156.33 236.00 148.00 236.00 C 148.00 230.33 148.00 224.67 148.00 219.00 Z" />
<path fill="#afafaf" opacity="1.00" d=" M 148.00 246.00 C 156.33 246.00 164.67 246.00 173.00 246.00 C 173.00 251.67 173.00 257.33 173.00 263.00 C 164.66 263.00 156.33 263.00 148.00 263.00 C 148.00 257.33 148.00 251.67 148.00 246.00 Z" />
</g>
</svg>
