<?xml version="1.0" encoding="UTF-8" ?>
<!DOCTYPE svg PUBLIC "-//W3C//DTD SVG 1.1//EN" "http://www.w3.org/Graphics/SVG/1.1/DTD/svg11.dtd">
<svg width="320pt" height="320pt" viewBox="0 0 320 320" version="1.1" xmlns="http://www.w3.org/2000/svg">
<g id="#090405ff">
<path fill="#090405" opacity="1.00" d=" M 16.04 9.09 C 54.04 8.85 92.05 9.12 130.05 8.96 C 131.70 9.08 133.67 8.79 134.92 10.16 C 143.92 18.47 152.35 27.38 161.25 35.80 C 168.51 28.20 176.01 20.85 183.13 13.12 C 184.44 11.83 185.65 10.28 187.37 9.52 C 190.56 9.03 193.79 9.32 197.00 9.29 C 232.98 9.36 268.95 9.23 304.93 9.35 C 302.23 20.28 298.94 31.06 296.03 41.93 C 294.89 46.86 295.53 51.96 295.28 56.97 C 294.42 74.28 294.32 91.62 293.42 108.93 C 293.52 122.30 292.23 135.63 292.35 149.00 C 292.30 151.26 292.30 153.85 290.37 155.41 C 275.88 169.90 261.41 184.43 246.91 198.92 C 244.52 201.22 242.41 203.88 239.69 205.82 C 237.57 206.65 235.22 206.31 233.00 206.40 C 221.92 206.19 210.84 206.57 199.77 206.20 C 199.54 190.37 200.55 174.52 199.85 158.68 C 195.11 161.90 190.83 165.72 186.43 169.36 C 186.35 177.08 186.31 184.81 186.46 192.54 C 190.72 192.58 194.97 192.61 199.23 192.78 C 199.52 215.16 199.60 237.56 199.28 259.95 C 195.09 260.00 190.91 260.01 186.72 260.01 C 186.60 264.00 186.58 268.00 186.69 271.99 C 182.25 272.50 177.77 272.40 173.32 272.27 C 173.31 276.74 173.31 281.21 173.34 285.68 C 177.63 285.55 181.93 285.55 186.22 285.75 C 186.50 294.14 186.50 302.55 186.23 310.94 C 169.09 311.05 151.95 311.03 134.81 310.95 C 134.55 302.24 134.53 293.51 134.82 284.81 C 138.50 284.65 142.18 284.62 145.86 284.70 C 146.28 280.57 146.28 276.41 145.86 272.29 C 137.51 272.28 129.16 272.55 120.82 272.18 C 120.47 250.42 120.68 228.65 120.73 206.89 C 108.18 206.20 95.59 206.99 83.03 206.65 C 80.97 206.73 79.75 204.84 78.38 203.63 C 63.48 188.19 48.26 173.08 33.13 157.88 C 31.06 155.64 27.94 153.51 28.37 150.05 C 28.40 141.33 28.07 132.62 27.51 123.92 C 27.26 109.90 26.73 95.89 26.34 81.88 C 25.35 69.28 25.57 56.62 24.80 44.01 C 22.44 32.25 18.74 20.78 16.04 9.09 M 32.27 21.34 C 34.62 31.15 38.34 40.81 38.17 51.03 C 39.41 83.05 40.84 115.06 42.05 147.08 C 42.10 148.93 42.29 150.93 43.88 152.14 C 56.60 164.74 69.49 177.18 82.13 189.87 C 83.56 191.11 84.87 193.03 87.00 192.83 C 94.04 192.96 101.08 192.82 108.12 192.85 C 108.37 188.33 108.42 183.80 108.05 179.28 C 108.52 166.48 108.42 153.65 108.13 140.85 C 103.78 140.63 99.42 140.62 95.07 140.72 C 94.41 132.83 94.90 124.91 94.76 117.00 C 94.88 94.26 94.52 71.52 94.94 48.79 C 103.51 48.40 112.10 48.69 120.68 48.69 C 120.67 39.85 120.62 31.01 120.72 22.17 C 101.49 21.45 82.24 21.80 63.00 21.60 C 60.56 21.59 58.14 21.80 55.73 22.10 L 55.61 21.32 C 47.83 21.56 40.05 21.36 32.27 21.34 M 200.28 22.18 C 200.50 30.95 200.11 39.74 200.51 48.51 C 209.06 48.91 217.63 48.32 226.18 48.80 C 226.57 57.19 226.26 65.60 226.35 74.00 C 226.23 96.08 226.59 118.17 226.18 140.25 C 221.86 140.45 217.53 140.44 213.22 140.29 C 212.81 153.63 212.94 166.99 213.15 180.34 C 212.91 184.51 212.94 188.69 213.07 192.87 C 220.70 192.78 228.34 193.01 235.97 192.80 C 237.58 192.95 238.63 191.67 239.68 190.67 C 252.19 177.86 264.73 165.08 277.30 152.33 C 279.23 150.80 279.08 148.23 279.18 146.01 C 279.78 113.33 280.58 80.66 281.22 47.98 C 280.83 38.95 285.71 30.92 287.86 22.37 C 281.89 22.42 275.91 22.42 269.94 22.27 C 246.72 22.64 223.49 21.56 200.28 22.18 M 108.27 61.87 C 108.44 83.77 108.18 105.68 108.40 127.58 C 126.01 140.27 143.34 153.36 160.99 166.01 C 178.41 153.09 195.53 139.78 212.91 126.81 C 213.22 105.14 212.75 83.47 212.80 61.80 C 210.87 61.69 208.94 61.60 207.01 61.58 C 175.66 61.62 144.32 61.59 112.97 61.59 C 111.40 61.63 109.83 61.74 108.27 61.87 M 121.28 159.03 C 121.30 174.74 121.36 190.44 121.25 206.14 C 125.72 206.52 130.24 206.60 134.71 206.02 C 134.63 195.33 134.63 184.64 134.71 173.95 C 134.55 172.18 134.97 169.92 133.30 168.74 C 129.44 165.33 125.41 162.12 121.28 159.03 M 147.06 180.14 C 146.92 188.66 146.84 197.19 147.12 205.72 C 151.12 205.83 155.12 205.94 159.13 205.96 C 159.26 201.67 159.25 197.37 159.19 193.08 C 163.69 192.91 168.19 193.07 172.70 192.90 C 172.40 197.34 172.43 201.79 172.63 206.23 C 176.99 206.40 181.36 206.45 185.72 206.07 C 185.70 201.82 185.70 197.56 185.70 193.31 C 181.70 192.97 177.68 192.65 173.67 192.87 C 173.37 188.64 173.35 184.39 173.17 180.15 C 164.47 180.12 155.77 180.15 147.06 180.14 M 160.20 206.27 C 160.05 219.49 160.19 232.71 160.12 245.94 C 164.22 246.03 168.31 246.03 172.40 246.01 C 172.58 241.72 172.58 237.44 172.40 233.15 C 176.83 232.79 181.27 232.83 185.72 232.80 C 185.69 228.28 185.70 223.76 185.71 219.23 C 181.27 219.24 176.82 219.32 172.40 218.87 C 172.59 214.66 172.60 210.43 172.34 206.22 C 168.29 206.25 164.24 206.26 160.20 206.27 M 133.19 219.38 C 132.90 223.57 132.87 227.78 133.02 231.98 C 137.38 232.09 141.75 232.09 146.11 231.97 C 146.31 227.63 146.31 223.29 146.12 218.95 C 141.81 219.07 137.50 219.29 133.19 219.38 M 134.07 245.15 C 133.60 249.79 133.66 254.46 133.91 259.11 C 137.97 259.31 142.04 259.31 146.10 259.11 C 146.35 254.90 146.36 250.67 145.87 246.49 C 141.93 246.13 138.00 245.63 134.07 245.15 M 172.63 245.97 C 172.42 250.64 172.42 255.31 172.66 259.97 C 177.02 260.05 181.38 260.06 185.73 259.87 C 185.69 255.29 185.69 250.71 185.73 246.13 C 181.37 245.91 177.00 245.91 172.63 245.97 M 159.28 260.15 C 159.29 264.12 159.29 268.09 159.29 272.06 C 163.59 272.53 167.93 272.46 172.25 272.19 C 172.50 268.13 172.50 264.07 172.26 260.02 C 167.93 259.88 163.60 259.90 159.28 260.15 M 146.34 292.21 C 146.41 296.02 146.42 299.84 146.37 303.66 C 155.13 303.66 163.89 303.64 172.64 303.67 C 172.61 299.85 172.61 296.02 172.68 292.20 C 163.90 291.91 155.11 291.91 146.34 292.21 Z" />
</g>
<g id="#ffffffff">
<path fill="#ffffff" opacity="1.00" d=" M 32.27 21.34 C 40.05 21.36 47.83 21.56 55.61 21.32 L 55.73 22.10 C 56.39 27.28 57.59 32.78 61.44 36.59 C 66.27 41.68 73.58 42.86 79.11 46.89 C 83.29 49.80 82.66 56.85 78.32 59.29 C 72.63 62.63 65.32 62.69 60.32 67.31 C 55.61 71.74 55.06 78.90 55.99 84.93 C 56.83 90.42 60.97 94.78 65.79 97.18 C 69.88 99.44 74.58 100.69 78.17 103.78 C 81.17 106.26 80.91 111.50 77.68 113.68 C 72.23 117.57 64.95 118.27 60.07 123.07 C 55.16 127.86 54.48 135.78 57.19 141.87 C 60.12 148.44 65.39 153.59 70.72 158.28 C 81.77 167.38 94.36 174.92 108.05 179.28 C 108.42 183.80 108.37 188.33 108.12 192.85 C 101.08 192.82 94.04 192.96 87.00 192.83 C 84.87 193.03 83.56 191.11 82.13 189.87 C 69.49 177.18 56.60 164.74 43.88 152.14 C 42.29 150.93 42.10 148.93 42.05 147.08 C 40.84 115.06 39.41 83.05 38.17 51.03 C 38.34 40.81 34.62 31.15 32.27 21.34 Z" />
<path fill="#ffffff" opacity="1.00" d=" M 269.94 22.27 C 275.91 22.42 281.89 22.42 287.86 22.37 C 285.71 30.92 280.83 38.95 281.22 47.98 C 280.58 80.66 279.78 113.33 279.18 146.01 C 279.08 148.23 279.23 150.80 277.30 152.33 C 264.73 165.08 252.19 177.86 239.68 190.67 C 238.63 191.67 237.58 192.95 235.97 192.80 C 228.34 193.01 220.70 192.78 213.07 192.87 C 212.94 188.69 212.91 184.51 213.15 180.34 C 225.48 177.54 236.64 171.07 247.01 164.03 C 255.27 158.13 263.50 151.32 268.00 142.00 C 271.02 135.87 270.09 127.77 265.06 122.97 C 260.11 118.28 252.86 117.54 247.45 113.57 C 244.16 111.25 244.23 105.80 247.45 103.45 C 252.35 99.67 258.78 98.52 263.55 94.53 C 271.09 88.49 271.63 76.38 266.29 68.76 C 261.53 62.66 252.96 62.99 246.75 59.24 C 242.46 56.79 242.09 49.96 246.00 47.00 C 251.48 42.86 258.89 41.82 263.67 36.65 C 267.57 32.85 268.68 27.34 269.94 22.27 Z" />
<path fill="#ffffff" opacity="1.00" d=" M 108.27 61.87 C 109.83 61.74 111.40 61.63 112.97 61.59 C 144.32 61.59 175.66 61.62 207.01 61.58 C 208.94 61.60 210.87 61.69 212.80 61.80 C 212.75 83.47 213.22 105.14 212.91 126.81 C 195.53 139.78 178.41 153.09 160.99 166.01 C 143.34 153.36 126.01 140.27 108.40 127.58 C 108.18 105.68 108.44 83.77 108.27 61.87 M 121.11 75.19 C 120.82 86.12 121.14 97.06 120.94 107.99 C 121.01 110.16 120.79 112.43 121.51 114.52 C 124.83 117.28 128.69 119.29 132.20 121.80 C 141.59 127.95 150.80 134.41 160.27 140.41 C 163.11 139.53 165.32 137.37 167.81 135.82 C 178.43 128.76 188.94 121.54 199.59 114.52 C 199.81 101.44 199.58 88.35 199.71 75.27 C 173.51 75.16 147.31 75.30 121.11 75.19 Z" />
<path fill="#ffffff" opacity="1.00" d=" M 172.70 192.90 L 173.67 192.87 C 177.68 192.65 181.70 192.97 185.70 193.31 C 185.70 197.56 185.70 201.82 185.72 206.07 C 181.36 206.45 176.99 206.40 172.63 206.23 C 172.43 201.79 172.40 197.34 172.70 192.90 Z" />
<path fill="#ffffff" opacity="1.00" d=" M 160.20 206.27 C 164.24 206.26 168.29 206.25 172.34 206.22 C 172.60 210.43 172.59 214.66 172.40 218.87 C 176.82 219.32 181.27 219.24 185.71 219.23 C 185.70 223.76 185.69 228.28 185.72 232.80 C 181.27 232.83 176.83 232.79 172.40 233.15 C 172.58 237.44 172.58 241.72 172.40 246.01 C 168.31 246.03 164.22 246.03 160.12 245.94 C 160.19 232.71 160.05 219.49 160.20 206.27 Z" />
<path fill="#ffffff" opacity="1.00" d=" M 172.63 245.97 C 177.00 245.91 181.37 245.91 185.73 246.13 C 185.69 250.71 185.69 255.29 185.73 259.87 C 181.38 260.06 177.02 260.05 172.66 259.97 C 172.42 255.31 172.42 250.64 172.63 245.97 Z" />
</g>
<g id="#757575ff">
<path fill="#757575" opacity="1.00" d=" M 55.73 22.10 C 58.14 21.80 60.56 21.59 63.00 21.60 C 82.24 21.80 101.49 21.45 120.72 22.17 C 120.62 31.01 120.67 39.85 120.68 48.69 C 112.10 48.69 103.51 48.40 94.94 48.79 C 94.52 71.52 94.88 94.26 94.76 117.00 C 94.90 124.91 94.41 132.83 95.07 140.72 C 99.42 140.62 103.78 140.63 108.13 140.85 C 108.42 153.65 108.52 166.48 108.05 179.28 C 94.36 174.92 81.77 167.38 70.72 158.28 C 65.39 153.59 60.12 148.44 57.19 141.87 C 54.48 135.78 55.16 127.86 60.07 123.07 C 64.95 118.27 72.23 117.57 77.68 113.68 C 80.91 111.50 81.17 106.26 78.17 103.78 C 74.58 100.69 69.88 99.44 65.79 97.18 C 60.97 94.78 56.83 90.42 55.99 84.93 C 55.06 78.90 55.61 71.74 60.32 67.31 C 65.32 62.69 72.63 62.63 78.32 59.29 C 82.66 56.85 83.29 49.80 79.11 46.89 C 73.58 42.86 66.27 41.68 61.44 36.59 C 57.59 32.78 56.39 27.28 55.73 22.10 Z" />
<path fill="#757575" opacity="1.00" d=" M 200.28 22.18 C 223.49 21.56 246.72 22.64 269.94 22.27 C 268.68 27.34 267.57 32.85 263.67 36.65 C 258.89 41.82 251.48 42.86 246.00 47.00 C 242.09 49.96 242.46 56.79 246.75 59.24 C 252.96 62.99 261.53 62.66 266.29 68.76 C 271.63 76.38 271.09 88.49 263.55 94.53 C 258.78 98.52 252.35 99.67 247.45 103.45 C 244.23 105.80 244.16 111.25 247.45 113.57 C 252.86 117.54 260.11 118.28 265.06 122.97 C 270.09 127.77 271.02 135.87 268.00 142.00 C 263.50 151.32 255.27 158.13 247.01 164.03 C 236.64 171.07 225.48 177.54 213.15 180.34 C 212.94 166.99 212.81 153.63 213.22 140.29 C 217.53 140.44 221.86 140.45 226.18 140.25 C 226.59 118.17 226.23 96.08 226.35 74.00 C 226.26 65.60 226.57 57.19 226.18 48.80 C 217.63 48.32 209.06 48.91 200.51 48.51 C 200.11 39.74 200.50 30.95 200.28 22.18 Z" />
<path fill="#757575" opacity="1.00" d=" M 121.11 75.19 C 147.31 75.30 173.51 75.16 199.71 75.27 C 199.58 88.35 199.81 101.44 199.59 114.52 C 188.94 121.54 178.43 128.76 167.81 135.82 C 165.32 137.37 163.11 139.53 160.27 140.41 C 150.80 134.41 141.59 127.95 132.20 121.80 C 128.69 119.29 124.83 117.28 121.51 114.52 C 120.79 112.43 121.01 110.16 120.94 107.99 C 121.14 97.06 120.82 86.12 121.11 75.19 M 134.14 84.88 C 134.07 93.55 134.05 102.23 134.14 110.90 C 140.84 115.25 147.90 119.03 154.67 123.28 C 156.65 124.41 158.54 125.87 160.79 126.37 C 164.29 124.87 167.36 122.54 170.67 120.67 C 176.00 117.35 181.59 114.45 186.74 110.83 C 186.67 102.20 186.68 93.58 186.73 84.96 C 179.83 84.34 172.91 84.79 166.00 84.67 C 155.38 84.81 144.75 84.38 134.14 84.88 Z" />
</g>
<g id="#c3c2c2ff">
<path fill="#c3c2c2" opacity="1.00" d=" M 134.14 84.88 C 144.75 84.38 155.38 84.81 166.00 84.67 C 172.91 84.79 179.83 84.34 186.73 84.96 C 186.68 93.58 186.67 102.20 186.74 110.83 C 181.59 114.45 176.00 117.35 170.67 120.67 C 167.36 122.54 164.29 124.87 160.79 126.37 C 158.54 125.87 156.65 124.41 154.67 123.28 C 147.90 119.03 140.84 115.25 134.14 110.90 C 134.05 102.23 134.07 93.55 134.14 84.88 Z" />
<path fill="#c3c2c2" opacity="1.00" d=" M 147.06 180.14 C 155.77 180.15 164.47 180.12 173.17 180.15 C 173.35 184.39 173.37 188.64 173.67 192.87 L 172.70 192.90 C 168.19 193.07 163.69 192.91 159.19 193.08 C 159.25 197.37 159.26 201.67 159.13 205.96 C 155.12 205.94 151.12 205.83 147.12 205.72 C 146.84 197.19 146.92 188.66 147.06 180.14 Z" />
<path fill="#c3c2c2" opacity="1.00" d=" M 133.19 219.38 C 137.50 219.29 141.81 219.07 146.12 218.95 C 146.31 223.29 146.31 227.63 146.11 231.97 C 141.75 232.09 137.38 232.09 133.02 231.98 C 132.87 227.78 132.90 223.57 133.19 219.38 Z" />
<path fill="#c3c2c2" opacity="1.00" d=" M 134.07 245.15 C 138.00 245.63 141.93 246.13 145.87 246.49 C 146.36 250.67 146.35 254.90 146.10 259.11 C 142.04 259.31 137.97 259.31 133.91 259.11 C 133.66 254.46 133.60 249.79 134.07 245.15 Z" />
<path fill="#c3c2c2" opacity="1.00" d=" M 159.28 260.15 C 163.60 259.90 167.93 259.88 172.26 260.02 C 172.50 264.07 172.50 268.13 172.25 272.19 C 167.93 272.46 163.59 272.53 159.29 272.06 C 159.29 268.09 159.29 264.12 159.28 260.15 Z" />
<path fill="#c3c2c2" opacity="1.00" d=" M 146.34 292.21 C 155.11 291.91 163.90 291.91 172.68 292.20 C 172.61 296.02 172.61 299.85 172.64 303.67 C 163.89 303.64 155.13 303.66 146.37 303.66 C 146.42 299.84 146.41 296.02 146.34 292.21 Z" />
</g>
</svg>
