<?xml version="1.0" encoding="UTF-8" ?>
<!DOCTYPE svg PUBLIC "-//W3C//DTD SVG 1.1//EN" "http://www.w3.org/Graphics/SVG/1.1/DTD/svg11.dtd">
<svg width="320pt" height="320pt" viewBox="0 0 320 320" version="1.1" xmlns="http://www.w3.org/2000/svg">
<g id="#000000ff">
<path fill="#000000" opacity="1.00" d=" M 201.02 10.02 C 231.34 9.98 261.66 9.99 291.98 10.02 C 292.06 19.35 291.92 28.67 292.06 38.00 C 292.03 40.19 292.18 42.43 291.63 44.58 C 287.84 49.43 282.75 53.10 278.80 57.81 C 277.82 58.93 278.12 60.58 277.96 61.95 C 278.07 93.96 277.95 125.97 278.02 157.98 C 287.33 158.06 296.65 157.94 305.96 158.02 C 306.69 170.41 305.21 183.24 299.39 194.37 C 296.44 200.70 291.29 205.59 286.14 210.13 C 281.80 213.92 276.12 215.43 271.23 218.25 C 269.54 220.55 269.10 223.50 268.07 226.12 C 266.61 230.70 263.71 234.97 263.95 239.96 C 264.03 255.63 264.02 271.31 263.98 286.98 C 248.64 287.02 233.30 287.01 217.96 286.96 C 214.82 286.91 211.77 287.73 208.86 288.83 C 199.04 292.53 188.52 294.67 177.99 294.01 C 170.17 294.33 162.22 293.31 154.49 294.45 C 150.09 297.82 145.89 301.58 140.69 303.72 C 130.21 309.69 117.81 310.52 106.01 309.96 C 106.01 304.64 105.99 299.33 105.99 294.01 C 75.67 293.96 45.34 294.04 15.02 293.98 C 14.97 254.98 15.04 215.97 14.98 176.97 C 15.79 164.22 21.65 151.75 31.23 143.23 C 35.97 138.86 42.06 136.48 47.80 133.77 C 45.67 128.72 43.10 123.63 43.00 118.03 C 42.82 110.94 42.64 103.68 44.85 96.84 C 46.46 90.60 50.16 85.15 54.34 80.33 C 57.41 76.91 61.77 75.09 65.10 71.97 C 58.71 64.37 50.82 58.12 44.37 50.58 C 43.43 41.13 44.26 31.53 44.02 22.02 C 60.03 22.00 76.03 21.96 92.04 22.02 C 103.69 23.23 115.63 23.56 126.88 27.15 C 137.62 31.20 149.08 36.61 155.00 47.01 C 158.64 53.01 158.13 60.26 157.97 66.98 C 144.24 67.08 130.51 66.89 116.78 67.07 C 120.76 71.81 125.77 75.60 129.63 80.42 C 131.77 98.06 127.83 116.71 116.96 131.01 C 149.63 130.98 182.31 131.03 214.98 130.98 C 215.05 109.99 214.95 88.99 215.03 68.00 C 214.98 64.81 215.35 61.56 214.63 58.42 C 210.98 53.77 206.17 50.17 202.25 45.75 C 200.66 44.30 201.09 41.96 200.94 40.04 C 201.06 30.03 200.94 20.03 201.02 10.02 M 218.04 27.01 C 218.08 31.25 217.58 35.54 218.30 39.73 C 220.08 42.54 222.79 44.57 225.05 46.95 C 227.43 49.22 229.47 51.92 232.27 53.71 C 237.14 54.44 242.10 53.85 247.00 53.99 C 251.57 53.88 256.19 54.41 260.73 53.71 C 263.53 51.91 265.56 49.22 267.95 46.95 C 270.21 44.57 272.92 42.53 274.70 39.73 C 275.42 35.54 274.92 31.25 274.97 27.02 C 269.31 26.97 263.66 26.97 258.01 27.02 C 258.02 32.01 257.98 36.99 257.99 41.98 C 253.00 42.03 248.00 42.03 243.01 41.98 C 243.02 36.99 242.98 32.00 242.99 27.01 C 234.67 26.98 226.35 26.98 218.04 27.01 M 60.94 39.00 C 61.24 41.84 60.11 45.38 62.55 47.51 C 72.98 57.96 83.45 68.37 93.87 78.83 C 85.38 80.09 76.54 82.08 69.88 87.85 C 61.10 95.22 56.21 108.33 60.72 119.30 C 63.27 125.76 70.08 130.04 76.95 130.07 C 87.69 130.64 97.86 124.55 104.19 116.16 C 109.89 108.32 111.87 98.45 112.41 88.94 C 112.38 87.16 112.80 85.07 111.43 83.64 C 107.71 79.05 102.67 75.65 99.23 70.83 C 98.62 63.91 99.17 56.94 99.01 50.01 C 111.39 49.88 123.78 50.24 136.16 49.81 C 130.47 44.40 122.70 42.02 115.09 40.90 C 97.15 38.39 79.00 39.09 60.94 39.00 M 232.01 64.01 C 231.99 74.34 231.99 84.67 232.01 95.00 C 241.67 95.00 251.33 95.01 260.99 94.99 C 261.01 84.66 261.01 74.33 260.99 64.01 C 251.33 63.99 241.67 63.99 232.01 64.01 M 232.01 112.01 C 231.98 122.35 232.00 132.70 232.03 143.05 C 232.13 147.68 230.95 152.20 229.72 156.63 C 223.05 180.18 209.69 202.11 190.56 217.59 C 177.40 228.24 161.65 235.55 145.14 239.23 C 125.13 244.01 104.41 242.78 84.01 243.03 C 77.50 243.21 70.69 242.45 65.05 238.94 C 58.16 234.90 54.13 226.96 54.03 219.08 C 53.95 209.71 53.98 200.33 54.03 190.96 C 54.06 182.37 56.87 173.31 63.58 167.59 C 70.23 161.78 79.38 160.06 87.98 160.02 C 105.65 159.97 123.32 160.01 140.99 160.01 C 140.81 168.93 141.48 177.90 140.54 186.79 C 139.33 196.61 133.35 205.95 124.26 210.19 C 112.04 216.02 98.16 214.98 85.01 214.99 C 84.98 209.33 84.98 203.67 85.01 198.01 C 91.71 197.91 98.40 198.15 105.10 197.92 C 111.40 197.65 118.32 195.41 121.71 189.68 C 124.30 185.98 124.05 181.30 124.05 177.00 C 111.00 177.05 97.95 176.89 84.91 177.06 C 78.61 177.16 71.74 181.39 71.11 188.10 C 70.77 195.73 71.14 203.38 70.96 211.01 C 71.04 214.90 70.65 219.40 73.51 222.49 C 76.64 225.92 81.69 225.86 85.97 226.01 C 97.66 225.95 109.35 226.10 121.04 225.93 C 142.15 224.76 163.64 218.71 180.38 205.37 C 198.62 191.55 210.44 170.39 214.95 148.14 C 166.63 147.80 118.30 148.12 69.98 147.98 C 60.81 147.82 51.37 150.36 44.16 156.17 C 36.23 162.60 32.00 172.87 31.99 182.97 C 31.99 200.31 32.02 217.65 31.98 234.99 C 31.84 240.41 32.66 245.78 34.01 251.01 C 45.67 251.00 57.33 250.99 68.99 251.01 C 69.02 259.67 68.98 268.33 69.01 276.99 C 81.34 277.01 93.66 277.00 105.99 276.99 C 106.02 268.66 105.98 260.33 106.01 252.01 C 126.61 252.04 147.22 251.91 167.83 252.08 C 167.77 260.49 166.56 268.89 163.93 276.90 C 177.12 277.93 190.53 276.56 202.99 271.97 C 203.02 256.65 202.98 241.33 203.01 226.01 C 218.38 226.01 233.76 225.96 249.14 226.04 C 249.88 224.10 250.59 222.14 251.27 220.18 C 249.51 220.07 247.75 219.98 246.00 219.91 C 246.01 199.27 245.99 178.64 246.01 158.00 C 251.00 158.02 256.00 157.98 261.00 158.00 C 261.00 142.67 261.01 127.34 260.99 112.01 C 251.33 111.99 241.67 111.99 232.01 112.01 M 263.01 175.01 C 263.02 184.33 262.93 193.66 263.06 202.98 C 268.39 201.17 273.64 198.72 277.68 194.69 C 283.22 189.53 286.36 182.36 288.10 175.10 C 279.73 174.89 271.37 175.03 263.01 175.01 M 220.01 243.01 C 219.99 252.00 219.99 261.00 220.01 269.99 C 229.00 270.01 238.00 270.01 246.99 269.99 C 247.01 261.00 247.01 252.00 246.99 243.01 C 238.00 242.99 229.00 242.99 220.01 243.01 M 32.00 268.01 C 32.00 271.00 32.00 273.99 32.00 276.98 C 38.66 277.02 45.33 277.02 52.00 276.98 C 52.00 273.99 52.00 271.00 52.00 268.01 C 45.33 267.98 38.66 267.98 32.00 268.01 M 123.00 269.01 C 123.01 276.85 122.95 284.69 123.04 292.53 C 135.19 290.18 145.81 281.05 149.26 269.08 C 140.51 268.91 131.76 269.02 123.00 269.01 Z" />
</g>
<g id="#b1b1b1ff">
<path fill="#b1b1b1" opacity="1.00" d=" M 218.04 27.01 C 226.35 26.98 234.67 26.98 242.99 27.01 C 242.98 32.00 243.02 36.99 243.01 41.98 C 248.00 42.03 253.00 42.03 257.99 41.98 C 257.98 36.99 258.02 32.01 258.01 27.02 C 263.66 26.97 269.31 26.97 274.97 27.02 C 274.92 31.25 275.42 35.54 274.70 39.73 C 272.92 42.53 270.21 44.57 267.95 46.95 C 265.56 49.22 263.53 51.91 260.73 53.71 C 256.19 54.41 251.57 53.88 247.00 53.99 C 242.10 53.85 237.14 54.44 232.27 53.71 C 229.47 51.92 227.43 49.22 225.05 46.95 C 222.79 44.57 220.08 42.54 218.30 39.73 C 217.58 35.54 218.08 31.25 218.04 27.01 Z" />
<path fill="#b1b1b1" opacity="1.00" d=" M 32.00 268.01 C 38.66 267.98 45.33 267.98 52.00 268.01 C 52.00 271.00 52.00 273.99 52.00 276.98 C 45.33 277.02 38.66 277.02 32.00 276.98 C 32.00 273.99 32.00 271.00 32.00 268.01 Z" />
</g>
<g id="#ffffffff">
<path fill="#ffffff" opacity="1.00" d=" M 60.94 39.00 C 79.00 39.09 97.15 38.39 115.09 40.90 C 122.70 42.02 130.47 44.40 136.16 49.81 C 123.78 50.24 111.39 49.88 99.01 50.01 C 99.17 56.94 98.62 63.91 99.23 70.83 C 102.67 75.65 107.71 79.05 111.43 83.64 C 112.80 85.07 112.38 87.16 112.41 88.94 C 111.87 98.45 109.89 108.32 104.19 116.16 C 97.86 124.55 87.69 130.64 76.95 130.07 C 70.08 130.04 63.27 125.76 60.72 119.30 C 56.21 108.33 61.10 95.22 69.88 87.85 C 76.54 82.08 85.38 80.09 93.87 78.83 C 83.45 68.37 72.98 57.96 62.55 47.51 C 60.11 45.38 61.24 41.84 60.94 39.00 Z" />
<path fill="#ffffff" opacity="1.00" d=" M 232.01 64.01 C 241.67 63.99 251.33 63.99 260.99 64.01 C 261.01 74.33 261.01 84.66 260.99 94.99 C 251.33 95.01 241.67 95.00 232.01 95.00 C 231.99 84.67 231.99 74.34 232.01 64.01 Z" />
<path fill="#ffffff" opacity="1.00" d=" M 232.01 112.01 C 241.67 111.99 251.33 111.99 260.99 112.01 C 261.01 127.34 261.00 142.67 261.00 158.00 C 256.00 157.98 251.00 158.02 246.01 158.00 C 245.99 178.64 246.01 199.27 246.00 219.91 C 247.75 219.98 249.51 220.07 251.27 220.18 C 250.59 222.14 249.88 224.10 249.14 226.04 C 233.76 225.96 218.38 226.01 203.01 226.01 C 202.98 241.33 203.02 256.65 202.99 271.97 C 190.53 276.56 177.12 277.93 163.93 276.90 C 166.56 268.89 167.77 260.49 167.83 252.08 C 147.22 251.91 126.61 252.04 106.01 252.01 C 105.98 260.33 106.02 268.66 105.99 276.99 C 93.66 277.00 81.34 277.01 69.01 276.99 C 68.98 268.33 69.02 259.67 68.99 251.01 C 57.33 250.99 45.67 251.00 34.01 251.01 C 32.66 245.78 31.84 240.41 31.98 234.99 C 32.02 217.65 31.99 200.31 31.99 182.97 C 32.00 172.87 36.23 162.60 44.16 156.17 C 51.37 150.36 60.81 147.82 69.98 147.98 C 118.30 148.12 166.63 147.80 214.95 148.14 C 210.44 170.39 198.62 191.55 180.38 205.37 C 163.64 218.71 142.15 224.76 121.04 225.93 C 109.35 226.10 97.66 225.95 85.97 226.01 C 81.69 225.86 76.64 225.92 73.51 222.49 C 70.65 219.40 71.04 214.90 70.96 211.01 C 71.14 203.38 70.77 195.73 71.11 188.10 C 71.74 181.39 78.61 177.16 84.91 177.06 C 97.95 176.89 111.00 177.05 124.05 177.00 C 124.05 181.30 124.30 185.98 121.71 189.68 C 118.32 195.41 111.40 197.65 105.10 197.92 C 98.40 198.15 91.71 197.91 85.01 198.01 C 84.98 203.67 84.98 209.33 85.01 214.99 C 98.16 214.98 112.04 216.02 124.26 210.19 C 133.35 205.95 139.33 196.61 140.54 186.79 C 141.48 177.90 140.81 168.93 140.99 160.01 C 123.32 160.01 105.65 159.97 87.98 160.02 C 79.38 160.06 70.23 161.78 63.58 167.59 C 56.87 173.31 54.06 182.37 54.03 190.96 C 53.98 200.33 53.95 209.71 54.03 219.08 C 54.13 226.96 58.16 234.90 65.05 238.94 C 70.69 242.45 77.50 243.21 84.01 243.03 C 104.41 242.78 125.13 244.01 145.14 239.23 C 161.65 235.55 177.40 228.24 190.56 217.59 C 209.69 202.11 223.05 180.18 229.72 156.63 C 230.95 152.20 232.13 147.68 232.03 143.05 C 232.00 132.70 231.98 122.35 232.01 112.01 Z" />
<path fill="#ffffff" opacity="1.00" d=" M 263.01 175.01 C 271.37 175.03 279.73 174.89 288.10 175.10 C 286.36 182.36 283.22 189.53 277.68 194.69 C 273.64 198.72 268.39 201.17 263.06 202.98 C 262.93 193.66 263.02 184.33 263.01 175.01 Z" />
<path fill="#ffffff" opacity="1.00" d=" M 220.01 243.01 C 229.00 242.99 238.00 242.99 246.99 243.01 C 247.01 252.00 247.01 261.00 246.99 269.99 C 238.00 270.01 229.00 270.01 220.01 269.99 C 219.99 261.00 219.99 252.00 220.01 243.01 Z" />
<path fill="#ffffff" opacity="1.00" d=" M 123.00 269.01 C 131.76 269.02 140.51 268.91 149.26 269.08 C 145.81 281.05 135.19 290.18 123.04 292.53 C 122.95 284.69 123.01 276.85 123.00 269.01 Z" />
</g>
</svg>
