<?xml version="1.0" encoding="UTF-8" ?>
<!DOCTYPE svg PUBLIC "-//W3C//DTD SVG 1.1//EN" "http://www.w3.org/Graphics/SVG/1.1/DTD/svg11.dtd">
<svg width="320pt" height="320pt" viewBox="0 0 320 320" version="1.1" xmlns="http://www.w3.org/2000/svg">
<g id="#000000ff">
<path fill="#000000" opacity="1.00" d=" M 123.01 21.01 C 146.34 20.99 169.66 20.99 192.99 21.01 C 193.04 30.01 192.95 39.00 193.02 47.99 C 202.36 47.88 211.69 48.41 221.02 48.37 C 237.20 49.51 253.42 50.99 269.21 54.86 C 279.73 57.63 290.36 61.23 298.95 68.14 C 299.10 83.09 298.90 98.04 299.05 112.99 C 299.26 119.79 297.81 126.51 296.02 133.03 C 294.94 136.97 292.23 140.21 291.11 144.12 C 290.10 148.57 291.08 154.19 295.37 156.62 C 299.53 158.81 304.41 158.66 308.98 159.06 C 309.01 174.04 309.01 189.01 308.99 203.99 C 296.96 203.92 284.93 204.20 272.91 203.83 C 267.47 203.76 262.24 202.26 257.07 200.74 C 256.95 205.15 256.97 209.57 257.02 213.99 C 264.34 214.03 271.66 213.97 278.98 214.01 C 279.01 228.67 279.01 243.33 278.99 257.99 C 259.33 258.03 239.67 257.96 220.02 258.02 C 219.96 274.68 220.04 291.33 219.99 307.99 C 178.66 308.01 137.34 308.01 96.01 307.99 C 96.00 272.66 95.98 237.34 96.02 202.01 C 100.67 201.96 105.33 202.03 109.98 201.99 C 110.03 180.66 109.97 159.34 110.01 138.01 C 114.67 137.96 119.33 138.04 123.99 137.99 C 124.02 134.33 124.02 130.67 123.98 127.01 C 119.33 126.88 114.66 127.24 110.02 126.79 C 101.43 125.51 93.36 121.70 86.45 116.51 C 83.41 114.21 79.91 112.52 76.12 111.91 C 75.83 128.27 76.09 144.64 76.00 161.00 C 75.88 168.90 76.71 177.14 73.62 184.63 C 71.17 191.47 65.86 197.13 59.29 200.19 C 52.38 203.55 44.55 203.95 37.00 204.01 C 27.00 203.98 17.01 204.03 7.02 203.98 C 7.00 189.01 6.98 174.04 7.02 159.06 C 11.58 158.66 16.47 158.82 20.63 156.62 C 25.16 154.03 26.05 147.94 24.66 143.31 C 23.24 139.52 20.71 136.21 19.74 132.24 C 18.22 126.28 16.83 120.18 16.95 113.99 C 17.10 98.71 16.90 83.42 17.05 68.14 C 25.64 61.23 36.27 57.63 46.79 54.86 C 71.72 48.92 97.47 47.95 122.99 47.99 C 123.05 39.00 122.96 30.01 123.01 21.01 M 140.02 38.01 C 139.97 41.34 139.97 44.66 140.02 47.99 C 152.01 48.02 164.00 48.00 175.98 47.99 C 176.02 44.66 176.02 41.34 175.98 38.01 C 164.00 37.99 152.01 37.99 140.02 38.01 M 127.01 65.02 C 126.99 80.01 126.99 95.00 127.01 109.99 C 147.67 110.01 168.33 110.01 188.99 109.99 C 189.00 95.00 189.02 80.01 188.98 65.01 C 168.33 64.99 147.67 64.99 127.01 65.02 M 73.22 67.45 C 59.91 69.23 46.51 71.69 34.23 77.31 C 33.70 89.19 34.15 101.10 33.99 112.99 C 33.70 120.55 36.21 127.87 39.43 134.61 C 42.41 141.99 44.28 150.52 41.36 158.23 C 38.99 166.55 32.44 173.60 24.10 176.12 C 23.95 179.74 23.96 183.37 24.02 186.99 C 31.98 186.75 40.08 187.77 47.91 185.91 C 52.26 185.04 55.80 181.78 57.88 177.97 C 59.33 175.22 58.93 171.99 59.02 168.99 C 58.99 148.30 58.98 127.61 59.02 106.93 C 58.80 102.35 60.87 97.23 65.44 95.57 C 72.21 94.59 79.11 96.12 85.40 98.58 C 93.47 102.60 100.32 110.50 109.98 110.30 C 110.02 100.51 110.00 90.73 110.00 80.95 C 110.16 75.12 107.44 68.58 101.72 66.33 C 92.23 65.21 82.68 66.51 73.22 67.45 M 206.03 79.92 C 205.95 90.05 206.00 100.17 206.01 110.30 C 215.68 110.51 222.52 102.60 230.60 98.58 C 236.89 96.12 243.79 94.59 250.56 95.57 C 255.13 97.23 257.20 102.35 256.98 106.93 C 257.04 128.64 256.98 150.35 257.00 172.05 C 256.51 179.21 262.83 185.28 269.58 186.34 C 276.97 187.60 284.52 186.78 291.98 186.99 C 292.03 183.37 292.04 179.74 291.90 176.12 C 283.26 173.53 276.64 166.07 274.39 157.43 C 271.89 150.41 273.61 142.79 275.98 135.99 C 279.34 128.79 282.37 121.09 282.01 112.99 C 281.84 101.10 282.30 89.19 281.77 77.31 C 272.35 73.07 262.28 70.43 252.09 68.83 C 239.86 66.95 227.48 65.30 215.09 66.15 C 209.21 67.70 206.09 74.22 206.03 79.92 M 229.55 116.51 C 222.64 121.69 214.57 125.51 205.99 126.79 C 201.35 127.25 196.67 126.88 192.02 127.01 C 191.98 130.67 191.98 134.33 192.01 137.99 C 196.67 138.03 201.33 137.96 205.99 138.01 C 206.01 141.67 205.99 145.33 206.01 148.99 C 217.33 149.01 228.66 149.01 239.98 148.98 C 239.94 136.62 240.15 124.26 239.88 111.90 C 236.10 112.54 232.59 114.20 229.55 116.51 M 141.02 127.02 C 140.97 130.67 140.97 134.33 141.02 137.99 C 152.34 138.01 163.66 138.02 174.98 137.99 C 175.02 134.33 175.02 130.67 174.99 127.01 C 163.67 126.99 152.35 126.99 141.02 127.02 M 127.01 155.02 C 126.99 170.67 126.98 186.33 127.02 201.99 C 131.01 202.02 135.00 202.02 138.99 201.98 C 139.08 197.98 138.82 193.97 139.09 189.98 C 139.04 188.39 140.43 187.43 141.39 186.39 C 146.66 181.34 151.69 176.03 156.92 170.95 C 157.98 169.48 159.25 171.09 160.10 171.88 C 165.46 177.49 171.15 182.78 176.47 188.41 C 177.63 192.79 176.72 197.48 177.00 201.98 C 181.00 202.02 184.99 202.02 188.99 201.98 C 189.01 186.33 189.01 170.67 188.99 155.02 C 168.33 154.99 147.67 154.98 127.01 155.02 M 206.02 166.01 C 205.97 169.34 205.97 172.66 206.02 175.99 C 214.01 176.05 221.99 175.95 229.98 176.02 C 230.03 197.67 229.97 219.33 230.01 240.99 C 240.67 241.01 251.33 241.02 261.98 240.99 C 262.02 237.66 262.02 234.34 261.98 231.02 C 254.66 230.96 247.34 231.04 240.02 230.99 C 239.95 209.33 240.04 187.68 239.98 166.02 C 228.66 165.99 217.34 165.99 206.02 166.01 M 149.07 193.12 C 148.98 196.07 148.96 199.03 149.02 201.98 C 155.01 202.02 161.00 202.01 166.99 201.98 C 167.04 199.03 167.03 196.07 166.93 193.12 C 164.00 190.19 161.19 187.12 158.00 184.46 C 154.81 187.12 152.01 190.19 149.07 193.12 M 206.01 193.00 C 205.97 196.00 205.97 198.99 206.02 201.99 C 208.34 202.01 210.66 202.01 212.98 202.00 C 213.02 199.00 213.02 196.00 212.99 193.00 C 210.66 192.98 208.34 192.98 206.01 193.00 M 113.01 219.02 C 112.99 243.01 112.99 267.00 113.02 290.98 C 143.00 291.02 172.99 291.01 202.98 290.99 C 203.01 267.00 203.00 243.00 202.99 219.01 C 194.33 218.99 185.67 218.99 177.01 219.01 C 176.95 226.00 177.05 232.99 176.99 239.98 C 164.33 240.01 151.67 240.01 139.01 239.99 C 138.96 232.99 139.04 226.00 138.99 219.01 C 130.33 218.99 121.67 218.98 113.01 219.02 M 149.02 219.02 C 148.97 222.67 148.97 226.33 149.02 229.99 C 155.00 230.02 160.99 230.01 166.98 229.98 C 167.03 226.33 167.02 222.67 166.98 219.01 C 160.99 218.98 155.01 218.98 149.02 219.02 Z" />
</g>
<g id="#afafafff">
<path fill="#afafaf" opacity="1.00" d=" M 140.02 38.01 C 152.01 37.99 164.00 37.99 175.98 38.01 C 176.02 41.34 176.02 44.66 175.98 47.99 C 164.00 48.00 152.01 48.02 140.02 47.99 C 139.97 44.66 139.97 41.34 140.02 38.01 Z" />
<path fill="#afafaf" opacity="1.00" d=" M 127.01 65.02 C 147.67 64.99 168.33 64.99 188.98 65.01 C 189.02 80.01 189.00 95.00 188.99 109.99 C 168.33 110.01 147.67 110.01 127.01 109.99 C 126.99 95.00 126.99 80.01 127.01 65.02 Z" />
<path fill="#afafaf" opacity="1.00" d=" M 141.02 127.02 C 152.35 126.99 163.67 126.99 174.99 127.01 C 175.02 130.67 175.02 134.33 174.98 137.99 C 163.66 138.02 152.34 138.01 141.02 137.99 C 140.97 134.33 140.97 130.67 141.02 127.02 Z" />
<path fill="#afafaf" opacity="1.00" d=" M 127.01 155.02 C 147.67 154.98 168.33 154.99 188.99 155.02 C 189.01 170.67 189.01 186.33 188.99 201.98 C 184.99 202.02 181.00 202.02 177.00 201.98 C 176.72 197.48 177.63 192.79 176.47 188.41 C 171.15 182.78 165.46 177.49 160.10 171.88 C 159.25 171.09 157.98 169.48 156.92 170.95 C 151.69 176.03 146.66 181.34 141.39 186.39 C 140.43 187.43 139.04 188.39 139.09 189.98 C 138.82 193.97 139.08 197.98 138.99 201.98 C 135.00 202.02 131.01 202.02 127.02 201.99 C 126.98 186.33 126.99 170.67 127.01 155.02 Z" />
<path fill="#afafaf" opacity="1.00" d=" M 113.01 219.02 C 121.67 218.98 130.33 218.99 138.99 219.01 C 139.04 226.00 138.96 232.99 139.01 239.99 C 151.67 240.01 164.33 240.01 176.99 239.98 C 177.05 232.99 176.95 226.00 177.01 219.01 C 185.67 218.99 194.33 218.99 202.99 219.01 C 203.00 243.00 203.01 267.00 202.98 290.99 C 172.99 291.01 143.00 291.02 113.02 290.98 C 112.99 267.00 112.99 243.01 113.01 219.02 Z" />
</g>
<g id="#ffffffff">
<path fill="#ffffff" opacity="1.00" d=" M 73.22 67.45 C 82.68 66.51 92.23 65.21 101.72 66.33 C 107.44 68.58 110.16 75.12 110.00 80.95 C 110.00 90.73 110.02 100.51 109.98 110.30 C 100.32 110.50 93.47 102.60 85.40 98.58 C 79.11 96.12 72.21 94.59 65.44 95.57 C 60.87 97.23 58.80 102.35 59.02 106.93 C 58.98 127.61 58.99 148.30 59.02 168.99 C 58.93 171.99 59.33 175.22 57.88 177.97 C 55.80 181.78 52.26 185.04 47.91 185.91 C 40.08 187.77 31.98 186.75 24.02 186.99 C 23.96 183.37 23.95 179.74 24.10 176.12 C 32.44 173.60 38.99 166.55 41.36 158.23 C 44.28 150.52 42.41 141.99 39.43 134.61 C 36.21 127.87 33.70 120.55 33.99 112.99 C 34.15 101.10 33.70 89.19 34.23 77.31 C 46.51 71.69 59.91 69.23 73.22 67.45 Z" />
<path fill="#ffffff" opacity="1.00" d=" M 206.03 79.92 C 206.09 74.22 209.21 67.70 215.09 66.15 C 227.48 65.30 239.86 66.95 252.09 68.83 C 262.28 70.43 272.35 73.07 281.77 77.31 C 282.30 89.19 281.84 101.10 282.01 112.99 C 282.37 121.09 279.34 128.79 275.98 135.99 C 273.61 142.79 271.89 150.41 274.39 157.43 C 276.64 166.07 283.26 173.53 291.90 176.12 C 292.04 179.74 292.03 183.37 291.98 186.99 C 284.52 186.78 276.97 187.60 269.58 186.34 C 262.83 185.28 256.51 179.21 257.00 172.05 C 256.98 150.35 257.04 128.64 256.98 106.93 C 257.20 102.35 255.13 97.23 250.56 95.57 C 243.79 94.59 236.89 96.12 230.60 98.58 C 222.52 102.60 215.68 110.51 206.01 110.30 C 206.00 100.17 205.95 90.05 206.03 79.92 Z" />
</g>
<g id="#757575ff">
<path fill="#757575" opacity="1.00" d=" M 206.02 166.01 C 217.34 165.99 228.66 165.99 239.98 166.02 C 240.04 187.68 239.95 209.33 240.02 230.99 C 247.34 231.04 254.66 230.96 261.98 231.02 C 262.02 234.34 262.02 237.66 261.98 240.99 C 251.33 241.02 240.67 241.01 230.01 240.99 C 229.97 219.33 230.03 197.67 229.98 176.02 C 221.99 175.95 214.01 176.05 206.02 175.99 C 205.97 172.66 205.97 169.34 206.02 166.01 Z" />
<path fill="#757575" opacity="1.00" d=" M 149.07 193.12 C 152.01 190.19 154.81 187.12 158.00 184.46 C 161.19 187.12 164.00 190.19 166.93 193.12 C 167.03 196.07 167.04 199.03 166.99 201.98 C 161.00 202.01 155.01 202.02 149.02 201.98 C 148.96 199.03 148.98 196.07 149.07 193.12 Z" />
<path fill="#757575" opacity="1.00" d=" M 149.02 219.02 C 155.01 218.98 160.99 218.98 166.98 219.01 C 167.02 222.67 167.03 226.33 166.98 229.98 C 160.99 230.01 155.00 230.02 149.02 229.99 C 148.97 226.33 148.97 222.67 149.02 219.02 Z" />
</g>
</svg>
