<?xml version="1.0" encoding="UTF-8" ?>
<!DOCTYPE svg PUBLIC "-//W3C//DTD SVG 1.1//EN" "http://www.w3.org/Graphics/SVG/1.1/DTD/svg11.dtd">
<svg width="320pt" height="320pt" viewBox="0 0 320 320" version="1.1" xmlns="http://www.w3.org/2000/svg">
<g id="#000000ff">
<path fill="#000000" opacity="1.00" d=" M 66.77 17.80 C 70.48 12.83 77.25 11.76 83.06 12.04 C 92.49 12.74 101.71 16.09 109.42 21.57 C 122.84 30.91 132.64 44.29 141.27 57.96 C 147.93 57.62 154.37 55.61 161.00 54.96 C 184.53 51.66 208.33 51.82 232.03 52.06 C 234.14 51.81 237.12 52.55 238.35 50.30 C 243.07 43.00 247.46 35.47 252.18 28.17 C 254.27 24.94 257.08 21.77 261.04 20.98 C 266.14 19.64 271.27 21.82 275.54 24.49 C 286.57 31.47 297.68 38.32 308.72 45.28 C 313.06 48.05 316.91 52.57 316.83 57.98 C 317.05 62.00 314.91 65.56 312.87 68.84 C 302.03 86.04 291.38 103.36 280.48 120.52 C 279.42 122.24 278.48 124.04 277.55 125.84 C 282.80 129.38 289.34 133.08 290.32 140.00 C 291.42 147.99 285.02 154.04 281.49 160.53 C 277.17 166.55 274.44 175.16 266.59 177.39 C 259.44 179.31 253.22 174.56 247.75 170.70 C 244.18 174.24 241.59 178.58 238.56 182.56 C 216.13 212.67 191.71 241.56 163.48 266.44 C 143.37 283.96 121.20 299.91 95.87 308.88 C 81.02 314.13 65.05 316.11 49.38 314.57 C 38.34 313.50 27.70 307.94 21.03 299.00 C 11.73 286.52 9.08 270.30 10.07 255.06 C 21.40 254.82 32.74 255.18 44.07 254.94 C 50.93 254.82 57.53 252.58 63.63 249.58 C 77.01 243.05 88.78 233.72 100.06 224.09 C 123.88 203.24 145.24 179.76 165.67 155.63 C 172.02 147.79 178.75 140.24 184.58 132.01 C 181.21 129.25 177.16 126.96 175.03 123.01 C 172.72 118.81 173.12 113.51 175.51 109.44 C 178.53 104.24 182.05 99.35 184.96 94.09 C 176.12 93.77 167.17 94.34 158.57 96.49 C 154.99 97.55 151.04 98.51 148.43 101.38 C 146.45 103.41 144.83 105.94 142.22 107.22 C 139.05 108.71 135.48 108.81 132.05 108.96 C 122.47 109.16 112.88 108.81 103.30 109.08 C 102.79 113.06 102.54 117.53 99.55 120.56 C 95.87 124.52 90.11 125.09 85.01 125.04 C 75.32 124.94 65.63 125.06 55.94 125.00 C 51.05 124.96 45.55 123.70 42.56 119.47 C 39.26 115.03 40.07 109.19 39.97 104.00 C 40.19 98.11 39.50 92.15 40.44 86.31 C 41.12 81.88 44.95 79.15 48.25 76.63 C 46.68 72.48 42.88 69.57 41.81 65.20 C 40.59 60.21 40.91 55.01 41.01 49.93 C 41.03 45.59 42.80 41.02 46.59 38.64 C 51.73 35.29 58.13 36.15 63.94 35.92 C 64.33 29.88 62.73 22.95 66.77 17.80 M 82.41 29.42 C 80.24 31.44 80.85 35.08 81.30 37.73 C 82.95 40.33 85.41 42.28 87.54 44.46 C 94.07 50.94 100.59 57.42 107.01 64.00 C 108.43 65.30 109.85 67.04 111.97 66.93 C 117.58 67.24 123.21 66.97 128.82 66.89 C 122.07 54.69 113.65 43.04 102.17 34.86 C 96.48 30.97 89.44 27.74 82.41 29.42 M 265.49 39.10 C 262.76 43.11 260.07 47.16 257.95 51.54 C 254.52 55.98 251.67 60.83 248.93 65.72 C 246.63 68.79 244.64 72.09 242.98 75.55 C 239.61 80.04 236.71 84.85 233.97 89.75 C 232.48 91.74 231.11 93.83 229.85 95.98 C 240.69 103.17 251.80 109.97 262.89 116.76 C 264.13 114.80 265.34 112.82 266.53 110.83 C 269.71 105.89 272.87 100.94 275.80 95.85 C 277.79 92.89 279.71 89.88 281.52 86.81 C 284.79 81.83 288.11 76.87 290.84 71.57 C 293.37 67.78 296.33 64.18 298.03 59.91 C 297.42 57.26 294.23 56.42 292.20 55.03 C 287.11 51.62 281.76 48.61 276.73 45.11 C 273.10 42.91 269.55 40.48 265.49 39.10 M 56.93 59.01 C 56.82 64.08 61.44 67.14 64.55 70.45 C 68.93 74.36 72.47 79.24 77.28 82.65 C 82.45 83.49 87.74 82.92 92.96 82.93 C 93.03 79.66 93.26 76.36 92.79 73.11 C 92.38 70.12 89.92 68.09 87.98 66.02 C 84.39 62.60 81.09 58.88 77.29 55.71 C 73.14 52.19 67.32 51.47 62.09 52.17 C 58.89 52.60 56.52 55.82 56.93 59.01 M 181.98 70.04 C 169.98 70.96 157.76 71.59 146.21 75.28 C 146.06 77.93 145.98 80.59 145.99 83.25 C 148.85 82.77 151.71 82.20 154.56 81.61 C 176.65 77.22 199.27 77.24 221.69 76.74 C 223.28 74.26 224.81 71.74 226.18 69.13 C 211.44 68.82 196.68 68.86 181.98 70.04 M 104.43 77.45 C 102.29 79.24 103.19 82.56 102.89 85.03 C 103.19 87.16 102.46 90.08 104.43 91.55 C 110.58 92.50 116.86 91.88 123.07 92.02 C 125.27 91.94 129.02 92.23 128.85 89.01 C 128.84 85.29 130.16 80.47 127.57 77.46 C 119.93 76.66 112.07 76.66 104.43 77.45 M 58.44 93.46 C 56.12 95.52 57.21 99.29 56.92 102.08 C 57.20 103.96 56.57 107.32 59.16 107.71 C 66.10 108.38 73.10 107.89 80.07 108.02 C 82.27 107.94 86.03 108.23 85.86 105.01 C 85.85 101.29 87.15 96.48 84.58 93.45 C 80.11 92.58 75.52 93.10 71.00 92.98 C 66.82 93.07 62.56 92.61 58.44 93.46 M 192.82 113.85 C 191.92 115.00 192.26 116.67 193.65 117.22 C 214.97 130.62 236.41 143.83 257.68 157.30 C 259.18 158.11 261.55 159.90 262.94 158.01 C 266.19 153.17 269.28 148.21 272.11 143.12 C 267.95 139.71 263.19 137.19 258.70 134.30 C 241.49 123.50 224.25 112.76 207.04 101.98 C 205.42 101.00 203.73 100.15 202.05 99.31 C 198.76 104.02 195.66 108.87 192.82 113.85 M 200.21 141.79 C 184.37 162.25 167.95 182.32 150.12 201.10 C 131.53 220.93 111.71 239.83 89.17 255.13 C 77.86 262.56 65.58 269.26 52.02 271.24 C 43.71 272.62 35.27 271.66 26.91 272.13 C 27.27 276.04 28.12 279.89 29.44 283.59 C 33.38 291.82 41.87 297.26 50.95 297.74 C 60.16 298.14 69.55 298.61 78.59 296.42 C 87.91 294.28 96.86 290.71 105.32 286.30 C 123.77 276.64 140.36 263.74 155.49 249.50 C 175.50 231.47 193.29 211.12 210.21 190.20 C 217.57 180.63 225.33 171.33 232.01 161.26 C 226.95 158.02 221.83 154.86 216.74 151.67 C 211.18 148.45 206.02 144.55 200.21 141.79 Z" />
</g>
<g id="#979797ff">
<path fill="#979797" opacity="1.00" d=" M 82.41 29.42 C 89.44 27.74 96.48 30.97 102.17 34.86 C 113.65 43.04 122.07 54.69 128.82 66.89 C 123.21 66.97 117.58 67.24 111.97 66.93 C 109.85 67.04 108.43 65.30 107.01 64.00 C 100.59 57.42 94.07 50.94 87.54 44.46 C 85.41 42.28 82.95 40.33 81.30 37.73 C 80.85 35.08 80.24 31.44 82.41 29.42 Z" />
<path fill="#979797" opacity="1.00" d=" M 265.49 39.10 C 269.55 40.48 273.10 42.91 276.73 45.11 C 276.25 50.26 272.94 54.35 269.84 58.24 C 265.76 56.22 261.81 53.94 257.95 51.54 C 260.07 47.16 262.76 43.11 265.49 39.10 Z" />
<path fill="#979797" opacity="1.00" d=" M 56.93 59.01 C 56.52 55.82 58.89 52.60 62.09 52.17 C 67.32 51.47 73.14 52.19 77.29 55.71 C 81.09 58.88 84.39 62.60 87.98 66.02 C 89.92 68.09 92.38 70.12 92.79 73.11 C 93.26 76.36 93.03 79.66 92.96 82.93 C 87.74 82.92 82.45 83.49 77.28 82.65 C 72.47 79.24 68.93 74.36 64.55 70.45 C 61.44 67.14 56.82 64.08 56.93 59.01 Z" />
<path fill="#979797" opacity="1.00" d=" M 292.20 55.03 C 294.23 56.42 297.42 57.26 298.03 59.91 C 296.33 64.18 293.37 67.78 290.84 71.57 C 288.75 70.36 286.68 69.13 284.61 67.91 C 286.79 63.42 289.42 59.17 292.20 55.03 Z" />
<path fill="#979797" opacity="1.00" d=" M 242.98 75.55 C 244.64 72.09 246.63 68.79 248.93 65.72 C 259.80 72.72 271.34 78.79 281.52 86.81 C 279.71 89.88 277.79 92.89 275.80 95.85 C 264.82 89.15 254.18 81.89 242.98 75.55 Z" />
<path fill="#979797" opacity="1.00" d=" M 181.98 70.04 C 196.68 68.86 211.44 68.82 226.18 69.13 C 224.81 71.74 223.28 74.26 221.69 76.74 C 199.27 77.24 176.65 77.22 154.56 81.61 C 151.71 82.20 148.85 82.77 145.99 83.25 C 145.98 80.59 146.06 77.93 146.21 75.28 C 157.76 71.59 169.98 70.96 181.98 70.04 Z" />
<path fill="#979797" opacity="1.00" d=" M 104.43 77.45 C 112.07 76.66 119.93 76.66 127.57 77.46 C 130.16 80.47 128.84 85.29 128.85 89.01 C 129.02 92.23 125.27 91.94 123.07 92.02 C 116.86 91.88 110.58 92.50 104.43 91.55 C 102.46 90.08 103.19 87.16 102.89 85.03 C 103.19 82.56 102.29 79.24 104.43 77.45 Z" />
<path fill="#979797" opacity="1.00" d=" M 229.85 95.98 C 231.11 93.83 232.48 91.74 233.97 89.75 C 244.83 96.75 256.37 102.80 266.53 110.83 C 265.34 112.82 264.13 114.80 262.89 116.76 C 251.80 109.97 240.69 103.17 229.85 95.98 Z" />
<path fill="#979797" opacity="1.00" d=" M 58.44 93.46 C 62.56 92.61 66.82 93.07 71.00 92.98 C 75.52 93.10 80.11 92.58 84.58 93.45 C 87.15 96.48 85.85 101.29 85.86 105.01 C 86.03 108.23 82.27 107.94 80.07 108.02 C 73.10 107.89 66.10 108.38 59.16 107.71 C 56.57 107.32 57.20 103.96 56.92 102.08 C 57.21 99.29 56.12 95.52 58.44 93.46 Z" />
<path fill="#979797" opacity="1.00" d=" M 200.21 141.79 C 206.02 144.55 211.18 148.45 216.74 151.67 C 209.87 159.30 204.41 168.03 197.95 175.99 C 175.27 204.66 150.90 232.40 122.11 255.10 C 109.10 265.07 95.21 274.29 79.66 279.78 C 63.57 285.89 46.09 281.32 29.44 283.59 C 28.12 279.89 27.27 276.04 26.91 272.13 C 35.27 271.66 43.71 272.62 52.02 271.24 C 65.58 269.26 77.86 262.56 89.17 255.13 C 111.71 239.83 131.53 220.93 150.12 201.10 C 167.95 182.32 184.37 162.25 200.21 141.79 Z" />
</g>
<g id="#525252ff">
<path fill="#525252" opacity="1.00" d=" M 276.73 45.11 C 281.76 48.61 287.11 51.62 292.20 55.03 C 289.42 59.17 286.79 63.42 284.61 67.91 C 286.68 69.13 288.75 70.36 290.84 71.57 C 288.11 76.87 284.79 81.83 281.52 86.81 C 271.34 78.79 259.80 72.72 248.93 65.72 C 251.67 60.83 254.52 55.98 257.95 51.54 C 261.81 53.94 265.76 56.22 269.84 58.24 C 272.94 54.35 276.25 50.26 276.73 45.11 Z" />
<path fill="#525252" opacity="1.00" d=" M 233.97 89.75 C 236.71 84.85 239.61 80.04 242.98 75.55 C 254.18 81.89 264.82 89.15 275.80 95.85 C 272.87 100.94 269.71 105.89 266.53 110.83 C 256.37 102.80 244.83 96.75 233.97 89.75 Z" />
</g>
<g id="#ffffffff">
<path fill="#ffffff" opacity="1.00" d=" M 192.82 113.85 C 195.66 108.87 198.76 104.02 202.05 99.31 C 203.73 100.15 205.42 101.00 207.04 101.98 C 224.25 112.76 241.49 123.50 258.70 134.30 C 263.19 137.19 267.95 139.71 272.11 143.12 C 269.28 148.21 266.19 153.17 262.94 158.01 C 261.55 159.90 259.18 158.11 257.68 157.30 C 236.41 143.83 214.97 130.62 193.65 117.22 C 192.26 116.67 191.92 115.00 192.82 113.85 Z" />
<path fill="#ffffff" opacity="1.00" d=" M 197.95 175.99 C 204.41 168.03 209.87 159.30 216.74 151.67 C 221.83 154.86 226.95 158.02 232.01 161.26 C 225.33 171.33 217.57 180.63 210.21 190.20 C 193.29 211.12 175.50 231.47 155.49 249.50 C 140.36 263.74 123.77 276.64 105.32 286.30 C 96.86 290.71 87.91 294.28 78.59 296.42 C 69.55 298.61 60.16 298.14 50.95 297.74 C 41.87 297.26 33.38 291.82 29.44 283.59 C 46.09 281.32 63.57 285.89 79.66 279.78 C 95.21 274.29 109.10 265.07 122.11 255.10 C 150.90 232.40 175.27 204.66 197.95 175.99 Z" />
</g>
</svg>
