<?xml version="1.0" encoding="UTF-8" ?>
<!DOCTYPE svg PUBLIC "-//W3C//DTD SVG 1.1//EN" "http://www.w3.org/Graphics/SVG/1.1/DTD/svg11.dtd">
<svg width="320pt" height="320pt" viewBox="0 0 320 320" version="1.1" xmlns="http://www.w3.org/2000/svg">
<g id="#000000ff">
<path fill="#000000" opacity="1.00" d=" M 151.39 13.40 C 161.82 11.58 172.42 11.05 182.99 11.09 C 195.46 10.43 207.84 12.92 219.80 16.24 C 241.78 22.88 262.27 33.80 281.02 46.96 C 284.48 49.52 288.37 51.61 291.26 54.88 C 279.96 55.31 268.54 54.34 257.35 56.41 C 239.47 59.28 222.49 69.12 212.20 84.18 C 200.23 100.88 195.77 121.77 194.97 141.99 C 195.09 153.44 197.16 164.99 201.36 175.65 C 208.98 190.78 210.91 208.09 210.73 224.83 C 205.15 225.28 199.55 224.75 193.97 225.14 C 196.08 232.18 201.43 237.47 206.57 242.43 C 212.07 248.10 217.91 254.47 226.17 255.63 C 235.05 256.53 244.01 255.64 252.92 256.08 C 253.06 274.36 253.05 292.64 252.92 310.92 C 241.29 311.13 229.64 310.93 218.00 311.00 C 209.64 310.96 201.10 311.42 192.99 309.05 C 181.98 305.95 171.99 299.98 163.00 293.03 C 155.84 287.58 149.84 280.83 143.43 274.57 C 135.53 266.78 127.83 258.78 119.83 251.08 C 118.79 251.58 117.74 252.07 116.77 252.70 C 97.05 266.05 77.19 279.19 57.44 292.49 C 55.07 294.15 52.66 295.77 50.08 297.09 C 49.91 244.39 50.05 191.70 50.00 139.00 C 49.71 122.08 51.55 104.98 56.84 88.85 C 62.04 72.78 70.80 57.74 82.90 45.89 C 101.29 27.75 126.15 17.46 151.39 13.40 M 128.00 38.92 C 107.63 47.00 89.64 61.82 79.37 81.35 C 70.33 98.37 66.88 117.87 67.00 137.00 C 67.05 178.30 66.88 219.59 67.09 260.89 C 80.07 252.27 92.97 243.53 105.84 234.76 C 106.21 211.52 105.89 188.25 106.00 165.00 C 106.12 147.68 105.29 130.08 109.31 113.09 C 113.52 93.37 124.33 74.74 140.66 62.66 C 158.25 49.50 180.18 43.15 201.95 42.20 C 214.70 41.68 227.47 42.33 240.22 41.83 C 232.37 37.15 223.45 34.70 214.72 32.20 C 205.13 29.18 195.03 27.96 184.99 28.24 C 165.52 27.65 146.05 31.71 128.00 38.92 M 154.18 65.15 C 138.78 73.97 127.30 88.77 121.38 105.38 C 116.80 118.35 114.97 132.27 115.95 145.99 C 116.15 173.07 115.82 200.16 116.10 227.25 C 121.16 224.85 125.43 221.13 130.20 218.23 C 137.00 213.44 144.96 210.42 153.20 209.27 C 166.33 206.96 179.71 208.53 192.96 207.87 C 192.01 198.66 191.08 188.99 186.19 180.90 C 178.90 166.12 177.72 149.19 178.00 132.95 C 179.39 114.70 184.06 96.40 193.66 80.67 C 200.69 69.06 210.48 59.24 222.05 52.17 C 198.95 51.18 174.50 53.11 154.18 65.15 M 160.38 227.20 C 149.97 229.51 141.30 236.12 132.78 242.17 C 134.54 245.31 137.54 247.45 139.96 250.04 C 143.68 253.53 146.89 257.57 151.00 260.61 C 160.15 252.61 168.25 243.45 177.08 235.08 C 180.38 232.55 177.13 228.45 176.65 225.30 C 171.16 224.84 165.68 225.83 160.38 227.20 M 175.55 248.54 C 169.58 254.76 163.10 260.50 157.44 267.00 C 160.01 270.25 163.13 272.99 166.05 275.93 C 169.79 279.58 173.62 283.33 178.37 285.66 C 179.59 286.56 180.64 285.16 181.48 284.46 C 187.64 278.30 193.76 272.08 199.97 265.98 C 201.24 264.42 203.51 263.21 203.84 261.16 C 197.32 254.18 190.40 247.55 183.85 240.58 C 180.78 242.91 178.26 245.83 175.55 248.54 M 203.05 275.05 C 198.19 280.11 192.86 284.74 188.36 290.12 C 194.12 292.48 200.54 293.68 206.75 293.81 C 209.64 291.72 211.88 288.89 214.45 286.45 C 217.79 282.95 221.52 279.82 224.54 276.02 C 220.44 272.58 215.14 270.94 210.84 267.73 C 207.87 269.75 205.61 272.58 203.05 275.05 M 219.68 293.89 C 225.11 294.10 230.55 294.06 235.99 293.94 C 236.45 289.43 235.80 284.42 231.95 281.47 C 227.60 285.33 223.32 289.35 219.68 293.89 Z" />
<path fill="#000000" opacity="1.00" d=" M 152.30 101.41 C 159.53 99.81 167.62 103.19 171.36 109.63 C 174.82 115.25 174.83 122.75 171.36 128.37 C 166.98 136.00 156.56 139.14 148.64 135.39 C 140.76 132.14 136.36 122.71 138.58 114.54 C 140.15 107.99 145.70 102.71 152.30 101.41 M 152.41 109.60 C 149.05 110.98 146.22 114.23 146.09 117.98 C 145.21 123.64 150.27 129.29 156.00 128.95 C 161.73 129.29 166.78 123.64 165.91 117.98 C 165.64 111.55 158.27 107.27 152.41 109.60 Z" />
<path fill="#000000" opacity="1.00" d=" M 152.30 157.41 C 159.53 155.81 167.61 159.20 171.35 165.62 C 174.83 171.24 174.82 178.75 171.35 184.38 C 166.98 192.00 156.55 195.14 148.64 191.39 C 140.50 188.05 136.11 178.12 138.79 169.81 C 140.56 163.57 145.97 158.67 152.30 157.41 M 152.40 165.60 C 149.03 166.98 146.23 170.24 146.10 173.98 C 145.21 179.64 150.27 185.29 156.00 184.95 C 161.73 185.29 166.79 179.64 165.91 173.98 C 165.63 167.55 158.27 163.27 152.40 165.60 Z" />
</g>
<g id="#ffffffff">
<path fill="#ffffff" opacity="1.00" d=" M 128.00 38.92 C 146.05 31.71 165.52 27.65 184.99 28.24 C 195.03 27.96 205.13 29.18 214.72 32.20 C 223.45 34.70 232.37 37.15 240.22 41.83 C 227.47 42.33 214.70 41.68 201.95 42.20 C 180.18 43.15 158.25 49.50 140.66 62.66 C 124.33 74.74 113.52 93.37 109.31 113.09 C 105.29 130.08 106.12 147.68 106.00 165.00 C 105.89 188.25 106.21 211.52 105.84 234.76 C 92.97 243.53 80.07 252.27 67.09 260.89 C 66.88 219.59 67.05 178.30 67.00 137.00 C 66.88 117.87 70.33 98.37 79.37 81.35 C 89.64 61.82 107.63 47.00 128.00 38.92 Z" />
<path fill="#ffffff" opacity="1.00" d=" M 152.41 109.60 C 158.27 107.27 165.64 111.55 165.91 117.98 C 166.78 123.64 161.73 129.29 156.00 128.95 C 150.27 129.29 145.21 123.64 146.09 117.98 C 146.22 114.23 149.05 110.98 152.41 109.60 Z" />
<path fill="#ffffff" opacity="1.00" d=" M 152.40 165.60 C 158.27 163.27 165.63 167.55 165.91 173.98 C 166.79 179.64 161.73 185.29 156.00 184.95 C 150.27 185.29 145.21 179.64 146.10 173.98 C 146.23 170.24 149.03 166.98 152.40 165.60 Z" />
<path fill="#ffffff" opacity="1.00" d=" M 160.38 227.20 C 165.68 225.83 171.16 224.84 176.65 225.30 C 177.13 228.45 180.38 232.55 177.08 235.08 C 168.25 243.45 160.15 252.61 151.00 260.61 C 146.89 257.57 143.68 253.53 139.96 250.04 C 137.54 247.45 134.54 245.31 132.78 242.17 C 141.30 236.12 149.97 229.51 160.38 227.20 Z" />
<path fill="#ffffff" opacity="1.00" d=" M 175.55 248.54 C 178.26 245.83 180.78 242.91 183.85 240.58 C 190.40 247.55 197.32 254.18 203.84 261.16 C 203.51 263.21 201.24 264.42 199.97 265.98 C 193.76 272.08 187.64 278.30 181.48 284.46 C 180.64 285.16 179.59 286.56 178.37 285.66 C 173.62 283.33 169.79 279.58 166.05 275.93 C 163.13 272.99 160.01 270.25 157.44 267.00 C 163.10 260.50 169.58 254.76 175.55 248.54 Z" />
<path fill="#ffffff" opacity="1.00" d=" M 203.05 275.05 C 205.61 272.58 207.87 269.75 210.84 267.73 C 215.14 270.94 220.44 272.58 224.54 276.02 C 221.52 279.82 217.79 282.95 214.45 286.45 C 211.88 288.89 209.64 291.72 206.75 293.81 C 200.54 293.68 194.12 292.48 188.36 290.12 C 192.86 284.74 198.19 280.11 203.05 275.05 Z" />
<path fill="#ffffff" opacity="1.00" d=" M 219.68 293.89 C 223.32 289.35 227.60 285.33 231.95 281.47 C 235.80 284.42 236.45 289.43 235.99 293.94 C 230.55 294.06 225.11 294.10 219.68 293.89 Z" />
</g>
<g id="#949494ff">
<path fill="#949494" opacity="1.00" d=" M 154.18 65.15 C 174.50 53.11 198.95 51.18 222.05 52.17 C 210.48 59.24 200.69 69.06 193.66 80.67 C 184.06 96.40 179.39 114.70 178.00 132.95 C 177.72 149.19 178.90 166.12 186.19 180.90 C 191.08 188.99 192.01 198.66 192.96 207.87 C 179.71 208.53 166.33 206.96 153.20 209.27 C 144.96 210.42 137.00 213.44 130.20 218.23 C 125.43 221.13 121.16 224.85 116.10 227.25 C 115.82 200.16 116.15 173.07 115.95 145.99 C 114.97 132.27 116.80 118.35 121.38 105.38 C 127.30 88.77 138.78 73.97 154.18 65.15 M 152.30 101.41 C 145.70 102.71 140.15 107.99 138.58 114.54 C 136.36 122.71 140.76 132.14 148.64 135.39 C 156.56 139.14 166.98 136.00 171.36 128.37 C 174.83 122.75 174.82 115.25 171.36 109.63 C 167.62 103.19 159.53 99.81 152.30 101.41 M 152.30 157.41 C 145.97 158.67 140.56 163.57 138.79 169.81 C 136.11 178.12 140.50 188.05 148.64 191.39 C 156.55 195.14 166.98 192.00 171.35 184.38 C 174.82 178.75 174.83 171.24 171.35 165.62 C 167.61 159.20 159.53 155.81 152.30 157.41 Z" />
</g>
</svg>
