<?xml version="1.0" encoding="UTF-8" ?>
<!DOCTYPE svg PUBLIC "-//W3C//DTD SVG 1.1//EN" "http://www.w3.org/Graphics/SVG/1.1/DTD/svg11.dtd">
<svg width="320pt" height="320pt" viewBox="0 0 320 320" version="1.1" xmlns="http://www.w3.org/2000/svg">
<g id="#000000ff">
<path fill="#000000" opacity="1.00" d=" M 83.57 18.54 C 92.53 16.31 101.83 17.07 110.96 17.04 C 111.08 77.68 110.92 138.33 111.03 198.98 C 117.41 199.23 123.93 198.32 130.19 199.85 C 136.81 201.60 140.69 208.43 140.90 214.96 C 141.11 221.29 141.20 227.64 140.81 233.97 C 140.38 240.19 136.46 246.49 130.18 248.15 C 123.92 249.67 117.41 248.76 111.04 249.02 C 110.91 267.00 111.09 284.98 110.97 302.96 C 90.99 303.02 71.01 303.03 51.03 302.96 C 50.92 284.99 51.09 267.01 50.97 249.04 C 42.30 248.80 33.62 249.29 24.96 248.86 C 19.92 248.68 14.89 246.06 12.49 241.52 C 9.42 236.22 10.04 229.88 9.95 224.00 C 10.04 218.12 9.41 211.78 12.49 206.47 C 14.90 201.94 19.92 199.32 24.96 199.14 C 33.62 198.71 42.30 199.20 50.96 198.96 C 51.06 152.63 50.95 106.30 51.01 59.97 C 51.05 50.33 53.51 40.33 59.75 32.78 C 65.67 25.36 74.47 20.76 83.57 18.54 M 77.89 38.89 C 70.82 44.21 67.86 53.41 67.99 61.98 C 68.03 107.65 67.97 153.32 68.01 198.99 C 76.67 199.01 85.33 199.01 93.99 198.99 C 93.99 143.97 94.06 88.94 93.95 33.92 C 88.32 34.29 82.43 35.30 77.89 38.89 M 27.44 217.48 C 26.61 221.49 26.79 225.71 27.23 229.77 C 27.75 232.31 30.98 231.85 32.92 232.03 C 54.61 231.96 76.30 232.03 97.98 231.99 C 98.02 226.66 98.02 221.34 97.98 216.01 C 76.29 215.97 54.61 216.03 32.92 215.97 C 31.07 216.16 28.69 215.75 27.44 217.48 M 108.02 216.02 C 107.98 221.34 107.98 226.66 108.02 231.98 C 112.31 231.96 116.62 232.25 120.91 231.85 C 122.12 231.79 123.66 231.15 123.77 229.76 C 124.26 226.22 124.17 222.61 123.90 219.06 C 123.95 217.75 123.08 216.43 121.72 216.29 C 117.18 215.63 112.58 216.08 108.02 216.02 M 68.04 249.03 C 67.94 253.68 67.94 258.32 68.04 262.97 C 76.68 263.04 85.32 263.04 93.96 262.97 C 94.06 258.32 94.06 253.68 93.96 249.03 C 85.32 248.97 76.68 248.96 68.04 249.03 M 68.04 273.03 C 67.95 277.34 67.94 281.66 68.04 285.97 C 76.68 286.04 85.32 286.04 93.96 285.97 C 94.05 281.65 94.05 277.34 93.96 273.03 C 85.32 272.96 76.68 272.96 68.04 273.03 Z" />
<path fill="#000000" opacity="1.00" d=" M 219.42 100.70 C 236.13 98.50 253.55 101.47 268.40 109.54 C 287.23 119.32 301.56 137.10 307.60 157.41 C 313.42 176.27 311.71 197.31 303.14 215.07 C 295.60 231.21 282.42 244.67 266.40 252.49 C 252.27 259.70 235.95 262.28 220.24 260.41 C 203.70 258.14 187.81 250.82 175.60 239.39 C 160.32 225.23 150.95 204.90 150.10 184.09 C 149.00 163.94 156.21 143.58 169.26 128.26 C 181.84 113.31 200.14 103.53 219.42 100.70 M 196.23 128.23 C 181.30 137.95 170.92 154.26 168.59 171.94 C 172.72 172.01 176.85 172.01 180.98 172.01 C 181.02 177.67 181.02 183.33 180.98 188.99 C 176.84 188.99 172.71 188.99 168.57 189.05 C 169.80 197.71 172.80 206.10 177.45 213.52 C 187.03 229.12 203.80 239.99 221.94 242.41 C 222.02 237.61 222.00 232.82 222.01 228.02 C 227.67 227.98 233.33 227.98 238.99 228.02 C 239.00 232.82 238.98 237.63 239.04 242.43 C 251.71 240.65 263.84 234.96 273.15 226.16 C 283.61 216.50 290.47 203.13 292.43 189.05 C 288.29 188.99 284.15 188.99 280.02 188.98 C 279.98 183.33 279.98 177.67 280.02 172.02 C 284.15 172.01 288.28 172.01 292.41 171.94 C 290.62 159.28 285.03 147.11 276.16 137.86 C 266.51 127.39 253.13 120.53 239.05 118.57 C 238.98 123.37 239.00 128.18 238.99 132.98 C 233.33 133.02 227.67 133.02 222.01 132.98 C 222.00 128.18 222.02 123.38 221.95 118.59 C 212.81 119.93 203.92 123.08 196.23 128.23 Z" />
<path fill="#000000" opacity="1.00" d=" M 208.41 147.63 C 217.87 146.31 227.48 147.31 237.00 147.00 C 243.61 147.20 250.70 146.12 256.85 149.11 C 263.33 152.37 266.10 160.06 266.01 166.94 C 266.00 177.31 266.00 187.69 266.01 198.06 C 266.04 204.25 263.94 210.98 258.73 214.73 C 254.51 217.85 249.03 217.99 244.00 218.02 C 234.66 217.98 225.32 218.01 215.99 218.02 C 211.04 217.99 205.67 217.57 201.69 214.30 C 196.59 210.22 194.81 203.33 194.97 197.04 C 195.08 186.35 194.87 175.65 195.07 164.96 C 195.28 157.18 200.27 148.96 208.41 147.63 M 210.38 157.55 C 207.56 158.42 205.17 160.96 205.11 164.00 C 204.70 170.99 205.15 178.00 205.01 185.00 C 205.13 190.62 204.59 196.27 205.23 201.87 C 205.90 206.35 210.89 208.29 214.93 208.03 C 225.64 207.97 236.36 208.07 247.08 207.98 C 251.55 208.26 256.30 204.87 255.98 200.06 C 256.04 188.36 256.04 176.65 255.98 164.95 C 256.26 160.57 252.24 157.10 248.06 157.09 C 239.71 156.75 231.35 157.16 223.00 156.98 C 218.80 157.06 214.50 156.55 210.38 157.55 Z" />
</g>
<g id="#ffffffff">
<path fill="#ffffff" opacity="1.00" d=" M 77.89 38.89 C 82.43 35.30 88.32 34.29 93.95 33.92 C 94.06 88.94 93.99 143.97 93.99 198.99 C 85.33 199.01 76.67 199.01 68.01 198.99 C 67.97 153.32 68.03 107.65 67.99 61.98 C 67.86 53.41 70.82 44.21 77.89 38.89 Z" />
<path fill="#ffffff" opacity="1.00" d=" M 196.23 128.23 C 203.92 123.08 212.81 119.93 221.95 118.59 C 222.02 123.38 222.00 128.18 222.01 132.98 C 227.67 133.02 233.33 133.02 238.99 132.98 C 239.00 128.18 238.98 123.37 239.05 118.57 C 253.13 120.53 266.51 127.39 276.16 137.86 C 285.03 147.11 290.62 159.28 292.41 171.94 C 288.28 172.01 284.15 172.01 280.02 172.02 C 279.98 177.67 279.98 183.33 280.02 188.98 C 284.15 188.99 288.29 188.99 292.43 189.05 C 290.47 203.13 283.61 216.50 273.15 226.16 C 263.84 234.96 251.71 240.65 239.04 242.43 C 238.98 237.63 239.00 232.82 238.99 228.02 C 233.33 227.98 227.67 227.98 222.01 228.02 C 222.00 232.82 222.02 237.61 221.94 242.41 C 203.80 239.99 187.03 229.12 177.45 213.52 C 172.80 206.10 169.80 197.71 168.57 189.05 C 172.71 188.99 176.84 188.99 180.98 188.99 C 181.02 183.33 181.02 177.67 180.98 172.01 C 176.85 172.01 172.72 172.01 168.59 171.94 C 170.92 154.26 181.30 137.95 196.23 128.23 M 208.41 147.63 C 200.27 148.96 195.28 157.18 195.07 164.96 C 194.87 175.65 195.08 186.35 194.97 197.04 C 194.81 203.33 196.59 210.22 201.69 214.30 C 205.67 217.57 211.04 217.99 215.99 218.02 C 225.32 218.01 234.66 217.98 244.00 218.02 C 249.03 217.99 254.51 217.85 258.73 214.73 C 263.94 210.98 266.04 204.25 266.01 198.06 C 266.00 187.69 266.00 177.31 266.01 166.94 C 266.10 160.06 263.33 152.37 256.85 149.11 C 250.70 146.12 243.61 147.20 237.00 147.00 C 227.48 147.31 217.87 146.31 208.41 147.63 Z" />
<path fill="#ffffff" opacity="1.00" d=" M 27.44 217.48 C 28.69 215.75 31.07 216.16 32.92 215.97 C 54.61 216.03 76.29 215.97 97.98 216.01 C 98.02 221.34 98.02 226.66 97.98 231.99 C 76.30 232.03 54.61 231.96 32.92 232.03 C 30.98 231.85 27.75 232.31 27.23 229.77 C 26.79 225.71 26.61 221.49 27.44 217.48 Z" />
<path fill="#ffffff" opacity="1.00" d=" M 108.02 216.02 C 112.58 216.08 117.18 215.63 121.72 216.29 C 123.08 216.43 123.95 217.75 123.90 219.06 C 124.17 222.61 124.26 226.22 123.77 229.76 C 123.66 231.15 122.12 231.79 120.91 231.85 C 116.62 232.25 112.31 231.96 108.02 231.98 C 107.98 226.66 107.98 221.34 108.02 216.02 Z" />
</g>
<g id="#949494ff">
<path fill="#949494" opacity="1.00" d=" M 210.38 157.55 C 214.50 156.55 218.80 157.06 223.00 156.98 C 231.35 157.16 239.71 156.75 248.06 157.09 C 252.24 157.10 256.26 160.57 255.98 164.95 C 256.04 176.65 256.04 188.36 255.98 200.06 C 256.30 204.87 251.55 208.26 247.08 207.98 C 236.36 208.07 225.64 207.97 214.93 208.03 C 210.89 208.29 205.90 206.35 205.23 201.87 C 204.59 196.27 205.13 190.62 205.01 185.00 C 205.15 178.00 204.70 170.99 205.11 164.00 C 205.17 160.96 207.56 158.42 210.38 157.55 Z" />
<path fill="#949494" opacity="1.00" d=" M 68.04 249.03 C 76.68 248.96 85.32 248.97 93.96 249.03 C 94.06 253.68 94.06 258.32 93.96 262.97 C 85.32 263.04 76.68 263.04 68.04 262.97 C 67.94 258.32 67.94 253.68 68.04 249.03 Z" />
<path fill="#949494" opacity="1.00" d=" M 68.04 273.03 C 76.68 272.96 85.32 272.96 93.96 273.03 C 94.05 277.34 94.05 281.65 93.96 285.97 C 85.32 286.04 76.68 286.04 68.04 285.97 C 67.94 281.66 67.95 277.34 68.04 273.03 Z" />
</g>
</svg>
