<?xml version="1.0" encoding="UTF-8" ?>
<!DOCTYPE svg PUBLIC "-//W3C//DTD SVG 1.1//EN" "http://www.w3.org/Graphics/SVG/1.1/DTD/svg11.dtd">
<svg width="320pt" height="320pt" viewBox="0 0 320 320" version="1.1" xmlns="http://www.w3.org/2000/svg">
<g id="#000000ff">
<path fill="#000000" opacity="1.00" d=" M 137.16 7.15 C 144.76 6.69 152.38 7.14 160.00 7.00 C 167.94 7.14 175.90 6.69 183.84 7.15 C 184.48 16.72 183.48 26.32 184.21 35.88 C 190.27 37.38 196.55 37.72 202.56 39.48 C 219.25 43.75 234.94 52.65 246.26 65.77 C 260.44 81.98 267.70 103.15 270.40 124.26 C 271.64 133.41 270.53 142.66 271.16 151.84 C 279.04 152.46 286.96 151.54 294.84 152.16 C 295.24 158.78 294.97 165.41 295.03 172.04 C 295.09 178.06 293.72 184.24 290.19 189.20 C 286.09 195.26 279.18 198.86 272.10 200.12 C 262.46 201.72 252.45 201.55 243.11 198.47 C 242.70 219.25 243.33 240.06 242.85 260.84 C 227.63 261.40 212.37 260.59 197.15 261.16 C 196.54 271.41 197.47 281.69 196.82 291.94 C 196.33 299.47 191.81 306.65 184.95 309.93 C 177.56 313.72 169.03 312.98 161.00 313.02 C 153.61 312.90 145.94 313.71 138.85 311.12 C 133.09 309.15 128.14 304.74 125.87 299.05 C 123.61 293.66 123.98 287.70 123.97 281.99 C 124.08 272.98 123.93 263.96 123.98 254.95 C 123.97 249.52 125.06 243.85 128.40 239.43 C 130.56 236.55 133.84 234.86 136.34 232.34 C 137.53 229.38 137.17 226.04 137.05 222.92 C 137.10 219.74 134.45 217.65 132.57 215.45 C 126.97 209.55 123.26 202.15 120.36 194.62 C 115.31 181.00 112.86 166.51 112.09 152.04 C 111.74 136.32 112.31 120.57 111.83 104.85 C 101.73 116.28 97.61 131.98 97.90 146.99 C 97.90 157.79 98.80 168.95 95.33 179.36 C 92.59 187.66 86.37 194.91 78.16 198.14 C 70.57 201.46 62.09 201.35 53.99 200.79 C 46.78 200.26 39.35 198.06 34.02 192.96 C 28.61 187.88 25.98 180.39 26.00 173.06 C 26.01 166.09 25.76 159.12 26.15 152.16 C 34.04 151.54 41.95 152.46 49.84 151.84 C 50.47 142.66 49.36 133.42 50.60 124.27 C 53.33 102.92 60.73 81.50 75.22 65.23 C 86.49 52.39 101.98 43.70 118.44 39.48 C 124.45 37.72 130.73 37.38 136.79 35.88 C 137.52 26.32 136.51 16.72 137.16 7.15 M 154.09 24.10 C 153.87 27.70 153.87 31.30 154.09 34.90 C 158.36 35.13 162.64 35.13 166.91 34.90 C 167.12 31.30 167.12 27.70 166.91 24.10 C 162.64 23.87 158.36 23.87 154.09 24.10 M 117.93 57.14 C 105.10 61.46 93.60 69.60 85.24 80.24 C 75.67 92.28 70.50 107.24 68.04 122.28 C 66.00 133.70 67.63 145.35 66.78 156.85 C 66.50 161.12 63.92 165.21 59.96 166.96 C 54.64 169.35 48.64 168.76 42.97 169.15 C 42.97 172.06 42.65 175.23 44.31 177.80 C 46.53 181.47 50.81 183.32 54.94 183.73 C 60.96 184.41 67.63 184.42 72.77 180.75 C 78.16 177.07 80.51 170.40 80.85 164.11 C 81.54 151.43 79.81 138.54 82.80 126.05 C 86.18 109.28 95.18 93.27 109.37 83.36 C 125.74 71.90 146.44 68.32 166.07 69.05 C 183.43 70.21 201.36 74.66 215.02 85.96 C 227.80 96.26 235.56 111.72 238.53 127.67 C 240.74 137.98 239.83 148.55 239.97 158.99 C 239.97 164.89 240.45 171.15 243.81 176.20 C 247.03 181.25 253.02 184.00 258.91 184.03 C 264.82 184.15 271.85 183.91 275.91 178.91 C 278.28 176.24 278.12 172.49 278.03 169.15 C 272.35 168.76 266.36 169.35 261.04 166.96 C 257.08 165.21 254.50 161.12 254.22 156.86 C 253.37 145.35 255.00 133.71 252.96 122.28 C 251.22 111.70 248.20 101.26 243.20 91.74 C 235.37 76.54 221.91 64.29 205.92 58.18 C 191.33 52.59 175.47 51.67 160.00 51.99 C 145.84 51.68 131.44 52.62 117.93 57.14 M 129.12 92.20 C 128.82 110.80 129.09 129.42 129.00 148.03 C 129.33 161.84 131.56 175.71 136.27 188.74 C 139.64 197.61 144.36 206.38 151.88 212.44 C 152.27 201.66 151.74 190.87 152.09 180.10 C 157.69 179.88 163.30 179.88 168.91 180.10 C 169.19 190.27 168.88 200.46 168.99 210.64 C 172.05 208.20 175.58 206.17 177.74 202.80 C 182.97 194.87 186.16 185.77 188.38 176.59 C 190.92 165.59 192.26 154.29 192.01 143.00 C 191.89 126.06 192.19 109.13 191.88 92.20 C 181.69 87.25 170.10 86.22 158.93 85.96 C 148.80 86.59 138.34 87.63 129.12 92.20 M 209.17 104.85 C 208.76 116.90 209.11 128.95 209.01 141.00 C 209.38 157.35 207.31 173.79 202.45 189.42 C 200.85 194.84 198.22 199.86 196.20 205.11 C 197.34 205.04 198.48 204.97 199.62 204.90 C 199.86 202.64 200.09 200.40 200.32 198.15 C 213.93 197.69 227.57 198.23 241.19 197.96 C 236.19 194.36 230.96 190.61 228.14 184.95 C 221.96 173.68 223.07 160.38 223.09 147.99 C 223.55 132.65 219.51 116.54 209.17 104.85 M 154.16 214.17 C 153.54 224.98 154.47 235.82 153.83 246.62 C 150.49 247.22 146.74 246.88 143.79 248.79 C 140.55 251.09 141.04 255.49 140.92 258.98 C 141.16 268.67 140.81 278.37 141.04 288.06 C 140.83 291.72 143.50 295.17 147.18 295.64 C 153.41 296.50 159.73 295.81 165.99 296.06 C 169.93 295.92 174.54 296.56 177.75 293.75 C 180.68 291.02 179.88 286.59 180.07 283.00 C 179.76 275.83 180.51 268.62 179.65 261.47 C 176.96 260.18 174.06 259.18 171.66 257.36 C 168.23 254.29 167.23 249.47 167.04 245.07 C 166.70 234.77 167.38 224.46 166.85 214.17 C 162.62 213.76 158.38 213.76 154.16 214.17 M 210.14 215.17 C 209.73 220.73 210.27 226.31 209.86 231.87 C 206.64 232.19 203.40 232.19 200.19 231.87 C 200.06 228.64 199.94 225.40 199.81 222.17 C 194.65 221.91 189.19 221.16 184.29 223.19 C 183.73 229.71 183.73 236.28 184.29 242.80 C 188.27 244.63 192.76 243.94 197.01 244.04 C 206.62 243.79 216.24 244.33 225.84 243.85 C 226.15 234.30 226.15 224.72 225.85 215.18 C 220.62 214.77 215.37 214.78 210.14 215.17 Z" />
</g>
<g id="#ffffffff">
<path fill="#ffffff" opacity="1.00" d=" M 154.09 24.10 C 158.36 23.87 162.64 23.87 166.91 24.10 C 167.12 27.70 167.12 31.30 166.91 34.90 C 162.64 35.13 158.36 35.13 154.09 34.90 C 153.87 31.30 153.87 27.70 154.09 24.10 Z" />
<path fill="#ffffff" opacity="1.00" d=" M 117.93 57.14 C 131.44 52.62 145.84 51.68 160.00 51.99 C 175.47 51.67 191.33 52.59 205.92 58.18 C 221.91 64.29 235.37 76.54 243.20 91.74 C 248.20 101.26 251.22 111.70 252.96 122.28 C 255.00 133.71 253.37 145.35 254.22 156.86 C 254.50 161.12 257.08 165.21 261.04 166.96 C 266.36 169.35 272.35 168.76 278.03 169.15 C 278.12 172.49 278.28 176.24 275.91 178.91 C 271.85 183.91 264.82 184.15 258.91 184.03 C 253.02 184.00 247.03 181.25 243.81 176.20 C 240.45 171.15 239.97 164.89 239.97 158.99 C 239.83 148.55 240.74 137.98 238.53 127.67 C 235.56 111.72 227.80 96.26 215.02 85.96 C 201.36 74.66 183.43 70.21 166.07 69.05 C 146.44 68.32 125.74 71.90 109.37 83.36 C 95.18 93.27 86.18 109.28 82.80 126.05 C 79.81 138.54 81.54 151.43 80.85 164.11 C 80.51 170.40 78.16 177.07 72.77 180.75 C 67.63 184.42 60.96 184.41 54.94 183.73 C 50.81 183.32 46.53 181.47 44.31 177.80 C 42.65 175.23 42.97 172.06 42.97 169.15 C 48.64 168.76 54.64 169.35 59.96 166.96 C 63.92 165.21 66.50 161.12 66.78 156.85 C 67.63 145.35 66.00 133.70 68.04 122.28 C 70.50 107.24 75.67 92.28 85.24 80.24 C 93.60 69.60 105.10 61.46 117.93 57.14 Z" />
<path fill="#ffffff" opacity="1.00" d=" M 129.12 92.20 C 138.34 87.63 148.80 86.59 158.93 85.96 C 170.10 86.22 181.69 87.25 191.88 92.20 C 192.19 109.13 191.89 126.06 192.01 143.00 C 192.26 154.29 190.92 165.59 188.38 176.59 C 186.16 185.77 182.97 194.87 177.74 202.80 C 175.58 206.17 172.05 208.20 168.99 210.64 C 168.88 200.46 169.19 190.27 168.91 180.10 C 163.30 179.88 157.69 179.88 152.09 180.10 C 151.74 190.87 152.27 201.66 151.88 212.44 C 144.36 206.38 139.64 197.61 136.27 188.74 C 131.56 175.71 129.33 161.84 129.00 148.03 C 129.09 129.42 128.82 110.80 129.12 92.20 Z" />
</g>
<g id="#949494ff">
<path fill="#949494" opacity="1.00" d=" M 154.16 214.17 C 158.38 213.76 162.62 213.76 166.85 214.17 C 167.38 224.46 166.70 234.77 167.04 245.07 C 167.23 249.47 168.23 254.29 171.66 257.36 C 174.06 259.18 176.96 260.18 179.65 261.47 C 180.51 268.62 179.76 275.83 180.07 283.00 C 179.88 286.59 180.68 291.02 177.75 293.75 C 174.54 296.56 169.93 295.92 165.99 296.06 C 159.73 295.81 153.41 296.50 147.18 295.64 C 143.50 295.17 140.83 291.72 141.04 288.06 C 140.81 278.37 141.16 268.67 140.92 258.98 C 141.04 255.49 140.55 251.09 143.79 248.79 C 146.74 246.88 150.49 247.22 153.83 246.62 C 154.47 235.82 153.54 224.98 154.16 214.17 Z" />
<path fill="#949494" opacity="1.00" d=" M 210.14 215.17 C 215.37 214.78 220.62 214.77 225.85 215.18 C 226.15 224.72 226.15 234.30 225.84 243.85 C 216.24 244.33 206.62 243.79 197.01 244.04 C 192.76 243.94 188.27 244.63 184.29 242.80 C 183.73 236.28 183.73 229.71 184.29 223.19 C 189.19 221.16 194.65 221.91 199.81 222.17 C 199.94 225.40 200.06 228.64 200.19 231.87 C 203.40 232.19 206.64 232.19 209.86 231.87 C 210.27 226.31 209.73 220.73 210.14 215.17 Z" />
</g>
</svg>
