<?xml version="1.0" encoding="UTF-8" ?>
<!DOCTYPE svg PUBLIC "-//W3C//DTD SVG 1.1//EN" "http://www.w3.org/Graphics/SVG/1.1/DTD/svg11.dtd">
<svg width="320pt" height="320pt" viewBox="0 0 320 320" version="1.1" xmlns="http://www.w3.org/2000/svg">
<g id="#000000ff">
<path fill="#000000" opacity="1.00" d=" M 24.42 25.44 C 35.43 15.53 50.27 10.61 64.92 10.01 C 65.20 17.65 64.81 25.29 65.06 32.93 C 87.02 33.14 108.98 32.86 130.94 33.06 C 131.05 49.02 131.04 64.99 130.95 80.95 C 126.99 81.09 123.03 80.91 119.07 81.05 C 118.95 97.68 118.96 114.31 119.06 130.94 C 126.40 131.06 133.74 131.08 141.08 130.91 C 139.77 126.30 137.83 121.89 136.71 117.23 C 133.11 103.85 132.57 89.87 133.06 76.09 C 144.75 75.62 156.53 73.41 167.07 68.18 C 172.17 65.76 176.20 61.64 181.26 59.16 C 195.83 51.37 212.76 49.25 229.07 50.15 C 242.53 51.42 256.19 54.79 267.39 62.66 C 279.36 72.15 294.99 75.43 309.94 76.09 C 310.86 97.45 308.50 119.82 297.69 138.68 C 294.39 144.75 289.81 150.05 284.46 154.41 C 282.87 155.36 283.05 157.34 282.97 158.94 C 283.04 183.63 282.96 208.31 283.02 233.00 C 282.99 236.39 283.35 239.93 282.11 243.18 C 277.14 256.71 268.31 269.27 255.80 276.78 C 249.23 280.79 241.63 283.02 233.96 283.42 C 223.44 284.50 212.79 284.16 202.34 282.62 C 185.20 279.39 171.63 266.10 164.17 250.84 C 162.37 246.75 159.99 242.65 159.98 238.05 C 160.00 211.35 160.02 184.64 159.99 157.94 C 160.27 154.35 156.44 152.76 154.07 150.89 C 153.84 167.57 154.15 184.26 153.93 200.94 C 145.25 201.20 136.56 200.77 127.88 201.12 C 136.04 215.98 145.36 230.21 153.84 244.91 C 142.25 245.18 130.65 244.84 119.07 245.06 C 118.71 255.23 119.49 265.44 118.52 275.59 C 117.37 286.56 112.36 297.72 103.02 304.07 C 95.20 309.57 85.36 310.95 76.01 310.96 C 61.38 311.00 46.75 311.15 32.13 310.74 C 31.85 299.37 33.12 287.58 38.26 277.29 C 40.29 272.86 44.65 270.05 46.61 265.60 C 49.03 259.06 47.73 251.88 47.94 245.06 C 35.02 244.84 22.09 245.18 9.16 244.91 C 17.63 230.20 26.96 215.98 35.13 201.11 C 26.44 200.78 17.75 201.20 9.06 200.94 C 8.96 177.65 8.96 154.35 9.06 131.06 C 22.02 130.84 34.98 131.15 47.94 130.94 C 48.09 126.98 48.09 123.02 47.93 119.06 C 34.98 118.84 22.01 119.16 9.06 118.94 C 8.90 100.29 9.06 81.65 8.99 63.00 C 8.91 49.13 14.19 35.00 24.42 25.44 M 34.99 40.00 C 28.58 48.14 25.70 58.73 25.99 69.01 C 26.06 79.99 25.91 90.97 26.05 101.95 C 33.35 102.05 40.65 102.05 47.95 101.95 C 48.00 78.02 48.12 54.08 47.88 30.15 C 43.03 32.60 38.35 35.65 34.99 40.00 M 65.06 50.06 C 64.92 54.68 64.92 59.32 65.06 63.94 C 81.35 64.04 97.65 64.04 113.94 63.94 C 114.08 59.32 114.08 54.69 113.94 50.06 C 97.65 49.95 81.35 49.96 65.06 50.06 M 176.34 80.38 C 168.39 85.35 159.35 88.34 150.24 90.36 C 149.77 96.23 149.69 102.23 151.09 107.98 C 155.17 122.54 162.93 136.56 175.24 145.71 C 177.14 147.19 179.71 146.84 181.96 147.00 C 192.29 146.96 202.62 147.08 212.95 146.95 C 213.04 120.57 213.02 94.20 212.96 67.83 C 199.93 68.27 186.94 72.79 176.34 80.38 M 230.04 67.86 C 229.98 94.22 229.96 120.59 230.05 146.95 C 240.38 147.09 250.70 146.97 261.03 147.00 C 263.28 146.84 265.83 147.16 267.76 145.72 C 280.30 136.38 288.14 122.00 292.10 107.11 C 293.33 101.62 293.22 95.92 292.73 90.35 C 281.15 88.10 270.14 83.35 260.59 76.42 C 251.19 71.56 240.71 67.95 230.04 67.86 M 65.06 81.06 C 64.96 97.68 64.95 114.32 65.06 130.94 C 77.35 131.04 89.65 131.05 101.94 130.94 C 102.04 114.32 102.04 97.68 101.94 81.05 C 89.65 80.96 77.35 80.95 65.06 81.06 M 26.06 148.06 C 25.96 160.02 25.95 171.98 26.06 183.94 C 63.02 184.04 99.99 184.04 136.95 183.94 C 137.04 171.98 137.05 160.02 136.94 148.06 C 130.31 147.94 123.68 147.94 117.06 148.06 C 116.82 154.68 117.18 161.31 116.94 167.94 C 108.65 168.05 100.35 168.06 92.06 167.94 C 91.82 161.32 92.18 154.69 91.94 148.06 C 84.98 147.94 78.02 147.95 71.06 148.06 C 70.82 154.68 71.18 161.32 70.94 167.94 C 62.65 168.05 54.35 168.04 46.06 167.94 C 45.82 161.32 46.18 154.69 45.94 148.06 C 39.32 147.94 32.69 147.93 26.06 148.06 M 177.06 164.06 C 176.89 187.71 177.10 211.36 176.96 235.01 C 176.96 237.67 176.93 240.45 178.12 242.90 C 181.33 249.85 185.94 256.37 192.34 260.70 C 198.28 265.01 205.64 266.91 212.92 267.00 C 213.07 232.69 213.02 198.37 212.95 164.05 C 200.98 163.96 189.02 163.95 177.06 164.06 M 230.05 164.05 C 229.98 198.37 229.95 232.68 230.06 267.00 C 236.38 266.97 242.77 265.51 248.23 262.26 C 255.42 257.91 260.99 251.15 264.57 243.60 C 265.79 241.27 266.11 238.63 266.04 236.03 C 265.92 212.04 266.09 188.04 265.95 164.05 C 253.99 163.96 242.01 163.96 230.05 164.05 M 53.52 205.57 C 49.37 213.03 44.99 220.37 41.01 227.93 C 68.00 228.05 95.00 228.04 121.99 227.93 C 117.11 218.89 112.02 209.96 106.84 201.09 C 90.88 200.87 74.92 201.06 58.96 201.00 C 56.13 200.62 54.85 203.65 53.52 205.57 M 65.06 245.06 C 64.51 252.99 66.27 261.39 62.92 268.90 C 61.26 272.93 58.64 276.48 55.70 279.67 C 52.07 283.58 49.94 288.66 49.07 293.88 C 58.05 294.16 67.04 293.94 76.03 293.99 C 84.27 294.06 93.36 291.22 98.10 284.04 C 101.76 278.80 101.97 272.15 102.01 265.99 C 101.95 259.01 102.11 252.03 101.94 245.06 C 89.65 244.96 77.35 244.95 65.06 245.06 Z" />
<path fill="#000000" opacity="1.00" d=" M 186.05 100.05 C 191.68 99.94 197.32 99.94 202.95 100.05 C 203.04 111.35 203.04 122.65 202.95 133.95 C 197.32 134.05 191.68 134.06 186.05 133.95 C 185.95 122.65 185.96 111.35 186.05 100.05 Z" />
<path fill="#000000" opacity="1.00" d=" M 240.06 100.06 C 245.68 99.93 251.32 99.94 256.94 100.05 C 257.04 111.35 257.04 122.65 256.94 133.95 C 251.31 134.06 245.68 134.07 240.06 133.94 C 239.95 122.65 239.95 111.35 240.06 100.06 Z" />
<path fill="#000000" opacity="1.00" d=" M 186.06 174.05 C 191.69 173.94 197.32 173.94 202.95 174.06 C 203.04 185.35 203.05 196.65 202.94 207.94 C 197.31 208.07 191.68 208.07 186.06 207.94 C 185.94 196.65 185.96 185.35 186.06 174.05 Z" />
<path fill="#000000" opacity="1.00" d=" M 240.05 174.05 C 245.68 173.94 251.32 173.94 256.95 174.05 C 257.04 185.35 257.03 196.65 256.95 207.95 C 251.32 208.05 245.68 208.05 240.05 207.95 C 239.96 196.65 239.96 185.35 240.05 174.05 Z" />
</g>
<g id="#ffffffff">
<path fill="#ffffff" opacity="1.00" d=" M 34.99 40.00 C 38.35 35.65 43.03 32.60 47.88 30.15 C 48.12 54.08 48.00 78.02 47.95 101.95 C 40.65 102.05 33.35 102.05 26.05 101.95 C 25.91 90.97 26.06 79.99 25.99 69.01 C 25.70 58.73 28.58 48.14 34.99 40.00 Z" />
<path fill="#ffffff" opacity="1.00" d=" M 176.34 80.38 C 186.94 72.79 199.93 68.27 212.96 67.83 C 213.02 94.20 213.04 120.57 212.95 146.95 C 202.62 147.08 192.29 146.96 181.96 147.00 C 179.71 146.84 177.14 147.19 175.24 145.71 C 162.93 136.56 155.17 122.54 151.09 107.98 C 149.69 102.23 149.77 96.23 150.24 90.36 C 159.35 88.34 168.39 85.35 176.34 80.38 M 186.05 100.05 C 185.96 111.35 185.95 122.65 186.05 133.95 C 191.68 134.06 197.32 134.05 202.95 133.95 C 203.04 122.65 203.04 111.35 202.95 100.05 C 197.32 99.94 191.68 99.94 186.05 100.05 Z" />
<path fill="#ffffff" opacity="1.00" d=" M 230.05 164.05 C 242.01 163.96 253.99 163.96 265.95 164.05 C 266.09 188.04 265.92 212.04 266.04 236.03 C 266.11 238.63 265.79 241.27 264.57 243.60 C 260.99 251.15 255.42 257.91 248.23 262.26 C 242.77 265.51 236.38 266.97 230.06 267.00 C 229.95 232.68 229.98 198.37 230.05 164.05 M 240.05 174.05 C 239.96 185.35 239.96 196.65 240.05 207.95 C 245.68 208.05 251.32 208.05 256.95 207.95 C 257.03 196.65 257.04 185.35 256.95 174.05 C 251.32 173.94 245.68 173.94 240.05 174.05 Z" />
<path fill="#ffffff" opacity="1.00" d=" M 53.52 205.57 C 54.85 203.65 56.13 200.62 58.96 201.00 C 74.92 201.06 90.88 200.87 106.84 201.09 C 112.02 209.96 117.11 218.89 121.99 227.93 C 95.00 228.04 68.00 228.05 41.01 227.93 C 44.99 220.37 49.37 213.03 53.52 205.57 Z" />
</g>
<g id="#b1b1b1ff">
<path fill="#b1b1b1" opacity="1.00" d=" M 65.06 50.06 C 81.35 49.96 97.65 49.95 113.94 50.06 C 114.08 54.69 114.08 59.32 113.94 63.94 C 97.65 64.04 81.35 64.04 65.06 63.94 C 64.92 59.32 64.92 54.68 65.06 50.06 Z" />
<path fill="#b1b1b1" opacity="1.00" d=" M 230.04 67.86 C 240.71 67.95 251.19 71.56 260.59 76.42 C 270.14 83.35 281.15 88.10 292.73 90.35 C 293.22 95.92 293.33 101.62 292.10 107.11 C 288.14 122.00 280.30 136.38 267.76 145.72 C 265.83 147.16 263.28 146.84 261.03 147.00 C 250.70 146.97 240.38 147.09 230.05 146.95 C 229.96 120.59 229.98 94.22 230.04 67.86 M 240.06 100.06 C 239.95 111.35 239.95 122.65 240.06 133.94 C 245.68 134.07 251.31 134.06 256.94 133.95 C 257.04 122.65 257.04 111.35 256.94 100.05 C 251.32 99.94 245.68 99.93 240.06 100.06 Z" />
<path fill="#b1b1b1" opacity="1.00" d=" M 65.06 81.06 C 77.35 80.95 89.65 80.96 101.94 81.05 C 102.04 97.68 102.04 114.32 101.94 130.94 C 89.65 131.05 77.35 131.04 65.06 130.94 C 64.95 114.32 64.96 97.68 65.06 81.06 Z" />
<path fill="#b1b1b1" opacity="1.00" d=" M 26.06 148.06 C 32.69 147.93 39.32 147.94 45.94 148.06 C 46.18 154.69 45.82 161.32 46.06 167.94 C 54.35 168.04 62.65 168.05 70.94 167.94 C 71.18 161.32 70.82 154.68 71.06 148.06 C 78.02 147.95 84.98 147.94 91.94 148.06 C 92.18 154.69 91.82 161.32 92.06 167.94 C 100.35 168.06 108.65 168.05 116.94 167.94 C 117.18 161.31 116.82 154.68 117.06 148.06 C 123.68 147.94 130.31 147.94 136.94 148.06 C 137.05 160.02 137.04 171.98 136.95 183.94 C 99.99 184.04 63.02 184.04 26.06 183.94 C 25.95 171.98 25.96 160.02 26.06 148.06 Z" />
<path fill="#b1b1b1" opacity="1.00" d=" M 177.06 164.06 C 189.02 163.95 200.98 163.96 212.95 164.05 C 213.02 198.37 213.07 232.69 212.92 267.00 C 205.64 266.91 198.28 265.01 192.34 260.70 C 185.94 256.37 181.33 249.85 178.12 242.90 C 176.93 240.45 176.96 237.67 176.96 235.01 C 177.10 211.36 176.89 187.71 177.06 164.06 M 186.06 174.05 C 185.96 185.35 185.94 196.65 186.06 207.94 C 191.68 208.07 197.31 208.07 202.94 207.94 C 203.05 196.65 203.04 185.35 202.95 174.06 C 197.32 173.94 191.69 173.94 186.06 174.05 Z" />
<path fill="#b1b1b1" opacity="1.00" d=" M 65.06 245.06 C 77.35 244.95 89.65 244.96 101.94 245.06 C 102.11 252.03 101.95 259.01 102.01 265.99 C 101.97 272.15 101.76 278.80 98.10 284.04 C 93.36 291.22 84.27 294.06 76.03 293.99 C 67.04 293.94 58.05 294.16 49.07 293.88 C 49.94 288.66 52.07 283.58 55.70 279.67 C 58.64 276.48 61.26 272.93 62.92 268.90 C 66.27 261.39 64.51 252.99 65.06 245.06 Z" />
</g>
</svg>
